  0
SECTION
  2
BLOCKS
  0
ENDSEC
  0
SECTION
  2
ENTITIES
  0
LINE
  8
0
 10
82.2157
 20
-183.104
 11
66.7291
 21
-205.221
  0
LINE
  8
0
 10
66.7291
 20
-205.221
 11
61.8719
 21
-201.82
  0
LINE
  8
0
 10
61.8719
 20
-201.82
 11
57.5226
 21
-215.165
  0
LINE
  8
0
 10
57.5226
 20
-215.165
 11
57.7384
 21
-215.082
  0
LINE
  8
0
 10
57.7384
 20
-215.082
 11
58.2121
 21
-214.926
  0
LINE
  8
0
 10
58.2121
 20
-214.926
 11
58.6929
 21
-214.794
  0
LINE
  8
0
 10
58.6929
 20
-214.794
 11
59.1797
 21
-214.686
  0
LINE
  8
0
 10
59.1797
 20
-214.686
 11
59.6712
 21
-214.603
  0
LINE
  8
0
 10
59.6712
 20
-214.603
 11
60.1664
 21
-214.544
  0
LINE
  8
0
 10
60.1664
 20
-214.544
 11
60.6638
 21
-214.51
  0
LINE
  8
0
 10
60.6638
 20
-214.51
 11
61.1623
 21
-214.5
  0
LINE
  8
0
 10
61.1623
 20
-214.5
 11
61.6607
 21
-214.516
  0
LINE
  8
0
 10
61.6607
 20
-214.516
 11
62.1577
 21
-214.556
  0
LINE
  8
0
 10
62.1577
 20
-214.556
 11
62.652
 21
-214.621
  0
LINE
  8
0
 10
62.652
 20
-214.621
 11
63.1425
 21
-214.711
  0
LINE
  8
0
 10
63.1425
 20
-214.711
 11
63.6279
 21
-214.825
  0
LINE
  8
0
 10
63.6279
 20
-214.825
 11
64.1071
 21
-214.963
  0
LINE
  8
0
 10
64.1071
 20
-214.963
 11
64.5787
 21
-215.125
  0
LINE
  8
0
 10
64.5787
 20
-215.125
 11
65.0417
 21
-215.31
  0
LINE
  8
0
 10
65.0417
 20
-215.31
 11
65.4949
 21
-215.518
  0
LINE
  8
0
 10
65.4949
 20
-215.518
 11
65.9372
 21
-215.748
  0
LINE
  8
0
 10
65.9372
 20
-215.748
 11
66.3674
 21
-216
  0
LINE
  8
0
 10
66.3674
 20
-216
 11
66.7846
 21
-216.273
  0
LINE
  8
0
 10
66.7846
 20
-216.273
 11
67.1876
 21
-216.566
  0
LINE
  8
0
 10
67.1876
 20
-216.566
 11
67.5755
 21
-216.88
  0
LINE
  8
0
 10
67.5755
 20
-216.88
 11
67.9473
 21
-217.212
  0
LINE
  8
0
 10
67.9473
 20
-217.212
 11
68.302
 21
-217.562
  0
LINE
  8
0
 10
68.302
 20
-217.562
 11
68.6389
 21
-217.93
  0
LINE
  8
0
 10
68.6389
 20
-217.93
 11
68.957
 21
-218.314
  0
LINE
  8
0
 10
68.957
 20
-218.314
 11
69.2556
 21
-218.713
  0
LINE
  8
0
 10
69.2556
 20
-218.713
 11
69.5339
 21
-219.127
  0
LINE
  8
0
 10
69.5339
 20
-219.127
 11
69.7912
 21
-219.554
  0
LINE
  8
0
 10
69.7912
 20
-219.554
 11
70.027
 21
-219.993
  0
LINE
  8
0
 10
70.027
 20
-219.993
 11
70.2405
 21
-220.444
  0
LINE
  8
0
 10
70.2405
 20
-220.444
 11
70.4313
 21
-220.905
  0
LINE
  8
0
 10
70.4313
 20
-220.905
 11
70.5989
 21
-221.374
  0
LINE
  8
0
 10
70.5989
 20
-221.374
 11
70.7429
 21
-221.852
  0
LINE
  8
0
 10
70.7429
 20
-221.852
 11
70.863
 21
-222.336
  0
LINE
  8
0
 10
70.863
 20
-222.336
 11
70.9587
 21
-222.825
  0
LINE
  8
0
 10
70.9587
 20
-222.825
 11
71.03
 21
-223.318
  0
LINE
  8
0
 10
71.03
 20
-223.318
 11
71.0765
 21
-223.815
  0
LINE
  8
0
 10
71.0765
 20
-223.815
 11
71.0983
 21
-224.313
  0
LINE
  8
0
 10
71.0983
 20
-224.313
 11
71.0951
 21
-224.812
  0
LINE
  8
0
 10
71.0951
 20
-224.812
 11
71.0672
 21
-225.309
  0
LINE
  8
0
 10
71.0672
 20
-225.309
 11
71.0145
 21
-225.805
  0
LINE
  8
0
 10
71.0145
 20
-225.805
 11
70.9371
 21
-226.298
  0
LINE
  8
0
 10
70.9371
 20
-226.298
 11
70.8352
 21
-226.786
  0
LINE
  8
0
 10
70.8352
 20
-226.786
 11
70.7092
 21
-227.268
  0
LINE
  8
0
 10
70.7092
 20
-227.268
 11
70.5592
 21
-227.744
  0
LINE
  8
0
 10
70.5592
 20
-227.744
 11
70.3858
 21
-228.211
  0
LINE
  8
0
 10
70.3858
 20
-228.211
 11
70.1892
 21
-228.67
  0
LINE
  8
0
 10
70.1892
 20
-228.67
 11
69.9701
 21
-229.117
  0
LINE
  8
0
 10
69.9701
 20
-229.117
 11
69.7289
 21
-229.554
  0
LINE
  8
0
 10
69.7289
 20
-229.554
 11
69.4663
 21
-229.978
  0
LINE
  8
0
 10
69.4663
 20
-229.978
 11
69.1828
 21
-230.388
  0
LINE
  8
0
 10
69.1828
 20
-230.388
 11
68.8793
 21
-230.784
  0
LINE
  8
0
 10
68.8793
 20
-230.784
 11
68.5564
 21
-231.163
  0
LINE
  8
0
 10
68.5564
 20
-231.163
 11
68.215
 21
-231.527
  0
LINE
  8
0
 10
68.215
 20
-231.527
 11
67.8559
 21
-231.873
  0
LINE
  8
0
 10
67.8559
 20
-231.873
 11
67.48
 21
-232.2
  0
LINE
  8
0
 10
67.48
 20
-232.2
 11
67.0882
 21
-232.509
  0
LINE
  8
0
 10
67.0882
 20
-232.509
 11
66.6816
 21
-232.797
  0
LINE
  8
0
 10
66.6816
 20
-232.797
 11
66.2611
 21
-233.065
  0
LINE
  8
0
 10
66.2611
 20
-233.065
 11
65.8277
 21
-233.312
  0
LINE
  8
0
 10
65.8277
 20
-233.312
 11
65.3826
 21
-233.537
  0
LINE
  8
0
 10
65.3826
 20
-233.537
 11
64.9268
 21
-233.739
  0
LINE
  8
0
 10
64.9268
 20
-233.739
 11
64.4616
 21
-233.918
  0
LINE
  8
0
 10
64.4616
 20
-233.918
 11
63.9879
 21
-234.074
  0
LINE
  8
0
 10
63.9879
 20
-234.074
 11
63.5071
 21
-234.206
  0
LINE
  8
0
 10
63.5071
 20
-234.206
 11
63.0203
 21
-234.314
  0
LINE
  8
0
 10
63.0203
 20
-234.314
 11
62.5287
 21
-234.397
  0
LINE
  8
0
 10
62.5287
 20
-234.397
 11
62.0336
 21
-234.456
  0
LINE
  8
0
 10
62.0336
 20
-234.456
 11
61.5362
 21
-234.49
  0
LINE
  8
0
 10
61.5362
 20
-234.49
 11
61.0377
 21
-234.5
  0
LINE
  8
0
 10
61.0377
 20
-234.5
 11
60.5393
 21
-234.484
  0
LINE
  8
0
 10
60.5393
 20
-234.484
 11
60.0423
 21
-234.444
  0
LINE
  8
0
 10
60.0423
 20
-234.444
 11
59.548
 21
-234.379
  0
LINE
  8
0
 10
59.548
 20
-234.379
 11
59.0575
 21
-234.289
  0
LINE
  8
0
 10
59.0575
 20
-234.289
 11
58.5721
 21
-234.175
  0
LINE
  8
0
 10
58.5721
 20
-234.175
 11
58.0929
 21
-234.037
  0
LINE
  8
0
 10
58.0929
 20
-234.037
 11
57.6213
 21
-233.875
  0
LINE
  8
0
 10
57.6213
 20
-233.875
 11
57.1583
 21
-233.69
  0
LINE
  8
0
 10
57.1583
 20
-233.69
 11
56.7051
 21
-233.482
  0
LINE
  8
0
 10
56.7051
 20
-233.482
 11
56.2628
 21
-233.252
  0
LINE
  8
0
 10
56.2628
 20
-233.252
 11
55.8326
 21
-233
  0
LINE
  8
0
 10
55.8326
 20
-233
 11
55.4154
 21
-232.727
  0
LINE
  8
0
 10
55.4154
 20
-232.727
 11
55.0124
 21
-232.434
  0
LINE
  8
0
 10
55.0124
 20
-232.434
 11
54.6245
 21
-232.12
  0
LINE
  8
0
 10
54.6245
 20
-232.12
 11
54.2527
 21
-231.788
  0
LINE
  8
0
 10
54.2527
 20
-231.788
 11
53.8979
 21
-231.438
  0
LINE
  8
0
 10
53.8979
 20
-231.438
 11
53.5611
 21
-231.07
  0
LINE
  8
0
 10
53.5611
 20
-231.07
 11
53.243
 21
-230.686
  0
LINE
  8
0
 10
53.243
 20
-230.686
 11
52.9444
 21
-230.287
  0
LINE
  8
0
 10
52.9444
 20
-230.287
 11
52.7086
 21
-229.936
  0
LINE
  8
0
 10
52.7086
 20
-229.936
 11
47.3103
 21
-246.5
  0
LINE
  8
0
 10
47.3103
 20
-246.5
 11
53.1
 21
-246.5
  0
LINE
  8
0
 10
53.1
 20
-246.5
 11
53.1
 21
-273.5
  0
LINE
  8
0
 10
53.1
 20
-273.5
 11
48.4791
 21
-273.5
  0
LINE
  8
0
 10
48.4791
 20
-273.5
 11
48.7899
 21
-273.919
  0
LINE
  8
0
 10
48.7899
 20
-273.919
 11
49.0957
 21
-274.312
  0
LINE
  8
0
 10
49.0957
 20
-274.312
 11
49.41
 21
-274.699
  0
LINE
  8
0
 10
49.41
 20
-274.699
 11
49.7326
 21
-275.079
  0
LINE
  8
0
 10
49.7326
 20
-275.079
 11
50.0634
 21
-275.452
  0
LINE
  8
0
 10
50.0634
 20
-275.452
 11
50.4021
 21
-275.817
  0
LINE
  8
0
 10
50.4021
 20
-275.817
 11
50.7487
 21
-276.175
  0
LINE
  8
0
 10
50.7487
 20
-276.175
 11
51.103
 21
-276.526
  0
LINE
  8
0
 10
51.103
 20
-276.526
 11
51.4647
 21
-276.868
  0
LINE
  8
0
 10
51.4647
 20
-276.868
 11
51.8338
 21
-277.203
  0
LINE
  8
0
 10
51.8338
 20
-277.203
 11
52.2101
 21
-277.53
  0
LINE
  8
0
 10
52.2101
 20
-277.53
 11
52.5934
 21
-277.848
  0
LINE
  8
0
 10
52.5934
 20
-277.848
 11
52.9835
 21
-278.158
  0
LINE
  8
0
 10
52.9835
 20
-278.158
 11
53.3802
 21
-278.46
  0
LINE
  8
0
 10
53.3802
 20
-278.46
 11
53.7833
 21
-278.753
  0
LINE
  8
0
 10
53.7833
 20
-278.753
 11
54.1927
 21
-279.037
  0
LINE
  8
0
 10
54.1927
 20
-279.037
 11
54.6081
 21
-279.312
  0
LINE
  8
0
 10
54.6081
 20
-279.312
 11
55.0295
 21
-279.578
  0
LINE
  8
0
 10
55.0295
 20
-279.578
 11
55.4564
 21
-279.835
  0
LINE
  8
0
 10
55.4564
 20
-279.835
 11
55.8889
 21
-280.083
  0
LINE
  8
0
 10
55.8889
 20
-280.083
 11
56.3266
 21
-280.321
  0
LINE
  8
0
 10
56.3266
 20
-280.321
 11
56.7694
 21
-280.549
  0
LINE
  8
0
 10
56.7694
 20
-280.549
 11
57.217
 21
-280.768
  0
LINE
  8
0
 10
57.217
 20
-280.768
 11
57.6692
 21
-280.978
  0
LINE
  8
0
 10
57.6692
 20
-280.978
 11
58.1259
 21
-281.177
  0
LINE
  8
0
 10
58.1259
 20
-281.177
 11
58.5868
 21
-281.366
  0
LINE
  8
0
 10
58.5868
 20
-281.366
 11
59.0517
 21
-281.546
  0
LINE
  8
0
 10
59.0517
 20
-281.546
 11
59.5204
 21
-281.715
  0
LINE
  8
0
 10
59.5204
 20
-281.715
 11
59.9926
 21
-281.874
  0
LINE
  8
0
 10
59.9926
 20
-281.874
 11
60.4682
 21
-282.023
  0
LINE
  8
0
 10
60.4682
 20
-282.023
 11
60.9468
 21
-282.162
  0
LINE
  8
0
 10
60.9468
 20
-282.162
 11
95.4762
 21
-291.782
  0
LINE
  8
0
 10
95.4762
 20
-291.782
 11
95.7334
 21
-291.78
  0
LINE
  8
0
 10
95.7334
 20
-291.78
 11
96.2322
 21
-291.767
  0
LINE
  8
0
 10
96.2322
 20
-291.767
 11
96.7306
 21
-291.744
  0
LINE
  8
0
 10
96.7306
 20
-291.744
 11
97.2286
 21
-291.713
  0
LINE
  8
0
 10
97.2286
 20
-291.713
 11
97.7258
 21
-291.672
  0
LINE
  8
0
 10
97.7258
 20
-291.672
 11
98.2223
 21
-291.622
  0
LINE
  8
0
 10
98.2223
 20
-291.622
 11
98.7177
 21
-291.562
  0
LINE
  8
0
 10
98.7177
 20
-291.562
 11
99.2119
 21
-291.494
  0
LINE
  8
0
 10
99.2119
 20
-291.494
 11
99.7048
 21
-291.416
  0
LINE
  8
0
 10
99.7048
 20
-291.416
 11
100.196
 21
-291.33
  0
LINE
  8
0
 10
100.196
 20
-291.33
 11
100.686
 21
-291.234
  0
LINE
  8
0
 10
100.686
 20
-291.234
 11
101.174
 21
-291.129
  0
LINE
  8
0
 10
101.174
 20
-291.129
 11
101.66
 21
-291.016
  0
LINE
  8
0
 10
101.66
 20
-291.016
 11
102.143
 21
-290.893
  0
LINE
  8
0
 10
102.143
 20
-290.893
 11
102.624
 21
-290.761
  0
LINE
  8
0
 10
102.624
 20
-290.761
 11
103.103
 21
-290.621
  0
LINE
  8
0
 10
103.103
 20
-290.621
 11
103.579
 21
-290.471
  0
LINE
  8
0
 10
103.579
 20
-290.471
 11
104.053
 21
-290.313
  0
LINE
  8
0
 10
104.053
 20
-290.313
 11
104.307
 21
-290.223
  0
LINE
  8
0
 10
104.307
 20
-290.223
 11
122.26
 21
-264.583
  0
LINE
  8
0
 10
122.26
 20
-264.583
 11
143.26
 21
-201.583
  0
LINE
  8
0
 10
143.26
 20
-201.583
 11
143.258
 21
-201.313
  0
LINE
  8
0
 10
143.258
 20
-201.313
 11
143.245
 21
-200.814
  0
LINE
  8
0
 10
143.245
 20
-200.814
 11
143.222
 21
-200.316
  0
LINE
  8
0
 10
143.222
 20
-200.316
 11
143.191
 21
-199.818
  0
LINE
  8
0
 10
143.191
 20
-199.818
 11
143.15
 21
-199.321
  0
LINE
  8
0
 10
143.15
 20
-199.321
 11
143.099
 21
-198.824
  0
LINE
  8
0
 10
143.099
 20
-198.824
 11
143.04
 21
-198.329
  0
LINE
  8
0
 10
143.04
 20
-198.329
 11
142.972
 21
-197.835
  0
LINE
  8
0
 10
142.972
 20
-197.835
 11
142.894
 21
-197.342
  0
LINE
  8
0
 10
142.894
 20
-197.342
 11
142.808
 21
-196.85
  0
LINE
  8
0
 10
142.808
 20
-196.85
 11
142.712
 21
-196.361
  0
LINE
  8
0
 10
142.712
 20
-196.361
 11
142.607
 21
-195.873
  0
LINE
  8
0
 10
142.607
 20
-195.873
 11
142.493
 21
-195.387
  0
LINE
  8
0
 10
142.493
 20
-195.387
 11
142.371
 21
-194.903
  0
LINE
  8
0
 10
142.371
 20
-194.903
 11
142.239
 21
-194.422
  0
LINE
  8
0
 10
142.239
 20
-194.422
 11
142.099
 21
-193.943
  0
LINE
  8
0
 10
142.099
 20
-193.943
 11
141.949
 21
-193.467
  0
LINE
  8
0
 10
141.949
 20
-193.467
 11
141.791
 21
-192.994
  0
LINE
  8
0
 10
141.791
 20
-192.994
 11
141.705
 21
-192.752
  0
LINE
  8
0
 10
141.705
 20
-192.752
 11
116.048
 21
-174.786
  0
LINE
  8
0
 10
116.048
 20
-174.786
 11
115.791
 21
-174.788
  0
LINE
  8
0
 10
115.791
 20
-174.788
 11
115.292
 21
-174.802
  0
LINE
  8
0
 10
115.292
 20
-174.802
 11
114.794
 21
-174.824
  0
LINE
  8
0
 10
114.794
 20
-174.824
 11
114.296
 21
-174.856
  0
LINE
  8
0
 10
114.296
 20
-174.856
 11
113.799
 21
-174.897
  0
LINE
  8
0
 10
113.799
 20
-174.897
 11
113.302
 21
-174.947
  0
LINE
  8
0
 10
113.302
 20
-174.947
 11
112.807
 21
-175.006
  0
LINE
  8
0
 10
112.807
 20
-175.006
 11
112.312
 21
-175.075
  0
LINE
  8
0
 10
112.312
 20
-175.075
 11
82.3152
 21
-179.48
  0
LINE
  8
0
 10
82.3152
 20
-179.48
 11
81.824
 21
-179.564
  0
LINE
  8
0
 10
81.824
 20
-179.564
 11
81.3347
 21
-179.658
  0
LINE
  8
0
 10
81.3347
 20
-179.658
 11
80.8476
 21
-179.763
  0
LINE
  8
0
 10
80.8476
 20
-179.763
 11
80.3629
 21
-179.879
  0
LINE
  8
0
 10
80.3629
 20
-179.879
 11
79.8808
 21
-180.005
  0
LINE
  8
0
 10
79.8808
 20
-180.005
 11
79.4015
 21
-180.141
  0
LINE
  8
0
 10
79.4015
 20
-180.141
 11
78.9253
 21
-180.288
  0
LINE
  8
0
 10
78.9253
 20
-180.288
 11
78.4304
 21
-180.453
  0
LINE
  8
0
 10
78.4304
 20
-180.453
 11
82.2157
 21
-183.104
  0
LINE
  8
0
 10
112.222
 20
-183.325
 11
111.772
 21
-183.131
  0
LINE
  8
0
 10
111.772
 20
-183.131
 11
111.391
 21
-182.823
  0
LINE
  8
0
 10
111.391
 20
-182.823
 11
111.106
 21
-182.424
  0
LINE
  8
0
 10
111.106
 20
-182.424
 11
110.94
 21
-181.963
  0
LINE
  8
0
 10
110.94
 20
-181.963
 11
110.449
 21
-179.177
  0
LINE
  8
0
 10
110.449
 20
-179.177
 11
110.414
 21
-178.688
  0
LINE
  8
0
 10
110.414
 20
-178.688
 11
110.512
 21
-178.208
  0
LINE
  8
0
 10
110.512
 20
-178.208
 11
110.736
 21
-177.772
  0
LINE
  8
0
 10
110.736
 20
-177.772
 11
111.069
 21
-177.412
  0
LINE
  8
0
 10
111.069
 20
-177.412
 11
111.487
 21
-177.156
  0
LINE
  8
0
 10
111.487
 20
-177.156
 11
111.958
 21
-177.022
  0
LINE
  8
0
 10
111.958
 20
-177.022
 11
112.449
 21
-177.02
  0
LINE
  8
0
 10
112.449
 20
-177.02
 11
112.921
 21
-177.151
  0
LINE
  8
0
 10
112.921
 20
-177.151
 11
113.341
 21
-177.404
  0
LINE
  8
0
 10
113.341
 20
-177.404
 11
113.677
 21
-177.761
  0
LINE
  8
0
 10
113.677
 20
-177.761
 11
113.904
 21
-178.195
  0
LINE
  8
0
 10
113.904
 20
-178.195
 11
114.006
 21
-178.675
  0
LINE
  8
0
 10
114.006
 20
-178.675
 11
114.497
 21
-181.46
  0
LINE
  8
0
 10
114.497
 20
-181.46
 11
114.465
 21
-181.949
  0
LINE
  8
0
 10
114.465
 20
-181.949
 11
114.303
 21
-182.412
  0
LINE
  8
0
 10
114.303
 20
-182.412
 11
114.022
 21
-182.813
  0
LINE
  8
0
 10
114.022
 20
-182.813
 11
113.642
 21
-183.124
  0
LINE
  8
0
 10
113.642
 20
-183.124
 11
113.194
 21
-183.321
  0
LINE
  8
0
 10
113.194
 20
-183.321
 11
112.708
 21
-183.39
  0
LINE
  8
0
 10
112.708
 20
-183.39
 11
112.222
 21
-183.325
  0
LINE
  8
0
 10
98.1366
 20
-181.836
 11
97.6754
 21
-181.68
  0
LINE
  8
0
 10
97.6754
 20
-181.68
 11
97.2767
 21
-181.401
  0
LINE
  8
0
 10
97.2767
 20
-181.401
 11
96.9729
 21
-181.021
  0
LINE
  8
0
 10
96.9729
 20
-181.021
 11
96.7884
 21
-180.57
  0
LINE
  8
0
 10
96.7884
 20
-180.57
 11
96.7383
 21
-180.086
  0
LINE
  8
0
 10
96.7383
 20
-180.086
 11
96.8266
 21
-179.608
  0
LINE
  8
0
 10
96.8266
 20
-179.608
 11
97.0462
 21
-179.173
  0
LINE
  8
0
 10
97.0462
 20
-179.173
 11
97.3792
 21
-178.818
  0
LINE
  8
0
 10
97.3792
 20
-178.818
 11
97.7988
 21
-178.572
  0
LINE
  8
0
 10
97.7988
 20
-178.572
 11
98.2709
 21
-178.453
  0
LINE
  8
0
 10
98.2709
 20
-178.453
 11
98.7572
 21
-178.473
  0
LINE
  8
0
 10
98.7572
 20
-178.473
 11
99.2184
 21
-178.628
  0
LINE
  8
0
 10
99.2184
 20
-178.628
 11
99.6171
 21
-178.907
  0
LINE
  8
0
 10
99.6171
 20
-178.907
 11
99.921
 21
-179.287
  0
LINE
  8
0
 10
99.921
 20
-179.287
 11
100.105
 21
-179.738
  0
LINE
  8
0
 10
100.105
 20
-179.738
 11
100.156
 21
-180.222
  0
LINE
  8
0
 10
100.156
 20
-180.222
 11
100.067
 21
-180.701
  0
LINE
  8
0
 10
100.067
 20
-180.701
 11
99.8477
 21
-181.135
  0
LINE
  8
0
 10
99.8477
 20
-181.135
 11
99.5146
 21
-181.49
  0
LINE
  8
0
 10
99.5146
 20
-181.49
 11
99.095
 21
-181.737
  0
LINE
  8
0
 10
99.095
 20
-181.737
 11
98.623
 21
-181.855
  0
LINE
  8
0
 10
98.623
 20
-181.855
 11
98.1366
 21
-181.836
  0
LINE
  8
0
 10
90.9669
 20
-192.075
 11
90.5057
 21
-191.92
  0
LINE
  8
0
 10
90.5057
 20
-191.92
 11
90.107
 21
-191.64
  0
LINE
  8
0
 10
90.107
 20
-191.64
 11
89.8031
 21
-191.26
  0
LINE
  8
0
 10
89.8031
 20
-191.26
 11
89.6187
 21
-190.81
  0
LINE
  8
0
 10
89.6187
 20
-190.81
 11
89.5686
 21
-190.326
  0
LINE
  8
0
 10
89.5686
 20
-190.326
 11
89.6569
 21
-189.847
  0
LINE
  8
0
 10
89.6569
 20
-189.847
 11
89.8765
 21
-189.413
  0
LINE
  8
0
 10
89.8765
 20
-189.413
 11
90.2095
 21
-189.058
  0
LINE
  8
0
 10
90.2095
 20
-189.058
 11
90.6291
 21
-188.811
  0
LINE
  8
0
 10
90.6291
 20
-188.811
 11
91.1012
 21
-188.693
  0
LINE
  8
0
 10
91.1012
 20
-188.693
 11
91.5875
 21
-188.712
  0
LINE
  8
0
 10
91.5875
 20
-188.712
 11
92.0487
 21
-188.867
  0
LINE
  8
0
 10
92.0487
 20
-188.867
 11
92.4474
 21
-189.147
  0
LINE
  8
0
 10
92.4474
 20
-189.147
 11
92.7513
 21
-189.527
  0
LINE
  8
0
 10
92.7513
 20
-189.527
 11
92.9358
 21
-189.977
  0
LINE
  8
0
 10
92.9358
 20
-189.977
 11
92.9859
 21
-190.461
  0
LINE
  8
0
 10
92.9859
 20
-190.461
 11
92.8976
 21
-190.94
  0
LINE
  8
0
 10
92.8976
 20
-190.94
 11
92.678
 21
-191.374
  0
LINE
  8
0
 10
92.678
 20
-191.374
 11
92.3449
 21
-191.729
  0
LINE
  8
0
 10
92.3449
 20
-191.729
 11
91.9253
 21
-191.976
  0
LINE
  8
0
 10
91.9253
 20
-191.976
 11
91.4533
 21
-192.094
  0
LINE
  8
0
 10
91.4533
 20
-192.094
 11
90.9669
 21
-192.075
  0
LINE
  8
0
 10
136.586
 20
-200.019
 11
136.097
 21
-199.987
  0
LINE
  8
0
 10
136.097
 20
-199.987
 11
135.635
 21
-199.825
  0
LINE
  8
0
 10
135.635
 20
-199.825
 11
135.233
 21
-199.544
  0
LINE
  8
0
 10
135.233
 20
-199.544
 11
134.922
 21
-199.165
  0
LINE
  8
0
 10
134.922
 20
-199.165
 11
134.725
 21
-198.716
  0
LINE
  8
0
 10
134.725
 20
-198.716
 11
134.657
 21
-198.23
  0
LINE
  8
0
 10
134.657
 20
-198.23
 11
134.722
 21
-197.744
  0
LINE
  8
0
 10
134.722
 20
-197.744
 11
134.915
 21
-197.294
  0
LINE
  8
0
 10
134.915
 20
-197.294
 11
135.223
 21
-196.913
  0
LINE
  8
0
 10
135.223
 20
-196.913
 11
135.623
 21
-196.628
  0
LINE
  8
0
 10
135.623
 20
-196.628
 11
136.084
 21
-196.463
  0
LINE
  8
0
 10
136.084
 20
-196.463
 11
138.869
 21
-195.971
  0
LINE
  8
0
 10
138.869
 20
-195.971
 11
139.358
 21
-195.936
  0
LINE
  8
0
 10
139.358
 20
-195.936
 11
139.839
 21
-196.034
  0
LINE
  8
0
 10
139.839
 20
-196.034
 11
140.275
 21
-196.258
  0
LINE
  8
0
 10
140.275
 20
-196.258
 11
140.634
 21
-196.591
  0
LINE
  8
0
 10
140.634
 20
-196.591
 11
140.89
 21
-197.009
  0
LINE
  8
0
 10
140.89
 20
-197.009
 11
141.025
 21
-197.481
  0
LINE
  8
0
 10
141.025
 20
-197.481
 11
141.026
 21
-197.971
  0
LINE
  8
0
 10
141.026
 20
-197.971
 11
140.896
 21
-198.443
  0
LINE
  8
0
 10
140.896
 20
-198.443
 11
140.643
 21
-198.863
  0
LINE
  8
0
 10
140.643
 20
-198.863
 11
140.286
 21
-199.199
  0
LINE
  8
0
 10
140.286
 20
-199.199
 11
139.851
 21
-199.426
  0
LINE
  8
0
 10
139.851
 20
-199.426
 11
139.372
 21
-199.528
  0
LINE
  8
0
 10
139.372
 20
-199.528
 11
136.586
 21
-200.019
  0
LINE
  8
0
 10
83.7972
 20
-202.315
 11
83.336
 21
-202.159
  0
LINE
  8
0
 10
83.336
 20
-202.159
 11
82.9373
 21
-201.88
  0
LINE
  8
0
 10
82.9373
 20
-201.88
 11
82.6334
 21
-201.5
  0
LINE
  8
0
 10
82.6334
 20
-201.5
 11
82.449
 21
-201.049
  0
LINE
  8
0
 10
82.449
 20
-201.049
 11
82.3989
 21
-200.565
  0
LINE
  8
0
 10
82.3989
 20
-200.565
 11
82.4872
 21
-200.087
  0
LINE
  8
0
 10
82.4872
 20
-200.087
 11
82.7068
 21
-199.652
  0
LINE
  8
0
 10
82.7068
 20
-199.652
 11
83.0398
 21
-199.297
  0
LINE
  8
0
 10
83.0398
 20
-199.297
 11
83.4594
 21
-199.051
  0
LINE
  8
0
 10
83.4594
 20
-199.051
 11
83.9315
 21
-198.932
  0
LINE
  8
0
 10
83.9315
 20
-198.932
 11
84.4178
 21
-198.951
  0
LINE
  8
0
 10
84.4178
 20
-198.951
 11
84.879
 21
-199.107
  0
LINE
  8
0
 10
84.879
 20
-199.107
 11
85.2777
 21
-199.386
  0
LINE
  8
0
 10
85.2777
 20
-199.386
 11
85.5816
 21
-199.766
  0
LINE
  8
0
 10
85.5816
 20
-199.766
 11
85.7661
 21
-200.217
  0
LINE
  8
0
 10
85.7661
 20
-200.217
 11
85.8162
 21
-200.701
  0
LINE
  8
0
 10
85.8162
 20
-200.701
 11
85.7278
 21
-201.179
  0
LINE
  8
0
 10
85.7278
 20
-201.179
 11
85.5083
 21
-201.614
  0
LINE
  8
0
 10
85.5083
 20
-201.614
 11
85.1752
 21
-201.969
  0
LINE
  8
0
 10
85.1752
 20
-201.969
 11
84.7556
 21
-202.215
  0
LINE
  8
0
 10
84.7556
 20
-202.215
 11
84.2836
 21
-202.334
  0
LINE
  8
0
 10
84.2836
 20
-202.334
 11
83.7972
 21
-202.315
  0
LINE
  8
0
 10
92.6858
 20
-207.535
 11
92.2498
 21
-207.311
  0
LINE
  8
0
 10
92.2498
 20
-207.311
 11
91.8902
 21
-206.978
  0
LINE
  8
0
 10
91.8902
 20
-206.978
 11
91.6339
 21
-206.56
  0
LINE
  8
0
 10
91.6339
 20
-206.56
 11
91.4999
 21
-206.088
  0
LINE
  8
0
 10
91.4999
 20
-206.088
 11
91.498
 21
-205.598
  0
LINE
  8
0
 10
91.498
 20
-205.598
 11
91.6285
 21
-205.126
  0
LINE
  8
0
 10
91.6285
 20
-205.126
 11
91.8816
 21
-204.706
  0
LINE
  8
0
 10
91.8816
 20
-204.706
 11
92.2386
 21
-204.37
  0
LINE
  8
0
 10
92.2386
 20
-204.37
 11
92.673
 21
-204.143
  0
LINE
  8
0
 10
92.673
 20
-204.143
 11
93.1525
 21
-204.041
  0
LINE
  8
0
 10
93.1525
 20
-204.041
 11
95.938
 21
-203.55
  0
LINE
  8
0
 10
95.938
 20
-203.55
 11
96.4272
 21
-203.581
  0
LINE
  8
0
 10
96.4272
 20
-203.581
 11
96.8897
 21
-203.744
  0
LINE
  8
0
 10
96.8897
 20
-203.744
 11
97.2912
 21
-204.025
  0
LINE
  8
0
 10
97.2912
 20
-204.025
 11
97.602
 21
-204.404
  0
LINE
  8
0
 10
97.602
 20
-204.404
 11
97.799
 21
-204.853
  0
LINE
  8
0
 10
97.799
 20
-204.853
 11
97.8676
 21
-205.338
  0
LINE
  8
0
 10
97.8676
 20
-205.338
 11
97.8027
 21
-205.824
  0
LINE
  8
0
 10
97.8027
 20
-205.824
 11
97.6091
 21
-206.275
  0
LINE
  8
0
 10
97.6091
 20
-206.275
 11
97.3012
 21
-206.656
  0
LINE
  8
0
 10
97.3012
 20
-206.656
 11
96.9018
 21
-206.94
  0
LINE
  8
0
 10
96.9018
 20
-206.94
 11
96.4406
 21
-207.106
  0
LINE
  8
0
 10
96.4406
 20
-207.106
 11
93.6551
 21
-207.597
  0
LINE
  8
0
 10
93.6551
 20
-207.597
 11
93.1662
 21
-207.633
  0
LINE
  8
0
 10
93.1662
 20
-207.633
 11
92.6858
 21
-207.535
  0
LINE
  8
0
 10
76.6275
 20
-212.554
 11
76.1663
 21
-212.398
  0
LINE
  8
0
 10
76.1663
 20
-212.398
 11
75.7676
 21
-212.119
  0
LINE
  8
0
 10
75.7676
 20
-212.119
 11
75.4637
 21
-211.739
  0
LINE
  8
0
 10
75.4637
 20
-211.739
 11
75.2793
 21
-211.289
  0
LINE
  8
0
 10
75.2793
 20
-211.289
 11
75.2292
 21
-210.805
  0
LINE
  8
0
 10
75.2292
 20
-210.805
 11
75.3175
 21
-210.326
  0
LINE
  8
0
 10
75.3175
 20
-210.326
 11
75.5371
 21
-209.892
  0
LINE
  8
0
 10
75.5371
 20
-209.892
 11
75.8701
 21
-209.537
  0
LINE
  8
0
 10
75.8701
 20
-209.537
 11
76.2897
 21
-209.29
  0
LINE
  8
0
 10
76.2897
 20
-209.29
 11
76.7618
 21
-209.171
  0
LINE
  8
0
 10
76.7618
 20
-209.171
 11
77.2481
 21
-209.191
  0
LINE
  8
0
 10
77.2481
 20
-209.191
 11
77.7093
 21
-209.346
  0
LINE
  8
0
 10
77.7093
 20
-209.346
 11
78.108
 21
-209.625
  0
LINE
  8
0
 10
78.108
 20
-209.625
 11
78.4119
 21
-210.006
  0
LINE
  8
0
 10
78.4119
 20
-210.006
 11
78.5964
 21
-210.456
  0
LINE
  8
0
 10
78.5964
 20
-210.456
 11
78.6465
 21
-210.94
  0
LINE
  8
0
 10
78.6465
 20
-210.94
 11
78.5582
 21
-211.419
  0
LINE
  8
0
 10
78.5582
 20
-211.419
 11
78.3386
 21
-211.853
  0
LINE
  8
0
 10
78.3386
 20
-211.853
 11
78.0055
 21
-212.208
  0
LINE
  8
0
 10
78.0055
 20
-212.208
 11
77.5859
 21
-212.455
  0
LINE
  8
0
 10
77.5859
 20
-212.455
 11
77.1138
 21
-212.573
  0
LINE
  8
0
 10
77.1138
 20
-212.573
 11
76.6275
 21
-212.554
  0
LINE
  8
0
 10
64.4078
 20
-214.009
 11
63.9575
 21
-213.809
  0
LINE
  8
0
 10
63.9575
 20
-213.809
 11
63.5629
 21
-213.514
  0
LINE
  8
0
 10
63.5629
 20
-213.514
 11
63.2439
 21
-213.139
  0
LINE
  8
0
 10
63.2439
 20
-213.139
 11
63.0164
 21
-212.702
  0
LINE
  8
0
 10
63.0164
 20
-212.702
 11
62.8919
 21
-212.225
  0
LINE
  8
0
 10
62.8919
 20
-212.225
 11
62.8765
 21
-211.733
  0
LINE
  8
0
 10
62.8765
 20
-211.733
 11
62.9711
 21
-211.249
  0
LINE
  8
0
 10
62.9711
 20
-211.249
 11
63.1709
 21
-210.799
  0
LINE
  8
0
 10
63.1709
 20
-210.799
 11
63.466
 21
-210.405
  0
LINE
  8
0
 10
63.466
 20
-210.405
 11
63.8414
 21
-210.086
  0
LINE
  8
0
 10
63.8414
 20
-210.086
 11
64.2784
 21
-209.858
  0
LINE
  8
0
 10
64.2784
 20
-209.858
 11
64.755
 21
-209.734
  0
LINE
  8
0
 10
64.755
 20
-209.734
 11
65.2474
 21
-209.718
  0
LINE
  8
0
 10
65.2474
 20
-209.718
 11
65.7309
 21
-209.813
  0
LINE
  8
0
 10
65.7309
 20
-209.813
 11
66.1812
 21
-210.013
  0
LINE
  8
0
 10
66.1812
 20
-210.013
 11
66.5757
 21
-210.308
  0
LINE
  8
0
 10
66.5757
 20
-210.308
 11
66.8947
 21
-210.683
  0
LINE
  8
0
 10
66.8947
 20
-210.683
 11
67.1222
 21
-211.12
  0
LINE
  8
0
 10
67.1222
 20
-211.12
 11
67.2467
 21
-211.597
  0
LINE
  8
0
 10
67.2467
 20
-211.597
 11
67.2621
 21
-212.089
  0
LINE
  8
0
 10
67.2621
 20
-212.089
 11
67.1675
 21
-212.572
  0
LINE
  8
0
 10
67.1675
 20
-212.572
 11
66.9677
 21
-213.023
  0
LINE
  8
0
 10
66.9677
 20
-213.023
 11
66.6727
 21
-213.417
  0
LINE
  8
0
 10
66.6727
 20
-213.417
 11
66.2973
 21
-213.736
  0
LINE
  8
0
 10
66.2973
 20
-213.736
 11
65.8603
 21
-213.964
  0
LINE
  8
0
 10
65.8603
 20
-213.964
 11
65.3836
 21
-214.088
  0
LINE
  8
0
 10
65.3836
 20
-214.088
 11
64.8912
 21
-214.104
  0
LINE
  8
0
 10
64.8912
 20
-214.104
 11
64.4078
 21
-214.009
  0
LINE
  8
0
 10
119.603
 20
-226.418
 11
119.184
 21
-226.165
  0
LINE
  8
0
 10
119.184
 20
-226.165
 11
118.848
 21
-225.808
  0
LINE
  8
0
 10
118.848
 20
-225.808
 11
118.62
 21
-225.374
  0
LINE
  8
0
 10
118.62
 20
-225.374
 11
118.519
 21
-224.894
  0
LINE
  8
0
 10
118.519
 20
-224.894
 11
118.028
 21
-222.109
  0
LINE
  8
0
 10
118.028
 20
-222.109
 11
118.059
 21
-221.619
  0
LINE
  8
0
 10
118.059
 20
-221.619
 11
118.222
 21
-221.157
  0
LINE
  8
0
 10
118.222
 20
-221.157
 11
118.503
 21
-220.755
  0
LINE
  8
0
 10
118.503
 20
-220.755
 11
118.882
 21
-220.445
  0
LINE
  8
0
 10
118.882
 20
-220.445
 11
119.331
 21
-220.248
  0
LINE
  8
0
 10
119.331
 20
-220.248
 11
119.816
 21
-220.179
  0
LINE
  8
0
 10
119.816
 20
-220.179
 11
120.302
 21
-220.244
  0
LINE
  8
0
 10
120.302
 20
-220.244
 11
120.752
 21
-220.437
  0
LINE
  8
0
 10
120.752
 20
-220.437
 11
121.134
 21
-220.745
  0
LINE
  8
0
 10
121.134
 20
-220.745
 11
121.418
 21
-221.145
  0
LINE
  8
0
 10
121.418
 20
-221.145
 11
121.584
 21
-221.606
  0
LINE
  8
0
 10
121.584
 20
-221.606
 11
122.075
 21
-224.391
  0
LINE
  8
0
 10
122.075
 20
-224.391
 11
122.11
 21
-224.88
  0
LINE
  8
0
 10
122.11
 20
-224.88
 11
122.013
 21
-225.361
  0
LINE
  8
0
 10
122.013
 20
-225.361
 11
121.789
 21
-225.797
  0
LINE
  8
0
 10
121.789
 20
-225.797
 11
121.455
 21
-226.156
  0
LINE
  8
0
 10
121.455
 20
-226.156
 11
121.038
 21
-226.413
  0
LINE
  8
0
 10
121.038
 20
-226.413
 11
120.566
 21
-226.547
  0
LINE
  8
0
 10
120.566
 20
-226.547
 11
120.076
 21
-226.549
  0
LINE
  8
0
 10
120.076
 20
-226.549
 11
119.603
 21
-226.418
  0
LINE
  8
0
 10
56.4691
 20
-239.187
 11
56.0188
 21
-238.987
  0
LINE
  8
0
 10
56.0188
 20
-238.987
 11
55.6243
 21
-238.692
  0
LINE
  8
0
 10
55.6243
 20
-238.692
 11
55.3053
 21
-238.317
  0
LINE
  8
0
 10
55.3053
 20
-238.317
 11
55.0778
 21
-237.88
  0
LINE
  8
0
 10
55.0778
 20
-237.88
 11
54.9532
 21
-237.403
  0
LINE
  8
0
 10
54.9532
 20
-237.403
 11
54.9379
 21
-236.911
  0
LINE
  8
0
 10
54.9379
 20
-236.911
 11
55.0325
 21
-236.428
  0
LINE
  8
0
 10
55.0325
 20
-236.428
 11
55.2323
 21
-235.977
  0
LINE
  8
0
 10
55.2323
 20
-235.977
 11
55.5273
 21
-235.583
  0
LINE
  8
0
 10
55.5273
 20
-235.583
 11
55.9027
 21
-235.264
  0
LINE
  8
0
 10
55.9027
 20
-235.264
 11
56.3397
 21
-235.036
  0
LINE
  8
0
 10
56.3397
 20
-235.036
 11
56.8163
 21
-234.912
  0
LINE
  8
0
 10
56.8163
 20
-234.912
 11
57.3088
 21
-234.896
  0
LINE
  8
0
 10
57.3088
 20
-234.896
 11
57.7922
 21
-234.991
  0
LINE
  8
0
 10
57.7922
 20
-234.991
 11
58.2425
 21
-235.191
  0
LINE
  8
0
 10
58.2425
 20
-235.191
 11
58.6371
 21
-235.486
  0
LINE
  8
0
 10
58.6371
 20
-235.486
 11
58.9561
 21
-235.861
  0
LINE
  8
0
 10
58.9561
 20
-235.861
 11
59.1836
 21
-236.298
  0
LINE
  8
0
 10
59.1836
 20
-236.298
 11
59.3081
 21
-236.775
  0
LINE
  8
0
 10
59.3081
 20
-236.775
 11
59.3235
 21
-237.267
  0
LINE
  8
0
 10
59.3235
 20
-237.267
 11
59.2289
 21
-237.751
  0
LINE
  8
0
 10
59.2289
 20
-237.751
 11
59.029
 21
-238.201
  0
LINE
  8
0
 10
59.029
 20
-238.201
 11
58.734
 21
-238.595
  0
LINE
  8
0
 10
58.734
 20
-238.595
 11
58.3586
 21
-238.914
  0
LINE
  8
0
 10
58.3586
 20
-238.914
 11
57.9216
 21
-239.142
  0
LINE
  8
0
 10
57.9216
 20
-239.142
 11
57.445
 21
-239.266
  0
LINE
  8
0
 10
57.445
 20
-239.266
 11
56.9526
 21
-239.282
  0
LINE
  8
0
 10
56.9526
 20
-239.282
 11
56.4691
 21
-239.187
  0
LINE
  8
0
 10
91.2223
 20
-246.325
 11
90.772
 21
-246.131
  0
LINE
  8
0
 10
90.772
 20
-246.131
 11
90.3905
 21
-245.823
  0
LINE
  8
0
 10
90.3905
 20
-245.823
 11
90.1063
 21
-245.424
  0
LINE
  8
0
 10
90.1063
 20
-245.424
 11
89.9404
 21
-244.963
  0
LINE
  8
0
 10
89.9404
 20
-244.963
 11
89.4493
 21
-242.177
  0
LINE
  8
0
 10
89.4493
 20
-242.177
 11
89.414
 21
-241.688
  0
LINE
  8
0
 10
89.414
 20
-241.688
 11
89.5119
 21
-241.208
  0
LINE
  8
0
 10
89.5119
 20
-241.208
 11
89.7357
 21
-240.772
  0
LINE
  8
0
 10
89.7357
 20
-240.772
 11
90.069
 21
-240.412
  0
LINE
  8
0
 10
90.069
 20
-240.412
 11
90.4868
 21
-240.156
  0
LINE
  8
0
 10
90.4868
 20
-240.156
 11
90.9583
 21
-240.022
  0
LINE
  8
0
 10
90.9583
 20
-240.022
 11
91.4485
 21
-240.02
  0
LINE
  8
0
 10
91.4485
 20
-240.02
 11
91.9211
 21
-240.151
  0
LINE
  8
0
 10
91.9211
 20
-240.151
 11
92.3409
 21
-240.404
  0
LINE
  8
0
 10
92.3409
 20
-240.404
 11
92.6768
 21
-240.761
  0
LINE
  8
0
 10
92.6768
 20
-240.761
 11
92.904
 21
-241.195
  0
LINE
  8
0
 10
92.904
 20
-241.195
 11
93.0055
 21
-241.675
  0
LINE
  8
0
 10
93.0055
 20
-241.675
 11
93.4967
 21
-244.46
  0
LINE
  8
0
 10
93.4967
 20
-244.46
 11
93.4651
 21
-244.949
  0
LINE
  8
0
 10
93.4651
 20
-244.949
 11
93.3027
 21
-245.412
  0
LINE
  8
0
 10
93.3027
 20
-245.412
 11
93.0215
 21
-245.813
  0
LINE
  8
0
 10
93.0215
 20
-245.813
 11
92.6424
 21
-246.124
  0
LINE
  8
0
 10
92.6424
 20
-246.124
 11
92.1936
 21
-246.321
  0
LINE
  8
0
 10
92.1936
 20
-246.321
 11
91.7082
 21
-246.39
  0
LINE
  8
0
 10
91.7082
 20
-246.39
 11
91.2223
 21
-246.325
  0
LINE
  8
0
 10
61.3566
 20
-249.193
 11
60.8896
 21
-249.055
  0
LINE
  8
0
 10
60.8896
 20
-249.055
 11
60.4802
 21
-248.792
  0
LINE
  8
0
 10
60.4802
 20
-248.792
 11
60.1615
 21
-248.424
  0
LINE
  8
0
 10
60.1615
 20
-248.424
 11
59.9593
 21
-247.982
  0
LINE
  8
0
 10
59.9593
 20
-247.982
 11
59.89
 21
-247.5
  0
LINE
  8
0
 10
59.89
 20
-247.5
 11
59.9593
 21
-247.018
  0
LINE
  8
0
 10
59.9593
 20
-247.018
 11
60.1615
 21
-246.576
  0
LINE
  8
0
 10
60.1615
 20
-246.576
 11
60.4802
 21
-246.208
  0
LINE
  8
0
 10
60.4802
 20
-246.208
 11
60.8896
 21
-245.945
  0
LINE
  8
0
 10
60.8896
 20
-245.945
 11
61.3566
 21
-245.807
  0
LINE
  8
0
 10
61.3566
 20
-245.807
 11
61.8434
 21
-245.807
  0
LINE
  8
0
 10
61.8434
 20
-245.807
 11
62.3103
 21
-245.945
  0
LINE
  8
0
 10
62.3103
 20
-245.945
 11
62.7198
 21
-246.208
  0
LINE
  8
0
 10
62.7198
 20
-246.208
 11
63.0385
 21
-246.576
  0
LINE
  8
0
 10
63.0385
 20
-246.576
 11
63.2407
 21
-247.018
  0
LINE
  8
0
 10
63.2407
 20
-247.018
 11
63.31
 21
-247.5
  0
LINE
  8
0
 10
63.31
 20
-247.5
 11
63.2407
 21
-247.982
  0
LINE
  8
0
 10
63.2407
 20
-247.982
 11
63.0385
 21
-248.424
  0
LINE
  8
0
 10
63.0385
 20
-248.424
 11
62.7198
 21
-248.792
  0
LINE
  8
0
 10
62.7198
 20
-248.792
 11
62.3103
 21
-249.055
  0
LINE
  8
0
 10
62.3103
 20
-249.055
 11
61.8434
 21
-249.193
  0
LINE
  8
0
 10
61.8434
 20
-249.193
 11
61.3566
 21
-249.193
  0
LINE
  8
0
 10
94.5483
 20
-276.763
 11
94.0506
 21
-276.723
  0
LINE
  8
0
 10
94.0506
 20
-276.723
 11
93.5551
 21
-276.662
  0
LINE
  8
0
 10
93.5551
 20
-276.662
 11
93.0624
 21
-276.581
  0
LINE
  8
0
 10
93.0624
 20
-276.581
 11
92.5736
 21
-276.479
  0
LINE
  8
0
 10
92.5736
 20
-276.479
 11
92.0894
 21
-276.357
  0
LINE
  8
0
 10
92.0894
 20
-276.357
 11
91.6108
 21
-276.215
  0
LINE
  8
0
 10
91.6108
 20
-276.215
 11
91.1384
 21
-276.054
  0
LINE
  8
0
 10
91.1384
 20
-276.054
 11
90.6732
 21
-275.872
  0
LINE
  8
0
 10
90.6732
 20
-275.872
 11
90.2159
 21
-275.672
  0
LINE
  8
0
 10
90.2159
 20
-275.672
 11
89.7674
 21
-275.452
  0
LINE
  8
0
 10
89.7674
 20
-275.452
 11
89.3284
 21
-275.215
  0
LINE
  8
0
 10
89.3284
 20
-275.215
 11
88.8996
 21
-274.959
  0
LINE
  8
0
 10
88.8996
 20
-274.959
 11
88.4819
 21
-274.685
  0
LINE
  8
0
 10
88.4819
 20
-274.685
 11
88.0759
 21
-274.395
  0
LINE
  8
0
 10
88.0759
 20
-274.395
 11
87.6824
 21
-274.087
  0
LINE
  8
0
 10
87.6824
 20
-274.087
 11
87.3019
 21
-273.764
  0
LINE
  8
0
 10
87.3019
 20
-273.764
 11
86.9353
 21
-273.425
  0
LINE
  8
0
 10
86.9353
 20
-273.425
 11
86.5831
 21
-273.071
  0
LINE
  8
0
 10
86.5831
 20
-273.071
 11
86.2458
 21
-272.703
  0
LINE
  8
0
 10
86.2458
 20
-272.703
 11
85.9242
 21
-272.321
  0
LINE
  8
0
 10
85.9242
 20
-272.321
 11
85.6188
 21
-271.926
  0
LINE
  8
0
 10
85.6188
 20
-271.926
 11
85.3301
 21
-271.519
  0
LINE
  8
0
 10
85.3301
 20
-271.519
 11
85.0585
 21
-271.1
  0
LINE
  8
0
 10
85.0585
 20
-271.1
 11
84.8038
 21
-270.668
  0
LINE
  8
0
 10
84.8038
 20
-270.668
 11
84.5689
 21
-270.23
  0
LINE
  8
0
 10
84.5689
 20
-270.23
 11
84.3516
 21
-269.78
  0
LINE
  8
0
 10
84.3516
 20
-269.78
 11
84.1532
 21
-269.322
  0
LINE
  8
0
 10
84.1532
 20
-269.322
 11
83.9741
 21
-268.856
  0
LINE
  8
0
 10
83.9741
 20
-268.856
 11
83.8145
 21
-268.383
  0
LINE
  8
0
 10
83.8145
 20
-268.383
 11
83.6747
 21
-267.904
  0
LINE
  8
0
 10
83.6747
 20
-267.904
 11
83.555
 21
-267.419
  0
LINE
  8
0
 10
83.555
 20
-267.419
 11
83.4555
 21
-266.93
  0
LINE
  8
0
 10
83.4555
 20
-266.93
 11
83.3765
 21
-266.437
  0
LINE
  8
0
 10
83.3765
 20
-266.437
 11
83.3181
 21
-265.941
  0
LINE
  8
0
 10
83.3181
 20
-265.941
 11
83.2803
 21
-265.443
  0
LINE
  8
0
 10
83.2803
 20
-265.443
 11
83.2633
 21
-264.944
  0
LINE
  8
0
 10
83.2633
 20
-264.944
 11
83.267
 21
-264.445
  0
LINE
  8
0
 10
83.267
 20
-264.445
 11
83.2915
 21
-263.946
  0
LINE
  8
0
 10
83.2915
 20
-263.946
 11
83.3368
 21
-263.449
  0
LINE
  8
0
 10
83.3368
 20
-263.449
 11
83.4027
 21
-262.954
  0
LINE
  8
0
 10
83.4027
 20
-262.954
 11
83.4891
 21
-262.462
  0
LINE
  8
0
 10
83.4891
 20
-262.462
 11
83.5959
 21
-261.974
  0
LINE
  8
0
 10
83.5959
 20
-261.974
 11
83.7229
 21
-261.491
  0
LINE
  8
0
 10
83.7229
 20
-261.491
 11
83.8698
 21
-261.014
  0
LINE
  8
0
 10
83.8698
 20
-261.014
 11
84.0365
 21
-260.544
  0
LINE
  8
0
 10
84.0365
 20
-260.544
 11
84.2227
 21
-260.08
  0
LINE
  8
0
 10
84.2227
 20
-260.08
 11
84.4279
 21
-259.625
  0
LINE
  8
0
 10
84.4279
 20
-259.625
 11
84.6519
 21
-259.179
  0
LINE
  8
0
 10
84.6519
 20
-259.179
 11
84.8943
 21
-258.742
  0
LINE
  8
0
 10
84.8943
 20
-258.742
 11
85.1546
 21
-258.316
  0
LINE
  8
0
 10
85.1546
 20
-258.316
 11
85.4324
 21
-257.901
  0
LINE
  8
0
 10
85.4324
 20
-257.901
 11
85.7272
 21
-257.499
  0
LINE
  8
0
 10
85.7272
 20
-257.499
 11
86.0385
 21
-257.108
  0
LINE
  8
0
 10
86.0385
 20
-257.108
 11
86.3658
 21
-256.731
  0
LINE
  8
0
 10
86.3658
 20
-256.731
 11
86.7086
 21
-256.368
  0
LINE
  8
0
 10
86.7086
 20
-256.368
 11
87.0661
 21
-256.02
  0
LINE
  8
0
 10
87.0661
 20
-256.02
 11
87.4378
 21
-255.686
  0
LINE
  8
0
 10
87.4378
 20
-255.686
 11
87.823
 21
-255.369
  0
LINE
  8
0
 10
87.823
 20
-255.369
 11
88.2211
 21
-255.067
  0
LINE
  8
0
 10
88.2211
 20
-255.067
 11
88.6315
 21
-254.783
  0
LINE
  8
0
 10
88.6315
 20
-254.783
 11
89.0532
 21
-254.516
  0
LINE
  8
0
 10
89.0532
 20
-254.516
 11
89.4858
 21
-254.266
  0
LINE
  8
0
 10
89.4858
 20
-254.266
 11
89.9283
 21
-254.035
  0
LINE
  8
0
 10
89.9283
 20
-254.035
 11
90.3801
 21
-253.822
  0
LINE
  8
0
 10
90.3801
 20
-253.822
 11
90.8403
 21
-253.629
  0
LINE
  8
0
 10
90.8403
 20
-253.629
 11
91.3082
 21
-253.454
  0
LINE
  8
0
 10
91.3082
 20
-253.454
 11
91.7829
 21
-253.3
  0
LINE
  8
0
 10
91.7829
 20
-253.3
 11
92.2637
 21
-253.165
  0
LINE
  8
0
 10
92.2637
 20
-253.165
 11
92.7496
 21
-253.05
  0
LINE
  8
0
 10
92.7496
 20
-253.05
 11
93.2399
 21
-252.956
  0
LINE
  8
0
 10
93.2399
 20
-252.956
 11
93.7337
 21
-252.882
  0
LINE
  8
0
 10
93.7337
 20
-252.882
 11
94.2301
 21
-252.829
  0
LINE
  8
0
 10
94.2301
 20
-252.829
 11
94.7284
 21
-252.796
  0
LINE
  8
0
 10
94.7284
 20
-252.796
 11
95.2275
 21
-252.784
  0
LINE
  8
0
 10
95.2275
 20
-252.784
 11
95.7267
 21
-252.793
  0
LINE
  8
0
 10
95.7267
 20
-252.793
 11
96.2251
 21
-252.823
  0
LINE
  8
0
 10
96.2251
 20
-252.823
 11
96.7219
 21
-252.873
  0
LINE
  8
0
 10
96.7219
 20
-252.873
 11
97.2161
 21
-252.945
  0
LINE
  8
0
 10
97.2161
 20
-252.945
 11
97.7069
 21
-253.036
  0
LINE
  8
0
 10
97.7069
 20
-253.036
 11
98.1935
 21
-253.148
  0
LINE
  8
0
 10
98.1935
 20
-253.148
 11
98.675
 21
-253.28
  0
LINE
  8
0
 10
98.675
 20
-253.28
 11
99.1507
 21
-253.432
  0
LINE
  8
0
 10
99.1507
 20
-253.432
 11
99.6195
 21
-253.603
  0
LINE
  8
0
 10
99.6195
 20
-253.603
 11
100.093
 21
-253.8
  0
LINE
  8
0
 10
100.093
 20
-253.8
 11
100.534
 21
-254.004
  0
LINE
  8
0
 10
100.534
 20
-254.004
 11
100.978
 21
-254.233
  0
LINE
  8
0
 10
100.978
 20
-254.233
 11
101.412
 21
-254.48
  0
LINE
  8
0
 10
101.412
 20
-254.48
 11
101.835
 21
-254.745
  0
LINE
  8
0
 10
101.835
 20
-254.745
 11
102.247
 21
-255.027
  0
LINE
  8
0
 10
102.247
 20
-255.027
 11
102.647
 21
-255.326
  0
LINE
  8
0
 10
102.647
 20
-255.326
 11
103.034
 21
-255.641
  0
LINE
  8
0
 10
103.034
 20
-255.641
 11
103.408
 21
-255.972
  0
LINE
  8
0
 10
103.408
 20
-255.972
 11
103.767
 21
-256.319
  0
LINE
  8
0
 10
103.767
 20
-256.319
 11
104.112
 21
-256.68
  0
LINE
  8
0
 10
104.112
 20
-256.68
 11
104.441
 21
-257.055
  0
LINE
  8
0
 10
104.441
 20
-257.055
 11
104.755
 21
-257.444
  0
LINE
  8
0
 10
104.755
 20
-257.444
 11
105.052
 21
-257.845
  0
LINE
  8
0
 10
105.052
 20
-257.845
 11
105.332
 21
-258.258
  0
LINE
  8
0
 10
105.332
 20
-258.258
 11
105.595
 21
-258.683
  0
LINE
  8
0
 10
105.595
 20
-258.683
 11
105.84
 21
-259.118
  0
LINE
  8
0
 10
105.84
 20
-259.118
 11
106.067
 21
-259.563
  0
LINE
  8
0
 10
106.067
 20
-259.563
 11
106.274
 21
-260.017
  0
LINE
  8
0
 10
106.274
 20
-260.017
 11
106.463
 21
-260.479
  0
LINE
  8
0
 10
106.463
 20
-260.479
 11
106.633
 21
-260.948
  0
LINE
  8
0
 10
106.633
 20
-260.948
 11
106.782
 21
-261.425
  0
LINE
  8
0
 10
106.782
 20
-261.425
 11
106.912
 21
-261.907
  0
LINE
  8
0
 10
106.912
 20
-261.907
 11
107.022
 21
-262.394
  0
LINE
  8
0
 10
107.022
 20
-262.394
 11
107.111
 21
-262.885
  0
LINE
  8
0
 10
107.111
 20
-262.885
 11
107.18
 21
-263.38
  0
LINE
  8
0
 10
107.18
 20
-263.38
 11
107.228
 21
-263.877
  0
LINE
  8
0
 10
107.228
 20
-263.877
 11
107.255
 21
-264.375
  0
LINE
  8
0
 10
107.255
 20
-264.375
 11
107.262
 21
-264.875
  0
LINE
  8
0
 10
107.262
 20
-264.875
 11
107.248
 21
-265.374
  0
LINE
  8
0
 10
107.248
 20
-265.374
 11
107.213
 21
-265.872
  0
LINE
  8
0
 10
107.213
 20
-265.872
 11
107.157
 21
-266.368
  0
LINE
  8
0
 10
107.157
 20
-266.368
 11
107.081
 21
-266.861
  0
LINE
  8
0
 10
107.081
 20
-266.861
 11
106.984
 21
-267.351
  0
LINE
  8
0
 10
106.984
 20
-267.351
 11
106.868
 21
-267.837
  0
LINE
  8
0
 10
106.868
 20
-267.837
 11
106.731
 21
-268.317
  0
LINE
  8
0
 10
106.731
 20
-268.317
 11
106.574
 21
-268.791
  0
LINE
  8
0
 10
106.574
 20
-268.791
 11
106.397
 21
-269.258
  0
LINE
  8
0
 10
106.397
 20
-269.258
 11
106.201
 21
-269.717
  0
LINE
  8
0
 10
106.201
 20
-269.717
 11
105.987
 21
-270.168
  0
LINE
  8
0
 10
105.987
 20
-270.168
 11
105.754
 21
-270.609
  0
LINE
  8
0
 10
105.754
 20
-270.609
 11
105.502
 21
-271.041
  0
LINE
  8
0
 10
105.502
 20
-271.041
 11
105.233
 21
-271.461
  0
LINE
  8
0
 10
105.233
 20
-271.461
 11
104.947
 21
-271.87
  0
LINE
  8
0
 10
104.947
 20
-271.87
 11
104.644
 21
-272.267
  0
LINE
  8
0
 10
104.644
 20
-272.267
 11
104.324
 21
-272.651
  0
LINE
  8
0
 10
104.324
 20
-272.651
 11
103.989
 21
-273.021
  0
LINE
  8
0
 10
103.989
 20
-273.021
 11
103.639
 21
-273.377
  0
LINE
  8
0
 10
103.639
 20
-273.377
 11
103.274
 21
-273.718
  0
LINE
  8
0
 10
103.274
 20
-273.718
 11
102.896
 21
-274.043
  0
LINE
  8
0
 10
102.896
 20
-274.043
 11
102.504
 21
-274.353
  0
LINE
  8
0
 10
102.504
 20
-274.353
 11
102.1
 21
-274.646
  0
LINE
  8
0
 10
102.1
 20
-274.646
 11
101.683
 21
-274.922
  0
LINE
  8
0
 10
101.683
 20
-274.922
 11
101.256
 21
-275.18
  0
LINE
  8
0
 10
101.256
 20
-275.18
 11
100.819
 21
-275.42
  0
LINE
  8
0
 10
100.819
 20
-275.42
 11
100.371
 21
-275.642
  0
LINE
  8
0
 10
100.371
 20
-275.642
 11
99.9152
 21
-275.846
  0
LINE
  8
0
 10
99.9152
 20
-275.846
 11
99.451
 21
-276.03
  0
LINE
  8
0
 10
99.451
 20
-276.03
 11
98.9796
 21
-276.194
  0
LINE
  8
0
 10
98.9796
 20
-276.194
 11
98.5018
 21
-276.339
  0
LINE
  8
0
 10
98.5018
 20
-276.339
 11
98.0184
 21
-276.464
  0
LINE
  8
0
 10
98.0184
 20
-276.464
 11
97.5301
 21
-276.568
  0
LINE
  8
0
 10
97.5301
 20
-276.568
 11
97.038
 21
-276.652
  0
LINE
  8
0
 10
97.038
 20
-276.652
 11
96.5428
 21
-276.716
  0
LINE
  8
0
 10
96.5428
 20
-276.716
 11
96.0453
 21
-276.759
  0
LINE
  8
0
 10
96.0453
 20
-276.759
 11
95.5465
 21
-276.781
  0
LINE
  8
0
 10
95.5465
 20
-276.781
 11
95.0472
 21
-276.782
  0
LINE
  8
0
 10
95.0472
 20
-276.782
 11
94.5483
 21
-276.763
  0
LINE
  8
0
 10
61.3566
 20
-261.693
 11
60.8896
 21
-261.555
  0
LINE
  8
0
 10
60.8896
 20
-261.555
 11
60.4802
 21
-261.292
  0
LINE
  8
0
 10
60.4802
 20
-261.292
 11
60.1615
 21
-260.924
  0
LINE
  8
0
 10
60.1615
 20
-260.924
 11
59.9593
 21
-260.482
  0
LINE
  8
0
 10
59.9593
 20
-260.482
 11
59.89
 21
-260
  0
LINE
  8
0
 10
59.89
 20
-260
 11
59.9593
 21
-259.518
  0
LINE
  8
0
 10
59.9593
 20
-259.518
 11
60.1615
 21
-259.076
  0
LINE
  8
0
 10
60.1615
 20
-259.076
 11
60.4802
 21
-258.708
  0
LINE
  8
0
 10
60.4802
 20
-258.708
 11
60.8896
 21
-258.445
  0
LINE
  8
0
 10
60.8896
 20
-258.445
 11
61.3566
 21
-258.307
  0
LINE
  8
0
 10
61.3566
 20
-258.307
 11
61.8434
 21
-258.307
  0
LINE
  8
0
 10
61.8434
 20
-258.307
 11
62.3103
 21
-258.445
  0
LINE
  8
0
 10
62.3103
 20
-258.445
 11
62.7198
 21
-258.708
  0
LINE
  8
0
 10
62.7198
 20
-258.708
 11
63.0385
 21
-259.076
  0
LINE
  8
0
 10
63.0385
 20
-259.076
 11
63.2407
 21
-259.518
  0
LINE
  8
0
 10
63.2407
 20
-259.518
 11
63.31
 21
-260
  0
LINE
  8
0
 10
63.31
 20
-260
 11
63.2407
 21
-260.482
  0
LINE
  8
0
 10
63.2407
 20
-260.482
 11
63.0385
 21
-260.924
  0
LINE
  8
0
 10
63.0385
 20
-260.924
 11
62.7198
 21
-261.292
  0
LINE
  8
0
 10
62.7198
 20
-261.292
 11
62.3103
 21
-261.555
  0
LINE
  8
0
 10
62.3103
 20
-261.555
 11
61.8434
 21
-261.693
  0
LINE
  8
0
 10
61.8434
 20
-261.693
 11
61.3566
 21
-261.693
  0
LINE
  8
0
 10
115.097
 20
-262.987
 11
114.635
 21
-262.825
  0
LINE
  8
0
 10
114.635
 20
-262.825
 11
114.233
 21
-262.544
  0
LINE
  8
0
 10
114.233
 20
-262.544
 11
113.922
 21
-262.165
  0
LINE
  8
0
 10
113.922
 20
-262.165
 11
113.725
 21
-261.716
  0
LINE
  8
0
 10
113.725
 20
-261.716
 11
113.657
 21
-261.23
  0
LINE
  8
0
 10
113.657
 20
-261.23
 11
113.722
 21
-260.744
  0
LINE
  8
0
 10
113.722
 20
-260.744
 11
113.915
 21
-260.294
  0
LINE
  8
0
 10
113.915
 20
-260.294
 11
114.223
 21
-259.913
  0
LINE
  8
0
 10
114.223
 20
-259.913
 11
114.623
 21
-259.628
  0
LINE
  8
0
 10
114.623
 20
-259.628
 11
115.084
 21
-259.463
  0
LINE
  8
0
 10
115.084
 20
-259.463
 11
117.869
 21
-258.971
  0
LINE
  8
0
 10
117.869
 20
-258.971
 11
118.358
 21
-258.936
  0
LINE
  8
0
 10
118.358
 20
-258.936
 11
118.839
 21
-259.034
  0
LINE
  8
0
 10
118.839
 20
-259.034
 11
119.275
 21
-259.258
  0
LINE
  8
0
 10
119.275
 20
-259.258
 11
119.634
 21
-259.591
  0
LINE
  8
0
 10
119.634
 20
-259.591
 11
119.89
 21
-260.009
  0
LINE
  8
0
 10
119.89
 20
-260.009
 11
120.025
 21
-260.48
  0
LINE
  8
0
 10
120.025
 20
-260.48
 11
120.026
 21
-260.971
  0
LINE
  8
0
 10
120.026
 20
-260.971
 11
119.896
 21
-261.443
  0
LINE
  8
0
 10
119.896
 20
-261.443
 11
119.643
 21
-261.863
  0
LINE
  8
0
 10
119.643
 20
-261.863
 11
119.286
 21
-262.199
  0
LINE
  8
0
 10
119.286
 20
-262.199
 11
118.851
 21
-262.426
  0
LINE
  8
0
 10
118.851
 20
-262.426
 11
118.372
 21
-262.528
  0
LINE
  8
0
 10
118.372
 20
-262.528
 11
115.586
 21
-263.019
  0
LINE
  8
0
 10
115.586
 20
-263.019
 11
115.097
 21
-262.987
  0
LINE
  8
0
 10
71.6858
 20
-270.535
 11
71.2498
 21
-270.311
  0
LINE
  8
0
 10
71.2498
 20
-270.311
 11
70.8902
 21
-269.978
  0
LINE
  8
0
 10
70.8902
 20
-269.978
 11
70.6339
 21
-269.56
  0
LINE
  8
0
 10
70.6339
 20
-269.56
 11
70.4999
 21
-269.088
  0
LINE
  8
0
 10
70.4999
 20
-269.088
 11
70.498
 21
-268.598
  0
LINE
  8
0
 10
70.498
 20
-268.598
 11
70.6285
 21
-268.126
  0
LINE
  8
0
 10
70.6285
 20
-268.126
 11
70.8816
 21
-267.706
  0
LINE
  8
0
 10
70.8816
 20
-267.706
 11
71.2386
 21
-267.37
  0
LINE
  8
0
 10
71.2386
 20
-267.37
 11
71.673
 21
-267.143
  0
LINE
  8
0
 10
71.673
 20
-267.143
 11
72.1525
 21
-267.041
  0
LINE
  8
0
 10
72.1525
 20
-267.041
 11
74.938
 21
-266.55
  0
LINE
  8
0
 10
74.938
 20
-266.55
 11
75.4272
 21
-266.581
  0
LINE
  8
0
 10
75.4272
 20
-266.581
 11
75.8897
 21
-266.744
  0
LINE
  8
0
 10
75.8897
 20
-266.744
 11
76.2912
 21
-267.025
  0
LINE
  8
0
 10
76.2912
 20
-267.025
 11
76.602
 21
-267.404
  0
LINE
  8
0
 10
76.602
 20
-267.404
 11
76.799
 21
-267.853
  0
LINE
  8
0
 10
76.799
 20
-267.853
 11
76.8676
 21
-268.338
  0
LINE
  8
0
 10
76.8676
 20
-268.338
 11
76.8027
 21
-268.824
  0
LINE
  8
0
 10
76.8027
 20
-268.824
 11
76.6091
 21
-269.275
  0
LINE
  8
0
 10
76.6091
 20
-269.275
 11
76.3012
 21
-269.656
  0
LINE
  8
0
 10
76.3012
 20
-269.656
 11
75.9018
 21
-269.94
  0
LINE
  8
0
 10
75.9018
 20
-269.94
 11
75.4406
 21
-270.106
  0
LINE
  8
0
 10
75.4406
 20
-270.106
 11
72.6551
 21
-270.597
  0
LINE
  8
0
 10
72.6551
 20
-270.597
 11
72.1662
 21
-270.633
  0
LINE
  8
0
 10
72.1662
 20
-270.633
 11
71.6858
 21
-270.535
  0
LINE
  8
0
 10
61.3566
 20
-274.193
 11
60.8896
 21
-274.055
  0
LINE
  8
0
 10
60.8896
 20
-274.055
 11
60.4802
 21
-273.792
  0
LINE
  8
0
 10
60.4802
 20
-273.792
 11
60.1615
 21
-273.424
  0
LINE
  8
0
 10
60.1615
 20
-273.424
 11
59.9593
 21
-272.982
  0
LINE
  8
0
 10
59.9593
 20
-272.982
 11
59.89
 21
-272.5
  0
LINE
  8
0
 10
59.89
 20
-272.5
 11
59.9593
 21
-272.018
  0
LINE
  8
0
 10
59.9593
 20
-272.018
 11
60.1615
 21
-271.576
  0
LINE
  8
0
 10
60.1615
 20
-271.576
 11
60.4802
 21
-271.208
  0
LINE
  8
0
 10
60.4802
 20
-271.208
 11
60.8896
 21
-270.945
  0
LINE
  8
0
 10
60.8896
 20
-270.945
 11
61.3566
 21
-270.807
  0
LINE
  8
0
 10
61.3566
 20
-270.807
 11
61.8434
 21
-270.807
  0
LINE
  8
0
 10
61.8434
 20
-270.807
 11
62.3103
 21
-270.945
  0
LINE
  8
0
 10
62.3103
 20
-270.945
 11
62.7198
 21
-271.208
  0
LINE
  8
0
 10
62.7198
 20
-271.208
 11
63.0385
 21
-271.576
  0
LINE
  8
0
 10
63.0385
 20
-271.576
 11
63.2407
 21
-272.018
  0
LINE
  8
0
 10
63.2407
 20
-272.018
 11
63.31
 21
-272.5
  0
LINE
  8
0
 10
63.31
 20
-272.5
 11
63.2407
 21
-272.982
  0
LINE
  8
0
 10
63.2407
 20
-272.982
 11
63.0385
 21
-273.424
  0
LINE
  8
0
 10
63.0385
 20
-273.424
 11
62.7198
 21
-273.792
  0
LINE
  8
0
 10
62.7198
 20
-273.792
 11
62.3103
 21
-274.055
  0
LINE
  8
0
 10
62.3103
 20
-274.055
 11
61.8434
 21
-274.193
  0
LINE
  8
0
 10
61.8434
 20
-274.193
 11
61.3566
 21
-274.193
  0
LINE
  8
0
 10
98.6033
 20
-289.418
 11
98.1835
 21
-289.165
  0
LINE
  8
0
 10
98.1835
 20
-289.165
 11
97.8476
 21
-288.808
  0
LINE
  8
0
 10
97.8476
 20
-288.808
 11
97.6204
 21
-288.374
  0
LINE
  8
0
 10
97.6204
 20
-288.374
 11
97.5152
 21
-287.873
  0
LINE
  8
0
 10
97.5152
 20
-287.873
 11
97.0277
 21
-285.109
  0
LINE
  8
0
 10
97.0277
 20
-285.109
 11
97.0593
 21
-284.619
  0
LINE
  8
0
 10
97.0593
 20
-284.619
 11
97.2217
 21
-284.157
  0
LINE
  8
0
 10
97.2217
 20
-284.157
 11
97.5029
 21
-283.755
  0
LINE
  8
0
 10
97.5029
 20
-283.755
 11
97.882
 21
-283.445
  0
LINE
  8
0
 10
97.882
 20
-283.445
 11
98.3308
 21
-283.248
  0
LINE
  8
0
 10
98.3308
 20
-283.248
 11
98.8162
 21
-283.179
  0
LINE
  8
0
 10
98.8162
 20
-283.179
 11
99.3021
 21
-283.244
  0
LINE
  8
0
 10
99.3021
 20
-283.244
 11
99.7525
 21
-283.437
  0
LINE
  8
0
 10
99.7525
 20
-283.437
 11
100.134
 21
-283.745
  0
LINE
  8
0
 10
100.134
 20
-283.745
 11
100.418
 21
-284.145
  0
LINE
  8
0
 10
100.418
 20
-284.145
 11
100.584
 21
-284.606
  0
LINE
  8
0
 10
100.584
 20
-284.606
 11
101.075
 21
-287.391
  0
LINE
  8
0
 10
101.075
 20
-287.391
 11
101.11
 21
-287.882
  0
LINE
  8
0
 10
101.11
 20
-287.882
 11
101.013
 21
-288.361
  0
LINE
  8
0
 10
101.013
 20
-288.361
 11
100.789
 21
-288.797
  0
LINE
  8
0
 10
100.789
 20
-288.797
 11
100.455
 21
-289.156
  0
LINE
  8
0
 10
100.455
 20
-289.156
 11
100.038
 21
-289.413
  0
LINE
  8
0
 10
100.038
 20
-289.413
 11
99.5661
 21
-289.547
  0
LINE
  8
0
 10
99.5661
 20
-289.547
 11
99.0759
 21
-289.549
  0
LINE
  8
0
 10
99.0759
 20
-289.549
 11
98.6033
 21
-289.418
  0
LINE
  8
0
 10
104.87
 20
-198.014
 11
105.037
 21
-197.544
  0
LINE
  8
0
 10
105.037
 20
-197.544
 11
105.223
 21
-197.08
  0
LINE
  8
0
 10
105.223
 20
-197.08
 11
105.445
 21
-196.591
  0
LINE
  8
0
 10
105.445
 20
-196.591
 11
105.652
 21
-196.179
  0
LINE
  8
0
 10
105.652
 20
-196.179
 11
105.894
 21
-195.742
  0
LINE
  8
0
 10
105.894
 20
-195.742
 11
106.155
 21
-195.316
  0
LINE
  8
0
 10
106.155
 20
-195.316
 11
106.432
 21
-194.901
  0
LINE
  8
0
 10
106.432
 20
-194.901
 11
106.727
 21
-194.499
  0
LINE
  8
0
 10
106.727
 20
-194.499
 11
107.039
 21
-194.108
  0
LINE
  8
0
 10
107.039
 20
-194.108
 11
107.366
 21
-193.731
  0
LINE
  8
0
 10
107.366
 20
-193.731
 11
107.709
 21
-193.368
  0
LINE
  8
0
 10
107.709
 20
-193.368
 11
108.066
 21
-193.019
  0
LINE
  8
0
 10
108.066
 20
-193.019
 11
108.438
 21
-192.686
  0
LINE
  8
0
 10
108.438
 20
-192.686
 11
108.823
 21
-192.369
  0
LINE
  8
0
 10
108.823
 20
-192.369
 11
109.221
 21
-192.067
  0
LINE
  8
0
 10
109.221
 20
-192.067
 11
109.631
 21
-191.783
  0
LINE
  8
0
 10
109.631
 20
-191.783
 11
110.053
 21
-191.516
  0
LINE
  8
0
 10
110.053
 20
-191.516
 11
110.486
 21
-191.266
  0
LINE
  8
0
 10
110.486
 20
-191.266
 11
110.928
 21
-191.035
  0
LINE
  8
0
 10
110.928
 20
-191.035
 11
111.38
 21
-190.822
  0
LINE
  8
0
 10
111.38
 20
-190.822
 11
111.84
 21
-190.629
  0
LINE
  8
0
 10
111.84
 20
-190.629
 11
112.308
 21
-190.454
  0
LINE
  8
0
 10
112.308
 20
-190.454
 11
112.783
 21
-190.3
  0
LINE
  8
0
 10
112.783
 20
-190.3
 11
113.264
 21
-190.165
  0
LINE
  8
0
 10
113.264
 20
-190.165
 11
113.75
 21
-190.05
  0
LINE
  8
0
 10
113.75
 20
-190.05
 11
114.24
 21
-189.956
  0
LINE
  8
0
 10
114.24
 20
-189.956
 11
114.734
 21
-189.882
  0
LINE
  8
0
 10
114.734
 20
-189.882
 11
115.23
 21
-189.829
  0
LINE
  8
0
 10
115.23
 20
-189.829
 11
115.728
 21
-189.796
  0
LINE
  8
0
 10
115.728
 20
-189.796
 11
116.228
 21
-189.784
  0
LINE
  8
0
 10
116.228
 20
-189.784
 11
116.727
 21
-189.793
  0
LINE
  8
0
 10
116.727
 20
-189.793
 11
117.225
 21
-189.823
  0
LINE
  8
0
 10
117.225
 20
-189.823
 11
117.722
 21
-189.873
  0
LINE
  8
0
 10
117.722
 20
-189.873
 11
118.216
 21
-189.945
  0
LINE
  8
0
 10
118.216
 20
-189.945
 11
118.707
 21
-190.036
  0
LINE
  8
0
 10
118.707
 20
-190.036
 11
119.194
 21
-190.148
  0
LINE
  8
0
 10
119.194
 20
-190.148
 11
119.675
 21
-190.28
  0
LINE
  8
0
 10
119.675
 20
-190.28
 11
120.151
 21
-190.432
  0
LINE
  8
0
 10
120.151
 20
-190.432
 11
120.62
 21
-190.603
  0
LINE
  8
0
 10
120.62
 20
-190.603
 11
121.081
 21
-190.794
  0
LINE
  8
0
 10
121.081
 20
-190.794
 11
121.534
 21
-191.004
  0
LINE
  8
0
 10
121.534
 20
-191.004
 11
121.978
 21
-191.233
  0
LINE
  8
0
 10
121.978
 20
-191.233
 11
122.412
 21
-191.48
  0
LINE
  8
0
 10
122.412
 20
-191.48
 11
122.839
 21
-191.747
  0
LINE
  8
0
 10
122.839
 20
-191.747
 11
123.247
 21
-192.027
  0
LINE
  8
0
 10
123.247
 20
-192.027
 11
123.647
 21
-192.326
  0
LINE
  8
0
 10
123.647
 20
-192.326
 11
124.034
 21
-192.641
  0
LINE
  8
0
 10
124.034
 20
-192.641
 11
124.408
 21
-192.972
  0
LINE
  8
0
 10
124.408
 20
-192.972
 11
124.767
 21
-193.319
  0
LINE
  8
0
 10
124.767
 20
-193.319
 11
125.112
 21
-193.68
  0
LINE
  8
0
 10
125.112
 20
-193.68
 11
125.441
 21
-194.055
  0
LINE
  8
0
 10
125.441
 20
-194.055
 11
125.755
 21
-194.444
  0
LINE
  8
0
 10
125.755
 20
-194.444
 11
126.064
 21
-194.862
  0
LINE
  8
0
 10
126.064
 20
-194.862
 11
126.332
 21
-195.258
  0
LINE
  8
0
 10
126.332
 20
-195.258
 11
126.595
 21
-195.683
  0
LINE
  8
0
 10
126.595
 20
-195.683
 11
126.84
 21
-196.118
  0
LINE
  8
0
 10
126.84
 20
-196.118
 11
127.067
 21
-196.563
  0
LINE
  8
0
 10
127.067
 20
-196.563
 11
127.278
 21
-197.024
  0
LINE
  8
0
 10
127.278
 20
-197.024
 11
127.463
 21
-197.479
  0
LINE
  8
0
 10
127.463
 20
-197.479
 11
127.633
 21
-197.948
  0
LINE
  8
0
 10
127.633
 20
-197.948
 11
127.782
 21
-198.425
  0
LINE
  8
0
 10
127.782
 20
-198.425
 11
127.912
 21
-198.907
  0
LINE
  8
0
 10
127.912
 20
-198.907
 11
128.022
 21
-199.394
  0
LINE
  8
0
 10
128.022
 20
-199.394
 11
128.111
 21
-199.885
  0
LINE
  8
0
 10
128.111
 20
-199.885
 11
128.18
 21
-200.38
  0
LINE
  8
0
 10
128.18
 20
-200.38
 11
128.228
 21
-200.877
  0
LINE
  8
0
 10
128.228
 20
-200.877
 11
128.255
 21
-201.375
  0
LINE
  8
0
 10
128.255
 20
-201.375
 11
128.261
 21
-201.892
  0
LINE
  8
0
 10
128.261
 20
-201.892
 11
128.248
 21
-202.374
  0
LINE
  8
0
 10
128.248
 20
-202.374
 11
128.213
 21
-202.872
  0
LINE
  8
0
 10
128.213
 20
-202.872
 11
128.157
 21
-203.368
  0
LINE
  8
0
 10
128.157
 20
-203.368
 11
128.081
 21
-203.861
  0
LINE
  8
0
 10
128.081
 20
-203.861
 11
127.984
 21
-204.351
  0
LINE
  8
0
 10
127.984
 20
-204.351
 11
127.868
 21
-204.837
  0
LINE
  8
0
 10
127.868
 20
-204.837
 11
127.731
 21
-205.317
  0
LINE
  8
0
 10
127.731
 20
-205.317
 11
127.574
 21
-205.791
  0
LINE
  8
0
 10
127.574
 20
-205.791
 11
127.397
 21
-206.258
  0
LINE
  8
0
 10
127.397
 20
-206.258
 11
127.201
 21
-206.717
  0
LINE
  8
0
 10
127.201
 20
-206.717
 11
126.987
 21
-207.168
  0
LINE
  8
0
 10
126.987
 20
-207.168
 11
126.754
 21
-207.609
  0
LINE
  8
0
 10
126.754
 20
-207.609
 11
126.502
 21
-208.041
  0
LINE
  8
0
 10
126.502
 20
-208.041
 11
126.233
 21
-208.461
  0
LINE
  8
0
 10
126.233
 20
-208.461
 11
125.947
 21
-208.87
  0
LINE
  8
0
 10
125.947
 20
-208.87
 11
125.644
 21
-209.267
  0
LINE
  8
0
 10
125.644
 20
-209.267
 11
125.324
 21
-209.651
  0
LINE
  8
0
 10
125.324
 20
-209.651
 11
124.989
 21
-210.021
  0
LINE
  8
0
 10
124.989
 20
-210.021
 11
124.639
 21
-210.377
  0
LINE
  8
0
 10
124.639
 20
-210.377
 11
124.274
 21
-210.718
  0
LINE
  8
0
 10
124.274
 20
-210.718
 11
123.896
 21
-211.043
  0
LINE
  8
0
 10
123.896
 20
-211.043
 11
123.504
 21
-211.353
  0
LINE
  8
0
 10
123.504
 20
-211.353
 11
123.1
 21
-211.646
  0
LINE
  8
0
 10
123.1
 20
-211.646
 11
122.683
 21
-211.922
  0
LINE
  8
0
 10
122.683
 20
-211.922
 11
122.256
 21
-212.18
  0
LINE
  8
0
 10
122.256
 20
-212.18
 11
121.819
 21
-212.42
  0
LINE
  8
0
 10
121.819
 20
-212.42
 11
121.371
 21
-212.642
  0
LINE
  8
0
 10
121.371
 20
-212.642
 11
120.915
 21
-212.846
  0
LINE
  8
0
 10
120.915
 20
-212.846
 11
120.451
 21
-213.03
  0
LINE
  8
0
 10
120.451
 20
-213.03
 11
119.98
 21
-213.194
  0
LINE
  8
0
 10
119.98
 20
-213.194
 11
119.502
 21
-213.339
  0
LINE
  8
0
 10
119.502
 20
-213.339
 11
119.018
 21
-213.464
  0
LINE
  8
0
 10
119.018
 20
-213.464
 11
118.53
 21
-213.568
  0
LINE
  8
0
 10
118.53
 20
-213.568
 11
118.038
 21
-213.652
  0
LINE
  8
0
 10
118.038
 20
-213.652
 11
117.543
 21
-213.716
  0
LINE
  8
0
 10
117.543
 20
-213.716
 11
117.045
 21
-213.759
  0
LINE
  8
0
 10
117.045
 20
-213.759
 11
116.547
 21
-213.781
  0
LINE
  8
0
 10
116.547
 20
-213.781
 11
116.047
 21
-213.782
  0
LINE
  8
0
 10
116.047
 20
-213.782
 11
115.548
 21
-213.763
  0
LINE
  8
0
 10
115.548
 20
-213.763
 11
115.051
 21
-213.723
  0
LINE
  8
0
 10
115.051
 20
-213.723
 11
114.555
 21
-213.662
  0
LINE
  8
0
 10
114.555
 20
-213.662
 11
114.062
 21
-213.581
  0
LINE
  8
0
 10
114.062
 20
-213.581
 11
113.574
 21
-213.479
  0
LINE
  8
0
 10
113.574
 20
-213.479
 11
113.089
 21
-213.357
  0
LINE
  8
0
 10
113.089
 20
-213.357
 11
112.611
 21
-213.215
  0
LINE
  8
0
 10
112.611
 20
-213.215
 11
112.138
 21
-213.054
  0
LINE
  8
0
 10
112.138
 20
-213.054
 11
111.673
 21
-212.872
  0
LINE
  8
0
 10
111.673
 20
-212.872
 11
111.216
 21
-212.672
  0
LINE
  8
0
 10
111.216
 20
-212.672
 11
110.767
 21
-212.452
  0
LINE
  8
0
 10
110.767
 20
-212.452
 11
110.328
 21
-212.215
  0
LINE
  8
0
 10
110.328
 20
-212.215
 11
109.9
 21
-211.959
  0
LINE
  8
0
 10
109.9
 20
-211.959
 11
109.482
 21
-211.685
  0
LINE
  8
0
 10
109.482
 20
-211.685
 11
109.076
 21
-211.395
  0
LINE
  8
0
 10
109.076
 20
-211.395
 11
108.682
 21
-211.087
  0
LINE
  8
0
 10
108.682
 20
-211.087
 11
108.302
 21
-210.764
  0
LINE
  8
0
 10
108.302
 20
-210.764
 11
107.935
 21
-210.425
  0
LINE
  8
0
 10
107.935
 20
-210.425
 11
107.568
 21
-210.055
  0
LINE
  8
0
 10
107.568
 20
-210.055
 11
107.246
 21
-209.703
  0
LINE
  8
0
 10
107.246
 20
-209.703
 11
106.924
 21
-209.321
  0
LINE
  8
0
 10
106.924
 20
-209.321
 11
106.619
 21
-208.926
  0
LINE
  8
0
 10
106.619
 20
-208.926
 11
106.33
 21
-208.519
  0
LINE
  8
0
 10
106.33
 20
-208.519
 11
106.059
 21
-208.1
  0
LINE
  8
0
 10
106.059
 20
-208.1
 11
105.805
 21
-207.67
  0
LINE
  8
0
 10
105.805
 20
-207.67
 11
105.569
 21
-207.23
  0
LINE
  8
0
 10
105.569
 20
-207.23
 11
105.352
 21
-206.78
  0
LINE
  8
0
 10
105.352
 20
-206.78
 11
105.153
 21
-206.322
  0
LINE
  8
0
 10
105.153
 20
-206.322
 11
104.974
 21
-205.856
  0
LINE
  8
0
 10
104.974
 20
-205.856
 11
104.814
 21
-205.383
  0
LINE
  8
0
 10
104.814
 20
-205.383
 11
104.675
 21
-204.904
  0
LINE
  8
0
 10
104.675
 20
-204.904
 11
104.555
 21
-204.419
  0
LINE
  8
0
 10
104.555
 20
-204.419
 11
104.456
 21
-203.93
  0
LINE
  8
0
 10
104.456
 20
-203.93
 11
104.376
 21
-203.437
  0
LINE
  8
0
 10
104.376
 20
-203.437
 11
104.318
 21
-202.941
  0
LINE
  8
0
 10
104.318
 20
-202.941
 11
104.28
 21
-202.443
  0
LINE
  8
0
 10
104.28
 20
-202.443
 11
104.263
 21
-201.944
  0
LINE
  8
0
 10
104.263
 20
-201.944
 11
104.267
 21
-201.445
  0
LINE
  8
0
 10
104.267
 20
-201.445
 11
104.292
 21
-200.946
  0
LINE
  8
0
 10
104.292
 20
-200.946
 11
104.337
 21
-200.449
  0
LINE
  8
0
 10
104.337
 20
-200.449
 11
104.403
 21
-199.954
  0
LINE
  8
0
 10
104.403
 20
-199.954
 11
104.489
 21
-199.462
  0
LINE
  8
0
 10
104.489
 20
-199.462
 11
104.598
 21
-198.966
  0
LINE
  8
0
 10
104.598
 20
-198.966
 11
104.723
 21
-198.491
  0
LINE
  8
0
 10
104.723
 20
-198.491
 11
104.87
 21
-198.014
  0
LINE
  8
0
 10
-66.7291
 20
-205.221
 11
-82.2157
 21
-183.104
  0
LINE
  8
0
 10
-82.2157
 20
-183.104
 11
-78.4304
 21
-180.453
  0
LINE
  8
0
 10
-78.4304
 20
-180.453
 11
-78.9253
 21
-180.288
  0
LINE
  8
0
 10
-78.9253
 20
-180.288
 11
-79.4015
 21
-180.141
  0
LINE
  8
0
 10
-79.4015
 20
-180.141
 11
-79.8808
 21
-180.005
  0
LINE
  8
0
 10
-79.8808
 20
-180.005
 11
-80.3629
 21
-179.879
  0
LINE
  8
0
 10
-80.3629
 20
-179.879
 11
-80.8476
 21
-179.763
  0
LINE
  8
0
 10
-80.8476
 20
-179.763
 11
-81.3347
 21
-179.658
  0
LINE
  8
0
 10
-81.3347
 20
-179.658
 11
-81.824
 21
-179.564
  0
LINE
  8
0
 10
-81.824
 20
-179.564
 11
-82.3152
 21
-179.48
  0
LINE
  8
0
 10
-82.3152
 20
-179.48
 11
-92.6584
 21
-177.96
  0
LINE
  8
0
 10
-92.6584
 20
-177.96
 11
-72.0229
 21
-207.431
  0
LINE
  8
0
 10
-72.0229
 20
-207.431
 11
-75.5371
 21
-209.892
  0
LINE
  8
0
 10
-75.5371
 20
-209.892
 11
-75.3175
 21
-210.326
  0
LINE
  8
0
 10
-75.3175
 20
-210.326
 11
-75.2292
 21
-210.805
  0
LINE
  8
0
 10
-75.2292
 20
-210.805
 11
-75.2793
 21
-211.289
  0
LINE
  8
0
 10
-75.2793
 20
-211.289
 11
-75.4637
 21
-211.739
  0
LINE
  8
0
 10
-75.4637
 20
-211.739
 11
-75.7676
 21
-212.119
  0
LINE
  8
0
 10
-75.7676
 20
-212.119
 11
-76.1663
 21
-212.398
  0
LINE
  8
0
 10
-76.1663
 20
-212.398
 11
-76.6275
 21
-212.554
  0
LINE
  8
0
 10
-76.6275
 20
-212.554
 11
-77.1138
 21
-212.573
  0
LINE
  8
0
 10
-77.1138
 20
-212.573
 11
-77.5859
 21
-212.455
  0
LINE
  8
0
 10
-77.5859
 20
-212.455
 11
-78.0055
 21
-212.208
  0
LINE
  8
0
 10
-78.0055
 20
-212.208
 11
-78.3386
 21
-211.853
  0
LINE
  8
0
 10
-78.3386
 20
-211.853
 11
-81.8527
 21
-214.314
  0
LINE
  8
0
 10
-81.8527
 20
-214.314
 11
-108.986
 21
-175.563
  0
LINE
  8
0
 10
-108.986
 20
-175.563
 11
-112.312
 21
-175.075
  0
LINE
  8
0
 10
-112.312
 20
-175.075
 11
-112.807
 21
-175.006
  0
LINE
  8
0
 10
-112.807
 20
-175.006
 11
-113.302
 21
-174.947
  0
LINE
  8
0
 10
-113.302
 20
-174.947
 11
-113.799
 21
-174.897
  0
LINE
  8
0
 10
-113.799
 20
-174.897
 11
-114.296
 21
-174.856
  0
LINE
  8
0
 10
-114.296
 20
-174.856
 11
-114.794
 21
-174.824
  0
LINE
  8
0
 10
-114.794
 20
-174.824
 11
-115.292
 21
-174.802
  0
LINE
  8
0
 10
-115.292
 20
-174.802
 11
-115.791
 21
-174.788
  0
LINE
  8
0
 10
-115.791
 20
-174.788
 11
-116.048
 21
-174.786
  0
LINE
  8
0
 10
-116.048
 20
-174.786
 11
-141.705
 21
-192.752
  0
LINE
  8
0
 10
-141.705
 20
-192.752
 11
-141.791
 21
-192.994
  0
LINE
  8
0
 10
-141.791
 20
-192.994
 11
-141.949
 21
-193.467
  0
LINE
  8
0
 10
-141.949
 20
-193.467
 11
-142.099
 21
-193.943
  0
LINE
  8
0
 10
-142.099
 20
-193.943
 11
-142.239
 21
-194.422
  0
LINE
  8
0
 10
-142.239
 20
-194.422
 11
-142.371
 21
-194.903
  0
LINE
  8
0
 10
-142.371
 20
-194.903
 11
-142.493
 21
-195.387
  0
LINE
  8
0
 10
-142.493
 20
-195.387
 11
-142.607
 21
-195.873
  0
LINE
  8
0
 10
-142.607
 20
-195.873
 11
-142.712
 21
-196.361
  0
LINE
  8
0
 10
-142.712
 20
-196.361
 11
-142.808
 21
-196.85
  0
LINE
  8
0
 10
-142.808
 20
-196.85
 11
-142.894
 21
-197.342
  0
LINE
  8
0
 10
-142.894
 20
-197.342
 11
-142.972
 21
-197.835
  0
LINE
  8
0
 10
-142.972
 20
-197.835
 11
-143.04
 21
-198.329
  0
LINE
  8
0
 10
-143.04
 20
-198.329
 11
-143.099
 21
-198.824
  0
LINE
  8
0
 10
-143.099
 20
-198.824
 11
-143.15
 21
-199.321
  0
LINE
  8
0
 10
-143.15
 20
-199.321
 11
-143.191
 21
-199.818
  0
LINE
  8
0
 10
-143.191
 20
-199.818
 11
-143.222
 21
-200.316
  0
LINE
  8
0
 10
-143.222
 20
-200.316
 11
-143.245
 21
-200.814
  0
LINE
  8
0
 10
-143.245
 20
-200.814
 11
-143.258
 21
-201.313
  0
LINE
  8
0
 10
-143.258
 20
-201.313
 11
-143.26
 21
-201.583
  0
LINE
  8
0
 10
-143.26
 20
-201.583
 11
-122.26
 21
-264.583
  0
LINE
  8
0
 10
-122.26
 20
-264.583
 11
-104.307
 21
-290.223
  0
LINE
  8
0
 10
-104.307
 20
-290.223
 11
-104.053
 21
-290.313
  0
LINE
  8
0
 10
-104.053
 20
-290.313
 11
-103.579
 21
-290.471
  0
LINE
  8
0
 10
-103.579
 20
-290.471
 11
-103.103
 21
-290.621
  0
LINE
  8
0
 10
-103.103
 20
-290.621
 11
-102.624
 21
-290.761
  0
LINE
  8
0
 10
-102.624
 20
-290.761
 11
-102.143
 21
-290.893
  0
LINE
  8
0
 10
-102.143
 20
-290.893
 11
-101.66
 21
-291.016
  0
LINE
  8
0
 10
-101.66
 20
-291.016
 11
-101.174
 21
-291.129
  0
LINE
  8
0
 10
-101.174
 20
-291.129
 11
-100.686
 21
-291.234
  0
LINE
  8
0
 10
-100.686
 20
-291.234
 11
-100.196
 21
-291.33
  0
LINE
  8
0
 10
-100.196
 20
-291.33
 11
-99.7048
 21
-291.416
  0
LINE
  8
0
 10
-99.7048
 20
-291.416
 11
-99.2119
 21
-291.494
  0
LINE
  8
0
 10
-99.2119
 20
-291.494
 11
-98.7177
 21
-291.562
  0
LINE
  8
0
 10
-98.7177
 20
-291.562
 11
-98.2223
 21
-291.622
  0
LINE
  8
0
 10
-98.2223
 20
-291.622
 11
-97.7258
 21
-291.672
  0
LINE
  8
0
 10
-97.7258
 20
-291.672
 11
-97.2286
 21
-291.713
  0
LINE
  8
0
 10
-97.2286
 20
-291.713
 11
-96.7306
 21
-291.744
  0
LINE
  8
0
 10
-96.7306
 20
-291.744
 11
-96.2322
 21
-291.767
  0
LINE
  8
0
 10
-96.2322
 20
-291.767
 11
-95.7334
 21
-291.78
  0
LINE
  8
0
 10
-95.7334
 20
-291.78
 11
-95.4762
 21
-291.782
  0
LINE
  8
0
 10
-95.4762
 20
-291.782
 11
-60.9468
 21
-282.162
  0
LINE
  8
0
 10
-60.9468
 20
-282.162
 11
-60.4682
 21
-282.023
  0
LINE
  8
0
 10
-60.4682
 20
-282.023
 11
-59.9926
 21
-281.874
  0
LINE
  8
0
 10
-59.9926
 20
-281.874
 11
-59.5204
 21
-281.715
  0
LINE
  8
0
 10
-59.5204
 20
-281.715
 11
-59.0517
 21
-281.546
  0
LINE
  8
0
 10
-59.0517
 20
-281.546
 11
-58.5868
 21
-281.366
  0
LINE
  8
0
 10
-58.5868
 20
-281.366
 11
-58.1259
 21
-281.177
  0
LINE
  8
0
 10
-58.1259
 20
-281.177
 11
-57.6692
 21
-280.978
  0
LINE
  8
0
 10
-57.6692
 20
-280.978
 11
-57.217
 21
-280.768
  0
LINE
  8
0
 10
-57.217
 20
-280.768
 11
-56.7694
 21
-280.549
  0
LINE
  8
0
 10
-56.7694
 20
-280.549
 11
-56.3266
 21
-280.321
  0
LINE
  8
0
 10
-56.3266
 20
-280.321
 11
-55.8889
 21
-280.083
  0
LINE
  8
0
 10
-55.8889
 20
-280.083
 11
-55.4564
 21
-279.835
  0
LINE
  8
0
 10
-55.4564
 20
-279.835
 11
-55.0295
 21
-279.578
  0
LINE
  8
0
 10
-55.0295
 20
-279.578
 11
-54.6081
 21
-279.312
  0
LINE
  8
0
 10
-54.6081
 20
-279.312
 11
-54.1927
 21
-279.037
  0
LINE
  8
0
 10
-54.1927
 20
-279.037
 11
-53.7833
 21
-278.753
  0
LINE
  8
0
 10
-53.7833
 20
-278.753
 11
-53.3802
 21
-278.46
  0
LINE
  8
0
 10
-53.3802
 20
-278.46
 11
-52.9835
 21
-278.158
  0
LINE
  8
0
 10
-52.9835
 20
-278.158
 11
-52.5934
 21
-277.848
  0
LINE
  8
0
 10
-52.5934
 20
-277.848
 11
-52.2101
 21
-277.53
  0
LINE
  8
0
 10
-52.2101
 20
-277.53
 11
-51.8338
 21
-277.203
  0
LINE
  8
0
 10
-51.8338
 20
-277.203
 11
-51.4647
 21
-276.868
  0
LINE
  8
0
 10
-51.4647
 20
-276.868
 11
-51.103
 21
-276.526
  0
LINE
  8
0
 10
-51.103
 20
-276.526
 11
-50.7487
 21
-276.175
  0
LINE
  8
0
 10
-50.7487
 20
-276.175
 11
-50.4021
 21
-275.817
  0
LINE
  8
0
 10
-50.4021
 20
-275.817
 11
-50.0634
 21
-275.452
  0
LINE
  8
0
 10
-50.0634
 20
-275.452
 11
-49.7326
 21
-275.079
  0
LINE
  8
0
 10
-49.7326
 20
-275.079
 11
-49.41
 21
-274.699
  0
LINE
  8
0
 10
-49.41
 20
-274.699
 11
-49.0957
 21
-274.312
  0
LINE
  8
0
 10
-49.0957
 20
-274.312
 11
-48.7899
 21
-273.919
  0
LINE
  8
0
 10
-48.7899
 20
-273.919
 11
-48.4791
 21
-273.5
  0
LINE
  8
0
 10
-48.4791
 20
-273.5
 11
-53.1
 21
-273.5
  0
LINE
  8
0
 10
-53.1
 20
-273.5
 11
-53.1
 21
-246.5
  0
LINE
  8
0
 10
-53.1
 20
-246.5
 11
-47.3103
 21
-246.5
  0
LINE
  8
0
 10
-47.3103
 20
-246.5
 11
-52.7086
 21
-229.936
  0
LINE
  8
0
 10
-52.7086
 20
-229.936
 11
-52.9444
 21
-230.287
  0
LINE
  8
0
 10
-52.9444
 20
-230.287
 11
-53.243
 21
-230.686
  0
LINE
  8
0
 10
-53.243
 20
-230.686
 11
-53.5611
 21
-231.07
  0
LINE
  8
0
 10
-53.5611
 20
-231.07
 11
-53.8979
 21
-231.438
  0
LINE
  8
0
 10
-53.8979
 20
-231.438
 11
-54.2527
 21
-231.788
  0
LINE
  8
0
 10
-54.2527
 20
-231.788
 11
-54.6245
 21
-232.12
  0
LINE
  8
0
 10
-54.6245
 20
-232.12
 11
-55.0124
 21
-232.434
  0
LINE
  8
0
 10
-55.0124
 20
-232.434
 11
-55.4154
 21
-232.727
  0
LINE
  8
0
 10
-55.4154
 20
-232.727
 11
-55.8326
 21
-233
  0
LINE
  8
0
 10
-55.8326
 20
-233
 11
-56.2628
 21
-233.252
  0
LINE
  8
0
 10
-56.2628
 20
-233.252
 11
-56.7051
 21
-233.482
  0
LINE
  8
0
 10
-56.7051
 20
-233.482
 11
-57.1583
 21
-233.69
  0
LINE
  8
0
 10
-57.1583
 20
-233.69
 11
-57.6213
 21
-233.875
  0
LINE
  8
0
 10
-57.6213
 20
-233.875
 11
-58.0929
 21
-234.037
  0
LINE
  8
0
 10
-58.0929
 20
-234.037
 11
-58.5721
 21
-234.175
  0
LINE
  8
0
 10
-58.5721
 20
-234.175
 11
-59.0575
 21
-234.289
  0
LINE
  8
0
 10
-59.0575
 20
-234.289
 11
-59.548
 21
-234.379
  0
LINE
  8
0
 10
-59.548
 20
-234.379
 11
-60.0423
 21
-234.444
  0
LINE
  8
0
 10
-60.0423
 20
-234.444
 11
-60.5393
 21
-234.484
  0
LINE
  8
0
 10
-60.5393
 20
-234.484
 11
-61.0377
 21
-234.5
  0
LINE
  8
0
 10
-61.0377
 20
-234.5
 11
-61.5362
 21
-234.49
  0
LINE
  8
0
 10
-61.5362
 20
-234.49
 11
-62.0336
 21
-234.456
  0
LINE
  8
0
 10
-62.0336
 20
-234.456
 11
-62.5287
 21
-234.397
  0
LINE
  8
0
 10
-62.5287
 20
-234.397
 11
-63.0203
 21
-234.314
  0
LINE
  8
0
 10
-63.0203
 20
-234.314
 11
-63.5071
 21
-234.206
  0
LINE
  8
0
 10
-63.5071
 20
-234.206
 11
-63.9879
 21
-234.074
  0
LINE
  8
0
 10
-63.9879
 20
-234.074
 11
-64.4616
 21
-233.918
  0
LINE
  8
0
 10
-64.4616
 20
-233.918
 11
-64.9268
 21
-233.739
  0
LINE
  8
0
 10
-64.9268
 20
-233.739
 11
-65.3826
 21
-233.537
  0
LINE
  8
0
 10
-65.3826
 20
-233.537
 11
-65.8277
 21
-233.312
  0
LINE
  8
0
 10
-65.8277
 20
-233.312
 11
-66.2611
 21
-233.065
  0
LINE
  8
0
 10
-66.2611
 20
-233.065
 11
-66.6816
 21
-232.797
  0
LINE
  8
0
 10
-66.6816
 20
-232.797
 11
-67.0882
 21
-232.509
  0
LINE
  8
0
 10
-67.0882
 20
-232.509
 11
-67.48
 21
-232.2
  0
LINE
  8
0
 10
-67.48
 20
-232.2
 11
-67.8559
 21
-231.873
  0
LINE
  8
0
 10
-67.8559
 20
-231.873
 11
-68.215
 21
-231.527
  0
LINE
  8
0
 10
-68.215
 20
-231.527
 11
-68.5564
 21
-231.163
  0
LINE
  8
0
 10
-68.5564
 20
-231.163
 11
-68.8793
 21
-230.784
  0
LINE
  8
0
 10
-68.8793
 20
-230.784
 11
-69.1828
 21
-230.388
  0
LINE
  8
0
 10
-69.1828
 20
-230.388
 11
-69.4663
 21
-229.978
  0
LINE
  8
0
 10
-69.4663
 20
-229.978
 11
-69.7289
 21
-229.554
  0
LINE
  8
0
 10
-69.7289
 20
-229.554
 11
-69.9701
 21
-229.117
  0
LINE
  8
0
 10
-69.9701
 20
-229.117
 11
-70.1892
 21
-228.67
  0
LINE
  8
0
 10
-70.1892
 20
-228.67
 11
-70.3858
 21
-228.211
  0
LINE
  8
0
 10
-70.3858
 20
-228.211
 11
-70.5592
 21
-227.744
  0
LINE
  8
0
 10
-70.5592
 20
-227.744
 11
-70.7092
 21
-227.268
  0
LINE
  8
0
 10
-70.7092
 20
-227.268
 11
-70.8352
 21
-226.786
  0
LINE
  8
0
 10
-70.8352
 20
-226.786
 11
-70.9371
 21
-226.298
  0
LINE
  8
0
 10
-70.9371
 20
-226.298
 11
-71.0145
 21
-225.805
  0
LINE
  8
0
 10
-71.0145
 20
-225.805
 11
-71.0672
 21
-225.309
  0
LINE
  8
0
 10
-71.0672
 20
-225.309
 11
-71.0951
 21
-224.812
  0
LINE
  8
0
 10
-71.0951
 20
-224.812
 11
-71.0983
 21
-224.313
  0
LINE
  8
0
 10
-71.0983
 20
-224.313
 11
-71.0765
 21
-223.815
  0
LINE
  8
0
 10
-71.0765
 20
-223.815
 11
-71.03
 21
-223.318
  0
LINE
  8
0
 10
-71.03
 20
-223.318
 11
-70.9587
 21
-222.825
  0
LINE
  8
0
 10
-70.9587
 20
-222.825
 11
-70.863
 21
-222.336
  0
LINE
  8
0
 10
-70.863
 20
-222.336
 11
-70.7429
 21
-221.852
  0
LINE
  8
0
 10
-70.7429
 20
-221.852
 11
-70.5989
 21
-221.374
  0
LINE
  8
0
 10
-70.5989
 20
-221.374
 11
-70.4313
 21
-220.905
  0
LINE
  8
0
 10
-70.4313
 20
-220.905
 11
-70.2405
 21
-220.444
  0
LINE
  8
0
 10
-70.2405
 20
-220.444
 11
-70.027
 21
-219.993
  0
LINE
  8
0
 10
-70.027
 20
-219.993
 11
-69.7912
 21
-219.554
  0
LINE
  8
0
 10
-69.7912
 20
-219.554
 11
-69.5339
 21
-219.127
  0
LINE
  8
0
 10
-69.5339
 20
-219.127
 11
-69.2556
 21
-218.713
  0
LINE
  8
0
 10
-69.2556
 20
-218.713
 11
-68.957
 21
-218.314
  0
LINE
  8
0
 10
-68.957
 20
-218.314
 11
-68.6389
 21
-217.93
  0
LINE
  8
0
 10
-68.6389
 20
-217.93
 11
-68.302
 21
-217.562
  0
LINE
  8
0
 10
-68.302
 20
-217.562
 11
-67.9473
 21
-217.212
  0
LINE
  8
0
 10
-67.9473
 20
-217.212
 11
-67.5755
 21
-216.88
  0
LINE
  8
0
 10
-67.5755
 20
-216.88
 11
-67.1876
 21
-216.566
  0
LINE
  8
0
 10
-67.1876
 20
-216.566
 11
-66.7846
 21
-216.273
  0
LINE
  8
0
 10
-66.7846
 20
-216.273
 11
-66.3674
 21
-216
  0
LINE
  8
0
 10
-66.3674
 20
-216
 11
-65.9372
 21
-215.748
  0
LINE
  8
0
 10
-65.9372
 20
-215.748
 11
-65.4949
 21
-215.518
  0
LINE
  8
0
 10
-65.4949
 20
-215.518
 11
-65.0417
 21
-215.31
  0
LINE
  8
0
 10
-65.0417
 20
-215.31
 11
-64.5787
 21
-215.125
  0
LINE
  8
0
 10
-64.5787
 20
-215.125
 11
-64.1071
 21
-214.963
  0
LINE
  8
0
 10
-64.1071
 20
-214.963
 11
-63.6279
 21
-214.825
  0
LINE
  8
0
 10
-63.6279
 20
-214.825
 11
-63.1425
 21
-214.711
  0
LINE
  8
0
 10
-63.1425
 20
-214.711
 11
-62.652
 21
-214.621
  0
LINE
  8
0
 10
-62.652
 20
-214.621
 11
-62.1577
 21
-214.556
  0
LINE
  8
0
 10
-62.1577
 20
-214.556
 11
-61.6607
 21
-214.516
  0
LINE
  8
0
 10
-61.6607
 20
-214.516
 11
-61.1623
 21
-214.5
  0
LINE
  8
0
 10
-61.1623
 20
-214.5
 11
-60.6638
 21
-214.51
  0
LINE
  8
0
 10
-60.6638
 20
-214.51
 11
-60.1664
 21
-214.544
  0
LINE
  8
0
 10
-60.1664
 20
-214.544
 11
-59.6712
 21
-214.603
  0
LINE
  8
0
 10
-59.6712
 20
-214.603
 11
-59.1797
 21
-214.686
  0
LINE
  8
0
 10
-59.1797
 20
-214.686
 11
-58.6929
 21
-214.794
  0
LINE
  8
0
 10
-58.6929
 20
-214.794
 11
-58.2121
 21
-214.926
  0
LINE
  8
0
 10
-58.2121
 20
-214.926
 11
-57.7384
 21
-215.082
  0
LINE
  8
0
 10
-57.7384
 20
-215.082
 11
-57.5226
 21
-215.165
  0
LINE
  8
0
 10
-57.5226
 20
-215.165
 11
-61.8719
 21
-201.82
  0
LINE
  8
0
 10
-61.8719
 20
-201.82
 11
-66.7291
 21
-205.221
  0
LINE
  8
0
 10
-113.194
 20
-183.321
 11
-113.642
 21
-183.124
  0
LINE
  8
0
 10
-113.642
 20
-183.124
 11
-114.022
 21
-182.813
  0
LINE
  8
0
 10
-114.022
 20
-182.813
 11
-114.303
 21
-182.412
  0
LINE
  8
0
 10
-114.303
 20
-182.412
 11
-114.465
 21
-181.949
  0
LINE
  8
0
 10
-114.465
 20
-181.949
 11
-114.497
 21
-181.46
  0
LINE
  8
0
 10
-114.497
 20
-181.46
 11
-114.006
 21
-178.675
  0
LINE
  8
0
 10
-114.006
 20
-178.675
 11
-113.904
 21
-178.195
  0
LINE
  8
0
 10
-113.904
 20
-178.195
 11
-113.677
 21
-177.761
  0
LINE
  8
0
 10
-113.677
 20
-177.761
 11
-113.341
 21
-177.404
  0
LINE
  8
0
 10
-113.341
 20
-177.404
 11
-112.921
 21
-177.151
  0
LINE
  8
0
 10
-112.921
 20
-177.151
 11
-112.449
 21
-177.02
  0
LINE
  8
0
 10
-112.449
 20
-177.02
 11
-111.958
 21
-177.022
  0
LINE
  8
0
 10
-111.958
 20
-177.022
 11
-111.487
 21
-177.156
  0
LINE
  8
0
 10
-111.487
 20
-177.156
 11
-111.069
 21
-177.412
  0
LINE
  8
0
 10
-111.069
 20
-177.412
 11
-110.736
 21
-177.772
  0
LINE
  8
0
 10
-110.736
 20
-177.772
 11
-110.512
 21
-178.208
  0
LINE
  8
0
 10
-110.512
 20
-178.208
 11
-110.414
 21
-178.688
  0
LINE
  8
0
 10
-110.414
 20
-178.688
 11
-110.449
 21
-179.177
  0
LINE
  8
0
 10
-110.449
 20
-179.177
 11
-110.94
 21
-181.963
  0
LINE
  8
0
 10
-110.94
 20
-181.963
 11
-111.106
 21
-182.424
  0
LINE
  8
0
 10
-111.106
 20
-182.424
 11
-111.391
 21
-182.823
  0
LINE
  8
0
 10
-111.391
 20
-182.823
 11
-111.772
 21
-183.131
  0
LINE
  8
0
 10
-111.772
 20
-183.131
 11
-112.222
 21
-183.325
  0
LINE
  8
0
 10
-112.222
 20
-183.325
 11
-112.708
 21
-183.39
  0
LINE
  8
0
 10
-112.708
 20
-183.39
 11
-113.194
 21
-183.321
  0
LINE
  8
0
 10
-116.547
 20
-213.781
 11
-117.045
 21
-213.759
  0
LINE
  8
0
 10
-117.045
 20
-213.759
 11
-117.543
 21
-213.716
  0
LINE
  8
0
 10
-117.543
 20
-213.716
 11
-118.038
 21
-213.652
  0
LINE
  8
0
 10
-118.038
 20
-213.652
 11
-118.53
 21
-213.568
  0
LINE
  8
0
 10
-118.53
 20
-213.568
 11
-119.018
 21
-213.464
  0
LINE
  8
0
 10
-119.018
 20
-213.464
 11
-119.502
 21
-213.339
  0
LINE
  8
0
 10
-119.502
 20
-213.339
 11
-119.98
 21
-213.194
  0
LINE
  8
0
 10
-119.98
 20
-213.194
 11
-120.451
 21
-213.03
  0
LINE
  8
0
 10
-120.451
 20
-213.03
 11
-120.915
 21
-212.846
  0
LINE
  8
0
 10
-120.915
 20
-212.846
 11
-121.371
 21
-212.642
  0
LINE
  8
0
 10
-121.371
 20
-212.642
 11
-121.819
 21
-212.42
  0
LINE
  8
0
 10
-121.819
 20
-212.42
 11
-122.256
 21
-212.18
  0
LINE
  8
0
 10
-122.256
 20
-212.18
 11
-122.683
 21
-211.922
  0
LINE
  8
0
 10
-122.683
 20
-211.922
 11
-123.1
 21
-211.646
  0
LINE
  8
0
 10
-123.1
 20
-211.646
 11
-123.504
 21
-211.353
  0
LINE
  8
0
 10
-123.504
 20
-211.353
 11
-123.896
 21
-211.043
  0
LINE
  8
0
 10
-123.896
 20
-211.043
 11
-124.274
 21
-210.718
  0
LINE
  8
0
 10
-124.274
 20
-210.718
 11
-124.639
 21
-210.377
  0
LINE
  8
0
 10
-124.639
 20
-210.377
 11
-124.989
 21
-210.021
  0
LINE
  8
0
 10
-124.989
 20
-210.021
 11
-125.324
 21
-209.651
  0
LINE
  8
0
 10
-125.324
 20
-209.651
 11
-125.644
 21
-209.267
  0
LINE
  8
0
 10
-125.644
 20
-209.267
 11
-125.947
 21
-208.87
  0
LINE
  8
0
 10
-125.947
 20
-208.87
 11
-126.233
 21
-208.461
  0
LINE
  8
0
 10
-126.233
 20
-208.461
 11
-126.502
 21
-208.041
  0
LINE
  8
0
 10
-126.502
 20
-208.041
 11
-126.754
 21
-207.609
  0
LINE
  8
0
 10
-126.754
 20
-207.609
 11
-126.987
 21
-207.168
  0
LINE
  8
0
 10
-126.987
 20
-207.168
 11
-127.201
 21
-206.717
  0
LINE
  8
0
 10
-127.201
 20
-206.717
 11
-127.397
 21
-206.258
  0
LINE
  8
0
 10
-127.397
 20
-206.258
 11
-127.574
 21
-205.791
  0
LINE
  8
0
 10
-127.574
 20
-205.791
 11
-127.731
 21
-205.317
  0
LINE
  8
0
 10
-127.731
 20
-205.317
 11
-127.868
 21
-204.837
  0
LINE
  8
0
 10
-127.868
 20
-204.837
 11
-127.984
 21
-204.351
  0
LINE
  8
0
 10
-127.984
 20
-204.351
 11
-128.081
 21
-203.861
  0
LINE
  8
0
 10
-128.081
 20
-203.861
 11
-128.157
 21
-203.368
  0
LINE
  8
0
 10
-128.157
 20
-203.368
 11
-128.213
 21
-202.872
  0
LINE
  8
0
 10
-128.213
 20
-202.872
 11
-128.248
 21
-202.374
  0
LINE
  8
0
 10
-128.248
 20
-202.374
 11
-128.262
 21
-201.875
  0
LINE
  8
0
 10
-128.262
 20
-201.875
 11
-128.255
 21
-201.375
  0
LINE
  8
0
 10
-128.255
 20
-201.375
 11
-128.228
 21
-200.877
  0
LINE
  8
0
 10
-128.228
 20
-200.877
 11
-128.18
 21
-200.38
  0
LINE
  8
0
 10
-128.18
 20
-200.38
 11
-128.111
 21
-199.885
  0
LINE
  8
0
 10
-128.111
 20
-199.885
 11
-128.022
 21
-199.394
  0
LINE
  8
0
 10
-128.022
 20
-199.394
 11
-127.912
 21
-198.907
  0
LINE
  8
0
 10
-127.912
 20
-198.907
 11
-127.782
 21
-198.425
  0
LINE
  8
0
 10
-127.782
 20
-198.425
 11
-127.633
 21
-197.948
  0
LINE
  8
0
 10
-127.633
 20
-197.948
 11
-127.463
 21
-197.479
  0
LINE
  8
0
 10
-127.463
 20
-197.479
 11
-127.274
 21
-197.017
  0
LINE
  8
0
 10
-127.274
 20
-197.017
 11
-127.056
 21
-196.542
  0
LINE
  8
0
 10
-127.056
 20
-196.542
 11
-126.84
 21
-196.118
  0
LINE
  8
0
 10
-126.84
 20
-196.118
 11
-126.595
 21
-195.683
  0
LINE
  8
0
 10
-126.595
 20
-195.683
 11
-126.332
 21
-195.258
  0
LINE
  8
0
 10
-126.332
 20
-195.258
 11
-126.052
 21
-194.845
  0
LINE
  8
0
 10
-126.052
 20
-194.845
 11
-125.755
 21
-194.444
  0
LINE
  8
0
 10
-125.755
 20
-194.444
 11
-125.441
 21
-194.055
  0
LINE
  8
0
 10
-125.441
 20
-194.055
 11
-125.112
 21
-193.68
  0
LINE
  8
0
 10
-125.112
 20
-193.68
 11
-124.767
 21
-193.319
  0
LINE
  8
0
 10
-124.767
 20
-193.319
 11
-124.408
 21
-192.972
  0
LINE
  8
0
 10
-124.408
 20
-192.972
 11
-124.034
 21
-192.641
  0
LINE
  8
0
 10
-124.034
 20
-192.641
 11
-123.647
 21
-192.326
  0
LINE
  8
0
 10
-123.647
 20
-192.326
 11
-123.247
 21
-192.027
  0
LINE
  8
0
 10
-123.247
 20
-192.027
 11
-122.835
 21
-191.745
  0
LINE
  8
0
 10
-122.835
 20
-191.745
 11
-122.412
 21
-191.48
  0
LINE
  8
0
 10
-122.412
 20
-191.48
 11
-121.978
 21
-191.233
  0
LINE
  8
0
 10
-121.978
 20
-191.233
 11
-121.513
 21
-190.995
  0
LINE
  8
0
 10
-121.513
 20
-190.995
 11
-121.081
 21
-190.794
  0
LINE
  8
0
 10
-121.081
 20
-190.794
 11
-120.62
 21
-190.603
  0
LINE
  8
0
 10
-120.62
 20
-190.603
 11
-120.131
 21
-190.426
  0
LINE
  8
0
 10
-120.131
 20
-190.426
 11
-119.675
 21
-190.28
  0
LINE
  8
0
 10
-119.675
 20
-190.28
 11
-119.194
 21
-190.148
  0
LINE
  8
0
 10
-119.194
 20
-190.148
 11
-118.707
 21
-190.036
  0
LINE
  8
0
 10
-118.707
 20
-190.036
 11
-118.216
 21
-189.945
  0
LINE
  8
0
 10
-118.216
 20
-189.945
 11
-117.722
 21
-189.873
  0
LINE
  8
0
 10
-117.722
 20
-189.873
 11
-117.225
 21
-189.823
  0
LINE
  8
0
 10
-117.225
 20
-189.823
 11
-116.727
 21
-189.793
  0
LINE
  8
0
 10
-116.727
 20
-189.793
 11
-116.228
 21
-189.784
  0
LINE
  8
0
 10
-116.228
 20
-189.784
 11
-115.728
 21
-189.796
  0
LINE
  8
0
 10
-115.728
 20
-189.796
 11
-115.23
 21
-189.829
  0
LINE
  8
0
 10
-115.23
 20
-189.829
 11
-114.734
 21
-189.882
  0
LINE
  8
0
 10
-114.734
 20
-189.882
 11
-114.24
 21
-189.956
  0
LINE
  8
0
 10
-114.24
 20
-189.956
 11
-113.75
 21
-190.05
  0
LINE
  8
0
 10
-113.75
 20
-190.05
 11
-113.264
 21
-190.165
  0
LINE
  8
0
 10
-113.264
 20
-190.165
 11
-112.783
 21
-190.3
  0
LINE
  8
0
 10
-112.783
 20
-190.3
 11
-112.308
 21
-190.454
  0
LINE
  8
0
 10
-112.308
 20
-190.454
 11
-111.84
 21
-190.629
  0
LINE
  8
0
 10
-111.84
 20
-190.629
 11
-111.38
 21
-190.822
  0
LINE
  8
0
 10
-111.38
 20
-190.822
 11
-110.928
 21
-191.035
  0
LINE
  8
0
 10
-110.928
 20
-191.035
 11
-110.486
 21
-191.266
  0
LINE
  8
0
 10
-110.486
 20
-191.266
 11
-110.053
 21
-191.516
  0
LINE
  8
0
 10
-110.053
 20
-191.516
 11
-109.631
 21
-191.783
  0
LINE
  8
0
 10
-109.631
 20
-191.783
 11
-109.221
 21
-192.067
  0
LINE
  8
0
 10
-109.221
 20
-192.067
 11
-108.823
 21
-192.369
  0
LINE
  8
0
 10
-108.823
 20
-192.369
 11
-108.438
 21
-192.686
  0
LINE
  8
0
 10
-108.438
 20
-192.686
 11
-108.066
 21
-193.019
  0
LINE
  8
0
 10
-108.066
 20
-193.019
 11
-107.709
 21
-193.368
  0
LINE
  8
0
 10
-107.709
 20
-193.368
 11
-107.366
 21
-193.731
  0
LINE
  8
0
 10
-107.366
 20
-193.731
 11
-107.039
 21
-194.108
  0
LINE
  8
0
 10
-107.039
 20
-194.108
 11
-106.727
 21
-194.499
  0
LINE
  8
0
 10
-106.727
 20
-194.499
 11
-106.432
 21
-194.901
  0
LINE
  8
0
 10
-106.432
 20
-194.901
 11
-106.155
 21
-195.316
  0
LINE
  8
0
 10
-106.155
 20
-195.316
 11
-105.894
 21
-195.742
  0
LINE
  8
0
 10
-105.894
 20
-195.742
 11
-105.652
 21
-196.179
  0
LINE
  8
0
 10
-105.652
 20
-196.179
 11
-105.428
 21
-196.625
  0
LINE
  8
0
 10
-105.428
 20
-196.625
 11
-105.223
 21
-197.08
  0
LINE
  8
0
 10
-105.223
 20
-197.08
 11
-105.037
 21
-197.544
  0
LINE
  8
0
 10
-105.037
 20
-197.544
 11
-104.87
 21
-198.014
  0
LINE
  8
0
 10
-104.87
 20
-198.014
 11
-104.723
 21
-198.491
  0
LINE
  8
0
 10
-104.723
 20
-198.491
 11
-104.596
 21
-198.974
  0
LINE
  8
0
 10
-104.596
 20
-198.974
 11
-104.489
 21
-199.462
  0
LINE
  8
0
 10
-104.489
 20
-199.462
 11
-104.403
 21
-199.954
  0
LINE
  8
0
 10
-104.403
 20
-199.954
 11
-104.337
 21
-200.449
  0
LINE
  8
0
 10
-104.337
 20
-200.449
 11
-104.292
 21
-200.946
  0
LINE
  8
0
 10
-104.292
 20
-200.946
 11
-104.267
 21
-201.445
  0
LINE
  8
0
 10
-104.267
 20
-201.445
 11
-104.263
 21
-201.944
  0
LINE
  8
0
 10
-104.263
 20
-201.944
 11
-104.28
 21
-202.443
  0
LINE
  8
0
 10
-104.28
 20
-202.443
 11
-104.318
 21
-202.941
  0
LINE
  8
0
 10
-104.318
 20
-202.941
 11
-104.376
 21
-203.437
  0
LINE
  8
0
 10
-104.376
 20
-203.437
 11
-104.456
 21
-203.93
  0
LINE
  8
0
 10
-104.456
 20
-203.93
 11
-104.555
 21
-204.419
  0
LINE
  8
0
 10
-104.555
 20
-204.419
 11
-104.675
 21
-204.904
  0
LINE
  8
0
 10
-104.675
 20
-204.904
 11
-104.814
 21
-205.383
  0
LINE
  8
0
 10
-104.814
 20
-205.383
 11
-104.974
 21
-205.856
  0
LINE
  8
0
 10
-104.974
 20
-205.856
 11
-105.153
 21
-206.322
  0
LINE
  8
0
 10
-105.153
 20
-206.322
 11
-105.352
 21
-206.78
  0
LINE
  8
0
 10
-105.352
 20
-206.78
 11
-105.569
 21
-207.23
  0
LINE
  8
0
 10
-105.569
 20
-207.23
 11
-105.805
 21
-207.67
  0
LINE
  8
0
 10
-105.805
 20
-207.67
 11
-106.059
 21
-208.1
  0
LINE
  8
0
 10
-106.059
 20
-208.1
 11
-106.33
 21
-208.519
  0
LINE
  8
0
 10
-106.33
 20
-208.519
 11
-106.619
 21
-208.926
  0
LINE
  8
0
 10
-106.619
 20
-208.926
 11
-106.924
 21
-209.321
  0
LINE
  8
0
 10
-106.924
 20
-209.321
 11
-107.246
 21
-209.703
  0
LINE
  8
0
 10
-107.246
 20
-209.703
 11
-107.583
 21
-210.071
  0
LINE
  8
0
 10
-107.583
 20
-210.071
 11
-107.935
 21
-210.425
  0
LINE
  8
0
 10
-107.935
 20
-210.425
 11
-108.302
 21
-210.764
  0
LINE
  8
0
 10
-108.302
 20
-210.764
 11
-108.682
 21
-211.087
  0
LINE
  8
0
 10
-108.682
 20
-211.087
 11
-109.076
 21
-211.395
  0
LINE
  8
0
 10
-109.076
 20
-211.395
 11
-109.482
 21
-211.685
  0
LINE
  8
0
 10
-109.482
 20
-211.685
 11
-109.9
 21
-211.959
  0
LINE
  8
0
 10
-109.9
 20
-211.959
 11
-110.328
 21
-212.215
  0
LINE
  8
0
 10
-110.328
 20
-212.215
 11
-110.767
 21
-212.452
  0
LINE
  8
0
 10
-110.767
 20
-212.452
 11
-111.216
 21
-212.672
  0
LINE
  8
0
 10
-111.216
 20
-212.672
 11
-111.673
 21
-212.872
  0
LINE
  8
0
 10
-111.673
 20
-212.872
 11
-112.138
 21
-213.054
  0
LINE
  8
0
 10
-112.138
 20
-213.054
 11
-112.611
 21
-213.215
  0
LINE
  8
0
 10
-112.611
 20
-213.215
 11
-113.089
 21
-213.357
  0
LINE
  8
0
 10
-113.089
 20
-213.357
 11
-113.574
 21
-213.479
  0
LINE
  8
0
 10
-113.574
 20
-213.479
 11
-114.062
 21
-213.581
  0
LINE
  8
0
 10
-114.062
 20
-213.581
 11
-114.555
 21
-213.662
  0
LINE
  8
0
 10
-114.555
 20
-213.662
 11
-115.051
 21
-213.723
  0
LINE
  8
0
 10
-115.051
 20
-213.723
 11
-115.548
 21
-213.763
  0
LINE
  8
0
 10
-115.548
 20
-213.763
 11
-116.047
 21
-213.782
  0
LINE
  8
0
 10
-116.047
 20
-213.782
 11
-116.547
 21
-213.781
  0
LINE
  8
0
 10
-136.586
 20
-200.019
 11
-139.372
 21
-199.528
  0
LINE
  8
0
 10
-139.372
 20
-199.528
 11
-139.851
 21
-199.426
  0
LINE
  8
0
 10
-139.851
 20
-199.426
 11
-140.286
 21
-199.199
  0
LINE
  8
0
 10
-140.286
 20
-199.199
 11
-140.643
 21
-198.863
  0
LINE
  8
0
 10
-140.643
 20
-198.863
 11
-140.896
 21
-198.443
  0
LINE
  8
0
 10
-140.896
 20
-198.443
 11
-141.026
 21
-197.971
  0
LINE
  8
0
 10
-141.026
 20
-197.971
 11
-141.025
 21
-197.481
  0
LINE
  8
0
 10
-141.025
 20
-197.481
 11
-140.89
 21
-197.009
  0
LINE
  8
0
 10
-140.89
 20
-197.009
 11
-140.634
 21
-196.591
  0
LINE
  8
0
 10
-140.634
 20
-196.591
 11
-140.275
 21
-196.258
  0
LINE
  8
0
 10
-140.275
 20
-196.258
 11
-139.839
 21
-196.034
  0
LINE
  8
0
 10
-139.839
 20
-196.034
 11
-139.358
 21
-195.936
  0
LINE
  8
0
 10
-139.358
 20
-195.936
 11
-138.869
 21
-195.971
  0
LINE
  8
0
 10
-138.869
 20
-195.971
 11
-136.084
 21
-196.463
  0
LINE
  8
0
 10
-136.084
 20
-196.463
 11
-135.623
 21
-196.628
  0
LINE
  8
0
 10
-135.623
 20
-196.628
 11
-135.223
 21
-196.913
  0
LINE
  8
0
 10
-135.223
 20
-196.913
 11
-134.915
 21
-197.294
  0
LINE
  8
0
 10
-134.915
 20
-197.294
 11
-134.722
 21
-197.744
  0
LINE
  8
0
 10
-134.722
 20
-197.744
 11
-134.657
 21
-198.23
  0
LINE
  8
0
 10
-134.657
 20
-198.23
 11
-134.725
 21
-198.716
  0
LINE
  8
0
 10
-134.725
 20
-198.716
 11
-134.922
 21
-199.165
  0
LINE
  8
0
 10
-134.922
 20
-199.165
 11
-135.233
 21
-199.544
  0
LINE
  8
0
 10
-135.233
 20
-199.544
 11
-135.635
 21
-199.825
  0
LINE
  8
0
 10
-135.635
 20
-199.825
 11
-136.097
 21
-199.987
  0
LINE
  8
0
 10
-136.097
 20
-199.987
 11
-136.586
 21
-200.019
  0
LINE
  8
0
 10
-93.6551
 20
-207.597
 11
-96.4406
 21
-207.106
  0
LINE
  8
0
 10
-96.4406
 20
-207.106
 11
-96.9018
 21
-206.94
  0
LINE
  8
0
 10
-96.9018
 20
-206.94
 11
-97.3012
 21
-206.656
  0
LINE
  8
0
 10
-97.3012
 20
-206.656
 11
-97.6091
 21
-206.275
  0
LINE
  8
0
 10
-97.6091
 20
-206.275
 11
-97.8027
 21
-205.824
  0
LINE
  8
0
 10
-97.8027
 20
-205.824
 11
-97.8676
 21
-205.338
  0
LINE
  8
0
 10
-97.8676
 20
-205.338
 11
-97.799
 21
-204.853
  0
LINE
  8
0
 10
-97.799
 20
-204.853
 11
-97.602
 21
-204.404
  0
LINE
  8
0
 10
-97.602
 20
-204.404
 11
-97.2912
 21
-204.025
  0
LINE
  8
0
 10
-97.2912
 20
-204.025
 11
-96.8897
 21
-203.744
  0
LINE
  8
0
 10
-96.8897
 20
-203.744
 11
-96.4272
 21
-203.581
  0
LINE
  8
0
 10
-96.4272
 20
-203.581
 11
-95.938
 21
-203.55
  0
LINE
  8
0
 10
-95.938
 20
-203.55
 11
-93.1525
 21
-204.041
  0
LINE
  8
0
 10
-93.1525
 20
-204.041
 11
-92.673
 21
-204.143
  0
LINE
  8
0
 10
-92.673
 20
-204.143
 11
-92.2386
 21
-204.37
  0
LINE
  8
0
 10
-92.2386
 20
-204.37
 11
-91.8816
 21
-204.706
  0
LINE
  8
0
 10
-91.8816
 20
-204.706
 11
-91.6285
 21
-205.126
  0
LINE
  8
0
 10
-91.6285
 20
-205.126
 11
-91.498
 21
-205.598
  0
LINE
  8
0
 10
-91.498
 20
-205.598
 11
-91.4999
 21
-206.088
  0
LINE
  8
0
 10
-91.4999
 20
-206.088
 11
-91.6339
 21
-206.56
  0
LINE
  8
0
 10
-91.6339
 20
-206.56
 11
-91.8902
 21
-206.978
  0
LINE
  8
0
 10
-91.8902
 20
-206.978
 11
-92.2498
 21
-207.311
  0
LINE
  8
0
 10
-92.2498
 20
-207.311
 11
-92.6858
 21
-207.535
  0
LINE
  8
0
 10
-92.6858
 20
-207.535
 11
-93.1662
 21
-207.633
  0
LINE
  8
0
 10
-93.1662
 20
-207.633
 11
-93.6551
 21
-207.597
  0
LINE
  8
0
 10
-65.3836
 20
-214.088
 11
-65.8603
 21
-213.964
  0
LINE
  8
0
 10
-65.8603
 20
-213.964
 11
-66.2973
 21
-213.736
  0
LINE
  8
0
 10
-66.2973
 20
-213.736
 11
-66.6727
 21
-213.417
  0
LINE
  8
0
 10
-66.6727
 20
-213.417
 11
-66.9677
 21
-213.023
  0
LINE
  8
0
 10
-66.9677
 20
-213.023
 11
-67.1675
 21
-212.572
  0
LINE
  8
0
 10
-67.1675
 20
-212.572
 11
-67.2621
 21
-212.089
  0
LINE
  8
0
 10
-67.2621
 20
-212.089
 11
-67.2467
 21
-211.597
  0
LINE
  8
0
 10
-67.2467
 20
-211.597
 11
-67.1222
 21
-211.12
  0
LINE
  8
0
 10
-67.1222
 20
-211.12
 11
-66.8947
 21
-210.683
  0
LINE
  8
0
 10
-66.8947
 20
-210.683
 11
-66.5757
 21
-210.308
  0
LINE
  8
0
 10
-66.5757
 20
-210.308
 11
-66.1812
 21
-210.013
  0
LINE
  8
0
 10
-66.1812
 20
-210.013
 11
-65.7309
 21
-209.813
  0
LINE
  8
0
 10
-65.7309
 20
-209.813
 11
-65.2474
 21
-209.718
  0
LINE
  8
0
 10
-65.2474
 20
-209.718
 11
-64.755
 21
-209.734
  0
LINE
  8
0
 10
-64.755
 20
-209.734
 11
-64.2784
 21
-209.858
  0
LINE
  8
0
 10
-64.2784
 20
-209.858
 11
-63.8414
 21
-210.086
  0
LINE
  8
0
 10
-63.8414
 20
-210.086
 11
-63.466
 21
-210.405
  0
LINE
  8
0
 10
-63.466
 20
-210.405
 11
-63.1709
 21
-210.799
  0
LINE
  8
0
 10
-63.1709
 20
-210.799
 11
-62.9711
 21
-211.249
  0
LINE
  8
0
 10
-62.9711
 20
-211.249
 11
-62.8765
 21
-211.733
  0
LINE
  8
0
 10
-62.8765
 20
-211.733
 11
-62.8919
 21
-212.225
  0
LINE
  8
0
 10
-62.8919
 20
-212.225
 11
-63.0164
 21
-212.702
  0
LINE
  8
0
 10
-63.0164
 20
-212.702
 11
-63.2439
 21
-213.139
  0
LINE
  8
0
 10
-63.2439
 20
-213.139
 11
-63.5629
 21
-213.514
  0
LINE
  8
0
 10
-63.5629
 20
-213.514
 11
-63.9575
 21
-213.809
  0
LINE
  8
0
 10
-63.9575
 20
-213.809
 11
-64.4078
 21
-214.009
  0
LINE
  8
0
 10
-64.4078
 20
-214.009
 11
-64.8912
 21
-214.104
  0
LINE
  8
0
 10
-64.8912
 20
-214.104
 11
-65.3836
 21
-214.088
  0
LINE
  8
0
 10
-120.566
 20
-226.547
 11
-121.038
 21
-226.413
  0
LINE
  8
0
 10
-121.038
 20
-226.413
 11
-121.455
 21
-226.156
  0
LINE
  8
0
 10
-121.455
 20
-226.156
 11
-121.789
 21
-225.797
  0
LINE
  8
0
 10
-121.789
 20
-225.797
 11
-122.013
 21
-225.361
  0
LINE
  8
0
 10
-122.013
 20
-225.361
 11
-122.11
 21
-224.88
  0
LINE
  8
0
 10
-122.11
 20
-224.88
 11
-122.075
 21
-224.391
  0
LINE
  8
0
 10
-122.075
 20
-224.391
 11
-121.584
 21
-221.606
  0
LINE
  8
0
 10
-121.584
 20
-221.606
 11
-121.418
 21
-221.145
  0
LINE
  8
0
 10
-121.418
 20
-221.145
 11
-121.134
 21
-220.745
  0
LINE
  8
0
 10
-121.134
 20
-220.745
 11
-120.752
 21
-220.437
  0
LINE
  8
0
 10
-120.752
 20
-220.437
 11
-120.302
 21
-220.244
  0
LINE
  8
0
 10
-120.302
 20
-220.244
 11
-119.816
 21
-220.179
  0
LINE
  8
0
 10
-119.816
 20
-220.179
 11
-119.331
 21
-220.248
  0
LINE
  8
0
 10
-119.331
 20
-220.248
 11
-118.882
 21
-220.445
  0
LINE
  8
0
 10
-118.882
 20
-220.445
 11
-118.503
 21
-220.755
  0
LINE
  8
0
 10
-118.503
 20
-220.755
 11
-118.222
 21
-221.157
  0
LINE
  8
0
 10
-118.222
 20
-221.157
 11
-118.059
 21
-221.619
  0
LINE
  8
0
 10
-118.059
 20
-221.619
 11
-118.028
 21
-222.109
  0
LINE
  8
0
 10
-118.028
 20
-222.109
 11
-118.519
 21
-224.894
  0
LINE
  8
0
 10
-118.519
 20
-224.894
 11
-118.62
 21
-225.374
  0
LINE
  8
0
 10
-118.62
 20
-225.374
 11
-118.848
 21
-225.808
  0
LINE
  8
0
 10
-118.848
 20
-225.808
 11
-119.184
 21
-226.165
  0
LINE
  8
0
 10
-119.184
 20
-226.165
 11
-119.603
 21
-226.418
  0
LINE
  8
0
 10
-119.603
 20
-226.418
 11
-120.076
 21
-226.549
  0
LINE
  8
0
 10
-120.076
 20
-226.549
 11
-120.566
 21
-226.547
  0
LINE
  8
0
 10
-57.445
 20
-239.266
 11
-57.9216
 21
-239.142
  0
LINE
  8
0
 10
-57.9216
 20
-239.142
 11
-58.3586
 21
-238.914
  0
LINE
  8
0
 10
-58.3586
 20
-238.914
 11
-58.734
 21
-238.595
  0
LINE
  8
0
 10
-58.734
 20
-238.595
 11
-59.029
 21
-238.201
  0
LINE
  8
0
 10
-59.029
 20
-238.201
 11
-59.2289
 21
-237.751
  0
LINE
  8
0
 10
-59.2289
 20
-237.751
 11
-59.3235
 21
-237.267
  0
LINE
  8
0
 10
-59.3235
 20
-237.267
 11
-59.3081
 21
-236.775
  0
LINE
  8
0
 10
-59.3081
 20
-236.775
 11
-59.1836
 21
-236.298
  0
LINE
  8
0
 10
-59.1836
 20
-236.298
 11
-58.9561
 21
-235.861
  0
LINE
  8
0
 10
-58.9561
 20
-235.861
 11
-58.6371
 21
-235.486
  0
LINE
  8
0
 10
-58.6371
 20
-235.486
 11
-58.2425
 21
-235.191
  0
LINE
  8
0
 10
-58.2425
 20
-235.191
 11
-57.7922
 21
-234.991
  0
LINE
  8
0
 10
-57.7922
 20
-234.991
 11
-57.3088
 21
-234.896
  0
LINE
  8
0
 10
-57.3088
 20
-234.896
 11
-56.8163
 21
-234.912
  0
LINE
  8
0
 10
-56.8163
 20
-234.912
 11
-56.3397
 21
-235.036
  0
LINE
  8
0
 10
-56.3397
 20
-235.036
 11
-55.9027
 21
-235.264
  0
LINE
  8
0
 10
-55.9027
 20
-235.264
 11
-55.5273
 21
-235.583
  0
LINE
  8
0
 10
-55.5273
 20
-235.583
 11
-55.2323
 21
-235.977
  0
LINE
  8
0
 10
-55.2323
 20
-235.977
 11
-55.0325
 21
-236.428
  0
LINE
  8
0
 10
-55.0325
 20
-236.428
 11
-54.9379
 21
-236.911
  0
LINE
  8
0
 10
-54.9379
 20
-236.911
 11
-54.9532
 21
-237.403
  0
LINE
  8
0
 10
-54.9532
 20
-237.403
 11
-55.0778
 21
-237.88
  0
LINE
  8
0
 10
-55.0778
 20
-237.88
 11
-55.3053
 21
-238.317
  0
LINE
  8
0
 10
-55.3053
 20
-238.317
 11
-55.6243
 21
-238.692
  0
LINE
  8
0
 10
-55.6243
 20
-238.692
 11
-56.0188
 21
-238.987
  0
LINE
  8
0
 10
-56.0188
 20
-238.987
 11
-56.4691
 21
-239.187
  0
LINE
  8
0
 10
-56.4691
 20
-239.187
 11
-56.9526
 21
-239.282
  0
LINE
  8
0
 10
-56.9526
 20
-239.282
 11
-57.445
 21
-239.266
  0
LINE
  8
0
 10
-92.1936
 20
-246.321
 11
-92.6424
 21
-246.124
  0
LINE
  8
0
 10
-92.6424
 20
-246.124
 11
-93.0215
 21
-245.813
  0
LINE
  8
0
 10
-93.0215
 20
-245.813
 11
-93.3027
 21
-245.412
  0
LINE
  8
0
 10
-93.3027
 20
-245.412
 11
-93.4651
 21
-244.949
  0
LINE
  8
0
 10
-93.4651
 20
-244.949
 11
-93.4967
 21
-244.46
  0
LINE
  8
0
 10
-93.4967
 20
-244.46
 11
-93.0055
 21
-241.675
  0
LINE
  8
0
 10
-93.0055
 20
-241.675
 11
-92.904
 21
-241.195
  0
LINE
  8
0
 10
-92.904
 20
-241.195
 11
-92.6768
 21
-240.761
  0
LINE
  8
0
 10
-92.6768
 20
-240.761
 11
-92.3409
 21
-240.404
  0
LINE
  8
0
 10
-92.3409
 20
-240.404
 11
-91.9211
 21
-240.151
  0
LINE
  8
0
 10
-91.9211
 20
-240.151
 11
-91.4485
 21
-240.02
  0
LINE
  8
0
 10
-91.4485
 20
-240.02
 11
-90.9583
 21
-240.022
  0
LINE
  8
0
 10
-90.9583
 20
-240.022
 11
-90.4868
 21
-240.156
  0
LINE
  8
0
 10
-90.4868
 20
-240.156
 11
-90.069
 21
-240.412
  0
LINE
  8
0
 10
-90.069
 20
-240.412
 11
-89.7357
 21
-240.772
  0
LINE
  8
0
 10
-89.7357
 20
-240.772
 11
-89.5119
 21
-241.208
  0
LINE
  8
0
 10
-89.5119
 20
-241.208
 11
-89.414
 21
-241.688
  0
LINE
  8
0
 10
-89.414
 20
-241.688
 11
-89.4493
 21
-242.177
  0
LINE
  8
0
 10
-89.4493
 20
-242.177
 11
-89.9404
 21
-244.963
  0
LINE
  8
0
 10
-89.9404
 20
-244.963
 11
-90.1063
 21
-245.424
  0
LINE
  8
0
 10
-90.1063
 20
-245.424
 11
-90.3905
 21
-245.823
  0
LINE
  8
0
 10
-90.3905
 20
-245.823
 11
-90.772
 21
-246.131
  0
LINE
  8
0
 10
-90.772
 20
-246.131
 11
-91.2223
 21
-246.325
  0
LINE
  8
0
 10
-91.2223
 20
-246.325
 11
-91.7082
 21
-246.39
  0
LINE
  8
0
 10
-91.7082
 20
-246.39
 11
-92.1936
 21
-246.321
  0
LINE
  8
0
 10
-61.8434
 20
-249.193
 11
-62.3103
 21
-249.055
  0
LINE
  8
0
 10
-62.3103
 20
-249.055
 11
-62.7198
 21
-248.792
  0
LINE
  8
0
 10
-62.7198
 20
-248.792
 11
-63.0385
 21
-248.424
  0
LINE
  8
0
 10
-63.0385
 20
-248.424
 11
-63.2407
 21
-247.982
  0
LINE
  8
0
 10
-63.2407
 20
-247.982
 11
-63.31
 21
-247.5
  0
LINE
  8
0
 10
-63.31
 20
-247.5
 11
-63.2407
 21
-247.018
  0
LINE
  8
0
 10
-63.2407
 20
-247.018
 11
-63.0385
 21
-246.576
  0
LINE
  8
0
 10
-63.0385
 20
-246.576
 11
-62.7198
 21
-246.208
  0
LINE
  8
0
 10
-62.7198
 20
-246.208
 11
-62.3103
 21
-245.945
  0
LINE
  8
0
 10
-62.3103
 20
-245.945
 11
-61.8434
 21
-245.807
  0
LINE
  8
0
 10
-61.8434
 20
-245.807
 11
-61.3566
 21
-245.807
  0
LINE
  8
0
 10
-61.3566
 20
-245.807
 11
-60.8896
 21
-245.945
  0
LINE
  8
0
 10
-60.8896
 20
-245.945
 11
-60.4802
 21
-246.208
  0
LINE
  8
0
 10
-60.4802
 20
-246.208
 11
-60.1615
 21
-246.576
  0
LINE
  8
0
 10
-60.1615
 20
-246.576
 11
-59.9593
 21
-247.018
  0
LINE
  8
0
 10
-59.9593
 20
-247.018
 11
-59.89
 21
-247.5
  0
LINE
  8
0
 10
-59.89
 20
-247.5
 11
-59.9593
 21
-247.982
  0
LINE
  8
0
 10
-59.9593
 20
-247.982
 11
-60.1615
 21
-248.424
  0
LINE
  8
0
 10
-60.1615
 20
-248.424
 11
-60.4802
 21
-248.792
  0
LINE
  8
0
 10
-60.4802
 20
-248.792
 11
-60.8896
 21
-249.055
  0
LINE
  8
0
 10
-60.8896
 20
-249.055
 11
-61.3566
 21
-249.193
  0
LINE
  8
0
 10
-61.3566
 20
-249.193
 11
-61.8434
 21
-249.193
  0
LINE
  8
0
 10
-95.5465
 20
-276.781
 11
-96.0453
 21
-276.759
  0
LINE
  8
0
 10
-96.0453
 20
-276.759
 11
-96.5428
 21
-276.716
  0
LINE
  8
0
 10
-96.5428
 20
-276.716
 11
-97.038
 21
-276.652
  0
LINE
  8
0
 10
-97.038
 20
-276.652
 11
-97.5301
 21
-276.568
  0
LINE
  8
0
 10
-97.5301
 20
-276.568
 11
-98.0184
 21
-276.464
  0
LINE
  8
0
 10
-98.0184
 20
-276.464
 11
-98.5018
 21
-276.339
  0
LINE
  8
0
 10
-98.5018
 20
-276.339
 11
-98.9796
 21
-276.194
  0
LINE
  8
0
 10
-98.9796
 20
-276.194
 11
-99.451
 21
-276.03
  0
LINE
  8
0
 10
-99.451
 20
-276.03
 11
-99.9152
 21
-275.846
  0
LINE
  8
0
 10
-99.9152
 20
-275.846
 11
-100.371
 21
-275.642
  0
LINE
  8
0
 10
-100.371
 20
-275.642
 11
-100.819
 21
-275.42
  0
LINE
  8
0
 10
-100.819
 20
-275.42
 11
-101.256
 21
-275.18
  0
LINE
  8
0
 10
-101.256
 20
-275.18
 11
-101.683
 21
-274.922
  0
LINE
  8
0
 10
-101.683
 20
-274.922
 11
-102.1
 21
-274.646
  0
LINE
  8
0
 10
-102.1
 20
-274.646
 11
-102.504
 21
-274.353
  0
LINE
  8
0
 10
-102.504
 20
-274.353
 11
-102.896
 21
-274.043
  0
LINE
  8
0
 10
-102.896
 20
-274.043
 11
-103.274
 21
-273.718
  0
LINE
  8
0
 10
-103.274
 20
-273.718
 11
-103.639
 21
-273.377
  0
LINE
  8
0
 10
-103.639
 20
-273.377
 11
-103.989
 21
-273.021
  0
LINE
  8
0
 10
-103.989
 20
-273.021
 11
-104.324
 21
-272.651
  0
LINE
  8
0
 10
-104.324
 20
-272.651
 11
-104.644
 21
-272.267
  0
LINE
  8
0
 10
-104.644
 20
-272.267
 11
-104.947
 21
-271.87
  0
LINE
  8
0
 10
-104.947
 20
-271.87
 11
-105.233
 21
-271.461
  0
LINE
  8
0
 10
-105.233
 20
-271.461
 11
-105.502
 21
-271.041
  0
LINE
  8
0
 10
-105.502
 20
-271.041
 11
-105.754
 21
-270.609
  0
LINE
  8
0
 10
-105.754
 20
-270.609
 11
-105.987
 21
-270.168
  0
LINE
  8
0
 10
-105.987
 20
-270.168
 11
-106.201
 21
-269.717
  0
LINE
  8
0
 10
-106.201
 20
-269.717
 11
-106.397
 21
-269.258
  0
LINE
  8
0
 10
-106.397
 20
-269.258
 11
-106.574
 21
-268.791
  0
LINE
  8
0
 10
-106.574
 20
-268.791
 11
-106.731
 21
-268.317
  0
LINE
  8
0
 10
-106.731
 20
-268.317
 11
-106.868
 21
-267.837
  0
LINE
  8
0
 10
-106.868
 20
-267.837
 11
-106.984
 21
-267.351
  0
LINE
  8
0
 10
-106.984
 20
-267.351
 11
-107.081
 21
-266.861
  0
LINE
  8
0
 10
-107.081
 20
-266.861
 11
-107.157
 21
-266.368
  0
LINE
  8
0
 10
-107.157
 20
-266.368
 11
-107.213
 21
-265.872
  0
LINE
  8
0
 10
-107.213
 20
-265.872
 11
-107.248
 21
-265.374
  0
LINE
  8
0
 10
-107.248
 20
-265.374
 11
-107.262
 21
-264.875
  0
LINE
  8
0
 10
-107.262
 20
-264.875
 11
-107.255
 21
-264.375
  0
LINE
  8
0
 10
-107.255
 20
-264.375
 11
-107.228
 21
-263.877
  0
LINE
  8
0
 10
-107.228
 20
-263.877
 11
-107.18
 21
-263.38
  0
LINE
  8
0
 10
-107.18
 20
-263.38
 11
-107.111
 21
-262.885
  0
LINE
  8
0
 10
-107.111
 20
-262.885
 11
-107.022
 21
-262.394
  0
LINE
  8
0
 10
-107.022
 20
-262.394
 11
-106.912
 21
-261.907
  0
LINE
  8
0
 10
-106.912
 20
-261.907
 11
-106.782
 21
-261.425
  0
LINE
  8
0
 10
-106.782
 20
-261.425
 11
-106.633
 21
-260.948
  0
LINE
  8
0
 10
-106.633
 20
-260.948
 11
-106.463
 21
-260.479
  0
LINE
  8
0
 10
-106.463
 20
-260.479
 11
-106.274
 21
-260.017
  0
LINE
  8
0
 10
-106.274
 20
-260.017
 11
-106.067
 21
-259.563
  0
LINE
  8
0
 10
-106.067
 20
-259.563
 11
-105.84
 21
-259.118
  0
LINE
  8
0
 10
-105.84
 20
-259.118
 11
-105.595
 21
-258.683
  0
LINE
  8
0
 10
-105.595
 20
-258.683
 11
-105.332
 21
-258.258
  0
LINE
  8
0
 10
-105.332
 20
-258.258
 11
-105.052
 21
-257.845
  0
LINE
  8
0
 10
-105.052
 20
-257.845
 11
-104.755
 21
-257.444
  0
LINE
  8
0
 10
-104.755
 20
-257.444
 11
-104.441
 21
-257.055
  0
LINE
  8
0
 10
-104.441
 20
-257.055
 11
-104.112
 21
-256.68
  0
LINE
  8
0
 10
-104.112
 20
-256.68
 11
-103.767
 21
-256.319
  0
LINE
  8
0
 10
-103.767
 20
-256.319
 11
-103.408
 21
-255.972
  0
LINE
  8
0
 10
-103.408
 20
-255.972
 11
-103.034
 21
-255.641
  0
LINE
  8
0
 10
-103.034
 20
-255.641
 11
-102.647
 21
-255.326
  0
LINE
  8
0
 10
-102.647
 20
-255.326
 11
-102.247
 21
-255.027
  0
LINE
  8
0
 10
-102.247
 20
-255.027
 11
-101.835
 21
-254.745
  0
LINE
  8
0
 10
-101.835
 20
-254.745
 11
-101.412
 21
-254.48
  0
LINE
  8
0
 10
-101.412
 20
-254.48
 11
-100.978
 21
-254.233
  0
LINE
  8
0
 10
-100.978
 20
-254.233
 11
-100.534
 21
-254.004
  0
LINE
  8
0
 10
-100.534
 20
-254.004
 11
-100.081
 21
-253.794
  0
LINE
  8
0
 10
-100.081
 20
-253.794
 11
-99.6195
 21
-253.603
  0
LINE
  8
0
 10
-99.6195
 20
-253.603
 11
-99.1507
 21
-253.432
  0
LINE
  8
0
 10
-99.1507
 20
-253.432
 11
-98.675
 21
-253.28
  0
LINE
  8
0
 10
-98.675
 20
-253.28
 11
-98.1935
 21
-253.148
  0
LINE
  8
0
 10
-98.1935
 20
-253.148
 11
-97.7069
 21
-253.036
  0
LINE
  8
0
 10
-97.7069
 20
-253.036
 11
-97.2161
 21
-252.945
  0
LINE
  8
0
 10
-97.2161
 20
-252.945
 11
-96.7219
 21
-252.873
  0
LINE
  8
0
 10
-96.7219
 20
-252.873
 11
-96.2251
 21
-252.823
  0
LINE
  8
0
 10
-96.2251
 20
-252.823
 11
-95.7267
 21
-252.793
  0
LINE
  8
0
 10
-95.7267
 20
-252.793
 11
-95.2275
 21
-252.784
  0
LINE
  8
0
 10
-95.2275
 20
-252.784
 11
-94.7284
 21
-252.796
  0
LINE
  8
0
 10
-94.7284
 20
-252.796
 11
-94.2301
 21
-252.829
  0
LINE
  8
0
 10
-94.2301
 20
-252.829
 11
-93.7337
 21
-252.882
  0
LINE
  8
0
 10
-93.7337
 20
-252.882
 11
-93.2399
 21
-252.956
  0
LINE
  8
0
 10
-93.2399
 20
-252.956
 11
-92.7496
 21
-253.05
  0
LINE
  8
0
 10
-92.7496
 20
-253.05
 11
-92.2637
 21
-253.165
  0
LINE
  8
0
 10
-92.2637
 20
-253.165
 11
-91.7829
 21
-253.3
  0
LINE
  8
0
 10
-91.7829
 20
-253.3
 11
-91.3082
 21
-253.454
  0
LINE
  8
0
 10
-91.3082
 20
-253.454
 11
-90.8403
 21
-253.629
  0
LINE
  8
0
 10
-90.8403
 20
-253.629
 11
-90.3801
 21
-253.822
  0
LINE
  8
0
 10
-90.3801
 20
-253.822
 11
-89.9283
 21
-254.035
  0
LINE
  8
0
 10
-89.9283
 20
-254.035
 11
-89.4858
 21
-254.266
  0
LINE
  8
0
 10
-89.4858
 20
-254.266
 11
-89.0532
 21
-254.516
  0
LINE
  8
0
 10
-89.0532
 20
-254.516
 11
-88.6315
 21
-254.783
  0
LINE
  8
0
 10
-88.6315
 20
-254.783
 11
-88.2211
 21
-255.067
  0
LINE
  8
0
 10
-88.2211
 20
-255.067
 11
-87.823
 21
-255.369
  0
LINE
  8
0
 10
-87.823
 20
-255.369
 11
-87.4378
 21
-255.686
  0
LINE
  8
0
 10
-87.4378
 20
-255.686
 11
-87.0661
 21
-256.02
  0
LINE
  8
0
 10
-87.0661
 20
-256.02
 11
-86.7086
 21
-256.368
  0
LINE
  8
0
 10
-86.7086
 20
-256.368
 11
-86.3658
 21
-256.731
  0
LINE
  8
0
 10
-86.3658
 20
-256.731
 11
-86.0385
 21
-257.108
  0
LINE
  8
0
 10
-86.0385
 20
-257.108
 11
-85.7272
 21
-257.499
  0
LINE
  8
0
 10
-85.7272
 20
-257.499
 11
-85.4324
 21
-257.901
  0
LINE
  8
0
 10
-85.4324
 20
-257.901
 11
-85.1546
 21
-258.316
  0
LINE
  8
0
 10
-85.1546
 20
-258.316
 11
-84.8943
 21
-258.742
  0
LINE
  8
0
 10
-84.8943
 20
-258.742
 11
-84.6519
 21
-259.179
  0
LINE
  8
0
 10
-84.6519
 20
-259.179
 11
-84.4279
 21
-259.625
  0
LINE
  8
0
 10
-84.4279
 20
-259.625
 11
-84.2227
 21
-260.08
  0
LINE
  8
0
 10
-84.2227
 20
-260.08
 11
-84.0365
 21
-260.544
  0
LINE
  8
0
 10
-84.0365
 20
-260.544
 11
-83.8698
 21
-261.014
  0
LINE
  8
0
 10
-83.8698
 20
-261.014
 11
-83.7229
 21
-261.491
  0
LINE
  8
0
 10
-83.7229
 20
-261.491
 11
-83.5959
 21
-261.974
  0
LINE
  8
0
 10
-83.5959
 20
-261.974
 11
-83.4891
 21
-262.462
  0
LINE
  8
0
 10
-83.4891
 20
-262.462
 11
-83.4027
 21
-262.954
  0
LINE
  8
0
 10
-83.4027
 20
-262.954
 11
-83.3368
 21
-263.449
  0
LINE
  8
0
 10
-83.3368
 20
-263.449
 11
-83.2915
 21
-263.946
  0
LINE
  8
0
 10
-83.2915
 20
-263.946
 11
-83.267
 21
-264.445
  0
LINE
  8
0
 10
-83.267
 20
-264.445
 11
-83.2633
 21
-264.944
  0
LINE
  8
0
 10
-83.2633
 20
-264.944
 11
-83.2803
 21
-265.443
  0
LINE
  8
0
 10
-83.2803
 20
-265.443
 11
-83.3181
 21
-265.941
  0
LINE
  8
0
 10
-83.3181
 20
-265.941
 11
-83.3765
 21
-266.437
  0
LINE
  8
0
 10
-83.3765
 20
-266.437
 11
-83.4555
 21
-266.93
  0
LINE
  8
0
 10
-83.4555
 20
-266.93
 11
-83.555
 21
-267.419
  0
LINE
  8
0
 10
-83.555
 20
-267.419
 11
-83.6747
 21
-267.904
  0
LINE
  8
0
 10
-83.6747
 20
-267.904
 11
-83.8145
 21
-268.383
  0
LINE
  8
0
 10
-83.8145
 20
-268.383
 11
-83.9741
 21
-268.856
  0
LINE
  8
0
 10
-83.9741
 20
-268.856
 11
-84.1532
 21
-269.322
  0
LINE
  8
0
 10
-84.1532
 20
-269.322
 11
-84.3516
 21
-269.78
  0
LINE
  8
0
 10
-84.3516
 20
-269.78
 11
-84.5689
 21
-270.23
  0
LINE
  8
0
 10
-84.5689
 20
-270.23
 11
-84.8046
 21
-270.67
  0
LINE
  8
0
 10
-84.8046
 20
-270.67
 11
-85.0585
 21
-271.1
  0
LINE
  8
0
 10
-85.0585
 20
-271.1
 11
-85.3301
 21
-271.519
  0
LINE
  8
0
 10
-85.3301
 20
-271.519
 11
-85.6188
 21
-271.926
  0
LINE
  8
0
 10
-85.6188
 20
-271.926
 11
-85.9242
 21
-272.321
  0
LINE
  8
0
 10
-85.9242
 20
-272.321
 11
-86.2619
 21
-272.721
  0
LINE
  8
0
 10
-86.2619
 20
-272.721
 11
-86.5831
 21
-273.071
  0
LINE
  8
0
 10
-86.5831
 20
-273.071
 11
-86.9353
 21
-273.425
  0
LINE
  8
0
 10
-86.9353
 20
-273.425
 11
-87.3019
 21
-273.764
  0
LINE
  8
0
 10
-87.3019
 20
-273.764
 11
-87.6824
 21
-274.087
  0
LINE
  8
0
 10
-87.6824
 20
-274.087
 11
-88.0759
 21
-274.395
  0
LINE
  8
0
 10
-88.0759
 20
-274.395
 11
-88.4819
 21
-274.685
  0
LINE
  8
0
 10
-88.4819
 20
-274.685
 11
-88.8996
 21
-274.959
  0
LINE
  8
0
 10
-88.8996
 20
-274.959
 11
-89.3284
 21
-275.215
  0
LINE
  8
0
 10
-89.3284
 20
-275.215
 11
-89.7674
 21
-275.452
  0
LINE
  8
0
 10
-89.7674
 20
-275.452
 11
-90.2159
 21
-275.672
  0
LINE
  8
0
 10
-90.2159
 20
-275.672
 11
-90.6732
 21
-275.872
  0
LINE
  8
0
 10
-90.6732
 20
-275.872
 11
-91.1384
 21
-276.054
  0
LINE
  8
0
 10
-91.1384
 20
-276.054
 11
-91.6108
 21
-276.215
  0
LINE
  8
0
 10
-91.6108
 20
-276.215
 11
-92.0894
 21
-276.357
  0
LINE
  8
0
 10
-92.0894
 20
-276.357
 11
-92.5736
 21
-276.479
  0
LINE
  8
0
 10
-92.5736
 20
-276.479
 11
-93.0624
 21
-276.581
  0
LINE
  8
0
 10
-93.0624
 20
-276.581
 11
-93.5551
 21
-276.662
  0
LINE
  8
0
 10
-93.5551
 20
-276.662
 11
-94.0506
 21
-276.723
  0
LINE
  8
0
 10
-94.0506
 20
-276.723
 11
-94.5483
 21
-276.763
  0
LINE
  8
0
 10
-94.5483
 20
-276.763
 11
-95.0472
 21
-276.782
  0
LINE
  8
0
 10
-95.0472
 20
-276.782
 11
-95.5465
 21
-276.781
  0
LINE
  8
0
 10
-61.8434
 20
-261.693
 11
-62.3103
 21
-261.555
  0
LINE
  8
0
 10
-62.3103
 20
-261.555
 11
-62.7198
 21
-261.292
  0
LINE
  8
0
 10
-62.7198
 20
-261.292
 11
-63.0385
 21
-260.924
  0
LINE
  8
0
 10
-63.0385
 20
-260.924
 11
-63.2407
 21
-260.482
  0
LINE
  8
0
 10
-63.2407
 20
-260.482
 11
-63.31
 21
-260
  0
LINE
  8
0
 10
-63.31
 20
-260
 11
-63.2407
 21
-259.518
  0
LINE
  8
0
 10
-63.2407
 20
-259.518
 11
-63.0385
 21
-259.076
  0
LINE
  8
0
 10
-63.0385
 20
-259.076
 11
-62.7198
 21
-258.708
  0
LINE
  8
0
 10
-62.7198
 20
-258.708
 11
-62.3103
 21
-258.445
  0
LINE
  8
0
 10
-62.3103
 20
-258.445
 11
-61.8434
 21
-258.307
  0
LINE
  8
0
 10
-61.8434
 20
-258.307
 11
-61.3566
 21
-258.307
  0
LINE
  8
0
 10
-61.3566
 20
-258.307
 11
-60.8896
 21
-258.445
  0
LINE
  8
0
 10
-60.8896
 20
-258.445
 11
-60.4802
 21
-258.708
  0
LINE
  8
0
 10
-60.4802
 20
-258.708
 11
-60.1615
 21
-259.076
  0
LINE
  8
0
 10
-60.1615
 20
-259.076
 11
-59.9593
 21
-259.518
  0
LINE
  8
0
 10
-59.9593
 20
-259.518
 11
-59.89
 21
-260
  0
LINE
  8
0
 10
-59.89
 20
-260
 11
-59.9593
 21
-260.482
  0
LINE
  8
0
 10
-59.9593
 20
-260.482
 11
-60.1615
 21
-260.924
  0
LINE
  8
0
 10
-60.1615
 20
-260.924
 11
-60.4802
 21
-261.292
  0
LINE
  8
0
 10
-60.4802
 20
-261.292
 11
-60.8896
 21
-261.555
  0
LINE
  8
0
 10
-60.8896
 20
-261.555
 11
-61.3566
 21
-261.693
  0
LINE
  8
0
 10
-61.3566
 20
-261.693
 11
-61.8434
 21
-261.693
  0
LINE
  8
0
 10
-118.372
 20
-262.528
 11
-118.851
 21
-262.426
  0
LINE
  8
0
 10
-118.851
 20
-262.426
 11
-119.286
 21
-262.199
  0
LINE
  8
0
 10
-119.286
 20
-262.199
 11
-119.643
 21
-261.863
  0
LINE
  8
0
 10
-119.643
 20
-261.863
 11
-119.896
 21
-261.443
  0
LINE
  8
0
 10
-119.896
 20
-261.443
 11
-120.026
 21
-260.971
  0
LINE
  8
0
 10
-120.026
 20
-260.971
 11
-120.025
 21
-260.48
  0
LINE
  8
0
 10
-120.025
 20
-260.48
 11
-119.89
 21
-260.009
  0
LINE
  8
0
 10
-119.89
 20
-260.009
 11
-119.634
 21
-259.591
  0
LINE
  8
0
 10
-119.634
 20
-259.591
 11
-119.275
 21
-259.258
  0
LINE
  8
0
 10
-119.275
 20
-259.258
 11
-118.839
 21
-259.034
  0
LINE
  8
0
 10
-118.839
 20
-259.034
 11
-118.358
 21
-258.936
  0
LINE
  8
0
 10
-118.358
 20
-258.936
 11
-117.869
 21
-258.971
  0
LINE
  8
0
 10
-117.869
 20
-258.971
 11
-115.084
 21
-259.463
  0
LINE
  8
0
 10
-115.084
 20
-259.463
 11
-114.623
 21
-259.628
  0
LINE
  8
0
 10
-114.623
 20
-259.628
 11
-114.223
 21
-259.913
  0
LINE
  8
0
 10
-114.223
 20
-259.913
 11
-113.915
 21
-260.294
  0
LINE
  8
0
 10
-113.915
 20
-260.294
 11
-113.722
 21
-260.744
  0
LINE
  8
0
 10
-113.722
 20
-260.744
 11
-113.657
 21
-261.23
  0
LINE
  8
0
 10
-113.657
 20
-261.23
 11
-113.725
 21
-261.716
  0
LINE
  8
0
 10
-113.725
 20
-261.716
 11
-113.922
 21
-262.165
  0
LINE
  8
0
 10
-113.922
 20
-262.165
 11
-114.233
 21
-262.544
  0
LINE
  8
0
 10
-114.233
 20
-262.544
 11
-114.635
 21
-262.825
  0
LINE
  8
0
 10
-114.635
 20
-262.825
 11
-115.097
 21
-262.987
  0
LINE
  8
0
 10
-115.097
 20
-262.987
 11
-115.586
 21
-263.019
  0
LINE
  8
0
 10
-115.586
 20
-263.019
 11
-118.372
 21
-262.528
  0
LINE
  8
0
 10
-72.6551
 20
-270.597
 11
-75.4406
 21
-270.106
  0
LINE
  8
0
 10
-75.4406
 20
-270.106
 11
-75.9018
 21
-269.94
  0
LINE
  8
0
 10
-75.9018
 20
-269.94
 11
-76.3012
 21
-269.656
  0
LINE
  8
0
 10
-76.3012
 20
-269.656
 11
-76.6091
 21
-269.275
  0
LINE
  8
0
 10
-76.6091
 20
-269.275
 11
-76.8027
 21
-268.824
  0
LINE
  8
0
 10
-76.8027
 20
-268.824
 11
-76.8676
 21
-268.338
  0
LINE
  8
0
 10
-76.8676
 20
-268.338
 11
-76.799
 21
-267.853
  0
LINE
  8
0
 10
-76.799
 20
-267.853
 11
-76.602
 21
-267.404
  0
LINE
  8
0
 10
-76.602
 20
-267.404
 11
-76.2912
 21
-267.025
  0
LINE
  8
0
 10
-76.2912
 20
-267.025
 11
-75.8897
 21
-266.744
  0
LINE
  8
0
 10
-75.8897
 20
-266.744
 11
-75.4272
 21
-266.581
  0
LINE
  8
0
 10
-75.4272
 20
-266.581
 11
-74.938
 21
-266.55
  0
LINE
  8
0
 10
-74.938
 20
-266.55
 11
-72.1525
 21
-267.041
  0
LINE
  8
0
 10
-72.1525
 20
-267.041
 11
-71.673
 21
-267.143
  0
LINE
  8
0
 10
-71.673
 20
-267.143
 11
-71.2386
 21
-267.37
  0
LINE
  8
0
 10
-71.2386
 20
-267.37
 11
-70.8816
 21
-267.706
  0
LINE
  8
0
 10
-70.8816
 20
-267.706
 11
-70.6285
 21
-268.126
  0
LINE
  8
0
 10
-70.6285
 20
-268.126
 11
-70.498
 21
-268.598
  0
LINE
  8
0
 10
-70.498
 20
-268.598
 11
-70.4999
 21
-269.088
  0
LINE
  8
0
 10
-70.4999
 20
-269.088
 11
-70.6339
 21
-269.56
  0
LINE
  8
0
 10
-70.6339
 20
-269.56
 11
-70.8902
 21
-269.978
  0
LINE
  8
0
 10
-70.8902
 20
-269.978
 11
-71.2498
 21
-270.311
  0
LINE
  8
0
 10
-71.2498
 20
-270.311
 11
-71.6858
 21
-270.535
  0
LINE
  8
0
 10
-71.6858
 20
-270.535
 11
-72.1662
 21
-270.633
  0
LINE
  8
0
 10
-72.1662
 20
-270.633
 11
-72.6551
 21
-270.597
  0
LINE
  8
0
 10
-61.8434
 20
-274.193
 11
-62.3103
 21
-274.055
  0
LINE
  8
0
 10
-62.3103
 20
-274.055
 11
-62.7198
 21
-273.792
  0
LINE
  8
0
 10
-62.7198
 20
-273.792
 11
-63.0385
 21
-273.424
  0
LINE
  8
0
 10
-63.0385
 20
-273.424
 11
-63.2407
 21
-272.982
  0
LINE
  8
0
 10
-63.2407
 20
-272.982
 11
-63.31
 21
-272.5
  0
LINE
  8
0
 10
-63.31
 20
-272.5
 11
-63.2407
 21
-272.018
  0
LINE
  8
0
 10
-63.2407
 20
-272.018
 11
-63.0385
 21
-271.576
  0
LINE
  8
0
 10
-63.0385
 20
-271.576
 11
-62.7198
 21
-271.208
  0
LINE
  8
0
 10
-62.7198
 20
-271.208
 11
-62.3103
 21
-270.945
  0
LINE
  8
0
 10
-62.3103
 20
-270.945
 11
-61.8434
 21
-270.807
  0
LINE
  8
0
 10
-61.8434
 20
-270.807
 11
-61.3566
 21
-270.807
  0
LINE
  8
0
 10
-61.3566
 20
-270.807
 11
-60.8896
 21
-270.945
  0
LINE
  8
0
 10
-60.8896
 20
-270.945
 11
-60.4802
 21
-271.208
  0
LINE
  8
0
 10
-60.4802
 20
-271.208
 11
-60.1615
 21
-271.576
  0
LINE
  8
0
 10
-60.1615
 20
-271.576
 11
-59.9593
 21
-272.018
  0
LINE
  8
0
 10
-59.9593
 20
-272.018
 11
-59.89
 21
-272.5
  0
LINE
  8
0
 10
-59.89
 20
-272.5
 11
-59.9593
 21
-272.982
  0
LINE
  8
0
 10
-59.9593
 20
-272.982
 11
-60.1615
 21
-273.424
  0
LINE
  8
0
 10
-60.1615
 20
-273.424
 11
-60.4802
 21
-273.792
  0
LINE
  8
0
 10
-60.4802
 20
-273.792
 11
-60.8896
 21
-274.055
  0
LINE
  8
0
 10
-60.8896
 20
-274.055
 11
-61.3566
 21
-274.193
  0
LINE
  8
0
 10
-61.3566
 20
-274.193
 11
-61.8434
 21
-274.193
  0
LINE
  8
0
 10
-99.0759
 20
-289.549
 11
-99.5661
 21
-289.547
  0
LINE
  8
0
 10
-99.5661
 20
-289.547
 11
-100.038
 21
-289.413
  0
LINE
  8
0
 10
-100.038
 20
-289.413
 11
-100.455
 21
-289.156
  0
LINE
  8
0
 10
-100.455
 20
-289.156
 11
-100.79
 21
-288.794
  0
LINE
  8
0
 10
-100.79
 20
-288.794
 11
-101.013
 21
-288.361
  0
LINE
  8
0
 10
-101.013
 20
-288.361
 11
-101.11
 21
-287.88
  0
LINE
  8
0
 10
-101.11
 20
-287.88
 11
-101.075
 21
-287.391
  0
LINE
  8
0
 10
-101.075
 20
-287.391
 11
-100.584
 21
-284.606
  0
LINE
  8
0
 10
-100.584
 20
-284.606
 11
-100.418
 21
-284.145
  0
LINE
  8
0
 10
-100.418
 20
-284.145
 11
-100.134
 21
-283.745
  0
LINE
  8
0
 10
-100.134
 20
-283.745
 11
-99.7525
 21
-283.437
  0
LINE
  8
0
 10
-99.7525
 20
-283.437
 11
-99.3021
 21
-283.244
  0
LINE
  8
0
 10
-99.3021
 20
-283.244
 11
-98.8162
 21
-283.179
  0
LINE
  8
0
 10
-98.8162
 20
-283.179
 11
-98.3308
 21
-283.248
  0
LINE
  8
0
 10
-98.3308
 20
-283.248
 11
-97.882
 21
-283.445
  0
LINE
  8
0
 10
-97.882
 20
-283.445
 11
-97.5029
 21
-283.755
  0
LINE
  8
0
 10
-97.5029
 20
-283.755
 11
-97.2217
 21
-284.157
  0
LINE
  8
0
 10
-97.2217
 20
-284.157
 11
-97.0593
 21
-284.619
  0
LINE
  8
0
 10
-97.0593
 20
-284.619
 11
-97.028
 21
-285.11
  0
LINE
  8
0
 10
-97.028
 20
-285.11
 11
-97.5189
 21
-287.894
  0
LINE
  8
0
 10
-97.5189
 20
-287.894
 11
-97.6204
 21
-288.374
  0
LINE
  8
0
 10
-97.6204
 20
-288.374
 11
-97.8476
 21
-288.808
  0
LINE
  8
0
 10
-97.8476
 20
-288.808
 11
-98.1835
 21
-289.165
  0
LINE
  8
0
 10
-98.1835
 20
-289.165
 11
-98.6033
 21
-289.418
  0
LINE
  8
0
 10
-98.6033
 20
-289.418
 11
-99.0759
 21
-289.549
  0
ENDSEC
  0
SECTION
  2
OBJECTS
  0
DICTIONARY
  0
ENDSEC
  0
EOF
