  0
SECTION
  2
BLOCKS
  0
ENDSEC
  0
SECTION
  2
ENTITIES
  0
LINE
  8
0
 10
102.747
 20
-29.972
 11
103.243
 21
-29.9224
  0
LINE
  8
0
 10
103.243
 20
-29.9224
 11
103.736
 21
-29.8481
  0
LINE
  8
0
 10
103.736
 20
-29.8481
 11
104.225
 21
-29.7493
  0
LINE
  8
0
 10
104.225
 20
-29.7493
 11
104.708
 21
-29.6262
  0
LINE
  8
0
 10
104.708
 20
-29.6262
 11
105.185
 21
-29.4793
  0
LINE
  8
0
 10
105.185
 20
-29.4793
 11
105.653
 21
-29.3087
  0
LINE
  8
0
 10
105.653
 20
-29.3087
 11
106.113
 21
-29.1151
  0
LINE
  8
0
 10
106.113
 20
-29.1151
 11
106.562
 21
-28.8987
  0
LINE
  8
0
 10
106.562
 20
-28.8987
 11
107
 21
-28.6602
  0
LINE
  8
0
 10
107
 20
-28.6602
 11
107.425
 21
-28.4003
  0
LINE
  8
0
 10
107.425
 20
-28.4003
 11
107.837
 21
-28.1194
  0
LINE
  8
0
 10
107.837
 20
-28.1194
 11
108.235
 21
-27.8183
  0
LINE
  8
0
 10
108.235
 20
-27.8183
 11
108.617
 21
-27.4978
  0
LINE
  8
0
 10
108.617
 20
-27.4978
 11
108.982
 21
-27.1587
  0
LINE
  8
0
 10
108.982
 20
-27.1587
 11
109.331
 21
-26.8017
  0
LINE
  8
0
 10
109.331
 20
-26.8017
 11
109.66
 21
-26.4279
  0
LINE
  8
0
 10
109.66
 20
-26.4279
 11
109.971
 21
-26.038
  0
LINE
  8
0
 10
109.971
 20
-26.038
 11
110.262
 21
-25.6332
  0
LINE
  8
0
 10
110.262
 20
-25.6332
 11
110.533
 21
-25.2143
  0
LINE
  8
0
 10
110.533
 20
-25.2143
 11
110.782
 21
-24.7825
  0
LINE
  8
0
 10
110.782
 20
-24.7825
 11
111.01
 21
-24.3388
  0
LINE
  8
0
 10
111.01
 20
-24.3388
 11
111.215
 21
-23.8843
  0
LINE
  8
0
 10
111.215
 20
-23.8843
 11
111.397
 21
-23.4202
  0
LINE
  8
0
 10
111.397
 20
-23.4202
 11
111.556
 21
-22.9475
  0
LINE
  8
0
 10
111.556
 20
-22.9475
 11
111.691
 21
-22.4676
  0
LINE
  8
0
 10
111.691
 20
-22.4676
 11
111.802
 21
-21.9815
  0
LINE
  8
0
 10
111.802
 20
-21.9815
 11
111.888
 21
-21.4904
  0
LINE
  8
0
 10
111.888
 20
-21.4904
 11
111.95
 21
-20.9957
  0
LINE
  8
0
 10
111.95
 20
-20.9957
 11
111.988
 21
-20.4985
  0
LINE
  8
0
 10
111.988
 20
-20.4985
 11
112
 21
-20
  0
LINE
  8
0
 10
112
 20
-20
 11
112
 21
20
  0
LINE
  8
0
 10
112
 20
20
 11
111.988
 21
20.4985
  0
LINE
  8
0
 10
111.988
 20
20.4985
 11
111.95
 21
20.9957
  0
LINE
  8
0
 10
111.95
 20
20.9957
 11
111.888
 21
21.4904
  0
LINE
  8
0
 10
111.888
 20
21.4904
 11
111.802
 21
21.9815
  0
LINE
  8
0
 10
111.802
 20
21.9815
 11
111.691
 21
22.4676
  0
LINE
  8
0
 10
111.691
 20
22.4676
 11
111.556
 21
22.9475
  0
LINE
  8
0
 10
111.556
 20
22.9475
 11
111.397
 21
23.4202
  0
LINE
  8
0
 10
111.397
 20
23.4202
 11
111.215
 21
23.8843
  0
LINE
  8
0
 10
111.215
 20
23.8843
 11
111.01
 21
24.3388
  0
LINE
  8
0
 10
111.01
 20
24.3388
 11
110.782
 21
24.7825
  0
LINE
  8
0
 10
110.782
 20
24.7825
 11
110.533
 21
25.2143
  0
LINE
  8
0
 10
110.533
 20
25.2143
 11
110.262
 21
25.6332
  0
LINE
  8
0
 10
110.262
 20
25.6332
 11
109.971
 21
26.038
  0
LINE
  8
0
 10
109.971
 20
26.038
 11
109.66
 21
26.4279
  0
LINE
  8
0
 10
109.66
 20
26.4279
 11
109.331
 21
26.8017
  0
LINE
  8
0
 10
109.331
 20
26.8017
 11
108.982
 21
27.1587
  0
LINE
  8
0
 10
108.982
 20
27.1587
 11
108.617
 21
27.4978
  0
LINE
  8
0
 10
108.617
 20
27.4978
 11
108.235
 21
27.8183
  0
LINE
  8
0
 10
108.235
 20
27.8183
 11
107.837
 21
28.1194
  0
LINE
  8
0
 10
107.837
 20
28.1194
 11
107.425
 21
28.4003
  0
LINE
  8
0
 10
107.425
 20
28.4003
 11
107
 21
28.6602
  0
LINE
  8
0
 10
107
 20
28.6602
 11
106.562
 21
28.8987
  0
LINE
  8
0
 10
106.562
 20
28.8987
 11
106.113
 21
29.1151
  0
LINE
  8
0
 10
106.113
 20
29.1151
 11
105.653
 21
29.3087
  0
LINE
  8
0
 10
105.653
 20
29.3087
 11
105.185
 21
29.4793
  0
LINE
  8
0
 10
105.185
 20
29.4793
 11
104.708
 21
29.6262
  0
LINE
  8
0
 10
104.708
 20
29.6262
 11
104.225
 21
29.7493
  0
LINE
  8
0
 10
104.225
 20
29.7493
 11
103.736
 21
29.8481
  0
LINE
  8
0
 10
103.736
 20
29.8481
 11
103.243
 21
29.9224
  0
LINE
  8
0
 10
103.243
 20
29.9224
 11
102.747
 21
29.972
  0
LINE
  8
0
 10
102.747
 20
29.972
 11
102.249
 21
29.9969
  0
LINE
  8
0
 10
102.249
 20
29.9969
 11
1.75069
 21
29.9969
  0
LINE
  8
0
 10
1.75069
 20
29.9969
 11
1.25269
 21
29.972
  0
LINE
  8
0
 10
1.25269
 20
29.972
 11
0.756561
 21
29.9224
  0
LINE
  8
0
 10
0.756561
 20
29.9224
 11
0.263504
 21
29.8481
  0
LINE
  8
0
 10
0.263504
 20
29.8481
 11
-0.225204
 21
29.7493
  0
LINE
  8
0
 10
-0.225204
 20
29.7493
 11
-0.708405
 21
29.6262
  0
LINE
  8
0
 10
-0.708405
 20
29.6262
 11
-1.18486
 21
29.4793
  0
LINE
  8
0
 10
-1.18486
 20
29.4793
 11
-1.6534
 21
29.3087
  0
LINE
  8
0
 10
-1.6534
 20
29.3087
 11
-2.11287
 21
29.1151
  0
LINE
  8
0
 10
-2.11287
 20
29.1151
 11
-2.5621
 21
28.8987
  0
LINE
  8
0
 10
-2.5621
 20
28.8987
 11
-3
 21
28.6602
  0
LINE
  8
0
 10
-3
 20
28.6602
 11
-3.42546
 21
28.4003
  0
LINE
  8
0
 10
-3.42546
 20
28.4003
 11
-3.83743
 21
28.1194
  0
LINE
  8
0
 10
-3.83743
 20
28.1194
 11
-4.23489
 21
27.8183
  0
LINE
  8
0
 10
-4.23489
 20
27.8183
 11
-4.61685
 21
27.4978
  0
LINE
  8
0
 10
-4.61685
 20
27.4978
 11
-4.98236
 21
27.1587
  0
LINE
  8
0
 10
-4.98236
 20
27.1587
 11
-5.33051
 21
26.8017
  0
LINE
  8
0
 10
-5.33051
 20
26.8017
 11
-5.66043
 21
26.4279
  0
LINE
  8
0
 10
-5.66043
 20
26.4279
 11
-5.97131
 21
26.038
  0
LINE
  8
0
 10
-5.97131
 20
26.038
 11
-6.26237
 21
25.6332
  0
LINE
  8
0
 10
-6.26237
 20
25.6332
 11
-6.5329
 21
25.2143
  0
LINE
  8
0
 10
-6.5329
 20
25.2143
 11
-6.78221
 21
24.7825
  0
LINE
  8
0
 10
-6.78221
 20
24.7825
 11
-7.00967
 21
24.3388
  0
LINE
  8
0
 10
-7.00967
 20
24.3388
 11
-7.21475
 21
23.8843
  0
LINE
  8
0
 10
-7.21475
 20
23.8843
 11
-7.39691
 21
23.4202
  0
LINE
  8
0
 10
-7.39691
 20
23.4202
 11
-7.55573
 21
22.9475
  0
LINE
  8
0
 10
-7.55573
 20
22.9475
 11
-7.69077
 21
22.4676
  0
LINE
  8
0
 10
-7.69077
 20
22.4676
 11
-7.80171
 21
21.9815
  0
LINE
  8
0
 10
-7.80171
 20
21.9815
 11
-7.88831
 21
21.4904
  0
LINE
  8
0
 10
-7.88831
 20
21.4904
 11
-7.9503
 21
20.9957
  0
LINE
  8
0
 10
-7.9503
 20
20.9957
 11
-7.98756
 21
20.4985
  0
LINE
  8
0
 10
-7.98756
 20
20.4985
 11
-8
 21
20
  0
LINE
  8
0
 10
-8
 20
20
 11
-8
 21
-20
  0
LINE
  8
0
 10
-8
 20
-20
 11
-7.98756
 21
-20.4985
  0
LINE
  8
0
 10
-7.98756
 20
-20.4985
 11
-7.9503
 21
-20.9957
  0
LINE
  8
0
 10
-7.9503
 20
-20.9957
 11
-7.88831
 21
-21.4904
  0
LINE
  8
0
 10
-7.88831
 20
-21.4904
 11
-7.80171
 21
-21.9815
  0
LINE
  8
0
 10
-7.80171
 20
-21.9815
 11
-7.69077
 21
-22.4676
  0
LINE
  8
0
 10
-7.69077
 20
-22.4676
 11
-7.55573
 21
-22.9475
  0
LINE
  8
0
 10
-7.55573
 20
-22.9475
 11
-7.39691
 21
-23.4202
  0
LINE
  8
0
 10
-7.39691
 20
-23.4202
 11
-7.21475
 21
-23.8843
  0
LINE
  8
0
 10
-7.21475
 20
-23.8843
 11
-7.00967
 21
-24.3388
  0
LINE
  8
0
 10
-7.00967
 20
-24.3388
 11
-6.78221
 21
-24.7825
  0
LINE
  8
0
 10
-6.78221
 20
-24.7825
 11
-6.5329
 21
-25.2143
  0
LINE
  8
0
 10
-6.5329
 20
-25.2143
 11
-6.26237
 21
-25.6332
  0
LINE
  8
0
 10
-6.26237
 20
-25.6332
 11
-5.97131
 21
-26.038
  0
LINE
  8
0
 10
-5.97131
 20
-26.038
 11
-5.66043
 21
-26.4279
  0
LINE
  8
0
 10
-5.66043
 20
-26.4279
 11
-5.33051
 21
-26.8017
  0
LINE
  8
0
 10
-5.33051
 20
-26.8017
 11
-4.98236
 21
-27.1587
  0
LINE
  8
0
 10
-4.98236
 20
-27.1587
 11
-4.61685
 21
-27.4978
  0
LINE
  8
0
 10
-4.61685
 20
-27.4978
 11
-4.23489
 21
-27.8183
  0
LINE
  8
0
 10
-4.23489
 20
-27.8183
 11
-3.83743
 21
-28.1194
  0
LINE
  8
0
 10
-3.83743
 20
-28.1194
 11
-3.42546
 21
-28.4003
  0
LINE
  8
0
 10
-3.42546
 20
-28.4003
 11
-3
 21
-28.6602
  0
LINE
  8
0
 10
-3
 20
-28.6602
 11
-2.5621
 21
-28.8987
  0
LINE
  8
0
 10
-2.5621
 20
-28.8987
 11
-2.11287
 21
-29.1151
  0
LINE
  8
0
 10
-2.11287
 20
-29.1151
 11
-1.6534
 21
-29.3087
  0
LINE
  8
0
 10
-1.6534
 20
-29.3087
 11
-1.18486
 21
-29.4793
  0
LINE
  8
0
 10
-1.18486
 20
-29.4793
 11
-0.708405
 21
-29.6262
  0
LINE
  8
0
 10
-0.708405
 20
-29.6262
 11
-0.225204
 21
-29.7493
  0
LINE
  8
0
 10
-0.225204
 20
-29.7493
 11
0.263504
 21
-29.8481
  0
LINE
  8
0
 10
0.263504
 20
-29.8481
 11
0.756561
 21
-29.9224
  0
LINE
  8
0
 10
0.756561
 20
-29.9224
 11
1.25269
 21
-29.972
  0
LINE
  8
0
 10
1.25269
 20
-29.972
 11
1.75069
 21
-29.9969
  0
LINE
  8
0
 10
1.75069
 20
-29.9969
 11
102.249
 21
-29.9969
  0
LINE
  8
0
 10
102.249
 20
-29.9969
 11
102.747
 21
-29.972
  0
LINE
  8
0
 10
41.6335
 20
17.4512
 11
41.1578
 21
17.5666
  0
LINE
  8
0
 10
41.1578
 20
17.5666
 11
40.7125
 21
17.77
  0
LINE
  8
0
 10
40.7125
 20
17.77
 11
40.3137
 21
18.0539
  0
LINE
  8
0
 10
40.3137
 20
18.0539
 11
39.9759
 21
18.4082
  0
LINE
  8
0
 10
39.9759
 20
18.4082
 11
39.7112
 21
18.8201
  0
LINE
  8
0
 10
39.7112
 20
18.8201
 11
39.5293
 21
19.2745
  0
LINE
  8
0
 10
39.5293
 20
19.2745
 11
39.4367
 21
19.7552
  0
LINE
  8
0
 10
39.4367
 20
19.7552
 11
39.4367
 21
20.2448
  0
LINE
  8
0
 10
39.4367
 20
20.2448
 11
39.5293
 21
20.7254
  0
LINE
  8
0
 10
39.5293
 20
20.7254
 11
39.7112
 21
21.1799
  0
LINE
  8
0
 10
39.7112
 20
21.1799
 11
39.9759
 21
21.5918
  0
LINE
  8
0
 10
39.9759
 20
21.5918
 11
40.3137
 21
21.946
  0
LINE
  8
0
 10
40.3137
 20
21.946
 11
40.7125
 21
22.23
  0
LINE
  8
0
 10
40.7125
 20
22.23
 11
41.1578
 21
22.4334
  0
LINE
  8
0
 10
41.1578
 20
22.4334
 11
41.6335
 21
22.5488
  0
LINE
  8
0
 10
41.6335
 20
22.5488
 11
42.1225
 21
22.5721
  0
LINE
  8
0
 10
42.1225
 20
22.5721
 11
42.6071
 21
22.5024
  0
LINE
  8
0
 10
42.6071
 20
22.5024
 11
43.0697
 21
22.3423
  0
LINE
  8
0
 10
43.0697
 20
22.3423
 11
43.4936
 21
22.0975
  0
LINE
  8
0
 10
43.4936
 20
22.0975
 11
43.8636
 21
21.7769
  0
LINE
  8
0
 10
43.8636
 20
21.7769
 11
44.1662
 21
21.3922
  0
LINE
  8
0
 10
44.1662
 20
21.3922
 11
44.3905
 21
20.957
  0
LINE
  8
0
 10
44.3905
 20
20.957
 11
44.5285
 21
20.4873
  0
LINE
  8
0
 10
44.5285
 20
20.4873
 11
44.575
 21
20
  0
LINE
  8
0
 10
44.575
 20
20
 11
44.5285
 21
19.5127
  0
LINE
  8
0
 10
44.5285
 20
19.5127
 11
44.3905
 21
19.043
  0
LINE
  8
0
 10
44.3905
 20
19.043
 11
44.1662
 21
18.6078
  0
LINE
  8
0
 10
44.1662
 20
18.6078
 11
43.8636
 21
18.223
  0
LINE
  8
0
 10
43.8636
 20
18.223
 11
43.4936
 21
17.9025
  0
LINE
  8
0
 10
43.4936
 20
17.9025
 11
43.0697
 21
17.6577
  0
LINE
  8
0
 10
43.0697
 20
17.6577
 11
42.6071
 21
17.4976
  0
LINE
  8
0
 10
42.6071
 20
17.4976
 11
42.1225
 21
17.4279
  0
LINE
  8
0
 10
42.1225
 20
17.4279
 11
41.6335
 21
17.4512
  0
LINE
  8
0
 10
101.634
 20
17.4512
 11
101.158
 21
17.5666
  0
LINE
  8
0
 10
101.158
 20
17.5666
 11
100.712
 21
17.77
  0
LINE
  8
0
 10
100.712
 20
17.77
 11
100.314
 21
18.0539
  0
LINE
  8
0
 10
100.314
 20
18.0539
 11
99.9759
 21
18.4082
  0
LINE
  8
0
 10
99.9759
 20
18.4082
 11
99.7112
 21
18.8201
  0
LINE
  8
0
 10
99.7112
 20
18.8201
 11
99.5293
 21
19.2745
  0
LINE
  8
0
 10
99.5293
 20
19.2745
 11
99.4367
 21
19.7552
  0
LINE
  8
0
 10
99.4367
 20
19.7552
 11
99.4367
 21
20.2448
  0
LINE
  8
0
 10
99.4367
 20
20.2448
 11
99.5293
 21
20.7254
  0
LINE
  8
0
 10
99.5293
 20
20.7254
 11
99.7112
 21
21.1799
  0
LINE
  8
0
 10
99.7112
 20
21.1799
 11
99.9759
 21
21.5918
  0
LINE
  8
0
 10
99.9759
 20
21.5918
 11
100.314
 21
21.946
  0
LINE
  8
0
 10
100.314
 20
21.946
 11
100.712
 21
22.23
  0
LINE
  8
0
 10
100.712
 20
22.23
 11
101.158
 21
22.4334
  0
LINE
  8
0
 10
101.158
 20
22.4334
 11
101.634
 21
22.5488
  0
LINE
  8
0
 10
101.634
 20
22.5488
 11
102.123
 21
22.5721
  0
LINE
  8
0
 10
102.123
 20
22.5721
 11
102.607
 21
22.5024
  0
LINE
  8
0
 10
102.607
 20
22.5024
 11
103.07
 21
22.3423
  0
LINE
  8
0
 10
103.07
 20
22.3423
 11
103.494
 21
22.0975
  0
LINE
  8
0
 10
103.494
 20
22.0975
 11
103.864
 21
21.7769
  0
LINE
  8
0
 10
103.864
 20
21.7769
 11
104.166
 21
21.3922
  0
LINE
  8
0
 10
104.166
 20
21.3922
 11
104.391
 21
20.957
  0
LINE
  8
0
 10
104.391
 20
20.957
 11
104.528
 21
20.4873
  0
LINE
  8
0
 10
104.528
 20
20.4873
 11
104.575
 21
20
  0
LINE
  8
0
 10
104.575
 20
20
 11
104.528
 21
19.5127
  0
LINE
  8
0
 10
104.528
 20
19.5127
 11
104.391
 21
19.043
  0
LINE
  8
0
 10
104.391
 20
19.043
 11
104.166
 21
18.6078
  0
LINE
  8
0
 10
104.166
 20
18.6078
 11
103.864
 21
18.223
  0
LINE
  8
0
 10
103.864
 20
18.223
 11
103.494
 21
17.9025
  0
LINE
  8
0
 10
103.494
 20
17.9025
 11
103.07
 21
17.6577
  0
LINE
  8
0
 10
103.07
 20
17.6577
 11
102.607
 21
17.4976
  0
LINE
  8
0
 10
102.607
 20
17.4976
 11
102.123
 21
17.4279
  0
LINE
  8
0
 10
102.123
 20
17.4279
 11
101.634
 21
17.4512
  0
LINE
  8
0
 10
21.6335
 20
17.4512
 11
21.1578
 21
17.5666
  0
LINE
  8
0
 10
21.1578
 20
17.5666
 11
20.7125
 21
17.77
  0
LINE
  8
0
 10
20.7125
 20
17.77
 11
20.3137
 21
18.0539
  0
LINE
  8
0
 10
20.3137
 20
18.0539
 11
19.9759
 21
18.4082
  0
LINE
  8
0
 10
19.9759
 20
18.4082
 11
19.7112
 21
18.8201
  0
LINE
  8
0
 10
19.7112
 20
18.8201
 11
19.5293
 21
19.2745
  0
LINE
  8
0
 10
19.5293
 20
19.2745
 11
19.4367
 21
19.7552
  0
LINE
  8
0
 10
19.4367
 20
19.7552
 11
19.4367
 21
20.2448
  0
LINE
  8
0
 10
19.4367
 20
20.2448
 11
19.5293
 21
20.7254
  0
LINE
  8
0
 10
19.5293
 20
20.7254
 11
19.7112
 21
21.1799
  0
LINE
  8
0
 10
19.7112
 20
21.1799
 11
19.9759
 21
21.5918
  0
LINE
  8
0
 10
19.9759
 20
21.5918
 11
20.3137
 21
21.946
  0
LINE
  8
0
 10
20.3137
 20
21.946
 11
20.7125
 21
22.23
  0
LINE
  8
0
 10
20.7125
 20
22.23
 11
21.1578
 21
22.4334
  0
LINE
  8
0
 10
21.1578
 20
22.4334
 11
21.6335
 21
22.5488
  0
LINE
  8
0
 10
21.6335
 20
22.5488
 11
22.1225
 21
22.5721
  0
LINE
  8
0
 10
22.1225
 20
22.5721
 11
22.6071
 21
22.5024
  0
LINE
  8
0
 10
22.6071
 20
22.5024
 11
23.0697
 21
22.3423
  0
LINE
  8
0
 10
23.0697
 20
22.3423
 11
23.4936
 21
22.0975
  0
LINE
  8
0
 10
23.4936
 20
22.0975
 11
23.8636
 21
21.7769
  0
LINE
  8
0
 10
23.8636
 20
21.7769
 11
24.1662
 21
21.3922
  0
LINE
  8
0
 10
24.1662
 20
21.3922
 11
24.3905
 21
20.957
  0
LINE
  8
0
 10
24.3905
 20
20.957
 11
24.5285
 21
20.4873
  0
LINE
  8
0
 10
24.5285
 20
20.4873
 11
24.575
 21
20
  0
LINE
  8
0
 10
24.575
 20
20
 11
24.5285
 21
19.5127
  0
LINE
  8
0
 10
24.5285
 20
19.5127
 11
24.3905
 21
19.043
  0
LINE
  8
0
 10
24.3905
 20
19.043
 11
24.1662
 21
18.6078
  0
LINE
  8
0
 10
24.1662
 20
18.6078
 11
23.8636
 21
18.223
  0
LINE
  8
0
 10
23.8636
 20
18.223
 11
23.4936
 21
17.9025
  0
LINE
  8
0
 10
23.4936
 20
17.9025
 11
23.0697
 21
17.6577
  0
LINE
  8
0
 10
23.0697
 20
17.6577
 11
22.6071
 21
17.4976
  0
LINE
  8
0
 10
22.6071
 20
17.4976
 11
22.1225
 21
17.4279
  0
LINE
  8
0
 10
22.1225
 20
17.4279
 11
21.6335
 21
17.4512
  0
LINE
  8
0
 10
1.63353
 20
17.4512
 11
1.15779
 21
17.5666
  0
LINE
  8
0
 10
1.15779
 20
17.5666
 11
0.712494
 21
17.77
  0
LINE
  8
0
 10
0.712494
 20
17.77
 11
0.313721
 21
18.0539
  0
LINE
  8
0
 10
0.313721
 20
18.0539
 11
-0.0240784
 21
18.4082
  0
LINE
  8
0
 10
-0.0240784
 20
18.4082
 11
-0.288742
 21
18.8201
  0
LINE
  8
0
 10
-0.288742
 20
18.8201
 11
-0.470688
 21
19.2745
  0
LINE
  8
0
 10
-0.470688
 20
19.2745
 11
-0.563339
 21
19.7552
  0
LINE
  8
0
 10
-0.563339
 20
19.7552
 11
-0.563339
 21
20.2448
  0
LINE
  8
0
 10
-0.563339
 20
20.2448
 11
-0.470688
 21
20.7254
  0
LINE
  8
0
 10
-0.470688
 20
20.7254
 11
-0.288742
 21
21.1799
  0
LINE
  8
0
 10
-0.288742
 20
21.1799
 11
-0.0240784
 21
21.5918
  0
LINE
  8
0
 10
-0.0240784
 20
21.5918
 11
0.313721
 21
21.946
  0
LINE
  8
0
 10
0.313721
 20
21.946
 11
0.712494
 21
22.23
  0
LINE
  8
0
 10
0.712494
 20
22.23
 11
1.15779
 21
22.4334
  0
LINE
  8
0
 10
1.15779
 20
22.4334
 11
1.63353
 21
22.5488
  0
LINE
  8
0
 10
1.63353
 20
22.5488
 11
2.12251
 21
22.5721
  0
LINE
  8
0
 10
2.12251
 20
22.5721
 11
2.60707
 21
22.5024
  0
LINE
  8
0
 10
2.60707
 20
22.5024
 11
3.06969
 21
22.3423
  0
LINE
  8
0
 10
3.06969
 20
22.3423
 11
3.49364
 21
22.0975
  0
LINE
  8
0
 10
3.49364
 20
22.0975
 11
3.8636
 21
21.7769
  0
LINE
  8
0
 10
3.8636
 20
21.7769
 11
4.16621
 21
21.3922
  0
LINE
  8
0
 10
4.16621
 20
21.3922
 11
4.39053
 21
20.957
  0
LINE
  8
0
 10
4.39053
 20
20.957
 11
4.52846
 21
20.4873
  0
LINE
  8
0
 10
4.52846
 20
20.4873
 11
4.575
 21
20
  0
LINE
  8
0
 10
4.575
 20
20
 11
4.52846
 21
19.5127
  0
LINE
  8
0
 10
4.52846
 20
19.5127
 11
4.39053
 21
19.043
  0
LINE
  8
0
 10
4.39053
 20
19.043
 11
4.16621
 21
18.6078
  0
LINE
  8
0
 10
4.16621
 20
18.6078
 11
3.8636
 21
18.223
  0
LINE
  8
0
 10
3.8636
 20
18.223
 11
3.49364
 21
17.9025
  0
LINE
  8
0
 10
3.49364
 20
17.9025
 11
3.06969
 21
17.6577
  0
LINE
  8
0
 10
3.06969
 20
17.6577
 11
2.60707
 21
17.4976
  0
LINE
  8
0
 10
2.60707
 20
17.4976
 11
2.12251
 21
17.4279
  0
LINE
  8
0
 10
2.12251
 20
17.4279
 11
1.63353
 21
17.4512
  0
LINE
  8
0
 10
81.6335
 20
17.4512
 11
81.1578
 21
17.5666
  0
LINE
  8
0
 10
81.1578
 20
17.5666
 11
80.7125
 21
17.77
  0
LINE
  8
0
 10
80.7125
 20
17.77
 11
80.3137
 21
18.0539
  0
LINE
  8
0
 10
80.3137
 20
18.0539
 11
79.9759
 21
18.4082
  0
LINE
  8
0
 10
79.9759
 20
18.4082
 11
79.7112
 21
18.8201
  0
LINE
  8
0
 10
79.7112
 20
18.8201
 11
79.5293
 21
19.2745
  0
LINE
  8
0
 10
79.5293
 20
19.2745
 11
79.4367
 21
19.7552
  0
LINE
  8
0
 10
79.4367
 20
19.7552
 11
79.4367
 21
20.2448
  0
LINE
  8
0
 10
79.4367
 20
20.2448
 11
79.5293
 21
20.7254
  0
LINE
  8
0
 10
79.5293
 20
20.7254
 11
79.7112
 21
21.1799
  0
LINE
  8
0
 10
79.7112
 20
21.1799
 11
79.9759
 21
21.5918
  0
LINE
  8
0
 10
79.9759
 20
21.5918
 11
80.3137
 21
21.946
  0
LINE
  8
0
 10
80.3137
 20
21.946
 11
80.7125
 21
22.23
  0
LINE
  8
0
 10
80.7125
 20
22.23
 11
81.1578
 21
22.4334
  0
LINE
  8
0
 10
81.1578
 20
22.4334
 11
81.6335
 21
22.5488
  0
LINE
  8
0
 10
81.6335
 20
22.5488
 11
82.1225
 21
22.5721
  0
LINE
  8
0
 10
82.1225
 20
22.5721
 11
82.6071
 21
22.5024
  0
LINE
  8
0
 10
82.6071
 20
22.5024
 11
83.0697
 21
22.3423
  0
LINE
  8
0
 10
83.0697
 20
22.3423
 11
83.4936
 21
22.0975
  0
LINE
  8
0
 10
83.4936
 20
22.0975
 11
83.8636
 21
21.7769
  0
LINE
  8
0
 10
83.8636
 20
21.7769
 11
84.1662
 21
21.3922
  0
LINE
  8
0
 10
84.1662
 20
21.3922
 11
84.3905
 21
20.957
  0
LINE
  8
0
 10
84.3905
 20
20.957
 11
84.5285
 21
20.4873
  0
LINE
  8
0
 10
84.5285
 20
20.4873
 11
84.575
 21
20
  0
LINE
  8
0
 10
84.575
 20
20
 11
84.5285
 21
19.5127
  0
LINE
  8
0
 10
84.5285
 20
19.5127
 11
84.3905
 21
19.043
  0
LINE
  8
0
 10
84.3905
 20
19.043
 11
84.1662
 21
18.6078
  0
LINE
  8
0
 10
84.1662
 20
18.6078
 11
83.8636
 21
18.223
  0
LINE
  8
0
 10
83.8636
 20
18.223
 11
83.4936
 21
17.9025
  0
LINE
  8
0
 10
83.4936
 20
17.9025
 11
83.0697
 21
17.6577
  0
LINE
  8
0
 10
83.0697
 20
17.6577
 11
82.6071
 21
17.4976
  0
LINE
  8
0
 10
82.6071
 20
17.4976
 11
82.1225
 21
17.4279
  0
LINE
  8
0
 10
82.1225
 20
17.4279
 11
81.6335
 21
17.4512
  0
LINE
  8
0
 10
61.6335
 20
17.4512
 11
61.1578
 21
17.5666
  0
LINE
  8
0
 10
61.1578
 20
17.5666
 11
60.7125
 21
17.77
  0
LINE
  8
0
 10
60.7125
 20
17.77
 11
60.3137
 21
18.0539
  0
LINE
  8
0
 10
60.3137
 20
18.0539
 11
59.9759
 21
18.4082
  0
LINE
  8
0
 10
59.9759
 20
18.4082
 11
59.7112
 21
18.8201
  0
LINE
  8
0
 10
59.7112
 20
18.8201
 11
59.5293
 21
19.2745
  0
LINE
  8
0
 10
59.5293
 20
19.2745
 11
59.4367
 21
19.7552
  0
LINE
  8
0
 10
59.4367
 20
19.7552
 11
59.4367
 21
20.2448
  0
LINE
  8
0
 10
59.4367
 20
20.2448
 11
59.5293
 21
20.7254
  0
LINE
  8
0
 10
59.5293
 20
20.7254
 11
59.7112
 21
21.1799
  0
LINE
  8
0
 10
59.7112
 20
21.1799
 11
59.9759
 21
21.5918
  0
LINE
  8
0
 10
59.9759
 20
21.5918
 11
60.3137
 21
21.946
  0
LINE
  8
0
 10
60.3137
 20
21.946
 11
60.7125
 21
22.23
  0
LINE
  8
0
 10
60.7125
 20
22.23
 11
61.1578
 21
22.4334
  0
LINE
  8
0
 10
61.1578
 20
22.4334
 11
61.6335
 21
22.5488
  0
LINE
  8
0
 10
61.6335
 20
22.5488
 11
62.1225
 21
22.5721
  0
LINE
  8
0
 10
62.1225
 20
22.5721
 11
62.6071
 21
22.5024
  0
LINE
  8
0
 10
62.6071
 20
22.5024
 11
63.0697
 21
22.3423
  0
LINE
  8
0
 10
63.0697
 20
22.3423
 11
63.4936
 21
22.0975
  0
LINE
  8
0
 10
63.4936
 20
22.0975
 11
63.8636
 21
21.7769
  0
LINE
  8
0
 10
63.8636
 20
21.7769
 11
64.1662
 21
21.3922
  0
LINE
  8
0
 10
64.1662
 20
21.3922
 11
64.3905
 21
20.957
  0
LINE
  8
0
 10
64.3905
 20
20.957
 11
64.5285
 21
20.4873
  0
LINE
  8
0
 10
64.5285
 20
20.4873
 11
64.575
 21
20
  0
LINE
  8
0
 10
64.575
 20
20
 11
64.5285
 21
19.5127
  0
LINE
  8
0
 10
64.5285
 20
19.5127
 11
64.3905
 21
19.043
  0
LINE
  8
0
 10
64.3905
 20
19.043
 11
64.1662
 21
18.6078
  0
LINE
  8
0
 10
64.1662
 20
18.6078
 11
63.8636
 21
18.223
  0
LINE
  8
0
 10
63.8636
 20
18.223
 11
63.4936
 21
17.9025
  0
LINE
  8
0
 10
63.4936
 20
17.9025
 11
63.0697
 21
17.6577
  0
LINE
  8
0
 10
63.0697
 20
17.6577
 11
62.6071
 21
17.4976
  0
LINE
  8
0
 10
62.6071
 20
17.4976
 11
62.1225
 21
17.4279
  0
LINE
  8
0
 10
62.1225
 20
17.4279
 11
61.6335
 21
17.4512
  0
LINE
  8
0
 10
81.6335
 20
-22.5488
 11
81.1578
 21
-22.4334
  0
LINE
  8
0
 10
81.1578
 20
-22.4334
 11
80.7125
 21
-22.23
  0
LINE
  8
0
 10
80.7125
 20
-22.23
 11
80.3137
 21
-21.946
  0
LINE
  8
0
 10
80.3137
 20
-21.946
 11
79.9759
 21
-21.5918
  0
LINE
  8
0
 10
79.9759
 20
-21.5918
 11
79.7112
 21
-21.1799
  0
LINE
  8
0
 10
79.7112
 20
-21.1799
 11
79.5293
 21
-20.7254
  0
LINE
  8
0
 10
79.5293
 20
-20.7254
 11
79.4367
 21
-20.2448
  0
LINE
  8
0
 10
79.4367
 20
-20.2448
 11
79.4367
 21
-19.7552
  0
LINE
  8
0
 10
79.4367
 20
-19.7552
 11
79.5293
 21
-19.2745
  0
LINE
  8
0
 10
79.5293
 20
-19.2745
 11
79.7112
 21
-18.8201
  0
LINE
  8
0
 10
79.7112
 20
-18.8201
 11
79.9759
 21
-18.4082
  0
LINE
  8
0
 10
79.9759
 20
-18.4082
 11
80.3137
 21
-18.0539
  0
LINE
  8
0
 10
80.3137
 20
-18.0539
 11
80.7125
 21
-17.77
  0
LINE
  8
0
 10
80.7125
 20
-17.77
 11
81.1578
 21
-17.5666
  0
LINE
  8
0
 10
81.1578
 20
-17.5666
 11
81.6335
 21
-17.4512
  0
LINE
  8
0
 10
81.6335
 20
-17.4512
 11
82.1225
 21
-17.4279
  0
LINE
  8
0
 10
82.1225
 20
-17.4279
 11
82.6071
 21
-17.4976
  0
LINE
  8
0
 10
82.6071
 20
-17.4976
 11
83.0697
 21
-17.6577
  0
LINE
  8
0
 10
83.0697
 20
-17.6577
 11
83.4936
 21
-17.9025
  0
LINE
  8
0
 10
83.4936
 20
-17.9025
 11
83.8636
 21
-18.223
  0
LINE
  8
0
 10
83.8636
 20
-18.223
 11
84.1662
 21
-18.6078
  0
LINE
  8
0
 10
84.1662
 20
-18.6078
 11
84.3905
 21
-19.043
  0
LINE
  8
0
 10
84.3905
 20
-19.043
 11
84.5285
 21
-19.5127
  0
LINE
  8
0
 10
84.5285
 20
-19.5127
 11
84.575
 21
-20
  0
LINE
  8
0
 10
84.575
 20
-20
 11
84.5285
 21
-20.4873
  0
LINE
  8
0
 10
84.5285
 20
-20.4873
 11
84.3905
 21
-20.957
  0
LINE
  8
0
 10
84.3905
 20
-20.957
 11
84.1662
 21
-21.3922
  0
LINE
  8
0
 10
84.1662
 20
-21.3922
 11
83.8636
 21
-21.7769
  0
LINE
  8
0
 10
83.8636
 20
-21.7769
 11
83.4936
 21
-22.0975
  0
LINE
  8
0
 10
83.4936
 20
-22.0975
 11
83.0697
 21
-22.3423
  0
LINE
  8
0
 10
83.0697
 20
-22.3423
 11
82.6071
 21
-22.5024
  0
LINE
  8
0
 10
82.6071
 20
-22.5024
 11
82.1225
 21
-22.5721
  0
LINE
  8
0
 10
82.1225
 20
-22.5721
 11
81.6335
 21
-22.5488
  0
LINE
  8
0
 10
61.6335
 20
-22.5488
 11
61.1578
 21
-22.4334
  0
LINE
  8
0
 10
61.1578
 20
-22.4334
 11
60.7125
 21
-22.23
  0
LINE
  8
0
 10
60.7125
 20
-22.23
 11
60.3137
 21
-21.946
  0
LINE
  8
0
 10
60.3137
 20
-21.946
 11
59.9759
 21
-21.5918
  0
LINE
  8
0
 10
59.9759
 20
-21.5918
 11
59.7112
 21
-21.1799
  0
LINE
  8
0
 10
59.7112
 20
-21.1799
 11
59.5293
 21
-20.7254
  0
LINE
  8
0
 10
59.5293
 20
-20.7254
 11
59.4367
 21
-20.2448
  0
LINE
  8
0
 10
59.4367
 20
-20.2448
 11
59.4367
 21
-19.7552
  0
LINE
  8
0
 10
59.4367
 20
-19.7552
 11
59.5293
 21
-19.2745
  0
LINE
  8
0
 10
59.5293
 20
-19.2745
 11
59.7112
 21
-18.8201
  0
LINE
  8
0
 10
59.7112
 20
-18.8201
 11
59.9759
 21
-18.4082
  0
LINE
  8
0
 10
59.9759
 20
-18.4082
 11
60.3137
 21
-18.0539
  0
LINE
  8
0
 10
60.3137
 20
-18.0539
 11
60.7125
 21
-17.77
  0
LINE
  8
0
 10
60.7125
 20
-17.77
 11
61.1578
 21
-17.5666
  0
LINE
  8
0
 10
61.1578
 20
-17.5666
 11
61.6335
 21
-17.4512
  0
LINE
  8
0
 10
61.6335
 20
-17.4512
 11
62.1225
 21
-17.4279
  0
LINE
  8
0
 10
62.1225
 20
-17.4279
 11
62.6071
 21
-17.4976
  0
LINE
  8
0
 10
62.6071
 20
-17.4976
 11
63.0697
 21
-17.6577
  0
LINE
  8
0
 10
63.0697
 20
-17.6577
 11
63.4936
 21
-17.9025
  0
LINE
  8
0
 10
63.4936
 20
-17.9025
 11
63.8636
 21
-18.223
  0
LINE
  8
0
 10
63.8636
 20
-18.223
 11
64.1662
 21
-18.6078
  0
LINE
  8
0
 10
64.1662
 20
-18.6078
 11
64.3905
 21
-19.043
  0
LINE
  8
0
 10
64.3905
 20
-19.043
 11
64.5285
 21
-19.5127
  0
LINE
  8
0
 10
64.5285
 20
-19.5127
 11
64.575
 21
-20
  0
LINE
  8
0
 10
64.575
 20
-20
 11
64.5285
 21
-20.4873
  0
LINE
  8
0
 10
64.5285
 20
-20.4873
 11
64.3905
 21
-20.957
  0
LINE
  8
0
 10
64.3905
 20
-20.957
 11
64.1662
 21
-21.3922
  0
LINE
  8
0
 10
64.1662
 20
-21.3922
 11
63.8636
 21
-21.7769
  0
LINE
  8
0
 10
63.8636
 20
-21.7769
 11
63.4936
 21
-22.0975
  0
LINE
  8
0
 10
63.4936
 20
-22.0975
 11
63.0697
 21
-22.3423
  0
LINE
  8
0
 10
63.0697
 20
-22.3423
 11
62.6071
 21
-22.5024
  0
LINE
  8
0
 10
62.6071
 20
-22.5024
 11
62.1225
 21
-22.5721
  0
LINE
  8
0
 10
62.1225
 20
-22.5721
 11
61.6335
 21
-22.5488
  0
LINE
  8
0
 10
101.634
 20
-22.5488
 11
101.158
 21
-22.4334
  0
LINE
  8
0
 10
101.158
 20
-22.4334
 11
100.712
 21
-22.23
  0
LINE
  8
0
 10
100.712
 20
-22.23
 11
100.314
 21
-21.946
  0
LINE
  8
0
 10
100.314
 20
-21.946
 11
99.9759
 21
-21.5918
  0
LINE
  8
0
 10
99.9759
 20
-21.5918
 11
99.7112
 21
-21.1799
  0
LINE
  8
0
 10
99.7112
 20
-21.1799
 11
99.5293
 21
-20.7254
  0
LINE
  8
0
 10
99.5293
 20
-20.7254
 11
99.4367
 21
-20.2448
  0
LINE
  8
0
 10
99.4367
 20
-20.2448
 11
99.4367
 21
-19.7552
  0
LINE
  8
0
 10
99.4367
 20
-19.7552
 11
99.5293
 21
-19.2745
  0
LINE
  8
0
 10
99.5293
 20
-19.2745
 11
99.7112
 21
-18.8201
  0
LINE
  8
0
 10
99.7112
 20
-18.8201
 11
99.9759
 21
-18.4082
  0
LINE
  8
0
 10
99.9759
 20
-18.4082
 11
100.314
 21
-18.0539
  0
LINE
  8
0
 10
100.314
 20
-18.0539
 11
100.712
 21
-17.77
  0
LINE
  8
0
 10
100.712
 20
-17.77
 11
101.158
 21
-17.5666
  0
LINE
  8
0
 10
101.158
 20
-17.5666
 11
101.634
 21
-17.4512
  0
LINE
  8
0
 10
101.634
 20
-17.4512
 11
102.123
 21
-17.4279
  0
LINE
  8
0
 10
102.123
 20
-17.4279
 11
102.607
 21
-17.4976
  0
LINE
  8
0
 10
102.607
 20
-17.4976
 11
103.07
 21
-17.6577
  0
LINE
  8
0
 10
103.07
 20
-17.6577
 11
103.494
 21
-17.9025
  0
LINE
  8
0
 10
103.494
 20
-17.9025
 11
103.864
 21
-18.223
  0
LINE
  8
0
 10
103.864
 20
-18.223
 11
104.166
 21
-18.6078
  0
LINE
  8
0
 10
104.166
 20
-18.6078
 11
104.391
 21
-19.043
  0
LINE
  8
0
 10
104.391
 20
-19.043
 11
104.528
 21
-19.5127
  0
LINE
  8
0
 10
104.528
 20
-19.5127
 11
104.575
 21
-20
  0
LINE
  8
0
 10
104.575
 20
-20
 11
104.528
 21
-20.4873
  0
LINE
  8
0
 10
104.528
 20
-20.4873
 11
104.391
 21
-20.957
  0
LINE
  8
0
 10
104.391
 20
-20.957
 11
104.166
 21
-21.3922
  0
LINE
  8
0
 10
104.166
 20
-21.3922
 11
103.864
 21
-21.7769
  0
LINE
  8
0
 10
103.864
 20
-21.7769
 11
103.494
 21
-22.0975
  0
LINE
  8
0
 10
103.494
 20
-22.0975
 11
103.07
 21
-22.3423
  0
LINE
  8
0
 10
103.07
 20
-22.3423
 11
102.607
 21
-22.5024
  0
LINE
  8
0
 10
102.607
 20
-22.5024
 11
102.123
 21
-22.5721
  0
LINE
  8
0
 10
102.123
 20
-22.5721
 11
101.634
 21
-22.5488
  0
LINE
  8
0
 10
41.6335
 20
-22.5488
 11
41.1578
 21
-22.4334
  0
LINE
  8
0
 10
41.1578
 20
-22.4334
 11
40.7125
 21
-22.23
  0
LINE
  8
0
 10
40.7125
 20
-22.23
 11
40.3137
 21
-21.946
  0
LINE
  8
0
 10
40.3137
 20
-21.946
 11
39.9759
 21
-21.5918
  0
LINE
  8
0
 10
39.9759
 20
-21.5918
 11
39.7112
 21
-21.1799
  0
LINE
  8
0
 10
39.7112
 20
-21.1799
 11
39.5293
 21
-20.7254
  0
LINE
  8
0
 10
39.5293
 20
-20.7254
 11
39.4367
 21
-20.2448
  0
LINE
  8
0
 10
39.4367
 20
-20.2448
 11
39.4367
 21
-19.7552
  0
LINE
  8
0
 10
39.4367
 20
-19.7552
 11
39.5293
 21
-19.2745
  0
LINE
  8
0
 10
39.5293
 20
-19.2745
 11
39.7112
 21
-18.8201
  0
LINE
  8
0
 10
39.7112
 20
-18.8201
 11
39.9759
 21
-18.4082
  0
LINE
  8
0
 10
39.9759
 20
-18.4082
 11
40.3137
 21
-18.0539
  0
LINE
  8
0
 10
40.3137
 20
-18.0539
 11
40.7125
 21
-17.77
  0
LINE
  8
0
 10
40.7125
 20
-17.77
 11
41.1578
 21
-17.5666
  0
LINE
  8
0
 10
41.1578
 20
-17.5666
 11
41.6335
 21
-17.4512
  0
LINE
  8
0
 10
41.6335
 20
-17.4512
 11
42.1225
 21
-17.4279
  0
LINE
  8
0
 10
42.1225
 20
-17.4279
 11
42.6071
 21
-17.4976
  0
LINE
  8
0
 10
42.6071
 20
-17.4976
 11
43.0697
 21
-17.6577
  0
LINE
  8
0
 10
43.0697
 20
-17.6577
 11
43.4936
 21
-17.9025
  0
LINE
  8
0
 10
43.4936
 20
-17.9025
 11
43.8636
 21
-18.223
  0
LINE
  8
0
 10
43.8636
 20
-18.223
 11
44.1662
 21
-18.6078
  0
LINE
  8
0
 10
44.1662
 20
-18.6078
 11
44.3905
 21
-19.043
  0
LINE
  8
0
 10
44.3905
 20
-19.043
 11
44.5285
 21
-19.5127
  0
LINE
  8
0
 10
44.5285
 20
-19.5127
 11
44.575
 21
-20
  0
LINE
  8
0
 10
44.575
 20
-20
 11
44.5285
 21
-20.4873
  0
LINE
  8
0
 10
44.5285
 20
-20.4873
 11
44.3905
 21
-20.957
  0
LINE
  8
0
 10
44.3905
 20
-20.957
 11
44.1662
 21
-21.3922
  0
LINE
  8
0
 10
44.1662
 20
-21.3922
 11
43.8636
 21
-21.7769
  0
LINE
  8
0
 10
43.8636
 20
-21.7769
 11
43.4936
 21
-22.0975
  0
LINE
  8
0
 10
43.4936
 20
-22.0975
 11
43.0697
 21
-22.3423
  0
LINE
  8
0
 10
43.0697
 20
-22.3423
 11
42.6071
 21
-22.5024
  0
LINE
  8
0
 10
42.6071
 20
-22.5024
 11
42.1225
 21
-22.5721
  0
LINE
  8
0
 10
42.1225
 20
-22.5721
 11
41.6335
 21
-22.5488
  0
LINE
  8
0
 10
21.6335
 20
-22.5488
 11
21.1578
 21
-22.4334
  0
LINE
  8
0
 10
21.1578
 20
-22.4334
 11
20.7125
 21
-22.23
  0
LINE
  8
0
 10
20.7125
 20
-22.23
 11
20.3137
 21
-21.946
  0
LINE
  8
0
 10
20.3137
 20
-21.946
 11
19.9759
 21
-21.5918
  0
LINE
  8
0
 10
19.9759
 20
-21.5918
 11
19.7112
 21
-21.1799
  0
LINE
  8
0
 10
19.7112
 20
-21.1799
 11
19.5293
 21
-20.7254
  0
LINE
  8
0
 10
19.5293
 20
-20.7254
 11
19.4367
 21
-20.2448
  0
LINE
  8
0
 10
19.4367
 20
-20.2448
 11
19.4367
 21
-19.7552
  0
LINE
  8
0
 10
19.4367
 20
-19.7552
 11
19.5293
 21
-19.2745
  0
LINE
  8
0
 10
19.5293
 20
-19.2745
 11
19.7112
 21
-18.8201
  0
LINE
  8
0
 10
19.7112
 20
-18.8201
 11
19.9759
 21
-18.4082
  0
LINE
  8
0
 10
19.9759
 20
-18.4082
 11
20.3137
 21
-18.0539
  0
LINE
  8
0
 10
20.3137
 20
-18.0539
 11
20.7125
 21
-17.77
  0
LINE
  8
0
 10
20.7125
 20
-17.77
 11
21.1578
 21
-17.5666
  0
LINE
  8
0
 10
21.1578
 20
-17.5666
 11
21.6335
 21
-17.4512
  0
LINE
  8
0
 10
21.6335
 20
-17.4512
 11
22.1225
 21
-17.4279
  0
LINE
  8
0
 10
22.1225
 20
-17.4279
 11
22.6071
 21
-17.4976
  0
LINE
  8
0
 10
22.6071
 20
-17.4976
 11
23.0697
 21
-17.6577
  0
LINE
  8
0
 10
23.0697
 20
-17.6577
 11
23.4936
 21
-17.9025
  0
LINE
  8
0
 10
23.4936
 20
-17.9025
 11
23.8636
 21
-18.223
  0
LINE
  8
0
 10
23.8636
 20
-18.223
 11
24.1662
 21
-18.6078
  0
LINE
  8
0
 10
24.1662
 20
-18.6078
 11
24.3905
 21
-19.043
  0
LINE
  8
0
 10
24.3905
 20
-19.043
 11
24.5285
 21
-19.5127
  0
LINE
  8
0
 10
24.5285
 20
-19.5127
 11
24.575
 21
-20
  0
LINE
  8
0
 10
24.575
 20
-20
 11
24.5285
 21
-20.4873
  0
LINE
  8
0
 10
24.5285
 20
-20.4873
 11
24.3905
 21
-20.957
  0
LINE
  8
0
 10
24.3905
 20
-20.957
 11
24.1662
 21
-21.3922
  0
LINE
  8
0
 10
24.1662
 20
-21.3922
 11
23.8636
 21
-21.7769
  0
LINE
  8
0
 10
23.8636
 20
-21.7769
 11
23.4936
 21
-22.0975
  0
LINE
  8
0
 10
23.4936
 20
-22.0975
 11
23.0697
 21
-22.3423
  0
LINE
  8
0
 10
23.0697
 20
-22.3423
 11
22.6071
 21
-22.5024
  0
LINE
  8
0
 10
22.6071
 20
-22.5024
 11
22.1225
 21
-22.5721
  0
LINE
  8
0
 10
22.1225
 20
-22.5721
 11
21.6335
 21
-22.5488
  0
LINE
  8
0
 10
1.63353
 20
-22.5488
 11
1.15779
 21
-22.4334
  0
LINE
  8
0
 10
1.15779
 20
-22.4334
 11
0.712494
 21
-22.23
  0
LINE
  8
0
 10
0.712494
 20
-22.23
 11
0.313721
 21
-21.946
  0
LINE
  8
0
 10
0.313721
 20
-21.946
 11
-0.0240784
 21
-21.5918
  0
LINE
  8
0
 10
-0.0240784
 20
-21.5918
 11
-0.288742
 21
-21.1799
  0
LINE
  8
0
 10
-0.288742
 20
-21.1799
 11
-0.470688
 21
-20.7254
  0
LINE
  8
0
 10
-0.470688
 20
-20.7254
 11
-0.563339
 21
-20.2448
  0
LINE
  8
0
 10
-0.563339
 20
-20.2448
 11
-0.563339
 21
-19.7552
  0
LINE
  8
0
 10
-0.563339
 20
-19.7552
 11
-0.470688
 21
-19.2745
  0
LINE
  8
0
 10
-0.470688
 20
-19.2745
 11
-0.288742
 21
-18.8201
  0
LINE
  8
0
 10
-0.288742
 20
-18.8201
 11
-0.0240784
 21
-18.4082
  0
LINE
  8
0
 10
-0.0240784
 20
-18.4082
 11
0.313721
 21
-18.0539
  0
LINE
  8
0
 10
0.313721
 20
-18.0539
 11
0.712494
 21
-17.77
  0
LINE
  8
0
 10
0.712494
 20
-17.77
 11
1.15779
 21
-17.5666
  0
LINE
  8
0
 10
1.15779
 20
-17.5666
 11
1.63353
 21
-17.4512
  0
LINE
  8
0
 10
1.63353
 20
-17.4512
 11
2.12251
 21
-17.4279
  0
LINE
  8
0
 10
2.12251
 20
-17.4279
 11
2.60707
 21
-17.4976
  0
LINE
  8
0
 10
2.60707
 20
-17.4976
 11
3.06969
 21
-17.6577
  0
LINE
  8
0
 10
3.06969
 20
-17.6577
 11
3.49364
 21
-17.9025
  0
LINE
  8
0
 10
3.49364
 20
-17.9025
 11
3.8636
 21
-18.223
  0
LINE
  8
0
 10
3.8636
 20
-18.223
 11
4.16621
 21
-18.6078
  0
LINE
  8
0
 10
4.16621
 20
-18.6078
 11
4.39053
 21
-19.043
  0
LINE
  8
0
 10
4.39053
 20
-19.043
 11
4.52846
 21
-19.5127
  0
LINE
  8
0
 10
4.52846
 20
-19.5127
 11
4.575
 21
-20
  0
LINE
  8
0
 10
4.575
 20
-20
 11
4.52846
 21
-20.4873
  0
LINE
  8
0
 10
4.52846
 20
-20.4873
 11
4.39053
 21
-20.957
  0
LINE
  8
0
 10
4.39053
 20
-20.957
 11
4.16621
 21
-21.3922
  0
LINE
  8
0
 10
4.16621
 20
-21.3922
 11
3.8636
 21
-21.7769
  0
LINE
  8
0
 10
3.8636
 20
-21.7769
 11
3.49364
 21
-22.0975
  0
LINE
  8
0
 10
3.49364
 20
-22.0975
 11
3.06969
 21
-22.3423
  0
LINE
  8
0
 10
3.06969
 20
-22.3423
 11
2.60707
 21
-22.5024
  0
LINE
  8
0
 10
2.60707
 20
-22.5024
 11
2.12251
 21
-22.5721
  0
LINE
  8
0
 10
2.12251
 20
-22.5721
 11
1.63353
 21
-22.5488
  0
LINE
  8
0
 10
-21.2527
 20
-29.972
 11
-20.7566
 21
-29.9224
  0
LINE
  8
0
 10
-20.7566
 20
-29.9224
 11
-20.2635
 21
-29.8481
  0
LINE
  8
0
 10
-20.2635
 20
-29.8481
 11
-19.7748
 21
-29.7493
  0
LINE
  8
0
 10
-19.7748
 20
-29.7493
 11
-19.2916
 21
-29.6262
  0
LINE
  8
0
 10
-19.2916
 20
-29.6262
 11
-18.8151
 21
-29.4793
  0
LINE
  8
0
 10
-18.8151
 20
-29.4793
 11
-18.3466
 21
-29.3087
  0
LINE
  8
0
 10
-18.3466
 20
-29.3087
 11
-17.8871
 21
-29.1151
  0
LINE
  8
0
 10
-17.8871
 20
-29.1151
 11
-17.4379
 21
-28.8987
  0
LINE
  8
0
 10
-17.4379
 20
-28.8987
 11
-17
 21
-28.6602
  0
LINE
  8
0
 10
-17
 20
-28.6602
 11
-16.5745
 21
-28.4003
  0
LINE
  8
0
 10
-16.5745
 20
-28.4003
 11
-16.1626
 21
-28.1194
  0
LINE
  8
0
 10
-16.1626
 20
-28.1194
 11
-15.7651
 21
-27.8183
  0
LINE
  8
0
 10
-15.7651
 20
-27.8183
 11
-15.3831
 21
-27.4978
  0
LINE
  8
0
 10
-15.3831
 20
-27.4978
 11
-15.0176
 21
-27.1587
  0
LINE
  8
0
 10
-15.0176
 20
-27.1587
 11
-14.6695
 21
-26.8017
  0
LINE
  8
0
 10
-14.6695
 20
-26.8017
 11
-14.3396
 21
-26.4279
  0
LINE
  8
0
 10
-14.3396
 20
-26.4279
 11
-14.0287
 21
-26.038
  0
LINE
  8
0
 10
-14.0287
 20
-26.038
 11
-13.7376
 21
-25.6332
  0
LINE
  8
0
 10
-13.7376
 20
-25.6332
 11
-13.4671
 21
-25.2143
  0
LINE
  8
0
 10
-13.4671
 20
-25.2143
 11
-13.2178
 21
-24.7825
  0
LINE
  8
0
 10
-13.2178
 20
-24.7825
 11
-12.9903
 21
-24.3388
  0
LINE
  8
0
 10
-12.9903
 20
-24.3388
 11
-12.7852
 21
-23.8843
  0
LINE
  8
0
 10
-12.7852
 20
-23.8843
 11
-12.6031
 21
-23.4202
  0
LINE
  8
0
 10
-12.6031
 20
-23.4202
 11
-12.4443
 21
-22.9475
  0
LINE
  8
0
 10
-12.4443
 20
-22.9475
 11
-12.3092
 21
-22.4676
  0
LINE
  8
0
 10
-12.3092
 20
-22.4676
 11
-12.1983
 21
-21.9815
  0
LINE
  8
0
 10
-12.1983
 20
-21.9815
 11
-12.1117
 21
-21.4904
  0
LINE
  8
0
 10
-12.1117
 20
-21.4904
 11
-12.0497
 21
-20.9957
  0
LINE
  8
0
 10
-12.0497
 20
-20.9957
 11
-12.0124
 21
-20.4985
  0
LINE
  8
0
 10
-12.0124
 20
-20.4985
 11
-12
 21
-20
  0
LINE
  8
0
 10
-12
 20
-20
 11
-12
 21
20
  0
LINE
  8
0
 10
-12
 20
20
 11
-12.0124
 21
20.4985
  0
LINE
  8
0
 10
-12.0124
 20
20.4985
 11
-12.0497
 21
20.9957
  0
LINE
  8
0
 10
-12.0497
 20
20.9957
 11
-12.1117
 21
21.4904
  0
LINE
  8
0
 10
-12.1117
 20
21.4904
 11
-12.1983
 21
21.9815
  0
LINE
  8
0
 10
-12.1983
 20
21.9815
 11
-12.3092
 21
22.4676
  0
LINE
  8
0
 10
-12.3092
 20
22.4676
 11
-12.4443
 21
22.9475
  0
LINE
  8
0
 10
-12.4443
 20
22.9475
 11
-12.6031
 21
23.4202
  0
LINE
  8
0
 10
-12.6031
 20
23.4202
 11
-12.7852
 21
23.8843
  0
LINE
  8
0
 10
-12.7852
 20
23.8843
 11
-12.9903
 21
24.3388
  0
LINE
  8
0
 10
-12.9903
 20
24.3388
 11
-13.2178
 21
24.7825
  0
LINE
  8
0
 10
-13.2178
 20
24.7825
 11
-13.4671
 21
25.2143
  0
LINE
  8
0
 10
-13.4671
 20
25.2143
 11
-13.7376
 21
25.6332
  0
LINE
  8
0
 10
-13.7376
 20
25.6332
 11
-14.0287
 21
26.038
  0
LINE
  8
0
 10
-14.0287
 20
26.038
 11
-14.3396
 21
26.4279
  0
LINE
  8
0
 10
-14.3396
 20
26.4279
 11
-14.6695
 21
26.8017
  0
LINE
  8
0
 10
-14.6695
 20
26.8017
 11
-15.0176
 21
27.1587
  0
LINE
  8
0
 10
-15.0176
 20
27.1587
 11
-15.3831
 21
27.4978
  0
LINE
  8
0
 10
-15.3831
 20
27.4978
 11
-15.7651
 21
27.8183
  0
LINE
  8
0
 10
-15.7651
 20
27.8183
 11
-16.1626
 21
28.1194
  0
LINE
  8
0
 10
-16.1626
 20
28.1194
 11
-16.5745
 21
28.4003
  0
LINE
  8
0
 10
-16.5745
 20
28.4003
 11
-17
 21
28.6602
  0
LINE
  8
0
 10
-17
 20
28.6602
 11
-17.4379
 21
28.8987
  0
LINE
  8
0
 10
-17.4379
 20
28.8987
 11
-17.8871
 21
29.1151
  0
LINE
  8
0
 10
-17.8871
 20
29.1151
 11
-18.3466
 21
29.3087
  0
LINE
  8
0
 10
-18.3466
 20
29.3087
 11
-18.8151
 21
29.4793
  0
LINE
  8
0
 10
-18.8151
 20
29.4793
 11
-19.2916
 21
29.6262
  0
LINE
  8
0
 10
-19.2916
 20
29.6262
 11
-19.7748
 21
29.7493
  0
LINE
  8
0
 10
-19.7748
 20
29.7493
 11
-20.2635
 21
29.8481
  0
LINE
  8
0
 10
-20.2635
 20
29.8481
 11
-20.7566
 21
29.9224
  0
LINE
  8
0
 10
-20.7566
 20
29.9224
 11
-21.2527
 21
29.972
  0
LINE
  8
0
 10
-21.2527
 20
29.972
 11
-21.7507
 21
29.9969
  0
LINE
  8
0
 10
-21.7507
 20
29.9969
 11
-122.249
 21
29.9969
  0
LINE
  8
0
 10
-122.249
 20
29.9969
 11
-122.747
 21
29.972
  0
LINE
  8
0
 10
-122.747
 20
29.972
 11
-123.243
 21
29.9224
  0
LINE
  8
0
 10
-123.243
 20
29.9224
 11
-123.736
 21
29.8481
  0
LINE
  8
0
 10
-123.736
 20
29.8481
 11
-124.225
 21
29.7493
  0
LINE
  8
0
 10
-124.225
 20
29.7493
 11
-124.708
 21
29.6262
  0
LINE
  8
0
 10
-124.708
 20
29.6262
 11
-125.185
 21
29.4793
  0
LINE
  8
0
 10
-125.185
 20
29.4793
 11
-125.653
 21
29.3087
  0
LINE
  8
0
 10
-125.653
 20
29.3087
 11
-126.113
 21
29.1151
  0
LINE
  8
0
 10
-126.113
 20
29.1151
 11
-126.562
 21
28.8987
  0
LINE
  8
0
 10
-126.562
 20
28.8987
 11
-127
 21
28.6602
  0
LINE
  8
0
 10
-127
 20
28.6602
 11
-127.425
 21
28.4003
  0
LINE
  8
0
 10
-127.425
 20
28.4003
 11
-127.837
 21
28.1194
  0
LINE
  8
0
 10
-127.837
 20
28.1194
 11
-128.235
 21
27.8183
  0
LINE
  8
0
 10
-128.235
 20
27.8183
 11
-128.617
 21
27.4978
  0
LINE
  8
0
 10
-128.617
 20
27.4978
 11
-128.982
 21
27.1587
  0
LINE
  8
0
 10
-128.982
 20
27.1587
 11
-129.331
 21
26.8017
  0
LINE
  8
0
 10
-129.331
 20
26.8017
 11
-129.66
 21
26.4279
  0
LINE
  8
0
 10
-129.66
 20
26.4279
 11
-129.971
 21
26.038
  0
LINE
  8
0
 10
-129.971
 20
26.038
 11
-130.262
 21
25.6332
  0
LINE
  8
0
 10
-130.262
 20
25.6332
 11
-130.533
 21
25.2143
  0
LINE
  8
0
 10
-130.533
 20
25.2143
 11
-130.782
 21
24.7825
  0
LINE
  8
0
 10
-130.782
 20
24.7825
 11
-131.01
 21
24.3388
  0
LINE
  8
0
 10
-131.01
 20
24.3388
 11
-131.215
 21
23.8843
  0
LINE
  8
0
 10
-131.215
 20
23.8843
 11
-131.397
 21
23.4202
  0
LINE
  8
0
 10
-131.397
 20
23.4202
 11
-131.556
 21
22.9475
  0
LINE
  8
0
 10
-131.556
 20
22.9475
 11
-131.691
 21
22.4676
  0
LINE
  8
0
 10
-131.691
 20
22.4676
 11
-131.802
 21
21.9815
  0
LINE
  8
0
 10
-131.802
 20
21.9815
 11
-131.888
 21
21.4904
  0
LINE
  8
0
 10
-131.888
 20
21.4904
 11
-131.95
 21
20.9957
  0
LINE
  8
0
 10
-131.95
 20
20.9957
 11
-131.988
 21
20.4985
  0
LINE
  8
0
 10
-131.988
 20
20.4985
 11
-132
 21
20
  0
LINE
  8
0
 10
-132
 20
20
 11
-132
 21
-20
  0
LINE
  8
0
 10
-132
 20
-20
 11
-131.988
 21
-20.4985
  0
LINE
  8
0
 10
-131.988
 20
-20.4985
 11
-131.95
 21
-20.9957
  0
LINE
  8
0
 10
-131.95
 20
-20.9957
 11
-131.888
 21
-21.4904
  0
LINE
  8
0
 10
-131.888
 20
-21.4904
 11
-131.802
 21
-21.9815
  0
LINE
  8
0
 10
-131.802
 20
-21.9815
 11
-131.691
 21
-22.4676
  0
LINE
  8
0
 10
-131.691
 20
-22.4676
 11
-131.556
 21
-22.9475
  0
LINE
  8
0
 10
-131.556
 20
-22.9475
 11
-131.397
 21
-23.4202
  0
LINE
  8
0
 10
-131.397
 20
-23.4202
 11
-131.215
 21
-23.8843
  0
LINE
  8
0
 10
-131.215
 20
-23.8843
 11
-131.01
 21
-24.3388
  0
LINE
  8
0
 10
-131.01
 20
-24.3388
 11
-130.782
 21
-24.7825
  0
LINE
  8
0
 10
-130.782
 20
-24.7825
 11
-130.533
 21
-25.2143
  0
LINE
  8
0
 10
-130.533
 20
-25.2143
 11
-130.262
 21
-25.6332
  0
LINE
  8
0
 10
-130.262
 20
-25.6332
 11
-129.971
 21
-26.038
  0
LINE
  8
0
 10
-129.971
 20
-26.038
 11
-129.66
 21
-26.4279
  0
LINE
  8
0
 10
-129.66
 20
-26.4279
 11
-129.331
 21
-26.8017
  0
LINE
  8
0
 10
-129.331
 20
-26.8017
 11
-128.982
 21
-27.1587
  0
LINE
  8
0
 10
-128.982
 20
-27.1587
 11
-128.617
 21
-27.4978
  0
LINE
  8
0
 10
-128.617
 20
-27.4978
 11
-128.235
 21
-27.8183
  0
LINE
  8
0
 10
-128.235
 20
-27.8183
 11
-127.837
 21
-28.1194
  0
LINE
  8
0
 10
-127.837
 20
-28.1194
 11
-127.425
 21
-28.4003
  0
LINE
  8
0
 10
-127.425
 20
-28.4003
 11
-127
 21
-28.6602
  0
LINE
  8
0
 10
-127
 20
-28.6602
 11
-126.562
 21
-28.8987
  0
LINE
  8
0
 10
-126.562
 20
-28.8987
 11
-126.113
 21
-29.1151
  0
LINE
  8
0
 10
-126.113
 20
-29.1151
 11
-125.653
 21
-29.3087
  0
LINE
  8
0
 10
-125.653
 20
-29.3087
 11
-125.185
 21
-29.4793
  0
LINE
  8
0
 10
-125.185
 20
-29.4793
 11
-124.708
 21
-29.6262
  0
LINE
  8
0
 10
-124.708
 20
-29.6262
 11
-124.225
 21
-29.7493
  0
LINE
  8
0
 10
-124.225
 20
-29.7493
 11
-123.736
 21
-29.8481
  0
LINE
  8
0
 10
-123.736
 20
-29.8481
 11
-123.243
 21
-29.9224
  0
LINE
  8
0
 10
-123.243
 20
-29.9224
 11
-122.747
 21
-29.972
  0
LINE
  8
0
 10
-122.747
 20
-29.972
 11
-122.249
 21
-29.9969
  0
LINE
  8
0
 10
-122.249
 20
-29.9969
 11
-21.7507
 21
-29.9969
  0
LINE
  8
0
 10
-21.7507
 20
-29.9969
 11
-21.2527
 21
-29.972
  0
LINE
  8
0
 10
-22.3665
 20
17.4512
 11
-22.8422
 21
17.5666
  0
LINE
  8
0
 10
-22.8422
 20
17.5666
 11
-23.2875
 21
17.77
  0
LINE
  8
0
 10
-23.2875
 20
17.77
 11
-23.6863
 21
18.0539
  0
LINE
  8
0
 10
-23.6863
 20
18.0539
 11
-24.0241
 21
18.4082
  0
LINE
  8
0
 10
-24.0241
 20
18.4082
 11
-24.2887
 21
18.8201
  0
LINE
  8
0
 10
-24.2887
 20
18.8201
 11
-24.4707
 21
19.2745
  0
LINE
  8
0
 10
-24.4707
 20
19.2745
 11
-24.5633
 21
19.7552
  0
LINE
  8
0
 10
-24.5633
 20
19.7552
 11
-24.5633
 21
20.2448
  0
LINE
  8
0
 10
-24.5633
 20
20.2448
 11
-24.4707
 21
20.7254
  0
LINE
  8
0
 10
-24.4707
 20
20.7254
 11
-24.2887
 21
21.1799
  0
LINE
  8
0
 10
-24.2887
 20
21.1799
 11
-24.0241
 21
21.5918
  0
LINE
  8
0
 10
-24.0241
 20
21.5918
 11
-23.6863
 21
21.946
  0
LINE
  8
0
 10
-23.6863
 20
21.946
 11
-23.2875
 21
22.23
  0
LINE
  8
0
 10
-23.2875
 20
22.23
 11
-22.8422
 21
22.4334
  0
LINE
  8
0
 10
-22.8422
 20
22.4334
 11
-22.3665
 21
22.5488
  0
LINE
  8
0
 10
-22.3665
 20
22.5488
 11
-21.8775
 21
22.5721
  0
LINE
  8
0
 10
-21.8775
 20
22.5721
 11
-21.3929
 21
22.5024
  0
LINE
  8
0
 10
-21.3929
 20
22.5024
 11
-20.9303
 21
22.3423
  0
LINE
  8
0
 10
-20.9303
 20
22.3423
 11
-20.5063
 21
22.0975
  0
LINE
  8
0
 10
-20.5063
 20
22.0975
 11
-20.1364
 21
21.7769
  0
LINE
  8
0
 10
-20.1364
 20
21.7769
 11
-19.8338
 21
21.3922
  0
LINE
  8
0
 10
-19.8338
 20
21.3922
 11
-19.6095
 21
20.957
  0
LINE
  8
0
 10
-19.6095
 20
20.957
 11
-19.4715
 21
20.4873
  0
LINE
  8
0
 10
-19.4715
 20
20.4873
 11
-19.425
 21
20
  0
LINE
  8
0
 10
-19.425
 20
20
 11
-19.4715
 21
19.5127
  0
LINE
  8
0
 10
-19.4715
 20
19.5127
 11
-19.6095
 21
19.043
  0
LINE
  8
0
 10
-19.6095
 20
19.043
 11
-19.8338
 21
18.6078
  0
LINE
  8
0
 10
-19.8338
 20
18.6078
 11
-20.1364
 21
18.223
  0
LINE
  8
0
 10
-20.1364
 20
18.223
 11
-20.5063
 21
17.9025
  0
LINE
  8
0
 10
-20.5063
 20
17.9025
 11
-20.9303
 21
17.6577
  0
LINE
  8
0
 10
-20.9303
 20
17.6577
 11
-21.3929
 21
17.4976
  0
LINE
  8
0
 10
-21.3929
 20
17.4976
 11
-21.8775
 21
17.4279
  0
LINE
  8
0
 10
-21.8775
 20
17.4279
 11
-22.3665
 21
17.4512
  0
LINE
  8
0
 10
-102.366
 20
17.4512
 11
-102.842
 21
17.5666
  0
LINE
  8
0
 10
-102.842
 20
17.5666
 11
-103.287
 21
17.77
  0
LINE
  8
0
 10
-103.287
 20
17.77
 11
-103.686
 21
18.0539
  0
LINE
  8
0
 10
-103.686
 20
18.0539
 11
-104.024
 21
18.4082
  0
LINE
  8
0
 10
-104.024
 20
18.4082
 11
-104.289
 21
18.8201
  0
LINE
  8
0
 10
-104.289
 20
18.8201
 11
-104.471
 21
19.2745
  0
LINE
  8
0
 10
-104.471
 20
19.2745
 11
-104.563
 21
19.7552
  0
LINE
  8
0
 10
-104.563
 20
19.7552
 11
-104.563
 21
20.2448
  0
LINE
  8
0
 10
-104.563
 20
20.2448
 11
-104.471
 21
20.7254
  0
LINE
  8
0
 10
-104.471
 20
20.7254
 11
-104.289
 21
21.1799
  0
LINE
  8
0
 10
-104.289
 20
21.1799
 11
-104.024
 21
21.5918
  0
LINE
  8
0
 10
-104.024
 20
21.5918
 11
-103.686
 21
21.946
  0
LINE
  8
0
 10
-103.686
 20
21.946
 11
-103.287
 21
22.23
  0
LINE
  8
0
 10
-103.287
 20
22.23
 11
-102.842
 21
22.4334
  0
LINE
  8
0
 10
-102.842
 20
22.4334
 11
-102.366
 21
22.5488
  0
LINE
  8
0
 10
-102.366
 20
22.5488
 11
-101.877
 21
22.5721
  0
LINE
  8
0
 10
-101.877
 20
22.5721
 11
-101.393
 21
22.5024
  0
LINE
  8
0
 10
-101.393
 20
22.5024
 11
-100.93
 21
22.3423
  0
LINE
  8
0
 10
-100.93
 20
22.3423
 11
-100.506
 21
22.0975
  0
LINE
  8
0
 10
-100.506
 20
22.0975
 11
-100.136
 21
21.7769
  0
LINE
  8
0
 10
-100.136
 20
21.7769
 11
-99.8338
 21
21.3922
  0
LINE
  8
0
 10
-99.8338
 20
21.3922
 11
-99.6095
 21
20.957
  0
LINE
  8
0
 10
-99.6095
 20
20.957
 11
-99.4715
 21
20.4873
  0
LINE
  8
0
 10
-99.4715
 20
20.4873
 11
-99.425
 21
20
  0
LINE
  8
0
 10
-99.425
 20
20
 11
-99.4715
 21
19.5127
  0
LINE
  8
0
 10
-99.4715
 20
19.5127
 11
-99.6095
 21
19.043
  0
LINE
  8
0
 10
-99.6095
 20
19.043
 11
-99.8338
 21
18.6078
  0
LINE
  8
0
 10
-99.8338
 20
18.6078
 11
-100.136
 21
18.223
  0
LINE
  8
0
 10
-100.136
 20
18.223
 11
-100.506
 21
17.9025
  0
LINE
  8
0
 10
-100.506
 20
17.9025
 11
-100.93
 21
17.6577
  0
LINE
  8
0
 10
-100.93
 20
17.6577
 11
-101.393
 21
17.4976
  0
LINE
  8
0
 10
-101.393
 20
17.4976
 11
-101.877
 21
17.4279
  0
LINE
  8
0
 10
-101.877
 20
17.4279
 11
-102.366
 21
17.4512
  0
LINE
  8
0
 10
-122.366
 20
17.4512
 11
-122.842
 21
17.5666
  0
LINE
  8
0
 10
-122.842
 20
17.5666
 11
-123.287
 21
17.77
  0
LINE
  8
0
 10
-123.287
 20
17.77
 11
-123.686
 21
18.0539
  0
LINE
  8
0
 10
-123.686
 20
18.0539
 11
-124.024
 21
18.4082
  0
LINE
  8
0
 10
-124.024
 20
18.4082
 11
-124.289
 21
18.8201
  0
LINE
  8
0
 10
-124.289
 20
18.8201
 11
-124.471
 21
19.2745
  0
LINE
  8
0
 10
-124.471
 20
19.2745
 11
-124.563
 21
19.7552
  0
LINE
  8
0
 10
-124.563
 20
19.7552
 11
-124.563
 21
20.2448
  0
LINE
  8
0
 10
-124.563
 20
20.2448
 11
-124.471
 21
20.7254
  0
LINE
  8
0
 10
-124.471
 20
20.7254
 11
-124.289
 21
21.1799
  0
LINE
  8
0
 10
-124.289
 20
21.1799
 11
-124.024
 21
21.5918
  0
LINE
  8
0
 10
-124.024
 20
21.5918
 11
-123.686
 21
21.946
  0
LINE
  8
0
 10
-123.686
 20
21.946
 11
-123.287
 21
22.23
  0
LINE
  8
0
 10
-123.287
 20
22.23
 11
-122.842
 21
22.4334
  0
LINE
  8
0
 10
-122.842
 20
22.4334
 11
-122.366
 21
22.5488
  0
LINE
  8
0
 10
-122.366
 20
22.5488
 11
-121.877
 21
22.5721
  0
LINE
  8
0
 10
-121.877
 20
22.5721
 11
-121.393
 21
22.5024
  0
LINE
  8
0
 10
-121.393
 20
22.5024
 11
-120.93
 21
22.3423
  0
LINE
  8
0
 10
-120.93
 20
22.3423
 11
-120.506
 21
22.0975
  0
LINE
  8
0
 10
-120.506
 20
22.0975
 11
-120.136
 21
21.7769
  0
LINE
  8
0
 10
-120.136
 20
21.7769
 11
-119.834
 21
21.3922
  0
LINE
  8
0
 10
-119.834
 20
21.3922
 11
-119.609
 21
20.957
  0
LINE
  8
0
 10
-119.609
 20
20.957
 11
-119.472
 21
20.4873
  0
LINE
  8
0
 10
-119.472
 20
20.4873
 11
-119.425
 21
20
  0
LINE
  8
0
 10
-119.425
 20
20
 11
-119.472
 21
19.5127
  0
LINE
  8
0
 10
-119.472
 20
19.5127
 11
-119.609
 21
19.043
  0
LINE
  8
0
 10
-119.609
 20
19.043
 11
-119.834
 21
18.6078
  0
LINE
  8
0
 10
-119.834
 20
18.6078
 11
-120.136
 21
18.223
  0
LINE
  8
0
 10
-120.136
 20
18.223
 11
-120.506
 21
17.9025
  0
LINE
  8
0
 10
-120.506
 20
17.9025
 11
-120.93
 21
17.6577
  0
LINE
  8
0
 10
-120.93
 20
17.6577
 11
-121.393
 21
17.4976
  0
LINE
  8
0
 10
-121.393
 20
17.4976
 11
-121.877
 21
17.4279
  0
LINE
  8
0
 10
-121.877
 20
17.4279
 11
-122.366
 21
17.4512
  0
LINE
  8
0
 10
-42.3665
 20
17.4512
 11
-42.8422
 21
17.5666
  0
LINE
  8
0
 10
-42.8422
 20
17.5666
 11
-43.2875
 21
17.77
  0
LINE
  8
0
 10
-43.2875
 20
17.77
 11
-43.6863
 21
18.0539
  0
LINE
  8
0
 10
-43.6863
 20
18.0539
 11
-44.0241
 21
18.4082
  0
LINE
  8
0
 10
-44.0241
 20
18.4082
 11
-44.2887
 21
18.8201
  0
LINE
  8
0
 10
-44.2887
 20
18.8201
 11
-44.4707
 21
19.2745
  0
LINE
  8
0
 10
-44.4707
 20
19.2745
 11
-44.5633
 21
19.7552
  0
LINE
  8
0
 10
-44.5633
 20
19.7552
 11
-44.5633
 21
20.2448
  0
LINE
  8
0
 10
-44.5633
 20
20.2448
 11
-44.4707
 21
20.7254
  0
LINE
  8
0
 10
-44.4707
 20
20.7254
 11
-44.2887
 21
21.1799
  0
LINE
  8
0
 10
-44.2887
 20
21.1799
 11
-44.0241
 21
21.5918
  0
LINE
  8
0
 10
-44.0241
 20
21.5918
 11
-43.6863
 21
21.946
  0
LINE
  8
0
 10
-43.6863
 20
21.946
 11
-43.2875
 21
22.23
  0
LINE
  8
0
 10
-43.2875
 20
22.23
 11
-42.8422
 21
22.4334
  0
LINE
  8
0
 10
-42.8422
 20
22.4334
 11
-42.3665
 21
22.5488
  0
LINE
  8
0
 10
-42.3665
 20
22.5488
 11
-41.8775
 21
22.5721
  0
LINE
  8
0
 10
-41.8775
 20
22.5721
 11
-41.3929
 21
22.5024
  0
LINE
  8
0
 10
-41.3929
 20
22.5024
 11
-40.9303
 21
22.3423
  0
LINE
  8
0
 10
-40.9303
 20
22.3423
 11
-40.5063
 21
22.0975
  0
LINE
  8
0
 10
-40.5063
 20
22.0975
 11
-40.1364
 21
21.7769
  0
LINE
  8
0
 10
-40.1364
 20
21.7769
 11
-39.8338
 21
21.3922
  0
LINE
  8
0
 10
-39.8338
 20
21.3922
 11
-39.6095
 21
20.957
  0
LINE
  8
0
 10
-39.6095
 20
20.957
 11
-39.4715
 21
20.4873
  0
LINE
  8
0
 10
-39.4715
 20
20.4873
 11
-39.425
 21
20
  0
LINE
  8
0
 10
-39.425
 20
20
 11
-39.4715
 21
19.5127
  0
LINE
  8
0
 10
-39.4715
 20
19.5127
 11
-39.6095
 21
19.043
  0
LINE
  8
0
 10
-39.6095
 20
19.043
 11
-39.8338
 21
18.6078
  0
LINE
  8
0
 10
-39.8338
 20
18.6078
 11
-40.1364
 21
18.223
  0
LINE
  8
0
 10
-40.1364
 20
18.223
 11
-40.5063
 21
17.9025
  0
LINE
  8
0
 10
-40.5063
 20
17.9025
 11
-40.9303
 21
17.6577
  0
LINE
  8
0
 10
-40.9303
 20
17.6577
 11
-41.3929
 21
17.4976
  0
LINE
  8
0
 10
-41.3929
 20
17.4976
 11
-41.8775
 21
17.4279
  0
LINE
  8
0
 10
-41.8775
 20
17.4279
 11
-42.3665
 21
17.4512
  0
LINE
  8
0
 10
-62.3665
 20
17.4512
 11
-62.8422
 21
17.5666
  0
LINE
  8
0
 10
-62.8422
 20
17.5666
 11
-63.2875
 21
17.77
  0
LINE
  8
0
 10
-63.2875
 20
17.77
 11
-63.6863
 21
18.0539
  0
LINE
  8
0
 10
-63.6863
 20
18.0539
 11
-64.0241
 21
18.4082
  0
LINE
  8
0
 10
-64.0241
 20
18.4082
 11
-64.2887
 21
18.8201
  0
LINE
  8
0
 10
-64.2887
 20
18.8201
 11
-64.4707
 21
19.2745
  0
LINE
  8
0
 10
-64.4707
 20
19.2745
 11
-64.5633
 21
19.7552
  0
LINE
  8
0
 10
-64.5633
 20
19.7552
 11
-64.5633
 21
20.2448
  0
LINE
  8
0
 10
-64.5633
 20
20.2448
 11
-64.4707
 21
20.7254
  0
LINE
  8
0
 10
-64.4707
 20
20.7254
 11
-64.2887
 21
21.1799
  0
LINE
  8
0
 10
-64.2887
 20
21.1799
 11
-64.0241
 21
21.5918
  0
LINE
  8
0
 10
-64.0241
 20
21.5918
 11
-63.6863
 21
21.946
  0
LINE
  8
0
 10
-63.6863
 20
21.946
 11
-63.2875
 21
22.23
  0
LINE
  8
0
 10
-63.2875
 20
22.23
 11
-62.8422
 21
22.4334
  0
LINE
  8
0
 10
-62.8422
 20
22.4334
 11
-62.3665
 21
22.5488
  0
LINE
  8
0
 10
-62.3665
 20
22.5488
 11
-61.8775
 21
22.5721
  0
LINE
  8
0
 10
-61.8775
 20
22.5721
 11
-61.3929
 21
22.5024
  0
LINE
  8
0
 10
-61.3929
 20
22.5024
 11
-60.9303
 21
22.3423
  0
LINE
  8
0
 10
-60.9303
 20
22.3423
 11
-60.5063
 21
22.0975
  0
LINE
  8
0
 10
-60.5063
 20
22.0975
 11
-60.1364
 21
21.7769
  0
LINE
  8
0
 10
-60.1364
 20
21.7769
 11
-59.8338
 21
21.3922
  0
LINE
  8
0
 10
-59.8338
 20
21.3922
 11
-59.6095
 21
20.957
  0
LINE
  8
0
 10
-59.6095
 20
20.957
 11
-59.4715
 21
20.4873
  0
LINE
  8
0
 10
-59.4715
 20
20.4873
 11
-59.425
 21
20
  0
LINE
  8
0
 10
-59.425
 20
20
 11
-59.4715
 21
19.5127
  0
LINE
  8
0
 10
-59.4715
 20
19.5127
 11
-59.6095
 21
19.043
  0
LINE
  8
0
 10
-59.6095
 20
19.043
 11
-59.8338
 21
18.6078
  0
LINE
  8
0
 10
-59.8338
 20
18.6078
 11
-60.1364
 21
18.223
  0
LINE
  8
0
 10
-60.1364
 20
18.223
 11
-60.5063
 21
17.9025
  0
LINE
  8
0
 10
-60.5063
 20
17.9025
 11
-60.9303
 21
17.6577
  0
LINE
  8
0
 10
-60.9303
 20
17.6577
 11
-61.3929
 21
17.4976
  0
LINE
  8
0
 10
-61.3929
 20
17.4976
 11
-61.8775
 21
17.4279
  0
LINE
  8
0
 10
-61.8775
 20
17.4279
 11
-62.3665
 21
17.4512
  0
LINE
  8
0
 10
-82.3665
 20
17.4512
 11
-82.8422
 21
17.5666
  0
LINE
  8
0
 10
-82.8422
 20
17.5666
 11
-83.2875
 21
17.77
  0
LINE
  8
0
 10
-83.2875
 20
17.77
 11
-83.6863
 21
18.0539
  0
LINE
  8
0
 10
-83.6863
 20
18.0539
 11
-84.0241
 21
18.4082
  0
LINE
  8
0
 10
-84.0241
 20
18.4082
 11
-84.2887
 21
18.8201
  0
LINE
  8
0
 10
-84.2887
 20
18.8201
 11
-84.4707
 21
19.2745
  0
LINE
  8
0
 10
-84.4707
 20
19.2745
 11
-84.5633
 21
19.7552
  0
LINE
  8
0
 10
-84.5633
 20
19.7552
 11
-84.5633
 21
20.2448
  0
LINE
  8
0
 10
-84.5633
 20
20.2448
 11
-84.4707
 21
20.7254
  0
LINE
  8
0
 10
-84.4707
 20
20.7254
 11
-84.2887
 21
21.1799
  0
LINE
  8
0
 10
-84.2887
 20
21.1799
 11
-84.0241
 21
21.5918
  0
LINE
  8
0
 10
-84.0241
 20
21.5918
 11
-83.6863
 21
21.946
  0
LINE
  8
0
 10
-83.6863
 20
21.946
 11
-83.2875
 21
22.23
  0
LINE
  8
0
 10
-83.2875
 20
22.23
 11
-82.8422
 21
22.4334
  0
LINE
  8
0
 10
-82.8422
 20
22.4334
 11
-82.3665
 21
22.5488
  0
LINE
  8
0
 10
-82.3665
 20
22.5488
 11
-81.8775
 21
22.5721
  0
LINE
  8
0
 10
-81.8775
 20
22.5721
 11
-81.3929
 21
22.5024
  0
LINE
  8
0
 10
-81.3929
 20
22.5024
 11
-80.9303
 21
22.3423
  0
LINE
  8
0
 10
-80.9303
 20
22.3423
 11
-80.5063
 21
22.0975
  0
LINE
  8
0
 10
-80.5063
 20
22.0975
 11
-80.1364
 21
21.7769
  0
LINE
  8
0
 10
-80.1364
 20
21.7769
 11
-79.8338
 21
21.3922
  0
LINE
  8
0
 10
-79.8338
 20
21.3922
 11
-79.6095
 21
20.957
  0
LINE
  8
0
 10
-79.6095
 20
20.957
 11
-79.4715
 21
20.4873
  0
LINE
  8
0
 10
-79.4715
 20
20.4873
 11
-79.425
 21
20
  0
LINE
  8
0
 10
-79.425
 20
20
 11
-79.4715
 21
19.5127
  0
LINE
  8
0
 10
-79.4715
 20
19.5127
 11
-79.6095
 21
19.043
  0
LINE
  8
0
 10
-79.6095
 20
19.043
 11
-79.8338
 21
18.6078
  0
LINE
  8
0
 10
-79.8338
 20
18.6078
 11
-80.1364
 21
18.223
  0
LINE
  8
0
 10
-80.1364
 20
18.223
 11
-80.5063
 21
17.9025
  0
LINE
  8
0
 10
-80.5063
 20
17.9025
 11
-80.9303
 21
17.6577
  0
LINE
  8
0
 10
-80.9303
 20
17.6577
 11
-81.3929
 21
17.4976
  0
LINE
  8
0
 10
-81.3929
 20
17.4976
 11
-81.8775
 21
17.4279
  0
LINE
  8
0
 10
-81.8775
 20
17.4279
 11
-82.3665
 21
17.4512
  0
LINE
  8
0
 10
-122.366
 20
-22.5488
 11
-122.842
 21
-22.4334
  0
LINE
  8
0
 10
-122.842
 20
-22.4334
 11
-123.287
 21
-22.23
  0
LINE
  8
0
 10
-123.287
 20
-22.23
 11
-123.686
 21
-21.946
  0
LINE
  8
0
 10
-123.686
 20
-21.946
 11
-124.024
 21
-21.5918
  0
LINE
  8
0
 10
-124.024
 20
-21.5918
 11
-124.289
 21
-21.1799
  0
LINE
  8
0
 10
-124.289
 20
-21.1799
 11
-124.471
 21
-20.7254
  0
LINE
  8
0
 10
-124.471
 20
-20.7254
 11
-124.563
 21
-20.2448
  0
LINE
  8
0
 10
-124.563
 20
-20.2448
 11
-124.563
 21
-19.7552
  0
LINE
  8
0
 10
-124.563
 20
-19.7552
 11
-124.471
 21
-19.2745
  0
LINE
  8
0
 10
-124.471
 20
-19.2745
 11
-124.289
 21
-18.8201
  0
LINE
  8
0
 10
-124.289
 20
-18.8201
 11
-124.024
 21
-18.4082
  0
LINE
  8
0
 10
-124.024
 20
-18.4082
 11
-123.686
 21
-18.0539
  0
LINE
  8
0
 10
-123.686
 20
-18.0539
 11
-123.287
 21
-17.77
  0
LINE
  8
0
 10
-123.287
 20
-17.77
 11
-122.842
 21
-17.5666
  0
LINE
  8
0
 10
-122.842
 20
-17.5666
 11
-122.366
 21
-17.4512
  0
LINE
  8
0
 10
-122.366
 20
-17.4512
 11
-121.877
 21
-17.4279
  0
LINE
  8
0
 10
-121.877
 20
-17.4279
 11
-121.393
 21
-17.4976
  0
LINE
  8
0
 10
-121.393
 20
-17.4976
 11
-120.93
 21
-17.6577
  0
LINE
  8
0
 10
-120.93
 20
-17.6577
 11
-120.506
 21
-17.9025
  0
LINE
  8
0
 10
-120.506
 20
-17.9025
 11
-120.136
 21
-18.223
  0
LINE
  8
0
 10
-120.136
 20
-18.223
 11
-119.834
 21
-18.6078
  0
LINE
  8
0
 10
-119.834
 20
-18.6078
 11
-119.609
 21
-19.043
  0
LINE
  8
0
 10
-119.609
 20
-19.043
 11
-119.472
 21
-19.5127
  0
LINE
  8
0
 10
-119.472
 20
-19.5127
 11
-119.425
 21
-20
  0
LINE
  8
0
 10
-119.425
 20
-20
 11
-119.472
 21
-20.4873
  0
LINE
  8
0
 10
-119.472
 20
-20.4873
 11
-119.609
 21
-20.957
  0
LINE
  8
0
 10
-119.609
 20
-20.957
 11
-119.834
 21
-21.3922
  0
LINE
  8
0
 10
-119.834
 20
-21.3922
 11
-120.136
 21
-21.7769
  0
LINE
  8
0
 10
-120.136
 20
-21.7769
 11
-120.506
 21
-22.0975
  0
LINE
  8
0
 10
-120.506
 20
-22.0975
 11
-120.93
 21
-22.3423
  0
LINE
  8
0
 10
-120.93
 20
-22.3423
 11
-121.393
 21
-22.5024
  0
LINE
  8
0
 10
-121.393
 20
-22.5024
 11
-121.877
 21
-22.5721
  0
LINE
  8
0
 10
-121.877
 20
-22.5721
 11
-122.366
 21
-22.5488
  0
LINE
  8
0
 10
-102.366
 20
-22.5488
 11
-102.842
 21
-22.4334
  0
LINE
  8
0
 10
-102.842
 20
-22.4334
 11
-103.287
 21
-22.23
  0
LINE
  8
0
 10
-103.287
 20
-22.23
 11
-103.686
 21
-21.946
  0
LINE
  8
0
 10
-103.686
 20
-21.946
 11
-104.024
 21
-21.5918
  0
LINE
  8
0
 10
-104.024
 20
-21.5918
 11
-104.289
 21
-21.1799
  0
LINE
  8
0
 10
-104.289
 20
-21.1799
 11
-104.471
 21
-20.7254
  0
LINE
  8
0
 10
-104.471
 20
-20.7254
 11
-104.563
 21
-20.2448
  0
LINE
  8
0
 10
-104.563
 20
-20.2448
 11
-104.563
 21
-19.7552
  0
LINE
  8
0
 10
-104.563
 20
-19.7552
 11
-104.471
 21
-19.2745
  0
LINE
  8
0
 10
-104.471
 20
-19.2745
 11
-104.289
 21
-18.8201
  0
LINE
  8
0
 10
-104.289
 20
-18.8201
 11
-104.024
 21
-18.4082
  0
LINE
  8
0
 10
-104.024
 20
-18.4082
 11
-103.686
 21
-18.0539
  0
LINE
  8
0
 10
-103.686
 20
-18.0539
 11
-103.287
 21
-17.77
  0
LINE
  8
0
 10
-103.287
 20
-17.77
 11
-102.842
 21
-17.5666
  0
LINE
  8
0
 10
-102.842
 20
-17.5666
 11
-102.366
 21
-17.4512
  0
LINE
  8
0
 10
-102.366
 20
-17.4512
 11
-101.877
 21
-17.4279
  0
LINE
  8
0
 10
-101.877
 20
-17.4279
 11
-101.393
 21
-17.4976
  0
LINE
  8
0
 10
-101.393
 20
-17.4976
 11
-100.93
 21
-17.6577
  0
LINE
  8
0
 10
-100.93
 20
-17.6577
 11
-100.506
 21
-17.9025
  0
LINE
  8
0
 10
-100.506
 20
-17.9025
 11
-100.136
 21
-18.223
  0
LINE
  8
0
 10
-100.136
 20
-18.223
 11
-99.8338
 21
-18.6078
  0
LINE
  8
0
 10
-99.8338
 20
-18.6078
 11
-99.6095
 21
-19.043
  0
LINE
  8
0
 10
-99.6095
 20
-19.043
 11
-99.4715
 21
-19.5127
  0
LINE
  8
0
 10
-99.4715
 20
-19.5127
 11
-99.425
 21
-20
  0
LINE
  8
0
 10
-99.425
 20
-20
 11
-99.4715
 21
-20.4873
  0
LINE
  8
0
 10
-99.4715
 20
-20.4873
 11
-99.6095
 21
-20.957
  0
LINE
  8
0
 10
-99.6095
 20
-20.957
 11
-99.8338
 21
-21.3922
  0
LINE
  8
0
 10
-99.8338
 20
-21.3922
 11
-100.136
 21
-21.7769
  0
LINE
  8
0
 10
-100.136
 20
-21.7769
 11
-100.506
 21
-22.0975
  0
LINE
  8
0
 10
-100.506
 20
-22.0975
 11
-100.93
 21
-22.3423
  0
LINE
  8
0
 10
-100.93
 20
-22.3423
 11
-101.393
 21
-22.5024
  0
LINE
  8
0
 10
-101.393
 20
-22.5024
 11
-101.877
 21
-22.5721
  0
LINE
  8
0
 10
-101.877
 20
-22.5721
 11
-102.366
 21
-22.5488
  0
LINE
  8
0
 10
-82.3665
 20
-22.5488
 11
-82.8422
 21
-22.4334
  0
LINE
  8
0
 10
-82.8422
 20
-22.4334
 11
-83.2875
 21
-22.23
  0
LINE
  8
0
 10
-83.2875
 20
-22.23
 11
-83.6863
 21
-21.946
  0
LINE
  8
0
 10
-83.6863
 20
-21.946
 11
-84.0241
 21
-21.5918
  0
LINE
  8
0
 10
-84.0241
 20
-21.5918
 11
-84.2887
 21
-21.1799
  0
LINE
  8
0
 10
-84.2887
 20
-21.1799
 11
-84.4707
 21
-20.7254
  0
LINE
  8
0
 10
-84.4707
 20
-20.7254
 11
-84.5633
 21
-20.2448
  0
LINE
  8
0
 10
-84.5633
 20
-20.2448
 11
-84.5633
 21
-19.7552
  0
LINE
  8
0
 10
-84.5633
 20
-19.7552
 11
-84.4707
 21
-19.2745
  0
LINE
  8
0
 10
-84.4707
 20
-19.2745
 11
-84.2887
 21
-18.8201
  0
LINE
  8
0
 10
-84.2887
 20
-18.8201
 11
-84.0241
 21
-18.4082
  0
LINE
  8
0
 10
-84.0241
 20
-18.4082
 11
-83.6863
 21
-18.0539
  0
LINE
  8
0
 10
-83.6863
 20
-18.0539
 11
-83.2875
 21
-17.77
  0
LINE
  8
0
 10
-83.2875
 20
-17.77
 11
-82.8422
 21
-17.5666
  0
LINE
  8
0
 10
-82.8422
 20
-17.5666
 11
-82.3665
 21
-17.4512
  0
LINE
  8
0
 10
-82.3665
 20
-17.4512
 11
-81.8775
 21
-17.4279
  0
LINE
  8
0
 10
-81.8775
 20
-17.4279
 11
-81.3929
 21
-17.4976
  0
LINE
  8
0
 10
-81.3929
 20
-17.4976
 11
-80.9303
 21
-17.6577
  0
LINE
  8
0
 10
-80.9303
 20
-17.6577
 11
-80.5063
 21
-17.9025
  0
LINE
  8
0
 10
-80.5063
 20
-17.9025
 11
-80.1364
 21
-18.223
  0
LINE
  8
0
 10
-80.1364
 20
-18.223
 11
-79.8338
 21
-18.6078
  0
LINE
  8
0
 10
-79.8338
 20
-18.6078
 11
-79.6095
 21
-19.043
  0
LINE
  8
0
 10
-79.6095
 20
-19.043
 11
-79.4715
 21
-19.5127
  0
LINE
  8
0
 10
-79.4715
 20
-19.5127
 11
-79.425
 21
-20
  0
LINE
  8
0
 10
-79.425
 20
-20
 11
-79.4715
 21
-20.4873
  0
LINE
  8
0
 10
-79.4715
 20
-20.4873
 11
-79.6095
 21
-20.957
  0
LINE
  8
0
 10
-79.6095
 20
-20.957
 11
-79.8338
 21
-21.3922
  0
LINE
  8
0
 10
-79.8338
 20
-21.3922
 11
-80.1364
 21
-21.7769
  0
LINE
  8
0
 10
-80.1364
 20
-21.7769
 11
-80.5063
 21
-22.0975
  0
LINE
  8
0
 10
-80.5063
 20
-22.0975
 11
-80.9303
 21
-22.3423
  0
LINE
  8
0
 10
-80.9303
 20
-22.3423
 11
-81.3929
 21
-22.5024
  0
LINE
  8
0
 10
-81.3929
 20
-22.5024
 11
-81.8775
 21
-22.5721
  0
LINE
  8
0
 10
-81.8775
 20
-22.5721
 11
-82.3665
 21
-22.5488
  0
LINE
  8
0
 10
-62.3665
 20
-22.5488
 11
-62.8422
 21
-22.4334
  0
LINE
  8
0
 10
-62.8422
 20
-22.4334
 11
-63.2875
 21
-22.23
  0
LINE
  8
0
 10
-63.2875
 20
-22.23
 11
-63.6863
 21
-21.946
  0
LINE
  8
0
 10
-63.6863
 20
-21.946
 11
-64.0241
 21
-21.5918
  0
LINE
  8
0
 10
-64.0241
 20
-21.5918
 11
-64.2887
 21
-21.1799
  0
LINE
  8
0
 10
-64.2887
 20
-21.1799
 11
-64.4707
 21
-20.7254
  0
LINE
  8
0
 10
-64.4707
 20
-20.7254
 11
-64.5633
 21
-20.2448
  0
LINE
  8
0
 10
-64.5633
 20
-20.2448
 11
-64.5633
 21
-19.7552
  0
LINE
  8
0
 10
-64.5633
 20
-19.7552
 11
-64.4707
 21
-19.2745
  0
LINE
  8
0
 10
-64.4707
 20
-19.2745
 11
-64.2887
 21
-18.8201
  0
LINE
  8
0
 10
-64.2887
 20
-18.8201
 11
-64.0241
 21
-18.4082
  0
LINE
  8
0
 10
-64.0241
 20
-18.4082
 11
-63.6863
 21
-18.0539
  0
LINE
  8
0
 10
-63.6863
 20
-18.0539
 11
-63.2875
 21
-17.77
  0
LINE
  8
0
 10
-63.2875
 20
-17.77
 11
-62.8422
 21
-17.5666
  0
LINE
  8
0
 10
-62.8422
 20
-17.5666
 11
-62.3665
 21
-17.4512
  0
LINE
  8
0
 10
-62.3665
 20
-17.4512
 11
-61.8775
 21
-17.4279
  0
LINE
  8
0
 10
-61.8775
 20
-17.4279
 11
-61.3929
 21
-17.4976
  0
LINE
  8
0
 10
-61.3929
 20
-17.4976
 11
-60.9303
 21
-17.6577
  0
LINE
  8
0
 10
-60.9303
 20
-17.6577
 11
-60.5063
 21
-17.9025
  0
LINE
  8
0
 10
-60.5063
 20
-17.9025
 11
-60.1364
 21
-18.223
  0
LINE
  8
0
 10
-60.1364
 20
-18.223
 11
-59.8338
 21
-18.6078
  0
LINE
  8
0
 10
-59.8338
 20
-18.6078
 11
-59.6095
 21
-19.043
  0
LINE
  8
0
 10
-59.6095
 20
-19.043
 11
-59.4715
 21
-19.5127
  0
LINE
  8
0
 10
-59.4715
 20
-19.5127
 11
-59.425
 21
-20
  0
LINE
  8
0
 10
-59.425
 20
-20
 11
-59.4715
 21
-20.4873
  0
LINE
  8
0
 10
-59.4715
 20
-20.4873
 11
-59.6095
 21
-20.957
  0
LINE
  8
0
 10
-59.6095
 20
-20.957
 11
-59.8338
 21
-21.3922
  0
LINE
  8
0
 10
-59.8338
 20
-21.3922
 11
-60.1364
 21
-21.7769
  0
LINE
  8
0
 10
-60.1364
 20
-21.7769
 11
-60.5063
 21
-22.0975
  0
LINE
  8
0
 10
-60.5063
 20
-22.0975
 11
-60.9303
 21
-22.3423
  0
LINE
  8
0
 10
-60.9303
 20
-22.3423
 11
-61.3929
 21
-22.5024
  0
LINE
  8
0
 10
-61.3929
 20
-22.5024
 11
-61.8775
 21
-22.5721
  0
LINE
  8
0
 10
-61.8775
 20
-22.5721
 11
-62.3665
 21
-22.5488
  0
LINE
  8
0
 10
-42.3665
 20
-22.5488
 11
-42.8422
 21
-22.4334
  0
LINE
  8
0
 10
-42.8422
 20
-22.4334
 11
-43.2875
 21
-22.23
  0
LINE
  8
0
 10
-43.2875
 20
-22.23
 11
-43.6863
 21
-21.946
  0
LINE
  8
0
 10
-43.6863
 20
-21.946
 11
-44.0241
 21
-21.5918
  0
LINE
  8
0
 10
-44.0241
 20
-21.5918
 11
-44.2887
 21
-21.1799
  0
LINE
  8
0
 10
-44.2887
 20
-21.1799
 11
-44.4707
 21
-20.7254
  0
LINE
  8
0
 10
-44.4707
 20
-20.7254
 11
-44.5633
 21
-20.2448
  0
LINE
  8
0
 10
-44.5633
 20
-20.2448
 11
-44.5633
 21
-19.7552
  0
LINE
  8
0
 10
-44.5633
 20
-19.7552
 11
-44.4707
 21
-19.2745
  0
LINE
  8
0
 10
-44.4707
 20
-19.2745
 11
-44.2887
 21
-18.8201
  0
LINE
  8
0
 10
-44.2887
 20
-18.8201
 11
-44.0241
 21
-18.4082
  0
LINE
  8
0
 10
-44.0241
 20
-18.4082
 11
-43.6863
 21
-18.0539
  0
LINE
  8
0
 10
-43.6863
 20
-18.0539
 11
-43.2875
 21
-17.77
  0
LINE
  8
0
 10
-43.2875
 20
-17.77
 11
-42.8422
 21
-17.5666
  0
LINE
  8
0
 10
-42.8422
 20
-17.5666
 11
-42.3665
 21
-17.4512
  0
LINE
  8
0
 10
-42.3665
 20
-17.4512
 11
-41.8775
 21
-17.4279
  0
LINE
  8
0
 10
-41.8775
 20
-17.4279
 11
-41.3929
 21
-17.4976
  0
LINE
  8
0
 10
-41.3929
 20
-17.4976
 11
-40.9303
 21
-17.6577
  0
LINE
  8
0
 10
-40.9303
 20
-17.6577
 11
-40.5063
 21
-17.9025
  0
LINE
  8
0
 10
-40.5063
 20
-17.9025
 11
-40.1364
 21
-18.223
  0
LINE
  8
0
 10
-40.1364
 20
-18.223
 11
-39.8338
 21
-18.6078
  0
LINE
  8
0
 10
-39.8338
 20
-18.6078
 11
-39.6095
 21
-19.043
  0
LINE
  8
0
 10
-39.6095
 20
-19.043
 11
-39.4715
 21
-19.5127
  0
LINE
  8
0
 10
-39.4715
 20
-19.5127
 11
-39.425
 21
-20
  0
LINE
  8
0
 10
-39.425
 20
-20
 11
-39.4715
 21
-20.4873
  0
LINE
  8
0
 10
-39.4715
 20
-20.4873
 11
-39.6095
 21
-20.957
  0
LINE
  8
0
 10
-39.6095
 20
-20.957
 11
-39.8338
 21
-21.3922
  0
LINE
  8
0
 10
-39.8338
 20
-21.3922
 11
-40.1364
 21
-21.7769
  0
LINE
  8
0
 10
-40.1364
 20
-21.7769
 11
-40.5063
 21
-22.0975
  0
LINE
  8
0
 10
-40.5063
 20
-22.0975
 11
-40.9303
 21
-22.3423
  0
LINE
  8
0
 10
-40.9303
 20
-22.3423
 11
-41.3929
 21
-22.5024
  0
LINE
  8
0
 10
-41.3929
 20
-22.5024
 11
-41.8775
 21
-22.5721
  0
LINE
  8
0
 10
-41.8775
 20
-22.5721
 11
-42.3665
 21
-22.5488
  0
LINE
  8
0
 10
-22.3665
 20
-22.5488
 11
-22.8422
 21
-22.4334
  0
LINE
  8
0
 10
-22.8422
 20
-22.4334
 11
-23.2875
 21
-22.23
  0
LINE
  8
0
 10
-23.2875
 20
-22.23
 11
-23.6863
 21
-21.946
  0
LINE
  8
0
 10
-23.6863
 20
-21.946
 11
-24.0241
 21
-21.5918
  0
LINE
  8
0
 10
-24.0241
 20
-21.5918
 11
-24.2887
 21
-21.1799
  0
LINE
  8
0
 10
-24.2887
 20
-21.1799
 11
-24.4707
 21
-20.7254
  0
LINE
  8
0
 10
-24.4707
 20
-20.7254
 11
-24.5633
 21
-20.2448
  0
LINE
  8
0
 10
-24.5633
 20
-20.2448
 11
-24.5633
 21
-19.7552
  0
LINE
  8
0
 10
-24.5633
 20
-19.7552
 11
-24.4707
 21
-19.2745
  0
LINE
  8
0
 10
-24.4707
 20
-19.2745
 11
-24.2887
 21
-18.8201
  0
LINE
  8
0
 10
-24.2887
 20
-18.8201
 11
-24.0241
 21
-18.4082
  0
LINE
  8
0
 10
-24.0241
 20
-18.4082
 11
-23.6863
 21
-18.0539
  0
LINE
  8
0
 10
-23.6863
 20
-18.0539
 11
-23.2875
 21
-17.77
  0
LINE
  8
0
 10
-23.2875
 20
-17.77
 11
-22.8422
 21
-17.5666
  0
LINE
  8
0
 10
-22.8422
 20
-17.5666
 11
-22.3665
 21
-17.4512
  0
LINE
  8
0
 10
-22.3665
 20
-17.4512
 11
-21.8775
 21
-17.4279
  0
LINE
  8
0
 10
-21.8775
 20
-17.4279
 11
-21.3929
 21
-17.4976
  0
LINE
  8
0
 10
-21.3929
 20
-17.4976
 11
-20.9303
 21
-17.6577
  0
LINE
  8
0
 10
-20.9303
 20
-17.6577
 11
-20.5063
 21
-17.9025
  0
LINE
  8
0
 10
-20.5063
 20
-17.9025
 11
-20.1364
 21
-18.223
  0
LINE
  8
0
 10
-20.1364
 20
-18.223
 11
-19.8338
 21
-18.6078
  0
LINE
  8
0
 10
-19.8338
 20
-18.6078
 11
-19.6095
 21
-19.043
  0
LINE
  8
0
 10
-19.6095
 20
-19.043
 11
-19.4715
 21
-19.5127
  0
LINE
  8
0
 10
-19.4715
 20
-19.5127
 11
-19.425
 21
-20
  0
LINE
  8
0
 10
-19.425
 20
-20
 11
-19.4715
 21
-20.4873
  0
LINE
  8
0
 10
-19.4715
 20
-20.4873
 11
-19.6095
 21
-20.957
  0
LINE
  8
0
 10
-19.6095
 20
-20.957
 11
-19.8338
 21
-21.3922
  0
LINE
  8
0
 10
-19.8338
 20
-21.3922
 11
-20.1364
 21
-21.7769
  0
LINE
  8
0
 10
-20.1364
 20
-21.7769
 11
-20.5063
 21
-22.0975
  0
LINE
  8
0
 10
-20.5063
 20
-22.0975
 11
-20.9303
 21
-22.3423
  0
LINE
  8
0
 10
-20.9303
 20
-22.3423
 11
-21.3929
 21
-22.5024
  0
LINE
  8
0
 10
-21.3929
 20
-22.5024
 11
-21.8775
 21
-22.5721
  0
LINE
  8
0
 10
-21.8775
 20
-22.5721
 11
-22.3665
 21
-22.5488
  0
ENDSEC
  0
SECTION
  2
OBJECTS
  0
DICTIONARY
  0
ENDSEC
  0
EOF
