  0
SECTION
  2
BLOCKS
  0
ENDSEC
  0
SECTION
  2
ENTITIES
  0
LINE
  8
0
 10
100.747
 20
-29.972
 11
101.243
 21
-29.9224
  0
LINE
  8
0
 10
101.243
 20
-29.9224
 11
101.736
 21
-29.8481
  0
LINE
  8
0
 10
101.736
 20
-29.8481
 11
102.225
 21
-29.7493
  0
LINE
  8
0
 10
102.225
 20
-29.7493
 11
102.708
 21
-29.6262
  0
LINE
  8
0
 10
102.708
 20
-29.6262
 11
103.185
 21
-29.4793
  0
LINE
  8
0
 10
103.185
 20
-29.4793
 11
103.653
 21
-29.3087
  0
LINE
  8
0
 10
103.653
 20
-29.3087
 11
104.113
 21
-29.1151
  0
LINE
  8
0
 10
104.113
 20
-29.1151
 11
104.562
 21
-28.8987
  0
LINE
  8
0
 10
104.562
 20
-28.8987
 11
105
 21
-28.6602
  0
LINE
  8
0
 10
105
 20
-28.6602
 11
105.425
 21
-28.4003
  0
LINE
  8
0
 10
105.425
 20
-28.4003
 11
105.837
 21
-28.1194
  0
LINE
  8
0
 10
105.837
 20
-28.1194
 11
106.235
 21
-27.8183
  0
LINE
  8
0
 10
106.235
 20
-27.8183
 11
106.617
 21
-27.4978
  0
LINE
  8
0
 10
106.617
 20
-27.4978
 11
106.982
 21
-27.1587
  0
LINE
  8
0
 10
106.982
 20
-27.1587
 11
107.331
 21
-26.8017
  0
LINE
  8
0
 10
107.331
 20
-26.8017
 11
107.66
 21
-26.4279
  0
LINE
  8
0
 10
107.66
 20
-26.4279
 11
107.971
 21
-26.038
  0
LINE
  8
0
 10
107.971
 20
-26.038
 11
108.262
 21
-25.6332
  0
LINE
  8
0
 10
108.262
 20
-25.6332
 11
108.533
 21
-25.2143
  0
LINE
  8
0
 10
108.533
 20
-25.2143
 11
108.782
 21
-24.7825
  0
LINE
  8
0
 10
108.782
 20
-24.7825
 11
109.01
 21
-24.3388
  0
LINE
  8
0
 10
109.01
 20
-24.3388
 11
109.215
 21
-23.8843
  0
LINE
  8
0
 10
109.215
 20
-23.8843
 11
109.397
 21
-23.4202
  0
LINE
  8
0
 10
109.397
 20
-23.4202
 11
109.556
 21
-22.9475
  0
LINE
  8
0
 10
109.556
 20
-22.9475
 11
109.691
 21
-22.4676
  0
LINE
  8
0
 10
109.691
 20
-22.4676
 11
109.802
 21
-21.9815
  0
LINE
  8
0
 10
109.802
 20
-21.9815
 11
109.888
 21
-21.4904
  0
LINE
  8
0
 10
109.888
 20
-21.4904
 11
109.95
 21
-20.9957
  0
LINE
  8
0
 10
109.95
 20
-20.9957
 11
109.988
 21
-20.4985
  0
LINE
  8
0
 10
109.988
 20
-20.4985
 11
110
 21
-20
  0
LINE
  8
0
 10
110
 20
-20
 11
110
 21
20
  0
LINE
  8
0
 10
110
 20
20
 11
109.988
 21
20.4985
  0
LINE
  8
0
 10
109.988
 20
20.4985
 11
109.95
 21
20.9957
  0
LINE
  8
0
 10
109.95
 20
20.9957
 11
109.888
 21
21.4904
  0
LINE
  8
0
 10
109.888
 20
21.4904
 11
109.802
 21
21.9815
  0
LINE
  8
0
 10
109.802
 20
21.9815
 11
109.691
 21
22.4676
  0
LINE
  8
0
 10
109.691
 20
22.4676
 11
109.556
 21
22.9475
  0
LINE
  8
0
 10
109.556
 20
22.9475
 11
109.397
 21
23.4202
  0
LINE
  8
0
 10
109.397
 20
23.4202
 11
109.215
 21
23.8843
  0
LINE
  8
0
 10
109.215
 20
23.8843
 11
109.01
 21
24.3388
  0
LINE
  8
0
 10
109.01
 20
24.3388
 11
108.782
 21
24.7825
  0
LINE
  8
0
 10
108.782
 20
24.7825
 11
108.533
 21
25.2143
  0
LINE
  8
0
 10
108.533
 20
25.2143
 11
108.262
 21
25.6332
  0
LINE
  8
0
 10
108.262
 20
25.6332
 11
107.971
 21
26.038
  0
LINE
  8
0
 10
107.971
 20
26.038
 11
107.66
 21
26.4279
  0
LINE
  8
0
 10
107.66
 20
26.4279
 11
107.331
 21
26.8017
  0
LINE
  8
0
 10
107.331
 20
26.8017
 11
106.982
 21
27.1587
  0
LINE
  8
0
 10
106.982
 20
27.1587
 11
106.617
 21
27.4978
  0
LINE
  8
0
 10
106.617
 20
27.4978
 11
106.235
 21
27.8183
  0
LINE
  8
0
 10
106.235
 20
27.8183
 11
105.837
 21
28.1194
  0
LINE
  8
0
 10
105.837
 20
28.1194
 11
105.425
 21
28.4003
  0
LINE
  8
0
 10
105.425
 20
28.4003
 11
105
 21
28.6602
  0
LINE
  8
0
 10
105
 20
28.6602
 11
104.562
 21
28.8987
  0
LINE
  8
0
 10
104.562
 20
28.8987
 11
104.113
 21
29.1151
  0
LINE
  8
0
 10
104.113
 20
29.1151
 11
103.653
 21
29.3087
  0
LINE
  8
0
 10
103.653
 20
29.3087
 11
103.185
 21
29.4793
  0
LINE
  8
0
 10
103.185
 20
29.4793
 11
102.708
 21
29.6262
  0
LINE
  8
0
 10
102.708
 20
29.6262
 11
102.225
 21
29.7493
  0
LINE
  8
0
 10
102.225
 20
29.7493
 11
101.736
 21
29.8481
  0
LINE
  8
0
 10
101.736
 20
29.8481
 11
101.243
 21
29.9224
  0
LINE
  8
0
 10
101.243
 20
29.9224
 11
100.747
 21
29.972
  0
LINE
  8
0
 10
100.747
 20
29.972
 11
100.249
 21
29.9969
  0
LINE
  8
0
 10
100.249
 20
29.9969
 11
19.7507
 21
29.9969
  0
LINE
  8
0
 10
19.7507
 20
29.9969
 11
19.2527
 21
29.972
  0
LINE
  8
0
 10
19.2527
 20
29.972
 11
18.7566
 21
29.9224
  0
LINE
  8
0
 10
18.7566
 20
29.9224
 11
18.2635
 21
29.8481
  0
LINE
  8
0
 10
18.2635
 20
29.8481
 11
17.7748
 21
29.7493
  0
LINE
  8
0
 10
17.7748
 20
29.7493
 11
17.2916
 21
29.6262
  0
LINE
  8
0
 10
17.2916
 20
29.6262
 11
16.8151
 21
29.4793
  0
LINE
  8
0
 10
16.8151
 20
29.4793
 11
16.3466
 21
29.3087
  0
LINE
  8
0
 10
16.3466
 20
29.3087
 11
15.8871
 21
29.1151
  0
LINE
  8
0
 10
15.8871
 20
29.1151
 11
15.4379
 21
28.8987
  0
LINE
  8
0
 10
15.4379
 20
28.8987
 11
15
 21
28.6602
  0
LINE
  8
0
 10
15
 20
28.6602
 11
14.5745
 21
28.4003
  0
LINE
  8
0
 10
14.5745
 20
28.4003
 11
14.1626
 21
28.1194
  0
LINE
  8
0
 10
14.1626
 20
28.1194
 11
13.7651
 21
27.8183
  0
LINE
  8
0
 10
13.7651
 20
27.8183
 11
13.3831
 21
27.4978
  0
LINE
  8
0
 10
13.3831
 20
27.4978
 11
13.0176
 21
27.1587
  0
LINE
  8
0
 10
13.0176
 20
27.1587
 11
12.6695
 21
26.8017
  0
LINE
  8
0
 10
12.6695
 20
26.8017
 11
12.3396
 21
26.4279
  0
LINE
  8
0
 10
12.3396
 20
26.4279
 11
12.0287
 21
26.038
  0
LINE
  8
0
 10
12.0287
 20
26.038
 11
11.7376
 21
25.6332
  0
LINE
  8
0
 10
11.7376
 20
25.6332
 11
11.4671
 21
25.2143
  0
LINE
  8
0
 10
11.4671
 20
25.2143
 11
11.2178
 21
24.7825
  0
LINE
  8
0
 10
11.2178
 20
24.7825
 11
10.9903
 21
24.3388
  0
LINE
  8
0
 10
10.9903
 20
24.3388
 11
10.7852
 21
23.8843
  0
LINE
  8
0
 10
10.7852
 20
23.8843
 11
10.6031
 21
23.4202
  0
LINE
  8
0
 10
10.6031
 20
23.4202
 11
10.4443
 21
22.9475
  0
LINE
  8
0
 10
10.4443
 20
22.9475
 11
10.3092
 21
22.4676
  0
LINE
  8
0
 10
10.3092
 20
22.4676
 11
10.1983
 21
21.9815
  0
LINE
  8
0
 10
10.1983
 20
21.9815
 11
10.1117
 21
21.4904
  0
LINE
  8
0
 10
10.1117
 20
21.4904
 11
10.0497
 21
20.9957
  0
LINE
  8
0
 10
10.0497
 20
20.9957
 11
10.0124
 21
20.4985
  0
LINE
  8
0
 10
10.0124
 20
20.4985
 11
10
 21
20
  0
LINE
  8
0
 10
10
 20
20
 11
10
 21
-20
  0
LINE
  8
0
 10
10
 20
-20
 11
10.0124
 21
-20.4985
  0
LINE
  8
0
 10
10.0124
 20
-20.4985
 11
10.0497
 21
-20.9957
  0
LINE
  8
0
 10
10.0497
 20
-20.9957
 11
10.1117
 21
-21.4904
  0
LINE
  8
0
 10
10.1117
 20
-21.4904
 11
10.1983
 21
-21.9815
  0
LINE
  8
0
 10
10.1983
 20
-21.9815
 11
10.3092
 21
-22.4676
  0
LINE
  8
0
 10
10.3092
 20
-22.4676
 11
10.4443
 21
-22.9475
  0
LINE
  8
0
 10
10.4443
 20
-22.9475
 11
10.6031
 21
-23.4202
  0
LINE
  8
0
 10
10.6031
 20
-23.4202
 11
10.7852
 21
-23.8843
  0
LINE
  8
0
 10
10.7852
 20
-23.8843
 11
10.9903
 21
-24.3388
  0
LINE
  8
0
 10
10.9903
 20
-24.3388
 11
11.2178
 21
-24.7825
  0
LINE
  8
0
 10
11.2178
 20
-24.7825
 11
11.4671
 21
-25.2143
  0
LINE
  8
0
 10
11.4671
 20
-25.2143
 11
11.7376
 21
-25.6332
  0
LINE
  8
0
 10
11.7376
 20
-25.6332
 11
12.0287
 21
-26.038
  0
LINE
  8
0
 10
12.0287
 20
-26.038
 11
12.3396
 21
-26.4279
  0
LINE
  8
0
 10
12.3396
 20
-26.4279
 11
12.6695
 21
-26.8017
  0
LINE
  8
0
 10
12.6695
 20
-26.8017
 11
13.0176
 21
-27.1587
  0
LINE
  8
0
 10
13.0176
 20
-27.1587
 11
13.3831
 21
-27.4978
  0
LINE
  8
0
 10
13.3831
 20
-27.4978
 11
13.7651
 21
-27.8183
  0
LINE
  8
0
 10
13.7651
 20
-27.8183
 11
14.1626
 21
-28.1194
  0
LINE
  8
0
 10
14.1626
 20
-28.1194
 11
14.5745
 21
-28.4003
  0
LINE
  8
0
 10
14.5745
 20
-28.4003
 11
15
 21
-28.6602
  0
LINE
  8
0
 10
15
 20
-28.6602
 11
15.4379
 21
-28.8987
  0
LINE
  8
0
 10
15.4379
 20
-28.8987
 11
15.8871
 21
-29.1151
  0
LINE
  8
0
 10
15.8871
 20
-29.1151
 11
16.3466
 21
-29.3087
  0
LINE
  8
0
 10
16.3466
 20
-29.3087
 11
16.8151
 21
-29.4793
  0
LINE
  8
0
 10
16.8151
 20
-29.4793
 11
17.2916
 21
-29.6262
  0
LINE
  8
0
 10
17.2916
 20
-29.6262
 11
17.7748
 21
-29.7493
  0
LINE
  8
0
 10
17.7748
 20
-29.7493
 11
18.2635
 21
-29.8481
  0
LINE
  8
0
 10
18.2635
 20
-29.8481
 11
18.7566
 21
-29.9224
  0
LINE
  8
0
 10
18.7566
 20
-29.9224
 11
19.2527
 21
-29.972
  0
LINE
  8
0
 10
19.2527
 20
-29.972
 11
19.7507
 21
-29.9969
  0
LINE
  8
0
 10
19.7507
 20
-29.9969
 11
100.249
 21
-29.9969
  0
LINE
  8
0
 10
100.249
 20
-29.9969
 11
100.747
 21
-29.972
  0
LINE
  8
0
 10
59.6335
 20
17.4512
 11
59.1578
 21
17.5666
  0
LINE
  8
0
 10
59.1578
 20
17.5666
 11
58.7125
 21
17.77
  0
LINE
  8
0
 10
58.7125
 20
17.77
 11
58.3137
 21
18.0539
  0
LINE
  8
0
 10
58.3137
 20
18.0539
 11
57.9759
 21
18.4082
  0
LINE
  8
0
 10
57.9759
 20
18.4082
 11
57.7112
 21
18.8201
  0
LINE
  8
0
 10
57.7112
 20
18.8201
 11
57.5293
 21
19.2745
  0
LINE
  8
0
 10
57.5293
 20
19.2745
 11
57.4367
 21
19.7552
  0
LINE
  8
0
 10
57.4367
 20
19.7552
 11
57.4367
 21
20.2448
  0
LINE
  8
0
 10
57.4367
 20
20.2448
 11
57.5293
 21
20.7254
  0
LINE
  8
0
 10
57.5293
 20
20.7254
 11
57.7112
 21
21.1799
  0
LINE
  8
0
 10
57.7112
 20
21.1799
 11
57.9759
 21
21.5918
  0
LINE
  8
0
 10
57.9759
 20
21.5918
 11
58.3137
 21
21.946
  0
LINE
  8
0
 10
58.3137
 20
21.946
 11
58.7125
 21
22.23
  0
LINE
  8
0
 10
58.7125
 20
22.23
 11
59.1578
 21
22.4334
  0
LINE
  8
0
 10
59.1578
 20
22.4334
 11
59.6335
 21
22.5488
  0
LINE
  8
0
 10
59.6335
 20
22.5488
 11
60.1225
 21
22.5721
  0
LINE
  8
0
 10
60.1225
 20
22.5721
 11
60.6071
 21
22.5024
  0
LINE
  8
0
 10
60.6071
 20
22.5024
 11
61.0697
 21
22.3423
  0
LINE
  8
0
 10
61.0697
 20
22.3423
 11
61.4936
 21
22.0975
  0
LINE
  8
0
 10
61.4936
 20
22.0975
 11
61.8636
 21
21.7769
  0
LINE
  8
0
 10
61.8636
 20
21.7769
 11
62.1662
 21
21.3922
  0
LINE
  8
0
 10
62.1662
 20
21.3922
 11
62.3905
 21
20.957
  0
LINE
  8
0
 10
62.3905
 20
20.957
 11
62.5285
 21
20.4873
  0
LINE
  8
0
 10
62.5285
 20
20.4873
 11
62.575
 21
20
  0
LINE
  8
0
 10
62.575
 20
20
 11
62.5285
 21
19.5127
  0
LINE
  8
0
 10
62.5285
 20
19.5127
 11
62.3905
 21
19.043
  0
LINE
  8
0
 10
62.3905
 20
19.043
 11
62.1662
 21
18.6078
  0
LINE
  8
0
 10
62.1662
 20
18.6078
 11
61.8636
 21
18.223
  0
LINE
  8
0
 10
61.8636
 20
18.223
 11
61.4936
 21
17.9025
  0
LINE
  8
0
 10
61.4936
 20
17.9025
 11
61.0697
 21
17.6577
  0
LINE
  8
0
 10
61.0697
 20
17.6577
 11
60.6071
 21
17.4976
  0
LINE
  8
0
 10
60.6071
 20
17.4976
 11
60.1225
 21
17.4279
  0
LINE
  8
0
 10
60.1225
 20
17.4279
 11
59.6335
 21
17.4512
  0
LINE
  8
0
 10
99.6335
 20
17.4512
 11
99.1578
 21
17.5666
  0
LINE
  8
0
 10
99.1578
 20
17.5666
 11
98.7125
 21
17.77
  0
LINE
  8
0
 10
98.7125
 20
17.77
 11
98.3137
 21
18.0539
  0
LINE
  8
0
 10
98.3137
 20
18.0539
 11
97.9759
 21
18.4082
  0
LINE
  8
0
 10
97.9759
 20
18.4082
 11
97.7112
 21
18.8201
  0
LINE
  8
0
 10
97.7112
 20
18.8201
 11
97.5293
 21
19.2745
  0
LINE
  8
0
 10
97.5293
 20
19.2745
 11
97.4367
 21
19.7552
  0
LINE
  8
0
 10
97.4367
 20
19.7552
 11
97.4367
 21
20.2448
  0
LINE
  8
0
 10
97.4367
 20
20.2448
 11
97.5293
 21
20.7254
  0
LINE
  8
0
 10
97.5293
 20
20.7254
 11
97.7112
 21
21.1799
  0
LINE
  8
0
 10
97.7112
 20
21.1799
 11
97.9759
 21
21.5918
  0
LINE
  8
0
 10
97.9759
 20
21.5918
 11
98.3137
 21
21.946
  0
LINE
  8
0
 10
98.3137
 20
21.946
 11
98.7125
 21
22.23
  0
LINE
  8
0
 10
98.7125
 20
22.23
 11
99.1578
 21
22.4334
  0
LINE
  8
0
 10
99.1578
 20
22.4334
 11
99.6335
 21
22.5488
  0
LINE
  8
0
 10
99.6335
 20
22.5488
 11
100.123
 21
22.5721
  0
LINE
  8
0
 10
100.123
 20
22.5721
 11
100.607
 21
22.5024
  0
LINE
  8
0
 10
100.607
 20
22.5024
 11
101.07
 21
22.3423
  0
LINE
  8
0
 10
101.07
 20
22.3423
 11
101.494
 21
22.0975
  0
LINE
  8
0
 10
101.494
 20
22.0975
 11
101.864
 21
21.7769
  0
LINE
  8
0
 10
101.864
 20
21.7769
 11
102.166
 21
21.3922
  0
LINE
  8
0
 10
102.166
 20
21.3922
 11
102.391
 21
20.957
  0
LINE
  8
0
 10
102.391
 20
20.957
 11
102.528
 21
20.4873
  0
LINE
  8
0
 10
102.528
 20
20.4873
 11
102.575
 21
20
  0
LINE
  8
0
 10
102.575
 20
20
 11
102.528
 21
19.5127
  0
LINE
  8
0
 10
102.528
 20
19.5127
 11
102.391
 21
19.043
  0
LINE
  8
0
 10
102.391
 20
19.043
 11
102.166
 21
18.6078
  0
LINE
  8
0
 10
102.166
 20
18.6078
 11
101.864
 21
18.223
  0
LINE
  8
0
 10
101.864
 20
18.223
 11
101.494
 21
17.9025
  0
LINE
  8
0
 10
101.494
 20
17.9025
 11
101.07
 21
17.6577
  0
LINE
  8
0
 10
101.07
 20
17.6577
 11
100.607
 21
17.4976
  0
LINE
  8
0
 10
100.607
 20
17.4976
 11
100.123
 21
17.4279
  0
LINE
  8
0
 10
100.123
 20
17.4279
 11
99.6335
 21
17.4512
  0
LINE
  8
0
 10
79.6335
 20
17.4512
 11
79.1578
 21
17.5666
  0
LINE
  8
0
 10
79.1578
 20
17.5666
 11
78.7125
 21
17.77
  0
LINE
  8
0
 10
78.7125
 20
17.77
 11
78.3137
 21
18.0539
  0
LINE
  8
0
 10
78.3137
 20
18.0539
 11
77.9759
 21
18.4082
  0
LINE
  8
0
 10
77.9759
 20
18.4082
 11
77.7112
 21
18.8201
  0
LINE
  8
0
 10
77.7112
 20
18.8201
 11
77.5293
 21
19.2745
  0
LINE
  8
0
 10
77.5293
 20
19.2745
 11
77.4367
 21
19.7552
  0
LINE
  8
0
 10
77.4367
 20
19.7552
 11
77.4367
 21
20.2448
  0
LINE
  8
0
 10
77.4367
 20
20.2448
 11
77.5293
 21
20.7254
  0
LINE
  8
0
 10
77.5293
 20
20.7254
 11
77.7112
 21
21.1799
  0
LINE
  8
0
 10
77.7112
 20
21.1799
 11
77.9759
 21
21.5918
  0
LINE
  8
0
 10
77.9759
 20
21.5918
 11
78.3137
 21
21.946
  0
LINE
  8
0
 10
78.3137
 20
21.946
 11
78.7125
 21
22.23
  0
LINE
  8
0
 10
78.7125
 20
22.23
 11
79.1578
 21
22.4334
  0
LINE
  8
0
 10
79.1578
 20
22.4334
 11
79.6335
 21
22.5488
  0
LINE
  8
0
 10
79.6335
 20
22.5488
 11
80.1225
 21
22.5721
  0
LINE
  8
0
 10
80.1225
 20
22.5721
 11
80.6071
 21
22.5024
  0
LINE
  8
0
 10
80.6071
 20
22.5024
 11
81.0697
 21
22.3423
  0
LINE
  8
0
 10
81.0697
 20
22.3423
 11
81.4936
 21
22.0975
  0
LINE
  8
0
 10
81.4936
 20
22.0975
 11
81.8636
 21
21.7769
  0
LINE
  8
0
 10
81.8636
 20
21.7769
 11
82.1662
 21
21.3922
  0
LINE
  8
0
 10
82.1662
 20
21.3922
 11
82.3905
 21
20.957
  0
LINE
  8
0
 10
82.3905
 20
20.957
 11
82.5285
 21
20.4873
  0
LINE
  8
0
 10
82.5285
 20
20.4873
 11
82.575
 21
20
  0
LINE
  8
0
 10
82.575
 20
20
 11
82.5285
 21
19.5127
  0
LINE
  8
0
 10
82.5285
 20
19.5127
 11
82.3905
 21
19.043
  0
LINE
  8
0
 10
82.3905
 20
19.043
 11
82.1662
 21
18.6078
  0
LINE
  8
0
 10
82.1662
 20
18.6078
 11
81.8636
 21
18.223
  0
LINE
  8
0
 10
81.8636
 20
18.223
 11
81.4936
 21
17.9025
  0
LINE
  8
0
 10
81.4936
 20
17.9025
 11
81.0697
 21
17.6577
  0
LINE
  8
0
 10
81.0697
 20
17.6577
 11
80.6071
 21
17.4976
  0
LINE
  8
0
 10
80.6071
 20
17.4976
 11
80.1225
 21
17.4279
  0
LINE
  8
0
 10
80.1225
 20
17.4279
 11
79.6335
 21
17.4512
  0
LINE
  8
0
 10
39.6335
 20
17.4512
 11
39.1578
 21
17.5666
  0
LINE
  8
0
 10
39.1578
 20
17.5666
 11
38.7125
 21
17.77
  0
LINE
  8
0
 10
38.7125
 20
17.77
 11
38.3137
 21
18.0539
  0
LINE
  8
0
 10
38.3137
 20
18.0539
 11
37.9759
 21
18.4082
  0
LINE
  8
0
 10
37.9759
 20
18.4082
 11
37.7112
 21
18.8201
  0
LINE
  8
0
 10
37.7112
 20
18.8201
 11
37.5293
 21
19.2745
  0
LINE
  8
0
 10
37.5293
 20
19.2745
 11
37.4367
 21
19.7552
  0
LINE
  8
0
 10
37.4367
 20
19.7552
 11
37.4367
 21
20.2448
  0
LINE
  8
0
 10
37.4367
 20
20.2448
 11
37.5293
 21
20.7254
  0
LINE
  8
0
 10
37.5293
 20
20.7254
 11
37.7112
 21
21.1799
  0
LINE
  8
0
 10
37.7112
 20
21.1799
 11
37.9759
 21
21.5918
  0
LINE
  8
0
 10
37.9759
 20
21.5918
 11
38.3137
 21
21.946
  0
LINE
  8
0
 10
38.3137
 20
21.946
 11
38.7125
 21
22.23
  0
LINE
  8
0
 10
38.7125
 20
22.23
 11
39.1578
 21
22.4334
  0
LINE
  8
0
 10
39.1578
 20
22.4334
 11
39.6335
 21
22.5488
  0
LINE
  8
0
 10
39.6335
 20
22.5488
 11
40.1225
 21
22.5721
  0
LINE
  8
0
 10
40.1225
 20
22.5721
 11
40.6071
 21
22.5024
  0
LINE
  8
0
 10
40.6071
 20
22.5024
 11
41.0697
 21
22.3423
  0
LINE
  8
0
 10
41.0697
 20
22.3423
 11
41.4936
 21
22.0975
  0
LINE
  8
0
 10
41.4936
 20
22.0975
 11
41.8636
 21
21.7769
  0
LINE
  8
0
 10
41.8636
 20
21.7769
 11
42.1662
 21
21.3922
  0
LINE
  8
0
 10
42.1662
 20
21.3922
 11
42.3905
 21
20.957
  0
LINE
  8
0
 10
42.3905
 20
20.957
 11
42.5285
 21
20.4873
  0
LINE
  8
0
 10
42.5285
 20
20.4873
 11
42.575
 21
20
  0
LINE
  8
0
 10
42.575
 20
20
 11
42.5285
 21
19.5127
  0
LINE
  8
0
 10
42.5285
 20
19.5127
 11
42.3905
 21
19.043
  0
LINE
  8
0
 10
42.3905
 20
19.043
 11
42.1662
 21
18.6078
  0
LINE
  8
0
 10
42.1662
 20
18.6078
 11
41.8636
 21
18.223
  0
LINE
  8
0
 10
41.8636
 20
18.223
 11
41.4936
 21
17.9025
  0
LINE
  8
0
 10
41.4936
 20
17.9025
 11
41.0697
 21
17.6577
  0
LINE
  8
0
 10
41.0697
 20
17.6577
 11
40.6071
 21
17.4976
  0
LINE
  8
0
 10
40.6071
 20
17.4976
 11
40.1225
 21
17.4279
  0
LINE
  8
0
 10
40.1225
 20
17.4279
 11
39.6335
 21
17.4512
  0
LINE
  8
0
 10
19.6335
 20
17.4512
 11
19.1578
 21
17.5666
  0
LINE
  8
0
 10
19.1578
 20
17.5666
 11
18.7125
 21
17.77
  0
LINE
  8
0
 10
18.7125
 20
17.77
 11
18.3137
 21
18.0539
  0
LINE
  8
0
 10
18.3137
 20
18.0539
 11
17.9759
 21
18.4082
  0
LINE
  8
0
 10
17.9759
 20
18.4082
 11
17.7112
 21
18.8201
  0
LINE
  8
0
 10
17.7112
 20
18.8201
 11
17.5293
 21
19.2745
  0
LINE
  8
0
 10
17.5293
 20
19.2745
 11
17.4367
 21
19.7552
  0
LINE
  8
0
 10
17.4367
 20
19.7552
 11
17.4367
 21
20.2448
  0
LINE
  8
0
 10
17.4367
 20
20.2448
 11
17.5293
 21
20.7254
  0
LINE
  8
0
 10
17.5293
 20
20.7254
 11
17.7112
 21
21.1799
  0
LINE
  8
0
 10
17.7112
 20
21.1799
 11
17.9759
 21
21.5918
  0
LINE
  8
0
 10
17.9759
 20
21.5918
 11
18.3137
 21
21.946
  0
LINE
  8
0
 10
18.3137
 20
21.946
 11
18.7125
 21
22.23
  0
LINE
  8
0
 10
18.7125
 20
22.23
 11
19.1578
 21
22.4334
  0
LINE
  8
0
 10
19.1578
 20
22.4334
 11
19.6335
 21
22.5488
  0
LINE
  8
0
 10
19.6335
 20
22.5488
 11
20.1225
 21
22.5721
  0
LINE
  8
0
 10
20.1225
 20
22.5721
 11
20.6071
 21
22.5024
  0
LINE
  8
0
 10
20.6071
 20
22.5024
 11
21.0697
 21
22.3423
  0
LINE
  8
0
 10
21.0697
 20
22.3423
 11
21.4936
 21
22.0975
  0
LINE
  8
0
 10
21.4936
 20
22.0975
 11
21.8636
 21
21.7769
  0
LINE
  8
0
 10
21.8636
 20
21.7769
 11
22.1662
 21
21.3922
  0
LINE
  8
0
 10
22.1662
 20
21.3922
 11
22.3905
 21
20.957
  0
LINE
  8
0
 10
22.3905
 20
20.957
 11
22.5285
 21
20.4873
  0
LINE
  8
0
 10
22.5285
 20
20.4873
 11
22.575
 21
20
  0
LINE
  8
0
 10
22.575
 20
20
 11
22.5285
 21
19.5127
  0
LINE
  8
0
 10
22.5285
 20
19.5127
 11
22.3905
 21
19.043
  0
LINE
  8
0
 10
22.3905
 20
19.043
 11
22.1662
 21
18.6078
  0
LINE
  8
0
 10
22.1662
 20
18.6078
 11
21.8636
 21
18.223
  0
LINE
  8
0
 10
21.8636
 20
18.223
 11
21.4936
 21
17.9025
  0
LINE
  8
0
 10
21.4936
 20
17.9025
 11
21.0697
 21
17.6577
  0
LINE
  8
0
 10
21.0697
 20
17.6577
 11
20.6071
 21
17.4976
  0
LINE
  8
0
 10
20.6071
 20
17.4976
 11
20.1225
 21
17.4279
  0
LINE
  8
0
 10
20.1225
 20
17.4279
 11
19.6335
 21
17.4512
  0
LINE
  8
0
 10
79.6335
 20
-22.5488
 11
79.1578
 21
-22.4334
  0
LINE
  8
0
 10
79.1578
 20
-22.4334
 11
78.7125
 21
-22.23
  0
LINE
  8
0
 10
78.7125
 20
-22.23
 11
78.3137
 21
-21.946
  0
LINE
  8
0
 10
78.3137
 20
-21.946
 11
77.9759
 21
-21.5918
  0
LINE
  8
0
 10
77.9759
 20
-21.5918
 11
77.7112
 21
-21.1799
  0
LINE
  8
0
 10
77.7112
 20
-21.1799
 11
77.5293
 21
-20.7254
  0
LINE
  8
0
 10
77.5293
 20
-20.7254
 11
77.4367
 21
-20.2448
  0
LINE
  8
0
 10
77.4367
 20
-20.2448
 11
77.4367
 21
-19.7552
  0
LINE
  8
0
 10
77.4367
 20
-19.7552
 11
77.5293
 21
-19.2745
  0
LINE
  8
0
 10
77.5293
 20
-19.2745
 11
77.7112
 21
-18.8201
  0
LINE
  8
0
 10
77.7112
 20
-18.8201
 11
77.9759
 21
-18.4082
  0
LINE
  8
0
 10
77.9759
 20
-18.4082
 11
78.3137
 21
-18.0539
  0
LINE
  8
0
 10
78.3137
 20
-18.0539
 11
78.7125
 21
-17.77
  0
LINE
  8
0
 10
78.7125
 20
-17.77
 11
79.1578
 21
-17.5666
  0
LINE
  8
0
 10
79.1578
 20
-17.5666
 11
79.6335
 21
-17.4512
  0
LINE
  8
0
 10
79.6335
 20
-17.4512
 11
80.1225
 21
-17.4279
  0
LINE
  8
0
 10
80.1225
 20
-17.4279
 11
80.6071
 21
-17.4976
  0
LINE
  8
0
 10
80.6071
 20
-17.4976
 11
81.0697
 21
-17.6577
  0
LINE
  8
0
 10
81.0697
 20
-17.6577
 11
81.4936
 21
-17.9025
  0
LINE
  8
0
 10
81.4936
 20
-17.9025
 11
81.8636
 21
-18.223
  0
LINE
  8
0
 10
81.8636
 20
-18.223
 11
82.1662
 21
-18.6078
  0
LINE
  8
0
 10
82.1662
 20
-18.6078
 11
82.3905
 21
-19.043
  0
LINE
  8
0
 10
82.3905
 20
-19.043
 11
82.5285
 21
-19.5127
  0
LINE
  8
0
 10
82.5285
 20
-19.5127
 11
82.575
 21
-20
  0
LINE
  8
0
 10
82.575
 20
-20
 11
82.5285
 21
-20.4873
  0
LINE
  8
0
 10
82.5285
 20
-20.4873
 11
82.3905
 21
-20.957
  0
LINE
  8
0
 10
82.3905
 20
-20.957
 11
82.1662
 21
-21.3922
  0
LINE
  8
0
 10
82.1662
 20
-21.3922
 11
81.8636
 21
-21.7769
  0
LINE
  8
0
 10
81.8636
 20
-21.7769
 11
81.4936
 21
-22.0975
  0
LINE
  8
0
 10
81.4936
 20
-22.0975
 11
81.0697
 21
-22.3423
  0
LINE
  8
0
 10
81.0697
 20
-22.3423
 11
80.6071
 21
-22.5024
  0
LINE
  8
0
 10
80.6071
 20
-22.5024
 11
80.1225
 21
-22.5721
  0
LINE
  8
0
 10
80.1225
 20
-22.5721
 11
79.6335
 21
-22.5488
  0
LINE
  8
0
 10
99.6335
 20
-22.5488
 11
99.1578
 21
-22.4334
  0
LINE
  8
0
 10
99.1578
 20
-22.4334
 11
98.7125
 21
-22.23
  0
LINE
  8
0
 10
98.7125
 20
-22.23
 11
98.3137
 21
-21.946
  0
LINE
  8
0
 10
98.3137
 20
-21.946
 11
97.9759
 21
-21.5918
  0
LINE
  8
0
 10
97.9759
 20
-21.5918
 11
97.7112
 21
-21.1799
  0
LINE
  8
0
 10
97.7112
 20
-21.1799
 11
97.5293
 21
-20.7254
  0
LINE
  8
0
 10
97.5293
 20
-20.7254
 11
97.4367
 21
-20.2448
  0
LINE
  8
0
 10
97.4367
 20
-20.2448
 11
97.4367
 21
-19.7552
  0
LINE
  8
0
 10
97.4367
 20
-19.7552
 11
97.5293
 21
-19.2745
  0
LINE
  8
0
 10
97.5293
 20
-19.2745
 11
97.7112
 21
-18.8201
  0
LINE
  8
0
 10
97.7112
 20
-18.8201
 11
97.9759
 21
-18.4082
  0
LINE
  8
0
 10
97.9759
 20
-18.4082
 11
98.3137
 21
-18.0539
  0
LINE
  8
0
 10
98.3137
 20
-18.0539
 11
98.7125
 21
-17.77
  0
LINE
  8
0
 10
98.7125
 20
-17.77
 11
99.1578
 21
-17.5666
  0
LINE
  8
0
 10
99.1578
 20
-17.5666
 11
99.6335
 21
-17.4512
  0
LINE
  8
0
 10
99.6335
 20
-17.4512
 11
100.123
 21
-17.4279
  0
LINE
  8
0
 10
100.123
 20
-17.4279
 11
100.607
 21
-17.4976
  0
LINE
  8
0
 10
100.607
 20
-17.4976
 11
101.07
 21
-17.6577
  0
LINE
  8
0
 10
101.07
 20
-17.6577
 11
101.494
 21
-17.9025
  0
LINE
  8
0
 10
101.494
 20
-17.9025
 11
101.864
 21
-18.223
  0
LINE
  8
0
 10
101.864
 20
-18.223
 11
102.166
 21
-18.6078
  0
LINE
  8
0
 10
102.166
 20
-18.6078
 11
102.391
 21
-19.043
  0
LINE
  8
0
 10
102.391
 20
-19.043
 11
102.528
 21
-19.5127
  0
LINE
  8
0
 10
102.528
 20
-19.5127
 11
102.575
 21
-20
  0
LINE
  8
0
 10
102.575
 20
-20
 11
102.528
 21
-20.4873
  0
LINE
  8
0
 10
102.528
 20
-20.4873
 11
102.391
 21
-20.957
  0
LINE
  8
0
 10
102.391
 20
-20.957
 11
102.166
 21
-21.3922
  0
LINE
  8
0
 10
102.166
 20
-21.3922
 11
101.864
 21
-21.7769
  0
LINE
  8
0
 10
101.864
 20
-21.7769
 11
101.494
 21
-22.0975
  0
LINE
  8
0
 10
101.494
 20
-22.0975
 11
101.07
 21
-22.3423
  0
LINE
  8
0
 10
101.07
 20
-22.3423
 11
100.607
 21
-22.5024
  0
LINE
  8
0
 10
100.607
 20
-22.5024
 11
100.123
 21
-22.5721
  0
LINE
  8
0
 10
100.123
 20
-22.5721
 11
99.6335
 21
-22.5488
  0
LINE
  8
0
 10
59.6335
 20
-22.5488
 11
59.1578
 21
-22.4334
  0
LINE
  8
0
 10
59.1578
 20
-22.4334
 11
58.7125
 21
-22.23
  0
LINE
  8
0
 10
58.7125
 20
-22.23
 11
58.3137
 21
-21.946
  0
LINE
  8
0
 10
58.3137
 20
-21.946
 11
57.9759
 21
-21.5918
  0
LINE
  8
0
 10
57.9759
 20
-21.5918
 11
57.7112
 21
-21.1799
  0
LINE
  8
0
 10
57.7112
 20
-21.1799
 11
57.5293
 21
-20.7254
  0
LINE
  8
0
 10
57.5293
 20
-20.7254
 11
57.4367
 21
-20.2448
  0
LINE
  8
0
 10
57.4367
 20
-20.2448
 11
57.4367
 21
-19.7552
  0
LINE
  8
0
 10
57.4367
 20
-19.7552
 11
57.5293
 21
-19.2745
  0
LINE
  8
0
 10
57.5293
 20
-19.2745
 11
57.7112
 21
-18.8201
  0
LINE
  8
0
 10
57.7112
 20
-18.8201
 11
57.9759
 21
-18.4082
  0
LINE
  8
0
 10
57.9759
 20
-18.4082
 11
58.3137
 21
-18.0539
  0
LINE
  8
0
 10
58.3137
 20
-18.0539
 11
58.7125
 21
-17.77
  0
LINE
  8
0
 10
58.7125
 20
-17.77
 11
59.1578
 21
-17.5666
  0
LINE
  8
0
 10
59.1578
 20
-17.5666
 11
59.6335
 21
-17.4512
  0
LINE
  8
0
 10
59.6335
 20
-17.4512
 11
60.1225
 21
-17.4279
  0
LINE
  8
0
 10
60.1225
 20
-17.4279
 11
60.6071
 21
-17.4976
  0
LINE
  8
0
 10
60.6071
 20
-17.4976
 11
61.0697
 21
-17.6577
  0
LINE
  8
0
 10
61.0697
 20
-17.6577
 11
61.4936
 21
-17.9025
  0
LINE
  8
0
 10
61.4936
 20
-17.9025
 11
61.8636
 21
-18.223
  0
LINE
  8
0
 10
61.8636
 20
-18.223
 11
62.1662
 21
-18.6078
  0
LINE
  8
0
 10
62.1662
 20
-18.6078
 11
62.3905
 21
-19.043
  0
LINE
  8
0
 10
62.3905
 20
-19.043
 11
62.5285
 21
-19.5127
  0
LINE
  8
0
 10
62.5285
 20
-19.5127
 11
62.575
 21
-20
  0
LINE
  8
0
 10
62.575
 20
-20
 11
62.5285
 21
-20.4873
  0
LINE
  8
0
 10
62.5285
 20
-20.4873
 11
62.3905
 21
-20.957
  0
LINE
  8
0
 10
62.3905
 20
-20.957
 11
62.1662
 21
-21.3922
  0
LINE
  8
0
 10
62.1662
 20
-21.3922
 11
61.8636
 21
-21.7769
  0
LINE
  8
0
 10
61.8636
 20
-21.7769
 11
61.4936
 21
-22.0975
  0
LINE
  8
0
 10
61.4936
 20
-22.0975
 11
61.0697
 21
-22.3423
  0
LINE
  8
0
 10
61.0697
 20
-22.3423
 11
60.6071
 21
-22.5024
  0
LINE
  8
0
 10
60.6071
 20
-22.5024
 11
60.1225
 21
-22.5721
  0
LINE
  8
0
 10
60.1225
 20
-22.5721
 11
59.6335
 21
-22.5488
  0
LINE
  8
0
 10
39.6335
 20
-22.5488
 11
39.1578
 21
-22.4334
  0
LINE
  8
0
 10
39.1578
 20
-22.4334
 11
38.7125
 21
-22.23
  0
LINE
  8
0
 10
38.7125
 20
-22.23
 11
38.3137
 21
-21.946
  0
LINE
  8
0
 10
38.3137
 20
-21.946
 11
37.9759
 21
-21.5918
  0
LINE
  8
0
 10
37.9759
 20
-21.5918
 11
37.7112
 21
-21.1799
  0
LINE
  8
0
 10
37.7112
 20
-21.1799
 11
37.5293
 21
-20.7254
  0
LINE
  8
0
 10
37.5293
 20
-20.7254
 11
37.4367
 21
-20.2448
  0
LINE
  8
0
 10
37.4367
 20
-20.2448
 11
37.4367
 21
-19.7552
  0
LINE
  8
0
 10
37.4367
 20
-19.7552
 11
37.5293
 21
-19.2745
  0
LINE
  8
0
 10
37.5293
 20
-19.2745
 11
37.7112
 21
-18.8201
  0
LINE
  8
0
 10
37.7112
 20
-18.8201
 11
37.9759
 21
-18.4082
  0
LINE
  8
0
 10
37.9759
 20
-18.4082
 11
38.3137
 21
-18.0539
  0
LINE
  8
0
 10
38.3137
 20
-18.0539
 11
38.7125
 21
-17.77
  0
LINE
  8
0
 10
38.7125
 20
-17.77
 11
39.1578
 21
-17.5666
  0
LINE
  8
0
 10
39.1578
 20
-17.5666
 11
39.6335
 21
-17.4512
  0
LINE
  8
0
 10
39.6335
 20
-17.4512
 11
40.1225
 21
-17.4279
  0
LINE
  8
0
 10
40.1225
 20
-17.4279
 11
40.6071
 21
-17.4976
  0
LINE
  8
0
 10
40.6071
 20
-17.4976
 11
41.0697
 21
-17.6577
  0
LINE
  8
0
 10
41.0697
 20
-17.6577
 11
41.4936
 21
-17.9025
  0
LINE
  8
0
 10
41.4936
 20
-17.9025
 11
41.8636
 21
-18.223
  0
LINE
  8
0
 10
41.8636
 20
-18.223
 11
42.1662
 21
-18.6078
  0
LINE
  8
0
 10
42.1662
 20
-18.6078
 11
42.3905
 21
-19.043
  0
LINE
  8
0
 10
42.3905
 20
-19.043
 11
42.5285
 21
-19.5127
  0
LINE
  8
0
 10
42.5285
 20
-19.5127
 11
42.575
 21
-20
  0
LINE
  8
0
 10
42.575
 20
-20
 11
42.5285
 21
-20.4873
  0
LINE
  8
0
 10
42.5285
 20
-20.4873
 11
42.3905
 21
-20.957
  0
LINE
  8
0
 10
42.3905
 20
-20.957
 11
42.1662
 21
-21.3922
  0
LINE
  8
0
 10
42.1662
 20
-21.3922
 11
41.8636
 21
-21.7769
  0
LINE
  8
0
 10
41.8636
 20
-21.7769
 11
41.4936
 21
-22.0975
  0
LINE
  8
0
 10
41.4936
 20
-22.0975
 11
41.0697
 21
-22.3423
  0
LINE
  8
0
 10
41.0697
 20
-22.3423
 11
40.6071
 21
-22.5024
  0
LINE
  8
0
 10
40.6071
 20
-22.5024
 11
40.1225
 21
-22.5721
  0
LINE
  8
0
 10
40.1225
 20
-22.5721
 11
39.6335
 21
-22.5488
  0
LINE
  8
0
 10
19.6335
 20
-22.5488
 11
19.1578
 21
-22.4334
  0
LINE
  8
0
 10
19.1578
 20
-22.4334
 11
18.7125
 21
-22.23
  0
LINE
  8
0
 10
18.7125
 20
-22.23
 11
18.3137
 21
-21.946
  0
LINE
  8
0
 10
18.3137
 20
-21.946
 11
17.9759
 21
-21.5918
  0
LINE
  8
0
 10
17.9759
 20
-21.5918
 11
17.7112
 21
-21.1799
  0
LINE
  8
0
 10
17.7112
 20
-21.1799
 11
17.5293
 21
-20.7254
  0
LINE
  8
0
 10
17.5293
 20
-20.7254
 11
17.4367
 21
-20.2448
  0
LINE
  8
0
 10
17.4367
 20
-20.2448
 11
17.4367
 21
-19.7552
  0
LINE
  8
0
 10
17.4367
 20
-19.7552
 11
17.5293
 21
-19.2745
  0
LINE
  8
0
 10
17.5293
 20
-19.2745
 11
17.7112
 21
-18.8201
  0
LINE
  8
0
 10
17.7112
 20
-18.8201
 11
17.9759
 21
-18.4082
  0
LINE
  8
0
 10
17.9759
 20
-18.4082
 11
18.3137
 21
-18.0539
  0
LINE
  8
0
 10
18.3137
 20
-18.0539
 11
18.7125
 21
-17.77
  0
LINE
  8
0
 10
18.7125
 20
-17.77
 11
19.1578
 21
-17.5666
  0
LINE
  8
0
 10
19.1578
 20
-17.5666
 11
19.6335
 21
-17.4512
  0
LINE
  8
0
 10
19.6335
 20
-17.4512
 11
20.1225
 21
-17.4279
  0
LINE
  8
0
 10
20.1225
 20
-17.4279
 11
20.6071
 21
-17.4976
  0
LINE
  8
0
 10
20.6071
 20
-17.4976
 11
21.0697
 21
-17.6577
  0
LINE
  8
0
 10
21.0697
 20
-17.6577
 11
21.4936
 21
-17.9025
  0
LINE
  8
0
 10
21.4936
 20
-17.9025
 11
21.8636
 21
-18.223
  0
LINE
  8
0
 10
21.8636
 20
-18.223
 11
22.1662
 21
-18.6078
  0
LINE
  8
0
 10
22.1662
 20
-18.6078
 11
22.3905
 21
-19.043
  0
LINE
  8
0
 10
22.3905
 20
-19.043
 11
22.5285
 21
-19.5127
  0
LINE
  8
0
 10
22.5285
 20
-19.5127
 11
22.575
 21
-20
  0
LINE
  8
0
 10
22.575
 20
-20
 11
22.5285
 21
-20.4873
  0
LINE
  8
0
 10
22.5285
 20
-20.4873
 11
22.3905
 21
-20.957
  0
LINE
  8
0
 10
22.3905
 20
-20.957
 11
22.1662
 21
-21.3922
  0
LINE
  8
0
 10
22.1662
 20
-21.3922
 11
21.8636
 21
-21.7769
  0
LINE
  8
0
 10
21.8636
 20
-21.7769
 11
21.4936
 21
-22.0975
  0
LINE
  8
0
 10
21.4936
 20
-22.0975
 11
21.0697
 21
-22.3423
  0
LINE
  8
0
 10
21.0697
 20
-22.3423
 11
20.6071
 21
-22.5024
  0
LINE
  8
0
 10
20.6071
 20
-22.5024
 11
20.1225
 21
-22.5721
  0
LINE
  8
0
 10
20.1225
 20
-22.5721
 11
19.6335
 21
-22.5488
  0
LINE
  8
0
 10
-19.2527
 20
-29.972
 11
-18.7566
 21
-29.9224
  0
LINE
  8
0
 10
-18.7566
 20
-29.9224
 11
-18.2635
 21
-29.8481
  0
LINE
  8
0
 10
-18.2635
 20
-29.8481
 11
-17.7748
 21
-29.7493
  0
LINE
  8
0
 10
-17.7748
 20
-29.7493
 11
-17.2916
 21
-29.6262
  0
LINE
  8
0
 10
-17.2916
 20
-29.6262
 11
-16.8151
 21
-29.4793
  0
LINE
  8
0
 10
-16.8151
 20
-29.4793
 11
-16.3466
 21
-29.3087
  0
LINE
  8
0
 10
-16.3466
 20
-29.3087
 11
-15.8871
 21
-29.1151
  0
LINE
  8
0
 10
-15.8871
 20
-29.1151
 11
-15.4379
 21
-28.8987
  0
LINE
  8
0
 10
-15.4379
 20
-28.8987
 11
-15
 21
-28.6602
  0
LINE
  8
0
 10
-15
 20
-28.6602
 11
-14.5745
 21
-28.4003
  0
LINE
  8
0
 10
-14.5745
 20
-28.4003
 11
-14.1626
 21
-28.1194
  0
LINE
  8
0
 10
-14.1626
 20
-28.1194
 11
-13.7651
 21
-27.8183
  0
LINE
  8
0
 10
-13.7651
 20
-27.8183
 11
-13.3831
 21
-27.4978
  0
LINE
  8
0
 10
-13.3831
 20
-27.4978
 11
-13.0176
 21
-27.1587
  0
LINE
  8
0
 10
-13.0176
 20
-27.1587
 11
-12.6695
 21
-26.8017
  0
LINE
  8
0
 10
-12.6695
 20
-26.8017
 11
-12.3396
 21
-26.4279
  0
LINE
  8
0
 10
-12.3396
 20
-26.4279
 11
-12.0287
 21
-26.038
  0
LINE
  8
0
 10
-12.0287
 20
-26.038
 11
-11.7376
 21
-25.6332
  0
LINE
  8
0
 10
-11.7376
 20
-25.6332
 11
-11.4671
 21
-25.2143
  0
LINE
  8
0
 10
-11.4671
 20
-25.2143
 11
-11.2178
 21
-24.7825
  0
LINE
  8
0
 10
-11.2178
 20
-24.7825
 11
-10.9903
 21
-24.3388
  0
LINE
  8
0
 10
-10.9903
 20
-24.3388
 11
-10.7852
 21
-23.8843
  0
LINE
  8
0
 10
-10.7852
 20
-23.8843
 11
-10.6031
 21
-23.4202
  0
LINE
  8
0
 10
-10.6031
 20
-23.4202
 11
-10.4443
 21
-22.9475
  0
LINE
  8
0
 10
-10.4443
 20
-22.9475
 11
-10.3092
 21
-22.4676
  0
LINE
  8
0
 10
-10.3092
 20
-22.4676
 11
-10.1983
 21
-21.9815
  0
LINE
  8
0
 10
-10.1983
 20
-21.9815
 11
-10.1117
 21
-21.4904
  0
LINE
  8
0
 10
-10.1117
 20
-21.4904
 11
-10.0497
 21
-20.9957
  0
LINE
  8
0
 10
-10.0497
 20
-20.9957
 11
-10.0124
 21
-20.4985
  0
LINE
  8
0
 10
-10.0124
 20
-20.4985
 11
-10
 21
-20
  0
LINE
  8
0
 10
-10
 20
-20
 11
-10
 21
20
  0
LINE
  8
0
 10
-10
 20
20
 11
-10.0124
 21
20.4985
  0
LINE
  8
0
 10
-10.0124
 20
20.4985
 11
-10.0497
 21
20.9957
  0
LINE
  8
0
 10
-10.0497
 20
20.9957
 11
-10.1117
 21
21.4904
  0
LINE
  8
0
 10
-10.1117
 20
21.4904
 11
-10.1983
 21
21.9815
  0
LINE
  8
0
 10
-10.1983
 20
21.9815
 11
-10.3092
 21
22.4676
  0
LINE
  8
0
 10
-10.3092
 20
22.4676
 11
-10.4443
 21
22.9475
  0
LINE
  8
0
 10
-10.4443
 20
22.9475
 11
-10.6031
 21
23.4202
  0
LINE
  8
0
 10
-10.6031
 20
23.4202
 11
-10.7852
 21
23.8843
  0
LINE
  8
0
 10
-10.7852
 20
23.8843
 11
-10.9903
 21
24.3388
  0
LINE
  8
0
 10
-10.9903
 20
24.3388
 11
-11.2178
 21
24.7825
  0
LINE
  8
0
 10
-11.2178
 20
24.7825
 11
-11.4671
 21
25.2143
  0
LINE
  8
0
 10
-11.4671
 20
25.2143
 11
-11.7376
 21
25.6332
  0
LINE
  8
0
 10
-11.7376
 20
25.6332
 11
-12.0287
 21
26.038
  0
LINE
  8
0
 10
-12.0287
 20
26.038
 11
-12.3396
 21
26.4279
  0
LINE
  8
0
 10
-12.3396
 20
26.4279
 11
-12.6695
 21
26.8017
  0
LINE
  8
0
 10
-12.6695
 20
26.8017
 11
-13.0176
 21
27.1587
  0
LINE
  8
0
 10
-13.0176
 20
27.1587
 11
-13.3831
 21
27.4978
  0
LINE
  8
0
 10
-13.3831
 20
27.4978
 11
-13.7651
 21
27.8183
  0
LINE
  8
0
 10
-13.7651
 20
27.8183
 11
-14.1626
 21
28.1194
  0
LINE
  8
0
 10
-14.1626
 20
28.1194
 11
-14.5745
 21
28.4003
  0
LINE
  8
0
 10
-14.5745
 20
28.4003
 11
-15
 21
28.6602
  0
LINE
  8
0
 10
-15
 20
28.6602
 11
-15.4379
 21
28.8987
  0
LINE
  8
0
 10
-15.4379
 20
28.8987
 11
-15.8871
 21
29.1151
  0
LINE
  8
0
 10
-15.8871
 20
29.1151
 11
-16.3466
 21
29.3087
  0
LINE
  8
0
 10
-16.3466
 20
29.3087
 11
-16.8151
 21
29.4793
  0
LINE
  8
0
 10
-16.8151
 20
29.4793
 11
-17.2916
 21
29.6262
  0
LINE
  8
0
 10
-17.2916
 20
29.6262
 11
-17.7748
 21
29.7493
  0
LINE
  8
0
 10
-17.7748
 20
29.7493
 11
-18.2635
 21
29.8481
  0
LINE
  8
0
 10
-18.2635
 20
29.8481
 11
-18.7566
 21
29.9224
  0
LINE
  8
0
 10
-18.7566
 20
29.9224
 11
-19.2527
 21
29.972
  0
LINE
  8
0
 10
-19.2527
 20
29.972
 11
-19.7507
 21
29.9969
  0
LINE
  8
0
 10
-19.7507
 20
29.9969
 11
-100.249
 21
29.9969
  0
LINE
  8
0
 10
-100.249
 20
29.9969
 11
-100.747
 21
29.972
  0
LINE
  8
0
 10
-100.747
 20
29.972
 11
-101.243
 21
29.9224
  0
LINE
  8
0
 10
-101.243
 20
29.9224
 11
-101.736
 21
29.8481
  0
LINE
  8
0
 10
-101.736
 20
29.8481
 11
-102.225
 21
29.7493
  0
LINE
  8
0
 10
-102.225
 20
29.7493
 11
-102.708
 21
29.6262
  0
LINE
  8
0
 10
-102.708
 20
29.6262
 11
-103.185
 21
29.4793
  0
LINE
  8
0
 10
-103.185
 20
29.4793
 11
-103.653
 21
29.3087
  0
LINE
  8
0
 10
-103.653
 20
29.3087
 11
-104.113
 21
29.1151
  0
LINE
  8
0
 10
-104.113
 20
29.1151
 11
-104.562
 21
28.8987
  0
LINE
  8
0
 10
-104.562
 20
28.8987
 11
-105
 21
28.6602
  0
LINE
  8
0
 10
-105
 20
28.6602
 11
-105.425
 21
28.4003
  0
LINE
  8
0
 10
-105.425
 20
28.4003
 11
-105.837
 21
28.1194
  0
LINE
  8
0
 10
-105.837
 20
28.1194
 11
-106.235
 21
27.8183
  0
LINE
  8
0
 10
-106.235
 20
27.8183
 11
-106.617
 21
27.4978
  0
LINE
  8
0
 10
-106.617
 20
27.4978
 11
-106.982
 21
27.1587
  0
LINE
  8
0
 10
-106.982
 20
27.1587
 11
-107.331
 21
26.8017
  0
LINE
  8
0
 10
-107.331
 20
26.8017
 11
-107.66
 21
26.4279
  0
LINE
  8
0
 10
-107.66
 20
26.4279
 11
-107.971
 21
26.038
  0
LINE
  8
0
 10
-107.971
 20
26.038
 11
-108.262
 21
25.6332
  0
LINE
  8
0
 10
-108.262
 20
25.6332
 11
-108.533
 21
25.2143
  0
LINE
  8
0
 10
-108.533
 20
25.2143
 11
-108.782
 21
24.7825
  0
LINE
  8
0
 10
-108.782
 20
24.7825
 11
-109.01
 21
24.3388
  0
LINE
  8
0
 10
-109.01
 20
24.3388
 11
-109.215
 21
23.8843
  0
LINE
  8
0
 10
-109.215
 20
23.8843
 11
-109.397
 21
23.4202
  0
LINE
  8
0
 10
-109.397
 20
23.4202
 11
-109.556
 21
22.9475
  0
LINE
  8
0
 10
-109.556
 20
22.9475
 11
-109.691
 21
22.4676
  0
LINE
  8
0
 10
-109.691
 20
22.4676
 11
-109.802
 21
21.9815
  0
LINE
  8
0
 10
-109.802
 20
21.9815
 11
-109.888
 21
21.4904
  0
LINE
  8
0
 10
-109.888
 20
21.4904
 11
-109.95
 21
20.9957
  0
LINE
  8
0
 10
-109.95
 20
20.9957
 11
-109.988
 21
20.4985
  0
LINE
  8
0
 10
-109.988
 20
20.4985
 11
-110
 21
20
  0
LINE
  8
0
 10
-110
 20
20
 11
-110
 21
-20
  0
LINE
  8
0
 10
-110
 20
-20
 11
-109.988
 21
-20.4985
  0
LINE
  8
0
 10
-109.988
 20
-20.4985
 11
-109.95
 21
-20.9957
  0
LINE
  8
0
 10
-109.95
 20
-20.9957
 11
-109.888
 21
-21.4904
  0
LINE
  8
0
 10
-109.888
 20
-21.4904
 11
-109.802
 21
-21.9815
  0
LINE
  8
0
 10
-109.802
 20
-21.9815
 11
-109.691
 21
-22.4676
  0
LINE
  8
0
 10
-109.691
 20
-22.4676
 11
-109.556
 21
-22.9475
  0
LINE
  8
0
 10
-109.556
 20
-22.9475
 11
-109.397
 21
-23.4202
  0
LINE
  8
0
 10
-109.397
 20
-23.4202
 11
-109.215
 21
-23.8843
  0
LINE
  8
0
 10
-109.215
 20
-23.8843
 11
-109.01
 21
-24.3388
  0
LINE
  8
0
 10
-109.01
 20
-24.3388
 11
-108.782
 21
-24.7825
  0
LINE
  8
0
 10
-108.782
 20
-24.7825
 11
-108.533
 21
-25.2143
  0
LINE
  8
0
 10
-108.533
 20
-25.2143
 11
-108.262
 21
-25.6332
  0
LINE
  8
0
 10
-108.262
 20
-25.6332
 11
-107.971
 21
-26.038
  0
LINE
  8
0
 10
-107.971
 20
-26.038
 11
-107.66
 21
-26.4279
  0
LINE
  8
0
 10
-107.66
 20
-26.4279
 11
-107.331
 21
-26.8017
  0
LINE
  8
0
 10
-107.331
 20
-26.8017
 11
-106.982
 21
-27.1587
  0
LINE
  8
0
 10
-106.982
 20
-27.1587
 11
-106.617
 21
-27.4978
  0
LINE
  8
0
 10
-106.617
 20
-27.4978
 11
-106.235
 21
-27.8183
  0
LINE
  8
0
 10
-106.235
 20
-27.8183
 11
-105.837
 21
-28.1194
  0
LINE
  8
0
 10
-105.837
 20
-28.1194
 11
-105.425
 21
-28.4003
  0
LINE
  8
0
 10
-105.425
 20
-28.4003
 11
-105
 21
-28.6602
  0
LINE
  8
0
 10
-105
 20
-28.6602
 11
-104.562
 21
-28.8987
  0
LINE
  8
0
 10
-104.562
 20
-28.8987
 11
-104.113
 21
-29.1151
  0
LINE
  8
0
 10
-104.113
 20
-29.1151
 11
-103.653
 21
-29.3087
  0
LINE
  8
0
 10
-103.653
 20
-29.3087
 11
-103.185
 21
-29.4793
  0
LINE
  8
0
 10
-103.185
 20
-29.4793
 11
-102.708
 21
-29.6262
  0
LINE
  8
0
 10
-102.708
 20
-29.6262
 11
-102.225
 21
-29.7493
  0
LINE
  8
0
 10
-102.225
 20
-29.7493
 11
-101.736
 21
-29.8481
  0
LINE
  8
0
 10
-101.736
 20
-29.8481
 11
-101.243
 21
-29.9224
  0
LINE
  8
0
 10
-101.243
 20
-29.9224
 11
-100.747
 21
-29.972
  0
LINE
  8
0
 10
-100.747
 20
-29.972
 11
-100.249
 21
-29.9969
  0
LINE
  8
0
 10
-100.249
 20
-29.9969
 11
-19.7507
 21
-29.9969
  0
LINE
  8
0
 10
-19.7507
 20
-29.9969
 11
-19.2527
 21
-29.972
  0
LINE
  8
0
 10
-20.3665
 20
17.4512
 11
-20.8422
 21
17.5666
  0
LINE
  8
0
 10
-20.8422
 20
17.5666
 11
-21.2875
 21
17.77
  0
LINE
  8
0
 10
-21.2875
 20
17.77
 11
-21.6863
 21
18.0539
  0
LINE
  8
0
 10
-21.6863
 20
18.0539
 11
-22.0241
 21
18.4082
  0
LINE
  8
0
 10
-22.0241
 20
18.4082
 11
-22.2887
 21
18.8201
  0
LINE
  8
0
 10
-22.2887
 20
18.8201
 11
-22.4707
 21
19.2745
  0
LINE
  8
0
 10
-22.4707
 20
19.2745
 11
-22.5633
 21
19.7552
  0
LINE
  8
0
 10
-22.5633
 20
19.7552
 11
-22.5633
 21
20.2448
  0
LINE
  8
0
 10
-22.5633
 20
20.2448
 11
-22.4707
 21
20.7254
  0
LINE
  8
0
 10
-22.4707
 20
20.7254
 11
-22.2887
 21
21.1799
  0
LINE
  8
0
 10
-22.2887
 20
21.1799
 11
-22.0241
 21
21.5918
  0
LINE
  8
0
 10
-22.0241
 20
21.5918
 11
-21.6863
 21
21.946
  0
LINE
  8
0
 10
-21.6863
 20
21.946
 11
-21.2875
 21
22.23
  0
LINE
  8
0
 10
-21.2875
 20
22.23
 11
-20.8422
 21
22.4334
  0
LINE
  8
0
 10
-20.8422
 20
22.4334
 11
-20.3665
 21
22.5488
  0
LINE
  8
0
 10
-20.3665
 20
22.5488
 11
-19.8775
 21
22.5721
  0
LINE
  8
0
 10
-19.8775
 20
22.5721
 11
-19.3929
 21
22.5024
  0
LINE
  8
0
 10
-19.3929
 20
22.5024
 11
-18.9303
 21
22.3423
  0
LINE
  8
0
 10
-18.9303
 20
22.3423
 11
-18.5063
 21
22.0975
  0
LINE
  8
0
 10
-18.5063
 20
22.0975
 11
-18.1364
 21
21.7769
  0
LINE
  8
0
 10
-18.1364
 20
21.7769
 11
-17.8338
 21
21.3922
  0
LINE
  8
0
 10
-17.8338
 20
21.3922
 11
-17.6095
 21
20.957
  0
LINE
  8
0
 10
-17.6095
 20
20.957
 11
-17.4715
 21
20.4873
  0
LINE
  8
0
 10
-17.4715
 20
20.4873
 11
-17.425
 21
20
  0
LINE
  8
0
 10
-17.425
 20
20
 11
-17.4715
 21
19.5127
  0
LINE
  8
0
 10
-17.4715
 20
19.5127
 11
-17.6095
 21
19.043
  0
LINE
  8
0
 10
-17.6095
 20
19.043
 11
-17.8338
 21
18.6078
  0
LINE
  8
0
 10
-17.8338
 20
18.6078
 11
-18.1364
 21
18.223
  0
LINE
  8
0
 10
-18.1364
 20
18.223
 11
-18.5063
 21
17.9025
  0
LINE
  8
0
 10
-18.5063
 20
17.9025
 11
-18.9303
 21
17.6577
  0
LINE
  8
0
 10
-18.9303
 20
17.6577
 11
-19.3929
 21
17.4976
  0
LINE
  8
0
 10
-19.3929
 20
17.4976
 11
-19.8775
 21
17.4279
  0
LINE
  8
0
 10
-19.8775
 20
17.4279
 11
-20.3665
 21
17.4512
  0
LINE
  8
0
 10
-40.3665
 20
17.4512
 11
-40.8422
 21
17.5666
  0
LINE
  8
0
 10
-40.8422
 20
17.5666
 11
-41.2875
 21
17.77
  0
LINE
  8
0
 10
-41.2875
 20
17.77
 11
-41.6863
 21
18.0539
  0
LINE
  8
0
 10
-41.6863
 20
18.0539
 11
-42.0241
 21
18.4082
  0
LINE
  8
0
 10
-42.0241
 20
18.4082
 11
-42.2887
 21
18.8201
  0
LINE
  8
0
 10
-42.2887
 20
18.8201
 11
-42.4707
 21
19.2745
  0
LINE
  8
0
 10
-42.4707
 20
19.2745
 11
-42.5633
 21
19.7552
  0
LINE
  8
0
 10
-42.5633
 20
19.7552
 11
-42.5633
 21
20.2448
  0
LINE
  8
0
 10
-42.5633
 20
20.2448
 11
-42.4707
 21
20.7254
  0
LINE
  8
0
 10
-42.4707
 20
20.7254
 11
-42.2887
 21
21.1799
  0
LINE
  8
0
 10
-42.2887
 20
21.1799
 11
-42.0241
 21
21.5918
  0
LINE
  8
0
 10
-42.0241
 20
21.5918
 11
-41.6863
 21
21.946
  0
LINE
  8
0
 10
-41.6863
 20
21.946
 11
-41.2875
 21
22.23
  0
LINE
  8
0
 10
-41.2875
 20
22.23
 11
-40.8422
 21
22.4334
  0
LINE
  8
0
 10
-40.8422
 20
22.4334
 11
-40.3665
 21
22.5488
  0
LINE
  8
0
 10
-40.3665
 20
22.5488
 11
-39.8775
 21
22.5721
  0
LINE
  8
0
 10
-39.8775
 20
22.5721
 11
-39.3929
 21
22.5024
  0
LINE
  8
0
 10
-39.3929
 20
22.5024
 11
-38.9303
 21
22.3423
  0
LINE
  8
0
 10
-38.9303
 20
22.3423
 11
-38.5063
 21
22.0975
  0
LINE
  8
0
 10
-38.5063
 20
22.0975
 11
-38.1364
 21
21.7769
  0
LINE
  8
0
 10
-38.1364
 20
21.7769
 11
-37.8338
 21
21.3922
  0
LINE
  8
0
 10
-37.8338
 20
21.3922
 11
-37.6095
 21
20.957
  0
LINE
  8
0
 10
-37.6095
 20
20.957
 11
-37.4715
 21
20.4873
  0
LINE
  8
0
 10
-37.4715
 20
20.4873
 11
-37.425
 21
20
  0
LINE
  8
0
 10
-37.425
 20
20
 11
-37.4715
 21
19.5127
  0
LINE
  8
0
 10
-37.4715
 20
19.5127
 11
-37.6095
 21
19.043
  0
LINE
  8
0
 10
-37.6095
 20
19.043
 11
-37.8338
 21
18.6078
  0
LINE
  8
0
 10
-37.8338
 20
18.6078
 11
-38.1364
 21
18.223
  0
LINE
  8
0
 10
-38.1364
 20
18.223
 11
-38.5063
 21
17.9025
  0
LINE
  8
0
 10
-38.5063
 20
17.9025
 11
-38.9303
 21
17.6577
  0
LINE
  8
0
 10
-38.9303
 20
17.6577
 11
-39.3929
 21
17.4976
  0
LINE
  8
0
 10
-39.3929
 20
17.4976
 11
-39.8775
 21
17.4279
  0
LINE
  8
0
 10
-39.8775
 20
17.4279
 11
-40.3665
 21
17.4512
  0
LINE
  8
0
 10
-80.3665
 20
17.4512
 11
-80.8422
 21
17.5666
  0
LINE
  8
0
 10
-80.8422
 20
17.5666
 11
-81.2875
 21
17.77
  0
LINE
  8
0
 10
-81.2875
 20
17.77
 11
-81.6863
 21
18.0539
  0
LINE
  8
0
 10
-81.6863
 20
18.0539
 11
-82.0241
 21
18.4082
  0
LINE
  8
0
 10
-82.0241
 20
18.4082
 11
-82.2887
 21
18.8201
  0
LINE
  8
0
 10
-82.2887
 20
18.8201
 11
-82.4707
 21
19.2745
  0
LINE
  8
0
 10
-82.4707
 20
19.2745
 11
-82.5633
 21
19.7552
  0
LINE
  8
0
 10
-82.5633
 20
19.7552
 11
-82.5633
 21
20.2448
  0
LINE
  8
0
 10
-82.5633
 20
20.2448
 11
-82.4707
 21
20.7254
  0
LINE
  8
0
 10
-82.4707
 20
20.7254
 11
-82.2887
 21
21.1799
  0
LINE
  8
0
 10
-82.2887
 20
21.1799
 11
-82.0241
 21
21.5918
  0
LINE
  8
0
 10
-82.0241
 20
21.5918
 11
-81.6863
 21
21.946
  0
LINE
  8
0
 10
-81.6863
 20
21.946
 11
-81.2875
 21
22.23
  0
LINE
  8
0
 10
-81.2875
 20
22.23
 11
-80.8422
 21
22.4334
  0
LINE
  8
0
 10
-80.8422
 20
22.4334
 11
-80.3665
 21
22.5488
  0
LINE
  8
0
 10
-80.3665
 20
22.5488
 11
-79.8775
 21
22.5721
  0
LINE
  8
0
 10
-79.8775
 20
22.5721
 11
-79.3929
 21
22.5024
  0
LINE
  8
0
 10
-79.3929
 20
22.5024
 11
-78.9303
 21
22.3423
  0
LINE
  8
0
 10
-78.9303
 20
22.3423
 11
-78.5063
 21
22.0975
  0
LINE
  8
0
 10
-78.5063
 20
22.0975
 11
-78.1364
 21
21.7769
  0
LINE
  8
0
 10
-78.1364
 20
21.7769
 11
-77.8338
 21
21.3922
  0
LINE
  8
0
 10
-77.8338
 20
21.3922
 11
-77.6095
 21
20.957
  0
LINE
  8
0
 10
-77.6095
 20
20.957
 11
-77.4715
 21
20.4873
  0
LINE
  8
0
 10
-77.4715
 20
20.4873
 11
-77.425
 21
20
  0
LINE
  8
0
 10
-77.425
 20
20
 11
-77.4715
 21
19.5127
  0
LINE
  8
0
 10
-77.4715
 20
19.5127
 11
-77.6095
 21
19.043
  0
LINE
  8
0
 10
-77.6095
 20
19.043
 11
-77.8338
 21
18.6078
  0
LINE
  8
0
 10
-77.8338
 20
18.6078
 11
-78.1364
 21
18.223
  0
LINE
  8
0
 10
-78.1364
 20
18.223
 11
-78.5063
 21
17.9025
  0
LINE
  8
0
 10
-78.5063
 20
17.9025
 11
-78.9303
 21
17.6577
  0
LINE
  8
0
 10
-78.9303
 20
17.6577
 11
-79.3929
 21
17.4976
  0
LINE
  8
0
 10
-79.3929
 20
17.4976
 11
-79.8775
 21
17.4279
  0
LINE
  8
0
 10
-79.8775
 20
17.4279
 11
-80.3665
 21
17.4512
  0
LINE
  8
0
 10
-100.366
 20
17.4512
 11
-100.842
 21
17.5666
  0
LINE
  8
0
 10
-100.842
 20
17.5666
 11
-101.287
 21
17.77
  0
LINE
  8
0
 10
-101.287
 20
17.77
 11
-101.686
 21
18.0539
  0
LINE
  8
0
 10
-101.686
 20
18.0539
 11
-102.024
 21
18.4082
  0
LINE
  8
0
 10
-102.024
 20
18.4082
 11
-102.289
 21
18.8201
  0
LINE
  8
0
 10
-102.289
 20
18.8201
 11
-102.471
 21
19.2745
  0
LINE
  8
0
 10
-102.471
 20
19.2745
 11
-102.563
 21
19.7552
  0
LINE
  8
0
 10
-102.563
 20
19.7552
 11
-102.563
 21
20.2448
  0
LINE
  8
0
 10
-102.563
 20
20.2448
 11
-102.471
 21
20.7254
  0
LINE
  8
0
 10
-102.471
 20
20.7254
 11
-102.289
 21
21.1799
  0
LINE
  8
0
 10
-102.289
 20
21.1799
 11
-102.024
 21
21.5918
  0
LINE
  8
0
 10
-102.024
 20
21.5918
 11
-101.686
 21
21.946
  0
LINE
  8
0
 10
-101.686
 20
21.946
 11
-101.287
 21
22.23
  0
LINE
  8
0
 10
-101.287
 20
22.23
 11
-100.842
 21
22.4334
  0
LINE
  8
0
 10
-100.842
 20
22.4334
 11
-100.366
 21
22.5488
  0
LINE
  8
0
 10
-100.366
 20
22.5488
 11
-99.8775
 21
22.5721
  0
LINE
  8
0
 10
-99.8775
 20
22.5721
 11
-99.3929
 21
22.5024
  0
LINE
  8
0
 10
-99.3929
 20
22.5024
 11
-98.9303
 21
22.3423
  0
LINE
  8
0
 10
-98.9303
 20
22.3423
 11
-98.5063
 21
22.0975
  0
LINE
  8
0
 10
-98.5063
 20
22.0975
 11
-98.1364
 21
21.7769
  0
LINE
  8
0
 10
-98.1364
 20
21.7769
 11
-97.8338
 21
21.3922
  0
LINE
  8
0
 10
-97.8338
 20
21.3922
 11
-97.6095
 21
20.957
  0
LINE
  8
0
 10
-97.6095
 20
20.957
 11
-97.4715
 21
20.4873
  0
LINE
  8
0
 10
-97.4715
 20
20.4873
 11
-97.425
 21
20
  0
LINE
  8
0
 10
-97.425
 20
20
 11
-97.4715
 21
19.5127
  0
LINE
  8
0
 10
-97.4715
 20
19.5127
 11
-97.6095
 21
19.043
  0
LINE
  8
0
 10
-97.6095
 20
19.043
 11
-97.8338
 21
18.6078
  0
LINE
  8
0
 10
-97.8338
 20
18.6078
 11
-98.1364
 21
18.223
  0
LINE
  8
0
 10
-98.1364
 20
18.223
 11
-98.5063
 21
17.9025
  0
LINE
  8
0
 10
-98.5063
 20
17.9025
 11
-98.9303
 21
17.6577
  0
LINE
  8
0
 10
-98.9303
 20
17.6577
 11
-99.3929
 21
17.4976
  0
LINE
  8
0
 10
-99.3929
 20
17.4976
 11
-99.8775
 21
17.4279
  0
LINE
  8
0
 10
-99.8775
 20
17.4279
 11
-100.366
 21
17.4512
  0
LINE
  8
0
 10
-60.3665
 20
17.4512
 11
-60.8422
 21
17.5666
  0
LINE
  8
0
 10
-60.8422
 20
17.5666
 11
-61.2875
 21
17.77
  0
LINE
  8
0
 10
-61.2875
 20
17.77
 11
-61.6863
 21
18.0539
  0
LINE
  8
0
 10
-61.6863
 20
18.0539
 11
-62.0241
 21
18.4082
  0
LINE
  8
0
 10
-62.0241
 20
18.4082
 11
-62.2887
 21
18.8201
  0
LINE
  8
0
 10
-62.2887
 20
18.8201
 11
-62.4707
 21
19.2745
  0
LINE
  8
0
 10
-62.4707
 20
19.2745
 11
-62.5633
 21
19.7552
  0
LINE
  8
0
 10
-62.5633
 20
19.7552
 11
-62.5633
 21
20.2448
  0
LINE
  8
0
 10
-62.5633
 20
20.2448
 11
-62.4707
 21
20.7254
  0
LINE
  8
0
 10
-62.4707
 20
20.7254
 11
-62.2887
 21
21.1799
  0
LINE
  8
0
 10
-62.2887
 20
21.1799
 11
-62.0241
 21
21.5918
  0
LINE
  8
0
 10
-62.0241
 20
21.5918
 11
-61.6863
 21
21.946
  0
LINE
  8
0
 10
-61.6863
 20
21.946
 11
-61.2875
 21
22.23
  0
LINE
  8
0
 10
-61.2875
 20
22.23
 11
-60.8422
 21
22.4334
  0
LINE
  8
0
 10
-60.8422
 20
22.4334
 11
-60.3665
 21
22.5488
  0
LINE
  8
0
 10
-60.3665
 20
22.5488
 11
-59.8775
 21
22.5721
  0
LINE
  8
0
 10
-59.8775
 20
22.5721
 11
-59.3929
 21
22.5024
  0
LINE
  8
0
 10
-59.3929
 20
22.5024
 11
-58.9303
 21
22.3423
  0
LINE
  8
0
 10
-58.9303
 20
22.3423
 11
-58.5063
 21
22.0975
  0
LINE
  8
0
 10
-58.5063
 20
22.0975
 11
-58.1364
 21
21.7769
  0
LINE
  8
0
 10
-58.1364
 20
21.7769
 11
-57.8338
 21
21.3922
  0
LINE
  8
0
 10
-57.8338
 20
21.3922
 11
-57.6095
 21
20.957
  0
LINE
  8
0
 10
-57.6095
 20
20.957
 11
-57.4715
 21
20.4873
  0
LINE
  8
0
 10
-57.4715
 20
20.4873
 11
-57.425
 21
20
  0
LINE
  8
0
 10
-57.425
 20
20
 11
-57.4715
 21
19.5127
  0
LINE
  8
0
 10
-57.4715
 20
19.5127
 11
-57.6095
 21
19.043
  0
LINE
  8
0
 10
-57.6095
 20
19.043
 11
-57.8338
 21
18.6078
  0
LINE
  8
0
 10
-57.8338
 20
18.6078
 11
-58.1364
 21
18.223
  0
LINE
  8
0
 10
-58.1364
 20
18.223
 11
-58.5063
 21
17.9025
  0
LINE
  8
0
 10
-58.5063
 20
17.9025
 11
-58.9303
 21
17.6577
  0
LINE
  8
0
 10
-58.9303
 20
17.6577
 11
-59.3929
 21
17.4976
  0
LINE
  8
0
 10
-59.3929
 20
17.4976
 11
-59.8775
 21
17.4279
  0
LINE
  8
0
 10
-59.8775
 20
17.4279
 11
-60.3665
 21
17.4512
  0
LINE
  8
0
 10
-100.366
 20
-22.5488
 11
-100.842
 21
-22.4334
  0
LINE
  8
0
 10
-100.842
 20
-22.4334
 11
-101.287
 21
-22.23
  0
LINE
  8
0
 10
-101.287
 20
-22.23
 11
-101.686
 21
-21.946
  0
LINE
  8
0
 10
-101.686
 20
-21.946
 11
-102.024
 21
-21.5918
  0
LINE
  8
0
 10
-102.024
 20
-21.5918
 11
-102.289
 21
-21.1799
  0
LINE
  8
0
 10
-102.289
 20
-21.1799
 11
-102.471
 21
-20.7254
  0
LINE
  8
0
 10
-102.471
 20
-20.7254
 11
-102.563
 21
-20.2448
  0
LINE
  8
0
 10
-102.563
 20
-20.2448
 11
-102.563
 21
-19.7552
  0
LINE
  8
0
 10
-102.563
 20
-19.7552
 11
-102.471
 21
-19.2745
  0
LINE
  8
0
 10
-102.471
 20
-19.2745
 11
-102.289
 21
-18.8201
  0
LINE
  8
0
 10
-102.289
 20
-18.8201
 11
-102.024
 21
-18.4082
  0
LINE
  8
0
 10
-102.024
 20
-18.4082
 11
-101.686
 21
-18.0539
  0
LINE
  8
0
 10
-101.686
 20
-18.0539
 11
-101.287
 21
-17.77
  0
LINE
  8
0
 10
-101.287
 20
-17.77
 11
-100.842
 21
-17.5666
  0
LINE
  8
0
 10
-100.842
 20
-17.5666
 11
-100.366
 21
-17.4512
  0
LINE
  8
0
 10
-100.366
 20
-17.4512
 11
-99.8775
 21
-17.4279
  0
LINE
  8
0
 10
-99.8775
 20
-17.4279
 11
-99.3929
 21
-17.4976
  0
LINE
  8
0
 10
-99.3929
 20
-17.4976
 11
-98.9303
 21
-17.6577
  0
LINE
  8
0
 10
-98.9303
 20
-17.6577
 11
-98.5063
 21
-17.9025
  0
LINE
  8
0
 10
-98.5063
 20
-17.9025
 11
-98.1364
 21
-18.223
  0
LINE
  8
0
 10
-98.1364
 20
-18.223
 11
-97.8338
 21
-18.6078
  0
LINE
  8
0
 10
-97.8338
 20
-18.6078
 11
-97.6095
 21
-19.043
  0
LINE
  8
0
 10
-97.6095
 20
-19.043
 11
-97.4715
 21
-19.5127
  0
LINE
  8
0
 10
-97.4715
 20
-19.5127
 11
-97.425
 21
-20
  0
LINE
  8
0
 10
-97.425
 20
-20
 11
-97.4715
 21
-20.4873
  0
LINE
  8
0
 10
-97.4715
 20
-20.4873
 11
-97.6095
 21
-20.957
  0
LINE
  8
0
 10
-97.6095
 20
-20.957
 11
-97.8338
 21
-21.3922
  0
LINE
  8
0
 10
-97.8338
 20
-21.3922
 11
-98.1364
 21
-21.7769
  0
LINE
  8
0
 10
-98.1364
 20
-21.7769
 11
-98.5063
 21
-22.0975
  0
LINE
  8
0
 10
-98.5063
 20
-22.0975
 11
-98.9303
 21
-22.3423
  0
LINE
  8
0
 10
-98.9303
 20
-22.3423
 11
-99.3929
 21
-22.5024
  0
LINE
  8
0
 10
-99.3929
 20
-22.5024
 11
-99.8775
 21
-22.5721
  0
LINE
  8
0
 10
-99.8775
 20
-22.5721
 11
-100.366
 21
-22.5488
  0
LINE
  8
0
 10
-80.3665
 20
-22.5488
 11
-80.8422
 21
-22.4334
  0
LINE
  8
0
 10
-80.8422
 20
-22.4334
 11
-81.2875
 21
-22.23
  0
LINE
  8
0
 10
-81.2875
 20
-22.23
 11
-81.6863
 21
-21.946
  0
LINE
  8
0
 10
-81.6863
 20
-21.946
 11
-82.0241
 21
-21.5918
  0
LINE
  8
0
 10
-82.0241
 20
-21.5918
 11
-82.2887
 21
-21.1799
  0
LINE
  8
0
 10
-82.2887
 20
-21.1799
 11
-82.4707
 21
-20.7254
  0
LINE
  8
0
 10
-82.4707
 20
-20.7254
 11
-82.5633
 21
-20.2448
  0
LINE
  8
0
 10
-82.5633
 20
-20.2448
 11
-82.5633
 21
-19.7552
  0
LINE
  8
0
 10
-82.5633
 20
-19.7552
 11
-82.4707
 21
-19.2745
  0
LINE
  8
0
 10
-82.4707
 20
-19.2745
 11
-82.2887
 21
-18.8201
  0
LINE
  8
0
 10
-82.2887
 20
-18.8201
 11
-82.0241
 21
-18.4082
  0
LINE
  8
0
 10
-82.0241
 20
-18.4082
 11
-81.6863
 21
-18.0539
  0
LINE
  8
0
 10
-81.6863
 20
-18.0539
 11
-81.2875
 21
-17.77
  0
LINE
  8
0
 10
-81.2875
 20
-17.77
 11
-80.8422
 21
-17.5666
  0
LINE
  8
0
 10
-80.8422
 20
-17.5666
 11
-80.3665
 21
-17.4512
  0
LINE
  8
0
 10
-80.3665
 20
-17.4512
 11
-79.8775
 21
-17.4279
  0
LINE
  8
0
 10
-79.8775
 20
-17.4279
 11
-79.3929
 21
-17.4976
  0
LINE
  8
0
 10
-79.3929
 20
-17.4976
 11
-78.9303
 21
-17.6577
  0
LINE
  8
0
 10
-78.9303
 20
-17.6577
 11
-78.5063
 21
-17.9025
  0
LINE
  8
0
 10
-78.5063
 20
-17.9025
 11
-78.1364
 21
-18.223
  0
LINE
  8
0
 10
-78.1364
 20
-18.223
 11
-77.8338
 21
-18.6078
  0
LINE
  8
0
 10
-77.8338
 20
-18.6078
 11
-77.6095
 21
-19.043
  0
LINE
  8
0
 10
-77.6095
 20
-19.043
 11
-77.4715
 21
-19.5127
  0
LINE
  8
0
 10
-77.4715
 20
-19.5127
 11
-77.425
 21
-20
  0
LINE
  8
0
 10
-77.425
 20
-20
 11
-77.4715
 21
-20.4873
  0
LINE
  8
0
 10
-77.4715
 20
-20.4873
 11
-77.6095
 21
-20.957
  0
LINE
  8
0
 10
-77.6095
 20
-20.957
 11
-77.8338
 21
-21.3922
  0
LINE
  8
0
 10
-77.8338
 20
-21.3922
 11
-78.1364
 21
-21.7769
  0
LINE
  8
0
 10
-78.1364
 20
-21.7769
 11
-78.5063
 21
-22.0975
  0
LINE
  8
0
 10
-78.5063
 20
-22.0975
 11
-78.9303
 21
-22.3423
  0
LINE
  8
0
 10
-78.9303
 20
-22.3423
 11
-79.3929
 21
-22.5024
  0
LINE
  8
0
 10
-79.3929
 20
-22.5024
 11
-79.8775
 21
-22.5721
  0
LINE
  8
0
 10
-79.8775
 20
-22.5721
 11
-80.3665
 21
-22.5488
  0
LINE
  8
0
 10
-60.3665
 20
-22.5488
 11
-60.8422
 21
-22.4334
  0
LINE
  8
0
 10
-60.8422
 20
-22.4334
 11
-61.2875
 21
-22.23
  0
LINE
  8
0
 10
-61.2875
 20
-22.23
 11
-61.6863
 21
-21.946
  0
LINE
  8
0
 10
-61.6863
 20
-21.946
 11
-62.0241
 21
-21.5918
  0
LINE
  8
0
 10
-62.0241
 20
-21.5918
 11
-62.2887
 21
-21.1799
  0
LINE
  8
0
 10
-62.2887
 20
-21.1799
 11
-62.4707
 21
-20.7254
  0
LINE
  8
0
 10
-62.4707
 20
-20.7254
 11
-62.5633
 21
-20.2448
  0
LINE
  8
0
 10
-62.5633
 20
-20.2448
 11
-62.5633
 21
-19.7552
  0
LINE
  8
0
 10
-62.5633
 20
-19.7552
 11
-62.4707
 21
-19.2745
  0
LINE
  8
0
 10
-62.4707
 20
-19.2745
 11
-62.2887
 21
-18.8201
  0
LINE
  8
0
 10
-62.2887
 20
-18.8201
 11
-62.0241
 21
-18.4082
  0
LINE
  8
0
 10
-62.0241
 20
-18.4082
 11
-61.6863
 21
-18.0539
  0
LINE
  8
0
 10
-61.6863
 20
-18.0539
 11
-61.2875
 21
-17.77
  0
LINE
  8
0
 10
-61.2875
 20
-17.77
 11
-60.8422
 21
-17.5666
  0
LINE
  8
0
 10
-60.8422
 20
-17.5666
 11
-60.3665
 21
-17.4512
  0
LINE
  8
0
 10
-60.3665
 20
-17.4512
 11
-59.8775
 21
-17.4279
  0
LINE
  8
0
 10
-59.8775
 20
-17.4279
 11
-59.3929
 21
-17.4976
  0
LINE
  8
0
 10
-59.3929
 20
-17.4976
 11
-58.9303
 21
-17.6577
  0
LINE
  8
0
 10
-58.9303
 20
-17.6577
 11
-58.5063
 21
-17.9025
  0
LINE
  8
0
 10
-58.5063
 20
-17.9025
 11
-58.1364
 21
-18.223
  0
LINE
  8
0
 10
-58.1364
 20
-18.223
 11
-57.8338
 21
-18.6078
  0
LINE
  8
0
 10
-57.8338
 20
-18.6078
 11
-57.6095
 21
-19.043
  0
LINE
  8
0
 10
-57.6095
 20
-19.043
 11
-57.4715
 21
-19.5127
  0
LINE
  8
0
 10
-57.4715
 20
-19.5127
 11
-57.425
 21
-20
  0
LINE
  8
0
 10
-57.425
 20
-20
 11
-57.4715
 21
-20.4873
  0
LINE
  8
0
 10
-57.4715
 20
-20.4873
 11
-57.6095
 21
-20.957
  0
LINE
  8
0
 10
-57.6095
 20
-20.957
 11
-57.8338
 21
-21.3922
  0
LINE
  8
0
 10
-57.8338
 20
-21.3922
 11
-58.1364
 21
-21.7769
  0
LINE
  8
0
 10
-58.1364
 20
-21.7769
 11
-58.5063
 21
-22.0975
  0
LINE
  8
0
 10
-58.5063
 20
-22.0975
 11
-58.9303
 21
-22.3423
  0
LINE
  8
0
 10
-58.9303
 20
-22.3423
 11
-59.3929
 21
-22.5024
  0
LINE
  8
0
 10
-59.3929
 20
-22.5024
 11
-59.8775
 21
-22.5721
  0
LINE
  8
0
 10
-59.8775
 20
-22.5721
 11
-60.3665
 21
-22.5488
  0
LINE
  8
0
 10
-40.3665
 20
-22.5488
 11
-40.8422
 21
-22.4334
  0
LINE
  8
0
 10
-40.8422
 20
-22.4334
 11
-41.2875
 21
-22.23
  0
LINE
  8
0
 10
-41.2875
 20
-22.23
 11
-41.6863
 21
-21.946
  0
LINE
  8
0
 10
-41.6863
 20
-21.946
 11
-42.0241
 21
-21.5918
  0
LINE
  8
0
 10
-42.0241
 20
-21.5918
 11
-42.2887
 21
-21.1799
  0
LINE
  8
0
 10
-42.2887
 20
-21.1799
 11
-42.4707
 21
-20.7254
  0
LINE
  8
0
 10
-42.4707
 20
-20.7254
 11
-42.5633
 21
-20.2448
  0
LINE
  8
0
 10
-42.5633
 20
-20.2448
 11
-42.5633
 21
-19.7552
  0
LINE
  8
0
 10
-42.5633
 20
-19.7552
 11
-42.4707
 21
-19.2745
  0
LINE
  8
0
 10
-42.4707
 20
-19.2745
 11
-42.2887
 21
-18.8201
  0
LINE
  8
0
 10
-42.2887
 20
-18.8201
 11
-42.0241
 21
-18.4082
  0
LINE
  8
0
 10
-42.0241
 20
-18.4082
 11
-41.6863
 21
-18.0539
  0
LINE
  8
0
 10
-41.6863
 20
-18.0539
 11
-41.2875
 21
-17.77
  0
LINE
  8
0
 10
-41.2875
 20
-17.77
 11
-40.8422
 21
-17.5666
  0
LINE
  8
0
 10
-40.8422
 20
-17.5666
 11
-40.3665
 21
-17.4512
  0
LINE
  8
0
 10
-40.3665
 20
-17.4512
 11
-39.8775
 21
-17.4279
  0
LINE
  8
0
 10
-39.8775
 20
-17.4279
 11
-39.3929
 21
-17.4976
  0
LINE
  8
0
 10
-39.3929
 20
-17.4976
 11
-38.9303
 21
-17.6577
  0
LINE
  8
0
 10
-38.9303
 20
-17.6577
 11
-38.5063
 21
-17.9025
  0
LINE
  8
0
 10
-38.5063
 20
-17.9025
 11
-38.1364
 21
-18.223
  0
LINE
  8
0
 10
-38.1364
 20
-18.223
 11
-37.8338
 21
-18.6078
  0
LINE
  8
0
 10
-37.8338
 20
-18.6078
 11
-37.6095
 21
-19.043
  0
LINE
  8
0
 10
-37.6095
 20
-19.043
 11
-37.4715
 21
-19.5127
  0
LINE
  8
0
 10
-37.4715
 20
-19.5127
 11
-37.425
 21
-20
  0
LINE
  8
0
 10
-37.425
 20
-20
 11
-37.4715
 21
-20.4873
  0
LINE
  8
0
 10
-37.4715
 20
-20.4873
 11
-37.6095
 21
-20.957
  0
LINE
  8
0
 10
-37.6095
 20
-20.957
 11
-37.8338
 21
-21.3922
  0
LINE
  8
0
 10
-37.8338
 20
-21.3922
 11
-38.1364
 21
-21.7769
  0
LINE
  8
0
 10
-38.1364
 20
-21.7769
 11
-38.5063
 21
-22.0975
  0
LINE
  8
0
 10
-38.5063
 20
-22.0975
 11
-38.9303
 21
-22.3423
  0
LINE
  8
0
 10
-38.9303
 20
-22.3423
 11
-39.3929
 21
-22.5024
  0
LINE
  8
0
 10
-39.3929
 20
-22.5024
 11
-39.8775
 21
-22.5721
  0
LINE
  8
0
 10
-39.8775
 20
-22.5721
 11
-40.3665
 21
-22.5488
  0
LINE
  8
0
 10
-20.3665
 20
-22.5488
 11
-20.8422
 21
-22.4334
  0
LINE
  8
0
 10
-20.8422
 20
-22.4334
 11
-21.2875
 21
-22.23
  0
LINE
  8
0
 10
-21.2875
 20
-22.23
 11
-21.6863
 21
-21.946
  0
LINE
  8
0
 10
-21.6863
 20
-21.946
 11
-22.0241
 21
-21.5918
  0
LINE
  8
0
 10
-22.0241
 20
-21.5918
 11
-22.2887
 21
-21.1799
  0
LINE
  8
0
 10
-22.2887
 20
-21.1799
 11
-22.4707
 21
-20.7254
  0
LINE
  8
0
 10
-22.4707
 20
-20.7254
 11
-22.5633
 21
-20.2448
  0
LINE
  8
0
 10
-22.5633
 20
-20.2448
 11
-22.5633
 21
-19.7552
  0
LINE
  8
0
 10
-22.5633
 20
-19.7552
 11
-22.4707
 21
-19.2745
  0
LINE
  8
0
 10
-22.4707
 20
-19.2745
 11
-22.2887
 21
-18.8201
  0
LINE
  8
0
 10
-22.2887
 20
-18.8201
 11
-22.0241
 21
-18.4082
  0
LINE
  8
0
 10
-22.0241
 20
-18.4082
 11
-21.6863
 21
-18.0539
  0
LINE
  8
0
 10
-21.6863
 20
-18.0539
 11
-21.2875
 21
-17.77
  0
LINE
  8
0
 10
-21.2875
 20
-17.77
 11
-20.8422
 21
-17.5666
  0
LINE
  8
0
 10
-20.8422
 20
-17.5666
 11
-20.3665
 21
-17.4512
  0
LINE
  8
0
 10
-20.3665
 20
-17.4512
 11
-19.8775
 21
-17.4279
  0
LINE
  8
0
 10
-19.8775
 20
-17.4279
 11
-19.3929
 21
-17.4976
  0
LINE
  8
0
 10
-19.3929
 20
-17.4976
 11
-18.9303
 21
-17.6577
  0
LINE
  8
0
 10
-18.9303
 20
-17.6577
 11
-18.5063
 21
-17.9025
  0
LINE
  8
0
 10
-18.5063
 20
-17.9025
 11
-18.1364
 21
-18.223
  0
LINE
  8
0
 10
-18.1364
 20
-18.223
 11
-17.8338
 21
-18.6078
  0
LINE
  8
0
 10
-17.8338
 20
-18.6078
 11
-17.6095
 21
-19.043
  0
LINE
  8
0
 10
-17.6095
 20
-19.043
 11
-17.4715
 21
-19.5127
  0
LINE
  8
0
 10
-17.4715
 20
-19.5127
 11
-17.425
 21
-20
  0
LINE
  8
0
 10
-17.425
 20
-20
 11
-17.4715
 21
-20.4873
  0
LINE
  8
0
 10
-17.4715
 20
-20.4873
 11
-17.6095
 21
-20.957
  0
LINE
  8
0
 10
-17.6095
 20
-20.957
 11
-17.8338
 21
-21.3922
  0
LINE
  8
0
 10
-17.8338
 20
-21.3922
 11
-18.1364
 21
-21.7769
  0
LINE
  8
0
 10
-18.1364
 20
-21.7769
 11
-18.5063
 21
-22.0975
  0
LINE
  8
0
 10
-18.5063
 20
-22.0975
 11
-18.9303
 21
-22.3423
  0
LINE
  8
0
 10
-18.9303
 20
-22.3423
 11
-19.3929
 21
-22.5024
  0
LINE
  8
0
 10
-19.3929
 20
-22.5024
 11
-19.8775
 21
-22.5721
  0
LINE
  8
0
 10
-19.8775
 20
-22.5721
 11
-20.3665
 21
-22.5488
  0
ENDSEC
  0
SECTION
  2
OBJECTS
  0
DICTIONARY
  0
ENDSEC
  0
EOF
