  0
SECTION
  2
BLOCKS
  0
ENDSEC
  0
SECTION
  2
ENTITIES
  0
LINE
  8
0
 10
31.2473
 20
-49.972
 11
31.7434
 21
-49.9224
  0
LINE
  8
0
 10
31.7434
 20
-49.9224
 11
32.2365
 21
-49.8481
  0
LINE
  8
0
 10
32.2365
 20
-49.8481
 11
32.7252
 21
-49.7493
  0
LINE
  8
0
 10
32.7252
 20
-49.7493
 11
33.2084
 21
-49.6262
  0
LINE
  8
0
 10
33.2084
 20
-49.6262
 11
33.6849
 21
-49.4793
  0
LINE
  8
0
 10
33.6849
 20
-49.4793
 11
34.1534
 21
-49.3087
  0
LINE
  8
0
 10
34.1534
 20
-49.3087
 11
34.6129
 21
-49.1151
  0
LINE
  8
0
 10
34.6129
 20
-49.1151
 11
35.0621
 21
-48.8987
  0
LINE
  8
0
 10
35.0621
 20
-48.8987
 11
35.5
 21
-48.6602
  0
LINE
  8
0
 10
35.5
 20
-48.6602
 11
35.9255
 21
-48.4003
  0
LINE
  8
0
 10
35.9255
 20
-48.4003
 11
36.3374
 21
-48.1194
  0
LINE
  8
0
 10
36.3374
 20
-48.1194
 11
36.7349
 21
-47.8183
  0
LINE
  8
0
 10
36.7349
 20
-47.8183
 11
37.1169
 21
-47.4978
  0
LINE
  8
0
 10
37.1169
 20
-47.4978
 11
37.4824
 21
-47.1587
  0
LINE
  8
0
 10
37.4824
 20
-47.1587
 11
37.8305
 21
-46.8017
  0
LINE
  8
0
 10
37.8305
 20
-46.8017
 11
38.1604
 21
-46.4279
  0
LINE
  8
0
 10
38.1604
 20
-46.4279
 11
38.4713
 21
-46.038
  0
LINE
  8
0
 10
38.4713
 20
-46.038
 11
38.7624
 21
-45.6332
  0
LINE
  8
0
 10
38.7624
 20
-45.6332
 11
39.0329
 21
-45.2143
  0
LINE
  8
0
 10
39.0329
 20
-45.2143
 11
39.2822
 21
-44.7825
  0
LINE
  8
0
 10
39.2822
 20
-44.7825
 11
39.5097
 21
-44.3388
  0
LINE
  8
0
 10
39.5097
 20
-44.3388
 11
39.7148
 21
-43.8843
  0
LINE
  8
0
 10
39.7148
 20
-43.8843
 11
39.8969
 21
-43.4202
  0
LINE
  8
0
 10
39.8969
 20
-43.4202
 11
40.0557
 21
-42.9475
  0
LINE
  8
0
 10
40.0557
 20
-42.9475
 11
40.1908
 21
-42.4676
  0
LINE
  8
0
 10
40.1908
 20
-42.4676
 11
40.3017
 21
-41.9815
  0
LINE
  8
0
 10
40.3017
 20
-41.9815
 11
40.3883
 21
-41.4904
  0
LINE
  8
0
 10
40.3883
 20
-41.4904
 11
40.4503
 21
-40.9957
  0
LINE
  8
0
 10
40.4503
 20
-40.9957
 11
40.4876
 21
-40.4985
  0
LINE
  8
0
 10
40.4876
 20
-40.4985
 11
40.5
 21
-40
  0
LINE
  8
0
 10
40.5
 20
-40
 11
40.5
 21
-20
  0
LINE
  8
0
 10
40.5
 20
-20
 11
40.4876
 21
-19.5015
  0
LINE
  8
0
 10
40.4876
 20
-19.5015
 11
40.4503
 21
-19.0043
  0
LINE
  8
0
 10
40.4503
 20
-19.0043
 11
40.3883
 21
-18.5096
  0
LINE
  8
0
 10
40.3883
 20
-18.5096
 11
40.3017
 21
-18.0185
  0
LINE
  8
0
 10
40.3017
 20
-18.0185
 11
40.1908
 21
-17.5324
  0
LINE
  8
0
 10
40.1908
 20
-17.5324
 11
40.0557
 21
-17.0524
  0
LINE
  8
0
 10
40.0557
 20
-17.0524
 11
39.8969
 21
-16.5798
  0
LINE
  8
0
 10
39.8969
 20
-16.5798
 11
39.7148
 21
-16.1156
  0
LINE
  8
0
 10
39.7148
 20
-16.1156
 11
39.5097
 21
-15.6612
  0
LINE
  8
0
 10
39.5097
 20
-15.6612
 11
39.2822
 21
-15.2175
  0
LINE
  8
0
 10
39.2822
 20
-15.2175
 11
39.0329
 21
-14.7856
  0
LINE
  8
0
 10
39.0329
 20
-14.7856
 11
38.7624
 21
-14.3668
  0
LINE
  8
0
 10
38.7624
 20
-14.3668
 11
38.4713
 21
-13.9619
  0
LINE
  8
0
 10
38.4713
 20
-13.9619
 11
38.1604
 21
-13.5721
  0
LINE
  8
0
 10
38.1604
 20
-13.5721
 11
37.8305
 21
-13.1983
  0
LINE
  8
0
 10
37.8305
 20
-13.1983
 11
37.4824
 21
-12.8413
  0
LINE
  8
0
 10
37.4824
 20
-12.8413
 11
17.4824
 21
7.15866
  0
LINE
  8
0
 10
17.4824
 20
7.15866
 11
17.1169
 21
7.4978
  0
LINE
  8
0
 10
17.1169
 20
7.4978
 11
16.7349
 21
7.81831
  0
LINE
  8
0
 10
16.7349
 20
7.81831
 11
16.3374
 21
8.11937
  0
LINE
  8
0
 10
16.3374
 20
8.11937
 11
15.9255
 21
8.40025
  0
LINE
  8
0
 10
15.9255
 20
8.40025
 11
15.5
 21
8.66025
  0
LINE
  8
0
 10
15.5
 20
8.66025
 11
15.0621
 21
8.89871
  0
LINE
  8
0
 10
15.0621
 20
8.89871
 11
14.6129
 21
9.11505
  0
LINE
  8
0
 10
14.6129
 20
9.11505
 11
14.1534
 21
9.30873
  0
LINE
  8
0
 10
14.1534
 20
9.30873
 11
13.6849
 21
9.47926
  0
LINE
  8
0
 10
13.6849
 20
9.47926
 11
13.2084
 21
9.62624
  0
LINE
  8
0
 10
13.2084
 20
9.62624
 11
12.7252
 21
9.74927
  0
LINE
  8
0
 10
12.7252
 20
9.74927
 11
12.2365
 21
9.84807
  0
LINE
  8
0
 10
12.2365
 20
9.84807
 11
11.7434
 21
9.92238
  0
LINE
  8
0
 10
11.7434
 20
9.92238
 11
11.2473
 21
9.97203
  0
LINE
  8
0
 10
11.2473
 20
9.97203
 11
10.7493
 21
9.99689
  0
LINE
  8
0
 10
10.7493
 20
9.99689
 11
10.2507
 21
9.99689
  0
LINE
  8
0
 10
10.2507
 20
9.99689
 11
9.75269
 21
9.97203
  0
LINE
  8
0
 10
9.75269
 20
9.97203
 11
9.25656
 21
9.92238
  0
LINE
  8
0
 10
9.25656
 20
9.92238
 11
8.7635
 21
9.84807
  0
LINE
  8
0
 10
8.7635
 20
9.84807
 11
8.27478
 21
9.74927
  0
LINE
  8
0
 10
8.27478
 20
9.74927
 11
7.7916
 21
9.62624
  0
LINE
  8
0
 10
7.7916
 20
9.62624
 11
7.31512
 21
9.47926
  0
LINE
  8
0
 10
7.31512
 20
9.47926
 11
6.84659
 21
9.30873
  0
LINE
  8
0
 10
6.84659
 20
9.30873
 11
6.38712
 21
9.11505
  0
LINE
  8
0
 10
6.38712
 20
9.11505
 11
5.93788
 21
8.89871
  0
LINE
  8
0
 10
5.93788
 20
8.89871
 11
5.5
 21
8.66025
  0
LINE
  8
0
 10
5.5
 20
8.66025
 11
5.07452
 21
8.40025
  0
LINE
  8
0
 10
5.07452
 20
8.40025
 11
4.66255
 21
8.11937
  0
LINE
  8
0
 10
4.66255
 20
8.11937
 11
4.26509
 21
7.81831
  0
LINE
  8
0
 10
4.26509
 20
7.81831
 11
3.88313
 21
7.4978
  0
LINE
  8
0
 10
3.88313
 20
7.4978
 11
3.51762
 21
7.15866
  0
LINE
  8
0
 10
3.51762
 20
7.15866
 11
3.16948
 21
6.80173
  0
LINE
  8
0
 10
3.16948
 20
6.80173
 11
2.83955
 21
6.42787
  0
LINE
  8
0
 10
2.83955
 20
6.42787
 11
2.52867
 21
6.03804
  0
LINE
  8
0
 10
2.52867
 20
6.03804
 11
2.23761
 21
5.63319
  0
LINE
  8
0
 10
2.23761
 20
5.63319
 11
1.96709
 21
5.21434
  0
LINE
  8
0
 10
1.96709
 20
5.21434
 11
1.71777
 21
4.78253
  0
LINE
  8
0
 10
1.71777
 20
4.78253
 11
1.49031
 21
4.33884
  0
LINE
  8
0
 10
1.49031
 20
4.33884
 11
1.28523
 21
3.88434
  0
LINE
  8
0
 10
1.28523
 20
3.88434
 11
1.10307
 21
3.4202
  0
LINE
  8
0
 10
1.10307
 20
3.4202
 11
0.94426
 21
2.94754
  0
LINE
  8
0
 10
0.94426
 20
2.94754
 11
0.809219
 21
2.46756
  0
LINE
  8
0
 10
0.809219
 20
2.46756
 11
0.698273
 21
1.98146
  0
LINE
  8
0
 10
0.698273
 20
1.98146
 11
0.611679
 21
1.49042
  0
LINE
  8
0
 10
0.611679
 20
1.49042
 11
0.549683
 21
0.995667
  0
LINE
  8
0
 10
0.549683
 20
0.995667
 11
0.512421
 21
0.498444
  0
LINE
  8
0
 10
0.512421
 20
0.498444
 11
0.5
 21
0
  0
LINE
  8
0
 10
0.5
 20
0
 11
0.5
 21
-40
  0
LINE
  8
0
 10
0.5
 20
-40
 11
0.512421
 21
-40.4985
  0
LINE
  8
0
 10
0.512421
 20
-40.4985
 11
0.549683
 21
-40.9957
  0
LINE
  8
0
 10
0.549683
 20
-40.9957
 11
0.611679
 21
-41.4904
  0
LINE
  8
0
 10
0.611679
 20
-41.4904
 11
0.698273
 21
-41.9815
  0
LINE
  8
0
 10
0.698273
 20
-41.9815
 11
0.809219
 21
-42.4676
  0
LINE
  8
0
 10
0.809219
 20
-42.4676
 11
0.94426
 21
-42.9475
  0
LINE
  8
0
 10
0.94426
 20
-42.9475
 11
1.10307
 21
-43.4202
  0
LINE
  8
0
 10
1.10307
 20
-43.4202
 11
1.28523
 21
-43.8843
  0
LINE
  8
0
 10
1.28523
 20
-43.8843
 11
1.49031
 21
-44.3388
  0
LINE
  8
0
 10
1.49031
 20
-44.3388
 11
1.71777
 21
-44.7825
  0
LINE
  8
0
 10
1.71777
 20
-44.7825
 11
1.96709
 21
-45.2143
  0
LINE
  8
0
 10
1.96709
 20
-45.2143
 11
2.23761
 21
-45.6332
  0
LINE
  8
0
 10
2.23761
 20
-45.6332
 11
2.52867
 21
-46.038
  0
LINE
  8
0
 10
2.52867
 20
-46.038
 11
2.83955
 21
-46.4279
  0
LINE
  8
0
 10
2.83955
 20
-46.4279
 11
3.16948
 21
-46.8017
  0
LINE
  8
0
 10
3.16948
 20
-46.8017
 11
3.51762
 21
-47.1587
  0
LINE
  8
0
 10
3.51762
 20
-47.1587
 11
3.88313
 21
-47.4978
  0
LINE
  8
0
 10
3.88313
 20
-47.4978
 11
4.26509
 21
-47.8183
  0
LINE
  8
0
 10
4.26509
 20
-47.8183
 11
4.66255
 21
-48.1194
  0
LINE
  8
0
 10
4.66255
 20
-48.1194
 11
5.07452
 21
-48.4003
  0
LINE
  8
0
 10
5.07452
 20
-48.4003
 11
5.5
 21
-48.6602
  0
LINE
  8
0
 10
5.5
 20
-48.6602
 11
5.93788
 21
-48.8987
  0
LINE
  8
0
 10
5.93788
 20
-48.8987
 11
6.38712
 21
-49.1151
  0
LINE
  8
0
 10
6.38712
 20
-49.1151
 11
6.84659
 21
-49.3087
  0
LINE
  8
0
 10
6.84659
 20
-49.3087
 11
7.31512
 21
-49.4793
  0
LINE
  8
0
 10
7.31512
 20
-49.4793
 11
7.7916
 21
-49.6262
  0
LINE
  8
0
 10
7.7916
 20
-49.6262
 11
8.27478
 21
-49.7493
  0
LINE
  8
0
 10
8.27478
 20
-49.7493
 11
8.7635
 21
-49.8481
  0
LINE
  8
0
 10
8.7635
 20
-49.8481
 11
9.25656
 21
-49.9224
  0
LINE
  8
0
 10
9.25656
 20
-49.9224
 11
9.75269
 21
-49.972
  0
LINE
  8
0
 10
9.75269
 20
-49.972
 11
10.2507
 21
-49.9969
  0
LINE
  8
0
 10
10.2507
 20
-49.9969
 11
30.7493
 21
-49.9969
  0
LINE
  8
0
 10
30.7493
 20
-49.9969
 11
31.2473
 21
-49.972
  0
LINE
  8
0
 10
10.2509
 20
-2.68848
 11
9.76111
 21
-2.59692
  0
LINE
  8
0
 10
9.76111
 20
-2.59692
 11
9.29649
 21
-2.41693
  0
LINE
  8
0
 10
9.29649
 20
-2.41693
 11
8.87288
 21
-2.15463
  0
LINE
  8
0
 10
8.87288
 20
-2.15463
 11
8.50467
 21
-1.81897
  0
LINE
  8
0
 10
8.50467
 20
-1.81897
 11
8.20441
 21
-1.42136
  0
LINE
  8
0
 10
8.20441
 20
-1.42136
 11
7.98232
 21
-0.975342
  0
LINE
  8
0
 10
7.98232
 20
-0.975342
 11
7.84596
 21
-0.496109
  0
LINE
  8
0
 10
7.84596
 20
-0.496109
 11
7.79999
 21
0
  0
LINE
  8
0
 10
7.79999
 20
0
 11
7.84596
 21
0.496109
  0
LINE
  8
0
 10
7.84596
 20
0.496109
 11
7.98232
 21
0.975342
  0
LINE
  8
0
 10
7.98232
 20
0.975342
 11
8.20441
 21
1.42136
  0
LINE
  8
0
 10
8.20441
 20
1.42136
 11
8.50467
 21
1.81897
  0
LINE
  8
0
 10
8.50467
 20
1.81897
 11
8.87288
 21
2.15463
  0
LINE
  8
0
 10
8.87288
 20
2.15463
 11
9.29649
 21
2.41693
  0
LINE
  8
0
 10
9.29649
 20
2.41693
 11
9.76111
 21
2.59692
  0
LINE
  8
0
 10
9.76111
 20
2.59692
 11
10.2509
 21
2.68848
  0
LINE
  8
0
 10
10.2509
 20
2.68848
 11
10.7491
 21
2.68848
  0
LINE
  8
0
 10
10.7491
 20
2.68848
 11
11.2389
 21
2.59692
  0
LINE
  8
0
 10
11.2389
 20
2.59692
 11
11.7035
 21
2.41693
  0
LINE
  8
0
 10
11.7035
 20
2.41693
 11
12.1271
 21
2.15463
  0
LINE
  8
0
 10
12.1271
 20
2.15463
 11
12.4953
 21
1.81897
  0
LINE
  8
0
 10
12.4953
 20
1.81897
 11
12.7956
 21
1.42136
  0
LINE
  8
0
 10
12.7956
 20
1.42136
 11
13.0177
 21
0.975342
  0
LINE
  8
0
 10
13.0177
 20
0.975342
 11
13.154
 21
0.496109
  0
LINE
  8
0
 10
13.154
 20
0.496109
 11
13.2
 21
0
  0
LINE
  8
0
 10
13.2
 20
0
 11
13.154
 21
-0.496109
  0
LINE
  8
0
 10
13.154
 20
-0.496109
 11
13.0177
 21
-0.975342
  0
LINE
  8
0
 10
13.0177
 20
-0.975342
 11
12.7956
 21
-1.42136
  0
LINE
  8
0
 10
12.7956
 20
-1.42136
 11
12.4953
 21
-1.81897
  0
LINE
  8
0
 10
12.4953
 20
-1.81897
 11
12.1271
 21
-2.15463
  0
LINE
  8
0
 10
12.1271
 20
-2.15463
 11
11.7035
 21
-2.41693
  0
LINE
  8
0
 10
11.7035
 20
-2.41693
 11
11.2389
 21
-2.59692
  0
LINE
  8
0
 10
11.2389
 20
-2.59692
 11
10.7491
 21
-2.68848
  0
LINE
  8
0
 10
10.7491
 20
-2.68848
 11
10.2509
 21
-2.68848
  0
LINE
  8
0
 10
30.2509
 20
-22.6885
 11
29.7611
 21
-22.5969
  0
LINE
  8
0
 10
29.7611
 20
-22.5969
 11
29.2965
 21
-22.4169
  0
LINE
  8
0
 10
29.2965
 20
-22.4169
 11
28.8729
 21
-22.1546
  0
LINE
  8
0
 10
28.8729
 20
-22.1546
 11
28.5047
 21
-21.819
  0
LINE
  8
0
 10
28.5047
 20
-21.819
 11
28.2044
 21
-21.4214
  0
LINE
  8
0
 10
28.2044
 20
-21.4214
 11
27.9823
 21
-20.9753
  0
LINE
  8
0
 10
27.9823
 20
-20.9753
 11
27.846
 21
-20.4961
  0
LINE
  8
0
 10
27.846
 20
-20.4961
 11
27.8
 21
-20
  0
LINE
  8
0
 10
27.8
 20
-20
 11
27.846
 21
-19.5039
  0
LINE
  8
0
 10
27.846
 20
-19.5039
 11
27.9823
 21
-19.0246
  0
LINE
  8
0
 10
27.9823
 20
-19.0246
 11
28.2044
 21
-18.5786
  0
LINE
  8
0
 10
28.2044
 20
-18.5786
 11
28.5047
 21
-18.181
  0
LINE
  8
0
 10
28.5047
 20
-18.181
 11
28.8729
 21
-17.8454
  0
LINE
  8
0
 10
28.8729
 20
-17.8454
 11
29.2965
 21
-17.5831
  0
LINE
  8
0
 10
29.2965
 20
-17.5831
 11
29.7611
 21
-17.4031
  0
LINE
  8
0
 10
29.7611
 20
-17.4031
 11
30.2509
 21
-17.3115
  0
LINE
  8
0
 10
30.2509
 20
-17.3115
 11
30.7491
 21
-17.3115
  0
LINE
  8
0
 10
30.7491
 20
-17.3115
 11
31.2389
 21
-17.4031
  0
LINE
  8
0
 10
31.2389
 20
-17.4031
 11
31.7035
 21
-17.5831
  0
LINE
  8
0
 10
31.7035
 20
-17.5831
 11
32.1271
 21
-17.8454
  0
LINE
  8
0
 10
32.1271
 20
-17.8454
 11
32.4953
 21
-18.181
  0
LINE
  8
0
 10
32.4953
 20
-18.181
 11
32.7956
 21
-18.5786
  0
LINE
  8
0
 10
32.7956
 20
-18.5786
 11
33.0177
 21
-19.0246
  0
LINE
  8
0
 10
33.0177
 20
-19.0246
 11
33.154
 21
-19.5039
  0
LINE
  8
0
 10
33.154
 20
-19.5039
 11
33.2
 21
-20
  0
LINE
  8
0
 10
33.2
 20
-20
 11
33.154
 21
-20.4961
  0
LINE
  8
0
 10
33.154
 20
-20.4961
 11
33.0177
 21
-20.9753
  0
LINE
  8
0
 10
33.0177
 20
-20.9753
 11
32.7956
 21
-21.4214
  0
LINE
  8
0
 10
32.7956
 20
-21.4214
 11
32.4953
 21
-21.819
  0
LINE
  8
0
 10
32.4953
 20
-21.819
 11
32.1271
 21
-22.1546
  0
LINE
  8
0
 10
32.1271
 20
-22.1546
 11
31.7035
 21
-22.4169
  0
LINE
  8
0
 10
31.7035
 20
-22.4169
 11
31.2389
 21
-22.5969
  0
LINE
  8
0
 10
31.2389
 20
-22.5969
 11
30.7491
 21
-22.6885
  0
LINE
  8
0
 10
30.7491
 20
-22.6885
 11
30.2509
 21
-22.6885
  0
LINE
  8
0
 10
10.2509
 20
-22.6885
 11
9.76111
 21
-22.5969
  0
LINE
  8
0
 10
9.76111
 20
-22.5969
 11
9.29649
 21
-22.4169
  0
LINE
  8
0
 10
9.29649
 20
-22.4169
 11
8.87288
 21
-22.1546
  0
LINE
  8
0
 10
8.87288
 20
-22.1546
 11
8.50467
 21
-21.819
  0
LINE
  8
0
 10
8.50467
 20
-21.819
 11
8.20441
 21
-21.4214
  0
LINE
  8
0
 10
8.20441
 20
-21.4214
 11
7.98232
 21
-20.9753
  0
LINE
  8
0
 10
7.98232
 20
-20.9753
 11
7.84596
 21
-20.4961
  0
LINE
  8
0
 10
7.84596
 20
-20.4961
 11
7.79999
 21
-20
  0
LINE
  8
0
 10
7.79999
 20
-20
 11
7.84596
 21
-19.5039
  0
LINE
  8
0
 10
7.84596
 20
-19.5039
 11
7.98232
 21
-19.0246
  0
LINE
  8
0
 10
7.98232
 20
-19.0246
 11
8.20441
 21
-18.5786
  0
LINE
  8
0
 10
8.20441
 20
-18.5786
 11
8.50467
 21
-18.181
  0
LINE
  8
0
 10
8.50467
 20
-18.181
 11
8.87288
 21
-17.8454
  0
LINE
  8
0
 10
8.87288
 20
-17.8454
 11
9.29649
 21
-17.5831
  0
LINE
  8
0
 10
9.29649
 20
-17.5831
 11
9.76111
 21
-17.4031
  0
LINE
  8
0
 10
9.76111
 20
-17.4031
 11
10.2509
 21
-17.3115
  0
LINE
  8
0
 10
10.2509
 20
-17.3115
 11
10.7491
 21
-17.3115
  0
LINE
  8
0
 10
10.7491
 20
-17.3115
 11
11.2389
 21
-17.4031
  0
LINE
  8
0
 10
11.2389
 20
-17.4031
 11
11.7035
 21
-17.5831
  0
LINE
  8
0
 10
11.7035
 20
-17.5831
 11
12.1271
 21
-17.8454
  0
LINE
  8
0
 10
12.1271
 20
-17.8454
 11
12.4953
 21
-18.181
  0
LINE
  8
0
 10
12.4953
 20
-18.181
 11
12.7956
 21
-18.5786
  0
LINE
  8
0
 10
12.7956
 20
-18.5786
 11
13.0177
 21
-19.0246
  0
LINE
  8
0
 10
13.0177
 20
-19.0246
 11
13.154
 21
-19.5039
  0
LINE
  8
0
 10
13.154
 20
-19.5039
 11
13.2
 21
-20
  0
LINE
  8
0
 10
13.2
 20
-20
 11
13.154
 21
-20.4961
  0
LINE
  8
0
 10
13.154
 20
-20.4961
 11
13.0177
 21
-20.9753
  0
LINE
  8
0
 10
13.0177
 20
-20.9753
 11
12.7956
 21
-21.4214
  0
LINE
  8
0
 10
12.7956
 20
-21.4214
 11
12.4953
 21
-21.819
  0
LINE
  8
0
 10
12.4953
 20
-21.819
 11
12.1271
 21
-22.1546
  0
LINE
  8
0
 10
12.1271
 20
-22.1546
 11
11.7035
 21
-22.4169
  0
LINE
  8
0
 10
11.7035
 20
-22.4169
 11
11.2389
 21
-22.5969
  0
LINE
  8
0
 10
11.2389
 20
-22.5969
 11
10.7491
 21
-22.6885
  0
LINE
  8
0
 10
10.7491
 20
-22.6885
 11
10.2509
 21
-22.6885
  0
LINE
  8
0
 10
30.2509
 20
-42.6885
 11
29.7611
 21
-42.5969
  0
LINE
  8
0
 10
29.7611
 20
-42.5969
 11
29.2965
 21
-42.4169
  0
LINE
  8
0
 10
29.2965
 20
-42.4169
 11
28.8729
 21
-42.1546
  0
LINE
  8
0
 10
28.8729
 20
-42.1546
 11
28.5047
 21
-41.819
  0
LINE
  8
0
 10
28.5047
 20
-41.819
 11
28.2044
 21
-41.4214
  0
LINE
  8
0
 10
28.2044
 20
-41.4214
 11
27.9823
 21
-40.9753
  0
LINE
  8
0
 10
27.9823
 20
-40.9753
 11
27.846
 21
-40.4961
  0
LINE
  8
0
 10
27.846
 20
-40.4961
 11
27.8
 21
-40
  0
LINE
  8
0
 10
27.8
 20
-40
 11
27.846
 21
-39.5039
  0
LINE
  8
0
 10
27.846
 20
-39.5039
 11
27.9823
 21
-39.0246
  0
LINE
  8
0
 10
27.9823
 20
-39.0246
 11
28.2044
 21
-38.5786
  0
LINE
  8
0
 10
28.2044
 20
-38.5786
 11
28.5047
 21
-38.181
  0
LINE
  8
0
 10
28.5047
 20
-38.181
 11
28.8729
 21
-37.8454
  0
LINE
  8
0
 10
28.8729
 20
-37.8454
 11
29.2965
 21
-37.5831
  0
LINE
  8
0
 10
29.2965
 20
-37.5831
 11
29.7611
 21
-37.4031
  0
LINE
  8
0
 10
29.7611
 20
-37.4031
 11
30.2509
 21
-37.3115
  0
LINE
  8
0
 10
30.2509
 20
-37.3115
 11
30.7491
 21
-37.3115
  0
LINE
  8
0
 10
30.7491
 20
-37.3115
 11
31.2389
 21
-37.4031
  0
LINE
  8
0
 10
31.2389
 20
-37.4031
 11
31.7035
 21
-37.5831
  0
LINE
  8
0
 10
31.7035
 20
-37.5831
 11
32.1271
 21
-37.8454
  0
LINE
  8
0
 10
32.1271
 20
-37.8454
 11
32.4953
 21
-38.181
  0
LINE
  8
0
 10
32.4953
 20
-38.181
 11
32.7956
 21
-38.5786
  0
LINE
  8
0
 10
32.7956
 20
-38.5786
 11
33.0177
 21
-39.0246
  0
LINE
  8
0
 10
33.0177
 20
-39.0246
 11
33.154
 21
-39.5039
  0
LINE
  8
0
 10
33.154
 20
-39.5039
 11
33.2
 21
-40
  0
LINE
  8
0
 10
33.2
 20
-40
 11
33.154
 21
-40.4961
  0
LINE
  8
0
 10
33.154
 20
-40.4961
 11
33.0177
 21
-40.9753
  0
LINE
  8
0
 10
33.0177
 20
-40.9753
 11
32.7956
 21
-41.4214
  0
LINE
  8
0
 10
32.7956
 20
-41.4214
 11
32.4953
 21
-41.819
  0
LINE
  8
0
 10
32.4953
 20
-41.819
 11
32.1271
 21
-42.1546
  0
LINE
  8
0
 10
32.1271
 20
-42.1546
 11
31.7035
 21
-42.4169
  0
LINE
  8
0
 10
31.7035
 20
-42.4169
 11
31.2389
 21
-42.5969
  0
LINE
  8
0
 10
31.2389
 20
-42.5969
 11
30.7491
 21
-42.6885
  0
LINE
  8
0
 10
30.7491
 20
-42.6885
 11
30.2509
 21
-42.6885
  0
LINE
  8
0
 10
10.2509
 20
-42.6885
 11
9.76111
 21
-42.5969
  0
LINE
  8
0
 10
9.76111
 20
-42.5969
 11
9.29649
 21
-42.4169
  0
LINE
  8
0
 10
9.29649
 20
-42.4169
 11
8.87288
 21
-42.1546
  0
LINE
  8
0
 10
8.87288
 20
-42.1546
 11
8.50467
 21
-41.819
  0
LINE
  8
0
 10
8.50467
 20
-41.819
 11
8.20441
 21
-41.4214
  0
LINE
  8
0
 10
8.20441
 20
-41.4214
 11
7.98232
 21
-40.9753
  0
LINE
  8
0
 10
7.98232
 20
-40.9753
 11
7.84596
 21
-40.4961
  0
LINE
  8
0
 10
7.84596
 20
-40.4961
 11
7.79999
 21
-40
  0
LINE
  8
0
 10
7.79999
 20
-40
 11
7.84596
 21
-39.5039
  0
LINE
  8
0
 10
7.84596
 20
-39.5039
 11
7.98232
 21
-39.0246
  0
LINE
  8
0
 10
7.98232
 20
-39.0246
 11
8.20441
 21
-38.5786
  0
LINE
  8
0
 10
8.20441
 20
-38.5786
 11
8.50467
 21
-38.181
  0
LINE
  8
0
 10
8.50467
 20
-38.181
 11
8.87288
 21
-37.8454
  0
LINE
  8
0
 10
8.87288
 20
-37.8454
 11
9.29649
 21
-37.5831
  0
LINE
  8
0
 10
9.29649
 20
-37.5831
 11
9.76111
 21
-37.4031
  0
LINE
  8
0
 10
9.76111
 20
-37.4031
 11
10.2509
 21
-37.3115
  0
LINE
  8
0
 10
10.2509
 20
-37.3115
 11
10.7491
 21
-37.3115
  0
LINE
  8
0
 10
10.7491
 20
-37.3115
 11
11.2389
 21
-37.4031
  0
LINE
  8
0
 10
11.2389
 20
-37.4031
 11
11.7035
 21
-37.5831
  0
LINE
  8
0
 10
11.7035
 20
-37.5831
 11
12.1271
 21
-37.8454
  0
LINE
  8
0
 10
12.1271
 20
-37.8454
 11
12.4953
 21
-38.181
  0
LINE
  8
0
 10
12.4953
 20
-38.181
 11
12.7956
 21
-38.5786
  0
LINE
  8
0
 10
12.7956
 20
-38.5786
 11
13.0177
 21
-39.0246
  0
LINE
  8
0
 10
13.0177
 20
-39.0246
 11
13.154
 21
-39.5039
  0
LINE
  8
0
 10
13.154
 20
-39.5039
 11
13.2
 21
-40
  0
LINE
  8
0
 10
13.2
 20
-40
 11
13.154
 21
-40.4961
  0
LINE
  8
0
 10
13.154
 20
-40.4961
 11
13.0177
 21
-40.9753
  0
LINE
  8
0
 10
13.0177
 20
-40.9753
 11
12.7956
 21
-41.4214
  0
LINE
  8
0
 10
12.7956
 20
-41.4214
 11
12.4953
 21
-41.819
  0
LINE
  8
0
 10
12.4953
 20
-41.819
 11
12.1271
 21
-42.1546
  0
LINE
  8
0
 10
12.1271
 20
-42.1546
 11
11.7035
 21
-42.4169
  0
LINE
  8
0
 10
11.7035
 20
-42.4169
 11
11.2389
 21
-42.5969
  0
LINE
  8
0
 10
11.2389
 20
-42.5969
 11
10.7491
 21
-42.6885
  0
LINE
  8
0
 10
10.7491
 20
-42.6885
 11
10.2509
 21
-42.6885
  0
LINE
  8
0
 10
-9.75269
 20
-49.972
 11
-9.25656
 21
-49.9224
  0
LINE
  8
0
 10
-9.25656
 20
-49.9224
 11
-8.7635
 21
-49.8481
  0
LINE
  8
0
 10
-8.7635
 20
-49.8481
 11
-8.27478
 21
-49.7493
  0
LINE
  8
0
 10
-8.27478
 20
-49.7493
 11
-7.7916
 21
-49.6262
  0
LINE
  8
0
 10
-7.7916
 20
-49.6262
 11
-7.31512
 21
-49.4793
  0
LINE
  8
0
 10
-7.31512
 20
-49.4793
 11
-6.84659
 21
-49.3087
  0
LINE
  8
0
 10
-6.84659
 20
-49.3087
 11
-6.38712
 21
-49.1151
  0
LINE
  8
0
 10
-6.38712
 20
-49.1151
 11
-5.93788
 21
-48.8987
  0
LINE
  8
0
 10
-5.93788
 20
-48.8987
 11
-5.5
 21
-48.6602
  0
LINE
  8
0
 10
-5.5
 20
-48.6602
 11
-5.07452
 21
-48.4003
  0
LINE
  8
0
 10
-5.07452
 20
-48.4003
 11
-4.66255
 21
-48.1194
  0
LINE
  8
0
 10
-4.66255
 20
-48.1194
 11
-4.26509
 21
-47.8183
  0
LINE
  8
0
 10
-4.26509
 20
-47.8183
 11
-3.88313
 21
-47.4978
  0
LINE
  8
0
 10
-3.88313
 20
-47.4978
 11
-3.51762
 21
-47.1587
  0
LINE
  8
0
 10
-3.51762
 20
-47.1587
 11
-3.16948
 21
-46.8017
  0
LINE
  8
0
 10
-3.16948
 20
-46.8017
 11
-2.83955
 21
-46.4279
  0
LINE
  8
0
 10
-2.83955
 20
-46.4279
 11
-2.52867
 21
-46.038
  0
LINE
  8
0
 10
-2.52867
 20
-46.038
 11
-2.23761
 21
-45.6332
  0
LINE
  8
0
 10
-2.23761
 20
-45.6332
 11
-1.96709
 21
-45.2143
  0
LINE
  8
0
 10
-1.96709
 20
-45.2143
 11
-1.71777
 21
-44.7825
  0
LINE
  8
0
 10
-1.71777
 20
-44.7825
 11
-1.49031
 21
-44.3388
  0
LINE
  8
0
 10
-1.49031
 20
-44.3388
 11
-1.28523
 21
-43.8843
  0
LINE
  8
0
 10
-1.28523
 20
-43.8843
 11
-1.10307
 21
-43.4202
  0
LINE
  8
0
 10
-1.10307
 20
-43.4202
 11
-0.94426
 21
-42.9475
  0
LINE
  8
0
 10
-0.94426
 20
-42.9475
 11
-0.809219
 21
-42.4676
  0
LINE
  8
0
 10
-0.809219
 20
-42.4676
 11
-0.698273
 21
-41.9815
  0
LINE
  8
0
 10
-0.698273
 20
-41.9815
 11
-0.611679
 21
-41.4904
  0
LINE
  8
0
 10
-0.611679
 20
-41.4904
 11
-0.549683
 21
-40.9957
  0
LINE
  8
0
 10
-0.549683
 20
-40.9957
 11
-0.512421
 21
-40.4985
  0
LINE
  8
0
 10
-0.512421
 20
-40.4985
 11
-0.5
 21
-40
  0
LINE
  8
0
 10
-0.5
 20
-40
 11
-0.5
 21
0
  0
LINE
  8
0
 10
-0.5
 20
0
 11
-0.512421
 21
0.498444
  0
LINE
  8
0
 10
-0.512421
 20
0.498444
 11
-0.549683
 21
0.995667
  0
LINE
  8
0
 10
-0.549683
 20
0.995667
 11
-0.611679
 21
1.49042
  0
LINE
  8
0
 10
-0.611679
 20
1.49042
 11
-0.698273
 21
1.98146
  0
LINE
  8
0
 10
-0.698273
 20
1.98146
 11
-0.809219
 21
2.46756
  0
LINE
  8
0
 10
-0.809219
 20
2.46756
 11
-0.94426
 21
2.94754
  0
LINE
  8
0
 10
-0.94426
 20
2.94754
 11
-1.10307
 21
3.4202
  0
LINE
  8
0
 10
-1.10307
 20
3.4202
 11
-1.28523
 21
3.88434
  0
LINE
  8
0
 10
-1.28523
 20
3.88434
 11
-1.49031
 21
4.33884
  0
LINE
  8
0
 10
-1.49031
 20
4.33884
 11
-1.71777
 21
4.78253
  0
LINE
  8
0
 10
-1.71777
 20
4.78253
 11
-1.96709
 21
5.21434
  0
LINE
  8
0
 10
-1.96709
 20
5.21434
 11
-2.23761
 21
5.63319
  0
LINE
  8
0
 10
-2.23761
 20
5.63319
 11
-2.52867
 21
6.03804
  0
LINE
  8
0
 10
-2.52867
 20
6.03804
 11
-2.83955
 21
6.42787
  0
LINE
  8
0
 10
-2.83955
 20
6.42787
 11
-3.16948
 21
6.80173
  0
LINE
  8
0
 10
-3.16948
 20
6.80173
 11
-3.51762
 21
7.15866
  0
LINE
  8
0
 10
-3.51762
 20
7.15866
 11
-3.88313
 21
7.4978
  0
LINE
  8
0
 10
-3.88313
 20
7.4978
 11
-4.26509
 21
7.81831
  0
LINE
  8
0
 10
-4.26509
 20
7.81831
 11
-4.66255
 21
8.11937
  0
LINE
  8
0
 10
-4.66255
 20
8.11937
 11
-5.07452
 21
8.40025
  0
LINE
  8
0
 10
-5.07452
 20
8.40025
 11
-5.5
 21
8.66025
  0
LINE
  8
0
 10
-5.5
 20
8.66025
 11
-5.93788
 21
8.89871
  0
LINE
  8
0
 10
-5.93788
 20
8.89871
 11
-6.38712
 21
9.11505
  0
LINE
  8
0
 10
-6.38712
 20
9.11505
 11
-6.84659
 21
9.30873
  0
LINE
  8
0
 10
-6.84659
 20
9.30873
 11
-7.31512
 21
9.47926
  0
LINE
  8
0
 10
-7.31512
 20
9.47926
 11
-7.7916
 21
9.62624
  0
LINE
  8
0
 10
-7.7916
 20
9.62624
 11
-8.27478
 21
9.74927
  0
LINE
  8
0
 10
-8.27478
 20
9.74927
 11
-8.7635
 21
9.84807
  0
LINE
  8
0
 10
-8.7635
 20
9.84807
 11
-9.25656
 21
9.92238
  0
LINE
  8
0
 10
-9.25656
 20
9.92238
 11
-9.75269
 21
9.97203
  0
LINE
  8
0
 10
-9.75269
 20
9.97203
 11
-10.2507
 21
9.99689
  0
LINE
  8
0
 10
-10.2507
 20
9.99689
 11
-10.7493
 21
9.99689
  0
LINE
  8
0
 10
-10.7493
 20
9.99689
 11
-11.2473
 21
9.97203
  0
LINE
  8
0
 10
-11.2473
 20
9.97203
 11
-11.7434
 21
9.92238
  0
LINE
  8
0
 10
-11.7434
 20
9.92238
 11
-12.2365
 21
9.84807
  0
LINE
  8
0
 10
-12.2365
 20
9.84807
 11
-12.7252
 21
9.74927
  0
LINE
  8
0
 10
-12.7252
 20
9.74927
 11
-13.2084
 21
9.62624
  0
LINE
  8
0
 10
-13.2084
 20
9.62624
 11
-13.6849
 21
9.47926
  0
LINE
  8
0
 10
-13.6849
 20
9.47926
 11
-14.1534
 21
9.30873
  0
LINE
  8
0
 10
-14.1534
 20
9.30873
 11
-14.6129
 21
9.11505
  0
LINE
  8
0
 10
-14.6129
 20
9.11505
 11
-15.0621
 21
8.89871
  0
LINE
  8
0
 10
-15.0621
 20
8.89871
 11
-15.5
 21
8.66025
  0
LINE
  8
0
 10
-15.5
 20
8.66025
 11
-15.9255
 21
8.40025
  0
LINE
  8
0
 10
-15.9255
 20
8.40025
 11
-16.3374
 21
8.11937
  0
LINE
  8
0
 10
-16.3374
 20
8.11937
 11
-16.7349
 21
7.81831
  0
LINE
  8
0
 10
-16.7349
 20
7.81831
 11
-17.1169
 21
7.4978
  0
LINE
  8
0
 10
-17.1169
 20
7.4978
 11
-17.4824
 21
7.15866
  0
LINE
  8
0
 10
-17.4824
 20
7.15866
 11
-37.4824
 21
-12.8413
  0
LINE
  8
0
 10
-37.4824
 20
-12.8413
 11
-37.8305
 21
-13.1983
  0
LINE
  8
0
 10
-37.8305
 20
-13.1983
 11
-38.1604
 21
-13.5721
  0
LINE
  8
0
 10
-38.1604
 20
-13.5721
 11
-38.4713
 21
-13.9619
  0
LINE
  8
0
 10
-38.4713
 20
-13.9619
 11
-38.7624
 21
-14.3668
  0
LINE
  8
0
 10
-38.7624
 20
-14.3668
 11
-39.0329
 21
-14.7856
  0
LINE
  8
0
 10
-39.0329
 20
-14.7856
 11
-39.2822
 21
-15.2175
  0
LINE
  8
0
 10
-39.2822
 20
-15.2175
 11
-39.5097
 21
-15.6612
  0
LINE
  8
0
 10
-39.5097
 20
-15.6612
 11
-39.7148
 21
-16.1156
  0
LINE
  8
0
 10
-39.7148
 20
-16.1156
 11
-39.8969
 21
-16.5798
  0
LINE
  8
0
 10
-39.8969
 20
-16.5798
 11
-40.0557
 21
-17.0524
  0
LINE
  8
0
 10
-40.0557
 20
-17.0524
 11
-40.1908
 21
-17.5324
  0
LINE
  8
0
 10
-40.1908
 20
-17.5324
 11
-40.3017
 21
-18.0185
  0
LINE
  8
0
 10
-40.3017
 20
-18.0185
 11
-40.3883
 21
-18.5096
  0
LINE
  8
0
 10
-40.3883
 20
-18.5096
 11
-40.4503
 21
-19.0043
  0
LINE
  8
0
 10
-40.4503
 20
-19.0043
 11
-40.4876
 21
-19.5015
  0
LINE
  8
0
 10
-40.4876
 20
-19.5015
 11
-40.5
 21
-20
  0
LINE
  8
0
 10
-40.5
 20
-20
 11
-40.5
 21
-40
  0
LINE
  8
0
 10
-40.5
 20
-40
 11
-40.4876
 21
-40.4985
  0
LINE
  8
0
 10
-40.4876
 20
-40.4985
 11
-40.4503
 21
-40.9957
  0
LINE
  8
0
 10
-40.4503
 20
-40.9957
 11
-40.3883
 21
-41.4904
  0
LINE
  8
0
 10
-40.3883
 20
-41.4904
 11
-40.3017
 21
-41.9815
  0
LINE
  8
0
 10
-40.3017
 20
-41.9815
 11
-40.1908
 21
-42.4676
  0
LINE
  8
0
 10
-40.1908
 20
-42.4676
 11
-40.0557
 21
-42.9475
  0
LINE
  8
0
 10
-40.0557
 20
-42.9475
 11
-39.8969
 21
-43.4202
  0
LINE
  8
0
 10
-39.8969
 20
-43.4202
 11
-39.7148
 21
-43.8843
  0
LINE
  8
0
 10
-39.7148
 20
-43.8843
 11
-39.5097
 21
-44.3388
  0
LINE
  8
0
 10
-39.5097
 20
-44.3388
 11
-39.2822
 21
-44.7825
  0
LINE
  8
0
 10
-39.2822
 20
-44.7825
 11
-39.0329
 21
-45.2143
  0
LINE
  8
0
 10
-39.0329
 20
-45.2143
 11
-38.7624
 21
-45.6332
  0
LINE
  8
0
 10
-38.7624
 20
-45.6332
 11
-38.4713
 21
-46.038
  0
LINE
  8
0
 10
-38.4713
 20
-46.038
 11
-38.1604
 21
-46.4279
  0
LINE
  8
0
 10
-38.1604
 20
-46.4279
 11
-37.8305
 21
-46.8017
  0
LINE
  8
0
 10
-37.8305
 20
-46.8017
 11
-37.4824
 21
-47.1587
  0
LINE
  8
0
 10
-37.4824
 20
-47.1587
 11
-37.1169
 21
-47.4978
  0
LINE
  8
0
 10
-37.1169
 20
-47.4978
 11
-36.7349
 21
-47.8183
  0
LINE
  8
0
 10
-36.7349
 20
-47.8183
 11
-36.3374
 21
-48.1194
  0
LINE
  8
0
 10
-36.3374
 20
-48.1194
 11
-35.9255
 21
-48.4003
  0
LINE
  8
0
 10
-35.9255
 20
-48.4003
 11
-35.5
 21
-48.6602
  0
LINE
  8
0
 10
-35.5
 20
-48.6602
 11
-35.0621
 21
-48.8987
  0
LINE
  8
0
 10
-35.0621
 20
-48.8987
 11
-34.6129
 21
-49.1151
  0
LINE
  8
0
 10
-34.6129
 20
-49.1151
 11
-34.1534
 21
-49.3087
  0
LINE
  8
0
 10
-34.1534
 20
-49.3087
 11
-33.6849
 21
-49.4793
  0
LINE
  8
0
 10
-33.6849
 20
-49.4793
 11
-33.2084
 21
-49.6262
  0
LINE
  8
0
 10
-33.2084
 20
-49.6262
 11
-32.7252
 21
-49.7493
  0
LINE
  8
0
 10
-32.7252
 20
-49.7493
 11
-32.2365
 21
-49.8481
  0
LINE
  8
0
 10
-32.2365
 20
-49.8481
 11
-31.7434
 21
-49.9224
  0
LINE
  8
0
 10
-31.7434
 20
-49.9224
 11
-31.2473
 21
-49.972
  0
LINE
  8
0
 10
-31.2473
 20
-49.972
 11
-30.7493
 21
-49.9969
  0
LINE
  8
0
 10
-30.7493
 20
-49.9969
 11
-10.2507
 21
-49.9969
  0
LINE
  8
0
 10
-10.2507
 20
-49.9969
 11
-9.75269
 21
-49.972
  0
LINE
  8
0
 10
-10.7491
 20
-2.68848
 11
-11.2389
 21
-2.59692
  0
LINE
  8
0
 10
-11.2389
 20
-2.59692
 11
-11.7035
 21
-2.41693
  0
LINE
  8
0
 10
-11.7035
 20
-2.41693
 11
-12.1271
 21
-2.15463
  0
LINE
  8
0
 10
-12.1271
 20
-2.15463
 11
-12.4953
 21
-1.81897
  0
LINE
  8
0
 10
-12.4953
 20
-1.81897
 11
-12.7956
 21
-1.42136
  0
LINE
  8
0
 10
-12.7956
 20
-1.42136
 11
-13.0177
 21
-0.975342
  0
LINE
  8
0
 10
-13.0177
 20
-0.975342
 11
-13.154
 21
-0.496109
  0
LINE
  8
0
 10
-13.154
 20
-0.496109
 11
-13.2
 21
0
  0
LINE
  8
0
 10
-13.2
 20
0
 11
-13.154
 21
0.496109
  0
LINE
  8
0
 10
-13.154
 20
0.496109
 11
-13.0177
 21
0.975342
  0
LINE
  8
0
 10
-13.0177
 20
0.975342
 11
-12.7956
 21
1.42136
  0
LINE
  8
0
 10
-12.7956
 20
1.42136
 11
-12.4953
 21
1.81897
  0
LINE
  8
0
 10
-12.4953
 20
1.81897
 11
-12.1271
 21
2.15463
  0
LINE
  8
0
 10
-12.1271
 20
2.15463
 11
-11.7035
 21
2.41693
  0
LINE
  8
0
 10
-11.7035
 20
2.41693
 11
-11.2389
 21
2.59692
  0
LINE
  8
0
 10
-11.2389
 20
2.59692
 11
-10.7491
 21
2.68848
  0
LINE
  8
0
 10
-10.7491
 20
2.68848
 11
-10.2509
 21
2.68848
  0
LINE
  8
0
 10
-10.2509
 20
2.68848
 11
-9.76111
 21
2.59692
  0
LINE
  8
0
 10
-9.76111
 20
2.59692
 11
-9.29649
 21
2.41693
  0
LINE
  8
0
 10
-9.29649
 20
2.41693
 11
-8.87288
 21
2.15463
  0
LINE
  8
0
 10
-8.87288
 20
2.15463
 11
-8.50467
 21
1.81897
  0
LINE
  8
0
 10
-8.50467
 20
1.81897
 11
-8.20441
 21
1.42136
  0
LINE
  8
0
 10
-8.20441
 20
1.42136
 11
-7.98232
 21
0.975342
  0
LINE
  8
0
 10
-7.98232
 20
0.975342
 11
-7.84596
 21
0.496109
  0
LINE
  8
0
 10
-7.84596
 20
0.496109
 11
-7.79999
 21
0
  0
LINE
  8
0
 10
-7.79999
 20
0
 11
-7.84596
 21
-0.496109
  0
LINE
  8
0
 10
-7.84596
 20
-0.496109
 11
-7.98232
 21
-0.975342
  0
LINE
  8
0
 10
-7.98232
 20
-0.975342
 11
-8.20441
 21
-1.42136
  0
LINE
  8
0
 10
-8.20441
 20
-1.42136
 11
-8.50467
 21
-1.81897
  0
LINE
  8
0
 10
-8.50467
 20
-1.81897
 11
-8.87288
 21
-2.15463
  0
LINE
  8
0
 10
-8.87288
 20
-2.15463
 11
-9.29649
 21
-2.41693
  0
LINE
  8
0
 10
-9.29649
 20
-2.41693
 11
-9.76111
 21
-2.59692
  0
LINE
  8
0
 10
-9.76111
 20
-2.59692
 11
-10.2509
 21
-2.68848
  0
LINE
  8
0
 10
-10.2509
 20
-2.68848
 11
-10.7491
 21
-2.68848
  0
LINE
  8
0
 10
-10.7491
 20
-22.6885
 11
-11.2389
 21
-22.5969
  0
LINE
  8
0
 10
-11.2389
 20
-22.5969
 11
-11.7035
 21
-22.4169
  0
LINE
  8
0
 10
-11.7035
 20
-22.4169
 11
-12.1271
 21
-22.1546
  0
LINE
  8
0
 10
-12.1271
 20
-22.1546
 11
-12.4953
 21
-21.819
  0
LINE
  8
0
 10
-12.4953
 20
-21.819
 11
-12.7956
 21
-21.4214
  0
LINE
  8
0
 10
-12.7956
 20
-21.4214
 11
-13.0177
 21
-20.9753
  0
LINE
  8
0
 10
-13.0177
 20
-20.9753
 11
-13.154
 21
-20.4961
  0
LINE
  8
0
 10
-13.154
 20
-20.4961
 11
-13.2
 21
-20
  0
LINE
  8
0
 10
-13.2
 20
-20
 11
-13.154
 21
-19.5039
  0
LINE
  8
0
 10
-13.154
 20
-19.5039
 11
-13.0177
 21
-19.0246
  0
LINE
  8
0
 10
-13.0177
 20
-19.0246
 11
-12.7956
 21
-18.5786
  0
LINE
  8
0
 10
-12.7956
 20
-18.5786
 11
-12.4953
 21
-18.181
  0
LINE
  8
0
 10
-12.4953
 20
-18.181
 11
-12.1271
 21
-17.8454
  0
LINE
  8
0
 10
-12.1271
 20
-17.8454
 11
-11.7035
 21
-17.5831
  0
LINE
  8
0
 10
-11.7035
 20
-17.5831
 11
-11.2389
 21
-17.4031
  0
LINE
  8
0
 10
-11.2389
 20
-17.4031
 11
-10.7491
 21
-17.3115
  0
LINE
  8
0
 10
-10.7491
 20
-17.3115
 11
-10.2509
 21
-17.3115
  0
LINE
  8
0
 10
-10.2509
 20
-17.3115
 11
-9.76111
 21
-17.4031
  0
LINE
  8
0
 10
-9.76111
 20
-17.4031
 11
-9.29649
 21
-17.5831
  0
LINE
  8
0
 10
-9.29649
 20
-17.5831
 11
-8.87288
 21
-17.8454
  0
LINE
  8
0
 10
-8.87288
 20
-17.8454
 11
-8.50467
 21
-18.181
  0
LINE
  8
0
 10
-8.50467
 20
-18.181
 11
-8.20441
 21
-18.5786
  0
LINE
  8
0
 10
-8.20441
 20
-18.5786
 11
-7.98232
 21
-19.0246
  0
LINE
  8
0
 10
-7.98232
 20
-19.0246
 11
-7.84596
 21
-19.5039
  0
LINE
  8
0
 10
-7.84596
 20
-19.5039
 11
-7.79999
 21
-20
  0
LINE
  8
0
 10
-7.79999
 20
-20
 11
-7.84596
 21
-20.4961
  0
LINE
  8
0
 10
-7.84596
 20
-20.4961
 11
-7.98232
 21
-20.9753
  0
LINE
  8
0
 10
-7.98232
 20
-20.9753
 11
-8.20441
 21
-21.4214
  0
LINE
  8
0
 10
-8.20441
 20
-21.4214
 11
-8.50467
 21
-21.819
  0
LINE
  8
0
 10
-8.50467
 20
-21.819
 11
-8.87288
 21
-22.1546
  0
LINE
  8
0
 10
-8.87288
 20
-22.1546
 11
-9.29649
 21
-22.4169
  0
LINE
  8
0
 10
-9.29649
 20
-22.4169
 11
-9.76111
 21
-22.5969
  0
LINE
  8
0
 10
-9.76111
 20
-22.5969
 11
-10.2509
 21
-22.6885
  0
LINE
  8
0
 10
-10.2509
 20
-22.6885
 11
-10.7491
 21
-22.6885
  0
LINE
  8
0
 10
-30.7491
 20
-22.6885
 11
-31.2389
 21
-22.5969
  0
LINE
  8
0
 10
-31.2389
 20
-22.5969
 11
-31.7035
 21
-22.4169
  0
LINE
  8
0
 10
-31.7035
 20
-22.4169
 11
-32.1271
 21
-22.1546
  0
LINE
  8
0
 10
-32.1271
 20
-22.1546
 11
-32.4953
 21
-21.819
  0
LINE
  8
0
 10
-32.4953
 20
-21.819
 11
-32.7956
 21
-21.4214
  0
LINE
  8
0
 10
-32.7956
 20
-21.4214
 11
-33.0177
 21
-20.9753
  0
LINE
  8
0
 10
-33.0177
 20
-20.9753
 11
-33.154
 21
-20.4961
  0
LINE
  8
0
 10
-33.154
 20
-20.4961
 11
-33.2
 21
-20
  0
LINE
  8
0
 10
-33.2
 20
-20
 11
-33.154
 21
-19.5039
  0
LINE
  8
0
 10
-33.154
 20
-19.5039
 11
-33.0177
 21
-19.0246
  0
LINE
  8
0
 10
-33.0177
 20
-19.0246
 11
-32.7956
 21
-18.5786
  0
LINE
  8
0
 10
-32.7956
 20
-18.5786
 11
-32.4953
 21
-18.181
  0
LINE
  8
0
 10
-32.4953
 20
-18.181
 11
-32.1271
 21
-17.8454
  0
LINE
  8
0
 10
-32.1271
 20
-17.8454
 11
-31.7035
 21
-17.5831
  0
LINE
  8
0
 10
-31.7035
 20
-17.5831
 11
-31.2389
 21
-17.4031
  0
LINE
  8
0
 10
-31.2389
 20
-17.4031
 11
-30.7491
 21
-17.3115
  0
LINE
  8
0
 10
-30.7491
 20
-17.3115
 11
-30.2509
 21
-17.3115
  0
LINE
  8
0
 10
-30.2509
 20
-17.3115
 11
-29.7611
 21
-17.4031
  0
LINE
  8
0
 10
-29.7611
 20
-17.4031
 11
-29.2965
 21
-17.5831
  0
LINE
  8
0
 10
-29.2965
 20
-17.5831
 11
-28.8729
 21
-17.8454
  0
LINE
  8
0
 10
-28.8729
 20
-17.8454
 11
-28.5047
 21
-18.181
  0
LINE
  8
0
 10
-28.5047
 20
-18.181
 11
-28.2044
 21
-18.5786
  0
LINE
  8
0
 10
-28.2044
 20
-18.5786
 11
-27.9823
 21
-19.0246
  0
LINE
  8
0
 10
-27.9823
 20
-19.0246
 11
-27.846
 21
-19.5039
  0
LINE
  8
0
 10
-27.846
 20
-19.5039
 11
-27.8
 21
-20
  0
LINE
  8
0
 10
-27.8
 20
-20
 11
-27.846
 21
-20.4961
  0
LINE
  8
0
 10
-27.846
 20
-20.4961
 11
-27.9823
 21
-20.9753
  0
LINE
  8
0
 10
-27.9823
 20
-20.9753
 11
-28.2044
 21
-21.4214
  0
LINE
  8
0
 10
-28.2044
 20
-21.4214
 11
-28.5047
 21
-21.819
  0
LINE
  8
0
 10
-28.5047
 20
-21.819
 11
-28.8729
 21
-22.1546
  0
LINE
  8
0
 10
-28.8729
 20
-22.1546
 11
-29.2965
 21
-22.4169
  0
LINE
  8
0
 10
-29.2965
 20
-22.4169
 11
-29.7611
 21
-22.5969
  0
LINE
  8
0
 10
-29.7611
 20
-22.5969
 11
-30.2509
 21
-22.6885
  0
LINE
  8
0
 10
-30.2509
 20
-22.6885
 11
-30.7491
 21
-22.6885
  0
LINE
  8
0
 10
-30.7491
 20
-42.6885
 11
-31.2389
 21
-42.5969
  0
LINE
  8
0
 10
-31.2389
 20
-42.5969
 11
-31.7035
 21
-42.4169
  0
LINE
  8
0
 10
-31.7035
 20
-42.4169
 11
-32.1271
 21
-42.1546
  0
LINE
  8
0
 10
-32.1271
 20
-42.1546
 11
-32.4953
 21
-41.819
  0
LINE
  8
0
 10
-32.4953
 20
-41.819
 11
-32.7956
 21
-41.4214
  0
LINE
  8
0
 10
-32.7956
 20
-41.4214
 11
-33.0177
 21
-40.9753
  0
LINE
  8
0
 10
-33.0177
 20
-40.9753
 11
-33.154
 21
-40.4961
  0
LINE
  8
0
 10
-33.154
 20
-40.4961
 11
-33.2
 21
-40
  0
LINE
  8
0
 10
-33.2
 20
-40
 11
-33.154
 21
-39.5039
  0
LINE
  8
0
 10
-33.154
 20
-39.5039
 11
-33.0177
 21
-39.0246
  0
LINE
  8
0
 10
-33.0177
 20
-39.0246
 11
-32.7956
 21
-38.5786
  0
LINE
  8
0
 10
-32.7956
 20
-38.5786
 11
-32.4953
 21
-38.181
  0
LINE
  8
0
 10
-32.4953
 20
-38.181
 11
-32.1271
 21
-37.8454
  0
LINE
  8
0
 10
-32.1271
 20
-37.8454
 11
-31.7035
 21
-37.5831
  0
LINE
  8
0
 10
-31.7035
 20
-37.5831
 11
-31.2389
 21
-37.4031
  0
LINE
  8
0
 10
-31.2389
 20
-37.4031
 11
-30.7491
 21
-37.3115
  0
LINE
  8
0
 10
-30.7491
 20
-37.3115
 11
-30.2509
 21
-37.3115
  0
LINE
  8
0
 10
-30.2509
 20
-37.3115
 11
-29.7611
 21
-37.4031
  0
LINE
  8
0
 10
-29.7611
 20
-37.4031
 11
-29.2965
 21
-37.5831
  0
LINE
  8
0
 10
-29.2965
 20
-37.5831
 11
-28.8729
 21
-37.8454
  0
LINE
  8
0
 10
-28.8729
 20
-37.8454
 11
-28.5047
 21
-38.181
  0
LINE
  8
0
 10
-28.5047
 20
-38.181
 11
-28.2044
 21
-38.5786
  0
LINE
  8
0
 10
-28.2044
 20
-38.5786
 11
-27.9823
 21
-39.0246
  0
LINE
  8
0
 10
-27.9823
 20
-39.0246
 11
-27.846
 21
-39.5039
  0
LINE
  8
0
 10
-27.846
 20
-39.5039
 11
-27.8
 21
-40
  0
LINE
  8
0
 10
-27.8
 20
-40
 11
-27.846
 21
-40.4961
  0
LINE
  8
0
 10
-27.846
 20
-40.4961
 11
-27.9823
 21
-40.9753
  0
LINE
  8
0
 10
-27.9823
 20
-40.9753
 11
-28.2044
 21
-41.4214
  0
LINE
  8
0
 10
-28.2044
 20
-41.4214
 11
-28.5047
 21
-41.819
  0
LINE
  8
0
 10
-28.5047
 20
-41.819
 11
-28.8729
 21
-42.1546
  0
LINE
  8
0
 10
-28.8729
 20
-42.1546
 11
-29.2965
 21
-42.4169
  0
LINE
  8
0
 10
-29.2965
 20
-42.4169
 11
-29.7611
 21
-42.5969
  0
LINE
  8
0
 10
-29.7611
 20
-42.5969
 11
-30.2509
 21
-42.6885
  0
LINE
  8
0
 10
-30.2509
 20
-42.6885
 11
-30.7491
 21
-42.6885
  0
LINE
  8
0
 10
-10.7491
 20
-42.6885
 11
-11.2389
 21
-42.5969
  0
LINE
  8
0
 10
-11.2389
 20
-42.5969
 11
-11.7035
 21
-42.4169
  0
LINE
  8
0
 10
-11.7035
 20
-42.4169
 11
-12.1271
 21
-42.1546
  0
LINE
  8
0
 10
-12.1271
 20
-42.1546
 11
-12.4953
 21
-41.819
  0
LINE
  8
0
 10
-12.4953
 20
-41.819
 11
-12.7956
 21
-41.4214
  0
LINE
  8
0
 10
-12.7956
 20
-41.4214
 11
-13.0177
 21
-40.9753
  0
LINE
  8
0
 10
-13.0177
 20
-40.9753
 11
-13.154
 21
-40.4961
  0
LINE
  8
0
 10
-13.154
 20
-40.4961
 11
-13.2
 21
-40
  0
LINE
  8
0
 10
-13.2
 20
-40
 11
-13.154
 21
-39.5039
  0
LINE
  8
0
 10
-13.154
 20
-39.5039
 11
-13.0177
 21
-39.0246
  0
LINE
  8
0
 10
-13.0177
 20
-39.0246
 11
-12.7956
 21
-38.5786
  0
LINE
  8
0
 10
-12.7956
 20
-38.5786
 11
-12.4953
 21
-38.181
  0
LINE
  8
0
 10
-12.4953
 20
-38.181
 11
-12.1271
 21
-37.8454
  0
LINE
  8
0
 10
-12.1271
 20
-37.8454
 11
-11.7035
 21
-37.5831
  0
LINE
  8
0
 10
-11.7035
 20
-37.5831
 11
-11.2389
 21
-37.4031
  0
LINE
  8
0
 10
-11.2389
 20
-37.4031
 11
-10.7491
 21
-37.3115
  0
LINE
  8
0
 10
-10.7491
 20
-37.3115
 11
-10.2509
 21
-37.3115
  0
LINE
  8
0
 10
-10.2509
 20
-37.3115
 11
-9.76111
 21
-37.4031
  0
LINE
  8
0
 10
-9.76111
 20
-37.4031
 11
-9.29649
 21
-37.5831
  0
LINE
  8
0
 10
-9.29649
 20
-37.5831
 11
-8.87288
 21
-37.8454
  0
LINE
  8
0
 10
-8.87288
 20
-37.8454
 11
-8.50467
 21
-38.181
  0
LINE
  8
0
 10
-8.50467
 20
-38.181
 11
-8.20441
 21
-38.5786
  0
LINE
  8
0
 10
-8.20441
 20
-38.5786
 11
-7.98232
 21
-39.0246
  0
LINE
  8
0
 10
-7.98232
 20
-39.0246
 11
-7.84596
 21
-39.5039
  0
LINE
  8
0
 10
-7.84596
 20
-39.5039
 11
-7.79999
 21
-40
  0
LINE
  8
0
 10
-7.79999
 20
-40
 11
-7.84596
 21
-40.4961
  0
LINE
  8
0
 10
-7.84596
 20
-40.4961
 11
-7.98232
 21
-40.9753
  0
LINE
  8
0
 10
-7.98232
 20
-40.9753
 11
-8.20441
 21
-41.4214
  0
LINE
  8
0
 10
-8.20441
 20
-41.4214
 11
-8.50467
 21
-41.819
  0
LINE
  8
0
 10
-8.50467
 20
-41.819
 11
-8.87288
 21
-42.1546
  0
LINE
  8
0
 10
-8.87288
 20
-42.1546
 11
-9.29649
 21
-42.4169
  0
LINE
  8
0
 10
-9.29649
 20
-42.4169
 11
-9.76111
 21
-42.5969
  0
LINE
  8
0
 10
-9.76111
 20
-42.5969
 11
-10.2509
 21
-42.6885
  0
LINE
  8
0
 10
-10.2509
 20
-42.6885
 11
-10.7491
 21
-42.6885
  0
ENDSEC
  0
SECTION
  2
OBJECTS
  0
DICTIONARY
  0
ENDSEC
  0
EOF
