  0
SECTION
  2
BLOCKS
  0
ENDSEC
  0
SECTION
  2
ENTITIES
  0
LINE
  8
0
 10
25.6237
 20
-249.991
 11
26.1223
 21
-249.971
  0
LINE
  8
0
 10
26.1223
 20
-249.971
 11
26.6204
 21
-249.94
  0
LINE
  8
0
 10
26.6204
 20
-249.94
 11
27.1176
 21
-249.898
  0
LINE
  8
0
 10
27.1176
 20
-249.898
 11
27.6137
 21
-249.844
  0
LINE
  8
0
 10
27.6137
 20
-249.844
 11
28.1085
 21
-249.779
  0
LINE
  8
0
 10
28.1085
 20
-249.779
 11
28.6016
 21
-249.703
  0
LINE
  8
0
 10
28.6016
 20
-249.703
 11
29.093
 21
-249.616
  0
LINE
  8
0
 10
29.093
 20
-249.616
 11
29.5822
 21
-249.518
  0
LINE
  8
0
 10
29.5822
 20
-249.518
 11
30.069
 21
-249.408
  0
LINE
  8
0
 10
30.069
 20
-249.408
 11
30.5533
 21
-249.288
  0
LINE
  8
0
 10
30.5533
 20
-249.288
 11
31.0347
 21
-249.156
  0
LINE
  8
0
 10
31.0347
 20
-249.156
 11
31.513
 21
-249.014
  0
LINE
  8
0
 10
31.513
 20
-249.014
 11
31.9879
 21
-248.861
  0
LINE
  8
0
 10
31.9879
 20
-248.861
 11
32.4593
 21
-248.697
  0
LINE
  8
0
 10
32.4593
 20
-248.697
 11
32.9268
 21
-248.522
  0
LINE
  8
0
 10
32.9268
 20
-248.522
 11
33.3902
 21
-248.337
  0
LINE
  8
0
 10
33.3902
 20
-248.337
 11
33.8493
 21
-248.142
  0
LINE
  8
0
 10
33.8493
 20
-248.142
 11
34.3039
 21
-247.936
  0
LINE
  8
0
 10
34.3039
 20
-247.936
 11
34.7536
 21
-247.72
  0
LINE
  8
0
 10
34.7536
 20
-247.72
 11
35.1984
 21
-247.493
  0
LINE
  8
0
 10
35.1984
 20
-247.493
 11
35.6379
 21
-247.257
  0
LINE
  8
0
 10
35.6379
 20
-247.257
 11
36.0719
 21
-247.011
  0
LINE
  8
0
 10
36.0719
 20
-247.011
 11
36.5003
 21
-246.755
  0
LINE
  8
0
 10
36.5003
 20
-246.755
 11
36.9227
 21
-246.489
  0
LINE
  8
0
 10
36.9227
 20
-246.489
 11
37.339
 21
-246.214
  0
LINE
  8
0
 10
37.339
 20
-246.214
 11
37.7489
 21
-245.929
  0
LINE
  8
0
 10
37.7489
 20
-245.929
 11
38.1523
 21
-245.636
  0
LINE
  8
0
 10
38.1523
 20
-245.636
 11
38.5489
 21
-245.333
  0
LINE
  8
0
 10
38.5489
 20
-245.333
 11
38.9386
 21
-245.021
  0
LINE
  8
0
 10
38.9386
 20
-245.021
 11
39.321
 21
-244.701
  0
LINE
  8
0
 10
39.321
 20
-244.701
 11
39.6961
 21
-244.371
  0
LINE
  8
0
 10
39.6961
 20
-244.371
 11
40.0637
 21
-244.034
  0
LINE
  8
0
 10
40.0637
 20
-244.034
 11
40.4235
 21
-243.688
  0
LINE
  8
0
 10
40.4235
 20
-243.688
 11
40.7753
 21
-243.334
  0
LINE
  8
0
 10
40.7753
 20
-243.334
 11
41.119
 21
-242.973
  0
LINE
  8
0
 10
41.119
 20
-242.973
 11
41.4545
 21
-242.603
  0
LINE
  8
0
 10
41.4545
 20
-242.603
 11
41.7815
 21
-242.226
  0
LINE
  8
0
 10
41.7815
 20
-242.226
 11
42.0998
 21
-241.842
  0
LINE
  8
0
 10
42.0998
 20
-241.842
 11
42.4094
 21
-241.45
  0
LINE
  8
0
 10
42.4094
 20
-241.45
 11
42.71
 21
-241.052
  0
LINE
  8
0
 10
42.71
 20
-241.052
 11
43.0014
 21
-240.647
  0
LINE
  8
0
 10
43.0014
 20
-240.647
 11
43.2837
 21
-240.236
  0
LINE
  8
0
 10
43.2837
 20
-240.236
 11
43.5565
 21
-239.818
  0
LINE
  8
0
 10
43.5565
 20
-239.818
 11
43.8197
 21
-239.394
  0
LINE
  8
0
 10
43.8197
 20
-239.394
 11
44.0733
 21
-238.964
  0
LINE
  8
0
 10
44.0733
 20
-238.964
 11
44.3171
 21
-238.529
  0
LINE
  8
0
 10
44.3171
 20
-238.529
 11
44.5509
 21
-238.088
  0
LINE
  8
0
 10
44.5509
 20
-238.088
 11
44.7747
 21
-237.642
  0
LINE
  8
0
 10
44.7747
 20
-237.642
 11
44.9883
 21
-237.191
  0
LINE
  8
0
 10
44.9883
 20
-237.191
 11
45.1916
 21
-236.735
  0
LINE
  8
0
 10
45.1916
 20
-236.735
 11
45.3845
 21
-236.275
  0
LINE
  8
0
 10
45.3845
 20
-236.275
 11
45.5669
 21
-235.81
  0
LINE
  8
0
 10
45.5669
 20
-235.81
 11
45.7388
 21
-235.342
  0
LINE
  8
0
 10
45.7388
 20
-235.342
 11
45.9
 21
-234.87
  0
LINE
  8
0
 10
45.9
 20
-234.87
 11
46.0504
 21
-234.394
  0
LINE
  8
0
 10
46.0504
 20
-234.394
 11
46.19
 21
-233.915
  0
LINE
  8
0
 10
46.19
 20
-233.915
 11
46.3187
 21
-233.432
  0
LINE
  8
0
 10
46.3187
 20
-233.432
 11
46.4364
 21
-232.948
  0
LINE
  8
0
 10
46.4364
 20
-232.948
 11
46.5432
 21
-232.46
  0
LINE
  8
0
 10
46.5432
 20
-232.46
 11
46.6388
 21
-231.97
  0
LINE
  8
0
 10
46.6388
 20
-231.97
 11
46.7233
 21
-231.479
  0
LINE
  8
0
 10
46.7233
 20
-231.479
 11
46.7966
 21
-230.985
  0
LINE
  8
0
 10
46.7966
 20
-230.985
 11
46.8587
 21
-230.49
  0
LINE
  8
0
 10
46.8587
 20
-230.49
 11
46.9095
 21
-229.993
  0
LINE
  8
0
 10
46.9095
 20
-229.993
 11
46.9491
 21
-229.496
  0
LINE
  8
0
 10
46.9491
 20
-229.496
 11
46.9774
 21
-228.998
  0
LINE
  8
0
 10
46.9774
 20
-228.998
 11
46.9943
 21
-228.499
  0
LINE
  8
0
 10
46.9943
 20
-228.499
 11
47
 21
-228
  0
LINE
  8
0
 10
47
 20
-228
 11
47
 21
-68
  0
LINE
  8
0
 10
47
 20
-68
 11
46.9943
 21
-67.501
  0
LINE
  8
0
 10
46.9943
 20
-67.501
 11
46.9774
 21
-67.0023
  0
LINE
  8
0
 10
46.9774
 20
-67.0023
 11
46.9491
 21
-66.5041
  0
LINE
  8
0
 10
46.9491
 20
-66.5041
 11
46.9095
 21
-66.0066
  0
LINE
  8
0
 10
46.9095
 20
-66.0066
 11
46.8587
 21
-65.5102
  0
LINE
  8
0
 10
46.8587
 20
-65.5102
 11
46.7966
 21
-65.0151
  0
LINE
  8
0
 10
46.7966
 20
-65.0151
 11
46.7233
 21
-64.5215
  0
LINE
  8
0
 10
46.7233
 20
-64.5215
 11
46.6388
 21
-64.0297
  0
LINE
  8
0
 10
46.6388
 20
-64.0297
 11
46.5432
 21
-63.5399
  0
LINE
  8
0
 10
46.5432
 20
-63.5399
 11
46.4364
 21
-63.0524
  0
LINE
  8
0
 10
46.4364
 20
-63.0524
 11
46.3187
 21
-62.5675
  0
LINE
  8
0
 10
46.3187
 20
-62.5675
 11
46.19
 21
-62.0854
  0
LINE
  8
0
 10
46.19
 20
-62.0854
 11
46.0504
 21
-61.6063
  0
LINE
  8
0
 10
46.0504
 20
-61.6063
 11
45.9
 21
-61.1305
  0
LINE
  8
0
 10
45.9
 20
-61.1305
 11
45.7388
 21
-60.6582
  0
LINE
  8
0
 10
45.7388
 20
-60.6582
 11
45.5669
 21
-60.1897
  0
LINE
  8
0
 10
45.5669
 20
-60.1897
 11
45.3845
 21
-59.7253
  0
LINE
  8
0
 10
45.3845
 20
-59.7253
 11
45.1916
 21
-59.265
  0
LINE
  8
0
 10
45.1916
 20
-59.265
 11
44.9883
 21
-58.8093
  0
LINE
  8
0
 10
44.9883
 20
-58.8093
 11
44.7747
 21
-58.3583
  0
LINE
  8
0
 10
44.7747
 20
-58.3583
 11
44.5509
 21
-57.9123
  0
LINE
  8
0
 10
44.5509
 20
-57.9123
 11
44.3171
 21
-57.4715
  0
LINE
  8
0
 10
44.3171
 20
-57.4715
 11
44.0733
 21
-57.036
  0
LINE
  8
0
 10
44.0733
 20
-57.036
 11
43.8197
 21
-56.6062
  0
LINE
  8
0
 10
43.8197
 20
-56.6062
 11
43.5565
 21
-56.1823
  0
LINE
  8
0
 10
43.5565
 20
-56.1823
 11
43.2837
 21
-55.7645
  0
LINE
  8
0
 10
43.2837
 20
-55.7645
 11
43.0014
 21
-55.3529
  0
LINE
  8
0
 10
43.0014
 20
-55.3529
 11
42.71
 21
-54.9479
  0
LINE
  8
0
 10
42.71
 20
-54.9479
 11
42.4094
 21
-54.5496
  0
LINE
  8
0
 10
42.4094
 20
-54.5496
 11
42.0998
 21
-54.1582
  0
LINE
  8
0
 10
42.0998
 20
-54.1582
 11
41.7815
 21
-53.7739
  0
LINE
  8
0
 10
41.7815
 20
-53.7739
 11
41.4545
 21
-53.3969
  0
LINE
  8
0
 10
41.4545
 20
-53.3969
 11
41.119
 21
-53.0275
  0
LINE
  8
0
 10
41.119
 20
-53.0275
 11
40.7753
 21
-52.6657
  0
LINE
  8
0
 10
40.7753
 20
-52.6657
 11
40.4235
 21
-52.3119
  0
LINE
  8
0
 10
40.4235
 20
-52.3119
 11
40.0637
 21
-51.9661
  0
LINE
  8
0
 10
40.0637
 20
-51.9661
 11
39.6961
 21
-51.6286
  0
LINE
  8
0
 10
39.6961
 20
-51.6286
 11
39.321
 21
-51.2995
  0
LINE
  8
0
 10
39.321
 20
-51.2995
 11
38.9386
 21
-50.9789
  0
LINE
  8
0
 10
38.9386
 20
-50.9789
 11
38.5489
 21
-50.6672
  0
LINE
  8
0
 10
38.5489
 20
-50.6672
 11
38.1523
 21
-50.3643
  0
LINE
  8
0
 10
38.1523
 20
-50.3643
 11
37.7489
 21
-50.0706
  0
LINE
  8
0
 10
37.7489
 20
-50.0706
 11
37.339
 21
-49.786
  0
LINE
  8
0
 10
37.339
 20
-49.786
 11
36.9227
 21
-49.5108
  0
LINE
  8
0
 10
36.9227
 20
-49.5108
 11
36.5003
 21
-49.2452
  0
LINE
  8
0
 10
36.5003
 20
-49.2452
 11
36.0719
 21
-48.9892
  0
LINE
  8
0
 10
36.0719
 20
-48.9892
 11
35.6379
 21
-48.7429
  0
LINE
  8
0
 10
35.6379
 20
-48.7429
 11
35.1984
 21
-48.5066
  0
LINE
  8
0
 10
35.1984
 20
-48.5066
 11
34.7536
 21
-48.2803
  0
LINE
  8
0
 10
34.7536
 20
-48.2803
 11
34.3039
 21
-48.0641
  0
LINE
  8
0
 10
34.3039
 20
-48.0641
 11
33.8493
 21
-47.8583
  0
LINE
  8
0
 10
33.8493
 20
-47.8583
 11
33.3902
 21
-47.6627
  0
LINE
  8
0
 10
33.3902
 20
-47.6627
 11
32.9268
 21
-47.4777
  0
LINE
  8
0
 10
32.9268
 20
-47.4777
 11
32.4593
 21
-47.3032
  0
LINE
  8
0
 10
32.4593
 20
-47.3032
 11
31.9879
 21
-47.1393
  0
LINE
  8
0
 10
31.9879
 20
-47.1393
 11
31.513
 21
-46.9862
  0
LINE
  8
0
 10
31.513
 20
-46.9862
 11
31.0347
 21
-46.8439
  0
LINE
  8
0
 10
31.0347
 20
-46.8439
 11
30.5533
 21
-46.7124
  0
LINE
  8
0
 10
30.5533
 20
-46.7124
 11
30.069
 21
-46.5919
  0
LINE
  8
0
 10
30.069
 20
-46.5919
 11
29.5822
 21
-46.4825
  0
LINE
  8
0
 10
29.5822
 20
-46.4825
 11
29.093
 21
-46.3841
  0
LINE
  8
0
 10
29.093
 20
-46.3841
 11
28.6016
 21
-46.2968
  0
LINE
  8
0
 10
28.6016
 20
-46.2968
 11
28.1085
 21
-46.2207
  0
LINE
  8
0
 10
28.1085
 20
-46.2207
 11
27.6137
 21
-46.1558
  0
LINE
  8
0
 10
27.6137
 20
-46.1558
 11
27.1176
 21
-46.1021
  0
LINE
  8
0
 10
27.1176
 20
-46.1021
 11
26.6204
 21
-46.0598
  0
LINE
  8
0
 10
26.6204
 20
-46.0598
 11
26.1223
 21
-46.0286
  0
LINE
  8
0
 10
26.1223
 20
-46.0286
 11
25.6237
 21
-46.0088
  0
LINE
  8
0
 10
25.6237
 20
-46.0088
 11
25.1248
 21
-46.0004
  0
LINE
  8
0
 10
25.1248
 20
-46.0004
 11
24.6257
 21
-46.0032
  0
LINE
  8
0
 10
24.6257
 20
-46.0032
 11
24.1269
 21
-46.0173
  0
LINE
  8
0
 10
24.1269
 20
-46.0173
 11
23.6286
 21
-46.0428
  0
LINE
  8
0
 10
23.6286
 20
-46.0428
 11
23.1309
 21
-46.0795
  0
LINE
  8
0
 10
23.1309
 20
-46.0795
 11
22.6342
 21
-46.1276
  0
LINE
  8
0
 10
22.6342
 20
-46.1276
 11
22.1387
 21
-46.1869
  0
LINE
  8
0
 10
22.1387
 20
-46.1869
 11
21.6447
 21
-46.2574
  0
LINE
  8
0
 10
21.6447
 20
-46.2574
 11
21.1524
 21
-46.3391
  0
LINE
  8
0
 10
21.1524
 20
-46.3391
 11
20.6621
 21
-46.4319
  0
LINE
  8
0
 10
20.6621
 20
-46.4319
 11
20.1741
 21
-46.5358
  0
LINE
  8
0
 10
20.1741
 20
-46.5358
 11
19.6885
 21
-46.6508
  0
LINE
  8
0
 10
19.6885
 20
-46.6508
 11
19.2056
 21
-46.7768
  0
LINE
  8
0
 10
19.2056
 20
-46.7768
 11
18.7257
 21
-46.9137
  0
LINE
  8
0
 10
18.7257
 20
-46.9137
 11
18.2491
 21
-47.0614
  0
LINE
  8
0
 10
18.2491
 20
-47.0614
 11
17.7759
 21
-47.2199
  0
LINE
  8
0
 10
17.7759
 20
-47.2199
 11
17.3065
 21
-47.3891
  0
LINE
  8
0
 10
17.3065
 20
-47.3891
 11
16.841
 21
-47.5689
  0
LINE
  8
0
 10
16.841
 20
-47.5689
 11
16.3797
 21
-47.7592
  0
LINE
  8
0
 10
16.3797
 20
-47.7592
 11
15.9228
 21
-47.9599
  0
LINE
  8
0
 10
15.9228
 20
-47.9599
 11
15.4706
 21
-48.171
  0
LINE
  8
0
 10
15.4706
 20
-48.171
 11
15.0233
 21
-48.3922
  0
LINE
  8
0
 10
15.0233
 20
-48.3922
 11
14.5812
 21
-48.6235
  0
LINE
  8
0
 10
14.5812
 20
-48.6235
 11
14.1444
 21
-48.8648
  0
LINE
  8
0
 10
14.1444
 20
-48.8648
 11
13.7132
 21
-49.116
  0
LINE
  8
0
 10
13.7132
 20
-49.116
 11
13.2877
 21
-49.3768
  0
LINE
  8
0
 10
13.2877
 20
-49.3768
 11
12.8684
 21
-49.6472
  0
LINE
  8
0
 10
12.8684
 20
-49.6472
 11
12.4552
 21
-49.9271
  0
LINE
  8
0
 10
12.4552
 20
-49.9271
 11
12.0485
 21
-50.2163
  0
LINE
  8
0
 10
12.0485
 20
-50.2163
 11
11.6485
 21
-50.5146
  0
LINE
  8
0
 10
11.6485
 20
-50.5146
 11
11.2554
 21
-50.8219
  0
LINE
  8
0
 10
11.2554
 20
-50.8219
 11
10.8693
 21
-51.1381
  0
LINE
  8
0
 10
10.8693
 20
-51.1381
 11
10.4905
 21
-51.463
  0
LINE
  8
0
 10
10.4905
 20
-51.463
 11
10.1191
 21
-51.7963
  0
LINE
  8
0
 10
10.1191
 20
-51.7963
 11
9.75545
 21
-52.138
  0
LINE
  8
0
 10
9.75545
 20
-52.138
 11
9.3996
 21
-52.4878
  0
LINE
  8
0
 10
9.3996
 20
-52.4878
 11
9.05177
 21
-52.8456
  0
LINE
  8
0
 10
9.05177
 20
-52.8456
 11
8.71216
 21
-53.2113
  0
LINE
  8
0
 10
8.71216
 20
-53.2113
 11
8.38094
 21
-53.5845
  0
LINE
  8
0
 10
8.38094
 20
-53.5845
 11
8.05824
 21
-53.9651
  0
LINE
  8
0
 10
8.05824
 20
-53.9651
 11
7.74428
 21
-54.353
  0
LINE
  8
0
 10
7.74428
 20
-54.353
 11
7.43919
 21
-54.7479
  0
LINE
  8
0
 10
7.43919
 20
-54.7479
 11
7.14314
 21
-55.1496
  0
LINE
  8
0
 10
7.14314
 20
-55.1496
 11
6.85628
 21
-55.5579
  0
LINE
  8
0
 10
6.85628
 20
-55.5579
 11
4
 21
-59.7358
  0
LINE
  8
0
 10
4
 20
-59.7358
 11
4
 21
-57.9322
  0
LINE
  8
0
 10
4
 20
-57.9322
 11
3.7603
 21
-57.5755
  0
LINE
  8
0
 10
3.7603
 20
-57.5755
 11
3.47456
 21
-57.1652
  0
LINE
  8
0
 10
3.47456
 20
-57.1652
 11
3.18204
 21
-56.7597
  0
LINE
  8
0
 10
3.18204
 20
-56.7597
 11
2.88278
 21
-56.3592
  0
LINE
  8
0
 10
2.88278
 20
-56.3592
 11
2.5769
 21
-55.9637
  0
LINE
  8
0
 10
2.5769
 20
-55.9637
 11
2.26447
 21
-55.5734
  0
LINE
  8
0
 10
2.26447
 20
-55.5734
 11
1.94557
 21
-55.1883
  0
LINE
  8
0
 10
1.94557
 20
-55.1883
 11
1.62032
 21
-54.8086
  0
LINE
  8
0
 10
1.62032
 20
-54.8086
 11
1.28876
 21
-54.4343
  0
LINE
  8
0
 10
1.28876
 20
-54.4343
 11
0.951019
 21
-54.0656
  0
LINE
  8
0
 10
0.951019
 20
-54.0656
 11
0.607178
 21
-53.7027
  0
LINE
  8
0
 10
0.607178
 20
-53.7027
 11
0.257339
 21
-53.3455
  0
LINE
  8
0
 10
0.257339
 20
-53.3455
 11
-0.0983887
 21
-52.9941
  0
LINE
  8
0
 10
-0.0983887
 20
-52.9941
 11
-0.45993
 21
-52.6488
  0
LINE
  8
0
 10
-0.45993
 20
-52.6488
 11
-0.827194
 21
-52.3095
  0
LINE
  8
0
 10
-0.827194
 20
-52.3095
 11
-1.20004
 21
-51.9764
  0
LINE
  8
0
 10
-1.20004
 20
-51.9764
 11
-1.5784
 21
-51.6496
  0
LINE
  8
0
 10
-1.5784
 20
-51.6496
 11
-1.96216
 21
-51.3291
  0
LINE
  8
0
 10
-1.96216
 20
-51.3291
 11
-2.3512
 21
-51.015
  0
LINE
  8
0
 10
-2.3512
 20
-51.015
 11
-2.74542
 21
-50.7075
  0
LINE
  8
0
 10
-2.74542
 20
-50.7075
 11
-3.1447
 21
-50.4066
  0
LINE
  8
0
 10
-3.1447
 20
-50.4066
 11
-3.54895
 21
-50.1124
  0
LINE
  8
0
 10
-3.54895
 20
-50.1124
 11
-3.95805
 21
-49.8249
  0
LINE
  8
0
 10
-3.95805
 20
-49.8249
 11
-4.4147
 21
-49.5163
  0
LINE
  8
0
 10
-4.4147
 20
-49.5163
 11
-37.5842
 21
-49.5163
  0
LINE
  8
0
 10
-37.5842
 20
-49.5163
 11
-37.8356
 21
-49.6838
  0
LINE
  8
0
 10
-37.8356
 20
-49.6838
 11
-38.2471
 21
-49.9678
  0
LINE
  8
0
 10
-38.2471
 20
-49.9678
 11
-38.6538
 21
-50.2586
  0
LINE
  8
0
 10
-38.6538
 20
-50.2586
 11
-39.0556
 21
-50.5562
  0
LINE
  8
0
 10
-39.0556
 20
-50.5562
 11
-39.4523
 21
-50.8604
  0
LINE
  8
0
 10
-39.4523
 20
-50.8604
 11
-39.844
 21
-51.1712
  0
LINE
  8
0
 10
-39.844
 20
-51.1712
 11
-40.2304
 21
-51.4885
  0
LINE
  8
0
 10
-40.2304
 20
-51.4885
 11
-40.6114
 21
-51.8122
  0
LINE
  8
0
 10
-40.6114
 20
-51.8122
 11
-40.9871
 21
-52.1422
  0
LINE
  8
0
 10
-40.9871
 20
-52.1422
 11
-41.3571
 21
-52.4784
  0
LINE
  8
0
 10
-41.3571
 20
-52.4784
 11
-41.7215
 21
-52.8207
  0
LINE
  8
0
 10
-41.7215
 20
-52.8207
 11
-42.0802
 21
-53.1691
  0
LINE
  8
0
 10
-42.0802
 20
-53.1691
 11
-42.433
 21
-53.5233
  0
LINE
  8
0
 10
-42.433
 20
-53.5233
 11
-42.7799
 21
-53.8834
  0
LINE
  8
0
 10
-42.7799
 20
-53.8834
 11
-43.1207
 21
-54.2493
  0
LINE
  8
0
 10
-43.1207
 20
-54.2493
 11
-43.4553
 21
-54.6207
  0
LINE
  8
0
 10
-43.4553
 20
-54.6207
 11
-43.7837
 21
-54.9977
  0
LINE
  8
0
 10
-43.7837
 20
-54.9977
 11
-44.1058
 21
-55.3802
  0
LINE
  8
0
 10
-44.1058
 20
-55.3802
 11
-44.4215
 21
-55.7679
  0
LINE
  8
0
 10
-44.4215
 20
-55.7679
 11
-44.7307
 21
-56.1608
  0
LINE
  8
0
 10
-44.7307
 20
-56.1608
 11
-45.0332
 21
-56.5588
  0
LINE
  8
0
 10
-45.0332
 20
-56.5588
 11
-45.3291
 21
-56.9619
  0
LINE
  8
0
 10
-45.3291
 20
-56.9619
 11
-45.6183
 21
-57.3698
  0
LINE
  8
0
 10
-45.6183
 20
-57.3698
 11
-45.9006
 21
-57.7824
  0
LINE
  8
0
 10
-45.9006
 20
-57.7824
 11
-46
 21
-57.933
  0
LINE
  8
0
 10
-46
 20
-57.933
 11
-46
 21
-91.0958
  0
LINE
  8
0
 10
-46
 20
-91.0958
 11
-45.9006
 21
-91.2464
  0
LINE
  8
0
 10
-45.9006
 20
-91.2464
 11
-45.6183
 21
-91.6591
  0
LINE
  8
0
 10
-45.6183
 20
-91.6591
 11
-45.3291
 21
-92.067
  0
LINE
  8
0
 10
-45.3291
 20
-92.067
 11
-45.0332
 21
-92.47
  0
LINE
  8
0
 10
-45.0332
 20
-92.47
 11
-44.7307
 21
-92.868
  0
LINE
  8
0
 10
-44.7307
 20
-92.868
 11
-44.4215
 21
-93.261
  0
LINE
  8
0
 10
-44.4215
 20
-93.261
 11
-44.1058
 21
-93.6487
  0
LINE
  8
0
 10
-44.1058
 20
-93.6487
 11
-43.7837
 21
-94.0311
  0
LINE
  8
0
 10
-43.7837
 20
-94.0311
 11
-43.4553
 21
-94.4081
  0
LINE
  8
0
 10
-43.4553
 20
-94.4081
 11
-43.1207
 21
-94.7796
  0
LINE
  8
0
 10
-43.1207
 20
-94.7796
 11
-42.7799
 21
-95.1454
  0
LINE
  8
0
 10
-42.7799
 20
-95.1454
 11
-42.433
 21
-95.5055
  0
LINE
  8
0
 10
-42.433
 20
-95.5055
 11
-42.0802
 21
-95.8598
  0
LINE
  8
0
 10
-42.0802
 20
-95.8598
 11
-41.7215
 21
-96.2081
  0
LINE
  8
0
 10
-41.7215
 20
-96.2081
 11
-41.3571
 21
-96.5505
  0
LINE
  8
0
 10
-41.3571
 20
-96.5505
 11
-40.9871
 21
-96.8867
  0
LINE
  8
0
 10
-40.9871
 20
-96.8867
 11
-40.6114
 21
-97.2167
  0
LINE
  8
0
 10
-40.6114
 20
-97.2167
 11
-40.2304
 21
-97.5403
  0
LINE
  8
0
 10
-40.2304
 20
-97.5403
 11
-39.844
 21
-97.8576
  0
LINE
  8
0
 10
-39.844
 20
-97.8576
 11
-39.4523
 21
-98.1684
  0
LINE
  8
0
 10
-39.4523
 20
-98.1684
 11
-39.0556
 21
-98.4727
  0
LINE
  8
0
 10
-39.0556
 20
-98.4727
 11
-38.6538
 21
-98.7702
  0
LINE
  8
0
 10
-38.6538
 20
-98.7702
 11
-38.2471
 21
-99.0611
  0
LINE
  8
0
 10
-38.2471
 20
-99.0611
 11
-37.8356
 21
-99.3451
  0
LINE
  8
0
 10
-37.8356
 20
-99.3451
 11
-37.5842
 21
-99.5125
  0
LINE
  8
0
 10
-37.5842
 20
-99.5125
 11
-22.9462
 21
-99.5125
  0
LINE
  8
0
 10
-22.9462
 20
-99.5125
 11
-23.0194
 21
-99.6598
  0
LINE
  8
0
 10
-23.0194
 20
-99.6598
 11
-23.2301
 21
-100.112
  0
LINE
  8
0
 10
-23.2301
 20
-100.112
 11
-23.4295
 21
-100.569
  0
LINE
  8
0
 10
-23.4295
 20
-100.569
 11
-23.6175
 21
-101.031
  0
LINE
  8
0
 10
-23.6175
 20
-101.031
 11
-23.7938
 21
-101.497
  0
LINE
  8
0
 10
-23.7938
 20
-101.497
 11
-23.9585
 21
-101.968
  0
LINE
  8
0
 10
-23.9585
 20
-101.968
 11
-24.1115
 21
-102.442
  0
LINE
  8
0
 10
-24.1115
 20
-102.442
 11
-24.2525
 21
-102.921
  0
LINE
  8
0
 10
-24.2525
 20
-102.921
 11
-24.3815
 21
-103.402
  0
LINE
  8
0
 10
-24.3815
 20
-103.402
 11
-24.4986
 21
-103.887
  0
LINE
  8
0
 10
-24.4986
 20
-103.887
 11
-24.6034
 21
-104.375
  0
LINE
  8
0
 10
-24.6034
 20
-104.375
 11
-24.6962
 21
-104.865
  0
LINE
  8
0
 10
-24.6962
 20
-104.865
 11
-24.7766
 21
-105.357
  0
LINE
  8
0
 10
-24.7766
 20
-105.357
 11
-24.8448
 21
-105.851
  0
LINE
  8
0
 10
-24.8448
 20
-105.851
 11
-24.9006
 21
-106.346
  0
LINE
  8
0
 10
-24.9006
 20
-106.346
 11
-24.9441
 21
-106.843
  0
LINE
  8
0
 10
-24.9441
 20
-106.843
 11
-24.9751
 21
-107.341
  0
LINE
  8
0
 10
-24.9751
 20
-107.341
 11
-27.9646
 21
-160.753
  0
LINE
  8
0
 10
-27.9646
 20
-160.753
 11
-27.9873
 21
-161.252
  0
LINE
  8
0
 10
-27.9873
 20
-161.252
 11
-27.9986
 21
-161.75
  0
LINE
  8
0
 10
-27.9986
 20
-161.75
 11
-27.9986
 21
-170.002
  0
LINE
  8
0
 10
-27.9986
 20
-170.002
 11
-37.5842
 21
-170.002
  0
LINE
  8
0
 10
-37.5842
 20
-170.002
 11
-37.8356
 21
-170.169
  0
LINE
  8
0
 10
-37.8356
 20
-170.169
 11
-38.2471
 21
-170.453
  0
LINE
  8
0
 10
-38.2471
 20
-170.453
 11
-38.6538
 21
-170.744
  0
LINE
  8
0
 10
-38.6538
 20
-170.744
 11
-39.0556
 21
-171.042
  0
LINE
  8
0
 10
-39.0556
 20
-171.042
 11
-39.4523
 21
-171.346
  0
LINE
  8
0
 10
-39.4523
 20
-171.346
 11
-39.844
 21
-171.657
  0
LINE
  8
0
 10
-39.844
 20
-171.657
 11
-40.2304
 21
-171.974
  0
LINE
  8
0
 10
-40.2304
 20
-171.974
 11
-40.6114
 21
-172.298
  0
LINE
  8
0
 10
-40.6114
 20
-172.298
 11
-40.9871
 21
-172.628
  0
LINE
  8
0
 10
-40.9871
 20
-172.628
 11
-41.3571
 21
-172.964
  0
LINE
  8
0
 10
-41.3571
 20
-172.964
 11
-41.7215
 21
-173.306
  0
LINE
  8
0
 10
-41.7215
 20
-173.306
 11
-42.0802
 21
-173.655
  0
LINE
  8
0
 10
-42.0802
 20
-173.655
 11
-42.433
 21
-174.009
  0
LINE
  8
0
 10
-42.433
 20
-174.009
 11
-42.7799
 21
-174.369
  0
LINE
  8
0
 10
-42.7799
 20
-174.369
 11
-43.1207
 21
-174.735
  0
LINE
  8
0
 10
-43.1207
 20
-174.735
 11
-43.4553
 21
-175.106
  0
LINE
  8
0
 10
-43.4553
 20
-175.106
 11
-43.7837
 21
-175.483
  0
LINE
  8
0
 10
-43.7837
 20
-175.483
 11
-44.1058
 21
-175.866
  0
LINE
  8
0
 10
-44.1058
 20
-175.866
 11
-44.4215
 21
-176.253
  0
LINE
  8
0
 10
-44.4215
 20
-176.253
 11
-44.7307
 21
-176.646
  0
LINE
  8
0
 10
-44.7307
 20
-176.646
 11
-45.0332
 21
-177.044
  0
LINE
  8
0
 10
-45.0332
 20
-177.044
 11
-45.3291
 21
-177.447
  0
LINE
  8
0
 10
-45.3291
 20
-177.447
 11
-45.6183
 21
-177.855
  0
LINE
  8
0
 10
-45.6183
 20
-177.855
 11
-45.9006
 21
-178.268
  0
LINE
  8
0
 10
-45.9006
 20
-178.268
 11
-46
 21
-178.419
  0
LINE
  8
0
 10
-46
 20
-178.419
 11
-46
 21
-211.581
  0
LINE
  8
0
 10
-46
 20
-211.581
 11
-45.9006
 21
-211.732
  0
LINE
  8
0
 10
-45.9006
 20
-211.732
 11
-45.6183
 21
-212.145
  0
LINE
  8
0
 10
-45.6183
 20
-212.145
 11
-45.3291
 21
-212.553
  0
LINE
  8
0
 10
-45.3291
 20
-212.553
 11
-45.0332
 21
-212.956
  0
LINE
  8
0
 10
-45.0332
 20
-212.956
 11
-44.7307
 21
-213.354
  0
LINE
  8
0
 10
-44.7307
 20
-213.354
 11
-44.4215
 21
-213.747
  0
LINE
  8
0
 10
-44.4215
 20
-213.747
 11
-44.1058
 21
-214.134
  0
LINE
  8
0
 10
-44.1058
 20
-214.134
 11
-43.7837
 21
-214.517
  0
LINE
  8
0
 10
-43.7837
 20
-214.517
 11
-43.4553
 21
-214.894
  0
LINE
  8
0
 10
-43.4553
 20
-214.894
 11
-43.1207
 21
-215.265
  0
LINE
  8
0
 10
-43.1207
 20
-215.265
 11
-42.7799
 21
-215.631
  0
LINE
  8
0
 10
-42.7799
 20
-215.631
 11
-42.433
 21
-215.991
  0
LINE
  8
0
 10
-42.433
 20
-215.991
 11
-42.0802
 21
-216.345
  0
LINE
  8
0
 10
-42.0802
 20
-216.345
 11
-41.7215
 21
-216.694
  0
LINE
  8
0
 10
-41.7215
 20
-216.694
 11
-41.3571
 21
-217.036
  0
LINE
  8
0
 10
-41.3571
 20
-217.036
 11
-40.9871
 21
-217.372
  0
LINE
  8
0
 10
-40.9871
 20
-217.372
 11
-40.6114
 21
-217.702
  0
LINE
  8
0
 10
-40.6114
 20
-217.702
 11
-40.2304
 21
-218.026
  0
LINE
  8
0
 10
-40.2304
 20
-218.026
 11
-39.844
 21
-218.343
  0
LINE
  8
0
 10
-39.844
 20
-218.343
 11
-39.4523
 21
-218.654
  0
LINE
  8
0
 10
-39.4523
 20
-218.654
 11
-39.0556
 21
-218.958
  0
LINE
  8
0
 10
-39.0556
 20
-218.958
 11
-38.6538
 21
-219.256
  0
LINE
  8
0
 10
-38.6538
 20
-219.256
 11
-38.2471
 21
-219.547
  0
LINE
  8
0
 10
-38.2471
 20
-219.547
 11
-37.8356
 21
-219.831
  0
LINE
  8
0
 10
-37.8356
 20
-219.831
 11
-37.5842
 21
-219.998
  0
LINE
  8
0
 10
-37.5842
 20
-219.998
 11
-27.9986
 21
-219.998
  0
LINE
  8
0
 10
-27.9986
 20
-219.998
 11
-27.9986
 21
-228.25
  0
LINE
  8
0
 10
-27.9986
 20
-228.25
 11
-27.9873
 21
-228.748
  0
LINE
  8
0
 10
-27.9873
 20
-228.748
 11
-27.9646
 21
-229.247
  0
LINE
  8
0
 10
-27.9646
 20
-229.247
 11
-27.9307
 21
-229.745
  0
LINE
  8
0
 10
-27.9307
 20
-229.745
 11
-27.8855
 21
-230.242
  0
LINE
  8
0
 10
-27.8855
 20
-230.242
 11
-27.829
 21
-230.738
  0
LINE
  8
0
 10
-27.829
 20
-230.738
 11
-27.7613
 21
-231.232
  0
LINE
  8
0
 10
-27.7613
 20
-231.232
 11
-27.6824
 21
-231.725
  0
LINE
  8
0
 10
-27.6824
 20
-231.725
 11
-27.5923
 21
-232.215
  0
LINE
  8
0
 10
-27.5923
 20
-232.215
 11
-27.4912
 21
-232.704
  0
LINE
  8
0
 10
-27.4912
 20
-232.704
 11
-27.379
 21
-233.19
  0
LINE
  8
0
 10
-27.379
 20
-233.19
 11
-27.2557
 21
-233.674
  0
LINE
  8
0
 10
-27.2557
 20
-233.674
 11
-27.1216
 21
-234.155
  0
LINE
  8
0
 10
-27.1216
 20
-234.155
 11
-26.9765
 21
-234.632
  0
LINE
  8
0
 10
-26.9765
 20
-234.632
 11
-26.8207
 21
-235.106
  0
LINE
  8
0
 10
-26.8207
 20
-235.106
 11
-26.6542
 21
-235.577
  0
LINE
  8
0
 10
-26.6542
 20
-235.577
 11
-26.4771
 21
-236.043
  0
LINE
  8
0
 10
-26.4771
 20
-236.043
 11
-26.2894
 21
-236.505
  0
LINE
  8
0
 10
-26.2894
 20
-236.505
 11
-26.0912
 21
-236.963
  0
LINE
  8
0
 10
-26.0912
 20
-236.963
 11
-25.8828
 21
-237.417
  0
LINE
  8
0
 10
-25.8828
 20
-237.417
 11
-25.6641
 21
-237.865
  0
LINE
  8
0
 10
-25.6641
 20
-237.865
 11
-25.4352
 21
-238.309
  0
LINE
  8
0
 10
-25.4352
 20
-238.309
 11
-25.1964
 21
-238.747
  0
LINE
  8
0
 10
-25.1964
 20
-238.747
 11
-24.9477
 21
-239.18
  0
LINE
  8
0
 10
-24.9477
 20
-239.18
 11
-24.6893
 21
-239.606
  0
LINE
  8
0
 10
-24.6893
 20
-239.606
 11
-24.4212
 21
-240.027
  0
LINE
  8
0
 10
-24.4212
 20
-240.027
 11
-24.1437
 21
-240.442
  0
LINE
  8
0
 10
-24.1437
 20
-240.442
 11
-23.8568
 21
-240.85
  0
LINE
  8
0
 10
-23.8568
 20
-240.85
 11
-23.5608
 21
-241.252
  0
LINE
  8
0
 10
-23.5608
 20
-241.252
 11
-23.2557
 21
-241.647
  0
LINE
  8
0
 10
-23.2557
 20
-241.647
 11
-22.9417
 21
-242.035
  0
LINE
  8
0
 10
-22.9417
 20
-242.035
 11
-22.619
 21
-242.416
  0
LINE
  8
0
 10
-22.619
 20
-242.416
 11
-22.2878
 21
-242.789
  0
LINE
  8
0
 10
-22.2878
 20
-242.789
 11
-21.9482
 21
-243.154
  0
LINE
  8
0
 10
-21.9482
 20
-243.154
 11
-21.6004
 21
-243.512
  0
LINE
  8
0
 10
-21.6004
 20
-243.512
 11
-21.2445
 21
-243.862
  0
LINE
  8
0
 10
-21.2445
 20
-243.862
 11
-20.8809
 21
-244.204
  0
LINE
  8
0
 10
-20.8809
 20
-244.204
 11
-20.5095
 21
-244.537
  0
LINE
  8
0
 10
-20.5095
 20
-244.537
 11
-20.1307
 21
-244.862
  0
LINE
  8
0
 10
-20.1307
 20
-244.862
 11
-19.7446
 21
-245.178
  0
LINE
  8
0
 10
-19.7446
 20
-245.178
 11
-19.3515
 21
-245.485
  0
LINE
  8
0
 10
-19.3515
 20
-245.485
 11
-18.9514
 21
-245.784
  0
LINE
  8
0
 10
-18.9514
 20
-245.784
 11
-18.5448
 21
-246.073
  0
LINE
  8
0
 10
-18.5448
 20
-246.073
 11
-18.1316
 21
-246.353
  0
LINE
  8
0
 10
-18.1316
 20
-246.353
 11
-17.7122
 21
-246.623
  0
LINE
  8
0
 10
-17.7122
 20
-246.623
 11
-17.2868
 21
-246.884
  0
LINE
  8
0
 10
-17.2868
 20
-246.884
 11
-16.8556
 21
-247.135
  0
LINE
  8
0
 10
-16.8556
 20
-247.135
 11
-16.4188
 21
-247.376
  0
LINE
  8
0
 10
-16.4188
 20
-247.376
 11
-15.9767
 21
-247.608
  0
LINE
  8
0
 10
-15.9767
 20
-247.608
 11
-15.5294
 21
-247.829
  0
LINE
  8
0
 10
-15.5294
 20
-247.829
 11
-15.0772
 21
-248.04
  0
LINE
  8
0
 10
-15.0772
 20
-248.04
 11
-14.6203
 21
-248.241
  0
LINE
  8
0
 10
-14.6203
 20
-248.241
 11
-14.159
 21
-248.431
  0
LINE
  8
0
 10
-14.159
 20
-248.431
 11
-13.6935
 21
-248.611
  0
LINE
  8
0
 10
-13.6935
 20
-248.611
 11
-13.2241
 21
-248.78
  0
LINE
  8
0
 10
-13.2241
 20
-248.78
 11
-12.7509
 21
-248.939
  0
LINE
  8
0
 10
-12.7509
 20
-248.939
 11
-12.2742
 21
-249.086
  0
LINE
  8
0
 10
-12.2742
 20
-249.086
 11
-11.7944
 21
-249.223
  0
LINE
  8
0
 10
-11.7944
 20
-249.223
 11
-11.3115
 21
-249.349
  0
LINE
  8
0
 10
-11.3115
 20
-249.349
 11
-10.8259
 21
-249.464
  0
LINE
  8
0
 10
-10.8259
 20
-249.464
 11
-10.3379
 21
-249.568
  0
LINE
  8
0
 10
-10.3379
 20
-249.568
 11
-9.84755
 21
-249.661
  0
LINE
  8
0
 10
-9.84755
 20
-249.661
 11
-9.35527
 21
-249.743
  0
LINE
  8
0
 10
-9.35527
 20
-249.743
 11
-8.86127
 21
-249.813
  0
LINE
  8
0
 10
-8.86127
 20
-249.813
 11
-8.36578
 21
-249.872
  0
LINE
  8
0
 10
-8.36578
 20
-249.872
 11
-7.86908
 21
-249.92
  0
LINE
  8
0
 10
-7.86908
 20
-249.92
 11
-7.37143
 21
-249.957
  0
LINE
  8
0
 10
-7.37143
 20
-249.957
 11
-6.87306
 21
-249.983
  0
LINE
  8
0
 10
-6.87306
 20
-249.983
 11
-6.37424
 21
-249.997
  0
LINE
  8
0
 10
-6.37424
 20
-249.997
 11
-5.87524
 21
-250
  0
LINE
  8
0
 10
-5.87524
 20
-250
 11
25.1248
 21
-250
  0
LINE
  8
0
 10
25.1248
 20
-250
 11
25.6237
 21
-249.991
  0
LINE
  8
0
 10
-35.7451
 20
-61.7977
 11
-36.2171
 21
-61.6654
  0
LINE
  8
0
 10
-36.2171
 20
-61.6654
 11
-36.636
 21
-61.4107
  0
LINE
  8
0
 10
-36.636
 20
-61.4107
 11
-38.636
 21
-59.4107
  0
LINE
  8
0
 10
-38.636
 20
-59.4107
 11
-38.9705
 21
-59.0524
  0
LINE
  8
0
 10
-38.9705
 20
-59.0524
 11
-39.1961
 21
-58.6172
  0
LINE
  8
0
 10
-39.1961
 20
-58.6172
 11
-39.2958
 21
-58.1373
  0
LINE
  8
0
 10
-39.2958
 20
-58.1373
 11
-39.2623
 21
-57.6482
  0
LINE
  8
0
 10
-39.2623
 20
-57.6482
 11
-39.0982
 21
-57.1863
  0
LINE
  8
0
 10
-39.0982
 20
-57.1863
 11
-38.8155
 21
-56.7858
  0
LINE
  8
0
 10
-38.8155
 20
-56.7858
 11
-38.4352
 21
-56.4765
  0
LINE
  8
0
 10
-38.4352
 20
-56.4765
 11
-37.9856
 21
-56.2812
  0
LINE
  8
0
 10
-37.9856
 20
-56.2812
 11
-37.5
 21
-56.2144
  0
LINE
  8
0
 10
-37.5
 20
-56.2144
 11
-37.0144
 21
-56.2812
  0
LINE
  8
0
 10
-37.0144
 20
-56.2812
 11
-36.5647
 21
-56.4765
  0
LINE
  8
0
 10
-36.5647
 20
-56.4765
 11
-36.1845
 21
-56.7858
  0
LINE
  8
0
 10
-36.1845
 20
-56.7858
 11
-34.1845
 21
-58.7858
  0
LINE
  8
0
 10
-34.1845
 20
-58.7858
 11
-33.9018
 21
-59.1863
  0
LINE
  8
0
 10
-33.9018
 20
-59.1863
 11
-33.7376
 21
-59.6482
  0
LINE
  8
0
 10
-33.7376
 20
-59.6482
 11
-33.7042
 21
-60.1373
  0
LINE
  8
0
 10
-33.7042
 20
-60.1373
 11
-33.8039
 21
-60.6172
  0
LINE
  8
0
 10
-33.8039
 20
-60.6172
 11
-34.0294
 21
-61.0524
  0
LINE
  8
0
 10
-34.0294
 20
-61.0524
 11
-34.364
 21
-61.4107
  0
LINE
  8
0
 10
-34.364
 20
-61.4107
 11
-34.7829
 21
-61.6654
  0
LINE
  8
0
 10
-34.7829
 20
-61.6654
 11
-35.2549
 21
-61.7977
  0
LINE
  8
0
 10
-35.2549
 20
-61.7977
 11
-35.7451
 21
-61.7977
  0
LINE
  8
0
 10
-7.10278
 20
-61.7105
 11
-7.53802
 21
-61.485
  0
LINE
  8
0
 10
-7.53802
 20
-61.485
 11
-7.89627
 21
-61.1504
  0
LINE
  8
0
 10
-7.89627
 20
-61.1504
 11
-8.15097
 21
-60.7316
  0
LINE
  8
0
 10
-8.15097
 20
-60.7316
 11
-8.28323
 21
-60.2595
  0
LINE
  8
0
 10
-8.28323
 20
-60.2595
 11
-8.28323
 21
-59.7693
  0
LINE
  8
0
 10
-8.28323
 20
-59.7693
 11
-8.15097
 21
-59.2973
  0
LINE
  8
0
 10
-8.15097
 20
-59.2973
 11
-7.89627
 21
-58.8785
  0
LINE
  8
0
 10
-7.89627
 20
-58.8785
 11
-5.89627
 21
-56.8785
  0
LINE
  8
0
 10
-5.89627
 20
-56.8785
 11
-5.53802
 21
-56.5439
  0
LINE
  8
0
 10
-5.53802
 20
-56.5439
 11
-5.10278
 21
-56.3184
  0
LINE
  8
0
 10
-5.10278
 20
-56.3184
 11
-4.62283
 21
-56.2186
  0
LINE
  8
0
 10
-4.62283
 20
-56.2186
 11
-4.13377
 21
-56.2521
  0
LINE
  8
0
 10
-4.13377
 20
-56.2521
 11
-3.67188
 21
-56.4162
  0
LINE
  8
0
 10
-3.67188
 20
-56.4162
 11
-3.27139
 21
-56.6989
  0
LINE
  8
0
 10
-3.27139
 20
-56.6989
 11
-2.96204
 21
-57.0792
  0
LINE
  8
0
 10
-2.96204
 20
-57.0792
 11
-2.76674
 21
-57.5288
  0
LINE
  8
0
 10
-2.76674
 20
-57.5288
 11
-2.7
 21
-58.0144
  0
LINE
  8
0
 10
-2.7
 20
-58.0144
 11
-2.76674
 21
-58.5001
  0
LINE
  8
0
 10
-2.76674
 20
-58.5001
 11
-2.96204
 21
-58.9497
  0
LINE
  8
0
 10
-2.96204
 20
-58.9497
 11
-3.27139
 21
-59.3299
  0
LINE
  8
0
 10
-3.27139
 20
-59.3299
 11
-5.27139
 21
-61.3299
  0
LINE
  8
0
 10
-5.27139
 20
-61.3299
 11
-5.67188
 21
-61.6126
  0
LINE
  8
0
 10
-5.67188
 20
-61.6126
 11
-6.13377
 21
-61.7768
  0
LINE
  8
0
 10
-6.13377
 20
-61.7768
 11
-6.62283
 21
-61.8102
  0
LINE
  8
0
 10
-6.62283
 20
-61.8102
 11
-7.10278
 21
-61.7105
  0
LINE
  8
0
 10
-21.6239
 20
-86.4982
 11
-22.1218
 21
-86.4619
  0
LINE
  8
0
 10
-22.1218
 20
-86.4619
 11
-22.6179
 21
-86.4049
  0
LINE
  8
0
 10
-22.6179
 20
-86.4049
 11
-23.1111
 21
-86.3273
  0
LINE
  8
0
 10
-23.1111
 20
-86.3273
 11
-23.6006
 21
-86.2292
  0
LINE
  8
0
 10
-23.6006
 20
-86.2292
 11
-24.0857
 21
-86.1109
  0
LINE
  8
0
 10
-24.0857
 20
-86.1109
 11
-24.5654
 21
-85.9725
  0
LINE
  8
0
 10
-24.5654
 20
-85.9725
 11
-25.039
 21
-85.8143
  0
LINE
  8
0
 10
-25.039
 20
-85.8143
 11
-25.5056
 21
-85.6365
  0
LINE
  8
0
 10
-25.5056
 20
-85.6365
 11
-25.9643
 21
-85.4394
  0
LINE
  8
0
 10
-25.9643
 20
-85.4394
 11
-26.4145
 21
-85.2234
  0
LINE
  8
0
 10
-26.4145
 20
-85.2234
 11
-26.8553
 21
-84.989
  0
LINE
  8
0
 10
-26.8553
 20
-84.989
 11
-27.2859
 21
-84.7363
  0
LINE
  8
0
 10
-27.2859
 20
-84.7363
 11
-27.7057
 21
-84.466
  0
LINE
  8
0
 10
-27.7057
 20
-84.466
 11
-28.1139
 21
-84.1784
  0
LINE
  8
0
 10
-28.1139
 20
-84.1784
 11
-28.5097
 21
-83.8741
  0
LINE
  8
0
 10
-28.5097
 20
-83.8741
 11
-28.8926
 21
-83.5536
  0
LINE
  8
0
 10
-28.8926
 20
-83.5536
 11
-29.2618
 21
-83.2175
  0
LINE
  8
0
 10
-29.2618
 20
-83.2175
 11
-29.6166
 21
-82.8663
  0
LINE
  8
0
 10
-29.6166
 20
-82.8663
 11
-29.9566
 21
-82.5006
  0
LINE
  8
0
 10
-29.9566
 20
-82.5006
 11
-30.2811
 21
-82.1211
  0
LINE
  8
0
 10
-30.2811
 20
-82.1211
 11
-30.5895
 21
-81.7285
  0
LINE
  8
0
 10
-30.5895
 20
-81.7285
 11
-30.8813
 21
-81.3233
  0
LINE
  8
0
 10
-30.8813
 20
-81.3233
 11
-31.1559
 21
-80.9064
  0
LINE
  8
0
 10
-31.1559
 20
-80.9064
 11
-31.413
 21
-80.4783
  0
LINE
  8
0
 10
-31.413
 20
-80.4783
 11
-31.6521
 21
-80.04
  0
LINE
  8
0
 10
-31.6521
 20
-80.04
 11
-31.8728
 21
-79.5921
  0
LINE
  8
0
 10
-31.8728
 20
-79.5921
 11
-32.0746
 21
-79.1354
  0
LINE
  8
0
 10
-32.0746
 20
-79.1354
 11
-32.2572
 21
-78.6708
  0
LINE
  8
0
 10
-32.2572
 20
-78.6708
 11
-32.4204
 21
-78.1989
  0
LINE
  8
0
 10
-32.4204
 20
-78.1989
 11
-32.5638
 21
-77.7206
  0
LINE
  8
0
 10
-32.5638
 20
-77.7206
 11
-32.6871
 21
-77.2368
  0
LINE
  8
0
 10
-32.6871
 20
-77.2368
 11
-32.7902
 21
-76.7483
  0
LINE
  8
0
 10
-32.7902
 20
-76.7483
 11
-32.873
 21
-76.2559
  0
LINE
  8
0
 10
-32.873
 20
-76.2559
 11
-32.9351
 21
-75.7605
  0
LINE
  8
0
 10
-32.9351
 20
-75.7605
 11
-32.9766
 21
-75.2629
  0
LINE
  8
0
 10
-32.9766
 20
-75.2629
 11
-32.9974
 21
-74.7641
  0
LINE
  8
0
 10
-32.9974
 20
-74.7641
 11
-32.9974
 21
-74.2648
  0
LINE
  8
0
 10
-32.9974
 20
-74.2648
 11
-32.9766
 21
-73.7659
  0
LINE
  8
0
 10
-32.9766
 20
-73.7659
 11
-32.9351
 21
-73.2684
  0
LINE
  8
0
 10
-32.9351
 20
-73.2684
 11
-32.873
 21
-72.773
  0
LINE
  8
0
 10
-32.873
 20
-72.773
 11
-32.7902
 21
-72.2806
  0
LINE
  8
0
 10
-32.7902
 20
-72.2806
 11
-32.6871
 21
-71.792
  0
LINE
  8
0
 10
-32.6871
 20
-71.792
 11
-32.5638
 21
-71.3082
  0
LINE
  8
0
 10
-32.5638
 20
-71.3082
 11
-32.4204
 21
-70.83
  0
LINE
  8
0
 10
-32.4204
 20
-70.83
 11
-32.2572
 21
-70.3581
  0
LINE
  8
0
 10
-32.2572
 20
-70.3581
 11
-32.0746
 21
-69.8934
  0
LINE
  8
0
 10
-32.0746
 20
-69.8934
 11
-31.8728
 21
-69.4367
  0
LINE
  8
0
 10
-31.8728
 20
-69.4367
 11
-31.6521
 21
-68.9888
  0
LINE
  8
0
 10
-31.6521
 20
-68.9888
 11
-31.413
 21
-68.5505
  0
LINE
  8
0
 10
-31.413
 20
-68.5505
 11
-31.1559
 21
-68.1225
  0
LINE
  8
0
 10
-31.1559
 20
-68.1225
 11
-30.8813
 21
-67.7056
  0
LINE
  8
0
 10
-30.8813
 20
-67.7056
 11
-30.5895
 21
-67.3004
  0
LINE
  8
0
 10
-30.5895
 20
-67.3004
 11
-30.2811
 21
-66.9077
  0
LINE
  8
0
 10
-30.2811
 20
-66.9077
 11
-29.9566
 21
-66.5282
  0
LINE
  8
0
 10
-29.9566
 20
-66.5282
 11
-29.6166
 21
-66.1626
  0
LINE
  8
0
 10
-29.6166
 20
-66.1626
 11
-29.2618
 21
-65.8114
  0
LINE
  8
0
 10
-29.2618
 20
-65.8114
 11
-28.8926
 21
-65.4752
  0
LINE
  8
0
 10
-28.8926
 20
-65.4752
 11
-28.5097
 21
-65.1547
  0
LINE
  8
0
 10
-28.5097
 20
-65.1547
 11
-28.1139
 21
-64.8504
  0
LINE
  8
0
 10
-28.1139
 20
-64.8504
 11
-27.7057
 21
-64.5629
  0
LINE
  8
0
 10
-27.7057
 20
-64.5629
 11
-27.2859
 21
-64.2925
  0
LINE
  8
0
 10
-27.2859
 20
-64.2925
 11
-26.8553
 21
-64.0399
  0
LINE
  8
0
 10
-26.8553
 20
-64.0399
 11
-26.4145
 21
-63.8054
  0
LINE
  8
0
 10
-26.4145
 20
-63.8054
 11
-25.9643
 21
-63.5894
  0
LINE
  8
0
 10
-25.9643
 20
-63.5894
 11
-25.5056
 21
-63.3924
  0
LINE
  8
0
 10
-25.5056
 20
-63.3924
 11
-25.039
 21
-63.2146
  0
LINE
  8
0
 10
-25.039
 20
-63.2146
 11
-24.5654
 21
-63.0564
  0
LINE
  8
0
 10
-24.5654
 20
-63.0564
 11
-24.0857
 21
-62.918
  0
LINE
  8
0
 10
-24.0857
 20
-62.918
 11
-23.6006
 21
-62.7996
  0
LINE
  8
0
 10
-23.6006
 20
-62.7996
 11
-23.1111
 21
-62.7016
  0
LINE
  8
0
 10
-23.1111
 20
-62.7016
 11
-22.6179
 21
-62.624
  0
LINE
  8
0
 10
-22.6179
 20
-62.624
 11
-22.1218
 21
-62.567
  0
LINE
  8
0
 10
-22.1218
 20
-62.567
 11
-21.6239
 21
-62.5307
  0
LINE
  8
0
 10
-21.6239
 20
-62.5307
 11
-21.1248
 21
-62.5151
  0
LINE
  8
0
 10
-21.1248
 20
-62.5151
 11
-20.6256
 21
-62.5203
  0
LINE
  8
0
 10
-20.6256
 20
-62.5203
 11
-20.127
 21
-62.5462
  0
LINE
  8
0
 10
-20.127
 20
-62.5462
 11
-19.6298
 21
-62.5929
  0
LINE
  8
0
 10
-19.6298
 20
-62.5929
 11
-19.1351
 21
-62.6602
  0
LINE
  8
0
 10
-19.1351
 20
-62.6602
 11
-18.6436
 21
-62.7481
  0
LINE
  8
0
 10
-18.6436
 20
-62.7481
 11
-18.1562
 21
-62.8563
  0
LINE
  8
0
 10
-18.1562
 20
-62.8563
 11
-17.6737
 21
-62.9846
  0
LINE
  8
0
 10
-17.6737
 20
-62.9846
 11
-17.1969
 21
-63.133
  0
LINE
  8
0
 10
-17.1969
 20
-63.133
 11
-16.7268
 21
-63.3011
  0
LINE
  8
0
 10
-16.7268
 20
-63.3011
 11
-16.264
 21
-63.4885
  0
LINE
  8
0
 10
-16.264
 20
-63.4885
 11
-15.8095
 21
-63.6951
  0
LINE
  8
0
 10
-15.8095
 20
-63.6951
 11
-15.3639
 21
-63.9204
  0
LINE
  8
0
 10
-15.3639
 20
-63.9204
 11
-14.9281
 21
-64.164
  0
LINE
  8
0
 10
-14.9281
 20
-64.164
 11
-14.5028
 21
-64.4255
  0
LINE
  8
0
 10
-14.5028
 20
-64.4255
 11
-14.0887
 21
-64.7045
  0
LINE
  8
0
 10
-14.0887
 20
-64.7045
 11
-13.6866
 21
-65.0005
  0
LINE
  8
0
 10
-13.6866
 20
-65.0005
 11
-13.2972
 21
-65.313
  0
LINE
  8
0
 10
-13.2972
 20
-65.313
 11
-12.9211
 21
-65.6414
  0
LINE
  8
0
 10
-12.9211
 20
-65.6414
 11
-12.559
 21
-65.9851
  0
LINE
  8
0
 10
-12.559
 20
-65.9851
 11
-12.2115
 21
-66.3436
  0
LINE
  8
0
 10
-12.2115
 20
-66.3436
 11
-11.8792
 21
-66.7163
  0
LINE
  8
0
 10
-11.8792
 20
-66.7163
 11
-11.5627
 21
-67.1025
  0
LINE
  8
0
 10
-11.5627
 20
-67.1025
 11
-11.2625
 21
-67.5015
  0
LINE
  8
0
 10
-11.2625
 20
-67.5015
 11
-10.9792
 21
-67.9126
  0
LINE
  8
0
 10
-10.9792
 20
-67.9126
 11
-10.7133
 21
-68.3352
  0
LINE
  8
0
 10
-10.7133
 20
-68.3352
 11
-10.4651
 21
-68.7684
  0
LINE
  8
0
 10
-10.4651
 20
-68.7684
 11
-10.2352
 21
-69.2116
  0
LINE
  8
0
 10
-10.2352
 20
-69.2116
 11
-10.024
 21
-69.664
  0
LINE
  8
0
 10
-10.024
 20
-69.664
 11
-9.83168
 21
-70.1248
  0
LINE
  8
0
 10
-9.83168
 20
-70.1248
 11
-9.65875
 21
-70.5932
  0
LINE
  8
0
 10
-9.65875
 20
-70.5932
 11
-9.50545
 21
-71.0684
  0
LINE
  8
0
 10
-9.50545
 20
-71.0684
 11
-9.37204
 21
-71.5495
  0
LINE
  8
0
 10
-9.37204
 20
-71.5495
 11
-9.25877
 21
-72.0358
  0
LINE
  8
0
 10
-9.25877
 20
-72.0358
 11
-9.16583
 21
-72.5263
  0
LINE
  8
0
 10
-9.16583
 20
-72.5263
 11
-9.09337
 21
-73.0203
  0
LINE
  8
0
 10
-9.09337
 20
-73.0203
 11
-9.04152
 21
-73.5169
  0
LINE
  8
0
 10
-9.04152
 20
-73.5169
 11
-9.01038
 21
-74.0152
  0
LINE
  8
0
 10
-9.01038
 20
-74.0152
 11
-9
 21
-74.5144
  0
LINE
  8
0
 10
-9
 20
-74.5144
 11
-9.01038
 21
-75.0136
  0
LINE
  8
0
 10
-9.01038
 20
-75.0136
 11
-9.04152
 21
-75.5119
  0
LINE
  8
0
 10
-9.04152
 20
-75.5119
 11
-9.09337
 21
-76.0085
  0
LINE
  8
0
 10
-9.09337
 20
-76.0085
 11
-9.16583
 21
-76.5025
  0
LINE
  8
0
 10
-9.16583
 20
-76.5025
 11
-9.25877
 21
-76.9931
  0
LINE
  8
0
 10
-9.25877
 20
-76.9931
 11
-9.37204
 21
-77.4794
  0
LINE
  8
0
 10
-9.37204
 20
-77.4794
 11
-9.50545
 21
-77.9605
  0
LINE
  8
0
 10
-9.50545
 20
-77.9605
 11
-9.65875
 21
-78.4357
  0
LINE
  8
0
 10
-9.65875
 20
-78.4357
 11
-9.83168
 21
-78.9041
  0
LINE
  8
0
 10
-9.83168
 20
-78.9041
 11
-10.024
 21
-79.3648
  0
LINE
  8
0
 10
-10.024
 20
-79.3648
 11
-10.2352
 21
-79.8172
  0
LINE
  8
0
 10
-10.2352
 20
-79.8172
 11
-10.4651
 21
-80.2604
  0
LINE
  8
0
 10
-10.4651
 20
-80.2604
 11
-10.7133
 21
-80.6937
  0
LINE
  8
0
 10
-10.7133
 20
-80.6937
 11
-10.9792
 21
-81.1163
  0
LINE
  8
0
 10
-10.9792
 20
-81.1163
 11
-11.2625
 21
-81.5274
  0
LINE
  8
0
 10
-11.2625
 20
-81.5274
 11
-11.5627
 21
-81.9264
  0
LINE
  8
0
 10
-11.5627
 20
-81.9264
 11
-11.8792
 21
-82.3125
  0
LINE
  8
0
 10
-11.8792
 20
-82.3125
 11
-12.2115
 21
-82.6852
  0
LINE
  8
0
 10
-12.2115
 20
-82.6852
 11
-12.559
 21
-83.0437
  0
LINE
  8
0
 10
-12.559
 20
-83.0437
 11
-12.9211
 21
-83.3875
  0
LINE
  8
0
 10
-12.9211
 20
-83.3875
 11
-13.2972
 21
-83.7159
  0
LINE
  8
0
 10
-13.2972
 20
-83.7159
 11
-13.6866
 21
-84.0283
  0
LINE
  8
0
 10
-13.6866
 20
-84.0283
 11
-14.0887
 21
-84.3243
  0
LINE
  8
0
 10
-14.0887
 20
-84.3243
 11
-14.5028
 21
-84.6033
  0
LINE
  8
0
 10
-14.5028
 20
-84.6033
 11
-14.9281
 21
-84.8649
  0
LINE
  8
0
 10
-14.9281
 20
-84.8649
 11
-15.3639
 21
-85.1085
  0
LINE
  8
0
 10
-15.3639
 20
-85.1085
 11
-15.8095
 21
-85.3338
  0
LINE
  8
0
 10
-15.8095
 20
-85.3338
 11
-16.264
 21
-85.5403
  0
LINE
  8
0
 10
-16.264
 20
-85.5403
 11
-16.7268
 21
-85.7278
  0
LINE
  8
0
 10
-16.7268
 20
-85.7278
 11
-17.1969
 21
-85.8958
  0
LINE
  8
0
 10
-17.1969
 20
-85.8958
 11
-17.6737
 21
-86.0442
  0
LINE
  8
0
 10
-17.6737
 20
-86.0442
 11
-18.1562
 21
-86.1726
  0
LINE
  8
0
 10
-18.1562
 20
-86.1726
 11
-18.6436
 21
-86.2808
  0
LINE
  8
0
 10
-18.6436
 20
-86.2808
 11
-19.1351
 21
-86.3686
  0
LINE
  8
0
 10
-19.1351
 20
-86.3686
 11
-19.6298
 21
-86.4359
  0
LINE
  8
0
 10
-19.6298
 20
-86.4359
 11
-20.127
 21
-86.4826
  0
LINE
  8
0
 10
-20.127
 20
-86.4826
 11
-20.6256
 21
-86.5086
  0
LINE
  8
0
 10
-20.6256
 20
-86.5086
 11
-21.1248
 21
-86.5138
  0
LINE
  8
0
 10
-21.1248
 20
-86.5138
 11
-21.6239
 21
-86.4982
  0
LINE
  8
0
 10
-37.8662
 20
-92.7768
 11
-38.3281
 21
-92.6126
  0
LINE
  8
0
 10
-38.3281
 20
-92.6126
 11
-38.7286
 21
-92.3299
  0
LINE
  8
0
 10
-38.7286
 20
-92.3299
 11
-39.0379
 21
-91.9497
  0
LINE
  8
0
 10
-39.0379
 20
-91.9497
 11
-39.2332
 21
-91.5001
  0
LINE
  8
0
 10
-39.2332
 20
-91.5001
 11
-39.3
 21
-91.0144
  0
LINE
  8
0
 10
-39.3
 20
-91.0144
 11
-39.2332
 21
-90.5288
  0
LINE
  8
0
 10
-39.2332
 20
-90.5288
 11
-39.0379
 21
-90.0792
  0
LINE
  8
0
 10
-39.0379
 20
-90.0792
 11
-38.7286
 21
-89.6989
  0
LINE
  8
0
 10
-38.7286
 20
-89.6989
 11
-36.7286
 21
-87.6989
  0
LINE
  8
0
 10
-36.7286
 20
-87.6989
 11
-36.3281
 21
-87.4162
  0
LINE
  8
0
 10
-36.3281
 20
-87.4162
 11
-35.8662
 21
-87.2521
  0
LINE
  8
0
 10
-35.8662
 20
-87.2521
 11
-35.3772
 21
-87.2186
  0
LINE
  8
0
 10
-35.3772
 20
-87.2186
 11
-34.8972
 21
-87.3184
  0
LINE
  8
0
 10
-34.8972
 20
-87.3184
 11
-34.462
 21
-87.5439
  0
LINE
  8
0
 10
-34.462
 20
-87.5439
 11
-34.1037
 21
-87.8785
  0
LINE
  8
0
 10
-34.1037
 20
-87.8785
 11
-33.849
 21
-88.2973
  0
LINE
  8
0
 10
-33.849
 20
-88.2973
 11
-33.7168
 21
-88.7693
  0
LINE
  8
0
 10
-33.7168
 20
-88.7693
 11
-33.7168
 21
-89.2595
  0
LINE
  8
0
 10
-33.7168
 20
-89.2595
 11
-33.849
 21
-89.7316
  0
LINE
  8
0
 10
-33.849
 20
-89.7316
 11
-34.1037
 21
-90.1504
  0
LINE
  8
0
 10
-34.1037
 20
-90.1504
 11
-36.1037
 21
-92.1504
  0
LINE
  8
0
 10
-36.1037
 20
-92.1504
 11
-36.462
 21
-92.485
  0
LINE
  8
0
 10
-36.462
 20
-92.485
 11
-36.8972
 21
-92.7105
  0
LINE
  8
0
 10
-36.8972
 20
-92.7105
 11
-37.3772
 21
-92.8102
  0
LINE
  8
0
 10
-37.3772
 20
-92.8102
 11
-37.8662
 21
-92.7768
  0
LINE
  8
0
 10
-4.98563
 20
-92.7477
 11
-5.43524
 21
-92.5524
  0
LINE
  8
0
 10
-5.43524
 20
-92.5524
 11
-5.81549
 21
-92.243
  0
LINE
  8
0
 10
-5.81549
 20
-92.243
 11
-7.81549
 21
-90.243
  0
LINE
  8
0
 10
-7.81549
 20
-90.243
 11
-8.09819
 21
-89.8425
  0
LINE
  8
0
 10
-8.09819
 20
-89.8425
 11
-8.26234
 21
-89.3806
  0
LINE
  8
0
 10
-8.26234
 20
-89.3806
 11
-8.29579
 21
-88.8916
  0
LINE
  8
0
 10
-8.29579
 20
-88.8916
 11
-8.19606
 21
-88.4116
  0
LINE
  8
0
 10
-8.19606
 20
-88.4116
 11
-7.97054
 21
-87.9764
  0
LINE
  8
0
 10
-7.97054
 20
-87.9764
 11
-7.63596
 21
-87.6181
  0
LINE
  8
0
 10
-7.63596
 20
-87.6181
 11
-7.21712
 21
-87.3634
  0
LINE
  8
0
 10
-7.21712
 20
-87.3634
 11
-6.74509
 21
-87.2312
  0
LINE
  8
0
 10
-6.74509
 20
-87.2312
 11
-6.2549
 21
-87.2312
  0
LINE
  8
0
 10
-6.2549
 20
-87.2312
 11
-5.78287
 21
-87.3634
  0
LINE
  8
0
 10
-5.78287
 20
-87.3634
 11
-5.36403
 21
-87.6181
  0
LINE
  8
0
 10
-5.36403
 20
-87.6181
 11
-3.36403
 21
-89.6181
  0
LINE
  8
0
 10
-3.36403
 20
-89.6181
 11
-3.02945
 21
-89.9764
  0
LINE
  8
0
 10
-3.02945
 20
-89.9764
 11
-2.80392
 21
-90.4116
  0
LINE
  8
0
 10
-2.80392
 20
-90.4116
 11
-2.70419
 21
-90.8916
  0
LINE
  8
0
 10
-2.70419
 20
-90.8916
 11
-2.73764
 21
-91.3806
  0
LINE
  8
0
 10
-2.73764
 20
-91.3806
 11
-2.90179
 21
-91.8425
  0
LINE
  8
0
 10
-2.90179
 20
-91.8425
 11
-3.18449
 21
-92.243
  0
LINE
  8
0
 10
-3.18449
 20
-92.243
 11
-3.56474
 21
-92.5524
  0
LINE
  8
0
 10
-3.56474
 20
-92.5524
 11
-4.01436
 21
-92.7477
  0
LINE
  8
0
 10
-4.01436
 20
-92.7477
 11
-4.5
 21
-92.8144
  0
LINE
  8
0
 10
-4.5
 20
-92.8144
 11
-4.98563
 21
-92.7477
  0
LINE
  8
0
 10
-5.62421
 20
-118.418
 11
-6.12196
 21
-118.375
  0
LINE
  8
0
 10
-6.12196
 20
-118.375
 11
-6.61699
 21
-118.307
  0
LINE
  8
0
 10
-6.61699
 20
-118.307
 11
-7.10805
 21
-118.215
  0
LINE
  8
0
 10
-7.10805
 20
-118.215
 11
-7.59395
 21
-118.099
  0
LINE
  8
0
 10
-7.59395
 20
-118.099
 11
-8.0735
 21
-117.958
  0
LINE
  8
0
 10
-8.0735
 20
-117.958
 11
-8.54553
 21
-117.795
  0
LINE
  8
0
 10
-8.54553
 20
-117.795
 11
-9.0089
 21
-117.608
  0
LINE
  8
0
 10
-9.0089
 20
-117.608
 11
-9.46243
 21
-117.398
  0
LINE
  8
0
 10
-9.46243
 20
-117.398
 11
-9.90506
 21
-117.166
  0
LINE
  8
0
 10
-9.90506
 20
-117.166
 11
-10.3357
 21
-116.913
  0
LINE
  8
0
 10
-10.3357
 20
-116.913
 11
-10.7533
 21
-116.639
  0
LINE
  8
0
 10
-10.7533
 20
-116.639
 11
-11.1567
 21
-116.344
  0
LINE
  8
0
 10
-11.1567
 20
-116.344
 11
-11.5452
 21
-116.03
  0
LINE
  8
0
 10
-11.5452
 20
-116.03
 11
-11.7601
 21
-115.837
  0
LINE
  8
0
 10
-11.7601
 20
-115.837
 11
-17.875
 21
-115.837
  0
LINE
  8
0
 10
-17.875
 20
-115.837
 11
-17.875
 21
-115.337
  0
LINE
  8
0
 10
-17.875
 20
-115.337
 11
-18
 21
-115.337
  0
LINE
  8
0
 10
-18
 20
-115.337
 11
-18
 21
-101.337
  0
LINE
  8
0
 10
-18
 20
-101.337
 11
-17.875
 21
-101.337
  0
LINE
  8
0
 10
-17.875
 20
-101.337
 11
-17.875
 21
-100.837
  0
LINE
  8
0
 10
-17.875
 20
-100.837
 11
-11.7601
 21
-100.837
  0
LINE
  8
0
 10
-11.7601
 20
-100.837
 11
-11.5452
 21
-100.645
  0
LINE
  8
0
 10
-11.5452
 20
-100.645
 11
-11.1567
 21
-100.331
  0
LINE
  8
0
 10
-11.1567
 20
-100.331
 11
-10.7533
 21
-100.036
  0
LINE
  8
0
 10
-10.7533
 20
-100.036
 11
-10.3357
 21
-99.7619
  0
LINE
  8
0
 10
-10.3357
 20
-99.7619
 11
-9.90506
 21
-99.5085
  0
LINE
  8
0
 10
-9.90506
 20
-99.5085
 11
-9.46243
 21
-99.2768
  0
LINE
  8
0
 10
-9.46243
 20
-99.2768
 11
-9.0089
 21
-99.0672
  0
LINE
  8
0
 10
-9.0089
 20
-99.0672
 11
-8.54553
 21
-98.8803
  0
LINE
  8
0
 10
-8.54553
 20
-98.8803
 11
-8.0735
 21
-98.7165
  0
LINE
  8
0
 10
-8.0735
 20
-98.7165
 11
-7.59395
 21
-98.5763
  0
LINE
  8
0
 10
-7.59395
 20
-98.5763
 11
-7.10805
 21
-98.4599
  0
LINE
  8
0
 10
-7.10805
 20
-98.4599
 11
-6.61699
 21
-98.3678
  0
LINE
  8
0
 10
-6.61699
 20
-98.3678
 11
-6.12196
 21
-98.3
  0
LINE
  8
0
 10
-6.12196
 20
-98.3
 11
-5.62421
 21
-98.2568
  0
LINE
  8
0
 10
-5.62421
 20
-98.2568
 11
-5.12491
 21
-98.2383
  0
LINE
  8
0
 10
-5.12491
 20
-98.2383
 11
-4.62532
 21
-98.2444
  0
LINE
  8
0
 10
-4.62532
 20
-98.2444
 11
-4.12663
 21
-98.2753
  0
LINE
  8
0
 10
-4.12663
 20
-98.2753
 11
-3.6301
 21
-98.3308
  0
LINE
  8
0
 10
-3.6301
 20
-98.3308
 11
-3.1369
 21
-98.4108
  0
LINE
  8
0
 10
-3.1369
 20
-98.4108
 11
-2.64827
 21
-98.5151
  0
LINE
  8
0
 10
-2.64827
 20
-98.5151
 11
-2.38672
 21
-98.5846
  0
LINE
  8
0
 10
-2.38672
 20
-98.5846
 11
-2.67128
 21
-99.6466
  0
LINE
  8
0
 10
-2.67128
 20
-99.6466
 11
-2.79062
 21
-99.6129
  0
LINE
  8
0
 10
-2.79062
 20
-99.6129
 11
-3.2746
 21
-99.5044
  0
LINE
  8
0
 10
-3.2746
 20
-99.5044
 11
-3.76381
 21
-99.4228
  0
LINE
  8
0
 10
-3.76381
 20
-99.4228
 11
-4.25677
 21
-99.3682
  0
LINE
  8
0
 10
-4.25677
 20
-99.3682
 11
-4.752
 21
-99.3409
  0
LINE
  8
0
 10
-4.752
 20
-99.3409
 11
-5.24799
 21
-99.3409
  0
LINE
  8
0
 10
-5.24799
 20
-99.3409
 11
-5.74321
 21
-99.3682
  0
LINE
  8
0
 10
-5.74321
 20
-99.3682
 11
-6.23618
 21
-99.4228
  0
LINE
  8
0
 10
-6.23618
 20
-99.4228
 11
-6.72539
 21
-99.5044
  0
LINE
  8
0
 10
-6.72539
 20
-99.5044
 11
-7.20937
 21
-99.6129
  0
LINE
  8
0
 10
-7.20937
 20
-99.6129
 11
-7.68663
 21
-99.7478
  0
LINE
  8
0
 10
-7.68663
 20
-99.7478
 11
-8.15573
 21
-99.9089
  0
LINE
  8
0
 10
-8.15573
 20
-99.9089
 11
-8.61525
 21
-100.096
  0
LINE
  8
0
 10
-8.61525
 20
-100.096
 11
-9.0638
 21
-100.307
  0
LINE
  8
0
 10
-9.0638
 20
-100.307
 11
-9.49998
 21
-100.543
  0
LINE
  8
0
 10
-9.49998
 20
-100.543
 11
-9.92253
 21
-100.803
  0
LINE
  8
0
 10
-9.92253
 20
-100.803
 11
-10.3301
 21
-101.086
  0
LINE
  8
0
 10
-10.3301
 20
-101.086
 11
-10.7215
 21
-101.39
  0
LINE
  8
0
 10
-10.7215
 20
-101.39
 11
-11.0955
 21
-101.716
  0
LINE
  8
0
 10
-11.0955
 20
-101.716
 11
-11.451
 21
-102.062
  0
LINE
  8
0
 10
-11.451
 20
-102.062
 11
-11.5
 21
-102.115
  0
LINE
  8
0
 10
-11.5
 20
-102.115
 11
-11.5
 21
-103.337
  0
LINE
  8
0
 10
-11.5
 20
-103.337
 11
-15.5
 21
-103.337
  0
LINE
  8
0
 10
-15.5
 20
-103.337
 11
-15.5
 21
-101.837
  0
LINE
  8
0
 10
-15.5
 20
-101.837
 11
-17
 21
-101.837
  0
LINE
  8
0
 10
-17
 20
-101.837
 11
-17
 21
-107.087
  0
LINE
  8
0
 10
-17
 20
-107.087
 11
-9.84038
 21
-107.087
  0
LINE
  8
0
 10
-9.84038
 20
-107.087
 11
-9.69846
 21
-106.627
  0
LINE
  8
0
 10
-9.69846
 20
-106.627
 11
-9.50484
 21
-106.168
  0
LINE
  8
0
 10
-9.50484
 20
-106.168
 11
-9.26645
 21
-105.73
  0
LINE
  8
0
 10
-9.26645
 20
-105.73
 11
-8.98566
 21
-105.318
  0
LINE
  8
0
 10
-8.98566
 20
-105.318
 11
-8.66525
 21
-104.937
  0
LINE
  8
0
 10
-8.66525
 20
-104.937
 11
-8.30843
 21
-104.589
  0
LINE
  8
0
 10
-8.30843
 20
-104.589
 11
-7.91872
 21
-104.278
  0
LINE
  8
0
 10
-7.91872
 20
-104.278
 11
-7.5
 21
-104.007
  0
LINE
  8
0
 10
-7.5
 20
-104.007
 11
-7.05643
 21
-103.78
  0
LINE
  8
0
 10
-7.05643
 20
-103.78
 11
-6.59242
 21
-103.598
  0
LINE
  8
0
 10
-6.59242
 20
-103.598
 11
-6.11259
 21
-103.463
  0
LINE
  8
0
 10
-6.11259
 20
-103.463
 11
-5.6217
 21
-103.376
  0
LINE
  8
0
 10
-5.6217
 20
-103.376
 11
-5.12465
 21
-103.339
  0
LINE
  8
0
 10
-5.12465
 20
-103.339
 11
-4.62634
 21
-103.351
  0
LINE
  8
0
 10
-4.62634
 20
-103.351
 11
-4.13176
 21
-103.413
  0
LINE
  8
0
 10
-4.13176
 20
-103.413
 11
-3.6458
 21
-103.524
  0
LINE
  8
0
 10
-3.6458
 20
-103.524
 11
-3.17329
 21
-103.683
  0
LINE
  8
0
 10
-3.17329
 20
-103.683
 11
-2.71893
 21
-103.888
  0
LINE
  8
0
 10
-2.71893
 20
-103.888
 11
-2.28726
 21
-104.137
  0
LINE
  8
0
 10
-2.28726
 20
-104.137
 11
-1.88254
 21
-104.428
  0
LINE
  8
0
 10
-1.88254
 20
-104.428
 11
-1.5088
 21
-104.758
  0
LINE
  8
0
 10
-1.5088
 20
-104.758
 11
-1.16977
 21
-105.124
  0
LINE
  8
0
 10
-1.16977
 20
-105.124
 11
-0.868805
 21
-105.521
  0
LINE
  8
0
 10
-0.868805
 20
-105.521
 11
-0.608887
 21
-105.946
  0
LINE
  8
0
 10
-0.608887
 20
-105.946
 11
-0.392609
 21
-106.395
  0
LINE
  8
0
 10
-0.392609
 20
-106.395
 11
-0.222122
 21
-106.864
  0
LINE
  8
0
 10
-0.222122
 20
-106.864
 11
-0.0991364
 21
-107.347
  0
LINE
  8
0
 10
-0.0991364
 20
-107.347
 11
-0.0248413
 21
-107.84
  0
LINE
  8
0
 10
-0.0248413
 20
-107.84
 11
0
 21
-108.337
  0
LINE
  8
0
 10
0
 20
-108.337
 11
-0.0248413
 21
-108.835
  0
LINE
  8
0
 10
-0.0248413
 20
-108.835
 11
-0.0991364
 21
-109.328
  0
LINE
  8
0
 10
-0.0991364
 20
-109.328
 11
-0.222122
 21
-109.811
  0
LINE
  8
0
 10
-0.222122
 20
-109.811
 11
-0.392609
 21
-110.28
  0
LINE
  8
0
 10
-0.392609
 20
-110.28
 11
-0.608887
 21
-110.729
  0
LINE
  8
0
 10
-0.608887
 20
-110.729
 11
-0.868805
 21
-111.154
  0
LINE
  8
0
 10
-0.868805
 20
-111.154
 11
-1.16977
 21
-111.551
  0
LINE
  8
0
 10
-1.16977
 20
-111.551
 11
-1.5088
 21
-111.917
  0
LINE
  8
0
 10
-1.5088
 20
-111.917
 11
-1.88254
 21
-112.247
  0
LINE
  8
0
 10
-1.88254
 20
-112.247
 11
-2.28726
 21
-112.538
  0
LINE
  8
0
 10
-2.28726
 20
-112.538
 11
-2.71893
 21
-112.787
  0
LINE
  8
0
 10
-2.71893
 20
-112.787
 11
-3.17329
 21
-112.992
  0
LINE
  8
0
 10
-3.17329
 20
-112.992
 11
-3.6458
 21
-113.151
  0
LINE
  8
0
 10
-3.6458
 20
-113.151
 11
-4.13176
 21
-113.262
  0
LINE
  8
0
 10
-4.13176
 20
-113.262
 11
-4.62634
 21
-113.324
  0
LINE
  8
0
 10
-4.62634
 20
-113.324
 11
-5.12465
 21
-113.336
  0
LINE
  8
0
 10
-5.12465
 20
-113.336
 11
-5.6217
 21
-113.299
  0
LINE
  8
0
 10
-5.6217
 20
-113.299
 11
-6.11259
 21
-113.212
  0
LINE
  8
0
 10
-6.11259
 20
-113.212
 11
-6.59242
 21
-113.077
  0
LINE
  8
0
 10
-6.59242
 20
-113.077
 11
-7.05643
 21
-112.895
  0
LINE
  8
0
 10
-7.05643
 20
-112.895
 11
-7.49998
 21
-112.668
  0
LINE
  8
0
 10
-7.49998
 20
-112.668
 11
-7.91872
 21
-112.397
  0
LINE
  8
0
 10
-7.91872
 20
-112.397
 11
-8.30843
 21
-112.086
  0
LINE
  8
0
 10
-8.30843
 20
-112.086
 11
-8.66525
 21
-111.738
  0
LINE
  8
0
 10
-8.66525
 20
-111.738
 11
-8.98566
 21
-111.357
  0
LINE
  8
0
 10
-8.98566
 20
-111.357
 11
-9.26645
 21
-110.945
  0
LINE
  8
0
 10
-9.26645
 20
-110.945
 11
-9.50484
 21
-110.507
  0
LINE
  8
0
 10
-9.50484
 20
-110.507
 11
-9.69846
 21
-110.048
  0
LINE
  8
0
 10
-9.69846
 20
-110.048
 11
-9.84038
 21
-109.587
  0
LINE
  8
0
 10
-9.84038
 20
-109.587
 11
-17
 21
-109.587
  0
LINE
  8
0
 10
-17
 20
-109.587
 11
-17
 21
-114.837
  0
LINE
  8
0
 10
-17
 20
-114.837
 11
-15.5
 21
-114.837
  0
LINE
  8
0
 10
-15.5
 20
-114.837
 11
-15.5
 21
-113.337
  0
LINE
  8
0
 10
-15.5
 20
-113.337
 11
-11.5
 21
-113.337
  0
LINE
  8
0
 10
-11.5
 20
-113.337
 11
-11.5
 21
-114.56
  0
LINE
  8
0
 10
-11.5
 20
-114.56
 11
-11.451
 21
-114.613
  0
LINE
  8
0
 10
-11.451
 20
-114.613
 11
-11.0955
 21
-114.959
  0
LINE
  8
0
 10
-11.0955
 20
-114.959
 11
-10.7215
 21
-115.285
  0
LINE
  8
0
 10
-10.7215
 20
-115.285
 11
-10.3301
 21
-115.589
  0
LINE
  8
0
 10
-10.3301
 20
-115.589
 11
-9.92253
 21
-115.872
  0
LINE
  8
0
 10
-9.92253
 20
-115.872
 11
-9.5
 21
-116.132
  0
LINE
  8
0
 10
-9.5
 20
-116.132
 11
-9.0638
 21
-116.368
  0
LINE
  8
0
 10
-9.0638
 20
-116.368
 11
-8.61525
 21
-116.579
  0
LINE
  8
0
 10
-8.61525
 20
-116.579
 11
-8.15573
 21
-116.766
  0
LINE
  8
0
 10
-8.15573
 20
-116.766
 11
-7.68663
 21
-116.927
  0
LINE
  8
0
 10
-7.68663
 20
-116.927
 11
-7.20937
 21
-117.062
  0
LINE
  8
0
 10
-7.20937
 20
-117.062
 11
-6.72539
 21
-117.171
  0
LINE
  8
0
 10
-6.72539
 20
-117.171
 11
-6.23618
 21
-117.252
  0
LINE
  8
0
 10
-6.23618
 20
-117.252
 11
-5.74321
 21
-117.307
  0
LINE
  8
0
 10
-5.74321
 20
-117.307
 11
-5.24799
 21
-117.334
  0
LINE
  8
0
 10
-5.24799
 20
-117.334
 11
-4.752
 21
-117.334
  0
LINE
  8
0
 10
-4.752
 20
-117.334
 11
-4.25677
 21
-117.307
  0
LINE
  8
0
 10
-4.25677
 20
-117.307
 11
-3.76381
 21
-117.252
  0
LINE
  8
0
 10
-3.76381
 20
-117.252
 11
-3.2746
 21
-117.171
  0
LINE
  8
0
 10
-3.2746
 20
-117.171
 11
-2.79062
 21
-117.062
  0
LINE
  8
0
 10
-2.79062
 20
-117.062
 11
-2.67128
 21
-117.028
  0
LINE
  8
0
 10
-2.67128
 20
-117.028
 11
-2.38672
 21
-118.09
  0
LINE
  8
0
 10
-2.38672
 20
-118.09
 11
-2.64827
 21
-118.16
  0
LINE
  8
0
 10
-2.64827
 20
-118.16
 11
-3.1369
 21
-118.264
  0
LINE
  8
0
 10
-3.1369
 20
-118.264
 11
-3.6301
 21
-118.344
  0
LINE
  8
0
 10
-3.6301
 20
-118.344
 11
-4.12663
 21
-118.4
  0
LINE
  8
0
 10
-4.12663
 20
-118.4
 11
-4.62532
 21
-118.431
  0
LINE
  8
0
 10
-4.62532
 20
-118.431
 11
-5.12491
 21
-118.437
  0
LINE
  8
0
 10
-5.12491
 20
-118.437
 11
-5.62421
 21
-118.418
  0
LINE
  8
0
 10
-6.62421
 20
-172.081
 11
-7.12196
 21
-172.037
  0
LINE
  8
0
 10
-7.12196
 20
-172.037
 11
-7.61699
 21
-171.97
  0
LINE
  8
0
 10
-7.61699
 20
-171.97
 11
-8.10805
 21
-171.878
  0
LINE
  8
0
 10
-8.10805
 20
-171.878
 11
-8.59395
 21
-171.761
  0
LINE
  8
0
 10
-8.59395
 20
-171.761
 11
-9.0735
 21
-171.621
  0
LINE
  8
0
 10
-9.0735
 20
-171.621
 11
-9.54553
 21
-171.457
  0
LINE
  8
0
 10
-9.54553
 20
-171.457
 11
-10.0089
 21
-171.27
  0
LINE
  8
0
 10
-10.0089
 20
-171.27
 11
-10.4624
 21
-171.061
  0
LINE
  8
0
 10
-10.4624
 20
-171.061
 11
-10.9051
 21
-170.829
  0
LINE
  8
0
 10
-10.9051
 20
-170.829
 11
-11.3357
 21
-170.576
  0
LINE
  8
0
 10
-11.3357
 20
-170.576
 11
-11.7533
 21
-170.301
  0
LINE
  8
0
 10
-11.7533
 20
-170.301
 11
-12.1567
 21
-170.007
  0
LINE
  8
0
 10
-12.1567
 20
-170.007
 11
-12.5452
 21
-169.692
  0
LINE
  8
0
 10
-12.5452
 20
-169.692
 11
-12.7601
 21
-169.5
  0
LINE
  8
0
 10
-12.7601
 20
-169.5
 11
-18.875
 21
-169.5
  0
LINE
  8
0
 10
-18.875
 20
-169.5
 11
-18.875
 21
-169
  0
LINE
  8
0
 10
-18.875
 20
-169
 11
-19
 21
-169
  0
LINE
  8
0
 10
-19
 20
-169
 11
-19
 21
-155
  0
LINE
  8
0
 10
-19
 20
-155
 11
-18.875
 21
-155
  0
LINE
  8
0
 10
-18.875
 20
-155
 11
-18.875
 21
-154.5
  0
LINE
  8
0
 10
-18.875
 20
-154.5
 11
-12.7601
 21
-154.5
  0
LINE
  8
0
 10
-12.7601
 20
-154.5
 11
-12.5452
 21
-154.308
  0
LINE
  8
0
 10
-12.5452
 20
-154.308
 11
-12.1567
 21
-153.993
  0
LINE
  8
0
 10
-12.1567
 20
-153.993
 11
-11.7533
 21
-153.699
  0
LINE
  8
0
 10
-11.7533
 20
-153.699
 11
-11.3357
 21
-153.424
  0
LINE
  8
0
 10
-11.3357
 20
-153.424
 11
-10.9051
 21
-153.171
  0
LINE
  8
0
 10
-10.9051
 20
-153.171
 11
-10.4624
 21
-152.939
  0
LINE
  8
0
 10
-10.4624
 20
-152.939
 11
-10.0089
 21
-152.73
  0
LINE
  8
0
 10
-10.0089
 20
-152.73
 11
-9.54553
 21
-152.543
  0
LINE
  8
0
 10
-9.54553
 20
-152.543
 11
-9.0735
 21
-152.379
  0
LINE
  8
0
 10
-9.0735
 20
-152.379
 11
-8.59395
 21
-152.239
  0
LINE
  8
0
 10
-8.59395
 20
-152.239
 11
-8.10805
 21
-152.122
  0
LINE
  8
0
 10
-8.10805
 20
-152.122
 11
-7.61699
 21
-152.03
  0
LINE
  8
0
 10
-7.61699
 20
-152.03
 11
-7.12196
 21
-151.963
  0
LINE
  8
0
 10
-7.12196
 20
-151.963
 11
-6.62421
 21
-151.919
  0
LINE
  8
0
 10
-6.62421
 20
-151.919
 11
-6.12491
 21
-151.901
  0
LINE
  8
0
 10
-6.12491
 20
-151.901
 11
-5.62532
 21
-151.907
  0
LINE
  8
0
 10
-5.62532
 20
-151.907
 11
-5.12663
 21
-151.938
  0
LINE
  8
0
 10
-5.12663
 20
-151.938
 11
-4.6301
 21
-151.993
  0
LINE
  8
0
 10
-4.6301
 20
-151.993
 11
-4.1369
 21
-152.073
  0
LINE
  8
0
 10
-4.1369
 20
-152.073
 11
-3.64827
 21
-152.178
  0
LINE
  8
0
 10
-3.64827
 20
-152.178
 11
-3.38672
 21
-152.247
  0
LINE
  8
0
 10
-3.38672
 20
-152.247
 11
-3.67128
 21
-153.309
  0
LINE
  8
0
 10
-3.67128
 20
-153.309
 11
-3.79062
 21
-153.275
  0
LINE
  8
0
 10
-3.79062
 20
-153.275
 11
-4.2746
 21
-153.167
  0
LINE
  8
0
 10
-4.2746
 20
-153.167
 11
-4.76381
 21
-153.085
  0
LINE
  8
0
 10
-4.76381
 20
-153.085
 11
-5.25677
 21
-153.031
  0
LINE
  8
0
 10
-5.25677
 20
-153.031
 11
-5.752
 21
-153.003
  0
LINE
  8
0
 10
-5.752
 20
-153.003
 11
-6.24799
 21
-153.003
  0
LINE
  8
0
 10
-6.24799
 20
-153.003
 11
-6.74321
 21
-153.031
  0
LINE
  8
0
 10
-6.74321
 20
-153.031
 11
-7.23618
 21
-153.085
  0
LINE
  8
0
 10
-7.23618
 20
-153.085
 11
-7.72539
 21
-153.167
  0
LINE
  8
0
 10
-7.72539
 20
-153.167
 11
-8.20937
 21
-153.275
  0
LINE
  8
0
 10
-8.20937
 20
-153.275
 11
-8.68663
 21
-153.41
  0
LINE
  8
0
 10
-8.68663
 20
-153.41
 11
-9.15573
 21
-153.571
  0
LINE
  8
0
 10
-9.15573
 20
-153.571
 11
-9.61525
 21
-153.758
  0
LINE
  8
0
 10
-9.61525
 20
-153.758
 11
-10.0638
 21
-153.97
  0
LINE
  8
0
 10
-10.0638
 20
-153.97
 11
-10.5
 21
-154.206
  0
LINE
  8
0
 10
-10.5
 20
-154.206
 11
-10.9225
 21
-154.465
  0
LINE
  8
0
 10
-10.9225
 20
-154.465
 11
-11.3301
 21
-154.748
  0
LINE
  8
0
 10
-11.3301
 20
-154.748
 11
-11.7215
 21
-155.053
  0
LINE
  8
0
 10
-11.7215
 20
-155.053
 11
-12.0955
 21
-155.378
  0
LINE
  8
0
 10
-12.0955
 20
-155.378
 11
-12.451
 21
-155.724
  0
LINE
  8
0
 10
-12.451
 20
-155.724
 11
-12.5
 21
-155.778
  0
LINE
  8
0
 10
-12.5
 20
-155.778
 11
-12.5
 21
-157
  0
LINE
  8
0
 10
-12.5
 20
-157
 11
-16.5
 21
-157
  0
LINE
  8
0
 10
-16.5
 20
-157
 11
-16.5
 21
-155.5
  0
LINE
  8
0
 10
-16.5
 20
-155.5
 11
-18
 21
-155.5
  0
LINE
  8
0
 10
-18
 20
-155.5
 11
-18
 21
-160.75
  0
LINE
  8
0
 10
-18
 20
-160.75
 11
-10.8404
 21
-160.75
  0
LINE
  8
0
 10
-10.8404
 20
-160.75
 11
-10.6985
 21
-160.29
  0
LINE
  8
0
 10
-10.6985
 20
-160.29
 11
-10.5048
 21
-159.831
  0
LINE
  8
0
 10
-10.5048
 20
-159.831
 11
-10.2664
 21
-159.393
  0
LINE
  8
0
 10
-10.2664
 20
-159.393
 11
-9.98566
 21
-158.981
  0
LINE
  8
0
 10
-9.98566
 20
-158.981
 11
-9.66525
 21
-158.599
  0
LINE
  8
0
 10
-9.66525
 20
-158.599
 11
-9.30843
 21
-158.251
  0
LINE
  8
0
 10
-9.30843
 20
-158.251
 11
-8.91872
 21
-157.94
  0
LINE
  8
0
 10
-8.91872
 20
-157.94
 11
-8.5
 21
-157.67
  0
LINE
  8
0
 10
-8.5
 20
-157.67
 11
-8.05643
 21
-157.442
  0
LINE
  8
0
 10
-8.05643
 20
-157.442
 11
-7.59242
 21
-157.26
  0
LINE
  8
0
 10
-7.59242
 20
-157.26
 11
-7.11259
 21
-157.125
  0
LINE
  8
0
 10
-7.11259
 20
-157.125
 11
-6.6217
 21
-157.039
  0
LINE
  8
0
 10
-6.6217
 20
-157.039
 11
-6.12465
 21
-157.002
  0
LINE
  8
0
 10
-6.12465
 20
-157.002
 11
-5.62634
 21
-157.014
  0
LINE
  8
0
 10
-5.62634
 20
-157.014
 11
-5.13176
 21
-157.076
  0
LINE
  8
0
 10
-5.13176
 20
-157.076
 11
-4.6458
 21
-157.187
  0
LINE
  8
0
 10
-4.6458
 20
-157.187
 11
-4.17329
 21
-157.346
  0
LINE
  8
0
 10
-4.17329
 20
-157.346
 11
-3.71893
 21
-157.551
  0
LINE
  8
0
 10
-3.71893
 20
-157.551
 11
-3.28726
 21
-157.8
  0
LINE
  8
0
 10
-3.28726
 20
-157.8
 11
-2.88254
 21
-158.091
  0
LINE
  8
0
 10
-2.88254
 20
-158.091
 11
-2.5088
 21
-158.421
  0
LINE
  8
0
 10
-2.5088
 20
-158.421
 11
-2.16977
 21
-158.786
  0
LINE
  8
0
 10
-2.16977
 20
-158.786
 11
-1.8688
 21
-159.183
  0
LINE
  8
0
 10
-1.8688
 20
-159.183
 11
-1.60889
 21
-159.609
  0
LINE
  8
0
 10
-1.60889
 20
-159.609
 11
-1.39261
 21
-160.058
  0
LINE
  8
0
 10
-1.39261
 20
-160.058
 11
-1.22212
 21
-160.526
  0
LINE
  8
0
 10
-1.22212
 20
-160.526
 11
-1.09914
 21
-161.009
  0
LINE
  8
0
 10
-1.09914
 20
-161.009
 11
-1.02484
 21
-161.502
  0
LINE
  8
0
 10
-1.02484
 20
-161.502
 11
-1
 21
-162
  0
LINE
  8
0
 10
-1
 20
-162
 11
-1.02484
 21
-162.498
  0
LINE
  8
0
 10
-1.02484
 20
-162.498
 11
-1.09914
 21
-162.991
  0
LINE
  8
0
 10
-1.09914
 20
-162.991
 11
-1.22212
 21
-163.474
  0
LINE
  8
0
 10
-1.22212
 20
-163.474
 11
-1.39261
 21
-163.942
  0
LINE
  8
0
 10
-1.39261
 20
-163.942
 11
-1.60889
 21
-164.391
  0
LINE
  8
0
 10
-1.60889
 20
-164.391
 11
-1.8688
 21
-164.817
  0
LINE
  8
0
 10
-1.8688
 20
-164.817
 11
-2.16977
 21
-165.214
  0
LINE
  8
0
 10
-2.16977
 20
-165.214
 11
-2.5088
 21
-165.579
  0
LINE
  8
0
 10
-2.5088
 20
-165.579
 11
-2.88254
 21
-165.909
  0
LINE
  8
0
 10
-2.88254
 20
-165.909
 11
-3.28726
 21
-166.2
  0
LINE
  8
0
 10
-3.28726
 20
-166.2
 11
-3.71893
 21
-166.449
  0
LINE
  8
0
 10
-3.71893
 20
-166.449
 11
-4.17329
 21
-166.654
  0
LINE
  8
0
 10
-4.17329
 20
-166.654
 11
-4.6458
 21
-166.813
  0
LINE
  8
0
 10
-4.6458
 20
-166.813
 11
-5.13176
 21
-166.924
  0
LINE
  8
0
 10
-5.13176
 20
-166.924
 11
-5.62634
 21
-166.986
  0
LINE
  8
0
 10
-5.62634
 20
-166.986
 11
-6.12465
 21
-166.998
  0
LINE
  8
0
 10
-6.12465
 20
-166.998
 11
-6.6217
 21
-166.961
  0
LINE
  8
0
 10
-6.6217
 20
-166.961
 11
-7.11259
 21
-166.875
  0
LINE
  8
0
 10
-7.11259
 20
-166.875
 11
-7.59242
 21
-166.74
  0
LINE
  8
0
 10
-7.59242
 20
-166.74
 11
-8.05643
 21
-166.558
  0
LINE
  8
0
 10
-8.05643
 20
-166.558
 11
-8.49998
 21
-166.33
  0
LINE
  8
0
 10
-8.49998
 20
-166.33
 11
-8.91872
 21
-166.06
  0
LINE
  8
0
 10
-8.91872
 20
-166.06
 11
-9.30843
 21
-165.749
  0
LINE
  8
0
 10
-9.30843
 20
-165.749
 11
-9.66525
 21
-165.401
  0
LINE
  8
0
 10
-9.66525
 20
-165.401
 11
-9.98566
 21
-165.019
  0
LINE
  8
0
 10
-9.98566
 20
-165.019
 11
-10.2664
 21
-164.607
  0
LINE
  8
0
 10
-10.2664
 20
-164.607
 11
-10.5048
 21
-164.169
  0
LINE
  8
0
 10
-10.5048
 20
-164.169
 11
-10.6985
 21
-163.71
  0
LINE
  8
0
 10
-10.6985
 20
-163.71
 11
-10.8404
 21
-163.25
  0
LINE
  8
0
 10
-10.8404
 20
-163.25
 11
-18
 21
-163.25
  0
LINE
  8
0
 10
-18
 20
-163.25
 11
-18
 21
-168.5
  0
LINE
  8
0
 10
-18
 20
-168.5
 11
-16.5
 21
-168.5
  0
LINE
  8
0
 10
-16.5
 20
-168.5
 11
-16.5
 21
-167
  0
LINE
  8
0
 10
-16.5
 20
-167
 11
-12.5
 21
-167
  0
LINE
  8
0
 10
-12.5
 20
-167
 11
-12.5
 21
-168.222
  0
LINE
  8
0
 10
-12.5
 20
-168.222
 11
-12.451
 21
-168.276
  0
LINE
  8
0
 10
-12.451
 20
-168.276
 11
-12.0955
 21
-168.622
  0
LINE
  8
0
 10
-12.0955
 20
-168.622
 11
-11.7215
 21
-168.947
  0
LINE
  8
0
 10
-11.7215
 20
-168.947
 11
-11.3301
 21
-169.252
  0
LINE
  8
0
 10
-11.3301
 20
-169.252
 11
-10.9225
 21
-169.535
  0
LINE
  8
0
 10
-10.9225
 20
-169.535
 11
-10.5
 21
-169.794
  0
LINE
  8
0
 10
-10.5
 20
-169.794
 11
-10.0638
 21
-170.03
  0
LINE
  8
0
 10
-10.0638
 20
-170.03
 11
-9.61525
 21
-170.242
  0
LINE
  8
0
 10
-9.61525
 20
-170.242
 11
-9.15573
 21
-170.429
  0
LINE
  8
0
 10
-9.15573
 20
-170.429
 11
-8.68663
 21
-170.59
  0
LINE
  8
0
 10
-8.68663
 20
-170.59
 11
-8.20937
 21
-170.725
  0
LINE
  8
0
 10
-8.20937
 20
-170.725
 11
-7.72539
 21
-170.833
  0
LINE
  8
0
 10
-7.72539
 20
-170.833
 11
-7.23618
 21
-170.915
  0
LINE
  8
0
 10
-7.23618
 20
-170.915
 11
-6.74321
 21
-170.969
  0
LINE
  8
0
 10
-6.74321
 20
-170.969
 11
-6.24799
 21
-170.997
  0
LINE
  8
0
 10
-6.24799
 20
-170.997
 11
-5.752
 21
-170.997
  0
LINE
  8
0
 10
-5.752
 20
-170.997
 11
-5.25677
 21
-170.969
  0
LINE
  8
0
 10
-5.25677
 20
-170.969
 11
-4.76381
 21
-170.915
  0
LINE
  8
0
 10
-4.76381
 20
-170.915
 11
-4.2746
 21
-170.833
  0
LINE
  8
0
 10
-4.2746
 20
-170.833
 11
-3.79062
 21
-170.725
  0
LINE
  8
0
 10
-3.79062
 20
-170.725
 11
-3.67128
 21
-170.691
  0
LINE
  8
0
 10
-3.67128
 20
-170.691
 11
-3.38672
 21
-171.753
  0
LINE
  8
0
 10
-3.38672
 20
-171.753
 11
-3.64827
 21
-171.822
  0
LINE
  8
0
 10
-3.64827
 20
-171.822
 11
-4.1369
 21
-171.927
  0
LINE
  8
0
 10
-4.1369
 20
-171.927
 11
-4.6301
 21
-172.007
  0
LINE
  8
0
 10
-4.6301
 20
-172.007
 11
-5.12663
 21
-172.062
  0
LINE
  8
0
 10
-5.12663
 20
-172.062
 11
-5.62532
 21
-172.093
  0
LINE
  8
0
 10
-5.62532
 20
-172.093
 11
-6.12491
 21
-172.099
  0
LINE
  8
0
 10
-6.12491
 20
-172.099
 11
-6.62421
 21
-172.081
  0
LINE
  8
0
 10
-35.7451
 20
-182.283
 11
-36.2171
 21
-182.151
  0
LINE
  8
0
 10
-36.2171
 20
-182.151
 11
-36.636
 21
-181.896
  0
LINE
  8
0
 10
-36.636
 20
-181.896
 11
-38.636
 21
-179.896
  0
LINE
  8
0
 10
-38.636
 20
-179.896
 11
-38.9705
 21
-179.538
  0
LINE
  8
0
 10
-38.9705
 20
-179.538
 11
-39.1961
 21
-179.103
  0
LINE
  8
0
 10
-39.1961
 20
-179.103
 11
-39.2958
 21
-178.623
  0
LINE
  8
0
 10
-39.2958
 20
-178.623
 11
-39.2623
 21
-178.134
  0
LINE
  8
0
 10
-39.2623
 20
-178.134
 11
-39.0982
 21
-177.672
  0
LINE
  8
0
 10
-39.0982
 20
-177.672
 11
-38.8155
 21
-177.271
  0
LINE
  8
0
 10
-38.8155
 20
-177.271
 11
-38.4352
 21
-176.962
  0
LINE
  8
0
 10
-38.4352
 20
-176.962
 11
-37.9856
 21
-176.767
  0
LINE
  8
0
 10
-37.9856
 20
-176.767
 11
-37.5
 21
-176.7
  0
LINE
  8
0
 10
-37.5
 20
-176.7
 11
-37.0144
 21
-176.767
  0
LINE
  8
0
 10
-37.0144
 20
-176.767
 11
-36.5647
 21
-176.962
  0
LINE
  8
0
 10
-36.5647
 20
-176.962
 11
-36.1845
 21
-177.271
  0
LINE
  8
0
 10
-36.1845
 20
-177.271
 11
-34.1845
 21
-179.271
  0
LINE
  8
0
 10
-34.1845
 20
-179.271
 11
-33.9018
 21
-179.672
  0
LINE
  8
0
 10
-33.9018
 20
-179.672
 11
-33.7376
 21
-180.134
  0
LINE
  8
0
 10
-33.7376
 20
-180.134
 11
-33.7042
 21
-180.623
  0
LINE
  8
0
 10
-33.7042
 20
-180.623
 11
-33.8039
 21
-181.103
  0
LINE
  8
0
 10
-33.8039
 20
-181.103
 11
-34.0294
 21
-181.538
  0
LINE
  8
0
 10
-34.0294
 20
-181.538
 11
-34.364
 21
-181.896
  0
LINE
  8
0
 10
-34.364
 20
-181.896
 11
-34.7829
 21
-182.151
  0
LINE
  8
0
 10
-34.7829
 20
-182.151
 11
-35.2549
 21
-182.283
  0
LINE
  8
0
 10
-35.2549
 20
-182.283
 11
-35.7451
 21
-182.283
  0
LINE
  8
0
 10
-7.10278
 20
-182.196
 11
-7.53802
 21
-181.971
  0
LINE
  8
0
 10
-7.53802
 20
-181.971
 11
-7.89627
 21
-181.636
  0
LINE
  8
0
 10
-7.89627
 20
-181.636
 11
-8.15097
 21
-181.217
  0
LINE
  8
0
 10
-8.15097
 20
-181.217
 11
-8.28323
 21
-180.745
  0
LINE
  8
0
 10
-8.28323
 20
-180.745
 11
-8.28323
 21
-180.255
  0
LINE
  8
0
 10
-8.28323
 20
-180.255
 11
-8.15097
 21
-179.783
  0
LINE
  8
0
 10
-8.15097
 20
-179.783
 11
-7.89627
 21
-179.364
  0
LINE
  8
0
 10
-7.89627
 20
-179.364
 11
-5.89627
 21
-177.364
  0
LINE
  8
0
 10
-5.89627
 20
-177.364
 11
-5.53802
 21
-177.029
  0
LINE
  8
0
 10
-5.53802
 20
-177.029
 11
-5.10278
 21
-176.804
  0
LINE
  8
0
 10
-5.10278
 20
-176.804
 11
-4.62283
 21
-176.704
  0
LINE
  8
0
 10
-4.62283
 20
-176.704
 11
-4.13377
 21
-176.738
  0
LINE
  8
0
 10
-4.13377
 20
-176.738
 11
-3.67188
 21
-176.902
  0
LINE
  8
0
 10
-3.67188
 20
-176.902
 11
-3.27139
 21
-177.184
  0
LINE
  8
0
 10
-3.27139
 20
-177.184
 11
-2.96204
 21
-177.565
  0
LINE
  8
0
 10
-2.96204
 20
-177.565
 11
-2.76674
 21
-178.014
  0
LINE
  8
0
 10
-2.76674
 20
-178.014
 11
-2.7
 21
-178.5
  0
LINE
  8
0
 10
-2.7
 20
-178.5
 11
-2.76674
 21
-178.986
  0
LINE
  8
0
 10
-2.76674
 20
-178.986
 11
-2.96204
 21
-179.435
  0
LINE
  8
0
 10
-2.96204
 20
-179.435
 11
-3.27139
 21
-179.816
  0
LINE
  8
0
 10
-3.27139
 20
-179.816
 11
-5.27139
 21
-181.816
  0
LINE
  8
0
 10
-5.27139
 20
-181.816
 11
-5.67188
 21
-182.098
  0
LINE
  8
0
 10
-5.67188
 20
-182.098
 11
-6.13377
 21
-182.262
  0
LINE
  8
0
 10
-6.13377
 20
-182.262
 11
-6.62283
 21
-182.296
  0
LINE
  8
0
 10
-6.62283
 20
-182.296
 11
-7.10278
 21
-182.196
  0
LINE
  8
0
 10
-21.6239
 20
-206.984
 11
-22.1218
 21
-206.947
  0
LINE
  8
0
 10
-22.1218
 20
-206.947
 11
-22.6179
 21
-206.89
  0
LINE
  8
0
 10
-22.6179
 20
-206.89
 11
-23.1111
 21
-206.813
  0
LINE
  8
0
 10
-23.1111
 20
-206.813
 11
-23.6006
 21
-206.715
  0
LINE
  8
0
 10
-23.6006
 20
-206.715
 11
-24.0857
 21
-206.596
  0
LINE
  8
0
 10
-24.0857
 20
-206.596
 11
-24.5654
 21
-206.458
  0
LINE
  8
0
 10
-24.5654
 20
-206.458
 11
-25.039
 21
-206.3
  0
LINE
  8
0
 10
-25.039
 20
-206.3
 11
-25.5056
 21
-206.122
  0
LINE
  8
0
 10
-25.5056
 20
-206.122
 11
-25.9643
 21
-205.925
  0
LINE
  8
0
 10
-25.9643
 20
-205.925
 11
-26.4145
 21
-205.709
  0
LINE
  8
0
 10
-26.4145
 20
-205.709
 11
-26.8553
 21
-205.475
  0
LINE
  8
0
 10
-26.8553
 20
-205.475
 11
-27.2859
 21
-205.222
  0
LINE
  8
0
 10
-27.2859
 20
-205.222
 11
-27.7057
 21
-204.952
  0
LINE
  8
0
 10
-27.7057
 20
-204.952
 11
-28.1139
 21
-204.664
  0
LINE
  8
0
 10
-28.1139
 20
-204.664
 11
-28.5097
 21
-204.36
  0
LINE
  8
0
 10
-28.5097
 20
-204.36
 11
-28.8926
 21
-204.039
  0
LINE
  8
0
 10
-28.8926
 20
-204.039
 11
-29.2618
 21
-203.703
  0
LINE
  8
0
 10
-29.2618
 20
-203.703
 11
-29.6166
 21
-203.352
  0
LINE
  8
0
 10
-29.6166
 20
-203.352
 11
-29.9566
 21
-202.986
  0
LINE
  8
0
 10
-29.9566
 20
-202.986
 11
-30.2811
 21
-202.607
  0
LINE
  8
0
 10
-30.2811
 20
-202.607
 11
-30.5895
 21
-202.214
  0
LINE
  8
0
 10
-30.5895
 20
-202.214
 11
-30.8813
 21
-201.809
  0
LINE
  8
0
 10
-30.8813
 20
-201.809
 11
-31.1559
 21
-201.392
  0
LINE
  8
0
 10
-31.1559
 20
-201.392
 11
-31.413
 21
-200.964
  0
LINE
  8
0
 10
-31.413
 20
-200.964
 11
-31.6521
 21
-200.526
  0
LINE
  8
0
 10
-31.6521
 20
-200.526
 11
-31.8728
 21
-200.078
  0
LINE
  8
0
 10
-31.8728
 20
-200.078
 11
-32.0746
 21
-199.621
  0
LINE
  8
0
 10
-32.0746
 20
-199.621
 11
-32.2572
 21
-199.156
  0
LINE
  8
0
 10
-32.2572
 20
-199.156
 11
-32.4204
 21
-198.684
  0
LINE
  8
0
 10
-32.4204
 20
-198.684
 11
-32.5638
 21
-198.206
  0
LINE
  8
0
 10
-32.5638
 20
-198.206
 11
-32.6871
 21
-197.722
  0
LINE
  8
0
 10
-32.6871
 20
-197.722
 11
-32.7902
 21
-197.234
  0
LINE
  8
0
 10
-32.7902
 20
-197.234
 11
-32.873
 21
-196.741
  0
LINE
  8
0
 10
-32.873
 20
-196.741
 11
-32.9351
 21
-196.246
  0
LINE
  8
0
 10
-32.9351
 20
-196.246
 11
-32.9766
 21
-195.749
  0
LINE
  8
0
 10
-32.9766
 20
-195.749
 11
-32.9974
 21
-195.25
  0
LINE
  8
0
 10
-32.9974
 20
-195.25
 11
-32.9974
 21
-194.75
  0
LINE
  8
0
 10
-32.9974
 20
-194.75
 11
-32.9766
 21
-194.251
  0
LINE
  8
0
 10
-32.9766
 20
-194.251
 11
-32.9351
 21
-193.754
  0
LINE
  8
0
 10
-32.9351
 20
-193.754
 11
-32.873
 21
-193.259
  0
LINE
  8
0
 10
-32.873
 20
-193.259
 11
-32.7902
 21
-192.766
  0
LINE
  8
0
 10
-32.7902
 20
-192.766
 11
-32.6871
 21
-192.278
  0
LINE
  8
0
 10
-32.6871
 20
-192.278
 11
-32.5638
 21
-191.794
  0
LINE
  8
0
 10
-32.5638
 20
-191.794
 11
-32.4204
 21
-191.316
  0
LINE
  8
0
 10
-32.4204
 20
-191.316
 11
-32.2572
 21
-190.844
  0
LINE
  8
0
 10
-32.2572
 20
-190.844
 11
-32.0746
 21
-190.379
  0
LINE
  8
0
 10
-32.0746
 20
-190.379
 11
-31.8728
 21
-189.922
  0
LINE
  8
0
 10
-31.8728
 20
-189.922
 11
-31.6521
 21
-189.474
  0
LINE
  8
0
 10
-31.6521
 20
-189.474
 11
-31.413
 21
-189.036
  0
LINE
  8
0
 10
-31.413
 20
-189.036
 11
-31.1559
 21
-188.608
  0
LINE
  8
0
 10
-31.1559
 20
-188.608
 11
-30.8813
 21
-188.191
  0
LINE
  8
0
 10
-30.8813
 20
-188.191
 11
-30.5895
 21
-187.786
  0
LINE
  8
0
 10
-30.5895
 20
-187.786
 11
-30.2811
 21
-187.393
  0
LINE
  8
0
 10
-30.2811
 20
-187.393
 11
-29.9566
 21
-187.014
  0
LINE
  8
0
 10
-29.9566
 20
-187.014
 11
-29.6166
 21
-186.648
  0
LINE
  8
0
 10
-29.6166
 20
-186.648
 11
-29.2618
 21
-186.297
  0
LINE
  8
0
 10
-29.2618
 20
-186.297
 11
-28.8926
 21
-185.961
  0
LINE
  8
0
 10
-28.8926
 20
-185.961
 11
-28.5097
 21
-185.64
  0
LINE
  8
0
 10
-28.5097
 20
-185.64
 11
-28.1139
 21
-185.336
  0
LINE
  8
0
 10
-28.1139
 20
-185.336
 11
-27.7057
 21
-185.048
  0
LINE
  8
0
 10
-27.7057
 20
-185.048
 11
-27.2859
 21
-184.778
  0
LINE
  8
0
 10
-27.2859
 20
-184.778
 11
-26.8553
 21
-184.525
  0
LINE
  8
0
 10
-26.8553
 20
-184.525
 11
-26.4145
 21
-184.291
  0
LINE
  8
0
 10
-26.4145
 20
-184.291
 11
-25.9643
 21
-184.075
  0
LINE
  8
0
 10
-25.9643
 20
-184.075
 11
-25.5056
 21
-183.878
  0
LINE
  8
0
 10
-25.5056
 20
-183.878
 11
-25.039
 21
-183.7
  0
LINE
  8
0
 10
-25.039
 20
-183.7
 11
-24.5654
 21
-183.542
  0
LINE
  8
0
 10
-24.5654
 20
-183.542
 11
-24.0857
 21
-183.404
  0
LINE
  8
0
 10
-24.0857
 20
-183.404
 11
-23.6006
 21
-183.285
  0
LINE
  8
0
 10
-23.6006
 20
-183.285
 11
-23.1111
 21
-183.187
  0
LINE
  8
0
 10
-23.1111
 20
-183.187
 11
-22.6179
 21
-183.11
  0
LINE
  8
0
 10
-22.6179
 20
-183.11
 11
-22.1218
 21
-183.053
  0
LINE
  8
0
 10
-22.1218
 20
-183.053
 11
-21.6239
 21
-183.016
  0
LINE
  8
0
 10
-21.6239
 20
-183.016
 11
-21.1248
 21
-183.001
  0
LINE
  8
0
 10
-21.1248
 20
-183.001
 11
-20.6256
 21
-183.006
  0
LINE
  8
0
 10
-20.6256
 20
-183.006
 11
-20.127
 21
-183.032
  0
LINE
  8
0
 10
-20.127
 20
-183.032
 11
-19.6298
 21
-183.078
  0
LINE
  8
0
 10
-19.6298
 20
-183.078
 11
-19.1351
 21
-183.146
  0
LINE
  8
0
 10
-19.1351
 20
-183.146
 11
-18.6436
 21
-183.234
  0
LINE
  8
0
 10
-18.6436
 20
-183.234
 11
-18.1562
 21
-183.342
  0
LINE
  8
0
 10
-18.1562
 20
-183.342
 11
-17.6737
 21
-183.47
  0
LINE
  8
0
 10
-17.6737
 20
-183.47
 11
-17.1969
 21
-183.619
  0
LINE
  8
0
 10
-17.1969
 20
-183.619
 11
-16.7268
 21
-183.787
  0
LINE
  8
0
 10
-16.7268
 20
-183.787
 11
-16.264
 21
-183.974
  0
LINE
  8
0
 10
-16.264
 20
-183.974
 11
-15.8095
 21
-184.181
  0
LINE
  8
0
 10
-15.8095
 20
-184.181
 11
-15.3639
 21
-184.406
  0
LINE
  8
0
 10
-15.3639
 20
-184.406
 11
-14.9281
 21
-184.65
  0
LINE
  8
0
 10
-14.9281
 20
-184.65
 11
-14.5028
 21
-184.911
  0
LINE
  8
0
 10
-14.5028
 20
-184.911
 11
-14.0887
 21
-185.19
  0
LINE
  8
0
 10
-14.0887
 20
-185.19
 11
-13.6866
 21
-185.486
  0
LINE
  8
0
 10
-13.6866
 20
-185.486
 11
-13.2972
 21
-185.799
  0
LINE
  8
0
 10
-13.2972
 20
-185.799
 11
-12.9211
 21
-186.127
  0
LINE
  8
0
 10
-12.9211
 20
-186.127
 11
-12.559
 21
-186.471
  0
LINE
  8
0
 10
-12.559
 20
-186.471
 11
-12.2115
 21
-186.829
  0
LINE
  8
0
 10
-12.2115
 20
-186.829
 11
-11.8792
 21
-187.202
  0
LINE
  8
0
 10
-11.8792
 20
-187.202
 11
-11.5627
 21
-187.588
  0
LINE
  8
0
 10
-11.5627
 20
-187.588
 11
-11.2625
 21
-187.987
  0
LINE
  8
0
 10
-11.2625
 20
-187.987
 11
-10.9792
 21
-188.398
  0
LINE
  8
0
 10
-10.9792
 20
-188.398
 11
-10.7133
 21
-188.821
  0
LINE
  8
0
 10
-10.7133
 20
-188.821
 11
-10.4651
 21
-189.254
  0
LINE
  8
0
 10
-10.4651
 20
-189.254
 11
-10.2352
 21
-189.697
  0
LINE
  8
0
 10
-10.2352
 20
-189.697
 11
-10.024
 21
-190.15
  0
LINE
  8
0
 10
-10.024
 20
-190.15
 11
-9.83168
 21
-190.61
  0
LINE
  8
0
 10
-9.83168
 20
-190.61
 11
-9.65875
 21
-191.079
  0
LINE
  8
0
 10
-9.65875
 20
-191.079
 11
-9.50545
 21
-191.554
  0
LINE
  8
0
 10
-9.50545
 20
-191.554
 11
-9.37204
 21
-192.035
  0
LINE
  8
0
 10
-9.37204
 20
-192.035
 11
-9.25877
 21
-192.521
  0
LINE
  8
0
 10
-9.25877
 20
-192.521
 11
-9.16583
 21
-193.012
  0
LINE
  8
0
 10
-9.16583
 20
-193.012
 11
-9.09337
 21
-193.506
  0
LINE
  8
0
 10
-9.09337
 20
-193.506
 11
-9.04152
 21
-194.003
  0
LINE
  8
0
 10
-9.04152
 20
-194.003
 11
-9.01038
 21
-194.501
  0
LINE
  8
0
 10
-9.01038
 20
-194.501
 11
-9
 21
-195
  0
LINE
  8
0
 10
-9
 20
-195
 11
-9.01038
 21
-195.499
  0
LINE
  8
0
 10
-9.01038
 20
-195.499
 11
-9.04152
 21
-195.997
  0
LINE
  8
0
 10
-9.04152
 20
-195.997
 11
-9.09337
 21
-196.494
  0
LINE
  8
0
 10
-9.09337
 20
-196.494
 11
-9.16583
 21
-196.988
  0
LINE
  8
0
 10
-9.16583
 20
-196.988
 11
-9.25877
 21
-197.479
  0
LINE
  8
0
 10
-9.25877
 20
-197.479
 11
-9.37204
 21
-197.965
  0
LINE
  8
0
 10
-9.37204
 20
-197.965
 11
-9.50545
 21
-198.446
  0
LINE
  8
0
 10
-9.50545
 20
-198.446
 11
-9.65875
 21
-198.921
  0
LINE
  8
0
 10
-9.65875
 20
-198.921
 11
-9.83168
 21
-199.39
  0
LINE
  8
0
 10
-9.83168
 20
-199.39
 11
-10.024
 21
-199.85
  0
LINE
  8
0
 10
-10.024
 20
-199.85
 11
-10.2352
 21
-200.303
  0
LINE
  8
0
 10
-10.2352
 20
-200.303
 11
-10.4651
 21
-200.746
  0
LINE
  8
0
 10
-10.4651
 20
-200.746
 11
-10.7133
 21
-201.179
  0
LINE
  8
0
 10
-10.7133
 20
-201.179
 11
-10.9792
 21
-201.602
  0
LINE
  8
0
 10
-10.9792
 20
-201.602
 11
-11.2625
 21
-202.013
  0
LINE
  8
0
 10
-11.2625
 20
-202.013
 11
-11.5627
 21
-202.412
  0
LINE
  8
0
 10
-11.5627
 20
-202.412
 11
-11.8792
 21
-202.798
  0
LINE
  8
0
 10
-11.8792
 20
-202.798
 11
-12.2115
 21
-203.171
  0
LINE
  8
0
 10
-12.2115
 20
-203.171
 11
-12.559
 21
-203.529
  0
LINE
  8
0
 10
-12.559
 20
-203.529
 11
-12.9211
 21
-203.873
  0
LINE
  8
0
 10
-12.9211
 20
-203.873
 11
-13.2972
 21
-204.201
  0
LINE
  8
0
 10
-13.2972
 20
-204.201
 11
-13.6866
 21
-204.514
  0
LINE
  8
0
 10
-13.6866
 20
-204.514
 11
-14.0887
 21
-204.81
  0
LINE
  8
0
 10
-14.0887
 20
-204.81
 11
-14.5028
 21
-205.089
  0
LINE
  8
0
 10
-14.5028
 20
-205.089
 11
-14.9281
 21
-205.35
  0
LINE
  8
0
 10
-14.9281
 20
-205.35
 11
-15.3639
 21
-205.594
  0
LINE
  8
0
 10
-15.3639
 20
-205.594
 11
-15.8095
 21
-205.819
  0
LINE
  8
0
 10
-15.8095
 20
-205.819
 11
-16.264
 21
-206.026
  0
LINE
  8
0
 10
-16.264
 20
-206.026
 11
-16.7268
 21
-206.213
  0
LINE
  8
0
 10
-16.7268
 20
-206.213
 11
-17.1969
 21
-206.381
  0
LINE
  8
0
 10
-17.1969
 20
-206.381
 11
-17.6737
 21
-206.53
  0
LINE
  8
0
 10
-17.6737
 20
-206.53
 11
-18.1562
 21
-206.658
  0
LINE
  8
0
 10
-18.1562
 20
-206.658
 11
-18.6436
 21
-206.766
  0
LINE
  8
0
 10
-18.6436
 20
-206.766
 11
-19.1351
 21
-206.854
  0
LINE
  8
0
 10
-19.1351
 20
-206.854
 11
-19.6298
 21
-206.922
  0
LINE
  8
0
 10
-19.6298
 20
-206.922
 11
-20.127
 21
-206.968
  0
LINE
  8
0
 10
-20.127
 20
-206.968
 11
-20.6256
 21
-206.994
  0
LINE
  8
0
 10
-20.6256
 20
-206.994
 11
-21.1248
 21
-206.999
  0
LINE
  8
0
 10
-21.1248
 20
-206.999
 11
-21.6239
 21
-206.984
  0
LINE
  8
0
 10
-37.8662
 20
-213.262
 11
-38.3281
 21
-213.098
  0
LINE
  8
0
 10
-38.3281
 20
-213.098
 11
-38.7286
 21
-212.816
  0
LINE
  8
0
 10
-38.7286
 20
-212.816
 11
-39.0379
 21
-212.435
  0
LINE
  8
0
 10
-39.0379
 20
-212.435
 11
-39.2332
 21
-211.986
  0
LINE
  8
0
 10
-39.2332
 20
-211.986
 11
-39.3
 21
-211.5
  0
LINE
  8
0
 10
-39.3
 20
-211.5
 11
-39.2332
 21
-211.014
  0
LINE
  8
0
 10
-39.2332
 20
-211.014
 11
-39.0379
 21
-210.565
  0
LINE
  8
0
 10
-39.0379
 20
-210.565
 11
-38.7286
 21
-210.184
  0
LINE
  8
0
 10
-38.7286
 20
-210.184
 11
-36.7286
 21
-208.184
  0
LINE
  8
0
 10
-36.7286
 20
-208.184
 11
-36.3281
 21
-207.902
  0
LINE
  8
0
 10
-36.3281
 20
-207.902
 11
-35.8662
 21
-207.738
  0
LINE
  8
0
 10
-35.8662
 20
-207.738
 11
-35.3772
 21
-207.704
  0
LINE
  8
0
 10
-35.3772
 20
-207.704
 11
-34.8972
 21
-207.804
  0
LINE
  8
0
 10
-34.8972
 20
-207.804
 11
-34.462
 21
-208.029
  0
LINE
  8
0
 10
-34.462
 20
-208.029
 11
-34.1037
 21
-208.364
  0
LINE
  8
0
 10
-34.1037
 20
-208.364
 11
-33.849
 21
-208.783
  0
LINE
  8
0
 10
-33.849
 20
-208.783
 11
-33.7168
 21
-209.255
  0
LINE
  8
0
 10
-33.7168
 20
-209.255
 11
-33.7168
 21
-209.745
  0
LINE
  8
0
 10
-33.7168
 20
-209.745
 11
-33.849
 21
-210.217
  0
LINE
  8
0
 10
-33.849
 20
-210.217
 11
-34.1037
 21
-210.636
  0
LINE
  8
0
 10
-34.1037
 20
-210.636
 11
-36.1037
 21
-212.636
  0
LINE
  8
0
 10
-36.1037
 20
-212.636
 11
-36.462
 21
-212.971
  0
LINE
  8
0
 10
-36.462
 20
-212.971
 11
-36.8972
 21
-213.196
  0
LINE
  8
0
 10
-36.8972
 20
-213.196
 11
-37.3772
 21
-213.296
  0
LINE
  8
0
 10
-37.3772
 20
-213.296
 11
-37.8662
 21
-213.262
  0
LINE
  8
0
 10
-4.98563
 20
-213.233
 11
-5.43524
 21
-213.038
  0
LINE
  8
0
 10
-5.43524
 20
-213.038
 11
-5.81549
 21
-212.729
  0
LINE
  8
0
 10
-5.81549
 20
-212.729
 11
-7.81549
 21
-210.729
  0
LINE
  8
0
 10
-7.81549
 20
-210.729
 11
-8.09819
 21
-210.328
  0
LINE
  8
0
 10
-8.09819
 20
-210.328
 11
-8.26234
 21
-209.866
  0
LINE
  8
0
 10
-8.26234
 20
-209.866
 11
-8.29579
 21
-209.377
  0
LINE
  8
0
 10
-8.29579
 20
-209.377
 11
-8.19606
 21
-208.897
  0
LINE
  8
0
 10
-8.19606
 20
-208.897
 11
-7.97054
 21
-208.462
  0
LINE
  8
0
 10
-7.97054
 20
-208.462
 11
-7.63596
 21
-208.104
  0
LINE
  8
0
 10
-7.63596
 20
-208.104
 11
-7.21712
 21
-207.849
  0
LINE
  8
0
 10
-7.21712
 20
-207.849
 11
-6.74509
 21
-207.717
  0
LINE
  8
0
 10
-6.74509
 20
-207.717
 11
-6.2549
 21
-207.717
  0
LINE
  8
0
 10
-6.2549
 20
-207.717
 11
-5.78287
 21
-207.849
  0
LINE
  8
0
 10
-5.78287
 20
-207.849
 11
-5.36403
 21
-208.104
  0
LINE
  8
0
 10
-5.36403
 20
-208.104
 11
-3.36403
 21
-210.104
  0
LINE
  8
0
 10
-3.36403
 20
-210.104
 11
-3.02945
 21
-210.462
  0
LINE
  8
0
 10
-3.02945
 20
-210.462
 11
-2.80392
 21
-210.897
  0
LINE
  8
0
 10
-2.80392
 20
-210.897
 11
-2.70419
 21
-211.377
  0
LINE
  8
0
 10
-2.70419
 20
-211.377
 11
-2.73764
 21
-211.866
  0
LINE
  8
0
 10
-2.73764
 20
-211.866
 11
-2.90179
 21
-212.328
  0
LINE
  8
0
 10
-2.90179
 20
-212.328
 11
-3.18449
 21
-212.729
  0
LINE
  8
0
 10
-3.18449
 20
-212.729
 11
-3.56474
 21
-213.038
  0
LINE
  8
0
 10
-3.56474
 20
-213.038
 11
-4.01436
 21
-213.233
  0
LINE
  8
0
 10
-4.01436
 20
-213.233
 11
-4.5
 21
-213.3
  0
LINE
  8
0
 10
-4.5
 20
-213.3
 11
-4.98563
 21
-213.233
  0
LINE
  8
0
 10
-6.62421
 20
-238.081
 11
-7.12196
 21
-238.037
  0
LINE
  8
0
 10
-7.12196
 20
-238.037
 11
-7.61699
 21
-237.97
  0
LINE
  8
0
 10
-7.61699
 20
-237.97
 11
-8.10805
 21
-237.878
  0
LINE
  8
0
 10
-8.10805
 20
-237.878
 11
-8.59395
 21
-237.761
  0
LINE
  8
0
 10
-8.59395
 20
-237.761
 11
-9.0735
 21
-237.621
  0
LINE
  8
0
 10
-9.0735
 20
-237.621
 11
-9.54553
 21
-237.457
  0
LINE
  8
0
 10
-9.54553
 20
-237.457
 11
-10.0089
 21
-237.27
  0
LINE
  8
0
 10
-10.0089
 20
-237.27
 11
-10.4624
 21
-237.061
  0
LINE
  8
0
 10
-10.4624
 20
-237.061
 11
-10.9051
 21
-236.829
  0
LINE
  8
0
 10
-10.9051
 20
-236.829
 11
-11.3357
 21
-236.576
  0
LINE
  8
0
 10
-11.3357
 20
-236.576
 11
-11.7533
 21
-236.301
  0
LINE
  8
0
 10
-11.7533
 20
-236.301
 11
-12.1567
 21
-236.007
  0
LINE
  8
0
 10
-12.1567
 20
-236.007
 11
-12.5452
 21
-235.692
  0
LINE
  8
0
 10
-12.5452
 20
-235.692
 11
-12.7601
 21
-235.5
  0
LINE
  8
0
 10
-12.7601
 20
-235.5
 11
-18.875
 21
-235.5
  0
LINE
  8
0
 10
-18.875
 20
-235.5
 11
-18.875
 21
-235
  0
LINE
  8
0
 10
-18.875
 20
-235
 11
-19
 21
-235
  0
LINE
  8
0
 10
-19
 20
-235
 11
-19
 21
-221
  0
LINE
  8
0
 10
-19
 20
-221
 11
-18.875
 21
-221
  0
LINE
  8
0
 10
-18.875
 20
-221
 11
-18.875
 21
-220.5
  0
LINE
  8
0
 10
-18.875
 20
-220.5
 11
-12.7601
 21
-220.5
  0
LINE
  8
0
 10
-12.7601
 20
-220.5
 11
-12.5452
 21
-220.308
  0
LINE
  8
0
 10
-12.5452
 20
-220.308
 11
-12.1567
 21
-219.993
  0
LINE
  8
0
 10
-12.1567
 20
-219.993
 11
-11.7533
 21
-219.699
  0
LINE
  8
0
 10
-11.7533
 20
-219.699
 11
-11.3357
 21
-219.424
  0
LINE
  8
0
 10
-11.3357
 20
-219.424
 11
-10.9051
 21
-219.171
  0
LINE
  8
0
 10
-10.9051
 20
-219.171
 11
-10.4624
 21
-218.939
  0
LINE
  8
0
 10
-10.4624
 20
-218.939
 11
-10.0089
 21
-218.73
  0
LINE
  8
0
 10
-10.0089
 20
-218.73
 11
-9.54553
 21
-218.543
  0
LINE
  8
0
 10
-9.54553
 20
-218.543
 11
-9.0735
 21
-218.379
  0
LINE
  8
0
 10
-9.0735
 20
-218.379
 11
-8.59395
 21
-218.239
  0
LINE
  8
0
 10
-8.59395
 20
-218.239
 11
-8.10805
 21
-218.122
  0
LINE
  8
0
 10
-8.10805
 20
-218.122
 11
-7.61699
 21
-218.03
  0
LINE
  8
0
 10
-7.61699
 20
-218.03
 11
-7.12196
 21
-217.963
  0
LINE
  8
0
 10
-7.12196
 20
-217.963
 11
-6.62421
 21
-217.919
  0
LINE
  8
0
 10
-6.62421
 20
-217.919
 11
-6.12491
 21
-217.901
  0
LINE
  8
0
 10
-6.12491
 20
-217.901
 11
-5.62532
 21
-217.907
  0
LINE
  8
0
 10
-5.62532
 20
-217.907
 11
-5.12663
 21
-217.938
  0
LINE
  8
0
 10
-5.12663
 20
-217.938
 11
-4.6301
 21
-217.993
  0
LINE
  8
0
 10
-4.6301
 20
-217.993
 11
-4.1369
 21
-218.073
  0
LINE
  8
0
 10
-4.1369
 20
-218.073
 11
-3.64827
 21
-218.178
  0
LINE
  8
0
 10
-3.64827
 20
-218.178
 11
-3.38672
 21
-218.247
  0
LINE
  8
0
 10
-3.38672
 20
-218.247
 11
-3.67128
 21
-219.309
  0
LINE
  8
0
 10
-3.67128
 20
-219.309
 11
-3.79062
 21
-219.275
  0
LINE
  8
0
 10
-3.79062
 20
-219.275
 11
-4.2746
 21
-219.167
  0
LINE
  8
0
 10
-4.2746
 20
-219.167
 11
-4.76381
 21
-219.085
  0
LINE
  8
0
 10
-4.76381
 20
-219.085
 11
-5.25677
 21
-219.031
  0
LINE
  8
0
 10
-5.25677
 20
-219.031
 11
-5.752
 21
-219.003
  0
LINE
  8
0
 10
-5.752
 20
-219.003
 11
-6.24799
 21
-219.003
  0
LINE
  8
0
 10
-6.24799
 20
-219.003
 11
-6.74321
 21
-219.031
  0
LINE
  8
0
 10
-6.74321
 20
-219.031
 11
-7.23618
 21
-219.085
  0
LINE
  8
0
 10
-7.23618
 20
-219.085
 11
-7.72539
 21
-219.167
  0
LINE
  8
0
 10
-7.72539
 20
-219.167
 11
-8.20937
 21
-219.275
  0
LINE
  8
0
 10
-8.20937
 20
-219.275
 11
-8.68663
 21
-219.41
  0
LINE
  8
0
 10
-8.68663
 20
-219.41
 11
-9.15573
 21
-219.571
  0
LINE
  8
0
 10
-9.15573
 20
-219.571
 11
-9.61525
 21
-219.758
  0
LINE
  8
0
 10
-9.61525
 20
-219.758
 11
-10.0638
 21
-219.97
  0
LINE
  8
0
 10
-10.0638
 20
-219.97
 11
-10.5
 21
-220.206
  0
LINE
  8
0
 10
-10.5
 20
-220.206
 11
-10.9225
 21
-220.465
  0
LINE
  8
0
 10
-10.9225
 20
-220.465
 11
-11.3301
 21
-220.748
  0
LINE
  8
0
 10
-11.3301
 20
-220.748
 11
-11.7215
 21
-221.053
  0
LINE
  8
0
 10
-11.7215
 20
-221.053
 11
-12.0955
 21
-221.378
  0
LINE
  8
0
 10
-12.0955
 20
-221.378
 11
-12.451
 21
-221.724
  0
LINE
  8
0
 10
-12.451
 20
-221.724
 11
-12.5
 21
-221.778
  0
LINE
  8
0
 10
-12.5
 20
-221.778
 11
-12.5
 21
-223
  0
LINE
  8
0
 10
-12.5
 20
-223
 11
-16.5
 21
-223
  0
LINE
  8
0
 10
-16.5
 20
-223
 11
-16.5
 21
-221.5
  0
LINE
  8
0
 10
-16.5
 20
-221.5
 11
-18
 21
-221.5
  0
LINE
  8
0
 10
-18
 20
-221.5
 11
-18
 21
-226.75
  0
LINE
  8
0
 10
-18
 20
-226.75
 11
-10.8404
 21
-226.75
  0
LINE
  8
0
 10
-10.8404
 20
-226.75
 11
-10.6985
 21
-226.29
  0
LINE
  8
0
 10
-10.6985
 20
-226.29
 11
-10.5048
 21
-225.831
  0
LINE
  8
0
 10
-10.5048
 20
-225.831
 11
-10.2664
 21
-225.393
  0
LINE
  8
0
 10
-10.2664
 20
-225.393
 11
-9.98566
 21
-224.981
  0
LINE
  8
0
 10
-9.98566
 20
-224.981
 11
-9.66525
 21
-224.599
  0
LINE
  8
0
 10
-9.66525
 20
-224.599
 11
-9.30843
 21
-224.251
  0
LINE
  8
0
 10
-9.30843
 20
-224.251
 11
-8.91872
 21
-223.94
  0
LINE
  8
0
 10
-8.91872
 20
-223.94
 11
-8.5
 21
-223.67
  0
LINE
  8
0
 10
-8.5
 20
-223.67
 11
-8.05643
 21
-223.442
  0
LINE
  8
0
 10
-8.05643
 20
-223.442
 11
-7.59242
 21
-223.26
  0
LINE
  8
0
 10
-7.59242
 20
-223.26
 11
-7.11259
 21
-223.125
  0
LINE
  8
0
 10
-7.11259
 20
-223.125
 11
-6.6217
 21
-223.039
  0
LINE
  8
0
 10
-6.6217
 20
-223.039
 11
-6.12465
 21
-223.002
  0
LINE
  8
0
 10
-6.12465
 20
-223.002
 11
-5.62634
 21
-223.014
  0
LINE
  8
0
 10
-5.62634
 20
-223.014
 11
-5.13176
 21
-223.076
  0
LINE
  8
0
 10
-5.13176
 20
-223.076
 11
-4.6458
 21
-223.187
  0
LINE
  8
0
 10
-4.6458
 20
-223.187
 11
-4.17329
 21
-223.346
  0
LINE
  8
0
 10
-4.17329
 20
-223.346
 11
-3.71893
 21
-223.551
  0
LINE
  8
0
 10
-3.71893
 20
-223.551
 11
-3.28726
 21
-223.8
  0
LINE
  8
0
 10
-3.28726
 20
-223.8
 11
-2.88254
 21
-224.091
  0
LINE
  8
0
 10
-2.88254
 20
-224.091
 11
-2.5088
 21
-224.421
  0
LINE
  8
0
 10
-2.5088
 20
-224.421
 11
-2.16977
 21
-224.786
  0
LINE
  8
0
 10
-2.16977
 20
-224.786
 11
-1.8688
 21
-225.183
  0
LINE
  8
0
 10
-1.8688
 20
-225.183
 11
-1.60889
 21
-225.609
  0
LINE
  8
0
 10
-1.60889
 20
-225.609
 11
-1.39261
 21
-226.058
  0
LINE
  8
0
 10
-1.39261
 20
-226.058
 11
-1.22212
 21
-226.526
  0
LINE
  8
0
 10
-1.22212
 20
-226.526
 11
-1.09914
 21
-227.009
  0
LINE
  8
0
 10
-1.09914
 20
-227.009
 11
-1.02484
 21
-227.502
  0
LINE
  8
0
 10
-1.02484
 20
-227.502
 11
-1
 21
-228
  0
LINE
  8
0
 10
-1
 20
-228
 11
-1.02484
 21
-228.498
  0
LINE
  8
0
 10
-1.02484
 20
-228.498
 11
-1.09914
 21
-228.991
  0
LINE
  8
0
 10
-1.09914
 20
-228.991
 11
-1.22212
 21
-229.474
  0
LINE
  8
0
 10
-1.22212
 20
-229.474
 11
-1.39261
 21
-229.942
  0
LINE
  8
0
 10
-1.39261
 20
-229.942
 11
-1.60889
 21
-230.391
  0
LINE
  8
0
 10
-1.60889
 20
-230.391
 11
-1.8688
 21
-230.817
  0
LINE
  8
0
 10
-1.8688
 20
-230.817
 11
-2.16977
 21
-231.214
  0
LINE
  8
0
 10
-2.16977
 20
-231.214
 11
-2.5088
 21
-231.579
  0
LINE
  8
0
 10
-2.5088
 20
-231.579
 11
-2.88254
 21
-231.909
  0
LINE
  8
0
 10
-2.88254
 20
-231.909
 11
-3.28726
 21
-232.2
  0
LINE
  8
0
 10
-3.28726
 20
-232.2
 11
-3.71893
 21
-232.449
  0
LINE
  8
0
 10
-3.71893
 20
-232.449
 11
-4.17329
 21
-232.654
  0
LINE
  8
0
 10
-4.17329
 20
-232.654
 11
-4.6458
 21
-232.813
  0
LINE
  8
0
 10
-4.6458
 20
-232.813
 11
-5.13176
 21
-232.924
  0
LINE
  8
0
 10
-5.13176
 20
-232.924
 11
-5.62634
 21
-232.986
  0
LINE
  8
0
 10
-5.62634
 20
-232.986
 11
-6.12465
 21
-232.998
  0
LINE
  8
0
 10
-6.12465
 20
-232.998
 11
-6.6217
 21
-232.961
  0
LINE
  8
0
 10
-6.6217
 20
-232.961
 11
-7.11259
 21
-232.875
  0
LINE
  8
0
 10
-7.11259
 20
-232.875
 11
-7.59242
 21
-232.74
  0
LINE
  8
0
 10
-7.59242
 20
-232.74
 11
-8.05643
 21
-232.558
  0
LINE
  8
0
 10
-8.05643
 20
-232.558
 11
-8.49998
 21
-232.33
  0
LINE
  8
0
 10
-8.49998
 20
-232.33
 11
-8.91872
 21
-232.06
  0
LINE
  8
0
 10
-8.91872
 20
-232.06
 11
-9.30843
 21
-231.749
  0
LINE
  8
0
 10
-9.30843
 20
-231.749
 11
-9.66525
 21
-231.401
  0
LINE
  8
0
 10
-9.66525
 20
-231.401
 11
-9.98566
 21
-231.019
  0
LINE
  8
0
 10
-9.98566
 20
-231.019
 11
-10.2664
 21
-230.607
  0
LINE
  8
0
 10
-10.2664
 20
-230.607
 11
-10.5048
 21
-230.169
  0
LINE
  8
0
 10
-10.5048
 20
-230.169
 11
-10.6985
 21
-229.71
  0
LINE
  8
0
 10
-10.6985
 20
-229.71
 11
-10.8404
 21
-229.25
  0
LINE
  8
0
 10
-10.8404
 20
-229.25
 11
-18
 21
-229.25
  0
LINE
  8
0
 10
-18
 20
-229.25
 11
-18
 21
-234.5
  0
LINE
  8
0
 10
-18
 20
-234.5
 11
-16.5
 21
-234.5
  0
LINE
  8
0
 10
-16.5
 20
-234.5
 11
-16.5
 21
-233
  0
LINE
  8
0
 10
-16.5
 20
-233
 11
-12.5
 21
-233
  0
LINE
  8
0
 10
-12.5
 20
-233
 11
-12.5
 21
-234.222
  0
LINE
  8
0
 10
-12.5
 20
-234.222
 11
-12.451
 21
-234.276
  0
LINE
  8
0
 10
-12.451
 20
-234.276
 11
-12.0955
 21
-234.622
  0
LINE
  8
0
 10
-12.0955
 20
-234.622
 11
-11.7215
 21
-234.947
  0
LINE
  8
0
 10
-11.7215
 20
-234.947
 11
-11.3301
 21
-235.252
  0
LINE
  8
0
 10
-11.3301
 20
-235.252
 11
-10.9225
 21
-235.535
  0
LINE
  8
0
 10
-10.9225
 20
-235.535
 11
-10.5
 21
-235.794
  0
LINE
  8
0
 10
-10.5
 20
-235.794
 11
-10.0638
 21
-236.03
  0
LINE
  8
0
 10
-10.0638
 20
-236.03
 11
-9.61525
 21
-236.242
  0
LINE
  8
0
 10
-9.61525
 20
-236.242
 11
-9.15573
 21
-236.429
  0
LINE
  8
0
 10
-9.15573
 20
-236.429
 11
-8.68663
 21
-236.59
  0
LINE
  8
0
 10
-8.68663
 20
-236.59
 11
-8.20937
 21
-236.725
  0
LINE
  8
0
 10
-8.20937
 20
-236.725
 11
-7.72539
 21
-236.833
  0
LINE
  8
0
 10
-7.72539
 20
-236.833
 11
-7.23618
 21
-236.915
  0
LINE
  8
0
 10
-7.23618
 20
-236.915
 11
-6.74321
 21
-236.969
  0
LINE
  8
0
 10
-6.74321
 20
-236.969
 11
-6.24799
 21
-236.997
  0
LINE
  8
0
 10
-6.24799
 20
-236.997
 11
-5.752
 21
-236.997
  0
LINE
  8
0
 10
-5.752
 20
-236.997
 11
-5.25677
 21
-236.969
  0
LINE
  8
0
 10
-5.25677
 20
-236.969
 11
-4.76381
 21
-236.915
  0
LINE
  8
0
 10
-4.76381
 20
-236.915
 11
-4.2746
 21
-236.833
  0
LINE
  8
0
 10
-4.2746
 20
-236.833
 11
-3.79062
 21
-236.725
  0
LINE
  8
0
 10
-3.79062
 20
-236.725
 11
-3.67128
 21
-236.691
  0
LINE
  8
0
 10
-3.67128
 20
-236.691
 11
-3.38672
 21
-237.753
  0
LINE
  8
0
 10
-3.38672
 20
-237.753
 11
-3.64827
 21
-237.822
  0
LINE
  8
0
 10
-3.64827
 20
-237.822
 11
-4.1369
 21
-237.927
  0
LINE
  8
0
 10
-4.1369
 20
-237.927
 11
-4.6301
 21
-238.007
  0
LINE
  8
0
 10
-4.6301
 20
-238.007
 11
-5.12663
 21
-238.062
  0
LINE
  8
0
 10
-5.12663
 20
-238.062
 11
-5.62532
 21
-238.093
  0
LINE
  8
0
 10
-5.62532
 20
-238.093
 11
-6.12491
 21
-238.099
  0
LINE
  8
0
 10
-6.12491
 20
-238.099
 11
-6.62421
 21
-238.081
  0
ENDSEC
  0
SECTION
  2
OBJECTS
  0
DICTIONARY
  0
ENDSEC
  0
EOF
