  0
SECTION
  2
BLOCKS
  0
ENDSEC
  0
SECTION
  2
ENTITIES
  0
LINE
  8
0
 10
53.4742
 20
-249.997
 11
53.9731
 21
-249.983
  0
LINE
  8
0
 10
53.9731
 20
-249.983
 11
54.4714
 21
-249.957
  0
LINE
  8
0
 10
54.4714
 20
-249.957
 11
54.9691
 21
-249.92
  0
LINE
  8
0
 10
54.9691
 20
-249.92
 11
55.4658
 21
-249.872
  0
LINE
  8
0
 10
55.4658
 20
-249.872
 11
55.9613
 21
-249.813
  0
LINE
  8
0
 10
55.9613
 20
-249.813
 11
56.4553
 21
-249.743
  0
LINE
  8
0
 10
56.4553
 20
-249.743
 11
56.9476
 21
-249.661
  0
LINE
  8
0
 10
56.9476
 20
-249.661
 11
57.4379
 21
-249.568
  0
LINE
  8
0
 10
57.4379
 20
-249.568
 11
57.9259
 21
-249.464
  0
LINE
  8
0
 10
57.9259
 20
-249.464
 11
58.4115
 21
-249.349
  0
LINE
  8
0
 10
58.4115
 20
-249.349
 11
58.8944
 21
-249.223
  0
LINE
  8
0
 10
58.8944
 20
-249.223
 11
59.3742
 21
-249.086
  0
LINE
  8
0
 10
59.3742
 20
-249.086
 11
59.8509
 21
-248.939
  0
LINE
  8
0
 10
59.8509
 20
-248.939
 11
60.3241
 21
-248.78
  0
LINE
  8
0
 10
60.3241
 20
-248.78
 11
60.7935
 21
-248.611
  0
LINE
  8
0
 10
60.7935
 20
-248.611
 11
61.259
 21
-248.431
  0
LINE
  8
0
 10
61.259
 20
-248.431
 11
61.7203
 21
-248.241
  0
LINE
  8
0
 10
61.7203
 20
-248.241
 11
62.1772
 21
-248.04
  0
LINE
  8
0
 10
62.1772
 20
-248.04
 11
62.6294
 21
-247.829
  0
LINE
  8
0
 10
62.6294
 20
-247.829
 11
63.0767
 21
-247.608
  0
LINE
  8
0
 10
63.0767
 20
-247.608
 11
63.5188
 21
-247.376
  0
LINE
  8
0
 10
63.5188
 20
-247.376
 11
63.9556
 21
-247.135
  0
LINE
  8
0
 10
63.9556
 20
-247.135
 11
64.3868
 21
-246.884
  0
LINE
  8
0
 10
64.3868
 20
-246.884
 11
64.8122
 21
-246.623
  0
LINE
  8
0
 10
64.8122
 20
-246.623
 11
65.2316
 21
-246.353
  0
LINE
  8
0
 10
65.2316
 20
-246.353
 11
65.6448
 21
-246.073
  0
LINE
  8
0
 10
65.6448
 20
-246.073
 11
66.0515
 21
-245.784
  0
LINE
  8
0
 10
66.0515
 20
-245.784
 11
66.4515
 21
-245.485
  0
LINE
  8
0
 10
66.4515
 20
-245.485
 11
66.8446
 21
-245.178
  0
LINE
  8
0
 10
66.8446
 20
-245.178
 11
67.2307
 21
-244.862
  0
LINE
  8
0
 10
67.2307
 20
-244.862
 11
67.6095
 21
-244.537
  0
LINE
  8
0
 10
67.6095
 20
-244.537
 11
67.9809
 21
-244.204
  0
LINE
  8
0
 10
67.9809
 20
-244.204
 11
68.3445
 21
-243.862
  0
LINE
  8
0
 10
68.3445
 20
-243.862
 11
68.7004
 21
-243.512
  0
LINE
  8
0
 10
68.7004
 20
-243.512
 11
69.0482
 21
-243.154
  0
LINE
  8
0
 10
69.0482
 20
-243.154
 11
69.3878
 21
-242.789
  0
LINE
  8
0
 10
69.3878
 20
-242.789
 11
69.7191
 21
-242.416
  0
LINE
  8
0
 10
69.7191
 20
-242.416
 11
70.0417
 21
-242.035
  0
LINE
  8
0
 10
70.0417
 20
-242.035
 11
70.3557
 21
-241.647
  0
LINE
  8
0
 10
70.3557
 20
-241.647
 11
70.6608
 21
-241.252
  0
LINE
  8
0
 10
70.6608
 20
-241.252
 11
70.9568
 21
-240.85
  0
LINE
  8
0
 10
70.9568
 20
-240.85
 11
71.2437
 21
-240.442
  0
LINE
  8
0
 10
71.2437
 20
-240.442
 11
71.5213
 21
-240.027
  0
LINE
  8
0
 10
71.5213
 20
-240.027
 11
71.7893
 21
-239.606
  0
LINE
  8
0
 10
71.7893
 20
-239.606
 11
72.0477
 21
-239.18
  0
LINE
  8
0
 10
72.0477
 20
-239.18
 11
72.2964
 21
-238.747
  0
LINE
  8
0
 10
72.2964
 20
-238.747
 11
72.5352
 21
-238.309
  0
LINE
  8
0
 10
72.5352
 20
-238.309
 11
72.7641
 21
-237.865
  0
LINE
  8
0
 10
72.7641
 20
-237.865
 11
72.9828
 21
-237.417
  0
LINE
  8
0
 10
72.9828
 20
-237.417
 11
73.1912
 21
-236.963
  0
LINE
  8
0
 10
73.1912
 20
-236.963
 11
73.3894
 21
-236.505
  0
LINE
  8
0
 10
73.3894
 20
-236.505
 11
73.577
 21
-236.043
  0
LINE
  8
0
 10
73.577
 20
-236.043
 11
73.7542
 21
-235.577
  0
LINE
  8
0
 10
73.7542
 20
-235.577
 11
73.9207
 21
-235.106
  0
LINE
  8
0
 10
73.9207
 20
-235.106
 11
74.0766
 21
-234.632
  0
LINE
  8
0
 10
74.0766
 20
-234.632
 11
74.2216
 21
-234.155
  0
LINE
  8
0
 10
74.2216
 20
-234.155
 11
74.3557
 21
-233.674
  0
LINE
  8
0
 10
74.3557
 20
-233.674
 11
74.479
 21
-233.19
  0
LINE
  8
0
 10
74.479
 20
-233.19
 11
74.5912
 21
-232.704
  0
LINE
  8
0
 10
74.5912
 20
-232.704
 11
74.6924
 21
-232.215
  0
LINE
  8
0
 10
74.6924
 20
-232.215
 11
74.7824
 21
-231.725
  0
LINE
  8
0
 10
74.7824
 20
-231.725
 11
74.8613
 21
-231.232
  0
LINE
  8
0
 10
74.8613
 20
-231.232
 11
74.929
 21
-230.738
  0
LINE
  8
0
 10
74.929
 20
-230.738
 11
74.9855
 21
-230.242
  0
LINE
  8
0
 10
74.9855
 20
-230.242
 11
75.0307
 21
-229.745
  0
LINE
  8
0
 10
75.0307
 20
-229.745
 11
75.0646
 21
-229.247
  0
LINE
  8
0
 10
75.0646
 20
-229.247
 11
75.0873
 21
-228.748
  0
LINE
  8
0
 10
75.0873
 20
-228.748
 11
75.0986
 21
-228.25
  0
LINE
  8
0
 10
75.0986
 20
-228.25
 11
75.0986
 21
-219.998
  0
LINE
  8
0
 10
75.0986
 20
-219.998
 11
84.6842
 21
-219.998
  0
LINE
  8
0
 10
84.6842
 20
-219.998
 11
84.9356
 21
-219.831
  0
LINE
  8
0
 10
84.9356
 20
-219.831
 11
85.3471
 21
-219.547
  0
LINE
  8
0
 10
85.3471
 20
-219.547
 11
85.7538
 21
-219.256
  0
LINE
  8
0
 10
85.7538
 20
-219.256
 11
86.1555
 21
-218.958
  0
LINE
  8
0
 10
86.1555
 20
-218.958
 11
86.5523
 21
-218.654
  0
LINE
  8
0
 10
86.5523
 20
-218.654
 11
86.944
 21
-218.343
  0
LINE
  8
0
 10
86.944
 20
-218.343
 11
87.3304
 21
-218.026
  0
LINE
  8
0
 10
87.3304
 20
-218.026
 11
87.7114
 21
-217.702
  0
LINE
  8
0
 10
87.7114
 20
-217.702
 11
88.0871
 21
-217.372
  0
LINE
  8
0
 10
88.0871
 20
-217.372
 11
88.4571
 21
-217.036
  0
LINE
  8
0
 10
88.4571
 20
-217.036
 11
88.8215
 21
-216.694
  0
LINE
  8
0
 10
88.8215
 20
-216.694
 11
89.1802
 21
-216.345
  0
LINE
  8
0
 10
89.1802
 20
-216.345
 11
89.533
 21
-215.991
  0
LINE
  8
0
 10
89.533
 20
-215.991
 11
89.8799
 21
-215.631
  0
LINE
  8
0
 10
89.8799
 20
-215.631
 11
90.2207
 21
-215.265
  0
LINE
  8
0
 10
90.2207
 20
-215.265
 11
90.5553
 21
-214.894
  0
LINE
  8
0
 10
90.5553
 20
-214.894
 11
90.8837
 21
-214.517
  0
LINE
  8
0
 10
90.8837
 20
-214.517
 11
91.2058
 21
-214.134
  0
LINE
  8
0
 10
91.2058
 20
-214.134
 11
91.5215
 21
-213.747
  0
LINE
  8
0
 10
91.5215
 20
-213.747
 11
91.8307
 21
-213.354
  0
LINE
  8
0
 10
91.8307
 20
-213.354
 11
92.1332
 21
-212.956
  0
LINE
  8
0
 10
92.1332
 20
-212.956
 11
92.4292
 21
-212.553
  0
LINE
  8
0
 10
92.4292
 20
-212.553
 11
92.7183
 21
-212.145
  0
LINE
  8
0
 10
92.7183
 20
-212.145
 11
93.0006
 21
-211.732
  0
LINE
  8
0
 10
93.0006
 20
-211.732
 11
93.1
 21
-211.581
  0
LINE
  8
0
 10
93.1
 20
-211.581
 11
93.1
 21
-178.419
  0
LINE
  8
0
 10
93.1
 20
-178.419
 11
93.0006
 21
-178.268
  0
LINE
  8
0
 10
93.0006
 20
-178.268
 11
92.7183
 21
-177.855
  0
LINE
  8
0
 10
92.7183
 20
-177.855
 11
92.4292
 21
-177.447
  0
LINE
  8
0
 10
92.4292
 20
-177.447
 11
92.1332
 21
-177.044
  0
LINE
  8
0
 10
92.1332
 20
-177.044
 11
91.8307
 21
-176.646
  0
LINE
  8
0
 10
91.8307
 20
-176.646
 11
91.5215
 21
-176.253
  0
LINE
  8
0
 10
91.5215
 20
-176.253
 11
91.2058
 21
-175.866
  0
LINE
  8
0
 10
91.2058
 20
-175.866
 11
90.8837
 21
-175.483
  0
LINE
  8
0
 10
90.8837
 20
-175.483
 11
90.5553
 21
-175.106
  0
LINE
  8
0
 10
90.5553
 20
-175.106
 11
90.2207
 21
-174.735
  0
LINE
  8
0
 10
90.2207
 20
-174.735
 11
89.8799
 21
-174.369
  0
LINE
  8
0
 10
89.8799
 20
-174.369
 11
89.533
 21
-174.009
  0
LINE
  8
0
 10
89.533
 20
-174.009
 11
89.1802
 21
-173.655
  0
LINE
  8
0
 10
89.1802
 20
-173.655
 11
88.8215
 21
-173.306
  0
LINE
  8
0
 10
88.8215
 20
-173.306
 11
88.4571
 21
-172.964
  0
LINE
  8
0
 10
88.4571
 20
-172.964
 11
88.0871
 21
-172.628
  0
LINE
  8
0
 10
88.0871
 20
-172.628
 11
87.7114
 21
-172.298
  0
LINE
  8
0
 10
87.7114
 20
-172.298
 11
87.3304
 21
-171.974
  0
LINE
  8
0
 10
87.3304
 20
-171.974
 11
86.944
 21
-171.657
  0
LINE
  8
0
 10
86.944
 20
-171.657
 11
86.5523
 21
-171.346
  0
LINE
  8
0
 10
86.5523
 20
-171.346
 11
86.1555
 21
-171.042
  0
LINE
  8
0
 10
86.1555
 20
-171.042
 11
85.7538
 21
-170.744
  0
LINE
  8
0
 10
85.7538
 20
-170.744
 11
85.3471
 21
-170.453
  0
LINE
  8
0
 10
85.3471
 20
-170.453
 11
84.9356
 21
-170.169
  0
LINE
  8
0
 10
84.9356
 20
-170.169
 11
84.6842
 21
-170.002
  0
LINE
  8
0
 10
84.6842
 20
-170.002
 11
75.0986
 21
-170.002
  0
LINE
  8
0
 10
75.0986
 20
-170.002
 11
75.0986
 21
-161.75
  0
LINE
  8
0
 10
75.0986
 20
-161.75
 11
75.0873
 21
-161.252
  0
LINE
  8
0
 10
75.0873
 20
-161.252
 11
75.0646
 21
-160.753
  0
LINE
  8
0
 10
75.0646
 20
-160.753
 11
74.7876
 21
-156.035
  0
LINE
  8
0
 10
74.7876
 20
-156.035
 11
99.6842
 21
-156.035
  0
LINE
  8
0
 10
99.6842
 20
-156.035
 11
99.9356
 21
-155.867
  0
LINE
  8
0
 10
99.9356
 20
-155.867
 11
100.347
 21
-155.583
  0
LINE
  8
0
 10
100.347
 20
-155.583
 11
100.754
 21
-155.292
  0
LINE
  8
0
 10
100.754
 20
-155.292
 11
101.156
 21
-154.995
  0
LINE
  8
0
 10
101.156
 20
-154.995
 11
101.552
 21
-154.691
  0
LINE
  8
0
 10
101.552
 20
-154.691
 11
101.944
 21
-154.38
  0
LINE
  8
0
 10
101.944
 20
-154.38
 11
102.33
 21
-154.062
  0
LINE
  8
0
 10
102.33
 20
-154.062
 11
102.711
 21
-153.739
  0
LINE
  8
0
 10
102.711
 20
-153.739
 11
103.087
 21
-153.409
  0
LINE
  8
0
 10
103.087
 20
-153.409
 11
103.457
 21
-153.073
  0
LINE
  8
0
 10
103.457
 20
-153.073
 11
103.822
 21
-152.73
  0
LINE
  8
0
 10
103.822
 20
-152.73
 11
104.18
 21
-152.382
  0
LINE
  8
0
 10
104.18
 20
-152.382
 11
104.533
 21
-152.028
  0
LINE
  8
0
 10
104.533
 20
-152.028
 11
104.88
 21
-151.667
  0
LINE
  8
0
 10
104.88
 20
-151.667
 11
105.221
 21
-151.302
  0
LINE
  8
0
 10
105.221
 20
-151.302
 11
105.555
 21
-150.93
  0
LINE
  8
0
 10
105.555
 20
-150.93
 11
105.884
 21
-150.553
  0
LINE
  8
0
 10
105.884
 20
-150.553
 11
106.206
 21
-150.171
  0
LINE
  8
0
 10
106.206
 20
-150.171
 11
106.521
 21
-149.783
  0
LINE
  8
0
 10
106.521
 20
-149.783
 11
106.831
 21
-149.39
  0
LINE
  8
0
 10
106.831
 20
-149.39
 11
107.133
 21
-148.992
  0
LINE
  8
0
 10
107.133
 20
-148.992
 11
107.429
 21
-148.589
  0
LINE
  8
0
 10
107.429
 20
-148.589
 11
107.718
 21
-148.181
  0
LINE
  8
0
 10
107.718
 20
-148.181
 11
108.001
 21
-147.769
  0
LINE
  8
0
 10
108.001
 20
-147.769
 11
108.1
 21
-147.618
  0
LINE
  8
0
 10
108.1
 20
-147.618
 11
108.1
 21
-114.455
  0
LINE
  8
0
 10
108.1
 20
-114.455
 11
108.001
 21
-114.305
  0
LINE
  8
0
 10
108.001
 20
-114.305
 11
107.718
 21
-113.892
  0
LINE
  8
0
 10
107.718
 20
-113.892
 11
107.429
 21
-113.484
  0
LINE
  8
0
 10
107.429
 20
-113.484
 11
107.133
 21
-113.081
  0
LINE
  8
0
 10
107.133
 20
-113.081
 11
106.831
 21
-112.683
  0
LINE
  8
0
 10
106.831
 20
-112.683
 11
106.521
 21
-112.29
  0
LINE
  8
0
 10
106.521
 20
-112.29
 11
106.206
 21
-111.902
  0
LINE
  8
0
 10
106.206
 20
-111.902
 11
105.884
 21
-111.52
  0
LINE
  8
0
 10
105.884
 20
-111.52
 11
105.555
 21
-111.143
  0
LINE
  8
0
 10
105.555
 20
-111.143
 11
105.221
 21
-110.771
  0
LINE
  8
0
 10
105.221
 20
-110.771
 11
104.88
 21
-110.406
  0
LINE
  8
0
 10
104.88
 20
-110.406
 11
104.533
 21
-110.045
  0
LINE
  8
0
 10
104.533
 20
-110.045
 11
104.18
 21
-109.691
  0
LINE
  8
0
 10
104.18
 20
-109.691
 11
103.822
 21
-109.343
  0
LINE
  8
0
 10
103.822
 20
-109.343
 11
103.457
 21
-109
  0
LINE
  8
0
 10
103.457
 20
-109
 11
103.087
 21
-108.664
  0
LINE
  8
0
 10
103.087
 20
-108.664
 11
102.711
 21
-108.334
  0
LINE
  8
0
 10
102.711
 20
-108.334
 11
102.33
 21
-108.011
  0
LINE
  8
0
 10
102.33
 20
-108.011
 11
101.944
 21
-107.693
  0
LINE
  8
0
 10
101.944
 20
-107.693
 11
101.552
 21
-107.383
  0
LINE
  8
0
 10
101.552
 20
-107.383
 11
101.156
 21
-107.078
  0
LINE
  8
0
 10
101.156
 20
-107.078
 11
100.754
 21
-106.781
  0
LINE
  8
0
 10
100.754
 20
-106.781
 11
100.347
 21
-106.49
  0
LINE
  8
0
 10
100.347
 20
-106.49
 11
99.9356
 21
-106.206
  0
LINE
  8
0
 10
99.9356
 20
-106.206
 11
99.6842
 21
-106.038
  0
LINE
  8
0
 10
99.6842
 20
-106.038
 11
71.5144
 21
-106.038
  0
LINE
  8
0
 10
71.5144
 20
-106.038
 11
71.4815
 21
-105.902
  0
LINE
  8
0
 10
71.4815
 20
-105.902
 11
71.3525
 21
-105.421
  0
LINE
  8
0
 10
71.3525
 20
-105.421
 11
71.2115
 21
-104.942
  0
LINE
  8
0
 10
71.2115
 20
-104.942
 11
71.0585
 21
-104.468
  0
LINE
  8
0
 10
71.0585
 20
-104.468
 11
70.8938
 21
-103.997
  0
LINE
  8
0
 10
70.8938
 20
-103.997
 11
70.7175
 21
-103.531
  0
LINE
  8
0
 10
70.7175
 20
-103.531
 11
70.5295
 21
-103.069
  0
LINE
  8
0
 10
70.5295
 20
-103.069
 11
70.3301
 21
-102.612
  0
LINE
  8
0
 10
70.3301
 20
-102.612
 11
70.1194
 21
-102.16
  0
LINE
  8
0
 10
70.1194
 20
-102.16
 11
69.8974
 21
-101.713
  0
LINE
  8
0
 10
69.8974
 20
-101.713
 11
69.6644
 21
-101.272
  0
LINE
  8
0
 10
69.6644
 20
-101.272
 11
69.4205
 21
-100.837
  0
LINE
  8
0
 10
69.4205
 20
-100.837
 11
69.1658
 21
-100.409
  0
LINE
  8
0
 10
69.1658
 20
-100.409
 11
68.9005
 21
-99.9866
  0
LINE
  8
0
 10
68.9005
 20
-99.9866
 11
68.6248
 21
-99.5711
  0
LINE
  8
0
 10
68.6248
 20
-99.5711
 11
68.3388
 21
-99.1626
  0
LINE
  8
0
 10
68.3388
 20
-99.1626
 11
68.0426
 21
-98.7614
  0
LINE
  8
0
 10
68.0426
 20
-98.7614
 11
67.7366
 21
-98.3677
  0
LINE
  8
0
 10
67.7366
 20
-98.3677
 11
67.4209
 21
-97.9818
  0
LINE
  8
0
 10
67.4209
 20
-97.9818
 11
67.0956
 21
-97.6038
  0
LINE
  8
0
 10
67.0956
 20
-97.6038
 11
66.761
 21
-97.234
  0
LINE
  8
0
 10
66.761
 20
-97.234
 11
66.4173
 21
-96.8728
  0
LINE
  8
0
 10
66.4173
 20
-96.8728
 11
66.0647
 21
-96.5202
  0
LINE
  8
0
 10
66.0647
 20
-96.5202
 11
65.7034
 21
-96.1765
  0
LINE
  8
0
 10
65.7034
 20
-96.1765
 11
65.3337
 21
-95.8419
  0
LINE
  8
0
 10
65.3337
 20
-95.8419
 11
64.9557
 21
-95.5166
  0
LINE
  8
0
 10
64.9557
 20
-95.5166
 11
64.5698
 21
-95.2009
  0
LINE
  8
0
 10
64.5698
 20
-95.2009
 11
64.1761
 21
-94.8949
  0
LINE
  8
0
 10
64.1761
 20
-94.8949
 11
63.7749
 21
-94.5987
  0
LINE
  8
0
 10
63.7749
 20
-94.5987
 11
63.3664
 21
-94.3127
  0
LINE
  8
0
 10
63.3664
 20
-94.3127
 11
62.9509
 21
-94.037
  0
LINE
  8
0
 10
62.9509
 20
-94.037
 11
62.5287
 21
-93.7717
  0
LINE
  8
0
 10
62.5287
 20
-93.7717
 11
62.1
 21
-93.517
  0
LINE
  8
0
 10
62.1
 20
-93.517
 11
61.6651
 21
-93.2731
  0
LINE
  8
0
 10
61.6651
 20
-93.2731
 11
61.2242
 21
-93.0401
  0
LINE
  8
0
 10
61.2242
 20
-93.0401
 11
60.7777
 21
-92.8181
  0
LINE
  8
0
 10
60.7777
 20
-92.8181
 11
60.3257
 21
-92.6074
  0
LINE
  8
0
 10
60.3257
 20
-92.6074
 11
59.8687
 21
-92.408
  0
LINE
  8
0
 10
59.8687
 20
-92.408
 11
59.4068
 21
-92.22
  0
LINE
  8
0
 10
59.4068
 20
-92.22
 11
58.9404
 21
-92.0436
  0
LINE
  8
0
 10
58.9404
 20
-92.0436
 11
58.4697
 21
-91.879
  0
LINE
  8
0
 10
58.4697
 20
-91.879
 11
57.9951
 21
-91.726
  0
LINE
  8
0
 10
57.9951
 20
-91.726
 11
57.5168
 21
-91.585
  0
LINE
  8
0
 10
57.5168
 20
-91.585
 11
57.0351
 21
-91.4559
  0
LINE
  8
0
 10
57.0351
 20
-91.4559
 11
56.5504
 21
-91.3389
  0
LINE
  8
0
 10
56.5504
 20
-91.3389
 11
56.0629
 21
-91.2341
  0
LINE
  8
0
 10
56.0629
 20
-91.2341
 11
55.573
 21
-91.1413
  0
LINE
  8
0
 10
55.573
 20
-91.1413
 11
25.4553
 21
-86.2574
  0
LINE
  8
0
 10
25.4553
 20
-86.2574
 11
24.9613
 21
-86.1869
  0
LINE
  8
0
 10
24.9613
 20
-86.1869
 11
24.4658
 21
-86.1276
  0
LINE
  8
0
 10
24.4658
 20
-86.1276
 11
23.9691
 21
-86.0795
  0
LINE
  8
0
 10
23.9691
 20
-86.0795
 11
23.4714
 21
-86.0428
  0
LINE
  8
0
 10
23.4714
 20
-86.0428
 11
22.9731
 21
-86.0173
  0
LINE
  8
0
 10
22.9731
 20
-86.0173
 11
22.4742
 21
-86.0032
  0
LINE
  8
0
 10
22.4742
 20
-86.0032
 11
21.9752
 21
-86.0004
  0
LINE
  8
0
 10
21.9752
 20
-86.0004
 11
21.4763
 21
-86.0088
  0
LINE
  8
0
 10
21.4763
 20
-86.0088
 11
20.9777
 21
-86.0286
  0
LINE
  8
0
 10
20.9777
 20
-86.0286
 11
20.4796
 21
-86.0598
  0
LINE
  8
0
 10
20.4796
 20
-86.0598
 11
19.9824
 21
-86.1021
  0
LINE
  8
0
 10
19.9824
 20
-86.1021
 11
19.4863
 21
-86.1558
  0
LINE
  8
0
 10
19.4863
 20
-86.1558
 11
18.9915
 21
-86.2207
  0
LINE
  8
0
 10
18.9915
 20
-86.2207
 11
18.4983
 21
-86.2968
  0
LINE
  8
0
 10
18.4983
 20
-86.2968
 11
18.007
 21
-86.3841
  0
LINE
  8
0
 10
18.007
 20
-86.3841
 11
17.5178
 21
-86.4825
  0
LINE
  8
0
 10
17.5178
 20
-86.4825
 11
17.0309
 21
-86.5919
  0
LINE
  8
0
 10
17.0309
 20
-86.5919
 11
16.5467
 21
-86.7124
  0
LINE
  8
0
 10
16.5467
 20
-86.7124
 11
16.0653
 21
-86.8439
  0
LINE
  8
0
 10
16.0653
 20
-86.8439
 11
15.587
 21
-86.9862
  0
LINE
  8
0
 10
15.587
 20
-86.9862
 11
15.1121
 21
-87.1393
  0
LINE
  8
0
 10
15.1121
 20
-87.1393
 11
14.6407
 21
-87.3032
  0
LINE
  8
0
 10
14.6407
 20
-87.3032
 11
14.1732
 21
-87.4777
  0
LINE
  8
0
 10
14.1732
 20
-87.4777
 11
13.7098
 21
-87.6627
  0
LINE
  8
0
 10
13.7098
 20
-87.6627
 11
13.2507
 21
-87.8583
  0
LINE
  8
0
 10
13.2507
 20
-87.8583
 11
12.7961
 21
-88.0641
  0
LINE
  8
0
 10
12.7961
 20
-88.0641
 11
12.3463
 21
-88.2803
  0
LINE
  8
0
 10
12.3463
 20
-88.2803
 11
11.9016
 21
-88.5066
  0
LINE
  8
0
 10
11.9016
 20
-88.5066
 11
11.4621
 21
-88.7429
  0
LINE
  8
0
 10
11.4621
 20
-88.7429
 11
11.028
 21
-88.9892
  0
LINE
  8
0
 10
11.028
 20
-88.9892
 11
10.5997
 21
-89.2452
  0
LINE
  8
0
 10
10.5997
 20
-89.2452
 11
10.1773
 21
-89.5108
  0
LINE
  8
0
 10
10.1773
 20
-89.5108
 11
9.761
 21
-89.786
  0
LINE
  8
0
 10
9.761
 20
-89.786
 11
9.35106
 21
-90.0706
  0
LINE
  8
0
 10
9.35106
 20
-90.0706
 11
8.94768
 21
-90.3643
  0
LINE
  8
0
 10
8.94768
 20
-90.3643
 11
8.55107
 21
-90.6672
  0
LINE
  8
0
 10
8.55107
 20
-90.6672
 11
8.16144
 21
-90.9789
  0
LINE
  8
0
 10
8.16144
 20
-90.9789
 11
7.77896
 21
-91.2995
  0
LINE
  8
0
 10
7.77896
 20
-91.2995
 11
7.40385
 21
-91.6286
  0
LINE
  8
0
 10
7.40385
 20
-91.6286
 11
7.03632
 21
-91.9661
  0
LINE
  8
0
 10
7.03632
 20
-91.9661
 11
6.67653
 21
-92.3119
  0
LINE
  8
0
 10
6.67653
 20
-92.3119
 11
6.32468
 21
-92.6657
  0
LINE
  8
0
 10
6.32468
 20
-92.6657
 11
5.98094
 21
-93.0275
  0
LINE
  8
0
 10
5.98094
 20
-93.0275
 11
5.64549
 21
-93.3969
  0
LINE
  8
0
 10
5.64549
 20
-93.3969
 11
5.31851
 21
-93.7739
  0
LINE
  8
0
 10
5.31851
 20
-93.7739
 11
5.00017
 21
-94.1582
  0
LINE
  8
0
 10
5.00017
 20
-94.1582
 11
4.69061
 21
-94.5496
  0
LINE
  8
0
 10
4.69061
 20
-94.5496
 11
4.39003
 21
-94.9479
  0
LINE
  8
0
 10
4.39003
 20
-94.9479
 11
4.09854
 21
-95.3529
  0
LINE
  8
0
 10
4.09854
 20
-95.3529
 11
3.81633
 21
-95.7645
  0
LINE
  8
0
 10
3.81633
 20
-95.7645
 11
3.54352
 21
-96.1823
  0
LINE
  8
0
 10
3.54352
 20
-96.1823
 11
3.28026
 21
-96.6062
  0
LINE
  8
0
 10
3.28026
 20
-96.6062
 11
3.02667
 21
-97.036
  0
LINE
  8
0
 10
3.02667
 20
-97.036
 11
2.78291
 21
-97.4715
  0
LINE
  8
0
 10
2.78291
 20
-97.4715
 11
2.54907
 21
-97.9123
  0
LINE
  8
0
 10
2.54907
 20
-97.9123
 11
2.3253
 21
-98.3583
  0
LINE
  8
0
 10
2.3253
 20
-98.3583
 11
2.11171
 21
-98.8093
  0
LINE
  8
0
 10
2.11171
 20
-98.8093
 11
1.9084
 21
-99.265
  0
LINE
  8
0
 10
1.9084
 20
-99.265
 11
1.71547
 21
-99.7253
  0
LINE
  8
0
 10
1.71547
 20
-99.7253
 11
1.53304
 21
-100.19
  0
LINE
  8
0
 10
1.53304
 20
-100.19
 11
1.36119
 21
-100.658
  0
LINE
  8
0
 10
1.36119
 20
-100.658
 11
1.2
 21
-101.13
  0
LINE
  8
0
 10
1.2
 20
-101.13
 11
1.04958
 21
-101.606
  0
LINE
  8
0
 10
1.04958
 20
-101.606
 11
0.909973
 21
-102.085
  0
LINE
  8
0
 10
0.909973
 20
-102.085
 11
0.781265
 21
-102.567
  0
LINE
  8
0
 10
0.781265
 20
-102.567
 11
0.663544
 21
-103.052
  0
LINE
  8
0
 10
0.663544
 20
-103.052
 11
0.556839
 21
-103.54
  0
LINE
  8
0
 10
0.556839
 20
-103.54
 11
0.461227
 21
-104.03
  0
LINE
  8
0
 10
0.461227
 20
-104.03
 11
0.37674
 21
-104.521
  0
LINE
  8
0
 10
0.37674
 20
-104.521
 11
0.303421
 21
-105.015
  0
LINE
  8
0
 10
0.303421
 20
-105.015
 11
0.241333
 21
-105.51
  0
LINE
  8
0
 10
0.241333
 20
-105.51
 11
0.190491
 21
-106.007
  0
LINE
  8
0
 10
0.190491
 20
-106.007
 11
0.150909
 21
-106.504
  0
LINE
  8
0
 10
0.150909
 20
-106.504
 11
0.122635
 21
-107.002
  0
LINE
  8
0
 10
0.122635
 20
-107.002
 11
0.105652
 21
-107.501
  0
LINE
  8
0
 10
0.105652
 20
-107.501
 11
0.0999908
 21
-108
  0
LINE
  8
0
 10
0.0999908
 20
-108
 11
0.0999908
 21
-228
  0
LINE
  8
0
 10
0.0999908
 20
-228
 11
0.105652
 21
-228.499
  0
LINE
  8
0
 10
0.105652
 20
-228.499
 11
0.122635
 21
-228.998
  0
LINE
  8
0
 10
0.122635
 20
-228.998
 11
0.150909
 21
-229.496
  0
LINE
  8
0
 10
0.150909
 20
-229.496
 11
0.190491
 21
-229.993
  0
LINE
  8
0
 10
0.190491
 20
-229.993
 11
0.241333
 21
-230.49
  0
LINE
  8
0
 10
0.241333
 20
-230.49
 11
0.303421
 21
-230.985
  0
LINE
  8
0
 10
0.303421
 20
-230.985
 11
0.37674
 21
-231.479
  0
LINE
  8
0
 10
0.37674
 20
-231.479
 11
0.461227
 21
-231.97
  0
LINE
  8
0
 10
0.461227
 20
-231.97
 11
0.556839
 21
-232.46
  0
LINE
  8
0
 10
0.556839
 20
-232.46
 11
0.663544
 21
-232.948
  0
LINE
  8
0
 10
0.663544
 20
-232.948
 11
0.781265
 21
-233.432
  0
LINE
  8
0
 10
0.781265
 20
-233.432
 11
0.909973
 21
-233.915
  0
LINE
  8
0
 10
0.909973
 20
-233.915
 11
1.04958
 21
-234.394
  0
LINE
  8
0
 10
1.04958
 20
-234.394
 11
1.2
 21
-234.87
  0
LINE
  8
0
 10
1.2
 20
-234.87
 11
1.36119
 21
-235.342
  0
LINE
  8
0
 10
1.36119
 20
-235.342
 11
1.53304
 21
-235.81
  0
LINE
  8
0
 10
1.53304
 20
-235.81
 11
1.71547
 21
-236.275
  0
LINE
  8
0
 10
1.71547
 20
-236.275
 11
1.9084
 21
-236.735
  0
LINE
  8
0
 10
1.9084
 20
-236.735
 11
2.11171
 21
-237.191
  0
LINE
  8
0
 10
2.11171
 20
-237.191
 11
2.3253
 21
-237.642
  0
LINE
  8
0
 10
2.3253
 20
-237.642
 11
2.54907
 21
-238.088
  0
LINE
  8
0
 10
2.54907
 20
-238.088
 11
2.78291
 21
-238.529
  0
LINE
  8
0
 10
2.78291
 20
-238.529
 11
3.02667
 21
-238.964
  0
LINE
  8
0
 10
3.02667
 20
-238.964
 11
3.28026
 21
-239.394
  0
LINE
  8
0
 10
3.28026
 20
-239.394
 11
3.54352
 21
-239.818
  0
LINE
  8
0
 10
3.54352
 20
-239.818
 11
3.81633
 21
-240.236
  0
LINE
  8
0
 10
3.81633
 20
-240.236
 11
4.09854
 21
-240.647
  0
LINE
  8
0
 10
4.09854
 20
-240.647
 11
4.39003
 21
-241.052
  0
LINE
  8
0
 10
4.39003
 20
-241.052
 11
4.69061
 21
-241.45
  0
LINE
  8
0
 10
4.69061
 20
-241.45
 11
5.00017
 21
-241.842
  0
LINE
  8
0
 10
5.00017
 20
-241.842
 11
5.31851
 21
-242.226
  0
LINE
  8
0
 10
5.31851
 20
-242.226
 11
5.64549
 21
-242.603
  0
LINE
  8
0
 10
5.64549
 20
-242.603
 11
5.98094
 21
-242.973
  0
LINE
  8
0
 10
5.98094
 20
-242.973
 11
6.32468
 21
-243.334
  0
LINE
  8
0
 10
6.32468
 20
-243.334
 11
6.67653
 21
-243.688
  0
LINE
  8
0
 10
6.67653
 20
-243.688
 11
7.03632
 21
-244.034
  0
LINE
  8
0
 10
7.03632
 20
-244.034
 11
7.40385
 21
-244.371
  0
LINE
  8
0
 10
7.40385
 20
-244.371
 11
7.77896
 21
-244.701
  0
LINE
  8
0
 10
7.77896
 20
-244.701
 11
8.16144
 21
-245.021
  0
LINE
  8
0
 10
8.16144
 20
-245.021
 11
8.55107
 21
-245.333
  0
LINE
  8
0
 10
8.55107
 20
-245.333
 11
8.94768
 21
-245.636
  0
LINE
  8
0
 10
8.94768
 20
-245.636
 11
9.35106
 21
-245.929
  0
LINE
  8
0
 10
9.35106
 20
-245.929
 11
9.761
 21
-246.214
  0
LINE
  8
0
 10
9.761
 20
-246.214
 11
10.1773
 21
-246.489
  0
LINE
  8
0
 10
10.1773
 20
-246.489
 11
10.5997
 21
-246.755
  0
LINE
  8
0
 10
10.5997
 20
-246.755
 11
11.028
 21
-247.011
  0
LINE
  8
0
 10
11.028
 20
-247.011
 11
11.4621
 21
-247.257
  0
LINE
  8
0
 10
11.4621
 20
-247.257
 11
11.9016
 21
-247.493
  0
LINE
  8
0
 10
11.9016
 20
-247.493
 11
12.3463
 21
-247.72
  0
LINE
  8
0
 10
12.3463
 20
-247.72
 11
12.7961
 21
-247.936
  0
LINE
  8
0
 10
12.7961
 20
-247.936
 11
13.2507
 21
-248.142
  0
LINE
  8
0
 10
13.2507
 20
-248.142
 11
13.7098
 21
-248.337
  0
LINE
  8
0
 10
13.7098
 20
-248.337
 11
14.1732
 21
-248.522
  0
LINE
  8
0
 10
14.1732
 20
-248.522
 11
14.6407
 21
-248.697
  0
LINE
  8
0
 10
14.6407
 20
-248.697
 11
15.1121
 21
-248.861
  0
LINE
  8
0
 10
15.1121
 20
-248.861
 11
15.587
 21
-249.014
  0
LINE
  8
0
 10
15.587
 20
-249.014
 11
16.0653
 21
-249.156
  0
LINE
  8
0
 10
16.0653
 20
-249.156
 11
16.5467
 21
-249.288
  0
LINE
  8
0
 10
16.5467
 20
-249.288
 11
17.0309
 21
-249.408
  0
LINE
  8
0
 10
17.0309
 20
-249.408
 11
17.5178
 21
-249.518
  0
LINE
  8
0
 10
17.5178
 20
-249.518
 11
18.007
 21
-249.616
  0
LINE
  8
0
 10
18.007
 20
-249.616
 11
18.4983
 21
-249.703
  0
LINE
  8
0
 10
18.4983
 20
-249.703
 11
18.9915
 21
-249.779
  0
LINE
  8
0
 10
18.9915
 20
-249.779
 11
19.4863
 21
-249.844
  0
LINE
  8
0
 10
19.4863
 20
-249.844
 11
19.9824
 21
-249.898
  0
LINE
  8
0
 10
19.9824
 20
-249.898
 11
20.4796
 21
-249.94
  0
LINE
  8
0
 10
20.4796
 20
-249.94
 11
20.9777
 21
-249.971
  0
LINE
  8
0
 10
20.9777
 20
-249.971
 11
21.4763
 21
-249.991
  0
LINE
  8
0
 10
21.4763
 20
-249.991
 11
21.9752
 21
-250
  0
LINE
  8
0
 10
21.9752
 20
-250
 11
52.9752
 21
-250
  0
LINE
  8
0
 10
52.9752
 20
-250
 11
53.4742
 21
-249.997
  0
LINE
  8
0
 10
51.7253
 20
-120.931
 11
51.2266
 21
-120.9
  0
LINE
  8
0
 10
51.2266
 20
-120.9
 11
50.7301
 21
-120.844
  0
LINE
  8
0
 10
50.7301
 20
-120.844
 11
50.2369
 21
-120.764
  0
LINE
  8
0
 10
50.2369
 20
-120.764
 11
49.7483
 21
-120.66
  0
LINE
  8
0
 10
49.7483
 20
-120.66
 11
49.4867
 21
-120.59
  0
LINE
  8
0
 10
49.4867
 20
-120.59
 11
49.7713
 21
-119.528
  0
LINE
  8
0
 10
49.7713
 20
-119.528
 11
49.8906
 21
-119.562
  0
LINE
  8
0
 10
49.8906
 20
-119.562
 11
50.3746
 21
-119.671
  0
LINE
  8
0
 10
50.3746
 20
-119.671
 11
50.8638
 21
-119.752
  0
LINE
  8
0
 10
50.8638
 20
-119.752
 11
51.3568
 21
-119.807
  0
LINE
  8
0
 10
51.3568
 20
-119.807
 11
51.852
 21
-119.834
  0
LINE
  8
0
 10
51.852
 20
-119.834
 11
52.348
 21
-119.834
  0
LINE
  8
0
 10
52.348
 20
-119.834
 11
52.8432
 21
-119.807
  0
LINE
  8
0
 10
52.8432
 20
-119.807
 11
53.3362
 21
-119.752
  0
LINE
  8
0
 10
53.3362
 20
-119.752
 11
53.8254
 21
-119.671
  0
LINE
  8
0
 10
53.8254
 20
-119.671
 11
54.3094
 21
-119.562
  0
LINE
  8
0
 10
54.3094
 20
-119.562
 11
54.7866
 21
-119.427
  0
LINE
  8
0
 10
54.7866
 20
-119.427
 11
55.2557
 21
-119.266
  0
LINE
  8
0
 10
55.2557
 20
-119.266
 11
55.7153
 21
-119.079
  0
LINE
  8
0
 10
55.7153
 20
-119.079
 11
56.1638
 21
-118.868
  0
LINE
  8
0
 10
56.1638
 20
-118.868
 11
56.6
 21
-118.632
  0
LINE
  8
0
 10
56.6
 20
-118.632
 11
57.0225
 21
-118.372
  0
LINE
  8
0
 10
57.0225
 20
-118.372
 11
57.4301
 21
-118.089
  0
LINE
  8
0
 10
57.4301
 20
-118.089
 11
57.8215
 21
-117.785
  0
LINE
  8
0
 10
57.8215
 20
-117.785
 11
58.1955
 21
-117.459
  0
LINE
  8
0
 10
58.1955
 20
-117.459
 11
58.551
 21
-117.113
  0
LINE
  8
0
 10
58.551
 20
-117.113
 11
58.6
 21
-117.06
  0
LINE
  8
0
 10
58.6
 20
-117.06
 11
58.6
 21
-115.837
  0
LINE
  8
0
 10
58.6
 20
-115.837
 11
62.6
 21
-115.837
  0
LINE
  8
0
 10
62.6
 20
-115.837
 11
62.6
 21
-117.337
  0
LINE
  8
0
 10
62.6
 20
-117.337
 11
64.1
 21
-117.337
  0
LINE
  8
0
 10
64.1
 20
-117.337
 11
64.1
 21
-112.087
  0
LINE
  8
0
 10
64.1
 20
-112.087
 11
56.9404
 21
-112.087
  0
LINE
  8
0
 10
56.9404
 20
-112.087
 11
56.7985
 21
-112.548
  0
LINE
  8
0
 10
56.7985
 20
-112.548
 11
56.6048
 21
-113.007
  0
LINE
  8
0
 10
56.6048
 20
-113.007
 11
56.3665
 21
-113.445
  0
LINE
  8
0
 10
56.3665
 20
-113.445
 11
56.0857
 21
-113.857
  0
LINE
  8
0
 10
56.0857
 20
-113.857
 11
55.7653
 21
-114.238
  0
LINE
  8
0
 10
55.7653
 20
-114.238
 11
55.4084
 21
-114.586
  0
LINE
  8
0
 10
55.4084
 20
-114.586
 11
55.0187
 21
-114.897
  0
LINE
  8
0
 10
55.0187
 20
-114.897
 11
54.6
 21
-115.168
  0
LINE
  8
0
 10
54.6
 20
-115.168
 11
54.1564
 21
-115.395
  0
LINE
  8
0
 10
54.1564
 20
-115.395
 11
53.6924
 21
-115.577
  0
LINE
  8
0
 10
53.6924
 20
-115.577
 11
53.2126
 21
-115.712
  0
LINE
  8
0
 10
53.2126
 20
-115.712
 11
52.7217
 21
-115.799
  0
LINE
  8
0
 10
52.7217
 20
-115.799
 11
52.2246
 21
-115.836
  0
LINE
  8
0
 10
52.2246
 20
-115.836
 11
51.7263
 21
-115.824
  0
LINE
  8
0
 10
51.7263
 20
-115.824
 11
51.2318
 21
-115.762
  0
LINE
  8
0
 10
51.2318
 20
-115.762
 11
50.7458
 21
-115.651
  0
LINE
  8
0
 10
50.7458
 20
-115.651
 11
50.2733
 21
-115.492
  0
LINE
  8
0
 10
50.2733
 20
-115.492
 11
49.8189
 21
-115.287
  0
LINE
  8
0
 10
49.8189
 20
-115.287
 11
49.3873
 21
-115.038
  0
LINE
  8
0
 10
49.3873
 20
-115.038
 11
48.9825
 21
-114.747
  0
LINE
  8
0
 10
48.9825
 20
-114.747
 11
48.6088
 21
-114.417
  0
LINE
  8
0
 10
48.6088
 20
-114.417
 11
48.2698
 21
-114.051
  0
LINE
  8
0
 10
48.2698
 20
-114.051
 11
47.9688
 21
-113.654
  0
LINE
  8
0
 10
47.9688
 20
-113.654
 11
47.7089
 21
-113.229
  0
LINE
  8
0
 10
47.7089
 20
-113.229
 11
47.4926
 21
-112.78
  0
LINE
  8
0
 10
47.4926
 20
-112.78
 11
47.3221
 21
-112.311
  0
LINE
  8
0
 10
47.3221
 20
-112.311
 11
47.1991
 21
-111.828
  0
LINE
  8
0
 10
47.1991
 20
-111.828
 11
47.1248
 21
-111.335
  0
LINE
  8
0
 10
47.1248
 20
-111.335
 11
47.1
 21
-110.837
  0
LINE
  8
0
 10
47.1
 20
-110.837
 11
47.1248
 21
-110.34
  0
LINE
  8
0
 10
47.1248
 20
-110.34
 11
47.1991
 21
-109.847
  0
LINE
  8
0
 10
47.1991
 20
-109.847
 11
47.3221
 21
-109.364
  0
LINE
  8
0
 10
47.3221
 20
-109.364
 11
47.4926
 21
-108.895
  0
LINE
  8
0
 10
47.4926
 20
-108.895
 11
47.7089
 21
-108.446
  0
LINE
  8
0
 10
47.7089
 20
-108.446
 11
47.9688
 21
-108.021
  0
LINE
  8
0
 10
47.9688
 20
-108.021
 11
48.2698
 21
-107.624
  0
LINE
  8
0
 10
48.2698
 20
-107.624
 11
48.6088
 21
-107.258
  0
LINE
  8
0
 10
48.6088
 20
-107.258
 11
48.9825
 21
-106.928
  0
LINE
  8
0
 10
48.9825
 20
-106.928
 11
49.3873
 21
-106.637
  0
LINE
  8
0
 10
49.3873
 20
-106.637
 11
49.8189
 21
-106.388
  0
LINE
  8
0
 10
49.8189
 20
-106.388
 11
50.2733
 21
-106.183
  0
LINE
  8
0
 10
50.2733
 20
-106.183
 11
50.7458
 21
-106.024
  0
LINE
  8
0
 10
50.7458
 20
-106.024
 11
51.2318
 21
-105.913
  0
LINE
  8
0
 10
51.2318
 20
-105.913
 11
51.7263
 21
-105.851
  0
LINE
  8
0
 10
51.7263
 20
-105.851
 11
52.2246
 21
-105.839
  0
LINE
  8
0
 10
52.2246
 20
-105.839
 11
52.7217
 21
-105.876
  0
LINE
  8
0
 10
52.7217
 20
-105.876
 11
53.2126
 21
-105.963
  0
LINE
  8
0
 10
53.2126
 20
-105.963
 11
53.6924
 21
-106.098
  0
LINE
  8
0
 10
53.6924
 20
-106.098
 11
54.1564
 21
-106.28
  0
LINE
  8
0
 10
54.1564
 20
-106.28
 11
54.6
 21
-106.507
  0
LINE
  8
0
 10
54.6
 20
-106.507
 11
55.0187
 21
-106.778
  0
LINE
  8
0
 10
55.0187
 20
-106.778
 11
55.4084
 21
-107.089
  0
LINE
  8
0
 10
55.4084
 20
-107.089
 11
55.7653
 21
-107.437
  0
LINE
  8
0
 10
55.7653
 20
-107.437
 11
56.0857
 21
-107.818
  0
LINE
  8
0
 10
56.0857
 20
-107.818
 11
56.3665
 21
-108.23
  0
LINE
  8
0
 10
56.3665
 20
-108.23
 11
56.6048
 21
-108.668
  0
LINE
  8
0
 10
56.6048
 20
-108.668
 11
56.7985
 21
-109.127
  0
LINE
  8
0
 10
56.7985
 20
-109.127
 11
56.9404
 21
-109.587
  0
LINE
  8
0
 10
56.9404
 20
-109.587
 11
64.1
 21
-109.587
  0
LINE
  8
0
 10
64.1
 20
-109.587
 11
64.1
 21
-104.337
  0
LINE
  8
0
 10
64.1
 20
-104.337
 11
62.6
 21
-104.337
  0
LINE
  8
0
 10
62.6
 20
-104.337
 11
62.6
 21
-105.837
  0
LINE
  8
0
 10
62.6
 20
-105.837
 11
58.6
 21
-105.837
  0
LINE
  8
0
 10
58.6
 20
-105.837
 11
58.6
 21
-104.615
  0
LINE
  8
0
 10
58.6
 20
-104.615
 11
58.551
 21
-104.562
  0
LINE
  8
0
 10
58.551
 20
-104.562
 11
58.1955
 21
-104.216
  0
LINE
  8
0
 10
58.1955
 20
-104.216
 11
57.8215
 21
-103.89
  0
LINE
  8
0
 10
57.8215
 20
-103.89
 11
57.4301
 21
-103.586
  0
LINE
  8
0
 10
57.4301
 20
-103.586
 11
57.0225
 21
-103.303
  0
LINE
  8
0
 10
57.0225
 20
-103.303
 11
56.6
 21
-103.043
  0
LINE
  8
0
 10
56.6
 20
-103.043
 11
56.1638
 21
-102.807
  0
LINE
  8
0
 10
56.1638
 20
-102.807
 11
55.7153
 21
-102.596
  0
LINE
  8
0
 10
55.7153
 20
-102.596
 11
55.2557
 21
-102.409
  0
LINE
  8
0
 10
55.2557
 20
-102.409
 11
54.7866
 21
-102.248
  0
LINE
  8
0
 10
54.7866
 20
-102.248
 11
54.3094
 21
-102.113
  0
LINE
  8
0
 10
54.3094
 20
-102.113
 11
53.8254
 21
-102.004
  0
LINE
  8
0
 10
53.8254
 20
-102.004
 11
53.3362
 21
-101.923
  0
LINE
  8
0
 10
53.3362
 20
-101.923
 11
52.8432
 21
-101.868
  0
LINE
  8
0
 10
52.8432
 20
-101.868
 11
52.348
 21
-101.841
  0
LINE
  8
0
 10
52.348
 20
-101.841
 11
51.852
 21
-101.841
  0
LINE
  8
0
 10
51.852
 20
-101.841
 11
51.3568
 21
-101.868
  0
LINE
  8
0
 10
51.3568
 20
-101.868
 11
50.8638
 21
-101.923
  0
LINE
  8
0
 10
50.8638
 20
-101.923
 11
50.3746
 21
-102.004
  0
LINE
  8
0
 10
50.3746
 20
-102.004
 11
49.8906
 21
-102.113
  0
LINE
  8
0
 10
49.8906
 20
-102.113
 11
49.7713
 21
-102.147
  0
LINE
  8
0
 10
49.7713
 20
-102.147
 11
49.4867
 21
-101.085
  0
LINE
  8
0
 10
49.4867
 20
-101.085
 11
49.7483
 21
-101.015
  0
LINE
  8
0
 10
49.7483
 20
-101.015
 11
50.2369
 21
-100.911
  0
LINE
  8
0
 10
50.2369
 20
-100.911
 11
50.7301
 21
-100.831
  0
LINE
  8
0
 10
50.7301
 20
-100.831
 11
51.2266
 21
-100.775
  0
LINE
  8
0
 10
51.2266
 20
-100.775
 11
51.7253
 21
-100.744
  0
LINE
  8
0
 10
51.7253
 20
-100.744
 11
52.2249
 21
-100.738
  0
LINE
  8
0
 10
52.2249
 20
-100.738
 11
52.7242
 21
-100.757
  0
LINE
  8
0
 10
52.7242
 20
-100.757
 11
53.222
 21
-100.8
  0
LINE
  8
0
 10
53.222
 20
-100.8
 11
53.717
 21
-100.868
  0
LINE
  8
0
 10
53.717
 20
-100.868
 11
54.2081
 21
-100.96
  0
LINE
  8
0
 10
54.2081
 20
-100.96
 11
54.694
 21
-101.076
  0
LINE
  8
0
 10
54.694
 20
-101.076
 11
55.1735
 21
-101.217
  0
LINE
  8
0
 10
55.1735
 20
-101.217
 11
55.6455
 21
-101.38
  0
LINE
  8
0
 10
55.6455
 20
-101.38
 11
56.1089
 21
-101.567
  0
LINE
  8
0
 10
56.1089
 20
-101.567
 11
56.5624
 21
-101.777
  0
LINE
  8
0
 10
56.5624
 20
-101.777
 11
57.0051
 21
-102.009
  0
LINE
  8
0
 10
57.0051
 20
-102.009
 11
57.4357
 21
-102.262
  0
LINE
  8
0
 10
57.4357
 20
-102.262
 11
57.8533
 21
-102.536
  0
LINE
  8
0
 10
57.8533
 20
-102.536
 11
58.2567
 21
-102.831
  0
LINE
  8
0
 10
58.2567
 20
-102.831
 11
58.6452
 21
-103.145
  0
LINE
  8
0
 10
58.6452
 20
-103.145
 11
58.8601
 21
-103.337
  0
LINE
  8
0
 10
58.8601
 20
-103.337
 11
64.975
 21
-103.337
  0
LINE
  8
0
 10
64.975
 20
-103.337
 11
64.975
 21
-103.837
  0
LINE
  8
0
 10
64.975
 20
-103.837
 11
65.1
 21
-103.837
  0
LINE
  8
0
 10
65.1
 20
-103.837
 11
65.1
 21
-113.555
  0
LINE
  8
0
 10
65.1
 20
-113.555
 11
65.3714
 21
-113.221
  0
LINE
  8
0
 10
65.3714
 20
-113.221
 11
65.7719
 21
-112.938
  0
LINE
  8
0
 10
65.7719
 20
-112.938
 11
66.2338
 21
-112.774
  0
LINE
  8
0
 10
66.2338
 20
-112.774
 11
66.7228
 21
-112.741
  0
LINE
  8
0
 10
66.7228
 20
-112.741
 11
67.2028
 21
-112.84
  0
LINE
  8
0
 10
67.2028
 20
-112.84
 11
67.638
 21
-113.066
  0
LINE
  8
0
 10
67.638
 20
-113.066
 11
67.9963
 21
-113.401
  0
LINE
  8
0
 10
67.9963
 20
-113.401
 11
69.9963
 21
-115.401
  0
LINE
  8
0
 10
69.9963
 20
-115.401
 11
70.251
 21
-115.819
  0
LINE
  8
0
 10
70.251
 20
-115.819
 11
70.3832
 21
-116.291
  0
LINE
  8
0
 10
70.3832
 20
-116.291
 11
70.3832
 21
-116.782
  0
LINE
  8
0
 10
70.3832
 20
-116.782
 11
70.251
 21
-117.254
  0
LINE
  8
0
 10
70.251
 20
-117.254
 11
69.9963
 21
-117.672
  0
LINE
  8
0
 10
69.9963
 20
-117.672
 11
69.638
 21
-118.007
  0
LINE
  8
0
 10
69.638
 20
-118.007
 11
69.2028
 21
-118.233
  0
LINE
  8
0
 10
69.2028
 20
-118.233
 11
68.7228
 21
-118.332
  0
LINE
  8
0
 10
68.7228
 20
-118.332
 11
68.2338
 21
-118.299
  0
LINE
  8
0
 10
68.2338
 20
-118.299
 11
67.7719
 21
-118.135
  0
LINE
  8
0
 10
67.7719
 20
-118.135
 11
67.3714
 21
-117.852
  0
LINE
  8
0
 10
67.3714
 20
-117.852
 11
65.3714
 21
-115.852
  0
LINE
  8
0
 10
65.3714
 20
-115.852
 11
65.1
 21
-115.518
  0
LINE
  8
0
 10
65.1
 20
-115.518
 11
65.1
 21
-117.837
  0
LINE
  8
0
 10
65.1
 20
-117.837
 11
64.975
 21
-117.837
  0
LINE
  8
0
 10
64.975
 20
-117.837
 11
64.975
 21
-118.337
  0
LINE
  8
0
 10
64.975
 20
-118.337
 11
58.8601
 21
-118.337
  0
LINE
  8
0
 10
58.8601
 20
-118.337
 11
58.6452
 21
-118.53
  0
LINE
  8
0
 10
58.6452
 20
-118.53
 11
58.2567
 21
-118.844
  0
LINE
  8
0
 10
58.2567
 20
-118.844
 11
57.8533
 21
-119.139
  0
LINE
  8
0
 10
57.8533
 20
-119.139
 11
57.4357
 21
-119.413
  0
LINE
  8
0
 10
57.4357
 20
-119.413
 11
57.0051
 21
-119.666
  0
LINE
  8
0
 10
57.0051
 20
-119.666
 11
56.5624
 21
-119.898
  0
LINE
  8
0
 10
56.5624
 20
-119.898
 11
56.1089
 21
-120.108
  0
LINE
  8
0
 10
56.1089
 20
-120.108
 11
55.6455
 21
-120.295
  0
LINE
  8
0
 10
55.6455
 20
-120.295
 11
55.1735
 21
-120.458
  0
LINE
  8
0
 10
55.1735
 20
-120.458
 11
54.694
 21
-120.599
  0
LINE
  8
0
 10
54.694
 20
-120.599
 11
54.2081
 21
-120.715
  0
LINE
  8
0
 10
54.2081
 20
-120.715
 11
53.717
 21
-120.807
  0
LINE
  8
0
 10
53.717
 20
-120.807
 11
53.222
 21
-120.875
  0
LINE
  8
0
 10
53.222
 20
-120.875
 11
52.7242
 21
-120.918
  0
LINE
  8
0
 10
52.7242
 20
-120.918
 11
52.2249
 21
-120.937
  0
LINE
  8
0
 10
52.2249
 20
-120.937
 11
51.7253
 21
-120.931
  0
LINE
  8
0
 10
16.8509
 20
-110.688
 11
16.3611
 21
-110.597
  0
LINE
  8
0
 10
16.3611
 20
-110.597
 11
15.8965
 21
-110.417
  0
LINE
  8
0
 10
15.8965
 20
-110.417
 11
15.4729
 21
-110.155
  0
LINE
  8
0
 10
15.4729
 20
-110.155
 11
15.1047
 21
-109.819
  0
LINE
  8
0
 10
15.1047
 20
-109.819
 11
14.8044
 21
-109.421
  0
LINE
  8
0
 10
14.8044
 20
-109.421
 11
14.5823
 21
-108.975
  0
LINE
  8
0
 10
14.5823
 20
-108.975
 11
14.446
 21
-108.496
  0
LINE
  8
0
 10
14.446
 20
-108.496
 11
14.4
 21
-108
  0
LINE
  8
0
 10
14.4
 20
-108
 11
14.446
 21
-107.504
  0
LINE
  8
0
 10
14.446
 20
-107.504
 11
14.5823
 21
-107.025
  0
LINE
  8
0
 10
14.5823
 20
-107.025
 11
14.8044
 21
-106.579
  0
LINE
  8
0
 10
14.8044
 20
-106.579
 11
15.1047
 21
-106.181
  0
LINE
  8
0
 10
15.1047
 20
-106.181
 11
15.4729
 21
-105.845
  0
LINE
  8
0
 10
15.4729
 20
-105.845
 11
15.8965
 21
-105.583
  0
LINE
  8
0
 10
15.8965
 20
-105.583
 11
16.3611
 21
-105.403
  0
LINE
  8
0
 10
16.3611
 20
-105.403
 11
16.8509
 21
-105.312
  0
LINE
  8
0
 10
16.8509
 20
-105.312
 11
17.3491
 21
-105.312
  0
LINE
  8
0
 10
17.3491
 20
-105.312
 11
17.8389
 21
-105.403
  0
LINE
  8
0
 10
17.8389
 20
-105.403
 11
18.3035
 21
-105.583
  0
LINE
  8
0
 10
18.3035
 20
-105.583
 11
18.7271
 21
-105.845
  0
LINE
  8
0
 10
18.7271
 20
-105.845
 11
19.0953
 21
-106.181
  0
LINE
  8
0
 10
19.0953
 20
-106.181
 11
19.3956
 21
-106.579
  0
LINE
  8
0
 10
19.3956
 20
-106.579
 11
19.6177
 21
-107.025
  0
LINE
  8
0
 10
19.6177
 20
-107.025
 11
19.754
 21
-107.504
  0
LINE
  8
0
 10
19.754
 20
-107.504
 11
19.8
 21
-108
  0
LINE
  8
0
 10
19.8
 20
-108
 11
19.754
 21
-108.496
  0
LINE
  8
0
 10
19.754
 20
-108.496
 11
19.6177
 21
-108.975
  0
LINE
  8
0
 10
19.6177
 20
-108.975
 11
19.3956
 21
-109.421
  0
LINE
  8
0
 10
19.3956
 20
-109.421
 11
19.0953
 21
-109.819
  0
LINE
  8
0
 10
19.0953
 20
-109.819
 11
18.7271
 21
-110.155
  0
LINE
  8
0
 10
18.7271
 20
-110.155
 11
18.3035
 21
-110.417
  0
LINE
  8
0
 10
18.3035
 20
-110.417
 11
17.8389
 21
-110.597
  0
LINE
  8
0
 10
17.8389
 20
-110.597
 11
17.3491
 21
-110.688
  0
LINE
  8
0
 10
17.3491
 20
-110.688
 11
16.8509
 21
-110.688
  0
LINE
  8
0
 10
97.3549
 20
-118.32
 11
96.8829
 21
-118.187
  0
LINE
  8
0
 10
96.8829
 20
-118.187
 11
96.464
 21
-117.933
  0
LINE
  8
0
 10
96.464
 20
-117.933
 11
96.1295
 21
-117.575
  0
LINE
  8
0
 10
96.1295
 20
-117.575
 11
95.9039
 21
-117.139
  0
LINE
  8
0
 10
95.9039
 20
-117.139
 11
95.8042
 21
-116.659
  0
LINE
  8
0
 10
95.8042
 20
-116.659
 11
95.8376
 21
-116.17
  0
LINE
  8
0
 10
95.8376
 20
-116.17
 11
96.0018
 21
-115.708
  0
LINE
  8
0
 10
96.0018
 20
-115.708
 11
96.2845
 21
-115.308
  0
LINE
  8
0
 10
96.2845
 20
-115.308
 11
98.2845
 21
-113.308
  0
LINE
  8
0
 10
98.2845
 20
-113.308
 11
98.6647
 21
-112.999
  0
LINE
  8
0
 10
98.6647
 20
-112.999
 11
99.1144
 21
-112.803
  0
LINE
  8
0
 10
99.1144
 20
-112.803
 11
99.6
 21
-112.737
  0
LINE
  8
0
 10
99.6
 20
-112.737
 11
100.086
 21
-112.803
  0
LINE
  8
0
 10
100.086
 20
-112.803
 11
100.535
 21
-112.999
  0
LINE
  8
0
 10
100.535
 20
-112.999
 11
100.915
 21
-113.308
  0
LINE
  8
0
 10
100.915
 20
-113.308
 11
101.198
 21
-113.708
  0
LINE
  8
0
 10
101.198
 20
-113.708
 11
101.362
 21
-114.17
  0
LINE
  8
0
 10
101.362
 20
-114.17
 11
101.396
 21
-114.659
  0
LINE
  8
0
 10
101.396
 20
-114.659
 11
101.296
 21
-115.139
  0
LINE
  8
0
 10
101.296
 20
-115.139
 11
101.071
 21
-115.575
  0
LINE
  8
0
 10
101.071
 20
-115.575
 11
100.736
 21
-115.933
  0
LINE
  8
0
 10
100.736
 20
-115.933
 11
98.7359
 21
-117.933
  0
LINE
  8
0
 10
98.7359
 20
-117.933
 11
98.3171
 21
-118.187
  0
LINE
  8
0
 10
98.3171
 20
-118.187
 11
97.8451
 21
-118.32
  0
LINE
  8
0
 10
97.8451
 20
-118.32
 11
97.3549
 21
-118.32
  0
LINE
  8
0
 10
82.7256
 20
-143.031
 11
82.2269
 21
-143.005
  0
LINE
  8
0
 10
82.2269
 20
-143.005
 11
81.7298
 21
-142.958
  0
LINE
  8
0
 10
81.7298
 20
-142.958
 11
81.2351
 21
-142.891
  0
LINE
  8
0
 10
81.2351
 20
-142.891
 11
80.7436
 21
-142.803
  0
LINE
  8
0
 10
80.7436
 20
-142.803
 11
80.2562
 21
-142.695
  0
LINE
  8
0
 10
80.2562
 20
-142.695
 11
79.7737
 21
-142.566
  0
LINE
  8
0
 10
79.7737
 20
-142.566
 11
79.297
 21
-142.418
  0
LINE
  8
0
 10
79.297
 20
-142.418
 11
78.8268
 21
-142.25
  0
LINE
  8
0
 10
78.8268
 20
-142.25
 11
78.364
 21
-142.062
  0
LINE
  8
0
 10
78.364
 20
-142.062
 11
77.9095
 21
-141.856
  0
LINE
  8
0
 10
77.9095
 20
-141.856
 11
77.4639
 21
-141.631
  0
LINE
  8
0
 10
77.4639
 20
-141.631
 11
77.0281
 21
-141.387
  0
LINE
  8
0
 10
77.0281
 20
-141.387
 11
76.6028
 21
-141.125
  0
LINE
  8
0
 10
76.6028
 20
-141.125
 11
76.1887
 21
-140.846
  0
LINE
  8
0
 10
76.1887
 20
-140.846
 11
75.7866
 21
-140.55
  0
LINE
  8
0
 10
75.7866
 20
-140.55
 11
75.3972
 21
-140.238
  0
LINE
  8
0
 10
75.3972
 20
-140.238
 11
75.0211
 21
-139.91
  0
LINE
  8
0
 10
75.0211
 20
-139.91
 11
74.659
 21
-139.566
  0
LINE
  8
0
 10
74.659
 20
-139.566
 11
74.3115
 21
-139.207
  0
LINE
  8
0
 10
74.3115
 20
-139.207
 11
73.9792
 21
-138.835
  0
LINE
  8
0
 10
73.9792
 20
-138.835
 11
73.6627
 21
-138.448
  0
LINE
  8
0
 10
73.6627
 20
-138.448
 11
73.3625
 21
-138.049
  0
LINE
  8
0
 10
73.3625
 20
-138.049
 11
73.0792
 21
-137.638
  0
LINE
  8
0
 10
73.0792
 20
-137.638
 11
72.8133
 21
-137.216
  0
LINE
  8
0
 10
72.8133
 20
-137.216
 11
72.5651
 21
-136.783
  0
LINE
  8
0
 10
72.5651
 20
-136.783
 11
72.3352
 21
-136.339
  0
LINE
  8
0
 10
72.3352
 20
-136.339
 11
72.1239
 21
-135.887
  0
LINE
  8
0
 10
72.1239
 20
-135.887
 11
71.9317
 21
-135.426
  0
LINE
  8
0
 10
71.9317
 20
-135.426
 11
71.7587
 21
-134.958
  0
LINE
  8
0
 10
71.7587
 20
-134.958
 11
71.6055
 21
-134.483
  0
LINE
  8
0
 10
71.6055
 20
-134.483
 11
71.472
 21
-134.001
  0
LINE
  8
0
 10
71.472
 20
-134.001
 11
71.3588
 21
-133.515
  0
LINE
  8
0
 10
71.3588
 20
-133.515
 11
71.2658
 21
-133.025
  0
LINE
  8
0
 10
71.2658
 20
-133.025
 11
71.1934
 21
-132.531
  0
LINE
  8
0
 10
71.1934
 20
-132.531
 11
71.1415
 21
-132.034
  0
LINE
  8
0
 10
71.1415
 20
-132.034
 11
71.1104
 21
-131.536
  0
LINE
  8
0
 10
71.1104
 20
-131.536
 11
71.1
 21
-131.037
  0
LINE
  8
0
 10
71.1
 20
-131.037
 11
71.1104
 21
-130.537
  0
LINE
  8
0
 10
71.1104
 20
-130.537
 11
71.1415
 21
-130.039
  0
LINE
  8
0
 10
71.1415
 20
-130.039
 11
71.1934
 21
-129.542
  0
LINE
  8
0
 10
71.1934
 20
-129.542
 11
71.2658
 21
-129.048
  0
LINE
  8
0
 10
71.2658
 20
-129.048
 11
71.3588
 21
-128.558
  0
LINE
  8
0
 10
71.3588
 20
-128.558
 11
71.472
 21
-128.072
  0
LINE
  8
0
 10
71.472
 20
-128.072
 11
71.6055
 21
-127.59
  0
LINE
  8
0
 10
71.6055
 20
-127.59
 11
71.7587
 21
-127.115
  0
LINE
  8
0
 10
71.7587
 20
-127.115
 11
71.9317
 21
-126.647
  0
LINE
  8
0
 10
71.9317
 20
-126.647
 11
72.1239
 21
-126.186
  0
LINE
  8
0
 10
72.1239
 20
-126.186
 11
72.3352
 21
-125.734
  0
LINE
  8
0
 10
72.3352
 20
-125.734
 11
72.5651
 21
-125.29
  0
LINE
  8
0
 10
72.5651
 20
-125.29
 11
72.8133
 21
-124.857
  0
LINE
  8
0
 10
72.8133
 20
-124.857
 11
73.0792
 21
-124.435
  0
LINE
  8
0
 10
73.0792
 20
-124.435
 11
73.3625
 21
-124.024
  0
LINE
  8
0
 10
73.3625
 20
-124.024
 11
73.6627
 21
-123.625
  0
LINE
  8
0
 10
73.6627
 20
-123.625
 11
73.9792
 21
-123.238
  0
LINE
  8
0
 10
73.9792
 20
-123.238
 11
74.3115
 21
-122.866
  0
LINE
  8
0
 10
74.3115
 20
-122.866
 11
74.659
 21
-122.507
  0
LINE
  8
0
 10
74.659
 20
-122.507
 11
75.0211
 21
-122.163
  0
LINE
  8
0
 10
75.0211
 20
-122.163
 11
75.3972
 21
-121.835
  0
LINE
  8
0
 10
75.3972
 20
-121.835
 11
75.7866
 21
-121.523
  0
LINE
  8
0
 10
75.7866
 20
-121.523
 11
76.1887
 21
-121.227
  0
LINE
  8
0
 10
76.1887
 20
-121.227
 11
76.6028
 21
-120.948
  0
LINE
  8
0
 10
76.6028
 20
-120.948
 11
77.0281
 21
-120.686
  0
LINE
  8
0
 10
77.0281
 20
-120.686
 11
77.4639
 21
-120.442
  0
LINE
  8
0
 10
77.4639
 20
-120.442
 11
77.9095
 21
-120.217
  0
LINE
  8
0
 10
77.9095
 20
-120.217
 11
78.364
 21
-120.011
  0
LINE
  8
0
 10
78.364
 20
-120.011
 11
78.8268
 21
-119.823
  0
LINE
  8
0
 10
78.8268
 20
-119.823
 11
79.297
 21
-119.655
  0
LINE
  8
0
 10
79.297
 20
-119.655
 11
79.7737
 21
-119.507
  0
LINE
  8
0
 10
79.7737
 20
-119.507
 11
80.2562
 21
-119.378
  0
LINE
  8
0
 10
80.2562
 20
-119.378
 11
80.7436
 21
-119.27
  0
LINE
  8
0
 10
80.7436
 20
-119.27
 11
81.2351
 21
-119.182
  0
LINE
  8
0
 10
81.2351
 20
-119.182
 11
81.7298
 21
-119.115
  0
LINE
  8
0
 10
81.7298
 20
-119.115
 11
82.2269
 21
-119.068
  0
LINE
  8
0
 10
82.2269
 20
-119.068
 11
82.7256
 21
-119.042
  0
LINE
  8
0
 10
82.7256
 20
-119.042
 11
83.2248
 21
-119.037
  0
LINE
  8
0
 10
83.2248
 20
-119.037
 11
83.7239
 21
-119.053
  0
LINE
  8
0
 10
83.7239
 20
-119.053
 11
84.2218
 21
-119.089
  0
LINE
  8
0
 10
84.2218
 20
-119.089
 11
84.7179
 21
-119.146
  0
LINE
  8
0
 10
84.7179
 20
-119.146
 11
85.2111
 21
-119.224
  0
LINE
  8
0
 10
85.2111
 20
-119.224
 11
85.7007
 21
-119.322
  0
LINE
  8
0
 10
85.7007
 20
-119.322
 11
86.1857
 21
-119.44
  0
LINE
  8
0
 10
86.1857
 20
-119.44
 11
86.6655
 21
-119.578
  0
LINE
  8
0
 10
86.6655
 20
-119.578
 11
87.139
 21
-119.737
  0
LINE
  8
0
 10
87.139
 20
-119.737
 11
87.6056
 21
-119.914
  0
LINE
  8
0
 10
87.6056
 20
-119.914
 11
88.0643
 21
-120.112
  0
LINE
  8
0
 10
88.0643
 20
-120.112
 11
88.5145
 21
-120.327
  0
LINE
  8
0
 10
88.5145
 20
-120.327
 11
88.9553
 21
-120.562
  0
LINE
  8
0
 10
88.9553
 20
-120.562
 11
89.3859
 21
-120.815
  0
LINE
  8
0
 10
89.3859
 20
-120.815
 11
89.8057
 21
-121.085
  0
LINE
  8
0
 10
89.8057
 20
-121.085
 11
90.2139
 21
-121.373
  0
LINE
  8
0
 10
90.2139
 20
-121.373
 11
90.6097
 21
-121.677
  0
LINE
  8
0
 10
90.6097
 20
-121.677
 11
90.9926
 21
-121.997
  0
LINE
  8
0
 10
90.9926
 20
-121.997
 11
91.3618
 21
-122.333
  0
LINE
  8
0
 10
91.3618
 20
-122.333
 11
91.7166
 21
-122.685
  0
LINE
  8
0
 10
91.7166
 20
-122.685
 11
92.0566
 21
-123.05
  0
LINE
  8
0
 10
92.0566
 20
-123.05
 11
92.3811
 21
-123.43
  0
LINE
  8
0
 10
92.3811
 20
-123.43
 11
92.6895
 21
-123.822
  0
LINE
  8
0
 10
92.6895
 20
-123.822
 11
92.9812
 21
-124.228
  0
LINE
  8
0
 10
92.9812
 20
-124.228
 11
93.2559
 21
-124.645
  0
LINE
  8
0
 10
93.2559
 20
-124.645
 11
93.513
 21
-125.073
  0
LINE
  8
0
 10
93.513
 20
-125.073
 11
93.7521
 21
-125.511
  0
LINE
  8
0
 10
93.7521
 20
-125.511
 11
93.9728
 21
-125.959
  0
LINE
  8
0
 10
93.9728
 20
-125.959
 11
94.1746
 21
-126.415
  0
LINE
  8
0
 10
94.1746
 20
-126.415
 11
94.3572
 21
-126.88
  0
LINE
  8
0
 10
94.3572
 20
-126.88
 11
94.5204
 21
-127.352
  0
LINE
  8
0
 10
94.5204
 20
-127.352
 11
94.6637
 21
-127.83
  0
LINE
  8
0
 10
94.6637
 20
-127.83
 11
94.7871
 21
-128.314
  0
LINE
  8
0
 10
94.7871
 20
-128.314
 11
94.8902
 21
-128.803
  0
LINE
  8
0
 10
94.8902
 20
-128.803
 11
94.973
 21
-129.295
  0
LINE
  8
0
 10
94.973
 20
-129.295
 11
95.0351
 21
-129.79
  0
LINE
  8
0
 10
95.0351
 20
-129.79
 11
95.0766
 21
-130.288
  0
LINE
  8
0
 10
95.0766
 20
-130.288
 11
95.0974
 21
-130.787
  0
LINE
  8
0
 10
95.0974
 20
-130.787
 11
95.0974
 21
-131.286
  0
LINE
  8
0
 10
95.0974
 20
-131.286
 11
95.0766
 21
-131.785
  0
LINE
  8
0
 10
95.0766
 20
-131.785
 11
95.0351
 21
-132.283
  0
LINE
  8
0
 10
95.0351
 20
-132.283
 11
94.973
 21
-132.778
  0
LINE
  8
0
 10
94.973
 20
-132.778
 11
94.8902
 21
-133.27
  0
LINE
  8
0
 10
94.8902
 20
-133.27
 11
94.7871
 21
-133.759
  0
LINE
  8
0
 10
94.7871
 20
-133.759
 11
94.6637
 21
-134.243
  0
LINE
  8
0
 10
94.6637
 20
-134.243
 11
94.5204
 21
-134.721
  0
LINE
  8
0
 10
94.5204
 20
-134.721
 11
94.3572
 21
-135.193
  0
LINE
  8
0
 10
94.3572
 20
-135.193
 11
94.1746
 21
-135.658
  0
LINE
  8
0
 10
94.1746
 20
-135.658
 11
93.9728
 21
-136.114
  0
LINE
  8
0
 10
93.9728
 20
-136.114
 11
93.7521
 21
-136.562
  0
LINE
  8
0
 10
93.7521
 20
-136.562
 11
93.513
 21
-137
  0
LINE
  8
0
 10
93.513
 20
-137
 11
93.2559
 21
-137.428
  0
LINE
  8
0
 10
93.2559
 20
-137.428
 11
92.9812
 21
-137.845
  0
LINE
  8
0
 10
92.9812
 20
-137.845
 11
92.6895
 21
-138.251
  0
LINE
  8
0
 10
92.6895
 20
-138.251
 11
92.3811
 21
-138.643
  0
LINE
  8
0
 10
92.3811
 20
-138.643
 11
92.0566
 21
-139.023
  0
LINE
  8
0
 10
92.0566
 20
-139.023
 11
91.7166
 21
-139.388
  0
LINE
  8
0
 10
91.7166
 20
-139.388
 11
91.3618
 21
-139.74
  0
LINE
  8
0
 10
91.3618
 20
-139.74
 11
90.9926
 21
-140.076
  0
LINE
  8
0
 10
90.9926
 20
-140.076
 11
90.6097
 21
-140.396
  0
LINE
  8
0
 10
90.6097
 20
-140.396
 11
90.2139
 21
-140.701
  0
LINE
  8
0
 10
90.2139
 20
-140.701
 11
89.8057
 21
-140.988
  0
LINE
  8
0
 10
89.8057
 20
-140.988
 11
89.3859
 21
-141.258
  0
LINE
  8
0
 10
89.3859
 20
-141.258
 11
88.9553
 21
-141.511
  0
LINE
  8
0
 10
88.9553
 20
-141.511
 11
88.5145
 21
-141.746
  0
LINE
  8
0
 10
88.5145
 20
-141.746
 11
88.0643
 21
-141.962
  0
LINE
  8
0
 10
88.0643
 20
-141.962
 11
87.6056
 21
-142.159
  0
LINE
  8
0
 10
87.6056
 20
-142.159
 11
87.139
 21
-142.336
  0
LINE
  8
0
 10
87.139
 20
-142.336
 11
86.6655
 21
-142.495
  0
LINE
  8
0
 10
86.6655
 20
-142.495
 11
86.1857
 21
-142.633
  0
LINE
  8
0
 10
86.1857
 20
-142.633
 11
85.7007
 21
-142.751
  0
LINE
  8
0
 10
85.7007
 20
-142.751
 11
85.2111
 21
-142.849
  0
LINE
  8
0
 10
85.2111
 20
-142.849
 11
84.7179
 21
-142.927
  0
LINE
  8
0
 10
84.7179
 20
-142.927
 11
84.2218
 21
-142.984
  0
LINE
  8
0
 10
84.2218
 20
-142.984
 11
83.7239
 21
-143.02
  0
LINE
  8
0
 10
83.7239
 20
-143.02
 11
83.2248
 21
-143.036
  0
LINE
  8
0
 10
83.2248
 20
-143.036
 11
82.7256
 21
-143.031
  0
LINE
  8
0
 10
36.8509
 20
-140.688
 11
36.3611
 21
-140.597
  0
LINE
  8
0
 10
36.3611
 20
-140.597
 11
35.8965
 21
-140.417
  0
LINE
  8
0
 10
35.8965
 20
-140.417
 11
35.4729
 21
-140.155
  0
LINE
  8
0
 10
35.4729
 20
-140.155
 11
35.1047
 21
-139.819
  0
LINE
  8
0
 10
35.1047
 20
-139.819
 11
34.8044
 21
-139.421
  0
LINE
  8
0
 10
34.8044
 20
-139.421
 11
34.5823
 21
-138.975
  0
LINE
  8
0
 10
34.5823
 20
-138.975
 11
34.446
 21
-138.496
  0
LINE
  8
0
 10
34.446
 20
-138.496
 11
34.4
 21
-138
  0
LINE
  8
0
 10
34.4
 20
-138
 11
34.446
 21
-137.504
  0
LINE
  8
0
 10
34.446
 20
-137.504
 11
34.5823
 21
-137.025
  0
LINE
  8
0
 10
34.5823
 20
-137.025
 11
34.8044
 21
-136.579
  0
LINE
  8
0
 10
34.8044
 20
-136.579
 11
35.1047
 21
-136.181
  0
LINE
  8
0
 10
35.1047
 20
-136.181
 11
35.4729
 21
-135.845
  0
LINE
  8
0
 10
35.4729
 20
-135.845
 11
35.8965
 21
-135.583
  0
LINE
  8
0
 10
35.8965
 20
-135.583
 11
36.3611
 21
-135.403
  0
LINE
  8
0
 10
36.3611
 20
-135.403
 11
36.8509
 21
-135.312
  0
LINE
  8
0
 10
36.8509
 20
-135.312
 11
37.3491
 21
-135.312
  0
LINE
  8
0
 10
37.3491
 20
-135.312
 11
37.8389
 21
-135.403
  0
LINE
  8
0
 10
37.8389
 20
-135.403
 11
38.3035
 21
-135.583
  0
LINE
  8
0
 10
38.3035
 20
-135.583
 11
38.7271
 21
-135.845
  0
LINE
  8
0
 10
38.7271
 20
-135.845
 11
39.0953
 21
-136.181
  0
LINE
  8
0
 10
39.0953
 20
-136.181
 11
39.3956
 21
-136.579
  0
LINE
  8
0
 10
39.3956
 20
-136.579
 11
39.6177
 21
-137.025
  0
LINE
  8
0
 10
39.6177
 20
-137.025
 11
39.754
 21
-137.504
  0
LINE
  8
0
 10
39.754
 20
-137.504
 11
39.8
 21
-138
  0
LINE
  8
0
 10
39.8
 20
-138
 11
39.754
 21
-138.496
  0
LINE
  8
0
 10
39.754
 20
-138.496
 11
39.6177
 21
-138.975
  0
LINE
  8
0
 10
39.6177
 20
-138.975
 11
39.3956
 21
-139.421
  0
LINE
  8
0
 10
39.3956
 20
-139.421
 11
39.0953
 21
-139.819
  0
LINE
  8
0
 10
39.0953
 20
-139.819
 11
38.7271
 21
-140.155
  0
LINE
  8
0
 10
38.7271
 20
-140.155
 11
38.3035
 21
-140.417
  0
LINE
  8
0
 10
38.3035
 20
-140.417
 11
37.8389
 21
-140.597
  0
LINE
  8
0
 10
37.8389
 20
-140.597
 11
37.3491
 21
-140.688
  0
LINE
  8
0
 10
37.3491
 20
-140.688
 11
36.8509
 21
-140.688
  0
LINE
  8
0
 10
98.9972
 20
-149.233
 11
98.562
 21
-149.007
  0
LINE
  8
0
 10
98.562
 20
-149.007
 11
98.2037
 21
-148.672
  0
LINE
  8
0
 10
98.2037
 20
-148.672
 11
96.2037
 21
-146.672
  0
LINE
  8
0
 10
96.2037
 20
-146.672
 11
95.949
 21
-146.254
  0
LINE
  8
0
 10
95.949
 20
-146.254
 11
95.8168
 21
-145.782
  0
LINE
  8
0
 10
95.8168
 20
-145.782
 11
95.8168
 21
-145.291
  0
LINE
  8
0
 10
95.8168
 20
-145.291
 11
95.949
 21
-144.819
  0
LINE
  8
0
 10
95.949
 20
-144.819
 11
96.2037
 21
-144.401
  0
LINE
  8
0
 10
96.2037
 20
-144.401
 11
96.562
 21
-144.066
  0
LINE
  8
0
 10
96.562
 20
-144.066
 11
96.9972
 21
-143.84
  0
LINE
  8
0
 10
96.9972
 20
-143.84
 11
97.4772
 21
-143.741
  0
LINE
  8
0
 10
97.4772
 20
-143.741
 11
97.9662
 21
-143.774
  0
LINE
  8
0
 10
97.9662
 20
-143.774
 11
98.4281
 21
-143.938
  0
LINE
  8
0
 10
98.4281
 20
-143.938
 11
98.8286
 21
-144.221
  0
LINE
  8
0
 10
98.8286
 20
-144.221
 11
100.829
 21
-146.221
  0
LINE
  8
0
 10
100.829
 20
-146.221
 11
101.138
 21
-146.601
  0
LINE
  8
0
 10
101.138
 20
-146.601
 11
101.333
 21
-147.051
  0
LINE
  8
0
 10
101.333
 20
-147.051
 11
101.4
 21
-147.537
  0
LINE
  8
0
 10
101.4
 20
-147.537
 11
101.333
 21
-148.022
  0
LINE
  8
0
 10
101.333
 20
-148.022
 11
101.138
 21
-148.472
  0
LINE
  8
0
 10
101.138
 20
-148.472
 11
100.829
 21
-148.852
  0
LINE
  8
0
 10
100.829
 20
-148.852
 11
100.428
 21
-149.135
  0
LINE
  8
0
 10
100.428
 20
-149.135
 11
99.9662
 21
-149.299
  0
LINE
  8
0
 10
99.9662
 20
-149.299
 11
99.4772
 21
-149.332
  0
LINE
  8
0
 10
99.4772
 20
-149.332
 11
98.9972
 21
-149.233
  0
LINE
  8
0
 10
66.1144
 20
-149.27
 11
65.6647
 21
-149.074
  0
LINE
  8
0
 10
65.6647
 20
-149.074
 11
65.2845
 21
-148.765
  0
LINE
  8
0
 10
65.2845
 20
-148.765
 11
65.0018
 21
-148.365
  0
LINE
  8
0
 10
65.0018
 20
-148.365
 11
64.8376
 21
-147.903
  0
LINE
  8
0
 10
64.8376
 20
-147.903
 11
64.8042
 21
-147.414
  0
LINE
  8
0
 10
64.8042
 20
-147.414
 11
64.9039
 21
-146.934
  0
LINE
  8
0
 10
64.9039
 20
-146.934
 11
65.1295
 21
-146.498
  0
LINE
  8
0
 10
65.1295
 20
-146.498
 11
65.464
 21
-146.14
  0
LINE
  8
0
 10
65.464
 20
-146.14
 11
67.464
 21
-144.14
  0
LINE
  8
0
 10
67.464
 20
-144.14
 11
67.8829
 21
-143.886
  0
LINE
  8
0
 10
67.8829
 20
-143.886
 11
68.3549
 21
-143.753
  0
LINE
  8
0
 10
68.3549
 20
-143.753
 11
68.8451
 21
-143.753
  0
LINE
  8
0
 10
68.8451
 20
-143.753
 11
69.3171
 21
-143.886
  0
LINE
  8
0
 10
69.3171
 20
-143.886
 11
69.736
 21
-144.14
  0
LINE
  8
0
 10
69.736
 20
-144.14
 11
70.0705
 21
-144.498
  0
LINE
  8
0
 10
70.0705
 20
-144.498
 11
70.2961
 21
-144.934
  0
LINE
  8
0
 10
70.2961
 20
-144.934
 11
70.3958
 21
-145.414
  0
LINE
  8
0
 10
70.3958
 20
-145.414
 11
70.3624
 21
-145.903
  0
LINE
  8
0
 10
70.3624
 20
-145.903
 11
70.1982
 21
-146.365
  0
LINE
  8
0
 10
70.1982
 20
-146.365
 11
69.9155
 21
-146.765
  0
LINE
  8
0
 10
69.9155
 20
-146.765
 11
67.9155
 21
-148.765
  0
LINE
  8
0
 10
67.9155
 20
-148.765
 11
67.5352
 21
-149.074
  0
LINE
  8
0
 10
67.5352
 20
-149.074
 11
67.0856
 21
-149.27
  0
LINE
  8
0
 10
67.0856
 20
-149.27
 11
66.6
 21
-149.337
  0
LINE
  8
0
 10
66.6
 20
-149.337
 11
66.1144
 21
-149.27
  0
LINE
  8
0
 10
52.7253
 20
-172.093
 11
52.2266
 21
-172.062
  0
LINE
  8
0
 10
52.2266
 20
-172.062
 11
51.7301
 21
-172.007
  0
LINE
  8
0
 10
51.7301
 20
-172.007
 11
51.2369
 21
-171.927
  0
LINE
  8
0
 10
51.2369
 20
-171.927
 11
50.7483
 21
-171.822
  0
LINE
  8
0
 10
50.7483
 20
-171.822
 11
50.4867
 21
-171.753
  0
LINE
  8
0
 10
50.4867
 20
-171.753
 11
50.7713
 21
-170.691
  0
LINE
  8
0
 10
50.7713
 20
-170.691
 11
50.8906
 21
-170.725
  0
LINE
  8
0
 10
50.8906
 20
-170.725
 11
51.3746
 21
-170.833
  0
LINE
  8
0
 10
51.3746
 20
-170.833
 11
51.8638
 21
-170.915
  0
LINE
  8
0
 10
51.8638
 20
-170.915
 11
52.3568
 21
-170.969
  0
LINE
  8
0
 10
52.3568
 20
-170.969
 11
52.852
 21
-170.997
  0
LINE
  8
0
 10
52.852
 20
-170.997
 11
53.348
 21
-170.997
  0
LINE
  8
0
 10
53.348
 20
-170.997
 11
53.8432
 21
-170.969
  0
LINE
  8
0
 10
53.8432
 20
-170.969
 11
54.3362
 21
-170.915
  0
LINE
  8
0
 10
54.3362
 20
-170.915
 11
54.8254
 21
-170.833
  0
LINE
  8
0
 10
54.8254
 20
-170.833
 11
55.3094
 21
-170.725
  0
LINE
  8
0
 10
55.3094
 20
-170.725
 11
55.7866
 21
-170.59
  0
LINE
  8
0
 10
55.7866
 20
-170.59
 11
56.2557
 21
-170.429
  0
LINE
  8
0
 10
56.2557
 20
-170.429
 11
56.7153
 21
-170.242
  0
LINE
  8
0
 10
56.7153
 20
-170.242
 11
57.1638
 21
-170.03
  0
LINE
  8
0
 10
57.1638
 20
-170.03
 11
57.6
 21
-169.794
  0
LINE
  8
0
 10
57.6
 20
-169.794
 11
58.0225
 21
-169.535
  0
LINE
  8
0
 10
58.0225
 20
-169.535
 11
58.4301
 21
-169.252
  0
LINE
  8
0
 10
58.4301
 20
-169.252
 11
58.8215
 21
-168.947
  0
LINE
  8
0
 10
58.8215
 20
-168.947
 11
59.1955
 21
-168.622
  0
LINE
  8
0
 10
59.1955
 20
-168.622
 11
59.551
 21
-168.276
  0
LINE
  8
0
 10
59.551
 20
-168.276
 11
59.6
 21
-168.222
  0
LINE
  8
0
 10
59.6
 20
-168.222
 11
59.6
 21
-167
  0
LINE
  8
0
 10
59.6
 20
-167
 11
63.6
 21
-167
  0
LINE
  8
0
 10
63.6
 20
-167
 11
63.6
 21
-168.5
  0
LINE
  8
0
 10
63.6
 20
-168.5
 11
65.1
 21
-168.5
  0
LINE
  8
0
 10
65.1
 20
-168.5
 11
65.1
 21
-163.25
  0
LINE
  8
0
 10
65.1
 20
-163.25
 11
57.9404
 21
-163.25
  0
LINE
  8
0
 10
57.9404
 20
-163.25
 11
57.7985
 21
-163.71
  0
LINE
  8
0
 10
57.7985
 20
-163.71
 11
57.6048
 21
-164.169
  0
LINE
  8
0
 10
57.6048
 20
-164.169
 11
57.3665
 21
-164.607
  0
LINE
  8
0
 10
57.3665
 20
-164.607
 11
57.0857
 21
-165.019
  0
LINE
  8
0
 10
57.0857
 20
-165.019
 11
56.7653
 21
-165.401
  0
LINE
  8
0
 10
56.7653
 20
-165.401
 11
56.4084
 21
-165.749
  0
LINE
  8
0
 10
56.4084
 20
-165.749
 11
56.0187
 21
-166.06
  0
LINE
  8
0
 10
56.0187
 20
-166.06
 11
55.6
 21
-166.33
  0
LINE
  8
0
 10
55.6
 20
-166.33
 11
55.1564
 21
-166.558
  0
LINE
  8
0
 10
55.1564
 20
-166.558
 11
54.6924
 21
-166.74
  0
LINE
  8
0
 10
54.6924
 20
-166.74
 11
54.2126
 21
-166.875
  0
LINE
  8
0
 10
54.2126
 20
-166.875
 11
53.7217
 21
-166.961
  0
LINE
  8
0
 10
53.7217
 20
-166.961
 11
53.2246
 21
-166.998
  0
LINE
  8
0
 10
53.2246
 20
-166.998
 11
52.7263
 21
-166.986
  0
LINE
  8
0
 10
52.7263
 20
-166.986
 11
52.2318
 21
-166.924
  0
LINE
  8
0
 10
52.2318
 20
-166.924
 11
51.7458
 21
-166.813
  0
LINE
  8
0
 10
51.7458
 20
-166.813
 11
51.2733
 21
-166.654
  0
LINE
  8
0
 10
51.2733
 20
-166.654
 11
50.8189
 21
-166.449
  0
LINE
  8
0
 10
50.8189
 20
-166.449
 11
50.3873
 21
-166.2
  0
LINE
  8
0
 10
50.3873
 20
-166.2
 11
49.9825
 21
-165.909
  0
LINE
  8
0
 10
49.9825
 20
-165.909
 11
49.6088
 21
-165.579
  0
LINE
  8
0
 10
49.6088
 20
-165.579
 11
49.2698
 21
-165.214
  0
LINE
  8
0
 10
49.2698
 20
-165.214
 11
48.9688
 21
-164.817
  0
LINE
  8
0
 10
48.9688
 20
-164.817
 11
48.7089
 21
-164.391
  0
LINE
  8
0
 10
48.7089
 20
-164.391
 11
48.4926
 21
-163.942
  0
LINE
  8
0
 10
48.4926
 20
-163.942
 11
48.3221
 21
-163.474
  0
LINE
  8
0
 10
48.3221
 20
-163.474
 11
48.1991
 21
-162.991
  0
LINE
  8
0
 10
48.1991
 20
-162.991
 11
48.1248
 21
-162.498
  0
LINE
  8
0
 10
48.1248
 20
-162.498
 11
48.1
 21
-162
  0
LINE
  8
0
 10
48.1
 20
-162
 11
48.1248
 21
-161.502
  0
LINE
  8
0
 10
48.1248
 20
-161.502
 11
48.1991
 21
-161.009
  0
LINE
  8
0
 10
48.1991
 20
-161.009
 11
48.3221
 21
-160.526
  0
LINE
  8
0
 10
48.3221
 20
-160.526
 11
48.4926
 21
-160.058
  0
LINE
  8
0
 10
48.4926
 20
-160.058
 11
48.7089
 21
-159.609
  0
LINE
  8
0
 10
48.7089
 20
-159.609
 11
48.9688
 21
-159.183
  0
LINE
  8
0
 10
48.9688
 20
-159.183
 11
49.2698
 21
-158.786
  0
LINE
  8
0
 10
49.2698
 20
-158.786
 11
49.6088
 21
-158.421
  0
LINE
  8
0
 10
49.6088
 20
-158.421
 11
49.9825
 21
-158.091
  0
LINE
  8
0
 10
49.9825
 20
-158.091
 11
50.3873
 21
-157.8
  0
LINE
  8
0
 10
50.3873
 20
-157.8
 11
50.8189
 21
-157.551
  0
LINE
  8
0
 10
50.8189
 20
-157.551
 11
51.2733
 21
-157.346
  0
LINE
  8
0
 10
51.2733
 20
-157.346
 11
51.7458
 21
-157.187
  0
LINE
  8
0
 10
51.7458
 20
-157.187
 11
52.2318
 21
-157.076
  0
LINE
  8
0
 10
52.2318
 20
-157.076
 11
52.7263
 21
-157.014
  0
LINE
  8
0
 10
52.7263
 20
-157.014
 11
53.2246
 21
-157.002
  0
LINE
  8
0
 10
53.2246
 20
-157.002
 11
53.7217
 21
-157.039
  0
LINE
  8
0
 10
53.7217
 20
-157.039
 11
54.2126
 21
-157.125
  0
LINE
  8
0
 10
54.2126
 20
-157.125
 11
54.6924
 21
-157.26
  0
LINE
  8
0
 10
54.6924
 20
-157.26
 11
55.1564
 21
-157.442
  0
LINE
  8
0
 10
55.1564
 20
-157.442
 11
55.6
 21
-157.67
  0
LINE
  8
0
 10
55.6
 20
-157.67
 11
56.0187
 21
-157.94
  0
LINE
  8
0
 10
56.0187
 20
-157.94
 11
56.4084
 21
-158.251
  0
LINE
  8
0
 10
56.4084
 20
-158.251
 11
56.7653
 21
-158.599
  0
LINE
  8
0
 10
56.7653
 20
-158.599
 11
57.0857
 21
-158.981
  0
LINE
  8
0
 10
57.0857
 20
-158.981
 11
57.3665
 21
-159.393
  0
LINE
  8
0
 10
57.3665
 20
-159.393
 11
57.6048
 21
-159.831
  0
LINE
  8
0
 10
57.6048
 20
-159.831
 11
57.7985
 21
-160.29
  0
LINE
  8
0
 10
57.7985
 20
-160.29
 11
57.9404
 21
-160.75
  0
LINE
  8
0
 10
57.9404
 20
-160.75
 11
65.1
 21
-160.75
  0
LINE
  8
0
 10
65.1
 20
-160.75
 11
65.1
 21
-155.5
  0
LINE
  8
0
 10
65.1
 20
-155.5
 11
63.6
 21
-155.5
  0
LINE
  8
0
 10
63.6
 20
-155.5
 11
63.6
 21
-157
  0
LINE
  8
0
 10
63.6
 20
-157
 11
59.6
 21
-157
  0
LINE
  8
0
 10
59.6
 20
-157
 11
59.6
 21
-155.778
  0
LINE
  8
0
 10
59.6
 20
-155.778
 11
59.551
 21
-155.724
  0
LINE
  8
0
 10
59.551
 20
-155.724
 11
59.1955
 21
-155.378
  0
LINE
  8
0
 10
59.1955
 20
-155.378
 11
58.8215
 21
-155.053
  0
LINE
  8
0
 10
58.8215
 20
-155.053
 11
58.4301
 21
-154.748
  0
LINE
  8
0
 10
58.4301
 20
-154.748
 11
58.0225
 21
-154.465
  0
LINE
  8
0
 10
58.0225
 20
-154.465
 11
57.6
 21
-154.206
  0
LINE
  8
0
 10
57.6
 20
-154.206
 11
57.1638
 21
-153.97
  0
LINE
  8
0
 10
57.1638
 20
-153.97
 11
56.7153
 21
-153.758
  0
LINE
  8
0
 10
56.7153
 20
-153.758
 11
56.2557
 21
-153.571
  0
LINE
  8
0
 10
56.2557
 20
-153.571
 11
55.7866
 21
-153.41
  0
LINE
  8
0
 10
55.7866
 20
-153.41
 11
55.3094
 21
-153.275
  0
LINE
  8
0
 10
55.3094
 20
-153.275
 11
54.8254
 21
-153.167
  0
LINE
  8
0
 10
54.8254
 20
-153.167
 11
54.3362
 21
-153.085
  0
LINE
  8
0
 10
54.3362
 20
-153.085
 11
53.8432
 21
-153.031
  0
LINE
  8
0
 10
53.8432
 20
-153.031
 11
53.348
 21
-153.003
  0
LINE
  8
0
 10
53.348
 20
-153.003
 11
52.852
 21
-153.003
  0
LINE
  8
0
 10
52.852
 20
-153.003
 11
52.3568
 21
-153.031
  0
LINE
  8
0
 10
52.3568
 20
-153.031
 11
51.8638
 21
-153.085
  0
LINE
  8
0
 10
51.8638
 20
-153.085
 11
51.3746
 21
-153.167
  0
LINE
  8
0
 10
51.3746
 20
-153.167
 11
50.8906
 21
-153.275
  0
LINE
  8
0
 10
50.8906
 20
-153.275
 11
50.7713
 21
-153.309
  0
LINE
  8
0
 10
50.7713
 20
-153.309
 11
50.4867
 21
-152.247
  0
LINE
  8
0
 10
50.4867
 20
-152.247
 11
50.7483
 21
-152.178
  0
LINE
  8
0
 10
50.7483
 20
-152.178
 11
51.2369
 21
-152.073
  0
LINE
  8
0
 10
51.2369
 20
-152.073
 11
51.7301
 21
-151.993
  0
LINE
  8
0
 10
51.7301
 20
-151.993
 11
52.2266
 21
-151.938
  0
LINE
  8
0
 10
52.2266
 20
-151.938
 11
52.7253
 21
-151.907
  0
LINE
  8
0
 10
52.7253
 20
-151.907
 11
53.2249
 21
-151.901
  0
LINE
  8
0
 10
53.2249
 20
-151.901
 11
53.7242
 21
-151.919
  0
LINE
  8
0
 10
53.7242
 20
-151.919
 11
54.222
 21
-151.963
  0
LINE
  8
0
 10
54.222
 20
-151.963
 11
54.717
 21
-152.03
  0
LINE
  8
0
 10
54.717
 20
-152.03
 11
55.2081
 21
-152.122
  0
LINE
  8
0
 10
55.2081
 20
-152.122
 11
55.694
 21
-152.239
  0
LINE
  8
0
 10
55.694
 20
-152.239
 11
56.1735
 21
-152.379
  0
LINE
  8
0
 10
56.1735
 20
-152.379
 11
56.6455
 21
-152.543
  0
LINE
  8
0
 10
56.6455
 20
-152.543
 11
57.1089
 21
-152.73
  0
LINE
  8
0
 10
57.1089
 20
-152.73
 11
57.5624
 21
-152.939
  0
LINE
  8
0
 10
57.5624
 20
-152.939
 11
58.0051
 21
-153.171
  0
LINE
  8
0
 10
58.0051
 20
-153.171
 11
58.4357
 21
-153.424
  0
LINE
  8
0
 10
58.4357
 20
-153.424
 11
58.8533
 21
-153.699
  0
LINE
  8
0
 10
58.8533
 20
-153.699
 11
59.2567
 21
-153.993
  0
LINE
  8
0
 10
59.2567
 20
-153.993
 11
59.6452
 21
-154.308
  0
LINE
  8
0
 10
59.6452
 20
-154.308
 11
59.8601
 21
-154.5
  0
LINE
  8
0
 10
59.8601
 20
-154.5
 11
65.975
 21
-154.5
  0
LINE
  8
0
 10
65.975
 20
-154.5
 11
65.975
 21
-155
  0
LINE
  8
0
 10
65.975
 20
-155
 11
66.1
 21
-155
  0
LINE
  8
0
 10
66.1
 20
-155
 11
66.1
 21
-169
  0
LINE
  8
0
 10
66.1
 20
-169
 11
65.975
 21
-169
  0
LINE
  8
0
 10
65.975
 20
-169
 11
65.975
 21
-169.5
  0
LINE
  8
0
 10
65.975
 20
-169.5
 11
59.8601
 21
-169.5
  0
LINE
  8
0
 10
59.8601
 20
-169.5
 11
59.6452
 21
-169.692
  0
LINE
  8
0
 10
59.6452
 20
-169.692
 11
59.2567
 21
-170.007
  0
LINE
  8
0
 10
59.2567
 20
-170.007
 11
58.8533
 21
-170.301
  0
LINE
  8
0
 10
58.8533
 20
-170.301
 11
58.4357
 21
-170.576
  0
LINE
  8
0
 10
58.4357
 20
-170.576
 11
58.0051
 21
-170.829
  0
LINE
  8
0
 10
58.0051
 20
-170.829
 11
57.5624
 21
-171.061
  0
LINE
  8
0
 10
57.5624
 20
-171.061
 11
57.1089
 21
-171.27
  0
LINE
  8
0
 10
57.1089
 20
-171.27
 11
56.6455
 21
-171.457
  0
LINE
  8
0
 10
56.6455
 20
-171.457
 11
56.1735
 21
-171.621
  0
LINE
  8
0
 10
56.1735
 20
-171.621
 11
55.694
 21
-171.761
  0
LINE
  8
0
 10
55.694
 20
-171.761
 11
55.2081
 21
-171.878
  0
LINE
  8
0
 10
55.2081
 20
-171.878
 11
54.717
 21
-171.97
  0
LINE
  8
0
 10
54.717
 20
-171.97
 11
54.222
 21
-172.037
  0
LINE
  8
0
 10
54.222
 20
-172.037
 11
53.7242
 21
-172.081
  0
LINE
  8
0
 10
53.7242
 20
-172.081
 11
53.2249
 21
-172.099
  0
LINE
  8
0
 10
53.2249
 20
-172.099
 11
52.7253
 21
-172.093
  0
LINE
  8
0
 10
16.8509
 20
-170.688
 11
16.3611
 21
-170.597
  0
LINE
  8
0
 10
16.3611
 20
-170.597
 11
15.8965
 21
-170.417
  0
LINE
  8
0
 10
15.8965
 20
-170.417
 11
15.4729
 21
-170.155
  0
LINE
  8
0
 10
15.4729
 20
-170.155
 11
15.1047
 21
-169.819
  0
LINE
  8
0
 10
15.1047
 20
-169.819
 11
14.8044
 21
-169.421
  0
LINE
  8
0
 10
14.8044
 20
-169.421
 11
14.5823
 21
-168.975
  0
LINE
  8
0
 10
14.5823
 20
-168.975
 11
14.446
 21
-168.496
  0
LINE
  8
0
 10
14.446
 20
-168.496
 11
14.4
 21
-168
  0
LINE
  8
0
 10
14.4
 20
-168
 11
14.446
 21
-167.504
  0
LINE
  8
0
 10
14.446
 20
-167.504
 11
14.5823
 21
-167.025
  0
LINE
  8
0
 10
14.5823
 20
-167.025
 11
14.8044
 21
-166.579
  0
LINE
  8
0
 10
14.8044
 20
-166.579
 11
15.1047
 21
-166.181
  0
LINE
  8
0
 10
15.1047
 20
-166.181
 11
15.4729
 21
-165.845
  0
LINE
  8
0
 10
15.4729
 20
-165.845
 11
15.8965
 21
-165.583
  0
LINE
  8
0
 10
15.8965
 20
-165.583
 11
16.3611
 21
-165.403
  0
LINE
  8
0
 10
16.3611
 20
-165.403
 11
16.8509
 21
-165.312
  0
LINE
  8
0
 10
16.8509
 20
-165.312
 11
17.3491
 21
-165.312
  0
LINE
  8
0
 10
17.3491
 20
-165.312
 11
17.8389
 21
-165.403
  0
LINE
  8
0
 10
17.8389
 20
-165.403
 11
18.3035
 21
-165.583
  0
LINE
  8
0
 10
18.3035
 20
-165.583
 11
18.7271
 21
-165.845
  0
LINE
  8
0
 10
18.7271
 20
-165.845
 11
19.0953
 21
-166.181
  0
LINE
  8
0
 10
19.0953
 20
-166.181
 11
19.3956
 21
-166.579
  0
LINE
  8
0
 10
19.3956
 20
-166.579
 11
19.6177
 21
-167.025
  0
LINE
  8
0
 10
19.6177
 20
-167.025
 11
19.754
 21
-167.504
  0
LINE
  8
0
 10
19.754
 20
-167.504
 11
19.8
 21
-168
  0
LINE
  8
0
 10
19.8
 20
-168
 11
19.754
 21
-168.496
  0
LINE
  8
0
 10
19.754
 20
-168.496
 11
19.6177
 21
-168.975
  0
LINE
  8
0
 10
19.6177
 20
-168.975
 11
19.3956
 21
-169.421
  0
LINE
  8
0
 10
19.3956
 20
-169.421
 11
19.0953
 21
-169.819
  0
LINE
  8
0
 10
19.0953
 20
-169.819
 11
18.7271
 21
-170.155
  0
LINE
  8
0
 10
18.7271
 20
-170.155
 11
18.3035
 21
-170.417
  0
LINE
  8
0
 10
18.3035
 20
-170.417
 11
17.8389
 21
-170.597
  0
LINE
  8
0
 10
17.8389
 20
-170.597
 11
17.3491
 21
-170.688
  0
LINE
  8
0
 10
17.3491
 20
-170.688
 11
16.8509
 21
-170.688
  0
LINE
  8
0
 10
82.3549
 20
-182.283
 11
81.8829
 21
-182.151
  0
LINE
  8
0
 10
81.8829
 20
-182.151
 11
81.464
 21
-181.896
  0
LINE
  8
0
 10
81.464
 20
-181.896
 11
81.1295
 21
-181.538
  0
LINE
  8
0
 10
81.1295
 20
-181.538
 11
80.9039
 21
-181.103
  0
LINE
  8
0
 10
80.9039
 20
-181.103
 11
80.8042
 21
-180.623
  0
LINE
  8
0
 10
80.8042
 20
-180.623
 11
80.8376
 21
-180.134
  0
LINE
  8
0
 10
80.8376
 20
-180.134
 11
81.0018
 21
-179.672
  0
LINE
  8
0
 10
81.0018
 20
-179.672
 11
81.2845
 21
-179.271
  0
LINE
  8
0
 10
81.2845
 20
-179.271
 11
83.2845
 21
-177.271
  0
LINE
  8
0
 10
83.2845
 20
-177.271
 11
83.6647
 21
-176.962
  0
LINE
  8
0
 10
83.6647
 20
-176.962
 11
84.1144
 21
-176.767
  0
LINE
  8
0
 10
84.1144
 20
-176.767
 11
84.6
 21
-176.7
  0
LINE
  8
0
 10
84.6
 20
-176.7
 11
85.0856
 21
-176.767
  0
LINE
  8
0
 10
85.0856
 20
-176.767
 11
85.5352
 21
-176.962
  0
LINE
  8
0
 10
85.5352
 20
-176.962
 11
85.9155
 21
-177.271
  0
LINE
  8
0
 10
85.9155
 20
-177.271
 11
86.1982
 21
-177.672
  0
LINE
  8
0
 10
86.1982
 20
-177.672
 11
86.3624
 21
-178.134
  0
LINE
  8
0
 10
86.3624
 20
-178.134
 11
86.3958
 21
-178.623
  0
LINE
  8
0
 10
86.3958
 20
-178.623
 11
86.2961
 21
-179.103
  0
LINE
  8
0
 10
86.2961
 20
-179.103
 11
86.0705
 21
-179.538
  0
LINE
  8
0
 10
86.0705
 20
-179.538
 11
85.7359
 21
-179.896
  0
LINE
  8
0
 10
85.7359
 20
-179.896
 11
83.7359
 21
-181.896
  0
LINE
  8
0
 10
83.7359
 20
-181.896
 11
83.3171
 21
-182.151
  0
LINE
  8
0
 10
83.3171
 20
-182.151
 11
82.8451
 21
-182.283
  0
LINE
  8
0
 10
82.8451
 20
-182.283
 11
82.3549
 21
-182.283
  0
LINE
  8
0
 10
53.2338
 20
-182.262
 11
52.7719
 21
-182.098
  0
LINE
  8
0
 10
52.7719
 20
-182.098
 11
52.3714
 21
-181.816
  0
LINE
  8
0
 10
52.3714
 20
-181.816
 11
50.3714
 21
-179.816
  0
LINE
  8
0
 10
50.3714
 20
-179.816
 11
50.062
 21
-179.435
  0
LINE
  8
0
 10
50.062
 20
-179.435
 11
49.8667
 21
-178.986
  0
LINE
  8
0
 10
49.8667
 20
-178.986
 11
49.8
 21
-178.5
  0
LINE
  8
0
 10
49.8
 20
-178.5
 11
49.8667
 21
-178.014
  0
LINE
  8
0
 10
49.8667
 20
-178.014
 11
50.062
 21
-177.565
  0
LINE
  8
0
 10
50.062
 20
-177.565
 11
50.3714
 21
-177.184
  0
LINE
  8
0
 10
50.3714
 20
-177.184
 11
50.7719
 21
-176.902
  0
LINE
  8
0
 10
50.7719
 20
-176.902
 11
51.2338
 21
-176.738
  0
LINE
  8
0
 10
51.2338
 20
-176.738
 11
51.7228
 21
-176.704
  0
LINE
  8
0
 10
51.7228
 20
-176.704
 11
52.2028
 21
-176.804
  0
LINE
  8
0
 10
52.2028
 20
-176.804
 11
52.638
 21
-177.029
  0
LINE
  8
0
 10
52.638
 20
-177.029
 11
52.9963
 21
-177.364
  0
LINE
  8
0
 10
52.9963
 20
-177.364
 11
54.9963
 21
-179.364
  0
LINE
  8
0
 10
54.9963
 20
-179.364
 11
55.251
 21
-179.783
  0
LINE
  8
0
 10
55.251
 20
-179.783
 11
55.3832
 21
-180.255
  0
LINE
  8
0
 10
55.3832
 20
-180.255
 11
55.3832
 21
-180.745
  0
LINE
  8
0
 10
55.3832
 20
-180.745
 11
55.251
 21
-181.217
  0
LINE
  8
0
 10
55.251
 20
-181.217
 11
54.9963
 21
-181.636
  0
LINE
  8
0
 10
54.9963
 20
-181.636
 11
54.638
 21
-181.971
  0
LINE
  8
0
 10
54.638
 20
-181.971
 11
54.2028
 21
-182.196
  0
LINE
  8
0
 10
54.2028
 20
-182.196
 11
53.7228
 21
-182.296
  0
LINE
  8
0
 10
53.7228
 20
-182.296
 11
53.2338
 21
-182.262
  0
LINE
  8
0
 10
67.7256
 20
-206.994
 11
67.2269
 21
-206.968
  0
LINE
  8
0
 10
67.2269
 20
-206.968
 11
66.7298
 21
-206.922
  0
LINE
  8
0
 10
66.7298
 20
-206.922
 11
66.2351
 21
-206.854
  0
LINE
  8
0
 10
66.2351
 20
-206.854
 11
65.7436
 21
-206.766
  0
LINE
  8
0
 10
65.7436
 20
-206.766
 11
65.2562
 21
-206.658
  0
LINE
  8
0
 10
65.2562
 20
-206.658
 11
64.7737
 21
-206.53
  0
LINE
  8
0
 10
64.7737
 20
-206.53
 11
64.297
 21
-206.381
  0
LINE
  8
0
 10
64.297
 20
-206.381
 11
63.8268
 21
-206.213
  0
LINE
  8
0
 10
63.8268
 20
-206.213
 11
63.364
 21
-206.026
  0
LINE
  8
0
 10
63.364
 20
-206.026
 11
62.9095
 21
-205.819
  0
LINE
  8
0
 10
62.9095
 20
-205.819
 11
62.4639
 21
-205.594
  0
LINE
  8
0
 10
62.4639
 20
-205.594
 11
62.0281
 21
-205.35
  0
LINE
  8
0
 10
62.0281
 20
-205.35
 11
61.6028
 21
-205.089
  0
LINE
  8
0
 10
61.6028
 20
-205.089
 11
61.1887
 21
-204.81
  0
LINE
  8
0
 10
61.1887
 20
-204.81
 11
60.7866
 21
-204.514
  0
LINE
  8
0
 10
60.7866
 20
-204.514
 11
60.3972
 21
-204.201
  0
LINE
  8
0
 10
60.3972
 20
-204.201
 11
60.0211
 21
-203.873
  0
LINE
  8
0
 10
60.0211
 20
-203.873
 11
59.659
 21
-203.529
  0
LINE
  8
0
 10
59.659
 20
-203.529
 11
59.3115
 21
-203.171
  0
LINE
  8
0
 10
59.3115
 20
-203.171
 11
58.9792
 21
-202.798
  0
LINE
  8
0
 10
58.9792
 20
-202.798
 11
58.6627
 21
-202.412
  0
LINE
  8
0
 10
58.6627
 20
-202.412
 11
58.3625
 21
-202.013
  0
LINE
  8
0
 10
58.3625
 20
-202.013
 11
58.0792
 21
-201.602
  0
LINE
  8
0
 10
58.0792
 20
-201.602
 11
57.8133
 21
-201.179
  0
LINE
  8
0
 10
57.8133
 20
-201.179
 11
57.5651
 21
-200.746
  0
LINE
  8
0
 10
57.5651
 20
-200.746
 11
57.3352
 21
-200.303
  0
LINE
  8
0
 10
57.3352
 20
-200.303
 11
57.1239
 21
-199.85
  0
LINE
  8
0
 10
57.1239
 20
-199.85
 11
56.9317
 21
-199.39
  0
LINE
  8
0
 10
56.9317
 20
-199.39
 11
56.7587
 21
-198.921
  0
LINE
  8
0
 10
56.7587
 20
-198.921
 11
56.6055
 21
-198.446
  0
LINE
  8
0
 10
56.6055
 20
-198.446
 11
56.472
 21
-197.965
  0
LINE
  8
0
 10
56.472
 20
-197.965
 11
56.3588
 21
-197.479
  0
LINE
  8
0
 10
56.3588
 20
-197.479
 11
56.2658
 21
-196.988
  0
LINE
  8
0
 10
56.2658
 20
-196.988
 11
56.1934
 21
-196.494
  0
LINE
  8
0
 10
56.1934
 20
-196.494
 11
56.1415
 21
-195.997
  0
LINE
  8
0
 10
56.1415
 20
-195.997
 11
56.1104
 21
-195.499
  0
LINE
  8
0
 10
56.1104
 20
-195.499
 11
56.1
 21
-195
  0
LINE
  8
0
 10
56.1
 20
-195
 11
56.1104
 21
-194.501
  0
LINE
  8
0
 10
56.1104
 20
-194.501
 11
56.1415
 21
-194.003
  0
LINE
  8
0
 10
56.1415
 20
-194.003
 11
56.1934
 21
-193.506
  0
LINE
  8
0
 10
56.1934
 20
-193.506
 11
56.2658
 21
-193.012
  0
LINE
  8
0
 10
56.2658
 20
-193.012
 11
56.3588
 21
-192.521
  0
LINE
  8
0
 10
56.3588
 20
-192.521
 11
56.472
 21
-192.035
  0
LINE
  8
0
 10
56.472
 20
-192.035
 11
56.6055
 21
-191.554
  0
LINE
  8
0
 10
56.6055
 20
-191.554
 11
56.7587
 21
-191.079
  0
LINE
  8
0
 10
56.7587
 20
-191.079
 11
56.9317
 21
-190.61
  0
LINE
  8
0
 10
56.9317
 20
-190.61
 11
57.1239
 21
-190.15
  0
LINE
  8
0
 10
57.1239
 20
-190.15
 11
57.3352
 21
-189.697
  0
LINE
  8
0
 10
57.3352
 20
-189.697
 11
57.5651
 21
-189.254
  0
LINE
  8
0
 10
57.5651
 20
-189.254
 11
57.8133
 21
-188.821
  0
LINE
  8
0
 10
57.8133
 20
-188.821
 11
58.0792
 21
-188.398
  0
LINE
  8
0
 10
58.0792
 20
-188.398
 11
58.3625
 21
-187.987
  0
LINE
  8
0
 10
58.3625
 20
-187.987
 11
58.6627
 21
-187.588
  0
LINE
  8
0
 10
58.6627
 20
-187.588
 11
58.9792
 21
-187.202
  0
LINE
  8
0
 10
58.9792
 20
-187.202
 11
59.3115
 21
-186.829
  0
LINE
  8
0
 10
59.3115
 20
-186.829
 11
59.659
 21
-186.471
  0
LINE
  8
0
 10
59.659
 20
-186.471
 11
60.0211
 21
-186.127
  0
LINE
  8
0
 10
60.0211
 20
-186.127
 11
60.3972
 21
-185.799
  0
LINE
  8
0
 10
60.3972
 20
-185.799
 11
60.7866
 21
-185.486
  0
LINE
  8
0
 10
60.7866
 20
-185.486
 11
61.1887
 21
-185.19
  0
LINE
  8
0
 10
61.1887
 20
-185.19
 11
61.6028
 21
-184.911
  0
LINE
  8
0
 10
61.6028
 20
-184.911
 11
62.0281
 21
-184.65
  0
LINE
  8
0
 10
62.0281
 20
-184.65
 11
62.4639
 21
-184.406
  0
LINE
  8
0
 10
62.4639
 20
-184.406
 11
62.9095
 21
-184.181
  0
LINE
  8
0
 10
62.9095
 20
-184.181
 11
63.364
 21
-183.974
  0
LINE
  8
0
 10
63.364
 20
-183.974
 11
63.8268
 21
-183.787
  0
LINE
  8
0
 10
63.8268
 20
-183.787
 11
64.297
 21
-183.619
  0
LINE
  8
0
 10
64.297
 20
-183.619
 11
64.7737
 21
-183.47
  0
LINE
  8
0
 10
64.7737
 20
-183.47
 11
65.2562
 21
-183.342
  0
LINE
  8
0
 10
65.2562
 20
-183.342
 11
65.7436
 21
-183.234
  0
LINE
  8
0
 10
65.7436
 20
-183.234
 11
66.2351
 21
-183.146
  0
LINE
  8
0
 10
66.2351
 20
-183.146
 11
66.7298
 21
-183.078
  0
LINE
  8
0
 10
66.7298
 20
-183.078
 11
67.2269
 21
-183.032
  0
LINE
  8
0
 10
67.2269
 20
-183.032
 11
67.7256
 21
-183.006
  0
LINE
  8
0
 10
67.7256
 20
-183.006
 11
68.2248
 21
-183.001
  0
LINE
  8
0
 10
68.2248
 20
-183.001
 11
68.7239
 21
-183.016
  0
LINE
  8
0
 10
68.7239
 20
-183.016
 11
69.2218
 21
-183.053
  0
LINE
  8
0
 10
69.2218
 20
-183.053
 11
69.7179
 21
-183.11
  0
LINE
  8
0
 10
69.7179
 20
-183.11
 11
70.2111
 21
-183.187
  0
LINE
  8
0
 10
70.2111
 20
-183.187
 11
70.7007
 21
-183.285
  0
LINE
  8
0
 10
70.7007
 20
-183.285
 11
71.1857
 21
-183.404
  0
LINE
  8
0
 10
71.1857
 20
-183.404
 11
71.6655
 21
-183.542
  0
LINE
  8
0
 10
71.6655
 20
-183.542
 11
72.139
 21
-183.7
  0
LINE
  8
0
 10
72.139
 20
-183.7
 11
72.6056
 21
-183.878
  0
LINE
  8
0
 10
72.6056
 20
-183.878
 11
73.0643
 21
-184.075
  0
LINE
  8
0
 10
73.0643
 20
-184.075
 11
73.5145
 21
-184.291
  0
LINE
  8
0
 10
73.5145
 20
-184.291
 11
73.9553
 21
-184.525
  0
LINE
  8
0
 10
73.9553
 20
-184.525
 11
74.3859
 21
-184.778
  0
LINE
  8
0
 10
74.3859
 20
-184.778
 11
74.8057
 21
-185.048
  0
LINE
  8
0
 10
74.8057
 20
-185.048
 11
75.2139
 21
-185.336
  0
LINE
  8
0
 10
75.2139
 20
-185.336
 11
75.6097
 21
-185.64
  0
LINE
  8
0
 10
75.6097
 20
-185.64
 11
75.9926
 21
-185.961
  0
LINE
  8
0
 10
75.9926
 20
-185.961
 11
76.3618
 21
-186.297
  0
LINE
  8
0
 10
76.3618
 20
-186.297
 11
76.7166
 21
-186.648
  0
LINE
  8
0
 10
76.7166
 20
-186.648
 11
77.0566
 21
-187.014
  0
LINE
  8
0
 10
77.0566
 20
-187.014
 11
77.3811
 21
-187.393
  0
LINE
  8
0
 10
77.3811
 20
-187.393
 11
77.6895
 21
-187.786
  0
LINE
  8
0
 10
77.6895
 20
-187.786
 11
77.9812
 21
-188.191
  0
LINE
  8
0
 10
77.9812
 20
-188.191
 11
78.2559
 21
-188.608
  0
LINE
  8
0
 10
78.2559
 20
-188.608
 11
78.513
 21
-189.036
  0
LINE
  8
0
 10
78.513
 20
-189.036
 11
78.7521
 21
-189.474
  0
LINE
  8
0
 10
78.7521
 20
-189.474
 11
78.9728
 21
-189.922
  0
LINE
  8
0
 10
78.9728
 20
-189.922
 11
79.1746
 21
-190.379
  0
LINE
  8
0
 10
79.1746
 20
-190.379
 11
79.3572
 21
-190.844
  0
LINE
  8
0
 10
79.3572
 20
-190.844
 11
79.5204
 21
-191.316
  0
LINE
  8
0
 10
79.5204
 20
-191.316
 11
79.6637
 21
-191.794
  0
LINE
  8
0
 10
79.6637
 20
-191.794
 11
79.7871
 21
-192.278
  0
LINE
  8
0
 10
79.7871
 20
-192.278
 11
79.8902
 21
-192.766
  0
LINE
  8
0
 10
79.8902
 20
-192.766
 11
79.973
 21
-193.259
  0
LINE
  8
0
 10
79.973
 20
-193.259
 11
80.0351
 21
-193.754
  0
LINE
  8
0
 10
80.0351
 20
-193.754
 11
80.0766
 21
-194.251
  0
LINE
  8
0
 10
80.0766
 20
-194.251
 11
80.0974
 21
-194.75
  0
LINE
  8
0
 10
80.0974
 20
-194.75
 11
80.0974
 21
-195.25
  0
LINE
  8
0
 10
80.0974
 20
-195.25
 11
80.0766
 21
-195.749
  0
LINE
  8
0
 10
80.0766
 20
-195.749
 11
80.0351
 21
-196.246
  0
LINE
  8
0
 10
80.0351
 20
-196.246
 11
79.973
 21
-196.741
  0
LINE
  8
0
 10
79.973
 20
-196.741
 11
79.8902
 21
-197.234
  0
LINE
  8
0
 10
79.8902
 20
-197.234
 11
79.7871
 21
-197.722
  0
LINE
  8
0
 10
79.7871
 20
-197.722
 11
79.6637
 21
-198.206
  0
LINE
  8
0
 10
79.6637
 20
-198.206
 11
79.5204
 21
-198.684
  0
LINE
  8
0
 10
79.5204
 20
-198.684
 11
79.3572
 21
-199.156
  0
LINE
  8
0
 10
79.3572
 20
-199.156
 11
79.1746
 21
-199.621
  0
LINE
  8
0
 10
79.1746
 20
-199.621
 11
78.9728
 21
-200.078
  0
LINE
  8
0
 10
78.9728
 20
-200.078
 11
78.7521
 21
-200.526
  0
LINE
  8
0
 10
78.7521
 20
-200.526
 11
78.513
 21
-200.964
  0
LINE
  8
0
 10
78.513
 20
-200.964
 11
78.2559
 21
-201.392
  0
LINE
  8
0
 10
78.2559
 20
-201.392
 11
77.9812
 21
-201.809
  0
LINE
  8
0
 10
77.9812
 20
-201.809
 11
77.6895
 21
-202.214
  0
LINE
  8
0
 10
77.6895
 20
-202.214
 11
77.3811
 21
-202.607
  0
LINE
  8
0
 10
77.3811
 20
-202.607
 11
77.0566
 21
-202.986
  0
LINE
  8
0
 10
77.0566
 20
-202.986
 11
76.7166
 21
-203.352
  0
LINE
  8
0
 10
76.7166
 20
-203.352
 11
76.3618
 21
-203.703
  0
LINE
  8
0
 10
76.3618
 20
-203.703
 11
75.9926
 21
-204.039
  0
LINE
  8
0
 10
75.9926
 20
-204.039
 11
75.6097
 21
-204.36
  0
LINE
  8
0
 10
75.6097
 20
-204.36
 11
75.2139
 21
-204.664
  0
LINE
  8
0
 10
75.2139
 20
-204.664
 11
74.8057
 21
-204.952
  0
LINE
  8
0
 10
74.8057
 20
-204.952
 11
74.3859
 21
-205.222
  0
LINE
  8
0
 10
74.3859
 20
-205.222
 11
73.9553
 21
-205.475
  0
LINE
  8
0
 10
73.9553
 20
-205.475
 11
73.5145
 21
-205.709
  0
LINE
  8
0
 10
73.5145
 20
-205.709
 11
73.0643
 21
-205.925
  0
LINE
  8
0
 10
73.0643
 20
-205.925
 11
72.6056
 21
-206.122
  0
LINE
  8
0
 10
72.6056
 20
-206.122
 11
72.139
 21
-206.3
  0
LINE
  8
0
 10
72.139
 20
-206.3
 11
71.6655
 21
-206.458
  0
LINE
  8
0
 10
71.6655
 20
-206.458
 11
71.1857
 21
-206.596
  0
LINE
  8
0
 10
71.1857
 20
-206.596
 11
70.7007
 21
-206.715
  0
LINE
  8
0
 10
70.7007
 20
-206.715
 11
70.2111
 21
-206.813
  0
LINE
  8
0
 10
70.2111
 20
-206.813
 11
69.7179
 21
-206.89
  0
LINE
  8
0
 10
69.7179
 20
-206.89
 11
69.2218
 21
-206.947
  0
LINE
  8
0
 10
69.2218
 20
-206.947
 11
68.7239
 21
-206.984
  0
LINE
  8
0
 10
68.7239
 20
-206.984
 11
68.2248
 21
-206.999
  0
LINE
  8
0
 10
68.2248
 20
-206.999
 11
67.7256
 21
-206.994
  0
LINE
  8
0
 10
36.8509
 20
-200.688
 11
36.3611
 21
-200.597
  0
LINE
  8
0
 10
36.3611
 20
-200.597
 11
35.8965
 21
-200.417
  0
LINE
  8
0
 10
35.8965
 20
-200.417
 11
35.4729
 21
-200.155
  0
LINE
  8
0
 10
35.4729
 20
-200.155
 11
35.1047
 21
-199.819
  0
LINE
  8
0
 10
35.1047
 20
-199.819
 11
34.8044
 21
-199.421
  0
LINE
  8
0
 10
34.8044
 20
-199.421
 11
34.5823
 21
-198.975
  0
LINE
  8
0
 10
34.5823
 20
-198.975
 11
34.446
 21
-198.496
  0
LINE
  8
0
 10
34.446
 20
-198.496
 11
34.4
 21
-198
  0
LINE
  8
0
 10
34.4
 20
-198
 11
34.446
 21
-197.504
  0
LINE
  8
0
 10
34.446
 20
-197.504
 11
34.5823
 21
-197.025
  0
LINE
  8
0
 10
34.5823
 20
-197.025
 11
34.8044
 21
-196.579
  0
LINE
  8
0
 10
34.8044
 20
-196.579
 11
35.1047
 21
-196.181
  0
LINE
  8
0
 10
35.1047
 20
-196.181
 11
35.4729
 21
-195.845
  0
LINE
  8
0
 10
35.4729
 20
-195.845
 11
35.8965
 21
-195.583
  0
LINE
  8
0
 10
35.8965
 20
-195.583
 11
36.3611
 21
-195.403
  0
LINE
  8
0
 10
36.3611
 20
-195.403
 11
36.8509
 21
-195.312
  0
LINE
  8
0
 10
36.8509
 20
-195.312
 11
37.3491
 21
-195.312
  0
LINE
  8
0
 10
37.3491
 20
-195.312
 11
37.8389
 21
-195.403
  0
LINE
  8
0
 10
37.8389
 20
-195.403
 11
38.3035
 21
-195.583
  0
LINE
  8
0
 10
38.3035
 20
-195.583
 11
38.7271
 21
-195.845
  0
LINE
  8
0
 10
38.7271
 20
-195.845
 11
39.0953
 21
-196.181
  0
LINE
  8
0
 10
39.0953
 20
-196.181
 11
39.3956
 21
-196.579
  0
LINE
  8
0
 10
39.3956
 20
-196.579
 11
39.6177
 21
-197.025
  0
LINE
  8
0
 10
39.6177
 20
-197.025
 11
39.754
 21
-197.504
  0
LINE
  8
0
 10
39.754
 20
-197.504
 11
39.8
 21
-198
  0
LINE
  8
0
 10
39.8
 20
-198
 11
39.754
 21
-198.496
  0
LINE
  8
0
 10
39.754
 20
-198.496
 11
39.6177
 21
-198.975
  0
LINE
  8
0
 10
39.6177
 20
-198.975
 11
39.3956
 21
-199.421
  0
LINE
  8
0
 10
39.3956
 20
-199.421
 11
39.0953
 21
-199.819
  0
LINE
  8
0
 10
39.0953
 20
-199.819
 11
38.7271
 21
-200.155
  0
LINE
  8
0
 10
38.7271
 20
-200.155
 11
38.3035
 21
-200.417
  0
LINE
  8
0
 10
38.3035
 20
-200.417
 11
37.8389
 21
-200.597
  0
LINE
  8
0
 10
37.8389
 20
-200.597
 11
37.3491
 21
-200.688
  0
LINE
  8
0
 10
37.3491
 20
-200.688
 11
36.8509
 21
-200.688
  0
LINE
  8
0
 10
83.9972
 20
-213.196
 11
83.562
 21
-212.971
  0
LINE
  8
0
 10
83.562
 20
-212.971
 11
83.2037
 21
-212.636
  0
LINE
  8
0
 10
83.2037
 20
-212.636
 11
81.2037
 21
-210.636
  0
LINE
  8
0
 10
81.2037
 20
-210.636
 11
80.949
 21
-210.217
  0
LINE
  8
0
 10
80.949
 20
-210.217
 11
80.8168
 21
-209.745
  0
LINE
  8
0
 10
80.8168
 20
-209.745
 11
80.8168
 21
-209.255
  0
LINE
  8
0
 10
80.8168
 20
-209.255
 11
80.949
 21
-208.783
  0
LINE
  8
0
 10
80.949
 20
-208.783
 11
81.2037
 21
-208.364
  0
LINE
  8
0
 10
81.2037
 20
-208.364
 11
81.562
 21
-208.029
  0
LINE
  8
0
 10
81.562
 20
-208.029
 11
81.9972
 21
-207.804
  0
LINE
  8
0
 10
81.9972
 20
-207.804
 11
82.4772
 21
-207.704
  0
LINE
  8
0
 10
82.4772
 20
-207.704
 11
82.9662
 21
-207.738
  0
LINE
  8
0
 10
82.9662
 20
-207.738
 11
83.4281
 21
-207.902
  0
LINE
  8
0
 10
83.4281
 20
-207.902
 11
83.8286
 21
-208.184
  0
LINE
  8
0
 10
83.8286
 20
-208.184
 11
85.8286
 21
-210.184
  0
LINE
  8
0
 10
85.8286
 20
-210.184
 11
86.138
 21
-210.565
  0
LINE
  8
0
 10
86.138
 20
-210.565
 11
86.3333
 21
-211.014
  0
LINE
  8
0
 10
86.3333
 20
-211.014
 11
86.4
 21
-211.5
  0
LINE
  8
0
 10
86.4
 20
-211.5
 11
86.3333
 21
-211.986
  0
LINE
  8
0
 10
86.3333
 20
-211.986
 11
86.138
 21
-212.435
  0
LINE
  8
0
 10
86.138
 20
-212.435
 11
85.8286
 21
-212.816
  0
LINE
  8
0
 10
85.8286
 20
-212.816
 11
85.4281
 21
-213.098
  0
LINE
  8
0
 10
85.4281
 20
-213.098
 11
84.9662
 21
-213.262
  0
LINE
  8
0
 10
84.9662
 20
-213.262
 11
84.4772
 21
-213.296
  0
LINE
  8
0
 10
84.4772
 20
-213.296
 11
83.9972
 21
-213.196
  0
LINE
  8
0
 10
51.1144
 20
-213.233
 11
50.6647
 21
-213.038
  0
LINE
  8
0
 10
50.6647
 20
-213.038
 11
50.2845
 21
-212.729
  0
LINE
  8
0
 10
50.2845
 20
-212.729
 11
50.0018
 21
-212.328
  0
LINE
  8
0
 10
50.0018
 20
-212.328
 11
49.8376
 21
-211.866
  0
LINE
  8
0
 10
49.8376
 20
-211.866
 11
49.8042
 21
-211.377
  0
LINE
  8
0
 10
49.8042
 20
-211.377
 11
49.9039
 21
-210.897
  0
LINE
  8
0
 10
49.9039
 20
-210.897
 11
50.1295
 21
-210.462
  0
LINE
  8
0
 10
50.1295
 20
-210.462
 11
50.464
 21
-210.104
  0
LINE
  8
0
 10
50.464
 20
-210.104
 11
52.464
 21
-208.104
  0
LINE
  8
0
 10
52.464
 20
-208.104
 11
52.8829
 21
-207.849
  0
LINE
  8
0
 10
52.8829
 20
-207.849
 11
53.3549
 21
-207.717
  0
LINE
  8
0
 10
53.3549
 20
-207.717
 11
53.8451
 21
-207.717
  0
LINE
  8
0
 10
53.8451
 20
-207.717
 11
54.3171
 21
-207.849
  0
LINE
  8
0
 10
54.3171
 20
-207.849
 11
54.7359
 21
-208.104
  0
LINE
  8
0
 10
54.7359
 20
-208.104
 11
55.0705
 21
-208.462
  0
LINE
  8
0
 10
55.0705
 20
-208.462
 11
55.2961
 21
-208.897
  0
LINE
  8
0
 10
55.2961
 20
-208.897
 11
55.3958
 21
-209.377
  0
LINE
  8
0
 10
55.3958
 20
-209.377
 11
55.3624
 21
-209.866
  0
LINE
  8
0
 10
55.3624
 20
-209.866
 11
55.1982
 21
-210.328
  0
LINE
  8
0
 10
55.1982
 20
-210.328
 11
54.9155
 21
-210.729
  0
LINE
  8
0
 10
54.9155
 20
-210.729
 11
52.9155
 21
-212.729
  0
LINE
  8
0
 10
52.9155
 20
-212.729
 11
52.5352
 21
-213.038
  0
LINE
  8
0
 10
52.5352
 20
-213.038
 11
52.0856
 21
-213.233
  0
LINE
  8
0
 10
52.0856
 20
-213.233
 11
51.6
 21
-213.3
  0
LINE
  8
0
 10
51.6
 20
-213.3
 11
51.1144
 21
-213.233
  0
LINE
  8
0
 10
52.7253
 20
-238.093
 11
52.2266
 21
-238.062
  0
LINE
  8
0
 10
52.2266
 20
-238.062
 11
51.7301
 21
-238.007
  0
LINE
  8
0
 10
51.7301
 20
-238.007
 11
51.2369
 21
-237.927
  0
LINE
  8
0
 10
51.2369
 20
-237.927
 11
50.7483
 21
-237.822
  0
LINE
  8
0
 10
50.7483
 20
-237.822
 11
50.4867
 21
-237.753
  0
LINE
  8
0
 10
50.4867
 20
-237.753
 11
50.7713
 21
-236.691
  0
LINE
  8
0
 10
50.7713
 20
-236.691
 11
50.8906
 21
-236.725
  0
LINE
  8
0
 10
50.8906
 20
-236.725
 11
51.3746
 21
-236.833
  0
LINE
  8
0
 10
51.3746
 20
-236.833
 11
51.8638
 21
-236.915
  0
LINE
  8
0
 10
51.8638
 20
-236.915
 11
52.3568
 21
-236.969
  0
LINE
  8
0
 10
52.3568
 20
-236.969
 11
52.852
 21
-236.997
  0
LINE
  8
0
 10
52.852
 20
-236.997
 11
53.348
 21
-236.997
  0
LINE
  8
0
 10
53.348
 20
-236.997
 11
53.8432
 21
-236.969
  0
LINE
  8
0
 10
53.8432
 20
-236.969
 11
54.3362
 21
-236.915
  0
LINE
  8
0
 10
54.3362
 20
-236.915
 11
54.8254
 21
-236.833
  0
LINE
  8
0
 10
54.8254
 20
-236.833
 11
55.3094
 21
-236.725
  0
LINE
  8
0
 10
55.3094
 20
-236.725
 11
55.7866
 21
-236.59
  0
LINE
  8
0
 10
55.7866
 20
-236.59
 11
56.2557
 21
-236.429
  0
LINE
  8
0
 10
56.2557
 20
-236.429
 11
56.7153
 21
-236.242
  0
LINE
  8
0
 10
56.7153
 20
-236.242
 11
57.1638
 21
-236.03
  0
LINE
  8
0
 10
57.1638
 20
-236.03
 11
57.6
 21
-235.794
  0
LINE
  8
0
 10
57.6
 20
-235.794
 11
58.0225
 21
-235.535
  0
LINE
  8
0
 10
58.0225
 20
-235.535
 11
58.4301
 21
-235.252
  0
LINE
  8
0
 10
58.4301
 20
-235.252
 11
58.8215
 21
-234.947
  0
LINE
  8
0
 10
58.8215
 20
-234.947
 11
59.1955
 21
-234.622
  0
LINE
  8
0
 10
59.1955
 20
-234.622
 11
59.551
 21
-234.276
  0
LINE
  8
0
 10
59.551
 20
-234.276
 11
59.6
 21
-234.222
  0
LINE
  8
0
 10
59.6
 20
-234.222
 11
59.6
 21
-233
  0
LINE
  8
0
 10
59.6
 20
-233
 11
63.6
 21
-233
  0
LINE
  8
0
 10
63.6
 20
-233
 11
63.6
 21
-234.5
  0
LINE
  8
0
 10
63.6
 20
-234.5
 11
65.1
 21
-234.5
  0
LINE
  8
0
 10
65.1
 20
-234.5
 11
65.1
 21
-229.25
  0
LINE
  8
0
 10
65.1
 20
-229.25
 11
57.9404
 21
-229.25
  0
LINE
  8
0
 10
57.9404
 20
-229.25
 11
57.7985
 21
-229.71
  0
LINE
  8
0
 10
57.7985
 20
-229.71
 11
57.6048
 21
-230.169
  0
LINE
  8
0
 10
57.6048
 20
-230.169
 11
57.3665
 21
-230.607
  0
LINE
  8
0
 10
57.3665
 20
-230.607
 11
57.0857
 21
-231.019
  0
LINE
  8
0
 10
57.0857
 20
-231.019
 11
56.7653
 21
-231.401
  0
LINE
  8
0
 10
56.7653
 20
-231.401
 11
56.4084
 21
-231.749
  0
LINE
  8
0
 10
56.4084
 20
-231.749
 11
56.0187
 21
-232.06
  0
LINE
  8
0
 10
56.0187
 20
-232.06
 11
55.6
 21
-232.33
  0
LINE
  8
0
 10
55.6
 20
-232.33
 11
55.1564
 21
-232.558
  0
LINE
  8
0
 10
55.1564
 20
-232.558
 11
54.6924
 21
-232.74
  0
LINE
  8
0
 10
54.6924
 20
-232.74
 11
54.2126
 21
-232.875
  0
LINE
  8
0
 10
54.2126
 20
-232.875
 11
53.7217
 21
-232.961
  0
LINE
  8
0
 10
53.7217
 20
-232.961
 11
53.2246
 21
-232.998
  0
LINE
  8
0
 10
53.2246
 20
-232.998
 11
52.7263
 21
-232.986
  0
LINE
  8
0
 10
52.7263
 20
-232.986
 11
52.2318
 21
-232.924
  0
LINE
  8
0
 10
52.2318
 20
-232.924
 11
51.7458
 21
-232.813
  0
LINE
  8
0
 10
51.7458
 20
-232.813
 11
51.2733
 21
-232.654
  0
LINE
  8
0
 10
51.2733
 20
-232.654
 11
50.8189
 21
-232.449
  0
LINE
  8
0
 10
50.8189
 20
-232.449
 11
50.3873
 21
-232.2
  0
LINE
  8
0
 10
50.3873
 20
-232.2
 11
49.9825
 21
-231.909
  0
LINE
  8
0
 10
49.9825
 20
-231.909
 11
49.6088
 21
-231.579
  0
LINE
  8
0
 10
49.6088
 20
-231.579
 11
49.2698
 21
-231.214
  0
LINE
  8
0
 10
49.2698
 20
-231.214
 11
48.9688
 21
-230.817
  0
LINE
  8
0
 10
48.9688
 20
-230.817
 11
48.7089
 21
-230.391
  0
LINE
  8
0
 10
48.7089
 20
-230.391
 11
48.4926
 21
-229.942
  0
LINE
  8
0
 10
48.4926
 20
-229.942
 11
48.3221
 21
-229.474
  0
LINE
  8
0
 10
48.3221
 20
-229.474
 11
48.1991
 21
-228.991
  0
LINE
  8
0
 10
48.1991
 20
-228.991
 11
48.1248
 21
-228.498
  0
LINE
  8
0
 10
48.1248
 20
-228.498
 11
48.1
 21
-228
  0
LINE
  8
0
 10
48.1
 20
-228
 11
48.1248
 21
-227.502
  0
LINE
  8
0
 10
48.1248
 20
-227.502
 11
48.1991
 21
-227.009
  0
LINE
  8
0
 10
48.1991
 20
-227.009
 11
48.3221
 21
-226.526
  0
LINE
  8
0
 10
48.3221
 20
-226.526
 11
48.4926
 21
-226.058
  0
LINE
  8
0
 10
48.4926
 20
-226.058
 11
48.7089
 21
-225.609
  0
LINE
  8
0
 10
48.7089
 20
-225.609
 11
48.9688
 21
-225.183
  0
LINE
  8
0
 10
48.9688
 20
-225.183
 11
49.2698
 21
-224.786
  0
LINE
  8
0
 10
49.2698
 20
-224.786
 11
49.6088
 21
-224.421
  0
LINE
  8
0
 10
49.6088
 20
-224.421
 11
49.9825
 21
-224.091
  0
LINE
  8
0
 10
49.9825
 20
-224.091
 11
50.3873
 21
-223.8
  0
LINE
  8
0
 10
50.3873
 20
-223.8
 11
50.8189
 21
-223.551
  0
LINE
  8
0
 10
50.8189
 20
-223.551
 11
51.2733
 21
-223.346
  0
LINE
  8
0
 10
51.2733
 20
-223.346
 11
51.7458
 21
-223.187
  0
LINE
  8
0
 10
51.7458
 20
-223.187
 11
52.2318
 21
-223.076
  0
LINE
  8
0
 10
52.2318
 20
-223.076
 11
52.7263
 21
-223.014
  0
LINE
  8
0
 10
52.7263
 20
-223.014
 11
53.2246
 21
-223.002
  0
LINE
  8
0
 10
53.2246
 20
-223.002
 11
53.7217
 21
-223.039
  0
LINE
  8
0
 10
53.7217
 20
-223.039
 11
54.2126
 21
-223.125
  0
LINE
  8
0
 10
54.2126
 20
-223.125
 11
54.6924
 21
-223.26
  0
LINE
  8
0
 10
54.6924
 20
-223.26
 11
55.1564
 21
-223.442
  0
LINE
  8
0
 10
55.1564
 20
-223.442
 11
55.6
 21
-223.67
  0
LINE
  8
0
 10
55.6
 20
-223.67
 11
56.0187
 21
-223.94
  0
LINE
  8
0
 10
56.0187
 20
-223.94
 11
56.4084
 21
-224.251
  0
LINE
  8
0
 10
56.4084
 20
-224.251
 11
56.7653
 21
-224.599
  0
LINE
  8
0
 10
56.7653
 20
-224.599
 11
57.0857
 21
-224.981
  0
LINE
  8
0
 10
57.0857
 20
-224.981
 11
57.3665
 21
-225.393
  0
LINE
  8
0
 10
57.3665
 20
-225.393
 11
57.6048
 21
-225.831
  0
LINE
  8
0
 10
57.6048
 20
-225.831
 11
57.7985
 21
-226.29
  0
LINE
  8
0
 10
57.7985
 20
-226.29
 11
57.9404
 21
-226.75
  0
LINE
  8
0
 10
57.9404
 20
-226.75
 11
65.1
 21
-226.75
  0
LINE
  8
0
 10
65.1
 20
-226.75
 11
65.1
 21
-221.5
  0
LINE
  8
0
 10
65.1
 20
-221.5
 11
63.6
 21
-221.5
  0
LINE
  8
0
 10
63.6
 20
-221.5
 11
63.6
 21
-223
  0
LINE
  8
0
 10
63.6
 20
-223
 11
59.6
 21
-223
  0
LINE
  8
0
 10
59.6
 20
-223
 11
59.6
 21
-221.778
  0
LINE
  8
0
 10
59.6
 20
-221.778
 11
59.551
 21
-221.724
  0
LINE
  8
0
 10
59.551
 20
-221.724
 11
59.1955
 21
-221.378
  0
LINE
  8
0
 10
59.1955
 20
-221.378
 11
58.8215
 21
-221.053
  0
LINE
  8
0
 10
58.8215
 20
-221.053
 11
58.4301
 21
-220.748
  0
LINE
  8
0
 10
58.4301
 20
-220.748
 11
58.0225
 21
-220.465
  0
LINE
  8
0
 10
58.0225
 20
-220.465
 11
57.6
 21
-220.206
  0
LINE
  8
0
 10
57.6
 20
-220.206
 11
57.1638
 21
-219.97
  0
LINE
  8
0
 10
57.1638
 20
-219.97
 11
56.7153
 21
-219.758
  0
LINE
  8
0
 10
56.7153
 20
-219.758
 11
56.2557
 21
-219.571
  0
LINE
  8
0
 10
56.2557
 20
-219.571
 11
55.7866
 21
-219.41
  0
LINE
  8
0
 10
55.7866
 20
-219.41
 11
55.3094
 21
-219.275
  0
LINE
  8
0
 10
55.3094
 20
-219.275
 11
54.8254
 21
-219.167
  0
LINE
  8
0
 10
54.8254
 20
-219.167
 11
54.3362
 21
-219.085
  0
LINE
  8
0
 10
54.3362
 20
-219.085
 11
53.8432
 21
-219.031
  0
LINE
  8
0
 10
53.8432
 20
-219.031
 11
53.348
 21
-219.003
  0
LINE
  8
0
 10
53.348
 20
-219.003
 11
52.852
 21
-219.003
  0
LINE
  8
0
 10
52.852
 20
-219.003
 11
52.3568
 21
-219.031
  0
LINE
  8
0
 10
52.3568
 20
-219.031
 11
51.8638
 21
-219.085
  0
LINE
  8
0
 10
51.8638
 20
-219.085
 11
51.3746
 21
-219.167
  0
LINE
  8
0
 10
51.3746
 20
-219.167
 11
50.8906
 21
-219.275
  0
LINE
  8
0
 10
50.8906
 20
-219.275
 11
50.7713
 21
-219.309
  0
LINE
  8
0
 10
50.7713
 20
-219.309
 11
50.4867
 21
-218.247
  0
LINE
  8
0
 10
50.4867
 20
-218.247
 11
50.7483
 21
-218.178
  0
LINE
  8
0
 10
50.7483
 20
-218.178
 11
51.2369
 21
-218.073
  0
LINE
  8
0
 10
51.2369
 20
-218.073
 11
51.7301
 21
-217.993
  0
LINE
  8
0
 10
51.7301
 20
-217.993
 11
52.2266
 21
-217.938
  0
LINE
  8
0
 10
52.2266
 20
-217.938
 11
52.7253
 21
-217.907
  0
LINE
  8
0
 10
52.7253
 20
-217.907
 11
53.2249
 21
-217.901
  0
LINE
  8
0
 10
53.2249
 20
-217.901
 11
53.7242
 21
-217.919
  0
LINE
  8
0
 10
53.7242
 20
-217.919
 11
54.222
 21
-217.963
  0
LINE
  8
0
 10
54.222
 20
-217.963
 11
54.717
 21
-218.03
  0
LINE
  8
0
 10
54.717
 20
-218.03
 11
55.2081
 21
-218.122
  0
LINE
  8
0
 10
55.2081
 20
-218.122
 11
55.694
 21
-218.239
  0
LINE
  8
0
 10
55.694
 20
-218.239
 11
56.1735
 21
-218.379
  0
LINE
  8
0
 10
56.1735
 20
-218.379
 11
56.6455
 21
-218.543
  0
LINE
  8
0
 10
56.6455
 20
-218.543
 11
57.1089
 21
-218.73
  0
LINE
  8
0
 10
57.1089
 20
-218.73
 11
57.5624
 21
-218.939
  0
LINE
  8
0
 10
57.5624
 20
-218.939
 11
58.0051
 21
-219.171
  0
LINE
  8
0
 10
58.0051
 20
-219.171
 11
58.4357
 21
-219.424
  0
LINE
  8
0
 10
58.4357
 20
-219.424
 11
58.8533
 21
-219.699
  0
LINE
  8
0
 10
58.8533
 20
-219.699
 11
59.2567
 21
-219.993
  0
LINE
  8
0
 10
59.2567
 20
-219.993
 11
59.6452
 21
-220.308
  0
LINE
  8
0
 10
59.6452
 20
-220.308
 11
59.8601
 21
-220.5
  0
LINE
  8
0
 10
59.8601
 20
-220.5
 11
65.975
 21
-220.5
  0
LINE
  8
0
 10
65.975
 20
-220.5
 11
65.975
 21
-221
  0
LINE
  8
0
 10
65.975
 20
-221
 11
66.1
 21
-221
  0
LINE
  8
0
 10
66.1
 20
-221
 11
66.1
 21
-235
  0
LINE
  8
0
 10
66.1
 20
-235
 11
65.975
 21
-235
  0
LINE
  8
0
 10
65.975
 20
-235
 11
65.975
 21
-235.5
  0
LINE
  8
0
 10
65.975
 20
-235.5
 11
59.8601
 21
-235.5
  0
LINE
  8
0
 10
59.8601
 20
-235.5
 11
59.6452
 21
-235.692
  0
LINE
  8
0
 10
59.6452
 20
-235.692
 11
59.2567
 21
-236.007
  0
LINE
  8
0
 10
59.2567
 20
-236.007
 11
58.8533
 21
-236.301
  0
LINE
  8
0
 10
58.8533
 20
-236.301
 11
58.4357
 21
-236.576
  0
LINE
  8
0
 10
58.4357
 20
-236.576
 11
58.0051
 21
-236.829
  0
LINE
  8
0
 10
58.0051
 20
-236.829
 11
57.5624
 21
-237.061
  0
LINE
  8
0
 10
57.5624
 20
-237.061
 11
57.1089
 21
-237.27
  0
LINE
  8
0
 10
57.1089
 20
-237.27
 11
56.6455
 21
-237.457
  0
LINE
  8
0
 10
56.6455
 20
-237.457
 11
56.1735
 21
-237.621
  0
LINE
  8
0
 10
56.1735
 20
-237.621
 11
55.694
 21
-237.761
  0
LINE
  8
0
 10
55.694
 20
-237.761
 11
55.2081
 21
-237.878
  0
LINE
  8
0
 10
55.2081
 20
-237.878
 11
54.717
 21
-237.97
  0
LINE
  8
0
 10
54.717
 20
-237.97
 11
54.222
 21
-238.037
  0
LINE
  8
0
 10
54.222
 20
-238.037
 11
53.7242
 21
-238.081
  0
LINE
  8
0
 10
53.7242
 20
-238.081
 11
53.2249
 21
-238.099
  0
LINE
  8
0
 10
53.2249
 20
-238.099
 11
52.7253
 21
-238.093
  0
LINE
  8
0
 10
16.8509
 20
-230.688
 11
16.3611
 21
-230.597
  0
LINE
  8
0
 10
16.3611
 20
-230.597
 11
15.8965
 21
-230.417
  0
LINE
  8
0
 10
15.8965
 20
-230.417
 11
15.4729
 21
-230.155
  0
LINE
  8
0
 10
15.4729
 20
-230.155
 11
15.1047
 21
-229.819
  0
LINE
  8
0
 10
15.1047
 20
-229.819
 11
14.8044
 21
-229.421
  0
LINE
  8
0
 10
14.8044
 20
-229.421
 11
14.5823
 21
-228.975
  0
LINE
  8
0
 10
14.5823
 20
-228.975
 11
14.446
 21
-228.496
  0
LINE
  8
0
 10
14.446
 20
-228.496
 11
14.4
 21
-228
  0
LINE
  8
0
 10
14.4
 20
-228
 11
14.446
 21
-227.504
  0
LINE
  8
0
 10
14.446
 20
-227.504
 11
14.5823
 21
-227.025
  0
LINE
  8
0
 10
14.5823
 20
-227.025
 11
14.8044
 21
-226.579
  0
LINE
  8
0
 10
14.8044
 20
-226.579
 11
15.1047
 21
-226.181
  0
LINE
  8
0
 10
15.1047
 20
-226.181
 11
15.4729
 21
-225.845
  0
LINE
  8
0
 10
15.4729
 20
-225.845
 11
15.8965
 21
-225.583
  0
LINE
  8
0
 10
15.8965
 20
-225.583
 11
16.3611
 21
-225.403
  0
LINE
  8
0
 10
16.3611
 20
-225.403
 11
16.8509
 21
-225.312
  0
LINE
  8
0
 10
16.8509
 20
-225.312
 11
17.3491
 21
-225.312
  0
LINE
  8
0
 10
17.3491
 20
-225.312
 11
17.8389
 21
-225.403
  0
LINE
  8
0
 10
17.8389
 20
-225.403
 11
18.3035
 21
-225.583
  0
LINE
  8
0
 10
18.3035
 20
-225.583
 11
18.7271
 21
-225.845
  0
LINE
  8
0
 10
18.7271
 20
-225.845
 11
19.0953
 21
-226.181
  0
LINE
  8
0
 10
19.0953
 20
-226.181
 11
19.3956
 21
-226.579
  0
LINE
  8
0
 10
19.3956
 20
-226.579
 11
19.6177
 21
-227.025
  0
LINE
  8
0
 10
19.6177
 20
-227.025
 11
19.754
 21
-227.504
  0
LINE
  8
0
 10
19.754
 20
-227.504
 11
19.8
 21
-228
  0
LINE
  8
0
 10
19.8
 20
-228
 11
19.754
 21
-228.496
  0
LINE
  8
0
 10
19.754
 20
-228.496
 11
19.6177
 21
-228.975
  0
LINE
  8
0
 10
19.6177
 20
-228.975
 11
19.3956
 21
-229.421
  0
LINE
  8
0
 10
19.3956
 20
-229.421
 11
19.0953
 21
-229.819
  0
LINE
  8
0
 10
19.0953
 20
-229.819
 11
18.7271
 21
-230.155
  0
LINE
  8
0
 10
18.7271
 20
-230.155
 11
18.3035
 21
-230.417
  0
LINE
  8
0
 10
18.3035
 20
-230.417
 11
17.8389
 21
-230.597
  0
LINE
  8
0
 10
17.8389
 20
-230.597
 11
17.3491
 21
-230.688
  0
LINE
  8
0
 10
17.3491
 20
-230.688
 11
16.8509
 21
-230.688
  0
LINE
  8
0
 10
-21.4763
 20
-249.991
 11
-20.9777
 21
-249.971
  0
LINE
  8
0
 10
-20.9777
 20
-249.971
 11
-20.4796
 21
-249.94
  0
LINE
  8
0
 10
-20.4796
 20
-249.94
 11
-19.9824
 21
-249.898
  0
LINE
  8
0
 10
-19.9824
 20
-249.898
 11
-19.4863
 21
-249.844
  0
LINE
  8
0
 10
-19.4863
 20
-249.844
 11
-18.9915
 21
-249.779
  0
LINE
  8
0
 10
-18.9915
 20
-249.779
 11
-18.4983
 21
-249.703
  0
LINE
  8
0
 10
-18.4983
 20
-249.703
 11
-18.007
 21
-249.616
  0
LINE
  8
0
 10
-18.007
 20
-249.616
 11
-17.5178
 21
-249.518
  0
LINE
  8
0
 10
-17.5178
 20
-249.518
 11
-17.0309
 21
-249.408
  0
LINE
  8
0
 10
-17.0309
 20
-249.408
 11
-16.5467
 21
-249.288
  0
LINE
  8
0
 10
-16.5467
 20
-249.288
 11
-16.0653
 21
-249.156
  0
LINE
  8
0
 10
-16.0653
 20
-249.156
 11
-15.587
 21
-249.014
  0
LINE
  8
0
 10
-15.587
 20
-249.014
 11
-15.1121
 21
-248.861
  0
LINE
  8
0
 10
-15.1121
 20
-248.861
 11
-14.6407
 21
-248.697
  0
LINE
  8
0
 10
-14.6407
 20
-248.697
 11
-14.1732
 21
-248.522
  0
LINE
  8
0
 10
-14.1732
 20
-248.522
 11
-13.7098
 21
-248.337
  0
LINE
  8
0
 10
-13.7098
 20
-248.337
 11
-13.2507
 21
-248.142
  0
LINE
  8
0
 10
-13.2507
 20
-248.142
 11
-12.7961
 21
-247.936
  0
LINE
  8
0
 10
-12.7961
 20
-247.936
 11
-12.3463
 21
-247.72
  0
LINE
  8
0
 10
-12.3463
 20
-247.72
 11
-11.9016
 21
-247.493
  0
LINE
  8
0
 10
-11.9016
 20
-247.493
 11
-11.4621
 21
-247.257
  0
LINE
  8
0
 10
-11.4621
 20
-247.257
 11
-11.028
 21
-247.011
  0
LINE
  8
0
 10
-11.028
 20
-247.011
 11
-10.5997
 21
-246.755
  0
LINE
  8
0
 10
-10.5997
 20
-246.755
 11
-10.1773
 21
-246.489
  0
LINE
  8
0
 10
-10.1773
 20
-246.489
 11
-9.761
 21
-246.214
  0
LINE
  8
0
 10
-9.761
 20
-246.214
 11
-9.35106
 21
-245.929
  0
LINE
  8
0
 10
-9.35106
 20
-245.929
 11
-8.94768
 21
-245.636
  0
LINE
  8
0
 10
-8.94768
 20
-245.636
 11
-8.55107
 21
-245.333
  0
LINE
  8
0
 10
-8.55107
 20
-245.333
 11
-8.16144
 21
-245.021
  0
LINE
  8
0
 10
-8.16144
 20
-245.021
 11
-7.77896
 21
-244.701
  0
LINE
  8
0
 10
-7.77896
 20
-244.701
 11
-7.40385
 21
-244.371
  0
LINE
  8
0
 10
-7.40385
 20
-244.371
 11
-7.03632
 21
-244.034
  0
LINE
  8
0
 10
-7.03632
 20
-244.034
 11
-6.67653
 21
-243.688
  0
LINE
  8
0
 10
-6.67653
 20
-243.688
 11
-6.32468
 21
-243.334
  0
LINE
  8
0
 10
-6.32468
 20
-243.334
 11
-5.98094
 21
-242.973
  0
LINE
  8
0
 10
-5.98094
 20
-242.973
 11
-5.64549
 21
-242.603
  0
LINE
  8
0
 10
-5.64549
 20
-242.603
 11
-5.31851
 21
-242.226
  0
LINE
  8
0
 10
-5.31851
 20
-242.226
 11
-5.00017
 21
-241.842
  0
LINE
  8
0
 10
-5.00017
 20
-241.842
 11
-4.69061
 21
-241.45
  0
LINE
  8
0
 10
-4.69061
 20
-241.45
 11
-4.39003
 21
-241.052
  0
LINE
  8
0
 10
-4.39003
 20
-241.052
 11
-4.09854
 21
-240.647
  0
LINE
  8
0
 10
-4.09854
 20
-240.647
 11
-3.81633
 21
-240.236
  0
LINE
  8
0
 10
-3.81633
 20
-240.236
 11
-3.54352
 21
-239.818
  0
LINE
  8
0
 10
-3.54352
 20
-239.818
 11
-3.28026
 21
-239.394
  0
LINE
  8
0
 10
-3.28026
 20
-239.394
 11
-3.02667
 21
-238.964
  0
LINE
  8
0
 10
-3.02667
 20
-238.964
 11
-2.78291
 21
-238.529
  0
LINE
  8
0
 10
-2.78291
 20
-238.529
 11
-2.54907
 21
-238.088
  0
LINE
  8
0
 10
-2.54907
 20
-238.088
 11
-2.3253
 21
-237.642
  0
LINE
  8
0
 10
-2.3253
 20
-237.642
 11
-2.11171
 21
-237.191
  0
LINE
  8
0
 10
-2.11171
 20
-237.191
 11
-1.9084
 21
-236.735
  0
LINE
  8
0
 10
-1.9084
 20
-236.735
 11
-1.71547
 21
-236.275
  0
LINE
  8
0
 10
-1.71547
 20
-236.275
 11
-1.53304
 21
-235.81
  0
LINE
  8
0
 10
-1.53304
 20
-235.81
 11
-1.36119
 21
-235.342
  0
LINE
  8
0
 10
-1.36119
 20
-235.342
 11
-1.2
 21
-234.87
  0
LINE
  8
0
 10
-1.2
 20
-234.87
 11
-1.04958
 21
-234.394
  0
LINE
  8
0
 10
-1.04958
 20
-234.394
 11
-0.909973
 21
-233.915
  0
LINE
  8
0
 10
-0.909973
 20
-233.915
 11
-0.781265
 21
-233.432
  0
LINE
  8
0
 10
-0.781265
 20
-233.432
 11
-0.663544
 21
-232.948
  0
LINE
  8
0
 10
-0.663544
 20
-232.948
 11
-0.556839
 21
-232.46
  0
LINE
  8
0
 10
-0.556839
 20
-232.46
 11
-0.461227
 21
-231.97
  0
LINE
  8
0
 10
-0.461227
 20
-231.97
 11
-0.37674
 21
-231.479
  0
LINE
  8
0
 10
-0.37674
 20
-231.479
 11
-0.303421
 21
-230.985
  0
LINE
  8
0
 10
-0.303421
 20
-230.985
 11
-0.241333
 21
-230.49
  0
LINE
  8
0
 10
-0.241333
 20
-230.49
 11
-0.190491
 21
-229.993
  0
LINE
  8
0
 10
-0.190491
 20
-229.993
 11
-0.150909
 21
-229.496
  0
LINE
  8
0
 10
-0.150909
 20
-229.496
 11
-0.122635
 21
-228.998
  0
LINE
  8
0
 10
-0.122635
 20
-228.998
 11
-0.105652
 21
-228.499
  0
LINE
  8
0
 10
-0.105652
 20
-228.499
 11
-0.0999908
 21
-228
  0
LINE
  8
0
 10
-0.0999908
 20
-228
 11
-0.0999908
 21
-108
  0
LINE
  8
0
 10
-0.0999908
 20
-108
 11
-0.105652
 21
-107.501
  0
LINE
  8
0
 10
-0.105652
 20
-107.501
 11
-0.122635
 21
-107.002
  0
LINE
  8
0
 10
-0.122635
 20
-107.002
 11
-0.150909
 21
-106.504
  0
LINE
  8
0
 10
-0.150909
 20
-106.504
 11
-0.190491
 21
-106.007
  0
LINE
  8
0
 10
-0.190491
 20
-106.007
 11
-0.241333
 21
-105.51
  0
LINE
  8
0
 10
-0.241333
 20
-105.51
 11
-0.303421
 21
-105.015
  0
LINE
  8
0
 10
-0.303421
 20
-105.015
 11
-0.37674
 21
-104.521
  0
LINE
  8
0
 10
-0.37674
 20
-104.521
 11
-0.461227
 21
-104.03
  0
LINE
  8
0
 10
-0.461227
 20
-104.03
 11
-0.556839
 21
-103.54
  0
LINE
  8
0
 10
-0.556839
 20
-103.54
 11
-0.663544
 21
-103.052
  0
LINE
  8
0
 10
-0.663544
 20
-103.052
 11
-0.781265
 21
-102.567
  0
LINE
  8
0
 10
-0.781265
 20
-102.567
 11
-0.909973
 21
-102.085
  0
LINE
  8
0
 10
-0.909973
 20
-102.085
 11
-1.04958
 21
-101.606
  0
LINE
  8
0
 10
-1.04958
 20
-101.606
 11
-1.2
 21
-101.13
  0
LINE
  8
0
 10
-1.2
 20
-101.13
 11
-1.36119
 21
-100.658
  0
LINE
  8
0
 10
-1.36119
 20
-100.658
 11
-1.53304
 21
-100.19
  0
LINE
  8
0
 10
-1.53304
 20
-100.19
 11
-1.71547
 21
-99.7253
  0
LINE
  8
0
 10
-1.71547
 20
-99.7253
 11
-1.9084
 21
-99.265
  0
LINE
  8
0
 10
-1.9084
 20
-99.265
 11
-2.11171
 21
-98.8093
  0
LINE
  8
0
 10
-2.11171
 20
-98.8093
 11
-2.3253
 21
-98.3583
  0
LINE
  8
0
 10
-2.3253
 20
-98.3583
 11
-2.54907
 21
-97.9123
  0
LINE
  8
0
 10
-2.54907
 20
-97.9123
 11
-2.78291
 21
-97.4715
  0
LINE
  8
0
 10
-2.78291
 20
-97.4715
 11
-3.02667
 21
-97.036
  0
LINE
  8
0
 10
-3.02667
 20
-97.036
 11
-3.28026
 21
-96.6062
  0
LINE
  8
0
 10
-3.28026
 20
-96.6062
 11
-3.54352
 21
-96.1823
  0
LINE
  8
0
 10
-3.54352
 20
-96.1823
 11
-3.81633
 21
-95.7645
  0
LINE
  8
0
 10
-3.81633
 20
-95.7645
 11
-4.09854
 21
-95.3529
  0
LINE
  8
0
 10
-4.09854
 20
-95.3529
 11
-4.39003
 21
-94.9479
  0
LINE
  8
0
 10
-4.39003
 20
-94.9479
 11
-4.69061
 21
-94.5496
  0
LINE
  8
0
 10
-4.69061
 20
-94.5496
 11
-5.00017
 21
-94.1582
  0
LINE
  8
0
 10
-5.00017
 20
-94.1582
 11
-5.31851
 21
-93.7739
  0
LINE
  8
0
 10
-5.31851
 20
-93.7739
 11
-5.64549
 21
-93.3969
  0
LINE
  8
0
 10
-5.64549
 20
-93.3969
 11
-5.98094
 21
-93.0275
  0
LINE
  8
0
 10
-5.98094
 20
-93.0275
 11
-6.32468
 21
-92.6657
  0
LINE
  8
0
 10
-6.32468
 20
-92.6657
 11
-6.67653
 21
-92.3119
  0
LINE
  8
0
 10
-6.67653
 20
-92.3119
 11
-7.03632
 21
-91.9661
  0
LINE
  8
0
 10
-7.03632
 20
-91.9661
 11
-7.40385
 21
-91.6286
  0
LINE
  8
0
 10
-7.40385
 20
-91.6286
 11
-7.77896
 21
-91.2995
  0
LINE
  8
0
 10
-7.77896
 20
-91.2995
 11
-8.16144
 21
-90.9789
  0
LINE
  8
0
 10
-8.16144
 20
-90.9789
 11
-8.55107
 21
-90.6672
  0
LINE
  8
0
 10
-8.55107
 20
-90.6672
 11
-8.94768
 21
-90.3643
  0
LINE
  8
0
 10
-8.94768
 20
-90.3643
 11
-9.35106
 21
-90.0706
  0
LINE
  8
0
 10
-9.35106
 20
-90.0706
 11
-9.761
 21
-89.786
  0
LINE
  8
0
 10
-9.761
 20
-89.786
 11
-10.1773
 21
-89.5108
  0
LINE
  8
0
 10
-10.1773
 20
-89.5108
 11
-10.5997
 21
-89.2452
  0
LINE
  8
0
 10
-10.5997
 20
-89.2452
 11
-11.028
 21
-88.9892
  0
LINE
  8
0
 10
-11.028
 20
-88.9892
 11
-11.4621
 21
-88.7429
  0
LINE
  8
0
 10
-11.4621
 20
-88.7429
 11
-11.9016
 21
-88.5066
  0
LINE
  8
0
 10
-11.9016
 20
-88.5066
 11
-12.3463
 21
-88.2803
  0
LINE
  8
0
 10
-12.3463
 20
-88.2803
 11
-12.7961
 21
-88.0641
  0
LINE
  8
0
 10
-12.7961
 20
-88.0641
 11
-13.2507
 21
-87.8583
  0
LINE
  8
0
 10
-13.2507
 20
-87.8583
 11
-13.7098
 21
-87.6627
  0
LINE
  8
0
 10
-13.7098
 20
-87.6627
 11
-14.1732
 21
-87.4777
  0
LINE
  8
0
 10
-14.1732
 20
-87.4777
 11
-14.6407
 21
-87.3032
  0
LINE
  8
0
 10
-14.6407
 20
-87.3032
 11
-15.1121
 21
-87.1393
  0
LINE
  8
0
 10
-15.1121
 20
-87.1393
 11
-15.587
 21
-86.9862
  0
LINE
  8
0
 10
-15.587
 20
-86.9862
 11
-16.0653
 21
-86.8439
  0
LINE
  8
0
 10
-16.0653
 20
-86.8439
 11
-16.5467
 21
-86.7124
  0
LINE
  8
0
 10
-16.5467
 20
-86.7124
 11
-17.0309
 21
-86.5919
  0
LINE
  8
0
 10
-17.0309
 20
-86.5919
 11
-17.5178
 21
-86.4825
  0
LINE
  8
0
 10
-17.5178
 20
-86.4825
 11
-18.007
 21
-86.3841
  0
LINE
  8
0
 10
-18.007
 20
-86.3841
 11
-18.4983
 21
-86.2968
  0
LINE
  8
0
 10
-18.4983
 20
-86.2968
 11
-18.9915
 21
-86.2207
  0
LINE
  8
0
 10
-18.9915
 20
-86.2207
 11
-19.4863
 21
-86.1558
  0
LINE
  8
0
 10
-19.4863
 20
-86.1558
 11
-19.9824
 21
-86.1021
  0
LINE
  8
0
 10
-19.9824
 20
-86.1021
 11
-20.4796
 21
-86.0598
  0
LINE
  8
0
 10
-20.4796
 20
-86.0598
 11
-20.9777
 21
-86.0286
  0
LINE
  8
0
 10
-20.9777
 20
-86.0286
 11
-21.4763
 21
-86.0088
  0
LINE
  8
0
 10
-21.4763
 20
-86.0088
 11
-21.9752
 21
-86.0004
  0
LINE
  8
0
 10
-21.9752
 20
-86.0004
 11
-22.4742
 21
-86.0032
  0
LINE
  8
0
 10
-22.4742
 20
-86.0032
 11
-22.9731
 21
-86.0173
  0
LINE
  8
0
 10
-22.9731
 20
-86.0173
 11
-23.4714
 21
-86.0428
  0
LINE
  8
0
 10
-23.4714
 20
-86.0428
 11
-23.9691
 21
-86.0795
  0
LINE
  8
0
 10
-23.9691
 20
-86.0795
 11
-24.4658
 21
-86.1276
  0
LINE
  8
0
 10
-24.4658
 20
-86.1276
 11
-24.9613
 21
-86.1869
  0
LINE
  8
0
 10
-24.9613
 20
-86.1869
 11
-25.4553
 21
-86.2574
  0
LINE
  8
0
 10
-25.4553
 20
-86.2574
 11
-55.573
 21
-91.1413
  0
LINE
  8
0
 10
-55.573
 20
-91.1413
 11
-56.0629
 21
-91.2341
  0
LINE
  8
0
 10
-56.0629
 20
-91.2341
 11
-56.5504
 21
-91.3389
  0
LINE
  8
0
 10
-56.5504
 20
-91.3389
 11
-57.0351
 21
-91.4559
  0
LINE
  8
0
 10
-57.0351
 20
-91.4559
 11
-57.5168
 21
-91.585
  0
LINE
  8
0
 10
-57.5168
 20
-91.585
 11
-57.9951
 21
-91.726
  0
LINE
  8
0
 10
-57.9951
 20
-91.726
 11
-58.4697
 21
-91.879
  0
LINE
  8
0
 10
-58.4697
 20
-91.879
 11
-58.9404
 21
-92.0436
  0
LINE
  8
0
 10
-58.9404
 20
-92.0436
 11
-59.4068
 21
-92.22
  0
LINE
  8
0
 10
-59.4068
 20
-92.22
 11
-59.8687
 21
-92.408
  0
LINE
  8
0
 10
-59.8687
 20
-92.408
 11
-60.3257
 21
-92.6074
  0
LINE
  8
0
 10
-60.3257
 20
-92.6074
 11
-60.7777
 21
-92.8181
  0
LINE
  8
0
 10
-60.7777
 20
-92.8181
 11
-61.2242
 21
-93.0401
  0
LINE
  8
0
 10
-61.2242
 20
-93.0401
 11
-61.6651
 21
-93.2731
  0
LINE
  8
0
 10
-61.6651
 20
-93.2731
 11
-62.1
 21
-93.517
  0
LINE
  8
0
 10
-62.1
 20
-93.517
 11
-62.5287
 21
-93.7717
  0
LINE
  8
0
 10
-62.5287
 20
-93.7717
 11
-62.9509
 21
-94.037
  0
LINE
  8
0
 10
-62.9509
 20
-94.037
 11
-63.3664
 21
-94.3127
  0
LINE
  8
0
 10
-63.3664
 20
-94.3127
 11
-63.7749
 21
-94.5987
  0
LINE
  8
0
 10
-63.7749
 20
-94.5987
 11
-64.1761
 21
-94.8949
  0
LINE
  8
0
 10
-64.1761
 20
-94.8949
 11
-64.5698
 21
-95.2009
  0
LINE
  8
0
 10
-64.5698
 20
-95.2009
 11
-64.9557
 21
-95.5166
  0
LINE
  8
0
 10
-64.9557
 20
-95.5166
 11
-65.3337
 21
-95.8419
  0
LINE
  8
0
 10
-65.3337
 20
-95.8419
 11
-65.7034
 21
-96.1765
  0
LINE
  8
0
 10
-65.7034
 20
-96.1765
 11
-66.0647
 21
-96.5202
  0
LINE
  8
0
 10
-66.0647
 20
-96.5202
 11
-66.4173
 21
-96.8728
  0
LINE
  8
0
 10
-66.4173
 20
-96.8728
 11
-66.761
 21
-97.234
  0
LINE
  8
0
 10
-66.761
 20
-97.234
 11
-67.0956
 21
-97.6038
  0
LINE
  8
0
 10
-67.0956
 20
-97.6038
 11
-67.4209
 21
-97.9818
  0
LINE
  8
0
 10
-67.4209
 20
-97.9818
 11
-67.7366
 21
-98.3677
  0
LINE
  8
0
 10
-67.7366
 20
-98.3677
 11
-68.0426
 21
-98.7614
  0
LINE
  8
0
 10
-68.0426
 20
-98.7614
 11
-68.3388
 21
-99.1626
  0
LINE
  8
0
 10
-68.3388
 20
-99.1626
 11
-68.6248
 21
-99.5711
  0
LINE
  8
0
 10
-68.6248
 20
-99.5711
 11
-68.9005
 21
-99.9866
  0
LINE
  8
0
 10
-68.9005
 20
-99.9866
 11
-69.1658
 21
-100.409
  0
LINE
  8
0
 10
-69.1658
 20
-100.409
 11
-69.4205
 21
-100.837
  0
LINE
  8
0
 10
-69.4205
 20
-100.837
 11
-69.6644
 21
-101.272
  0
LINE
  8
0
 10
-69.6644
 20
-101.272
 11
-69.8974
 21
-101.713
  0
LINE
  8
0
 10
-69.8974
 20
-101.713
 11
-70.1194
 21
-102.16
  0
LINE
  8
0
 10
-70.1194
 20
-102.16
 11
-70.3301
 21
-102.612
  0
LINE
  8
0
 10
-70.3301
 20
-102.612
 11
-70.5295
 21
-103.069
  0
LINE
  8
0
 10
-70.5295
 20
-103.069
 11
-70.7175
 21
-103.531
  0
LINE
  8
0
 10
-70.7175
 20
-103.531
 11
-70.8938
 21
-103.997
  0
LINE
  8
0
 10
-70.8938
 20
-103.997
 11
-71.0585
 21
-104.468
  0
LINE
  8
0
 10
-71.0585
 20
-104.468
 11
-71.2115
 21
-104.942
  0
LINE
  8
0
 10
-71.2115
 20
-104.942
 11
-71.3525
 21
-105.421
  0
LINE
  8
0
 10
-71.3525
 20
-105.421
 11
-71.4815
 21
-105.902
  0
LINE
  8
0
 10
-71.4815
 20
-105.902
 11
-71.5144
 21
-106.038
  0
LINE
  8
0
 10
-71.5144
 20
-106.038
 11
-99.6842
 21
-106.038
  0
LINE
  8
0
 10
-99.6842
 20
-106.038
 11
-99.9356
 21
-106.206
  0
LINE
  8
0
 10
-99.9356
 20
-106.206
 11
-100.347
 21
-106.49
  0
LINE
  8
0
 10
-100.347
 20
-106.49
 11
-100.754
 21
-106.781
  0
LINE
  8
0
 10
-100.754
 20
-106.781
 11
-101.156
 21
-107.078
  0
LINE
  8
0
 10
-101.156
 20
-107.078
 11
-101.552
 21
-107.383
  0
LINE
  8
0
 10
-101.552
 20
-107.383
 11
-101.944
 21
-107.693
  0
LINE
  8
0
 10
-101.944
 20
-107.693
 11
-102.33
 21
-108.011
  0
LINE
  8
0
 10
-102.33
 20
-108.011
 11
-102.711
 21
-108.334
  0
LINE
  8
0
 10
-102.711
 20
-108.334
 11
-103.087
 21
-108.664
  0
LINE
  8
0
 10
-103.087
 20
-108.664
 11
-103.457
 21
-109
  0
LINE
  8
0
 10
-103.457
 20
-109
 11
-103.822
 21
-109.343
  0
LINE
  8
0
 10
-103.822
 20
-109.343
 11
-104.18
 21
-109.691
  0
LINE
  8
0
 10
-104.18
 20
-109.691
 11
-104.533
 21
-110.045
  0
LINE
  8
0
 10
-104.533
 20
-110.045
 11
-104.88
 21
-110.406
  0
LINE
  8
0
 10
-104.88
 20
-110.406
 11
-105.221
 21
-110.771
  0
LINE
  8
0
 10
-105.221
 20
-110.771
 11
-105.555
 21
-111.143
  0
LINE
  8
0
 10
-105.555
 20
-111.143
 11
-105.884
 21
-111.52
  0
LINE
  8
0
 10
-105.884
 20
-111.52
 11
-106.206
 21
-111.902
  0
LINE
  8
0
 10
-106.206
 20
-111.902
 11
-106.521
 21
-112.29
  0
LINE
  8
0
 10
-106.521
 20
-112.29
 11
-106.831
 21
-112.683
  0
LINE
  8
0
 10
-106.831
 20
-112.683
 11
-107.133
 21
-113.081
  0
LINE
  8
0
 10
-107.133
 20
-113.081
 11
-107.429
 21
-113.484
  0
LINE
  8
0
 10
-107.429
 20
-113.484
 11
-107.718
 21
-113.892
  0
LINE
  8
0
 10
-107.718
 20
-113.892
 11
-108.001
 21
-114.305
  0
LINE
  8
0
 10
-108.001
 20
-114.305
 11
-108.1
 21
-114.455
  0
LINE
  8
0
 10
-108.1
 20
-114.455
 11
-108.1
 21
-147.618
  0
LINE
  8
0
 10
-108.1
 20
-147.618
 11
-108.001
 21
-147.769
  0
LINE
  8
0
 10
-108.001
 20
-147.769
 11
-107.718
 21
-148.181
  0
LINE
  8
0
 10
-107.718
 20
-148.181
 11
-107.429
 21
-148.589
  0
LINE
  8
0
 10
-107.429
 20
-148.589
 11
-107.133
 21
-148.992
  0
LINE
  8
0
 10
-107.133
 20
-148.992
 11
-106.831
 21
-149.39
  0
LINE
  8
0
 10
-106.831
 20
-149.39
 11
-106.521
 21
-149.783
  0
LINE
  8
0
 10
-106.521
 20
-149.783
 11
-106.206
 21
-150.171
  0
LINE
  8
0
 10
-106.206
 20
-150.171
 11
-105.884
 21
-150.553
  0
LINE
  8
0
 10
-105.884
 20
-150.553
 11
-105.555
 21
-150.93
  0
LINE
  8
0
 10
-105.555
 20
-150.93
 11
-105.221
 21
-151.302
  0
LINE
  8
0
 10
-105.221
 20
-151.302
 11
-104.88
 21
-151.667
  0
LINE
  8
0
 10
-104.88
 20
-151.667
 11
-104.533
 21
-152.028
  0
LINE
  8
0
 10
-104.533
 20
-152.028
 11
-104.18
 21
-152.382
  0
LINE
  8
0
 10
-104.18
 20
-152.382
 11
-103.822
 21
-152.73
  0
LINE
  8
0
 10
-103.822
 20
-152.73
 11
-103.457
 21
-153.073
  0
LINE
  8
0
 10
-103.457
 20
-153.073
 11
-103.087
 21
-153.409
  0
LINE
  8
0
 10
-103.087
 20
-153.409
 11
-102.711
 21
-153.739
  0
LINE
  8
0
 10
-102.711
 20
-153.739
 11
-102.33
 21
-154.062
  0
LINE
  8
0
 10
-102.33
 20
-154.062
 11
-101.944
 21
-154.38
  0
LINE
  8
0
 10
-101.944
 20
-154.38
 11
-101.552
 21
-154.691
  0
LINE
  8
0
 10
-101.552
 20
-154.691
 11
-101.156
 21
-154.995
  0
LINE
  8
0
 10
-101.156
 20
-154.995
 11
-100.754
 21
-155.292
  0
LINE
  8
0
 10
-100.754
 20
-155.292
 11
-100.347
 21
-155.583
  0
LINE
  8
0
 10
-100.347
 20
-155.583
 11
-99.9356
 21
-155.867
  0
LINE
  8
0
 10
-99.9356
 20
-155.867
 11
-99.6842
 21
-156.035
  0
LINE
  8
0
 10
-99.6842
 20
-156.035
 11
-74.7876
 21
-156.035
  0
LINE
  8
0
 10
-74.7876
 20
-156.035
 11
-75.0646
 21
-160.753
  0
LINE
  8
0
 10
-75.0646
 20
-160.753
 11
-75.0873
 21
-161.252
  0
LINE
  8
0
 10
-75.0873
 20
-161.252
 11
-75.0986
 21
-161.75
  0
LINE
  8
0
 10
-75.0986
 20
-161.75
 11
-75.0986
 21
-170.002
  0
LINE
  8
0
 10
-75.0986
 20
-170.002
 11
-84.6842
 21
-170.002
  0
LINE
  8
0
 10
-84.6842
 20
-170.002
 11
-84.9356
 21
-170.169
  0
LINE
  8
0
 10
-84.9356
 20
-170.169
 11
-85.3471
 21
-170.453
  0
LINE
  8
0
 10
-85.3471
 20
-170.453
 11
-85.7538
 21
-170.744
  0
LINE
  8
0
 10
-85.7538
 20
-170.744
 11
-86.1555
 21
-171.042
  0
LINE
  8
0
 10
-86.1555
 20
-171.042
 11
-86.5523
 21
-171.346
  0
LINE
  8
0
 10
-86.5523
 20
-171.346
 11
-86.944
 21
-171.657
  0
LINE
  8
0
 10
-86.944
 20
-171.657
 11
-87.3304
 21
-171.974
  0
LINE
  8
0
 10
-87.3304
 20
-171.974
 11
-87.7114
 21
-172.298
  0
LINE
  8
0
 10
-87.7114
 20
-172.298
 11
-88.0871
 21
-172.628
  0
LINE
  8
0
 10
-88.0871
 20
-172.628
 11
-88.4571
 21
-172.964
  0
LINE
  8
0
 10
-88.4571
 20
-172.964
 11
-88.8215
 21
-173.306
  0
LINE
  8
0
 10
-88.8215
 20
-173.306
 11
-89.1802
 21
-173.655
  0
LINE
  8
0
 10
-89.1802
 20
-173.655
 11
-89.533
 21
-174.009
  0
LINE
  8
0
 10
-89.533
 20
-174.009
 11
-89.8799
 21
-174.369
  0
LINE
  8
0
 10
-89.8799
 20
-174.369
 11
-90.2207
 21
-174.735
  0
LINE
  8
0
 10
-90.2207
 20
-174.735
 11
-90.5553
 21
-175.106
  0
LINE
  8
0
 10
-90.5553
 20
-175.106
 11
-90.8837
 21
-175.483
  0
LINE
  8
0
 10
-90.8837
 20
-175.483
 11
-91.2058
 21
-175.866
  0
LINE
  8
0
 10
-91.2058
 20
-175.866
 11
-91.5215
 21
-176.253
  0
LINE
  8
0
 10
-91.5215
 20
-176.253
 11
-91.8307
 21
-176.646
  0
LINE
  8
0
 10
-91.8307
 20
-176.646
 11
-92.1332
 21
-177.044
  0
LINE
  8
0
 10
-92.1332
 20
-177.044
 11
-92.4292
 21
-177.447
  0
LINE
  8
0
 10
-92.4292
 20
-177.447
 11
-92.7183
 21
-177.855
  0
LINE
  8
0
 10
-92.7183
 20
-177.855
 11
-93.0006
 21
-178.268
  0
LINE
  8
0
 10
-93.0006
 20
-178.268
 11
-93.1
 21
-178.419
  0
LINE
  8
0
 10
-93.1
 20
-178.419
 11
-93.1
 21
-211.581
  0
LINE
  8
0
 10
-93.1
 20
-211.581
 11
-93.0006
 21
-211.732
  0
LINE
  8
0
 10
-93.0006
 20
-211.732
 11
-92.7183
 21
-212.145
  0
LINE
  8
0
 10
-92.7183
 20
-212.145
 11
-92.4292
 21
-212.553
  0
LINE
  8
0
 10
-92.4292
 20
-212.553
 11
-92.1332
 21
-212.956
  0
LINE
  8
0
 10
-92.1332
 20
-212.956
 11
-91.8307
 21
-213.354
  0
LINE
  8
0
 10
-91.8307
 20
-213.354
 11
-91.5215
 21
-213.747
  0
LINE
  8
0
 10
-91.5215
 20
-213.747
 11
-91.2058
 21
-214.134
  0
LINE
  8
0
 10
-91.2058
 20
-214.134
 11
-90.8837
 21
-214.517
  0
LINE
  8
0
 10
-90.8837
 20
-214.517
 11
-90.5553
 21
-214.894
  0
LINE
  8
0
 10
-90.5553
 20
-214.894
 11
-90.2207
 21
-215.265
  0
LINE
  8
0
 10
-90.2207
 20
-215.265
 11
-89.8799
 21
-215.631
  0
LINE
  8
0
 10
-89.8799
 20
-215.631
 11
-89.533
 21
-215.991
  0
LINE
  8
0
 10
-89.533
 20
-215.991
 11
-89.1802
 21
-216.345
  0
LINE
  8
0
 10
-89.1802
 20
-216.345
 11
-88.8215
 21
-216.694
  0
LINE
  8
0
 10
-88.8215
 20
-216.694
 11
-88.4571
 21
-217.036
  0
LINE
  8
0
 10
-88.4571
 20
-217.036
 11
-88.0871
 21
-217.372
  0
LINE
  8
0
 10
-88.0871
 20
-217.372
 11
-87.7114
 21
-217.702
  0
LINE
  8
0
 10
-87.7114
 20
-217.702
 11
-87.3304
 21
-218.026
  0
LINE
  8
0
 10
-87.3304
 20
-218.026
 11
-86.944
 21
-218.343
  0
LINE
  8
0
 10
-86.944
 20
-218.343
 11
-86.5523
 21
-218.654
  0
LINE
  8
0
 10
-86.5523
 20
-218.654
 11
-86.1555
 21
-218.958
  0
LINE
  8
0
 10
-86.1555
 20
-218.958
 11
-85.7538
 21
-219.256
  0
LINE
  8
0
 10
-85.7538
 20
-219.256
 11
-85.3471
 21
-219.547
  0
LINE
  8
0
 10
-85.3471
 20
-219.547
 11
-84.9356
 21
-219.831
  0
LINE
  8
0
 10
-84.9356
 20
-219.831
 11
-84.6842
 21
-219.998
  0
LINE
  8
0
 10
-84.6842
 20
-219.998
 11
-75.0986
 21
-219.998
  0
LINE
  8
0
 10
-75.0986
 20
-219.998
 11
-75.0986
 21
-228.25
  0
LINE
  8
0
 10
-75.0986
 20
-228.25
 11
-75.0873
 21
-228.748
  0
LINE
  8
0
 10
-75.0873
 20
-228.748
 11
-75.0646
 21
-229.247
  0
LINE
  8
0
 10
-75.0646
 20
-229.247
 11
-75.0307
 21
-229.745
  0
LINE
  8
0
 10
-75.0307
 20
-229.745
 11
-74.9855
 21
-230.242
  0
LINE
  8
0
 10
-74.9855
 20
-230.242
 11
-74.929
 21
-230.738
  0
LINE
  8
0
 10
-74.929
 20
-230.738
 11
-74.8613
 21
-231.232
  0
LINE
  8
0
 10
-74.8613
 20
-231.232
 11
-74.7824
 21
-231.725
  0
LINE
  8
0
 10
-74.7824
 20
-231.725
 11
-74.6924
 21
-232.215
  0
LINE
  8
0
 10
-74.6924
 20
-232.215
 11
-74.5912
 21
-232.704
  0
LINE
  8
0
 10
-74.5912
 20
-232.704
 11
-74.479
 21
-233.19
  0
LINE
  8
0
 10
-74.479
 20
-233.19
 11
-74.3557
 21
-233.674
  0
LINE
  8
0
 10
-74.3557
 20
-233.674
 11
-74.2216
 21
-234.155
  0
LINE
  8
0
 10
-74.2216
 20
-234.155
 11
-74.0766
 21
-234.632
  0
LINE
  8
0
 10
-74.0766
 20
-234.632
 11
-73.9207
 21
-235.106
  0
LINE
  8
0
 10
-73.9207
 20
-235.106
 11
-73.7542
 21
-235.577
  0
LINE
  8
0
 10
-73.7542
 20
-235.577
 11
-73.577
 21
-236.043
  0
LINE
  8
0
 10
-73.577
 20
-236.043
 11
-73.3894
 21
-236.505
  0
LINE
  8
0
 10
-73.3894
 20
-236.505
 11
-73.1912
 21
-236.963
  0
LINE
  8
0
 10
-73.1912
 20
-236.963
 11
-72.9828
 21
-237.417
  0
LINE
  8
0
 10
-72.9828
 20
-237.417
 11
-72.7641
 21
-237.865
  0
LINE
  8
0
 10
-72.7641
 20
-237.865
 11
-72.5352
 21
-238.309
  0
LINE
  8
0
 10
-72.5352
 20
-238.309
 11
-72.2964
 21
-238.747
  0
LINE
  8
0
 10
-72.2964
 20
-238.747
 11
-72.0477
 21
-239.18
  0
LINE
  8
0
 10
-72.0477
 20
-239.18
 11
-71.7893
 21
-239.606
  0
LINE
  8
0
 10
-71.7893
 20
-239.606
 11
-71.5213
 21
-240.027
  0
LINE
  8
0
 10
-71.5213
 20
-240.027
 11
-71.2437
 21
-240.442
  0
LINE
  8
0
 10
-71.2437
 20
-240.442
 11
-70.9568
 21
-240.85
  0
LINE
  8
0
 10
-70.9568
 20
-240.85
 11
-70.6608
 21
-241.252
  0
LINE
  8
0
 10
-70.6608
 20
-241.252
 11
-70.3557
 21
-241.647
  0
LINE
  8
0
 10
-70.3557
 20
-241.647
 11
-70.0417
 21
-242.035
  0
LINE
  8
0
 10
-70.0417
 20
-242.035
 11
-69.7191
 21
-242.416
  0
LINE
  8
0
 10
-69.7191
 20
-242.416
 11
-69.3878
 21
-242.789
  0
LINE
  8
0
 10
-69.3878
 20
-242.789
 11
-69.0482
 21
-243.154
  0
LINE
  8
0
 10
-69.0482
 20
-243.154
 11
-68.7004
 21
-243.512
  0
LINE
  8
0
 10
-68.7004
 20
-243.512
 11
-68.3445
 21
-243.862
  0
LINE
  8
0
 10
-68.3445
 20
-243.862
 11
-67.9809
 21
-244.204
  0
LINE
  8
0
 10
-67.9809
 20
-244.204
 11
-67.6095
 21
-244.537
  0
LINE
  8
0
 10
-67.6095
 20
-244.537
 11
-67.2307
 21
-244.862
  0
LINE
  8
0
 10
-67.2307
 20
-244.862
 11
-66.8446
 21
-245.178
  0
LINE
  8
0
 10
-66.8446
 20
-245.178
 11
-66.4515
 21
-245.485
  0
LINE
  8
0
 10
-66.4515
 20
-245.485
 11
-66.0515
 21
-245.784
  0
LINE
  8
0
 10
-66.0515
 20
-245.784
 11
-65.6448
 21
-246.073
  0
LINE
  8
0
 10
-65.6448
 20
-246.073
 11
-65.2316
 21
-246.353
  0
LINE
  8
0
 10
-65.2316
 20
-246.353
 11
-64.8122
 21
-246.623
  0
LINE
  8
0
 10
-64.8122
 20
-246.623
 11
-64.3868
 21
-246.884
  0
LINE
  8
0
 10
-64.3868
 20
-246.884
 11
-63.9556
 21
-247.135
  0
LINE
  8
0
 10
-63.9556
 20
-247.135
 11
-63.5188
 21
-247.376
  0
LINE
  8
0
 10
-63.5188
 20
-247.376
 11
-63.0767
 21
-247.608
  0
LINE
  8
0
 10
-63.0767
 20
-247.608
 11
-62.6294
 21
-247.829
  0
LINE
  8
0
 10
-62.6294
 20
-247.829
 11
-62.1772
 21
-248.04
  0
LINE
  8
0
 10
-62.1772
 20
-248.04
 11
-61.7203
 21
-248.241
  0
LINE
  8
0
 10
-61.7203
 20
-248.241
 11
-61.259
 21
-248.431
  0
LINE
  8
0
 10
-61.259
 20
-248.431
 11
-60.7935
 21
-248.611
  0
LINE
  8
0
 10
-60.7935
 20
-248.611
 11
-60.3241
 21
-248.78
  0
LINE
  8
0
 10
-60.3241
 20
-248.78
 11
-59.8509
 21
-248.939
  0
LINE
  8
0
 10
-59.8509
 20
-248.939
 11
-59.3742
 21
-249.086
  0
LINE
  8
0
 10
-59.3742
 20
-249.086
 11
-58.8944
 21
-249.223
  0
LINE
  8
0
 10
-58.8944
 20
-249.223
 11
-58.4115
 21
-249.349
  0
LINE
  8
0
 10
-58.4115
 20
-249.349
 11
-57.9259
 21
-249.464
  0
LINE
  8
0
 10
-57.9259
 20
-249.464
 11
-57.4379
 21
-249.568
  0
LINE
  8
0
 10
-57.4379
 20
-249.568
 11
-56.9476
 21
-249.661
  0
LINE
  8
0
 10
-56.9476
 20
-249.661
 11
-56.4553
 21
-249.743
  0
LINE
  8
0
 10
-56.4553
 20
-249.743
 11
-55.9613
 21
-249.813
  0
LINE
  8
0
 10
-55.9613
 20
-249.813
 11
-55.4658
 21
-249.872
  0
LINE
  8
0
 10
-55.4658
 20
-249.872
 11
-54.9691
 21
-249.92
  0
LINE
  8
0
 10
-54.9691
 20
-249.92
 11
-54.4714
 21
-249.957
  0
LINE
  8
0
 10
-54.4714
 20
-249.957
 11
-53.9731
 21
-249.983
  0
LINE
  8
0
 10
-53.9731
 20
-249.983
 11
-53.4742
 21
-249.997
  0
LINE
  8
0
 10
-53.4742
 20
-249.997
 11
-52.9752
 21
-250
  0
LINE
  8
0
 10
-52.9752
 20
-250
 11
-21.9752
 21
-250
  0
LINE
  8
0
 10
-21.9752
 20
-250
 11
-21.4763
 21
-249.991
  0
LINE
  8
0
 10
-52.7242
 20
-120.918
 11
-53.222
 21
-120.875
  0
LINE
  8
0
 10
-53.222
 20
-120.875
 11
-53.717
 21
-120.807
  0
LINE
  8
0
 10
-53.717
 20
-120.807
 11
-54.2081
 21
-120.715
  0
LINE
  8
0
 10
-54.2081
 20
-120.715
 11
-54.694
 21
-120.599
  0
LINE
  8
0
 10
-54.694
 20
-120.599
 11
-55.1735
 21
-120.458
  0
LINE
  8
0
 10
-55.1735
 20
-120.458
 11
-55.6455
 21
-120.295
  0
LINE
  8
0
 10
-55.6455
 20
-120.295
 11
-56.1089
 21
-120.108
  0
LINE
  8
0
 10
-56.1089
 20
-120.108
 11
-56.5624
 21
-119.898
  0
LINE
  8
0
 10
-56.5624
 20
-119.898
 11
-57.0051
 21
-119.666
  0
LINE
  8
0
 10
-57.0051
 20
-119.666
 11
-57.4357
 21
-119.413
  0
LINE
  8
0
 10
-57.4357
 20
-119.413
 11
-57.8533
 21
-119.139
  0
LINE
  8
0
 10
-57.8533
 20
-119.139
 11
-58.2567
 21
-118.844
  0
LINE
  8
0
 10
-58.2567
 20
-118.844
 11
-58.6452
 21
-118.53
  0
LINE
  8
0
 10
-58.6452
 20
-118.53
 11
-58.8601
 21
-118.337
  0
LINE
  8
0
 10
-58.8601
 20
-118.337
 11
-64.975
 21
-118.337
  0
LINE
  8
0
 10
-64.975
 20
-118.337
 11
-64.975
 21
-117.837
  0
LINE
  8
0
 10
-64.975
 20
-117.837
 11
-65.1
 21
-117.837
  0
LINE
  8
0
 10
-65.1
 20
-117.837
 11
-65.1
 21
-115.518
  0
LINE
  8
0
 10
-65.1
 20
-115.518
 11
-65.3714
 21
-115.852
  0
LINE
  8
0
 10
-65.3714
 20
-115.852
 11
-67.3714
 21
-117.852
  0
LINE
  8
0
 10
-67.3714
 20
-117.852
 11
-67.7719
 21
-118.135
  0
LINE
  8
0
 10
-67.7719
 20
-118.135
 11
-68.2338
 21
-118.299
  0
LINE
  8
0
 10
-68.2338
 20
-118.299
 11
-68.7228
 21
-118.332
  0
LINE
  8
0
 10
-68.7228
 20
-118.332
 11
-69.2028
 21
-118.233
  0
LINE
  8
0
 10
-69.2028
 20
-118.233
 11
-69.638
 21
-118.007
  0
LINE
  8
0
 10
-69.638
 20
-118.007
 11
-69.9963
 21
-117.672
  0
LINE
  8
0
 10
-69.9963
 20
-117.672
 11
-70.251
 21
-117.254
  0
LINE
  8
0
 10
-70.251
 20
-117.254
 11
-70.3832
 21
-116.782
  0
LINE
  8
0
 10
-70.3832
 20
-116.782
 11
-70.3832
 21
-116.291
  0
LINE
  8
0
 10
-70.3832
 20
-116.291
 11
-70.251
 21
-115.819
  0
LINE
  8
0
 10
-70.251
 20
-115.819
 11
-69.9963
 21
-115.401
  0
LINE
  8
0
 10
-69.9963
 20
-115.401
 11
-67.9963
 21
-113.401
  0
LINE
  8
0
 10
-67.9963
 20
-113.401
 11
-67.638
 21
-113.066
  0
LINE
  8
0
 10
-67.638
 20
-113.066
 11
-67.2028
 21
-112.84
  0
LINE
  8
0
 10
-67.2028
 20
-112.84
 11
-66.7228
 21
-112.741
  0
LINE
  8
0
 10
-66.7228
 20
-112.741
 11
-66.2338
 21
-112.774
  0
LINE
  8
0
 10
-66.2338
 20
-112.774
 11
-65.7719
 21
-112.938
  0
LINE
  8
0
 10
-65.7719
 20
-112.938
 11
-65.3714
 21
-113.221
  0
LINE
  8
0
 10
-65.3714
 20
-113.221
 11
-65.1
 21
-113.555
  0
LINE
  8
0
 10
-65.1
 20
-113.555
 11
-65.1
 21
-103.837
  0
LINE
  8
0
 10
-65.1
 20
-103.837
 11
-64.975
 21
-103.837
  0
LINE
  8
0
 10
-64.975
 20
-103.837
 11
-64.975
 21
-103.337
  0
LINE
  8
0
 10
-64.975
 20
-103.337
 11
-58.8601
 21
-103.337
  0
LINE
  8
0
 10
-58.8601
 20
-103.337
 11
-58.6452
 21
-103.145
  0
LINE
  8
0
 10
-58.6452
 20
-103.145
 11
-58.2567
 21
-102.831
  0
LINE
  8
0
 10
-58.2567
 20
-102.831
 11
-57.8533
 21
-102.536
  0
LINE
  8
0
 10
-57.8533
 20
-102.536
 11
-57.4357
 21
-102.262
  0
LINE
  8
0
 10
-57.4357
 20
-102.262
 11
-57.0051
 21
-102.009
  0
LINE
  8
0
 10
-57.0051
 20
-102.009
 11
-56.5624
 21
-101.777
  0
LINE
  8
0
 10
-56.5624
 20
-101.777
 11
-56.1089
 21
-101.567
  0
LINE
  8
0
 10
-56.1089
 20
-101.567
 11
-55.6455
 21
-101.38
  0
LINE
  8
0
 10
-55.6455
 20
-101.38
 11
-55.1735
 21
-101.217
  0
LINE
  8
0
 10
-55.1735
 20
-101.217
 11
-54.694
 21
-101.076
  0
LINE
  8
0
 10
-54.694
 20
-101.076
 11
-54.2081
 21
-100.96
  0
LINE
  8
0
 10
-54.2081
 20
-100.96
 11
-53.717
 21
-100.868
  0
LINE
  8
0
 10
-53.717
 20
-100.868
 11
-53.222
 21
-100.8
  0
LINE
  8
0
 10
-53.222
 20
-100.8
 11
-52.7242
 21
-100.757
  0
LINE
  8
0
 10
-52.7242
 20
-100.757
 11
-52.2249
 21
-100.738
  0
LINE
  8
0
 10
-52.2249
 20
-100.738
 11
-51.7253
 21
-100.744
  0
LINE
  8
0
 10
-51.7253
 20
-100.744
 11
-51.2266
 21
-100.775
  0
LINE
  8
0
 10
-51.2266
 20
-100.775
 11
-50.7301
 21
-100.831
  0
LINE
  8
0
 10
-50.7301
 20
-100.831
 11
-50.2369
 21
-100.911
  0
LINE
  8
0
 10
-50.2369
 20
-100.911
 11
-49.7483
 21
-101.015
  0
LINE
  8
0
 10
-49.7483
 20
-101.015
 11
-49.4867
 21
-101.085
  0
LINE
  8
0
 10
-49.4867
 20
-101.085
 11
-49.7713
 21
-102.147
  0
LINE
  8
0
 10
-49.7713
 20
-102.147
 11
-49.8906
 21
-102.113
  0
LINE
  8
0
 10
-49.8906
 20
-102.113
 11
-50.3746
 21
-102.004
  0
LINE
  8
0
 10
-50.3746
 20
-102.004
 11
-50.8638
 21
-101.923
  0
LINE
  8
0
 10
-50.8638
 20
-101.923
 11
-51.3568
 21
-101.868
  0
LINE
  8
0
 10
-51.3568
 20
-101.868
 11
-51.852
 21
-101.841
  0
LINE
  8
0
 10
-51.852
 20
-101.841
 11
-52.348
 21
-101.841
  0
LINE
  8
0
 10
-52.348
 20
-101.841
 11
-52.8432
 21
-101.868
  0
LINE
  8
0
 10
-52.8432
 20
-101.868
 11
-53.3362
 21
-101.923
  0
LINE
  8
0
 10
-53.3362
 20
-101.923
 11
-53.8254
 21
-102.004
  0
LINE
  8
0
 10
-53.8254
 20
-102.004
 11
-54.3094
 21
-102.113
  0
LINE
  8
0
 10
-54.3094
 20
-102.113
 11
-54.7866
 21
-102.248
  0
LINE
  8
0
 10
-54.7866
 20
-102.248
 11
-55.2557
 21
-102.409
  0
LINE
  8
0
 10
-55.2557
 20
-102.409
 11
-55.7153
 21
-102.596
  0
LINE
  8
0
 10
-55.7153
 20
-102.596
 11
-56.1638
 21
-102.807
  0
LINE
  8
0
 10
-56.1638
 20
-102.807
 11
-56.6
 21
-103.043
  0
LINE
  8
0
 10
-56.6
 20
-103.043
 11
-57.0225
 21
-103.303
  0
LINE
  8
0
 10
-57.0225
 20
-103.303
 11
-57.4301
 21
-103.586
  0
LINE
  8
0
 10
-57.4301
 20
-103.586
 11
-57.8215
 21
-103.89
  0
LINE
  8
0
 10
-57.8215
 20
-103.89
 11
-58.1955
 21
-104.216
  0
LINE
  8
0
 10
-58.1955
 20
-104.216
 11
-58.551
 21
-104.562
  0
LINE
  8
0
 10
-58.551
 20
-104.562
 11
-58.6
 21
-104.615
  0
LINE
  8
0
 10
-58.6
 20
-104.615
 11
-58.6
 21
-105.837
  0
LINE
  8
0
 10
-58.6
 20
-105.837
 11
-62.6
 21
-105.837
  0
LINE
  8
0
 10
-62.6
 20
-105.837
 11
-62.6
 21
-104.337
  0
LINE
  8
0
 10
-62.6
 20
-104.337
 11
-64.1
 21
-104.337
  0
LINE
  8
0
 10
-64.1
 20
-104.337
 11
-64.1
 21
-109.587
  0
LINE
  8
0
 10
-64.1
 20
-109.587
 11
-56.9404
 21
-109.587
  0
LINE
  8
0
 10
-56.9404
 20
-109.587
 11
-56.7985
 21
-109.127
  0
LINE
  8
0
 10
-56.7985
 20
-109.127
 11
-56.6048
 21
-108.668
  0
LINE
  8
0
 10
-56.6048
 20
-108.668
 11
-56.3665
 21
-108.23
  0
LINE
  8
0
 10
-56.3665
 20
-108.23
 11
-56.0857
 21
-107.818
  0
LINE
  8
0
 10
-56.0857
 20
-107.818
 11
-55.7653
 21
-107.437
  0
LINE
  8
0
 10
-55.7653
 20
-107.437
 11
-55.4084
 21
-107.089
  0
LINE
  8
0
 10
-55.4084
 20
-107.089
 11
-55.0187
 21
-106.778
  0
LINE
  8
0
 10
-55.0187
 20
-106.778
 11
-54.6
 21
-106.507
  0
LINE
  8
0
 10
-54.6
 20
-106.507
 11
-54.1564
 21
-106.28
  0
LINE
  8
0
 10
-54.1564
 20
-106.28
 11
-53.6924
 21
-106.098
  0
LINE
  8
0
 10
-53.6924
 20
-106.098
 11
-53.2126
 21
-105.963
  0
LINE
  8
0
 10
-53.2126
 20
-105.963
 11
-52.7217
 21
-105.876
  0
LINE
  8
0
 10
-52.7217
 20
-105.876
 11
-52.2246
 21
-105.839
  0
LINE
  8
0
 10
-52.2246
 20
-105.839
 11
-51.7263
 21
-105.851
  0
LINE
  8
0
 10
-51.7263
 20
-105.851
 11
-51.2318
 21
-105.913
  0
LINE
  8
0
 10
-51.2318
 20
-105.913
 11
-50.7458
 21
-106.024
  0
LINE
  8
0
 10
-50.7458
 20
-106.024
 11
-50.2733
 21
-106.183
  0
LINE
  8
0
 10
-50.2733
 20
-106.183
 11
-49.8189
 21
-106.388
  0
LINE
  8
0
 10
-49.8189
 20
-106.388
 11
-49.3873
 21
-106.637
  0
LINE
  8
0
 10
-49.3873
 20
-106.637
 11
-48.9825
 21
-106.928
  0
LINE
  8
0
 10
-48.9825
 20
-106.928
 11
-48.6088
 21
-107.258
  0
LINE
  8
0
 10
-48.6088
 20
-107.258
 11
-48.2698
 21
-107.624
  0
LINE
  8
0
 10
-48.2698
 20
-107.624
 11
-47.9688
 21
-108.021
  0
LINE
  8
0
 10
-47.9688
 20
-108.021
 11
-47.7089
 21
-108.446
  0
LINE
  8
0
 10
-47.7089
 20
-108.446
 11
-47.4926
 21
-108.895
  0
LINE
  8
0
 10
-47.4926
 20
-108.895
 11
-47.3221
 21
-109.364
  0
LINE
  8
0
 10
-47.3221
 20
-109.364
 11
-47.1991
 21
-109.847
  0
LINE
  8
0
 10
-47.1991
 20
-109.847
 11
-47.1248
 21
-110.34
  0
LINE
  8
0
 10
-47.1248
 20
-110.34
 11
-47.1
 21
-110.837
  0
LINE
  8
0
 10
-47.1
 20
-110.837
 11
-47.1248
 21
-111.335
  0
LINE
  8
0
 10
-47.1248
 20
-111.335
 11
-47.1991
 21
-111.828
  0
LINE
  8
0
 10
-47.1991
 20
-111.828
 11
-47.3221
 21
-112.311
  0
LINE
  8
0
 10
-47.3221
 20
-112.311
 11
-47.4926
 21
-112.78
  0
LINE
  8
0
 10
-47.4926
 20
-112.78
 11
-47.7089
 21
-113.229
  0
LINE
  8
0
 10
-47.7089
 20
-113.229
 11
-47.9688
 21
-113.654
  0
LINE
  8
0
 10
-47.9688
 20
-113.654
 11
-48.2698
 21
-114.051
  0
LINE
  8
0
 10
-48.2698
 20
-114.051
 11
-48.6088
 21
-114.417
  0
LINE
  8
0
 10
-48.6088
 20
-114.417
 11
-48.9825
 21
-114.747
  0
LINE
  8
0
 10
-48.9825
 20
-114.747
 11
-49.3873
 21
-115.038
  0
LINE
  8
0
 10
-49.3873
 20
-115.038
 11
-49.8189
 21
-115.287
  0
LINE
  8
0
 10
-49.8189
 20
-115.287
 11
-50.2733
 21
-115.492
  0
LINE
  8
0
 10
-50.2733
 20
-115.492
 11
-50.7458
 21
-115.651
  0
LINE
  8
0
 10
-50.7458
 20
-115.651
 11
-51.2318
 21
-115.762
  0
LINE
  8
0
 10
-51.2318
 20
-115.762
 11
-51.7263
 21
-115.824
  0
LINE
  8
0
 10
-51.7263
 20
-115.824
 11
-52.2246
 21
-115.836
  0
LINE
  8
0
 10
-52.2246
 20
-115.836
 11
-52.7217
 21
-115.799
  0
LINE
  8
0
 10
-52.7217
 20
-115.799
 11
-53.2126
 21
-115.712
  0
LINE
  8
0
 10
-53.2126
 20
-115.712
 11
-53.6924
 21
-115.577
  0
LINE
  8
0
 10
-53.6924
 20
-115.577
 11
-54.1564
 21
-115.395
  0
LINE
  8
0
 10
-54.1564
 20
-115.395
 11
-54.6
 21
-115.168
  0
LINE
  8
0
 10
-54.6
 20
-115.168
 11
-55.0187
 21
-114.897
  0
LINE
  8
0
 10
-55.0187
 20
-114.897
 11
-55.4084
 21
-114.586
  0
LINE
  8
0
 10
-55.4084
 20
-114.586
 11
-55.7653
 21
-114.238
  0
LINE
  8
0
 10
-55.7653
 20
-114.238
 11
-56.0857
 21
-113.857
  0
LINE
  8
0
 10
-56.0857
 20
-113.857
 11
-56.3665
 21
-113.445
  0
LINE
  8
0
 10
-56.3665
 20
-113.445
 11
-56.6048
 21
-113.007
  0
LINE
  8
0
 10
-56.6048
 20
-113.007
 11
-56.7985
 21
-112.548
  0
LINE
  8
0
 10
-56.7985
 20
-112.548
 11
-56.9404
 21
-112.087
  0
LINE
  8
0
 10
-56.9404
 20
-112.087
 11
-64.1
 21
-112.087
  0
LINE
  8
0
 10
-64.1
 20
-112.087
 11
-64.1
 21
-117.337
  0
LINE
  8
0
 10
-64.1
 20
-117.337
 11
-62.6
 21
-117.337
  0
LINE
  8
0
 10
-62.6
 20
-117.337
 11
-62.6
 21
-115.837
  0
LINE
  8
0
 10
-62.6
 20
-115.837
 11
-58.6
 21
-115.837
  0
LINE
  8
0
 10
-58.6
 20
-115.837
 11
-58.6
 21
-117.06
  0
LINE
  8
0
 10
-58.6
 20
-117.06
 11
-58.551
 21
-117.113
  0
LINE
  8
0
 10
-58.551
 20
-117.113
 11
-58.1955
 21
-117.459
  0
LINE
  8
0
 10
-58.1955
 20
-117.459
 11
-57.8215
 21
-117.785
  0
LINE
  8
0
 10
-57.8215
 20
-117.785
 11
-57.4301
 21
-118.089
  0
LINE
  8
0
 10
-57.4301
 20
-118.089
 11
-57.0225
 21
-118.372
  0
LINE
  8
0
 10
-57.0225
 20
-118.372
 11
-56.6
 21
-118.632
  0
LINE
  8
0
 10
-56.6
 20
-118.632
 11
-56.1638
 21
-118.868
  0
LINE
  8
0
 10
-56.1638
 20
-118.868
 11
-55.7153
 21
-119.079
  0
LINE
  8
0
 10
-55.7153
 20
-119.079
 11
-55.2557
 21
-119.266
  0
LINE
  8
0
 10
-55.2557
 20
-119.266
 11
-54.7866
 21
-119.427
  0
LINE
  8
0
 10
-54.7866
 20
-119.427
 11
-54.3094
 21
-119.562
  0
LINE
  8
0
 10
-54.3094
 20
-119.562
 11
-53.8254
 21
-119.671
  0
LINE
  8
0
 10
-53.8254
 20
-119.671
 11
-53.3362
 21
-119.752
  0
LINE
  8
0
 10
-53.3362
 20
-119.752
 11
-52.8432
 21
-119.807
  0
LINE
  8
0
 10
-52.8432
 20
-119.807
 11
-52.348
 21
-119.834
  0
LINE
  8
0
 10
-52.348
 20
-119.834
 11
-51.852
 21
-119.834
  0
LINE
  8
0
 10
-51.852
 20
-119.834
 11
-51.3568
 21
-119.807
  0
LINE
  8
0
 10
-51.3568
 20
-119.807
 11
-50.8638
 21
-119.752
  0
LINE
  8
0
 10
-50.8638
 20
-119.752
 11
-50.3746
 21
-119.671
  0
LINE
  8
0
 10
-50.3746
 20
-119.671
 11
-49.8906
 21
-119.562
  0
LINE
  8
0
 10
-49.8906
 20
-119.562
 11
-49.7713
 21
-119.528
  0
LINE
  8
0
 10
-49.7713
 20
-119.528
 11
-49.4867
 21
-120.59
  0
LINE
  8
0
 10
-49.4867
 20
-120.59
 11
-49.7483
 21
-120.66
  0
LINE
  8
0
 10
-49.7483
 20
-120.66
 11
-50.2369
 21
-120.764
  0
LINE
  8
0
 10
-50.2369
 20
-120.764
 11
-50.7301
 21
-120.844
  0
LINE
  8
0
 10
-50.7301
 20
-120.844
 11
-51.2266
 21
-120.9
  0
LINE
  8
0
 10
-51.2266
 20
-120.9
 11
-51.7253
 21
-120.931
  0
LINE
  8
0
 10
-51.7253
 20
-120.931
 11
-52.2249
 21
-120.937
  0
LINE
  8
0
 10
-52.2249
 20
-120.937
 11
-52.7242
 21
-120.918
  0
LINE
  8
0
 10
-17.3491
 20
-110.688
 11
-17.8389
 21
-110.597
  0
LINE
  8
0
 10
-17.8389
 20
-110.597
 11
-18.3035
 21
-110.417
  0
LINE
  8
0
 10
-18.3035
 20
-110.417
 11
-18.7271
 21
-110.155
  0
LINE
  8
0
 10
-18.7271
 20
-110.155
 11
-19.0953
 21
-109.819
  0
LINE
  8
0
 10
-19.0953
 20
-109.819
 11
-19.3956
 21
-109.421
  0
LINE
  8
0
 10
-19.3956
 20
-109.421
 11
-19.6177
 21
-108.975
  0
LINE
  8
0
 10
-19.6177
 20
-108.975
 11
-19.754
 21
-108.496
  0
LINE
  8
0
 10
-19.754
 20
-108.496
 11
-19.8
 21
-108
  0
LINE
  8
0
 10
-19.8
 20
-108
 11
-19.754
 21
-107.504
  0
LINE
  8
0
 10
-19.754
 20
-107.504
 11
-19.6177
 21
-107.025
  0
LINE
  8
0
 10
-19.6177
 20
-107.025
 11
-19.3956
 21
-106.579
  0
LINE
  8
0
 10
-19.3956
 20
-106.579
 11
-19.0953
 21
-106.181
  0
LINE
  8
0
 10
-19.0953
 20
-106.181
 11
-18.7271
 21
-105.845
  0
LINE
  8
0
 10
-18.7271
 20
-105.845
 11
-18.3035
 21
-105.583
  0
LINE
  8
0
 10
-18.3035
 20
-105.583
 11
-17.8389
 21
-105.403
  0
LINE
  8
0
 10
-17.8389
 20
-105.403
 11
-17.3491
 21
-105.312
  0
LINE
  8
0
 10
-17.3491
 20
-105.312
 11
-16.8509
 21
-105.312
  0
LINE
  8
0
 10
-16.8509
 20
-105.312
 11
-16.3611
 21
-105.403
  0
LINE
  8
0
 10
-16.3611
 20
-105.403
 11
-15.8965
 21
-105.583
  0
LINE
  8
0
 10
-15.8965
 20
-105.583
 11
-15.4729
 21
-105.845
  0
LINE
  8
0
 10
-15.4729
 20
-105.845
 11
-15.1047
 21
-106.181
  0
LINE
  8
0
 10
-15.1047
 20
-106.181
 11
-14.8044
 21
-106.579
  0
LINE
  8
0
 10
-14.8044
 20
-106.579
 11
-14.5823
 21
-107.025
  0
LINE
  8
0
 10
-14.5823
 20
-107.025
 11
-14.446
 21
-107.504
  0
LINE
  8
0
 10
-14.446
 20
-107.504
 11
-14.4
 21
-108
  0
LINE
  8
0
 10
-14.4
 20
-108
 11
-14.446
 21
-108.496
  0
LINE
  8
0
 10
-14.446
 20
-108.496
 11
-14.5823
 21
-108.975
  0
LINE
  8
0
 10
-14.5823
 20
-108.975
 11
-14.8044
 21
-109.421
  0
LINE
  8
0
 10
-14.8044
 20
-109.421
 11
-15.1047
 21
-109.819
  0
LINE
  8
0
 10
-15.1047
 20
-109.819
 11
-15.4729
 21
-110.155
  0
LINE
  8
0
 10
-15.4729
 20
-110.155
 11
-15.8965
 21
-110.417
  0
LINE
  8
0
 10
-15.8965
 20
-110.417
 11
-16.3611
 21
-110.597
  0
LINE
  8
0
 10
-16.3611
 20
-110.597
 11
-16.8509
 21
-110.688
  0
LINE
  8
0
 10
-16.8509
 20
-110.688
 11
-17.3491
 21
-110.688
  0
LINE
  8
0
 10
-97.8451
 20
-118.32
 11
-98.3171
 21
-118.187
  0
LINE
  8
0
 10
-98.3171
 20
-118.187
 11
-98.7359
 21
-117.933
  0
LINE
  8
0
 10
-98.7359
 20
-117.933
 11
-100.736
 21
-115.933
  0
LINE
  8
0
 10
-100.736
 20
-115.933
 11
-101.071
 21
-115.575
  0
LINE
  8
0
 10
-101.071
 20
-115.575
 11
-101.296
 21
-115.139
  0
LINE
  8
0
 10
-101.296
 20
-115.139
 11
-101.396
 21
-114.659
  0
LINE
  8
0
 10
-101.396
 20
-114.659
 11
-101.362
 21
-114.17
  0
LINE
  8
0
 10
-101.362
 20
-114.17
 11
-101.198
 21
-113.708
  0
LINE
  8
0
 10
-101.198
 20
-113.708
 11
-100.915
 21
-113.308
  0
LINE
  8
0
 10
-100.915
 20
-113.308
 11
-100.535
 21
-112.999
  0
LINE
  8
0
 10
-100.535
 20
-112.999
 11
-100.086
 21
-112.803
  0
LINE
  8
0
 10
-100.086
 20
-112.803
 11
-99.6
 21
-112.737
  0
LINE
  8
0
 10
-99.6
 20
-112.737
 11
-99.1144
 21
-112.803
  0
LINE
  8
0
 10
-99.1144
 20
-112.803
 11
-98.6647
 21
-112.999
  0
LINE
  8
0
 10
-98.6647
 20
-112.999
 11
-98.2845
 21
-113.308
  0
LINE
  8
0
 10
-98.2845
 20
-113.308
 11
-96.2845
 21
-115.308
  0
LINE
  8
0
 10
-96.2845
 20
-115.308
 11
-96.0018
 21
-115.708
  0
LINE
  8
0
 10
-96.0018
 20
-115.708
 11
-95.8376
 21
-116.17
  0
LINE
  8
0
 10
-95.8376
 20
-116.17
 11
-95.8042
 21
-116.659
  0
LINE
  8
0
 10
-95.8042
 20
-116.659
 11
-95.9039
 21
-117.139
  0
LINE
  8
0
 10
-95.9039
 20
-117.139
 11
-96.1295
 21
-117.575
  0
LINE
  8
0
 10
-96.1295
 20
-117.575
 11
-96.464
 21
-117.933
  0
LINE
  8
0
 10
-96.464
 20
-117.933
 11
-96.8829
 21
-118.187
  0
LINE
  8
0
 10
-96.8829
 20
-118.187
 11
-97.3549
 21
-118.32
  0
LINE
  8
0
 10
-97.3549
 20
-118.32
 11
-97.8451
 21
-118.32
  0
LINE
  8
0
 10
-83.7239
 20
-143.02
 11
-84.2218
 21
-142.984
  0
LINE
  8
0
 10
-84.2218
 20
-142.984
 11
-84.7179
 21
-142.927
  0
LINE
  8
0
 10
-84.7179
 20
-142.927
 11
-85.2111
 21
-142.849
  0
LINE
  8
0
 10
-85.2111
 20
-142.849
 11
-85.7007
 21
-142.751
  0
LINE
  8
0
 10
-85.7007
 20
-142.751
 11
-86.1857
 21
-142.633
  0
LINE
  8
0
 10
-86.1857
 20
-142.633
 11
-86.6655
 21
-142.495
  0
LINE
  8
0
 10
-86.6655
 20
-142.495
 11
-87.139
 21
-142.336
  0
LINE
  8
0
 10
-87.139
 20
-142.336
 11
-87.6056
 21
-142.159
  0
LINE
  8
0
 10
-87.6056
 20
-142.159
 11
-88.0643
 21
-141.962
  0
LINE
  8
0
 10
-88.0643
 20
-141.962
 11
-88.5145
 21
-141.746
  0
LINE
  8
0
 10
-88.5145
 20
-141.746
 11
-88.9553
 21
-141.511
  0
LINE
  8
0
 10
-88.9553
 20
-141.511
 11
-89.3859
 21
-141.258
  0
LINE
  8
0
 10
-89.3859
 20
-141.258
 11
-89.8057
 21
-140.988
  0
LINE
  8
0
 10
-89.8057
 20
-140.988
 11
-90.2139
 21
-140.701
  0
LINE
  8
0
 10
-90.2139
 20
-140.701
 11
-90.6097
 21
-140.396
  0
LINE
  8
0
 10
-90.6097
 20
-140.396
 11
-90.9926
 21
-140.076
  0
LINE
  8
0
 10
-90.9926
 20
-140.076
 11
-91.3618
 21
-139.74
  0
LINE
  8
0
 10
-91.3618
 20
-139.74
 11
-91.7166
 21
-139.388
  0
LINE
  8
0
 10
-91.7166
 20
-139.388
 11
-92.0566
 21
-139.023
  0
LINE
  8
0
 10
-92.0566
 20
-139.023
 11
-92.3811
 21
-138.643
  0
LINE
  8
0
 10
-92.3811
 20
-138.643
 11
-92.6895
 21
-138.251
  0
LINE
  8
0
 10
-92.6895
 20
-138.251
 11
-92.9812
 21
-137.845
  0
LINE
  8
0
 10
-92.9812
 20
-137.845
 11
-93.2559
 21
-137.428
  0
LINE
  8
0
 10
-93.2559
 20
-137.428
 11
-93.513
 21
-137
  0
LINE
  8
0
 10
-93.513
 20
-137
 11
-93.7521
 21
-136.562
  0
LINE
  8
0
 10
-93.7521
 20
-136.562
 11
-93.9728
 21
-136.114
  0
LINE
  8
0
 10
-93.9728
 20
-136.114
 11
-94.1746
 21
-135.658
  0
LINE
  8
0
 10
-94.1746
 20
-135.658
 11
-94.3572
 21
-135.193
  0
LINE
  8
0
 10
-94.3572
 20
-135.193
 11
-94.5204
 21
-134.721
  0
LINE
  8
0
 10
-94.5204
 20
-134.721
 11
-94.6637
 21
-134.243
  0
LINE
  8
0
 10
-94.6637
 20
-134.243
 11
-94.7871
 21
-133.759
  0
LINE
  8
0
 10
-94.7871
 20
-133.759
 11
-94.8902
 21
-133.27
  0
LINE
  8
0
 10
-94.8902
 20
-133.27
 11
-94.973
 21
-132.778
  0
LINE
  8
0
 10
-94.973
 20
-132.778
 11
-95.0351
 21
-132.283
  0
LINE
  8
0
 10
-95.0351
 20
-132.283
 11
-95.0766
 21
-131.785
  0
LINE
  8
0
 10
-95.0766
 20
-131.785
 11
-95.0974
 21
-131.286
  0
LINE
  8
0
 10
-95.0974
 20
-131.286
 11
-95.0974
 21
-130.787
  0
LINE
  8
0
 10
-95.0974
 20
-130.787
 11
-95.0766
 21
-130.288
  0
LINE
  8
0
 10
-95.0766
 20
-130.288
 11
-95.0351
 21
-129.79
  0
LINE
  8
0
 10
-95.0351
 20
-129.79
 11
-94.973
 21
-129.295
  0
LINE
  8
0
 10
-94.973
 20
-129.295
 11
-94.8902
 21
-128.803
  0
LINE
  8
0
 10
-94.8902
 20
-128.803
 11
-94.7871
 21
-128.314
  0
LINE
  8
0
 10
-94.7871
 20
-128.314
 11
-94.6637
 21
-127.83
  0
LINE
  8
0
 10
-94.6637
 20
-127.83
 11
-94.5204
 21
-127.352
  0
LINE
  8
0
 10
-94.5204
 20
-127.352
 11
-94.3572
 21
-126.88
  0
LINE
  8
0
 10
-94.3572
 20
-126.88
 11
-94.1746
 21
-126.415
  0
LINE
  8
0
 10
-94.1746
 20
-126.415
 11
-93.9728
 21
-125.959
  0
LINE
  8
0
 10
-93.9728
 20
-125.959
 11
-93.7521
 21
-125.511
  0
LINE
  8
0
 10
-93.7521
 20
-125.511
 11
-93.513
 21
-125.073
  0
LINE
  8
0
 10
-93.513
 20
-125.073
 11
-93.2559
 21
-124.645
  0
LINE
  8
0
 10
-93.2559
 20
-124.645
 11
-92.9812
 21
-124.228
  0
LINE
  8
0
 10
-92.9812
 20
-124.228
 11
-92.6895
 21
-123.822
  0
LINE
  8
0
 10
-92.6895
 20
-123.822
 11
-92.3811
 21
-123.43
  0
LINE
  8
0
 10
-92.3811
 20
-123.43
 11
-92.0566
 21
-123.05
  0
LINE
  8
0
 10
-92.0566
 20
-123.05
 11
-91.7166
 21
-122.685
  0
LINE
  8
0
 10
-91.7166
 20
-122.685
 11
-91.3618
 21
-122.333
  0
LINE
  8
0
 10
-91.3618
 20
-122.333
 11
-90.9926
 21
-121.997
  0
LINE
  8
0
 10
-90.9926
 20
-121.997
 11
-90.6097
 21
-121.677
  0
LINE
  8
0
 10
-90.6097
 20
-121.677
 11
-90.2139
 21
-121.373
  0
LINE
  8
0
 10
-90.2139
 20
-121.373
 11
-89.8057
 21
-121.085
  0
LINE
  8
0
 10
-89.8057
 20
-121.085
 11
-89.3859
 21
-120.815
  0
LINE
  8
0
 10
-89.3859
 20
-120.815
 11
-88.9553
 21
-120.562
  0
LINE
  8
0
 10
-88.9553
 20
-120.562
 11
-88.5145
 21
-120.327
  0
LINE
  8
0
 10
-88.5145
 20
-120.327
 11
-88.0643
 21
-120.112
  0
LINE
  8
0
 10
-88.0643
 20
-120.112
 11
-87.6056
 21
-119.914
  0
LINE
  8
0
 10
-87.6056
 20
-119.914
 11
-87.139
 21
-119.737
  0
LINE
  8
0
 10
-87.139
 20
-119.737
 11
-86.6655
 21
-119.578
  0
LINE
  8
0
 10
-86.6655
 20
-119.578
 11
-86.1857
 21
-119.44
  0
LINE
  8
0
 10
-86.1857
 20
-119.44
 11
-85.7007
 21
-119.322
  0
LINE
  8
0
 10
-85.7007
 20
-119.322
 11
-85.2111
 21
-119.224
  0
LINE
  8
0
 10
-85.2111
 20
-119.224
 11
-84.7179
 21
-119.146
  0
LINE
  8
0
 10
-84.7179
 20
-119.146
 11
-84.2218
 21
-119.089
  0
LINE
  8
0
 10
-84.2218
 20
-119.089
 11
-83.7239
 21
-119.053
  0
LINE
  8
0
 10
-83.7239
 20
-119.053
 11
-83.2248
 21
-119.037
  0
LINE
  8
0
 10
-83.2248
 20
-119.037
 11
-82.7256
 21
-119.042
  0
LINE
  8
0
 10
-82.7256
 20
-119.042
 11
-82.2269
 21
-119.068
  0
LINE
  8
0
 10
-82.2269
 20
-119.068
 11
-81.7298
 21
-119.115
  0
LINE
  8
0
 10
-81.7298
 20
-119.115
 11
-81.2351
 21
-119.182
  0
LINE
  8
0
 10
-81.2351
 20
-119.182
 11
-80.7436
 21
-119.27
  0
LINE
  8
0
 10
-80.7436
 20
-119.27
 11
-80.2562
 21
-119.378
  0
LINE
  8
0
 10
-80.2562
 20
-119.378
 11
-79.7737
 21
-119.507
  0
LINE
  8
0
 10
-79.7737
 20
-119.507
 11
-79.297
 21
-119.655
  0
LINE
  8
0
 10
-79.297
 20
-119.655
 11
-78.8268
 21
-119.823
  0
LINE
  8
0
 10
-78.8268
 20
-119.823
 11
-78.364
 21
-120.011
  0
LINE
  8
0
 10
-78.364
 20
-120.011
 11
-77.9095
 21
-120.217
  0
LINE
  8
0
 10
-77.9095
 20
-120.217
 11
-77.4639
 21
-120.442
  0
LINE
  8
0
 10
-77.4639
 20
-120.442
 11
-77.0281
 21
-120.686
  0
LINE
  8
0
 10
-77.0281
 20
-120.686
 11
-76.6028
 21
-120.948
  0
LINE
  8
0
 10
-76.6028
 20
-120.948
 11
-76.1887
 21
-121.227
  0
LINE
  8
0
 10
-76.1887
 20
-121.227
 11
-75.7866
 21
-121.523
  0
LINE
  8
0
 10
-75.7866
 20
-121.523
 11
-75.3972
 21
-121.835
  0
LINE
  8
0
 10
-75.3972
 20
-121.835
 11
-75.0211
 21
-122.163
  0
LINE
  8
0
 10
-75.0211
 20
-122.163
 11
-74.659
 21
-122.507
  0
LINE
  8
0
 10
-74.659
 20
-122.507
 11
-74.3115
 21
-122.866
  0
LINE
  8
0
 10
-74.3115
 20
-122.866
 11
-73.9792
 21
-123.238
  0
LINE
  8
0
 10
-73.9792
 20
-123.238
 11
-73.6627
 21
-123.625
  0
LINE
  8
0
 10
-73.6627
 20
-123.625
 11
-73.3625
 21
-124.024
  0
LINE
  8
0
 10
-73.3625
 20
-124.024
 11
-73.0792
 21
-124.435
  0
LINE
  8
0
 10
-73.0792
 20
-124.435
 11
-72.8133
 21
-124.857
  0
LINE
  8
0
 10
-72.8133
 20
-124.857
 11
-72.5651
 21
-125.29
  0
LINE
  8
0
 10
-72.5651
 20
-125.29
 11
-72.3352
 21
-125.734
  0
LINE
  8
0
 10
-72.3352
 20
-125.734
 11
-72.1239
 21
-126.186
  0
LINE
  8
0
 10
-72.1239
 20
-126.186
 11
-71.9317
 21
-126.647
  0
LINE
  8
0
 10
-71.9317
 20
-126.647
 11
-71.7587
 21
-127.115
  0
LINE
  8
0
 10
-71.7587
 20
-127.115
 11
-71.6055
 21
-127.59
  0
LINE
  8
0
 10
-71.6055
 20
-127.59
 11
-71.472
 21
-128.072
  0
LINE
  8
0
 10
-71.472
 20
-128.072
 11
-71.3588
 21
-128.558
  0
LINE
  8
0
 10
-71.3588
 20
-128.558
 11
-71.2658
 21
-129.048
  0
LINE
  8
0
 10
-71.2658
 20
-129.048
 11
-71.1934
 21
-129.542
  0
LINE
  8
0
 10
-71.1934
 20
-129.542
 11
-71.1415
 21
-130.039
  0
LINE
  8
0
 10
-71.1415
 20
-130.039
 11
-71.1104
 21
-130.537
  0
LINE
  8
0
 10
-71.1104
 20
-130.537
 11
-71.1
 21
-131.037
  0
LINE
  8
0
 10
-71.1
 20
-131.037
 11
-71.1104
 21
-131.536
  0
LINE
  8
0
 10
-71.1104
 20
-131.536
 11
-71.1415
 21
-132.034
  0
LINE
  8
0
 10
-71.1415
 20
-132.034
 11
-71.1934
 21
-132.531
  0
LINE
  8
0
 10
-71.1934
 20
-132.531
 11
-71.2658
 21
-133.025
  0
LINE
  8
0
 10
-71.2658
 20
-133.025
 11
-71.3588
 21
-133.515
  0
LINE
  8
0
 10
-71.3588
 20
-133.515
 11
-71.472
 21
-134.001
  0
LINE
  8
0
 10
-71.472
 20
-134.001
 11
-71.6055
 21
-134.483
  0
LINE
  8
0
 10
-71.6055
 20
-134.483
 11
-71.7587
 21
-134.958
  0
LINE
  8
0
 10
-71.7587
 20
-134.958
 11
-71.9317
 21
-135.426
  0
LINE
  8
0
 10
-71.9317
 20
-135.426
 11
-72.1239
 21
-135.887
  0
LINE
  8
0
 10
-72.1239
 20
-135.887
 11
-72.3352
 21
-136.339
  0
LINE
  8
0
 10
-72.3352
 20
-136.339
 11
-72.5651
 21
-136.783
  0
LINE
  8
0
 10
-72.5651
 20
-136.783
 11
-72.8133
 21
-137.216
  0
LINE
  8
0
 10
-72.8133
 20
-137.216
 11
-73.0792
 21
-137.638
  0
LINE
  8
0
 10
-73.0792
 20
-137.638
 11
-73.3625
 21
-138.049
  0
LINE
  8
0
 10
-73.3625
 20
-138.049
 11
-73.6627
 21
-138.448
  0
LINE
  8
0
 10
-73.6627
 20
-138.448
 11
-73.9792
 21
-138.835
  0
LINE
  8
0
 10
-73.9792
 20
-138.835
 11
-74.3115
 21
-139.207
  0
LINE
  8
0
 10
-74.3115
 20
-139.207
 11
-74.659
 21
-139.566
  0
LINE
  8
0
 10
-74.659
 20
-139.566
 11
-75.0211
 21
-139.91
  0
LINE
  8
0
 10
-75.0211
 20
-139.91
 11
-75.3972
 21
-140.238
  0
LINE
  8
0
 10
-75.3972
 20
-140.238
 11
-75.7866
 21
-140.55
  0
LINE
  8
0
 10
-75.7866
 20
-140.55
 11
-76.1887
 21
-140.846
  0
LINE
  8
0
 10
-76.1887
 20
-140.846
 11
-76.6028
 21
-141.125
  0
LINE
  8
0
 10
-76.6028
 20
-141.125
 11
-77.0281
 21
-141.387
  0
LINE
  8
0
 10
-77.0281
 20
-141.387
 11
-77.4639
 21
-141.631
  0
LINE
  8
0
 10
-77.4639
 20
-141.631
 11
-77.9095
 21
-141.856
  0
LINE
  8
0
 10
-77.9095
 20
-141.856
 11
-78.364
 21
-142.062
  0
LINE
  8
0
 10
-78.364
 20
-142.062
 11
-78.8268
 21
-142.25
  0
LINE
  8
0
 10
-78.8268
 20
-142.25
 11
-79.297
 21
-142.418
  0
LINE
  8
0
 10
-79.297
 20
-142.418
 11
-79.7737
 21
-142.566
  0
LINE
  8
0
 10
-79.7737
 20
-142.566
 11
-80.2562
 21
-142.695
  0
LINE
  8
0
 10
-80.2562
 20
-142.695
 11
-80.7436
 21
-142.803
  0
LINE
  8
0
 10
-80.7436
 20
-142.803
 11
-81.2351
 21
-142.891
  0
LINE
  8
0
 10
-81.2351
 20
-142.891
 11
-81.7298
 21
-142.958
  0
LINE
  8
0
 10
-81.7298
 20
-142.958
 11
-82.2269
 21
-143.005
  0
LINE
  8
0
 10
-82.2269
 20
-143.005
 11
-82.7256
 21
-143.031
  0
LINE
  8
0
 10
-82.7256
 20
-143.031
 11
-83.2248
 21
-143.036
  0
LINE
  8
0
 10
-83.2248
 20
-143.036
 11
-83.7239
 21
-143.02
  0
LINE
  8
0
 10
-37.3491
 20
-140.688
 11
-37.8389
 21
-140.597
  0
LINE
  8
0
 10
-37.8389
 20
-140.597
 11
-38.3035
 21
-140.417
  0
LINE
  8
0
 10
-38.3035
 20
-140.417
 11
-38.7271
 21
-140.155
  0
LINE
  8
0
 10
-38.7271
 20
-140.155
 11
-39.0953
 21
-139.819
  0
LINE
  8
0
 10
-39.0953
 20
-139.819
 11
-39.3956
 21
-139.421
  0
LINE
  8
0
 10
-39.3956
 20
-139.421
 11
-39.6177
 21
-138.975
  0
LINE
  8
0
 10
-39.6177
 20
-138.975
 11
-39.754
 21
-138.496
  0
LINE
  8
0
 10
-39.754
 20
-138.496
 11
-39.8
 21
-138
  0
LINE
  8
0
 10
-39.8
 20
-138
 11
-39.754
 21
-137.504
  0
LINE
  8
0
 10
-39.754
 20
-137.504
 11
-39.6177
 21
-137.025
  0
LINE
  8
0
 10
-39.6177
 20
-137.025
 11
-39.3956
 21
-136.579
  0
LINE
  8
0
 10
-39.3956
 20
-136.579
 11
-39.0953
 21
-136.181
  0
LINE
  8
0
 10
-39.0953
 20
-136.181
 11
-38.7271
 21
-135.845
  0
LINE
  8
0
 10
-38.7271
 20
-135.845
 11
-38.3035
 21
-135.583
  0
LINE
  8
0
 10
-38.3035
 20
-135.583
 11
-37.8389
 21
-135.403
  0
LINE
  8
0
 10
-37.8389
 20
-135.403
 11
-37.3491
 21
-135.312
  0
LINE
  8
0
 10
-37.3491
 20
-135.312
 11
-36.8509
 21
-135.312
  0
LINE
  8
0
 10
-36.8509
 20
-135.312
 11
-36.3611
 21
-135.403
  0
LINE
  8
0
 10
-36.3611
 20
-135.403
 11
-35.8965
 21
-135.583
  0
LINE
  8
0
 10
-35.8965
 20
-135.583
 11
-35.4729
 21
-135.845
  0
LINE
  8
0
 10
-35.4729
 20
-135.845
 11
-35.1047
 21
-136.181
  0
LINE
  8
0
 10
-35.1047
 20
-136.181
 11
-34.8044
 21
-136.579
  0
LINE
  8
0
 10
-34.8044
 20
-136.579
 11
-34.5823
 21
-137.025
  0
LINE
  8
0
 10
-34.5823
 20
-137.025
 11
-34.446
 21
-137.504
  0
LINE
  8
0
 10
-34.446
 20
-137.504
 11
-34.4
 21
-138
  0
LINE
  8
0
 10
-34.4
 20
-138
 11
-34.446
 21
-138.496
  0
LINE
  8
0
 10
-34.446
 20
-138.496
 11
-34.5823
 21
-138.975
  0
LINE
  8
0
 10
-34.5823
 20
-138.975
 11
-34.8044
 21
-139.421
  0
LINE
  8
0
 10
-34.8044
 20
-139.421
 11
-35.1047
 21
-139.819
  0
LINE
  8
0
 10
-35.1047
 20
-139.819
 11
-35.4729
 21
-140.155
  0
LINE
  8
0
 10
-35.4729
 20
-140.155
 11
-35.8965
 21
-140.417
  0
LINE
  8
0
 10
-35.8965
 20
-140.417
 11
-36.3611
 21
-140.597
  0
LINE
  8
0
 10
-36.3611
 20
-140.597
 11
-36.8509
 21
-140.688
  0
LINE
  8
0
 10
-36.8509
 20
-140.688
 11
-37.3491
 21
-140.688
  0
LINE
  8
0
 10
-99.9662
 20
-149.299
 11
-100.428
 21
-149.135
  0
LINE
  8
0
 10
-100.428
 20
-149.135
 11
-100.829
 21
-148.852
  0
LINE
  8
0
 10
-100.829
 20
-148.852
 11
-101.138
 21
-148.472
  0
LINE
  8
0
 10
-101.138
 20
-148.472
 11
-101.333
 21
-148.022
  0
LINE
  8
0
 10
-101.333
 20
-148.022
 11
-101.4
 21
-147.537
  0
LINE
  8
0
 10
-101.4
 20
-147.537
 11
-101.333
 21
-147.051
  0
LINE
  8
0
 10
-101.333
 20
-147.051
 11
-101.138
 21
-146.601
  0
LINE
  8
0
 10
-101.138
 20
-146.601
 11
-100.829
 21
-146.221
  0
LINE
  8
0
 10
-100.829
 20
-146.221
 11
-98.8286
 21
-144.221
  0
LINE
  8
0
 10
-98.8286
 20
-144.221
 11
-98.4281
 21
-143.938
  0
LINE
  8
0
 10
-98.4281
 20
-143.938
 11
-97.9662
 21
-143.774
  0
LINE
  8
0
 10
-97.9662
 20
-143.774
 11
-97.4772
 21
-143.741
  0
LINE
  8
0
 10
-97.4772
 20
-143.741
 11
-96.9972
 21
-143.84
  0
LINE
  8
0
 10
-96.9972
 20
-143.84
 11
-96.562
 21
-144.066
  0
LINE
  8
0
 10
-96.562
 20
-144.066
 11
-96.2037
 21
-144.401
  0
LINE
  8
0
 10
-96.2037
 20
-144.401
 11
-95.949
 21
-144.819
  0
LINE
  8
0
 10
-95.949
 20
-144.819
 11
-95.8168
 21
-145.291
  0
LINE
  8
0
 10
-95.8168
 20
-145.291
 11
-95.8168
 21
-145.782
  0
LINE
  8
0
 10
-95.8168
 20
-145.782
 11
-95.949
 21
-146.254
  0
LINE
  8
0
 10
-95.949
 20
-146.254
 11
-96.2037
 21
-146.672
  0
LINE
  8
0
 10
-96.2037
 20
-146.672
 11
-98.2037
 21
-148.672
  0
LINE
  8
0
 10
-98.2037
 20
-148.672
 11
-98.562
 21
-149.007
  0
LINE
  8
0
 10
-98.562
 20
-149.007
 11
-98.9972
 21
-149.233
  0
LINE
  8
0
 10
-98.9972
 20
-149.233
 11
-99.4772
 21
-149.332
  0
LINE
  8
0
 10
-99.4772
 20
-149.332
 11
-99.9662
 21
-149.299
  0
LINE
  8
0
 10
-67.0856
 20
-149.27
 11
-67.5352
 21
-149.074
  0
LINE
  8
0
 10
-67.5352
 20
-149.074
 11
-67.9155
 21
-148.765
  0
LINE
  8
0
 10
-67.9155
 20
-148.765
 11
-69.9155
 21
-146.765
  0
LINE
  8
0
 10
-69.9155
 20
-146.765
 11
-70.1982
 21
-146.365
  0
LINE
  8
0
 10
-70.1982
 20
-146.365
 11
-70.3624
 21
-145.903
  0
LINE
  8
0
 10
-70.3624
 20
-145.903
 11
-70.3958
 21
-145.414
  0
LINE
  8
0
 10
-70.3958
 20
-145.414
 11
-70.2961
 21
-144.934
  0
LINE
  8
0
 10
-70.2961
 20
-144.934
 11
-70.0705
 21
-144.498
  0
LINE
  8
0
 10
-70.0705
 20
-144.498
 11
-69.736
 21
-144.14
  0
LINE
  8
0
 10
-69.736
 20
-144.14
 11
-69.3171
 21
-143.886
  0
LINE
  8
0
 10
-69.3171
 20
-143.886
 11
-68.8451
 21
-143.753
  0
LINE
  8
0
 10
-68.8451
 20
-143.753
 11
-68.3549
 21
-143.753
  0
LINE
  8
0
 10
-68.3549
 20
-143.753
 11
-67.8829
 21
-143.886
  0
LINE
  8
0
 10
-67.8829
 20
-143.886
 11
-67.464
 21
-144.14
  0
LINE
  8
0
 10
-67.464
 20
-144.14
 11
-65.464
 21
-146.14
  0
LINE
  8
0
 10
-65.464
 20
-146.14
 11
-65.1295
 21
-146.498
  0
LINE
  8
0
 10
-65.1295
 20
-146.498
 11
-64.9039
 21
-146.934
  0
LINE
  8
0
 10
-64.9039
 20
-146.934
 11
-64.8042
 21
-147.414
  0
LINE
  8
0
 10
-64.8042
 20
-147.414
 11
-64.8376
 21
-147.903
  0
LINE
  8
0
 10
-64.8376
 20
-147.903
 11
-65.0018
 21
-148.365
  0
LINE
  8
0
 10
-65.0018
 20
-148.365
 11
-65.2845
 21
-148.765
  0
LINE
  8
0
 10
-65.2845
 20
-148.765
 11
-65.6647
 21
-149.074
  0
LINE
  8
0
 10
-65.6647
 20
-149.074
 11
-66.1144
 21
-149.27
  0
LINE
  8
0
 10
-66.1144
 20
-149.27
 11
-66.6
 21
-149.337
  0
LINE
  8
0
 10
-66.6
 20
-149.337
 11
-67.0856
 21
-149.27
  0
LINE
  8
0
 10
-53.7242
 20
-172.081
 11
-54.222
 21
-172.037
  0
LINE
  8
0
 10
-54.222
 20
-172.037
 11
-54.717
 21
-171.97
  0
LINE
  8
0
 10
-54.717
 20
-171.97
 11
-55.2081
 21
-171.878
  0
LINE
  8
0
 10
-55.2081
 20
-171.878
 11
-55.694
 21
-171.761
  0
LINE
  8
0
 10
-55.694
 20
-171.761
 11
-56.1735
 21
-171.621
  0
LINE
  8
0
 10
-56.1735
 20
-171.621
 11
-56.6455
 21
-171.457
  0
LINE
  8
0
 10
-56.6455
 20
-171.457
 11
-57.1089
 21
-171.27
  0
LINE
  8
0
 10
-57.1089
 20
-171.27
 11
-57.5624
 21
-171.061
  0
LINE
  8
0
 10
-57.5624
 20
-171.061
 11
-58.0051
 21
-170.829
  0
LINE
  8
0
 10
-58.0051
 20
-170.829
 11
-58.4357
 21
-170.576
  0
LINE
  8
0
 10
-58.4357
 20
-170.576
 11
-58.8533
 21
-170.301
  0
LINE
  8
0
 10
-58.8533
 20
-170.301
 11
-59.2567
 21
-170.007
  0
LINE
  8
0
 10
-59.2567
 20
-170.007
 11
-59.6452
 21
-169.692
  0
LINE
  8
0
 10
-59.6452
 20
-169.692
 11
-59.8601
 21
-169.5
  0
LINE
  8
0
 10
-59.8601
 20
-169.5
 11
-65.975
 21
-169.5
  0
LINE
  8
0
 10
-65.975
 20
-169.5
 11
-65.975
 21
-169
  0
LINE
  8
0
 10
-65.975
 20
-169
 11
-66.1
 21
-169
  0
LINE
  8
0
 10
-66.1
 20
-169
 11
-66.1
 21
-155
  0
LINE
  8
0
 10
-66.1
 20
-155
 11
-65.975
 21
-155
  0
LINE
  8
0
 10
-65.975
 20
-155
 11
-65.975
 21
-154.5
  0
LINE
  8
0
 10
-65.975
 20
-154.5
 11
-59.8601
 21
-154.5
  0
LINE
  8
0
 10
-59.8601
 20
-154.5
 11
-59.6452
 21
-154.308
  0
LINE
  8
0
 10
-59.6452
 20
-154.308
 11
-59.2567
 21
-153.993
  0
LINE
  8
0
 10
-59.2567
 20
-153.993
 11
-58.8533
 21
-153.699
  0
LINE
  8
0
 10
-58.8533
 20
-153.699
 11
-58.4357
 21
-153.424
  0
LINE
  8
0
 10
-58.4357
 20
-153.424
 11
-58.0051
 21
-153.171
  0
LINE
  8
0
 10
-58.0051
 20
-153.171
 11
-57.5624
 21
-152.939
  0
LINE
  8
0
 10
-57.5624
 20
-152.939
 11
-57.1089
 21
-152.73
  0
LINE
  8
0
 10
-57.1089
 20
-152.73
 11
-56.6455
 21
-152.543
  0
LINE
  8
0
 10
-56.6455
 20
-152.543
 11
-56.1735
 21
-152.379
  0
LINE
  8
0
 10
-56.1735
 20
-152.379
 11
-55.694
 21
-152.239
  0
LINE
  8
0
 10
-55.694
 20
-152.239
 11
-55.2081
 21
-152.122
  0
LINE
  8
0
 10
-55.2081
 20
-152.122
 11
-54.717
 21
-152.03
  0
LINE
  8
0
 10
-54.717
 20
-152.03
 11
-54.222
 21
-151.963
  0
LINE
  8
0
 10
-54.222
 20
-151.963
 11
-53.7242
 21
-151.919
  0
LINE
  8
0
 10
-53.7242
 20
-151.919
 11
-53.2249
 21
-151.901
  0
LINE
  8
0
 10
-53.2249
 20
-151.901
 11
-52.7253
 21
-151.907
  0
LINE
  8
0
 10
-52.7253
 20
-151.907
 11
-52.2266
 21
-151.938
  0
LINE
  8
0
 10
-52.2266
 20
-151.938
 11
-51.7301
 21
-151.993
  0
LINE
  8
0
 10
-51.7301
 20
-151.993
 11
-51.2369
 21
-152.073
  0
LINE
  8
0
 10
-51.2369
 20
-152.073
 11
-50.7483
 21
-152.178
  0
LINE
  8
0
 10
-50.7483
 20
-152.178
 11
-50.4867
 21
-152.247
  0
LINE
  8
0
 10
-50.4867
 20
-152.247
 11
-50.7713
 21
-153.309
  0
LINE
  8
0
 10
-50.7713
 20
-153.309
 11
-50.8906
 21
-153.275
  0
LINE
  8
0
 10
-50.8906
 20
-153.275
 11
-51.3746
 21
-153.167
  0
LINE
  8
0
 10
-51.3746
 20
-153.167
 11
-51.8638
 21
-153.085
  0
LINE
  8
0
 10
-51.8638
 20
-153.085
 11
-52.3568
 21
-153.031
  0
LINE
  8
0
 10
-52.3568
 20
-153.031
 11
-52.852
 21
-153.003
  0
LINE
  8
0
 10
-52.852
 20
-153.003
 11
-53.348
 21
-153.003
  0
LINE
  8
0
 10
-53.348
 20
-153.003
 11
-53.8432
 21
-153.031
  0
LINE
  8
0
 10
-53.8432
 20
-153.031
 11
-54.3362
 21
-153.085
  0
LINE
  8
0
 10
-54.3362
 20
-153.085
 11
-54.8254
 21
-153.167
  0
LINE
  8
0
 10
-54.8254
 20
-153.167
 11
-55.3094
 21
-153.275
  0
LINE
  8
0
 10
-55.3094
 20
-153.275
 11
-55.7866
 21
-153.41
  0
LINE
  8
0
 10
-55.7866
 20
-153.41
 11
-56.2557
 21
-153.571
  0
LINE
  8
0
 10
-56.2557
 20
-153.571
 11
-56.7153
 21
-153.758
  0
LINE
  8
0
 10
-56.7153
 20
-153.758
 11
-57.1638
 21
-153.97
  0
LINE
  8
0
 10
-57.1638
 20
-153.97
 11
-57.6
 21
-154.206
  0
LINE
  8
0
 10
-57.6
 20
-154.206
 11
-58.0225
 21
-154.465
  0
LINE
  8
0
 10
-58.0225
 20
-154.465
 11
-58.4301
 21
-154.748
  0
LINE
  8
0
 10
-58.4301
 20
-154.748
 11
-58.8215
 21
-155.053
  0
LINE
  8
0
 10
-58.8215
 20
-155.053
 11
-59.1955
 21
-155.378
  0
LINE
  8
0
 10
-59.1955
 20
-155.378
 11
-59.551
 21
-155.724
  0
LINE
  8
0
 10
-59.551
 20
-155.724
 11
-59.6
 21
-155.778
  0
LINE
  8
0
 10
-59.6
 20
-155.778
 11
-59.6
 21
-157
  0
LINE
  8
0
 10
-59.6
 20
-157
 11
-63.6
 21
-157
  0
LINE
  8
0
 10
-63.6
 20
-157
 11
-63.6
 21
-155.5
  0
LINE
  8
0
 10
-63.6
 20
-155.5
 11
-65.1
 21
-155.5
  0
LINE
  8
0
 10
-65.1
 20
-155.5
 11
-65.1
 21
-160.75
  0
LINE
  8
0
 10
-65.1
 20
-160.75
 11
-57.9404
 21
-160.75
  0
LINE
  8
0
 10
-57.9404
 20
-160.75
 11
-57.7985
 21
-160.29
  0
LINE
  8
0
 10
-57.7985
 20
-160.29
 11
-57.6048
 21
-159.831
  0
LINE
  8
0
 10
-57.6048
 20
-159.831
 11
-57.3665
 21
-159.393
  0
LINE
  8
0
 10
-57.3665
 20
-159.393
 11
-57.0857
 21
-158.981
  0
LINE
  8
0
 10
-57.0857
 20
-158.981
 11
-56.7653
 21
-158.599
  0
LINE
  8
0
 10
-56.7653
 20
-158.599
 11
-56.4084
 21
-158.251
  0
LINE
  8
0
 10
-56.4084
 20
-158.251
 11
-56.0187
 21
-157.94
  0
LINE
  8
0
 10
-56.0187
 20
-157.94
 11
-55.6
 21
-157.67
  0
LINE
  8
0
 10
-55.6
 20
-157.67
 11
-55.1564
 21
-157.442
  0
LINE
  8
0
 10
-55.1564
 20
-157.442
 11
-54.6924
 21
-157.26
  0
LINE
  8
0
 10
-54.6924
 20
-157.26
 11
-54.2126
 21
-157.125
  0
LINE
  8
0
 10
-54.2126
 20
-157.125
 11
-53.7217
 21
-157.039
  0
LINE
  8
0
 10
-53.7217
 20
-157.039
 11
-53.2246
 21
-157.002
  0
LINE
  8
0
 10
-53.2246
 20
-157.002
 11
-52.7263
 21
-157.014
  0
LINE
  8
0
 10
-52.7263
 20
-157.014
 11
-52.2318
 21
-157.076
  0
LINE
  8
0
 10
-52.2318
 20
-157.076
 11
-51.7458
 21
-157.187
  0
LINE
  8
0
 10
-51.7458
 20
-157.187
 11
-51.2733
 21
-157.346
  0
LINE
  8
0
 10
-51.2733
 20
-157.346
 11
-50.8189
 21
-157.551
  0
LINE
  8
0
 10
-50.8189
 20
-157.551
 11
-50.3873
 21
-157.8
  0
LINE
  8
0
 10
-50.3873
 20
-157.8
 11
-49.9825
 21
-158.091
  0
LINE
  8
0
 10
-49.9825
 20
-158.091
 11
-49.6088
 21
-158.421
  0
LINE
  8
0
 10
-49.6088
 20
-158.421
 11
-49.2698
 21
-158.786
  0
LINE
  8
0
 10
-49.2698
 20
-158.786
 11
-48.9688
 21
-159.183
  0
LINE
  8
0
 10
-48.9688
 20
-159.183
 11
-48.7089
 21
-159.609
  0
LINE
  8
0
 10
-48.7089
 20
-159.609
 11
-48.4926
 21
-160.058
  0
LINE
  8
0
 10
-48.4926
 20
-160.058
 11
-48.3221
 21
-160.526
  0
LINE
  8
0
 10
-48.3221
 20
-160.526
 11
-48.1991
 21
-161.009
  0
LINE
  8
0
 10
-48.1991
 20
-161.009
 11
-48.1248
 21
-161.502
  0
LINE
  8
0
 10
-48.1248
 20
-161.502
 11
-48.1
 21
-162
  0
LINE
  8
0
 10
-48.1
 20
-162
 11
-48.1248
 21
-162.498
  0
LINE
  8
0
 10
-48.1248
 20
-162.498
 11
-48.1991
 21
-162.991
  0
LINE
  8
0
 10
-48.1991
 20
-162.991
 11
-48.3221
 21
-163.474
  0
LINE
  8
0
 10
-48.3221
 20
-163.474
 11
-48.4926
 21
-163.942
  0
LINE
  8
0
 10
-48.4926
 20
-163.942
 11
-48.7089
 21
-164.391
  0
LINE
  8
0
 10
-48.7089
 20
-164.391
 11
-48.9688
 21
-164.817
  0
LINE
  8
0
 10
-48.9688
 20
-164.817
 11
-49.2698
 21
-165.214
  0
LINE
  8
0
 10
-49.2698
 20
-165.214
 11
-49.6088
 21
-165.579
  0
LINE
  8
0
 10
-49.6088
 20
-165.579
 11
-49.9825
 21
-165.909
  0
LINE
  8
0
 10
-49.9825
 20
-165.909
 11
-50.3873
 21
-166.2
  0
LINE
  8
0
 10
-50.3873
 20
-166.2
 11
-50.8189
 21
-166.449
  0
LINE
  8
0
 10
-50.8189
 20
-166.449
 11
-51.2733
 21
-166.654
  0
LINE
  8
0
 10
-51.2733
 20
-166.654
 11
-51.7458
 21
-166.813
  0
LINE
  8
0
 10
-51.7458
 20
-166.813
 11
-52.2318
 21
-166.924
  0
LINE
  8
0
 10
-52.2318
 20
-166.924
 11
-52.7263
 21
-166.986
  0
LINE
  8
0
 10
-52.7263
 20
-166.986
 11
-53.2246
 21
-166.998
  0
LINE
  8
0
 10
-53.2246
 20
-166.998
 11
-53.7217
 21
-166.961
  0
LINE
  8
0
 10
-53.7217
 20
-166.961
 11
-54.2126
 21
-166.875
  0
LINE
  8
0
 10
-54.2126
 20
-166.875
 11
-54.6924
 21
-166.74
  0
LINE
  8
0
 10
-54.6924
 20
-166.74
 11
-55.1564
 21
-166.558
  0
LINE
  8
0
 10
-55.1564
 20
-166.558
 11
-55.6
 21
-166.33
  0
LINE
  8
0
 10
-55.6
 20
-166.33
 11
-56.0187
 21
-166.06
  0
LINE
  8
0
 10
-56.0187
 20
-166.06
 11
-56.4084
 21
-165.749
  0
LINE
  8
0
 10
-56.4084
 20
-165.749
 11
-56.7653
 21
-165.401
  0
LINE
  8
0
 10
-56.7653
 20
-165.401
 11
-57.0857
 21
-165.019
  0
LINE
  8
0
 10
-57.0857
 20
-165.019
 11
-57.3665
 21
-164.607
  0
LINE
  8
0
 10
-57.3665
 20
-164.607
 11
-57.6048
 21
-164.169
  0
LINE
  8
0
 10
-57.6048
 20
-164.169
 11
-57.7985
 21
-163.71
  0
LINE
  8
0
 10
-57.7985
 20
-163.71
 11
-57.9404
 21
-163.25
  0
LINE
  8
0
 10
-57.9404
 20
-163.25
 11
-65.1
 21
-163.25
  0
LINE
  8
0
 10
-65.1
 20
-163.25
 11
-65.1
 21
-168.5
  0
LINE
  8
0
 10
-65.1
 20
-168.5
 11
-63.6
 21
-168.5
  0
LINE
  8
0
 10
-63.6
 20
-168.5
 11
-63.6
 21
-167
  0
LINE
  8
0
 10
-63.6
 20
-167
 11
-59.6
 21
-167
  0
LINE
  8
0
 10
-59.6
 20
-167
 11
-59.6
 21
-168.222
  0
LINE
  8
0
 10
-59.6
 20
-168.222
 11
-59.551
 21
-168.276
  0
LINE
  8
0
 10
-59.551
 20
-168.276
 11
-59.1955
 21
-168.622
  0
LINE
  8
0
 10
-59.1955
 20
-168.622
 11
-58.8215
 21
-168.947
  0
LINE
  8
0
 10
-58.8215
 20
-168.947
 11
-58.4301
 21
-169.252
  0
LINE
  8
0
 10
-58.4301
 20
-169.252
 11
-58.0225
 21
-169.535
  0
LINE
  8
0
 10
-58.0225
 20
-169.535
 11
-57.6
 21
-169.794
  0
LINE
  8
0
 10
-57.6
 20
-169.794
 11
-57.1638
 21
-170.03
  0
LINE
  8
0
 10
-57.1638
 20
-170.03
 11
-56.7153
 21
-170.242
  0
LINE
  8
0
 10
-56.7153
 20
-170.242
 11
-56.2557
 21
-170.429
  0
LINE
  8
0
 10
-56.2557
 20
-170.429
 11
-55.7866
 21
-170.59
  0
LINE
  8
0
 10
-55.7866
 20
-170.59
 11
-55.3094
 21
-170.725
  0
LINE
  8
0
 10
-55.3094
 20
-170.725
 11
-54.8254
 21
-170.833
  0
LINE
  8
0
 10
-54.8254
 20
-170.833
 11
-54.3362
 21
-170.915
  0
LINE
  8
0
 10
-54.3362
 20
-170.915
 11
-53.8432
 21
-170.969
  0
LINE
  8
0
 10
-53.8432
 20
-170.969
 11
-53.348
 21
-170.997
  0
LINE
  8
0
 10
-53.348
 20
-170.997
 11
-52.852
 21
-170.997
  0
LINE
  8
0
 10
-52.852
 20
-170.997
 11
-52.3568
 21
-170.969
  0
LINE
  8
0
 10
-52.3568
 20
-170.969
 11
-51.8638
 21
-170.915
  0
LINE
  8
0
 10
-51.8638
 20
-170.915
 11
-51.3746
 21
-170.833
  0
LINE
  8
0
 10
-51.3746
 20
-170.833
 11
-50.8906
 21
-170.725
  0
LINE
  8
0
 10
-50.8906
 20
-170.725
 11
-50.7713
 21
-170.691
  0
LINE
  8
0
 10
-50.7713
 20
-170.691
 11
-50.4867
 21
-171.753
  0
LINE
  8
0
 10
-50.4867
 20
-171.753
 11
-50.7483
 21
-171.822
  0
LINE
  8
0
 10
-50.7483
 20
-171.822
 11
-51.2369
 21
-171.927
  0
LINE
  8
0
 10
-51.2369
 20
-171.927
 11
-51.7301
 21
-172.007
  0
LINE
  8
0
 10
-51.7301
 20
-172.007
 11
-52.2266
 21
-172.062
  0
LINE
  8
0
 10
-52.2266
 20
-172.062
 11
-52.7253
 21
-172.093
  0
LINE
  8
0
 10
-52.7253
 20
-172.093
 11
-53.2249
 21
-172.099
  0
LINE
  8
0
 10
-53.2249
 20
-172.099
 11
-53.7242
 21
-172.081
  0
LINE
  8
0
 10
-17.3491
 20
-170.688
 11
-17.8389
 21
-170.597
  0
LINE
  8
0
 10
-17.8389
 20
-170.597
 11
-18.3035
 21
-170.417
  0
LINE
  8
0
 10
-18.3035
 20
-170.417
 11
-18.7271
 21
-170.155
  0
LINE
  8
0
 10
-18.7271
 20
-170.155
 11
-19.0953
 21
-169.819
  0
LINE
  8
0
 10
-19.0953
 20
-169.819
 11
-19.3956
 21
-169.421
  0
LINE
  8
0
 10
-19.3956
 20
-169.421
 11
-19.6177
 21
-168.975
  0
LINE
  8
0
 10
-19.6177
 20
-168.975
 11
-19.754
 21
-168.496
  0
LINE
  8
0
 10
-19.754
 20
-168.496
 11
-19.8
 21
-168
  0
LINE
  8
0
 10
-19.8
 20
-168
 11
-19.754
 21
-167.504
  0
LINE
  8
0
 10
-19.754
 20
-167.504
 11
-19.6177
 21
-167.025
  0
LINE
  8
0
 10
-19.6177
 20
-167.025
 11
-19.3956
 21
-166.579
  0
LINE
  8
0
 10
-19.3956
 20
-166.579
 11
-19.0953
 21
-166.181
  0
LINE
  8
0
 10
-19.0953
 20
-166.181
 11
-18.7271
 21
-165.845
  0
LINE
  8
0
 10
-18.7271
 20
-165.845
 11
-18.3035
 21
-165.583
  0
LINE
  8
0
 10
-18.3035
 20
-165.583
 11
-17.8389
 21
-165.403
  0
LINE
  8
0
 10
-17.8389
 20
-165.403
 11
-17.3491
 21
-165.312
  0
LINE
  8
0
 10
-17.3491
 20
-165.312
 11
-16.8509
 21
-165.312
  0
LINE
  8
0
 10
-16.8509
 20
-165.312
 11
-16.3611
 21
-165.403
  0
LINE
  8
0
 10
-16.3611
 20
-165.403
 11
-15.8965
 21
-165.583
  0
LINE
  8
0
 10
-15.8965
 20
-165.583
 11
-15.4729
 21
-165.845
  0
LINE
  8
0
 10
-15.4729
 20
-165.845
 11
-15.1047
 21
-166.181
  0
LINE
  8
0
 10
-15.1047
 20
-166.181
 11
-14.8044
 21
-166.579
  0
LINE
  8
0
 10
-14.8044
 20
-166.579
 11
-14.5823
 21
-167.025
  0
LINE
  8
0
 10
-14.5823
 20
-167.025
 11
-14.446
 21
-167.504
  0
LINE
  8
0
 10
-14.446
 20
-167.504
 11
-14.4
 21
-168
  0
LINE
  8
0
 10
-14.4
 20
-168
 11
-14.446
 21
-168.496
  0
LINE
  8
0
 10
-14.446
 20
-168.496
 11
-14.5823
 21
-168.975
  0
LINE
  8
0
 10
-14.5823
 20
-168.975
 11
-14.8044
 21
-169.421
  0
LINE
  8
0
 10
-14.8044
 20
-169.421
 11
-15.1047
 21
-169.819
  0
LINE
  8
0
 10
-15.1047
 20
-169.819
 11
-15.4729
 21
-170.155
  0
LINE
  8
0
 10
-15.4729
 20
-170.155
 11
-15.8965
 21
-170.417
  0
LINE
  8
0
 10
-15.8965
 20
-170.417
 11
-16.3611
 21
-170.597
  0
LINE
  8
0
 10
-16.3611
 20
-170.597
 11
-16.8509
 21
-170.688
  0
LINE
  8
0
 10
-16.8509
 20
-170.688
 11
-17.3491
 21
-170.688
  0
LINE
  8
0
 10
-82.8451
 20
-182.283
 11
-83.3171
 21
-182.151
  0
LINE
  8
0
 10
-83.3171
 20
-182.151
 11
-83.7359
 21
-181.896
  0
LINE
  8
0
 10
-83.7359
 20
-181.896
 11
-85.7359
 21
-179.896
  0
LINE
  8
0
 10
-85.7359
 20
-179.896
 11
-86.0705
 21
-179.538
  0
LINE
  8
0
 10
-86.0705
 20
-179.538
 11
-86.2961
 21
-179.103
  0
LINE
  8
0
 10
-86.2961
 20
-179.103
 11
-86.3958
 21
-178.623
  0
LINE
  8
0
 10
-86.3958
 20
-178.623
 11
-86.3624
 21
-178.134
  0
LINE
  8
0
 10
-86.3624
 20
-178.134
 11
-86.1982
 21
-177.672
  0
LINE
  8
0
 10
-86.1982
 20
-177.672
 11
-85.9155
 21
-177.271
  0
LINE
  8
0
 10
-85.9155
 20
-177.271
 11
-85.5352
 21
-176.962
  0
LINE
  8
0
 10
-85.5352
 20
-176.962
 11
-85.0856
 21
-176.767
  0
LINE
  8
0
 10
-85.0856
 20
-176.767
 11
-84.6
 21
-176.7
  0
LINE
  8
0
 10
-84.6
 20
-176.7
 11
-84.1144
 21
-176.767
  0
LINE
  8
0
 10
-84.1144
 20
-176.767
 11
-83.6647
 21
-176.962
  0
LINE
  8
0
 10
-83.6647
 20
-176.962
 11
-83.2845
 21
-177.271
  0
LINE
  8
0
 10
-83.2845
 20
-177.271
 11
-81.2845
 21
-179.271
  0
LINE
  8
0
 10
-81.2845
 20
-179.271
 11
-81.0018
 21
-179.672
  0
LINE
  8
0
 10
-81.0018
 20
-179.672
 11
-80.8376
 21
-180.134
  0
LINE
  8
0
 10
-80.8376
 20
-180.134
 11
-80.8042
 21
-180.623
  0
LINE
  8
0
 10
-80.8042
 20
-180.623
 11
-80.9039
 21
-181.103
  0
LINE
  8
0
 10
-80.9039
 20
-181.103
 11
-81.1295
 21
-181.538
  0
LINE
  8
0
 10
-81.1295
 20
-181.538
 11
-81.464
 21
-181.896
  0
LINE
  8
0
 10
-81.464
 20
-181.896
 11
-81.8829
 21
-182.151
  0
LINE
  8
0
 10
-81.8829
 20
-182.151
 11
-82.3549
 21
-182.283
  0
LINE
  8
0
 10
-82.3549
 20
-182.283
 11
-82.8451
 21
-182.283
  0
LINE
  8
0
 10
-54.2028
 20
-182.196
 11
-54.638
 21
-181.971
  0
LINE
  8
0
 10
-54.638
 20
-181.971
 11
-54.9963
 21
-181.636
  0
LINE
  8
0
 10
-54.9963
 20
-181.636
 11
-55.251
 21
-181.217
  0
LINE
  8
0
 10
-55.251
 20
-181.217
 11
-55.3832
 21
-180.745
  0
LINE
  8
0
 10
-55.3832
 20
-180.745
 11
-55.3832
 21
-180.255
  0
LINE
  8
0
 10
-55.3832
 20
-180.255
 11
-55.251
 21
-179.783
  0
LINE
  8
0
 10
-55.251
 20
-179.783
 11
-54.9963
 21
-179.364
  0
LINE
  8
0
 10
-54.9963
 20
-179.364
 11
-52.9963
 21
-177.364
  0
LINE
  8
0
 10
-52.9963
 20
-177.364
 11
-52.638
 21
-177.029
  0
LINE
  8
0
 10
-52.638
 20
-177.029
 11
-52.2028
 21
-176.804
  0
LINE
  8
0
 10
-52.2028
 20
-176.804
 11
-51.7228
 21
-176.704
  0
LINE
  8
0
 10
-51.7228
 20
-176.704
 11
-51.2338
 21
-176.738
  0
LINE
  8
0
 10
-51.2338
 20
-176.738
 11
-50.7719
 21
-176.902
  0
LINE
  8
0
 10
-50.7719
 20
-176.902
 11
-50.3714
 21
-177.184
  0
LINE
  8
0
 10
-50.3714
 20
-177.184
 11
-50.062
 21
-177.565
  0
LINE
  8
0
 10
-50.062
 20
-177.565
 11
-49.8667
 21
-178.014
  0
LINE
  8
0
 10
-49.8667
 20
-178.014
 11
-49.8
 21
-178.5
  0
LINE
  8
0
 10
-49.8
 20
-178.5
 11
-49.8667
 21
-178.986
  0
LINE
  8
0
 10
-49.8667
 20
-178.986
 11
-50.062
 21
-179.435
  0
LINE
  8
0
 10
-50.062
 20
-179.435
 11
-50.3714
 21
-179.816
  0
LINE
  8
0
 10
-50.3714
 20
-179.816
 11
-52.3714
 21
-181.816
  0
LINE
  8
0
 10
-52.3714
 20
-181.816
 11
-52.7719
 21
-182.098
  0
LINE
  8
0
 10
-52.7719
 20
-182.098
 11
-53.2338
 21
-182.262
  0
LINE
  8
0
 10
-53.2338
 20
-182.262
 11
-53.7228
 21
-182.296
  0
LINE
  8
0
 10
-53.7228
 20
-182.296
 11
-54.2028
 21
-182.196
  0
LINE
  8
0
 10
-68.7239
 20
-206.984
 11
-69.2218
 21
-206.947
  0
LINE
  8
0
 10
-69.2218
 20
-206.947
 11
-69.7179
 21
-206.89
  0
LINE
  8
0
 10
-69.7179
 20
-206.89
 11
-70.2111
 21
-206.813
  0
LINE
  8
0
 10
-70.2111
 20
-206.813
 11
-70.7007
 21
-206.715
  0
LINE
  8
0
 10
-70.7007
 20
-206.715
 11
-71.1857
 21
-206.596
  0
LINE
  8
0
 10
-71.1857
 20
-206.596
 11
-71.6655
 21
-206.458
  0
LINE
  8
0
 10
-71.6655
 20
-206.458
 11
-72.139
 21
-206.3
  0
LINE
  8
0
 10
-72.139
 20
-206.3
 11
-72.6056
 21
-206.122
  0
LINE
  8
0
 10
-72.6056
 20
-206.122
 11
-73.0643
 21
-205.925
  0
LINE
  8
0
 10
-73.0643
 20
-205.925
 11
-73.5145
 21
-205.709
  0
LINE
  8
0
 10
-73.5145
 20
-205.709
 11
-73.9553
 21
-205.475
  0
LINE
  8
0
 10
-73.9553
 20
-205.475
 11
-74.3859
 21
-205.222
  0
LINE
  8
0
 10
-74.3859
 20
-205.222
 11
-74.8057
 21
-204.952
  0
LINE
  8
0
 10
-74.8057
 20
-204.952
 11
-75.2139
 21
-204.664
  0
LINE
  8
0
 10
-75.2139
 20
-204.664
 11
-75.6097
 21
-204.36
  0
LINE
  8
0
 10
-75.6097
 20
-204.36
 11
-75.9926
 21
-204.039
  0
LINE
  8
0
 10
-75.9926
 20
-204.039
 11
-76.3618
 21
-203.703
  0
LINE
  8
0
 10
-76.3618
 20
-203.703
 11
-76.7166
 21
-203.352
  0
LINE
  8
0
 10
-76.7166
 20
-203.352
 11
-77.0566
 21
-202.986
  0
LINE
  8
0
 10
-77.0566
 20
-202.986
 11
-77.3811
 21
-202.607
  0
LINE
  8
0
 10
-77.3811
 20
-202.607
 11
-77.6895
 21
-202.214
  0
LINE
  8
0
 10
-77.6895
 20
-202.214
 11
-77.9812
 21
-201.809
  0
LINE
  8
0
 10
-77.9812
 20
-201.809
 11
-78.2559
 21
-201.392
  0
LINE
  8
0
 10
-78.2559
 20
-201.392
 11
-78.513
 21
-200.964
  0
LINE
  8
0
 10
-78.513
 20
-200.964
 11
-78.7521
 21
-200.526
  0
LINE
  8
0
 10
-78.7521
 20
-200.526
 11
-78.9728
 21
-200.078
  0
LINE
  8
0
 10
-78.9728
 20
-200.078
 11
-79.1746
 21
-199.621
  0
LINE
  8
0
 10
-79.1746
 20
-199.621
 11
-79.3572
 21
-199.156
  0
LINE
  8
0
 10
-79.3572
 20
-199.156
 11
-79.5204
 21
-198.684
  0
LINE
  8
0
 10
-79.5204
 20
-198.684
 11
-79.6637
 21
-198.206
  0
LINE
  8
0
 10
-79.6637
 20
-198.206
 11
-79.7871
 21
-197.722
  0
LINE
  8
0
 10
-79.7871
 20
-197.722
 11
-79.8902
 21
-197.234
  0
LINE
  8
0
 10
-79.8902
 20
-197.234
 11
-79.973
 21
-196.741
  0
LINE
  8
0
 10
-79.973
 20
-196.741
 11
-80.0351
 21
-196.246
  0
LINE
  8
0
 10
-80.0351
 20
-196.246
 11
-80.0766
 21
-195.749
  0
LINE
  8
0
 10
-80.0766
 20
-195.749
 11
-80.0974
 21
-195.25
  0
LINE
  8
0
 10
-80.0974
 20
-195.25
 11
-80.0974
 21
-194.75
  0
LINE
  8
0
 10
-80.0974
 20
-194.75
 11
-80.0766
 21
-194.251
  0
LINE
  8
0
 10
-80.0766
 20
-194.251
 11
-80.0351
 21
-193.754
  0
LINE
  8
0
 10
-80.0351
 20
-193.754
 11
-79.973
 21
-193.259
  0
LINE
  8
0
 10
-79.973
 20
-193.259
 11
-79.8902
 21
-192.766
  0
LINE
  8
0
 10
-79.8902
 20
-192.766
 11
-79.7871
 21
-192.278
  0
LINE
  8
0
 10
-79.7871
 20
-192.278
 11
-79.6637
 21
-191.794
  0
LINE
  8
0
 10
-79.6637
 20
-191.794
 11
-79.5204
 21
-191.316
  0
LINE
  8
0
 10
-79.5204
 20
-191.316
 11
-79.3572
 21
-190.844
  0
LINE
  8
0
 10
-79.3572
 20
-190.844
 11
-79.1746
 21
-190.379
  0
LINE
  8
0
 10
-79.1746
 20
-190.379
 11
-78.9728
 21
-189.922
  0
LINE
  8
0
 10
-78.9728
 20
-189.922
 11
-78.7521
 21
-189.474
  0
LINE
  8
0
 10
-78.7521
 20
-189.474
 11
-78.513
 21
-189.036
  0
LINE
  8
0
 10
-78.513
 20
-189.036
 11
-78.2559
 21
-188.608
  0
LINE
  8
0
 10
-78.2559
 20
-188.608
 11
-77.9812
 21
-188.191
  0
LINE
  8
0
 10
-77.9812
 20
-188.191
 11
-77.6895
 21
-187.786
  0
LINE
  8
0
 10
-77.6895
 20
-187.786
 11
-77.3811
 21
-187.393
  0
LINE
  8
0
 10
-77.3811
 20
-187.393
 11
-77.0566
 21
-187.014
  0
LINE
  8
0
 10
-77.0566
 20
-187.014
 11
-76.7166
 21
-186.648
  0
LINE
  8
0
 10
-76.7166
 20
-186.648
 11
-76.3618
 21
-186.297
  0
LINE
  8
0
 10
-76.3618
 20
-186.297
 11
-75.9926
 21
-185.961
  0
LINE
  8
0
 10
-75.9926
 20
-185.961
 11
-75.6097
 21
-185.64
  0
LINE
  8
0
 10
-75.6097
 20
-185.64
 11
-75.2139
 21
-185.336
  0
LINE
  8
0
 10
-75.2139
 20
-185.336
 11
-74.8057
 21
-185.048
  0
LINE
  8
0
 10
-74.8057
 20
-185.048
 11
-74.3859
 21
-184.778
  0
LINE
  8
0
 10
-74.3859
 20
-184.778
 11
-73.9553
 21
-184.525
  0
LINE
  8
0
 10
-73.9553
 20
-184.525
 11
-73.5145
 21
-184.291
  0
LINE
  8
0
 10
-73.5145
 20
-184.291
 11
-73.0643
 21
-184.075
  0
LINE
  8
0
 10
-73.0643
 20
-184.075
 11
-72.6056
 21
-183.878
  0
LINE
  8
0
 10
-72.6056
 20
-183.878
 11
-72.139
 21
-183.7
  0
LINE
  8
0
 10
-72.139
 20
-183.7
 11
-71.6655
 21
-183.542
  0
LINE
  8
0
 10
-71.6655
 20
-183.542
 11
-71.1857
 21
-183.404
  0
LINE
  8
0
 10
-71.1857
 20
-183.404
 11
-70.7007
 21
-183.285
  0
LINE
  8
0
 10
-70.7007
 20
-183.285
 11
-70.2111
 21
-183.187
  0
LINE
  8
0
 10
-70.2111
 20
-183.187
 11
-69.7179
 21
-183.11
  0
LINE
  8
0
 10
-69.7179
 20
-183.11
 11
-69.2218
 21
-183.053
  0
LINE
  8
0
 10
-69.2218
 20
-183.053
 11
-68.7239
 21
-183.016
  0
LINE
  8
0
 10
-68.7239
 20
-183.016
 11
-68.2248
 21
-183.001
  0
LINE
  8
0
 10
-68.2248
 20
-183.001
 11
-67.7256
 21
-183.006
  0
LINE
  8
0
 10
-67.7256
 20
-183.006
 11
-67.2269
 21
-183.032
  0
LINE
  8
0
 10
-67.2269
 20
-183.032
 11
-66.7298
 21
-183.078
  0
LINE
  8
0
 10
-66.7298
 20
-183.078
 11
-66.2351
 21
-183.146
  0
LINE
  8
0
 10
-66.2351
 20
-183.146
 11
-65.7436
 21
-183.234
  0
LINE
  8
0
 10
-65.7436
 20
-183.234
 11
-65.2562
 21
-183.342
  0
LINE
  8
0
 10
-65.2562
 20
-183.342
 11
-64.7737
 21
-183.47
  0
LINE
  8
0
 10
-64.7737
 20
-183.47
 11
-64.297
 21
-183.619
  0
LINE
  8
0
 10
-64.297
 20
-183.619
 11
-63.8268
 21
-183.787
  0
LINE
  8
0
 10
-63.8268
 20
-183.787
 11
-63.364
 21
-183.974
  0
LINE
  8
0
 10
-63.364
 20
-183.974
 11
-62.9095
 21
-184.181
  0
LINE
  8
0
 10
-62.9095
 20
-184.181
 11
-62.4639
 21
-184.406
  0
LINE
  8
0
 10
-62.4639
 20
-184.406
 11
-62.0281
 21
-184.65
  0
LINE
  8
0
 10
-62.0281
 20
-184.65
 11
-61.6028
 21
-184.911
  0
LINE
  8
0
 10
-61.6028
 20
-184.911
 11
-61.1887
 21
-185.19
  0
LINE
  8
0
 10
-61.1887
 20
-185.19
 11
-60.7866
 21
-185.486
  0
LINE
  8
0
 10
-60.7866
 20
-185.486
 11
-60.3972
 21
-185.799
  0
LINE
  8
0
 10
-60.3972
 20
-185.799
 11
-60.0211
 21
-186.127
  0
LINE
  8
0
 10
-60.0211
 20
-186.127
 11
-59.659
 21
-186.471
  0
LINE
  8
0
 10
-59.659
 20
-186.471
 11
-59.3115
 21
-186.829
  0
LINE
  8
0
 10
-59.3115
 20
-186.829
 11
-58.9792
 21
-187.202
  0
LINE
  8
0
 10
-58.9792
 20
-187.202
 11
-58.6627
 21
-187.588
  0
LINE
  8
0
 10
-58.6627
 20
-187.588
 11
-58.3625
 21
-187.987
  0
LINE
  8
0
 10
-58.3625
 20
-187.987
 11
-58.0792
 21
-188.398
  0
LINE
  8
0
 10
-58.0792
 20
-188.398
 11
-57.8133
 21
-188.821
  0
LINE
  8
0
 10
-57.8133
 20
-188.821
 11
-57.5651
 21
-189.254
  0
LINE
  8
0
 10
-57.5651
 20
-189.254
 11
-57.3352
 21
-189.697
  0
LINE
  8
0
 10
-57.3352
 20
-189.697
 11
-57.1239
 21
-190.15
  0
LINE
  8
0
 10
-57.1239
 20
-190.15
 11
-56.9317
 21
-190.61
  0
LINE
  8
0
 10
-56.9317
 20
-190.61
 11
-56.7587
 21
-191.079
  0
LINE
  8
0
 10
-56.7587
 20
-191.079
 11
-56.6055
 21
-191.554
  0
LINE
  8
0
 10
-56.6055
 20
-191.554
 11
-56.472
 21
-192.035
  0
LINE
  8
0
 10
-56.472
 20
-192.035
 11
-56.3588
 21
-192.521
  0
LINE
  8
0
 10
-56.3588
 20
-192.521
 11
-56.2658
 21
-193.012
  0
LINE
  8
0
 10
-56.2658
 20
-193.012
 11
-56.1934
 21
-193.506
  0
LINE
  8
0
 10
-56.1934
 20
-193.506
 11
-56.1415
 21
-194.003
  0
LINE
  8
0
 10
-56.1415
 20
-194.003
 11
-56.1104
 21
-194.501
  0
LINE
  8
0
 10
-56.1104
 20
-194.501
 11
-56.1
 21
-195
  0
LINE
  8
0
 10
-56.1
 20
-195
 11
-56.1104
 21
-195.499
  0
LINE
  8
0
 10
-56.1104
 20
-195.499
 11
-56.1415
 21
-195.997
  0
LINE
  8
0
 10
-56.1415
 20
-195.997
 11
-56.1934
 21
-196.494
  0
LINE
  8
0
 10
-56.1934
 20
-196.494
 11
-56.2658
 21
-196.988
  0
LINE
  8
0
 10
-56.2658
 20
-196.988
 11
-56.3588
 21
-197.479
  0
LINE
  8
0
 10
-56.3588
 20
-197.479
 11
-56.472
 21
-197.965
  0
LINE
  8
0
 10
-56.472
 20
-197.965
 11
-56.6055
 21
-198.446
  0
LINE
  8
0
 10
-56.6055
 20
-198.446
 11
-56.7587
 21
-198.921
  0
LINE
  8
0
 10
-56.7587
 20
-198.921
 11
-56.9317
 21
-199.39
  0
LINE
  8
0
 10
-56.9317
 20
-199.39
 11
-57.1239
 21
-199.85
  0
LINE
  8
0
 10
-57.1239
 20
-199.85
 11
-57.3352
 21
-200.303
  0
LINE
  8
0
 10
-57.3352
 20
-200.303
 11
-57.5651
 21
-200.746
  0
LINE
  8
0
 10
-57.5651
 20
-200.746
 11
-57.8133
 21
-201.179
  0
LINE
  8
0
 10
-57.8133
 20
-201.179
 11
-58.0792
 21
-201.602
  0
LINE
  8
0
 10
-58.0792
 20
-201.602
 11
-58.3625
 21
-202.013
  0
LINE
  8
0
 10
-58.3625
 20
-202.013
 11
-58.6627
 21
-202.412
  0
LINE
  8
0
 10
-58.6627
 20
-202.412
 11
-58.9792
 21
-202.798
  0
LINE
  8
0
 10
-58.9792
 20
-202.798
 11
-59.3115
 21
-203.171
  0
LINE
  8
0
 10
-59.3115
 20
-203.171
 11
-59.659
 21
-203.529
  0
LINE
  8
0
 10
-59.659
 20
-203.529
 11
-60.0211
 21
-203.873
  0
LINE
  8
0
 10
-60.0211
 20
-203.873
 11
-60.3972
 21
-204.201
  0
LINE
  8
0
 10
-60.3972
 20
-204.201
 11
-60.7866
 21
-204.514
  0
LINE
  8
0
 10
-60.7866
 20
-204.514
 11
-61.1887
 21
-204.81
  0
LINE
  8
0
 10
-61.1887
 20
-204.81
 11
-61.6028
 21
-205.089
  0
LINE
  8
0
 10
-61.6028
 20
-205.089
 11
-62.0281
 21
-205.35
  0
LINE
  8
0
 10
-62.0281
 20
-205.35
 11
-62.4639
 21
-205.594
  0
LINE
  8
0
 10
-62.4639
 20
-205.594
 11
-62.9095
 21
-205.819
  0
LINE
  8
0
 10
-62.9095
 20
-205.819
 11
-63.364
 21
-206.026
  0
LINE
  8
0
 10
-63.364
 20
-206.026
 11
-63.8268
 21
-206.213
  0
LINE
  8
0
 10
-63.8268
 20
-206.213
 11
-64.297
 21
-206.381
  0
LINE
  8
0
 10
-64.297
 20
-206.381
 11
-64.7737
 21
-206.53
  0
LINE
  8
0
 10
-64.7737
 20
-206.53
 11
-65.2562
 21
-206.658
  0
LINE
  8
0
 10
-65.2562
 20
-206.658
 11
-65.7436
 21
-206.766
  0
LINE
  8
0
 10
-65.7436
 20
-206.766
 11
-66.2351
 21
-206.854
  0
LINE
  8
0
 10
-66.2351
 20
-206.854
 11
-66.7298
 21
-206.922
  0
LINE
  8
0
 10
-66.7298
 20
-206.922
 11
-67.2269
 21
-206.968
  0
LINE
  8
0
 10
-67.2269
 20
-206.968
 11
-67.7256
 21
-206.994
  0
LINE
  8
0
 10
-67.7256
 20
-206.994
 11
-68.2248
 21
-206.999
  0
LINE
  8
0
 10
-68.2248
 20
-206.999
 11
-68.7239
 21
-206.984
  0
LINE
  8
0
 10
-37.3491
 20
-200.688
 11
-37.8389
 21
-200.597
  0
LINE
  8
0
 10
-37.8389
 20
-200.597
 11
-38.3035
 21
-200.417
  0
LINE
  8
0
 10
-38.3035
 20
-200.417
 11
-38.7271
 21
-200.155
  0
LINE
  8
0
 10
-38.7271
 20
-200.155
 11
-39.0953
 21
-199.819
  0
LINE
  8
0
 10
-39.0953
 20
-199.819
 11
-39.3956
 21
-199.421
  0
LINE
  8
0
 10
-39.3956
 20
-199.421
 11
-39.6177
 21
-198.975
  0
LINE
  8
0
 10
-39.6177
 20
-198.975
 11
-39.754
 21
-198.496
  0
LINE
  8
0
 10
-39.754
 20
-198.496
 11
-39.8
 21
-198
  0
LINE
  8
0
 10
-39.8
 20
-198
 11
-39.754
 21
-197.504
  0
LINE
  8
0
 10
-39.754
 20
-197.504
 11
-39.6177
 21
-197.025
  0
LINE
  8
0
 10
-39.6177
 20
-197.025
 11
-39.3956
 21
-196.579
  0
LINE
  8
0
 10
-39.3956
 20
-196.579
 11
-39.0953
 21
-196.181
  0
LINE
  8
0
 10
-39.0953
 20
-196.181
 11
-38.7271
 21
-195.845
  0
LINE
  8
0
 10
-38.7271
 20
-195.845
 11
-38.3035
 21
-195.583
  0
LINE
  8
0
 10
-38.3035
 20
-195.583
 11
-37.8389
 21
-195.403
  0
LINE
  8
0
 10
-37.8389
 20
-195.403
 11
-37.3491
 21
-195.312
  0
LINE
  8
0
 10
-37.3491
 20
-195.312
 11
-36.8509
 21
-195.312
  0
LINE
  8
0
 10
-36.8509
 20
-195.312
 11
-36.3611
 21
-195.403
  0
LINE
  8
0
 10
-36.3611
 20
-195.403
 11
-35.8965
 21
-195.583
  0
LINE
  8
0
 10
-35.8965
 20
-195.583
 11
-35.4729
 21
-195.845
  0
LINE
  8
0
 10
-35.4729
 20
-195.845
 11
-35.1047
 21
-196.181
  0
LINE
  8
0
 10
-35.1047
 20
-196.181
 11
-34.8044
 21
-196.579
  0
LINE
  8
0
 10
-34.8044
 20
-196.579
 11
-34.5823
 21
-197.025
  0
LINE
  8
0
 10
-34.5823
 20
-197.025
 11
-34.446
 21
-197.504
  0
LINE
  8
0
 10
-34.446
 20
-197.504
 11
-34.4
 21
-198
  0
LINE
  8
0
 10
-34.4
 20
-198
 11
-34.446
 21
-198.496
  0
LINE
  8
0
 10
-34.446
 20
-198.496
 11
-34.5823
 21
-198.975
  0
LINE
  8
0
 10
-34.5823
 20
-198.975
 11
-34.8044
 21
-199.421
  0
LINE
  8
0
 10
-34.8044
 20
-199.421
 11
-35.1047
 21
-199.819
  0
LINE
  8
0
 10
-35.1047
 20
-199.819
 11
-35.4729
 21
-200.155
  0
LINE
  8
0
 10
-35.4729
 20
-200.155
 11
-35.8965
 21
-200.417
  0
LINE
  8
0
 10
-35.8965
 20
-200.417
 11
-36.3611
 21
-200.597
  0
LINE
  8
0
 10
-36.3611
 20
-200.597
 11
-36.8509
 21
-200.688
  0
LINE
  8
0
 10
-36.8509
 20
-200.688
 11
-37.3491
 21
-200.688
  0
LINE
  8
0
 10
-84.9662
 20
-213.262
 11
-85.4281
 21
-213.098
  0
LINE
  8
0
 10
-85.4281
 20
-213.098
 11
-85.8286
 21
-212.816
  0
LINE
  8
0
 10
-85.8286
 20
-212.816
 11
-86.138
 21
-212.435
  0
LINE
  8
0
 10
-86.138
 20
-212.435
 11
-86.3333
 21
-211.986
  0
LINE
  8
0
 10
-86.3333
 20
-211.986
 11
-86.4
 21
-211.5
  0
LINE
  8
0
 10
-86.4
 20
-211.5
 11
-86.3333
 21
-211.014
  0
LINE
  8
0
 10
-86.3333
 20
-211.014
 11
-86.138
 21
-210.565
  0
LINE
  8
0
 10
-86.138
 20
-210.565
 11
-85.8286
 21
-210.184
  0
LINE
  8
0
 10
-85.8286
 20
-210.184
 11
-83.8286
 21
-208.184
  0
LINE
  8
0
 10
-83.8286
 20
-208.184
 11
-83.4281
 21
-207.902
  0
LINE
  8
0
 10
-83.4281
 20
-207.902
 11
-82.9662
 21
-207.738
  0
LINE
  8
0
 10
-82.9662
 20
-207.738
 11
-82.4772
 21
-207.704
  0
LINE
  8
0
 10
-82.4772
 20
-207.704
 11
-81.9972
 21
-207.804
  0
LINE
  8
0
 10
-81.9972
 20
-207.804
 11
-81.562
 21
-208.029
  0
LINE
  8
0
 10
-81.562
 20
-208.029
 11
-81.2037
 21
-208.364
  0
LINE
  8
0
 10
-81.2037
 20
-208.364
 11
-80.949
 21
-208.783
  0
LINE
  8
0
 10
-80.949
 20
-208.783
 11
-80.8168
 21
-209.255
  0
LINE
  8
0
 10
-80.8168
 20
-209.255
 11
-80.8168
 21
-209.745
  0
LINE
  8
0
 10
-80.8168
 20
-209.745
 11
-80.949
 21
-210.217
  0
LINE
  8
0
 10
-80.949
 20
-210.217
 11
-81.2037
 21
-210.636
  0
LINE
  8
0
 10
-81.2037
 20
-210.636
 11
-83.2037
 21
-212.636
  0
LINE
  8
0
 10
-83.2037
 20
-212.636
 11
-83.562
 21
-212.971
  0
LINE
  8
0
 10
-83.562
 20
-212.971
 11
-83.9972
 21
-213.196
  0
LINE
  8
0
 10
-83.9972
 20
-213.196
 11
-84.4772
 21
-213.296
  0
LINE
  8
0
 10
-84.4772
 20
-213.296
 11
-84.9662
 21
-213.262
  0
LINE
  8
0
 10
-52.0856
 20
-213.233
 11
-52.5352
 21
-213.038
  0
LINE
  8
0
 10
-52.5352
 20
-213.038
 11
-52.9155
 21
-212.729
  0
LINE
  8
0
 10
-52.9155
 20
-212.729
 11
-54.9155
 21
-210.729
  0
LINE
  8
0
 10
-54.9155
 20
-210.729
 11
-55.1982
 21
-210.328
  0
LINE
  8
0
 10
-55.1982
 20
-210.328
 11
-55.3624
 21
-209.866
  0
LINE
  8
0
 10
-55.3624
 20
-209.866
 11
-55.3958
 21
-209.377
  0
LINE
  8
0
 10
-55.3958
 20
-209.377
 11
-55.2961
 21
-208.897
  0
LINE
  8
0
 10
-55.2961
 20
-208.897
 11
-55.0705
 21
-208.462
  0
LINE
  8
0
 10
-55.0705
 20
-208.462
 11
-54.7359
 21
-208.104
  0
LINE
  8
0
 10
-54.7359
 20
-208.104
 11
-54.3171
 21
-207.849
  0
LINE
  8
0
 10
-54.3171
 20
-207.849
 11
-53.8451
 21
-207.717
  0
LINE
  8
0
 10
-53.8451
 20
-207.717
 11
-53.3549
 21
-207.717
  0
LINE
  8
0
 10
-53.3549
 20
-207.717
 11
-52.8829
 21
-207.849
  0
LINE
  8
0
 10
-52.8829
 20
-207.849
 11
-52.464
 21
-208.104
  0
LINE
  8
0
 10
-52.464
 20
-208.104
 11
-50.464
 21
-210.104
  0
LINE
  8
0
 10
-50.464
 20
-210.104
 11
-50.1295
 21
-210.462
  0
LINE
  8
0
 10
-50.1295
 20
-210.462
 11
-49.9039
 21
-210.897
  0
LINE
  8
0
 10
-49.9039
 20
-210.897
 11
-49.8042
 21
-211.377
  0
LINE
  8
0
 10
-49.8042
 20
-211.377
 11
-49.8376
 21
-211.866
  0
LINE
  8
0
 10
-49.8376
 20
-211.866
 11
-50.0018
 21
-212.328
  0
LINE
  8
0
 10
-50.0018
 20
-212.328
 11
-50.2845
 21
-212.729
  0
LINE
  8
0
 10
-50.2845
 20
-212.729
 11
-50.6647
 21
-213.038
  0
LINE
  8
0
 10
-50.6647
 20
-213.038
 11
-51.1144
 21
-213.233
  0
LINE
  8
0
 10
-51.1144
 20
-213.233
 11
-51.6
 21
-213.3
  0
LINE
  8
0
 10
-51.6
 20
-213.3
 11
-52.0856
 21
-213.233
  0
LINE
  8
0
 10
-53.7242
 20
-238.081
 11
-54.222
 21
-238.037
  0
LINE
  8
0
 10
-54.222
 20
-238.037
 11
-54.717
 21
-237.97
  0
LINE
  8
0
 10
-54.717
 20
-237.97
 11
-55.2081
 21
-237.878
  0
LINE
  8
0
 10
-55.2081
 20
-237.878
 11
-55.694
 21
-237.761
  0
LINE
  8
0
 10
-55.694
 20
-237.761
 11
-56.1735
 21
-237.621
  0
LINE
  8
0
 10
-56.1735
 20
-237.621
 11
-56.6455
 21
-237.457
  0
LINE
  8
0
 10
-56.6455
 20
-237.457
 11
-57.1089
 21
-237.27
  0
LINE
  8
0
 10
-57.1089
 20
-237.27
 11
-57.5624
 21
-237.061
  0
LINE
  8
0
 10
-57.5624
 20
-237.061
 11
-58.0051
 21
-236.829
  0
LINE
  8
0
 10
-58.0051
 20
-236.829
 11
-58.4357
 21
-236.576
  0
LINE
  8
0
 10
-58.4357
 20
-236.576
 11
-58.8533
 21
-236.301
  0
LINE
  8
0
 10
-58.8533
 20
-236.301
 11
-59.2567
 21
-236.007
  0
LINE
  8
0
 10
-59.2567
 20
-236.007
 11
-59.6452
 21
-235.692
  0
LINE
  8
0
 10
-59.6452
 20
-235.692
 11
-59.8601
 21
-235.5
  0
LINE
  8
0
 10
-59.8601
 20
-235.5
 11
-65.975
 21
-235.5
  0
LINE
  8
0
 10
-65.975
 20
-235.5
 11
-65.975
 21
-235
  0
LINE
  8
0
 10
-65.975
 20
-235
 11
-66.1
 21
-235
  0
LINE
  8
0
 10
-66.1
 20
-235
 11
-66.1
 21
-221
  0
LINE
  8
0
 10
-66.1
 20
-221
 11
-65.975
 21
-221
  0
LINE
  8
0
 10
-65.975
 20
-221
 11
-65.975
 21
-220.5
  0
LINE
  8
0
 10
-65.975
 20
-220.5
 11
-59.8601
 21
-220.5
  0
LINE
  8
0
 10
-59.8601
 20
-220.5
 11
-59.6452
 21
-220.308
  0
LINE
  8
0
 10
-59.6452
 20
-220.308
 11
-59.2567
 21
-219.993
  0
LINE
  8
0
 10
-59.2567
 20
-219.993
 11
-58.8533
 21
-219.699
  0
LINE
  8
0
 10
-58.8533
 20
-219.699
 11
-58.4357
 21
-219.424
  0
LINE
  8
0
 10
-58.4357
 20
-219.424
 11
-58.0051
 21
-219.171
  0
LINE
  8
0
 10
-58.0051
 20
-219.171
 11
-57.5624
 21
-218.939
  0
LINE
  8
0
 10
-57.5624
 20
-218.939
 11
-57.1089
 21
-218.73
  0
LINE
  8
0
 10
-57.1089
 20
-218.73
 11
-56.6455
 21
-218.543
  0
LINE
  8
0
 10
-56.6455
 20
-218.543
 11
-56.1735
 21
-218.379
  0
LINE
  8
0
 10
-56.1735
 20
-218.379
 11
-55.694
 21
-218.239
  0
LINE
  8
0
 10
-55.694
 20
-218.239
 11
-55.2081
 21
-218.122
  0
LINE
  8
0
 10
-55.2081
 20
-218.122
 11
-54.717
 21
-218.03
  0
LINE
  8
0
 10
-54.717
 20
-218.03
 11
-54.222
 21
-217.963
  0
LINE
  8
0
 10
-54.222
 20
-217.963
 11
-53.7242
 21
-217.919
  0
LINE
  8
0
 10
-53.7242
 20
-217.919
 11
-53.2249
 21
-217.901
  0
LINE
  8
0
 10
-53.2249
 20
-217.901
 11
-52.7253
 21
-217.907
  0
LINE
  8
0
 10
-52.7253
 20
-217.907
 11
-52.2266
 21
-217.938
  0
LINE
  8
0
 10
-52.2266
 20
-217.938
 11
-51.7301
 21
-217.993
  0
LINE
  8
0
 10
-51.7301
 20
-217.993
 11
-51.2369
 21
-218.073
  0
LINE
  8
0
 10
-51.2369
 20
-218.073
 11
-50.7483
 21
-218.178
  0
LINE
  8
0
 10
-50.7483
 20
-218.178
 11
-50.4867
 21
-218.247
  0
LINE
  8
0
 10
-50.4867
 20
-218.247
 11
-50.7713
 21
-219.309
  0
LINE
  8
0
 10
-50.7713
 20
-219.309
 11
-50.8906
 21
-219.275
  0
LINE
  8
0
 10
-50.8906
 20
-219.275
 11
-51.3746
 21
-219.167
  0
LINE
  8
0
 10
-51.3746
 20
-219.167
 11
-51.8638
 21
-219.085
  0
LINE
  8
0
 10
-51.8638
 20
-219.085
 11
-52.3568
 21
-219.031
  0
LINE
  8
0
 10
-52.3568
 20
-219.031
 11
-52.852
 21
-219.003
  0
LINE
  8
0
 10
-52.852
 20
-219.003
 11
-53.348
 21
-219.003
  0
LINE
  8
0
 10
-53.348
 20
-219.003
 11
-53.8432
 21
-219.031
  0
LINE
  8
0
 10
-53.8432
 20
-219.031
 11
-54.3362
 21
-219.085
  0
LINE
  8
0
 10
-54.3362
 20
-219.085
 11
-54.8254
 21
-219.167
  0
LINE
  8
0
 10
-54.8254
 20
-219.167
 11
-55.3094
 21
-219.275
  0
LINE
  8
0
 10
-55.3094
 20
-219.275
 11
-55.7866
 21
-219.41
  0
LINE
  8
0
 10
-55.7866
 20
-219.41
 11
-56.2557
 21
-219.571
  0
LINE
  8
0
 10
-56.2557
 20
-219.571
 11
-56.7153
 21
-219.758
  0
LINE
  8
0
 10
-56.7153
 20
-219.758
 11
-57.1638
 21
-219.97
  0
LINE
  8
0
 10
-57.1638
 20
-219.97
 11
-57.6
 21
-220.206
  0
LINE
  8
0
 10
-57.6
 20
-220.206
 11
-58.0225
 21
-220.465
  0
LINE
  8
0
 10
-58.0225
 20
-220.465
 11
-58.4301
 21
-220.748
  0
LINE
  8
0
 10
-58.4301
 20
-220.748
 11
-58.8215
 21
-221.053
  0
LINE
  8
0
 10
-58.8215
 20
-221.053
 11
-59.1955
 21
-221.378
  0
LINE
  8
0
 10
-59.1955
 20
-221.378
 11
-59.551
 21
-221.724
  0
LINE
  8
0
 10
-59.551
 20
-221.724
 11
-59.6
 21
-221.778
  0
LINE
  8
0
 10
-59.6
 20
-221.778
 11
-59.6
 21
-223
  0
LINE
  8
0
 10
-59.6
 20
-223
 11
-63.6
 21
-223
  0
LINE
  8
0
 10
-63.6
 20
-223
 11
-63.6
 21
-221.5
  0
LINE
  8
0
 10
-63.6
 20
-221.5
 11
-65.1
 21
-221.5
  0
LINE
  8
0
 10
-65.1
 20
-221.5
 11
-65.1
 21
-226.75
  0
LINE
  8
0
 10
-65.1
 20
-226.75
 11
-57.9404
 21
-226.75
  0
LINE
  8
0
 10
-57.9404
 20
-226.75
 11
-57.7985
 21
-226.29
  0
LINE
  8
0
 10
-57.7985
 20
-226.29
 11
-57.6048
 21
-225.831
  0
LINE
  8
0
 10
-57.6048
 20
-225.831
 11
-57.3665
 21
-225.393
  0
LINE
  8
0
 10
-57.3665
 20
-225.393
 11
-57.0857
 21
-224.981
  0
LINE
  8
0
 10
-57.0857
 20
-224.981
 11
-56.7653
 21
-224.599
  0
LINE
  8
0
 10
-56.7653
 20
-224.599
 11
-56.4084
 21
-224.251
  0
LINE
  8
0
 10
-56.4084
 20
-224.251
 11
-56.0187
 21
-223.94
  0
LINE
  8
0
 10
-56.0187
 20
-223.94
 11
-55.6
 21
-223.67
  0
LINE
  8
0
 10
-55.6
 20
-223.67
 11
-55.1564
 21
-223.442
  0
LINE
  8
0
 10
-55.1564
 20
-223.442
 11
-54.6924
 21
-223.26
  0
LINE
  8
0
 10
-54.6924
 20
-223.26
 11
-54.2126
 21
-223.125
  0
LINE
  8
0
 10
-54.2126
 20
-223.125
 11
-53.7217
 21
-223.039
  0
LINE
  8
0
 10
-53.7217
 20
-223.039
 11
-53.2246
 21
-223.002
  0
LINE
  8
0
 10
-53.2246
 20
-223.002
 11
-52.7263
 21
-223.014
  0
LINE
  8
0
 10
-52.7263
 20
-223.014
 11
-52.2318
 21
-223.076
  0
LINE
  8
0
 10
-52.2318
 20
-223.076
 11
-51.7458
 21
-223.187
  0
LINE
  8
0
 10
-51.7458
 20
-223.187
 11
-51.2733
 21
-223.346
  0
LINE
  8
0
 10
-51.2733
 20
-223.346
 11
-50.8189
 21
-223.551
  0
LINE
  8
0
 10
-50.8189
 20
-223.551
 11
-50.3873
 21
-223.8
  0
LINE
  8
0
 10
-50.3873
 20
-223.8
 11
-49.9825
 21
-224.091
  0
LINE
  8
0
 10
-49.9825
 20
-224.091
 11
-49.6088
 21
-224.421
  0
LINE
  8
0
 10
-49.6088
 20
-224.421
 11
-49.2698
 21
-224.786
  0
LINE
  8
0
 10
-49.2698
 20
-224.786
 11
-48.9688
 21
-225.183
  0
LINE
  8
0
 10
-48.9688
 20
-225.183
 11
-48.7089
 21
-225.609
  0
LINE
  8
0
 10
-48.7089
 20
-225.609
 11
-48.4926
 21
-226.058
  0
LINE
  8
0
 10
-48.4926
 20
-226.058
 11
-48.3221
 21
-226.526
  0
LINE
  8
0
 10
-48.3221
 20
-226.526
 11
-48.1991
 21
-227.009
  0
LINE
  8
0
 10
-48.1991
 20
-227.009
 11
-48.1248
 21
-227.502
  0
LINE
  8
0
 10
-48.1248
 20
-227.502
 11
-48.1
 21
-228
  0
LINE
  8
0
 10
-48.1
 20
-228
 11
-48.1248
 21
-228.498
  0
LINE
  8
0
 10
-48.1248
 20
-228.498
 11
-48.1991
 21
-228.991
  0
LINE
  8
0
 10
-48.1991
 20
-228.991
 11
-48.3221
 21
-229.474
  0
LINE
  8
0
 10
-48.3221
 20
-229.474
 11
-48.4926
 21
-229.942
  0
LINE
  8
0
 10
-48.4926
 20
-229.942
 11
-48.7089
 21
-230.391
  0
LINE
  8
0
 10
-48.7089
 20
-230.391
 11
-48.9688
 21
-230.817
  0
LINE
  8
0
 10
-48.9688
 20
-230.817
 11
-49.2698
 21
-231.214
  0
LINE
  8
0
 10
-49.2698
 20
-231.214
 11
-49.6088
 21
-231.579
  0
LINE
  8
0
 10
-49.6088
 20
-231.579
 11
-49.9825
 21
-231.909
  0
LINE
  8
0
 10
-49.9825
 20
-231.909
 11
-50.3873
 21
-232.2
  0
LINE
  8
0
 10
-50.3873
 20
-232.2
 11
-50.8189
 21
-232.449
  0
LINE
  8
0
 10
-50.8189
 20
-232.449
 11
-51.2733
 21
-232.654
  0
LINE
  8
0
 10
-51.2733
 20
-232.654
 11
-51.7458
 21
-232.813
  0
LINE
  8
0
 10
-51.7458
 20
-232.813
 11
-52.2318
 21
-232.924
  0
LINE
  8
0
 10
-52.2318
 20
-232.924
 11
-52.7263
 21
-232.986
  0
LINE
  8
0
 10
-52.7263
 20
-232.986
 11
-53.2246
 21
-232.998
  0
LINE
  8
0
 10
-53.2246
 20
-232.998
 11
-53.7217
 21
-232.961
  0
LINE
  8
0
 10
-53.7217
 20
-232.961
 11
-54.2126
 21
-232.875
  0
LINE
  8
0
 10
-54.2126
 20
-232.875
 11
-54.6924
 21
-232.74
  0
LINE
  8
0
 10
-54.6924
 20
-232.74
 11
-55.1564
 21
-232.558
  0
LINE
  8
0
 10
-55.1564
 20
-232.558
 11
-55.6
 21
-232.33
  0
LINE
  8
0
 10
-55.6
 20
-232.33
 11
-56.0187
 21
-232.06
  0
LINE
  8
0
 10
-56.0187
 20
-232.06
 11
-56.4084
 21
-231.749
  0
LINE
  8
0
 10
-56.4084
 20
-231.749
 11
-56.7653
 21
-231.401
  0
LINE
  8
0
 10
-56.7653
 20
-231.401
 11
-57.0857
 21
-231.019
  0
LINE
  8
0
 10
-57.0857
 20
-231.019
 11
-57.3665
 21
-230.607
  0
LINE
  8
0
 10
-57.3665
 20
-230.607
 11
-57.6048
 21
-230.169
  0
LINE
  8
0
 10
-57.6048
 20
-230.169
 11
-57.7985
 21
-229.71
  0
LINE
  8
0
 10
-57.7985
 20
-229.71
 11
-57.9404
 21
-229.25
  0
LINE
  8
0
 10
-57.9404
 20
-229.25
 11
-65.1
 21
-229.25
  0
LINE
  8
0
 10
-65.1
 20
-229.25
 11
-65.1
 21
-234.5
  0
LINE
  8
0
 10
-65.1
 20
-234.5
 11
-63.6
 21
-234.5
  0
LINE
  8
0
 10
-63.6
 20
-234.5
 11
-63.6
 21
-233
  0
LINE
  8
0
 10
-63.6
 20
-233
 11
-59.6
 21
-233
  0
LINE
  8
0
 10
-59.6
 20
-233
 11
-59.6
 21
-234.222
  0
LINE
  8
0
 10
-59.6
 20
-234.222
 11
-59.551
 21
-234.276
  0
LINE
  8
0
 10
-59.551
 20
-234.276
 11
-59.1955
 21
-234.622
  0
LINE
  8
0
 10
-59.1955
 20
-234.622
 11
-58.8215
 21
-234.947
  0
LINE
  8
0
 10
-58.8215
 20
-234.947
 11
-58.4301
 21
-235.252
  0
LINE
  8
0
 10
-58.4301
 20
-235.252
 11
-58.0225
 21
-235.535
  0
LINE
  8
0
 10
-58.0225
 20
-235.535
 11
-57.6
 21
-235.794
  0
LINE
  8
0
 10
-57.6
 20
-235.794
 11
-57.1638
 21
-236.03
  0
LINE
  8
0
 10
-57.1638
 20
-236.03
 11
-56.7153
 21
-236.242
  0
LINE
  8
0
 10
-56.7153
 20
-236.242
 11
-56.2557
 21
-236.429
  0
LINE
  8
0
 10
-56.2557
 20
-236.429
 11
-55.7866
 21
-236.59
  0
LINE
  8
0
 10
-55.7866
 20
-236.59
 11
-55.3094
 21
-236.725
  0
LINE
  8
0
 10
-55.3094
 20
-236.725
 11
-54.8254
 21
-236.833
  0
LINE
  8
0
 10
-54.8254
 20
-236.833
 11
-54.3362
 21
-236.915
  0
LINE
  8
0
 10
-54.3362
 20
-236.915
 11
-53.8432
 21
-236.969
  0
LINE
  8
0
 10
-53.8432
 20
-236.969
 11
-53.348
 21
-236.997
  0
LINE
  8
0
 10
-53.348
 20
-236.997
 11
-52.852
 21
-236.997
  0
LINE
  8
0
 10
-52.852
 20
-236.997
 11
-52.3568
 21
-236.969
  0
LINE
  8
0
 10
-52.3568
 20
-236.969
 11
-51.8638
 21
-236.915
  0
LINE
  8
0
 10
-51.8638
 20
-236.915
 11
-51.3746
 21
-236.833
  0
LINE
  8
0
 10
-51.3746
 20
-236.833
 11
-50.8906
 21
-236.725
  0
LINE
  8
0
 10
-50.8906
 20
-236.725
 11
-50.7713
 21
-236.691
  0
LINE
  8
0
 10
-50.7713
 20
-236.691
 11
-50.4867
 21
-237.753
  0
LINE
  8
0
 10
-50.4867
 20
-237.753
 11
-50.7483
 21
-237.822
  0
LINE
  8
0
 10
-50.7483
 20
-237.822
 11
-51.2369
 21
-237.927
  0
LINE
  8
0
 10
-51.2369
 20
-237.927
 11
-51.7301
 21
-238.007
  0
LINE
  8
0
 10
-51.7301
 20
-238.007
 11
-52.2266
 21
-238.062
  0
LINE
  8
0
 10
-52.2266
 20
-238.062
 11
-52.7253
 21
-238.093
  0
LINE
  8
0
 10
-52.7253
 20
-238.093
 11
-53.2249
 21
-238.099
  0
LINE
  8
0
 10
-53.2249
 20
-238.099
 11
-53.7242
 21
-238.081
  0
LINE
  8
0
 10
-17.3491
 20
-230.688
 11
-17.8389
 21
-230.597
  0
LINE
  8
0
 10
-17.8389
 20
-230.597
 11
-18.3035
 21
-230.417
  0
LINE
  8
0
 10
-18.3035
 20
-230.417
 11
-18.7271
 21
-230.155
  0
LINE
  8
0
 10
-18.7271
 20
-230.155
 11
-19.0953
 21
-229.819
  0
LINE
  8
0
 10
-19.0953
 20
-229.819
 11
-19.3956
 21
-229.421
  0
LINE
  8
0
 10
-19.3956
 20
-229.421
 11
-19.6177
 21
-228.975
  0
LINE
  8
0
 10
-19.6177
 20
-228.975
 11
-19.754
 21
-228.496
  0
LINE
  8
0
 10
-19.754
 20
-228.496
 11
-19.8
 21
-228
  0
LINE
  8
0
 10
-19.8
 20
-228
 11
-19.754
 21
-227.504
  0
LINE
  8
0
 10
-19.754
 20
-227.504
 11
-19.6177
 21
-227.025
  0
LINE
  8
0
 10
-19.6177
 20
-227.025
 11
-19.3956
 21
-226.579
  0
LINE
  8
0
 10
-19.3956
 20
-226.579
 11
-19.0953
 21
-226.181
  0
LINE
  8
0
 10
-19.0953
 20
-226.181
 11
-18.7271
 21
-225.845
  0
LINE
  8
0
 10
-18.7271
 20
-225.845
 11
-18.3035
 21
-225.583
  0
LINE
  8
0
 10
-18.3035
 20
-225.583
 11
-17.8389
 21
-225.403
  0
LINE
  8
0
 10
-17.8389
 20
-225.403
 11
-17.3491
 21
-225.312
  0
LINE
  8
0
 10
-17.3491
 20
-225.312
 11
-16.8509
 21
-225.312
  0
LINE
  8
0
 10
-16.8509
 20
-225.312
 11
-16.3611
 21
-225.403
  0
LINE
  8
0
 10
-16.3611
 20
-225.403
 11
-15.8965
 21
-225.583
  0
LINE
  8
0
 10
-15.8965
 20
-225.583
 11
-15.4729
 21
-225.845
  0
LINE
  8
0
 10
-15.4729
 20
-225.845
 11
-15.1047
 21
-226.181
  0
LINE
  8
0
 10
-15.1047
 20
-226.181
 11
-14.8044
 21
-226.579
  0
LINE
  8
0
 10
-14.8044
 20
-226.579
 11
-14.5823
 21
-227.025
  0
LINE
  8
0
 10
-14.5823
 20
-227.025
 11
-14.446
 21
-227.504
  0
LINE
  8
0
 10
-14.446
 20
-227.504
 11
-14.4
 21
-228
  0
LINE
  8
0
 10
-14.4
 20
-228
 11
-14.446
 21
-228.496
  0
LINE
  8
0
 10
-14.446
 20
-228.496
 11
-14.5823
 21
-228.975
  0
LINE
  8
0
 10
-14.5823
 20
-228.975
 11
-14.8044
 21
-229.421
  0
LINE
  8
0
 10
-14.8044
 20
-229.421
 11
-15.1047
 21
-229.819
  0
LINE
  8
0
 10
-15.1047
 20
-229.819
 11
-15.4729
 21
-230.155
  0
LINE
  8
0
 10
-15.4729
 20
-230.155
 11
-15.8965
 21
-230.417
  0
LINE
  8
0
 10
-15.8965
 20
-230.417
 11
-16.3611
 21
-230.597
  0
LINE
  8
0
 10
-16.3611
 20
-230.597
 11
-16.8509
 21
-230.688
  0
LINE
  8
0
 10
-16.8509
 20
-230.688
 11
-17.3491
 21
-230.688
  0
ENDSEC
  0
SECTION
  2
OBJECTS
  0
DICTIONARY
  0
ENDSEC
  0
EOF
