  0
SECTION
  2
BLOCKS
  0
ENDSEC
  0
SECTION
  2
ENTITIES
  0
LINE
  8
0
 10
50.5986
 20
-269.994
 11
51.0969
 21
-269.975
  0
LINE
  8
0
 10
51.0969
 20
-269.975
 11
51.5946
 21
-269.944
  0
LINE
  8
0
 10
51.5946
 20
-269.944
 11
52.0914
 21
-269.901
  0
LINE
  8
0
 10
52.0914
 20
-269.901
 11
52.5869
 21
-269.845
  0
LINE
  8
0
 10
52.5869
 20
-269.845
 11
53.0808
 21
-269.777
  0
LINE
  8
0
 10
53.0808
 20
-269.777
 11
53.573
 21
-269.696
  0
LINE
  8
0
 10
53.573
 20
-269.696
 11
54.0629
 21
-269.603
  0
LINE
  8
0
 10
54.0629
 20
-269.603
 11
54.5504
 21
-269.499
  0
LINE
  8
0
 10
54.5504
 20
-269.499
 11
55.0351
 21
-269.382
  0
LINE
  8
0
 10
55.0351
 20
-269.382
 11
55.5168
 21
-269.252
  0
LINE
  8
0
 10
55.5168
 20
-269.252
 11
55.9951
 21
-269.111
  0
LINE
  8
0
 10
55.9951
 20
-269.111
 11
56.4697
 21
-268.959
  0
LINE
  8
0
 10
56.4697
 20
-268.959
 11
56.9404
 21
-268.794
  0
LINE
  8
0
 10
56.9404
 20
-268.794
 11
57.4068
 21
-268.617
  0
LINE
  8
0
 10
57.4068
 20
-268.617
 11
57.8687
 21
-268.43
  0
LINE
  8
0
 10
57.8687
 20
-268.43
 11
58.3257
 21
-268.23
  0
LINE
  8
0
 10
58.3257
 20
-268.23
 11
58.7777
 21
-268.019
  0
LINE
  8
0
 10
58.7777
 20
-268.019
 11
59.2242
 21
-267.797
  0
LINE
  8
0
 10
59.2242
 20
-267.797
 11
59.6651
 21
-267.564
  0
LINE
  8
0
 10
59.6651
 20
-267.564
 11
60.1
 21
-267.32
  0
LINE
  8
0
 10
60.1
 20
-267.32
 11
60.5287
 21
-267.066
  0
LINE
  8
0
 10
60.5287
 20
-267.066
 11
60.9509
 21
-266.801
  0
LINE
  8
0
 10
60.9509
 20
-266.801
 11
61.3664
 21
-266.525
  0
LINE
  8
0
 10
61.3664
 20
-266.525
 11
61.7749
 21
-266.239
  0
LINE
  8
0
 10
61.7749
 20
-266.239
 11
62.1761
 21
-265.943
  0
LINE
  8
0
 10
62.1761
 20
-265.943
 11
62.5698
 21
-265.637
  0
LINE
  8
0
 10
62.5698
 20
-265.637
 11
62.9557
 21
-265.321
  0
LINE
  8
0
 10
62.9557
 20
-265.321
 11
63.3337
 21
-264.996
  0
LINE
  8
0
 10
63.3337
 20
-264.996
 11
63.7034
 21
-264.661
  0
LINE
  8
0
 10
63.7034
 20
-264.661
 11
64.0647
 21
-264.317
  0
LINE
  8
0
 10
64.0647
 20
-264.317
 11
64.4173
 21
-263.965
  0
LINE
  8
0
 10
64.4173
 20
-263.965
 11
64.761
 21
-263.603
  0
LINE
  8
0
 10
64.761
 20
-263.603
 11
65.0956
 21
-263.234
  0
LINE
  8
0
 10
65.0956
 20
-263.234
 11
65.4209
 21
-262.856
  0
LINE
  8
0
 10
65.4209
 20
-262.856
 11
65.7366
 21
-262.47
  0
LINE
  8
0
 10
65.7366
 20
-262.47
 11
66.0426
 21
-262.076
  0
LINE
  8
0
 10
66.0426
 20
-262.076
 11
66.3388
 21
-261.675
  0
LINE
  8
0
 10
66.3388
 20
-261.675
 11
82.193
 21
-239.701
  0
LINE
  8
0
 10
82.193
 20
-239.701
 11
82.4812
 21
-239.293
  0
LINE
  8
0
 10
82.4812
 20
-239.293
 11
82.7615
 21
-238.88
  0
LINE
  8
0
 10
82.7615
 20
-238.88
 11
83.0338
 21
-238.461
  0
LINE
  8
0
 10
83.0338
 20
-238.461
 11
83.298
 21
-238.037
  0
LINE
  8
0
 10
83.298
 20
-238.037
 11
83.554
 21
-237.608
  0
LINE
  8
0
 10
83.554
 20
-237.608
 11
83.8017
 21
-237.174
  0
LINE
  8
0
 10
83.8017
 20
-237.174
 11
84.041
 21
-236.736
  0
LINE
  8
0
 10
84.041
 20
-236.736
 11
84.2718
 21
-236.293
  0
LINE
  8
0
 10
84.2718
 20
-236.293
 11
84.4941
 21
-235.845
  0
LINE
  8
0
 10
84.4941
 20
-235.845
 11
84.7078
 21
-235.394
  0
LINE
  8
0
 10
84.7078
 20
-235.394
 11
84.9127
 21
-234.938
  0
LINE
  8
0
 10
84.9127
 20
-234.938
 11
85.1089
 21
-234.479
  0
LINE
  8
0
 10
85.1089
 20
-234.479
 11
85.2962
 21
-234.015
  0
LINE
  8
0
 10
85.2962
 20
-234.015
 11
85.4745
 21
-233.549
  0
LINE
  8
0
 10
85.4745
 20
-233.549
 11
85.6439
 21
-233.079
  0
LINE
  8
0
 10
85.6439
 20
-233.079
 11
85.8042
 21
-232.606
  0
LINE
  8
0
 10
85.8042
 20
-232.606
 11
85.9554
 21
-232.13
  0
LINE
  8
0
 10
85.9554
 20
-232.13
 11
86.0974
 21
-231.651
  0
LINE
  8
0
 10
86.0974
 20
-231.651
 11
86.2302
 21
-231.169
  0
LINE
  8
0
 10
86.2302
 20
-231.169
 11
86.3537
 21
-230.685
  0
LINE
  8
0
 10
86.3537
 20
-230.685
 11
103.887
 21
-157.659
  0
LINE
  8
0
 10
103.887
 20
-157.659
 11
104.001
 21
-157.173
  0
LINE
  8
0
 10
104.001
 20
-157.173
 11
104.106
 21
-156.684
  0
LINE
  8
0
 10
104.106
 20
-156.684
 11
104.201
 21
-156.194
  0
LINE
  8
0
 10
104.201
 20
-156.194
 11
104.287
 21
-155.702
  0
LINE
  8
0
 10
104.287
 20
-155.702
 11
104.364
 21
-155.208
  0
LINE
  8
0
 10
104.364
 20
-155.208
 11
104.431
 21
-154.713
  0
LINE
  8
0
 10
104.431
 20
-154.713
 11
104.488
 21
-154.217
  0
LINE
  8
0
 10
104.488
 20
-154.217
 11
104.536
 21
-153.72
  0
LINE
  8
0
 10
104.536
 20
-153.72
 11
104.575
 21
-153.222
  0
LINE
  8
0
 10
104.575
 20
-153.222
 11
104.603
 21
-152.723
  0
LINE
  8
0
 10
104.603
 20
-152.723
 11
104.623
 21
-152.224
  0
LINE
  8
0
 10
104.623
 20
-152.224
 11
104.632
 21
-151.724
  0
LINE
  8
0
 10
104.632
 20
-151.724
 11
104.632
 21
-151.225
  0
LINE
  8
0
 10
104.632
 20
-151.225
 11
104.623
 21
-150.725
  0
LINE
  8
0
 10
104.623
 20
-150.725
 11
104.603
 21
-150.226
  0
LINE
  8
0
 10
104.603
 20
-150.226
 11
104.575
 21
-149.727
  0
LINE
  8
0
 10
104.575
 20
-149.727
 11
104.536
 21
-149.229
  0
LINE
  8
0
 10
104.536
 20
-149.229
 11
104.488
 21
-148.732
  0
LINE
  8
0
 10
104.488
 20
-148.732
 11
104.431
 21
-148.236
  0
LINE
  8
0
 10
104.431
 20
-148.236
 11
104.364
 21
-147.74
  0
LINE
  8
0
 10
104.364
 20
-147.74
 11
104.287
 21
-147.247
  0
LINE
  8
0
 10
104.287
 20
-147.247
 11
104.201
 21
-146.755
  0
LINE
  8
0
 10
104.201
 20
-146.755
 11
104.106
 21
-146.264
  0
LINE
  8
0
 10
104.106
 20
-146.264
 11
104.001
 21
-145.776
  0
LINE
  8
0
 10
104.001
 20
-145.776
 11
103.887
 21
-145.289
  0
LINE
  8
0
 10
103.887
 20
-145.289
 11
103.764
 21
-144.805
  0
LINE
  8
0
 10
103.764
 20
-144.805
 11
103.631
 21
-144.324
  0
LINE
  8
0
 10
103.631
 20
-144.324
 11
103.489
 21
-143.845
  0
LINE
  8
0
 10
103.489
 20
-143.845
 11
103.338
 21
-143.369
  0
LINE
  8
0
 10
103.338
 20
-143.369
 11
103.177
 21
-142.896
  0
LINE
  8
0
 10
103.177
 20
-142.896
 11
103.008
 21
-142.426
  0
LINE
  8
0
 10
103.008
 20
-142.426
 11
102.83
 21
-141.959
  0
LINE
  8
0
 10
102.83
 20
-141.959
 11
102.642
 21
-141.496
  0
LINE
  8
0
 10
102.642
 20
-141.496
 11
102.446
 21
-141.036
  0
LINE
  8
0
 10
102.446
 20
-141.036
 11
102.241
 21
-140.581
  0
LINE
  8
0
 10
102.241
 20
-140.581
 11
102.028
 21
-140.129
  0
LINE
  8
0
 10
102.028
 20
-140.129
 11
101.805
 21
-139.682
  0
LINE
  8
0
 10
101.805
 20
-139.682
 11
101.574
 21
-139.239
  0
LINE
  8
0
 10
101.574
 20
-139.239
 11
101.335
 21
-138.8
  0
LINE
  8
0
 10
101.335
 20
-138.8
 11
101.087
 21
-138.366
  0
LINE
  8
0
 10
101.087
 20
-138.366
 11
100.831
 21
-137.937
  0
LINE
  8
0
 10
100.831
 20
-137.937
 11
100.567
 21
-137.513
  0
LINE
  8
0
 10
100.567
 20
-137.513
 11
100.295
 21
-137.095
  0
LINE
  8
0
 10
100.295
 20
-137.095
 11
100.015
 21
-136.681
  0
LINE
  8
0
 10
100.015
 20
-136.681
 11
99.7264
 21
-136.273
  0
LINE
  8
0
 10
99.7264
 20
-136.273
 11
99.4304
 21
-135.87
  0
LINE
  8
0
 10
99.4304
 20
-135.87
 11
99.1268
 21
-135.474
  0
LINE
  8
0
 10
99.1268
 20
-135.474
 11
98.8156
 21
-135.083
  0
LINE
  8
0
 10
98.8156
 20
-135.083
 11
98.4969
 21
-134.698
  0
LINE
  8
0
 10
98.4969
 20
-134.698
 11
98.1709
 21
-134.32
  0
LINE
  8
0
 10
98.1709
 20
-134.32
 11
97.8377
 21
-133.947
  0
LINE
  8
0
 10
97.8377
 20
-133.947
 11
97.4974
 21
-133.582
  0
LINE
  8
0
 10
97.4974
 20
-133.582
 11
97.1501
 21
-133.223
  0
LINE
  8
0
 10
97.1501
 20
-133.223
 11
96.7961
 21
-132.87
  0
LINE
  8
0
 10
96.7961
 20
-132.87
 11
96.4353
 21
-132.525
  0
LINE
  8
0
 10
96.4353
 20
-132.525
 11
96.0679
 21
-132.186
  0
LINE
  8
0
 10
96.0679
 20
-132.186
 11
95.6941
 21
-131.855
  0
LINE
  8
0
 10
95.6941
 20
-131.855
 11
95.3139
 21
-131.53
  0
LINE
  8
0
 10
95.3139
 20
-131.53
 11
94.9277
 21
-131.214
  0
LINE
  8
0
 10
94.9277
 20
-131.214
 11
94.5354
 21
-130.904
  0
LINE
  8
0
 10
94.5354
 20
-130.904
 11
94.1372
 21
-130.603
  0
LINE
  8
0
 10
94.1372
 20
-130.603
 11
93.7334
 21
-130.309
  0
LINE
  8
0
 10
93.7334
 20
-130.309
 11
93.3239
 21
-130.022
  0
LINE
  8
0
 10
93.3239
 20
-130.022
 11
92.909
 21
-129.744
  0
LINE
  8
0
 10
92.909
 20
-129.744
 11
92.4889
 21
-129.474
  0
LINE
  8
0
 10
92.4889
 20
-129.474
 11
92.0636
 21
-129.212
  0
LINE
  8
0
 10
92.0636
 20
-129.212
 11
91.6334
 21
-128.958
  0
LINE
  8
0
 10
91.6334
 20
-128.958
 11
91.1984
 21
-128.712
  0
LINE
  8
0
 10
91.1984
 20
-128.712
 11
90.7587
 21
-128.475
  0
LINE
  8
0
 10
90.7587
 20
-128.475
 11
90.3146
 21
-128.246
  0
LINE
  8
0
 10
90.3146
 20
-128.246
 11
89.8661
 21
-128.026
  0
LINE
  8
0
 10
89.8661
 20
-128.026
 11
89.4135
 21
-127.815
  0
LINE
  8
0
 10
89.4135
 20
-127.815
 11
88.9569
 21
-127.612
  0
LINE
  8
0
 10
88.9569
 20
-127.612
 11
88.4966
 21
-127.418
  0
LINE
  8
0
 10
88.4966
 20
-127.418
 11
88.0325
 21
-127.233
  0
LINE
  8
0
 10
88.0325
 20
-127.233
 11
87.565
 21
-127.057
  0
LINE
  8
0
 10
87.565
 20
-127.057
 11
87.0942
 21
-126.89
  0
LINE
  8
0
 10
87.0942
 20
-126.89
 11
86.6203
 21
-126.732
  0
LINE
  8
0
 10
86.6203
 20
-126.732
 11
86.1434
 21
-126.583
  0
LINE
  8
0
 10
86.1434
 20
-126.583
 11
85.6638
 21
-126.443
  0
LINE
  8
0
 10
85.6638
 20
-126.443
 11
50.5168
 21
-116.585
  0
LINE
  8
0
 10
50.5168
 20
-116.585
 11
50.0351
 21
-116.456
  0
LINE
  8
0
 10
50.0351
 20
-116.456
 11
49.5504
 21
-116.339
  0
LINE
  8
0
 10
49.5504
 20
-116.339
 11
49.0629
 21
-116.234
  0
LINE
  8
0
 10
49.0629
 20
-116.234
 11
48.573
 21
-116.141
  0
LINE
  8
0
 10
48.573
 20
-116.141
 11
48.0808
 21
-116.061
  0
LINE
  8
0
 10
48.0808
 20
-116.061
 11
47.5869
 21
-115.993
  0
LINE
  8
0
 10
47.5869
 20
-115.993
 11
47.0914
 21
-115.937
  0
LINE
  8
0
 10
47.0914
 20
-115.937
 11
46.5946
 21
-115.893
  0
LINE
  8
0
 10
46.5946
 20
-115.893
 11
46.0969
 21
-115.862
  0
LINE
  8
0
 10
46.0969
 20
-115.862
 11
45.5986
 21
-115.844
  0
LINE
  8
0
 10
45.5986
 20
-115.844
 11
45.1
 21
-115.837
  0
LINE
  8
0
 10
45.1
 20
-115.837
 11
44.6014
 21
-115.844
  0
LINE
  8
0
 10
44.6014
 20
-115.844
 11
44.1031
 21
-115.862
  0
LINE
  8
0
 10
44.1031
 20
-115.862
 11
43.6054
 21
-115.893
  0
LINE
  8
0
 10
43.6054
 20
-115.893
 11
43.1086
 21
-115.937
  0
LINE
  8
0
 10
43.1086
 20
-115.937
 11
42.6131
 21
-115.993
  0
LINE
  8
0
 10
42.6131
 20
-115.993
 11
42.1192
 21
-116.061
  0
LINE
  8
0
 10
42.1192
 20
-116.061
 11
41.627
 21
-116.141
  0
LINE
  8
0
 10
41.627
 20
-116.141
 11
41.1371
 21
-116.234
  0
LINE
  8
0
 10
41.1371
 20
-116.234
 11
40.6496
 21
-116.339
  0
LINE
  8
0
 10
40.6496
 20
-116.339
 11
40.1648
 21
-116.456
  0
LINE
  8
0
 10
40.1648
 20
-116.456
 11
39.6832
 21
-116.585
  0
LINE
  8
0
 10
39.6832
 20
-116.585
 11
39.2049
 21
-116.726
  0
LINE
  8
0
 10
39.2049
 20
-116.726
 11
38.7303
 21
-116.879
  0
LINE
  8
0
 10
38.7303
 20
-116.879
 11
38.2596
 21
-117.044
  0
LINE
  8
0
 10
38.2596
 20
-117.044
 11
37.7932
 21
-117.22
  0
LINE
  8
0
 10
37.7932
 20
-117.22
 11
37.3313
 21
-117.408
  0
LINE
  8
0
 10
37.3313
 20
-117.408
 11
36.8743
 21
-117.607
  0
LINE
  8
0
 10
36.8743
 20
-117.607
 11
36.4223
 21
-117.818
  0
LINE
  8
0
 10
36.4223
 20
-117.818
 11
35.9758
 21
-118.04
  0
LINE
  8
0
 10
35.9758
 20
-118.04
 11
35.5349
 21
-118.273
  0
LINE
  8
0
 10
35.5349
 20
-118.273
 11
35.1
 21
-118.517
  0
LINE
  8
0
 10
35.1
 20
-118.517
 11
10.1
 21
-132.679
  0
LINE
  8
0
 10
10.1
 20
-132.679
 11
9.6713
 21
-132.934
  0
LINE
  8
0
 10
9.6713
 20
-132.934
 11
9.24907
 21
-133.199
  0
LINE
  8
0
 10
9.24907
 20
-133.199
 11
8.83359
 21
-133.475
  0
LINE
  8
0
 10
8.83359
 20
-133.475
 11
8.42513
 21
-133.761
  0
LINE
  8
0
 10
8.42513
 20
-133.761
 11
8.02391
 21
-134.057
  0
LINE
  8
0
 10
8.02391
 20
-134.057
 11
7.6302
 21
-134.363
  0
LINE
  8
0
 10
7.6302
 20
-134.363
 11
7.24425
 21
-134.679
  0
LINE
  8
0
 10
7.24425
 20
-134.679
 11
6.86627
 21
-135.004
  0
LINE
  8
0
 10
6.86627
 20
-135.004
 11
6.49654
 21
-135.339
  0
LINE
  8
0
 10
6.49654
 20
-135.339
 11
6.13525
 21
-135.683
  0
LINE
  8
0
 10
6.13525
 20
-135.683
 11
5.78265
 21
-136.035
  0
LINE
  8
0
 10
5.78265
 20
-136.035
 11
5.43895
 21
-136.397
  0
LINE
  8
0
 10
5.43895
 20
-136.397
 11
5.10437
 21
-136.766
  0
LINE
  8
0
 10
5.10437
 20
-136.766
 11
4.7791
 21
-137.144
  0
LINE
  8
0
 10
4.7791
 20
-137.144
 11
4.46336
 21
-137.53
  0
LINE
  8
0
 10
4.46336
 20
-137.53
 11
4.15735
 21
-137.924
  0
LINE
  8
0
 10
4.15735
 20
-137.924
 11
3.86124
 21
-138.325
  0
LINE
  8
0
 10
3.86124
 20
-138.325
 11
3.57521
 21
-138.734
  0
LINE
  8
0
 10
3.57521
 20
-138.734
 11
3.29947
 21
-139.149
  0
LINE
  8
0
 10
3.29947
 20
-139.149
 11
3.03418
 21
-139.571
  0
LINE
  8
0
 10
3.03418
 20
-139.571
 11
2.77948
 21
-140
  0
LINE
  8
0
 10
2.77948
 20
-140
 11
2.53557
 21
-140.435
  0
LINE
  8
0
 10
2.53557
 20
-140.435
 11
2.30255
 21
-140.876
  0
LINE
  8
0
 10
2.30255
 20
-140.876
 11
2.08061
 21
-141.322
  0
LINE
  8
0
 10
2.08061
 20
-141.322
 11
1.86987
 21
-141.774
  0
LINE
  8
0
 10
1.86987
 20
-141.774
 11
1.67047
 21
-142.231
  0
LINE
  8
0
 10
1.67047
 20
-142.231
 11
1.48251
 21
-142.693
  0
LINE
  8
0
 10
1.48251
 20
-142.693
 11
1.30614
 21
-143.16
  0
LINE
  8
0
 10
1.30614
 20
-143.16
 11
1.14145
 21
-143.63
  0
LINE
  8
0
 10
1.14145
 20
-143.63
 11
0.988541
 21
-144.105
  0
LINE
  8
0
 10
0.988541
 20
-144.105
 11
0.847504
 21
-144.583
  0
LINE
  8
0
 10
0.847504
 20
-144.583
 11
0.718445
 21
-145.065
  0
LINE
  8
0
 10
0.718445
 20
-145.065
 11
0.60144
 21
-145.55
  0
LINE
  8
0
 10
0.60144
 20
-145.55
 11
0.496536
 21
-146.037
  0
LINE
  8
0
 10
0.496536
 20
-146.037
 11
0.403839
 21
-146.527
  0
LINE
  8
0
 10
0.403839
 20
-146.527
 11
0.32338
 21
-147.019
  0
LINE
  8
0
 10
0.32338
 20
-147.019
 11
0.255203
 21
-147.513
  0
LINE
  8
0
 10
0.255203
 20
-147.513
 11
0.199371
 21
-148.009
  0
LINE
  8
0
 10
0.199371
 20
-148.009
 11
0.155914
 21
-148.505
  0
LINE
  8
0
 10
0.155914
 20
-148.505
 11
0.124847
 21
-149.003
  0
LINE
  8
0
 10
0.124847
 20
-149.003
 11
0.106216
 21
-149.501
  0
LINE
  8
0
 10
0.106216
 20
-149.501
 11
0.0999908
 21
-150
  0
LINE
  8
0
 10
0.0999908
 20
-150
 11
0.0999908
 21
-230
  0
LINE
  8
0
 10
0.0999908
 20
-230
 11
0.106216
 21
-230.499
  0
LINE
  8
0
 10
0.106216
 20
-230.499
 11
0.124847
 21
-230.997
  0
LINE
  8
0
 10
0.124847
 20
-230.997
 11
0.155914
 21
-231.495
  0
LINE
  8
0
 10
0.155914
 20
-231.495
 11
0.199371
 21
-231.991
  0
LINE
  8
0
 10
0.199371
 20
-231.991
 11
0.255203
 21
-232.487
  0
LINE
  8
0
 10
0.255203
 20
-232.487
 11
0.32338
 21
-232.981
  0
LINE
  8
0
 10
0.32338
 20
-232.981
 11
0.403839
 21
-233.473
  0
LINE
  8
0
 10
0.403839
 20
-233.473
 11
0.496536
 21
-233.963
  0
LINE
  8
0
 10
0.496536
 20
-233.963
 11
0.60144
 21
-234.45
  0
LINE
  8
0
 10
0.60144
 20
-234.45
 11
0.718445
 21
-234.935
  0
LINE
  8
0
 10
0.718445
 20
-234.935
 11
0.847504
 21
-235.417
  0
LINE
  8
0
 10
0.847504
 20
-235.417
 11
0.988541
 21
-235.895
  0
LINE
  8
0
 10
0.988541
 20
-235.895
 11
1.14145
 21
-236.37
  0
LINE
  8
0
 10
1.14145
 20
-236.37
 11
1.30614
 21
-236.84
  0
LINE
  8
0
 10
1.30614
 20
-236.84
 11
1.48251
 21
-237.307
  0
LINE
  8
0
 10
1.48251
 20
-237.307
 11
1.67047
 21
-237.769
  0
LINE
  8
0
 10
1.67047
 20
-237.769
 11
1.86987
 21
-238.226
  0
LINE
  8
0
 10
1.86987
 20
-238.226
 11
2.08061
 21
-238.678
  0
LINE
  8
0
 10
2.08061
 20
-238.678
 11
2.30255
 21
-239.124
  0
LINE
  8
0
 10
2.30255
 20
-239.124
 11
2.53557
 21
-239.565
  0
LINE
  8
0
 10
2.53557
 20
-239.565
 11
2.77948
 21
-240
  0
LINE
  8
0
 10
2.77948
 20
-240
 11
3.03418
 21
-240.429
  0
LINE
  8
0
 10
3.03418
 20
-240.429
 11
3.29947
 21
-240.851
  0
LINE
  8
0
 10
3.29947
 20
-240.851
 11
3.57521
 21
-241.266
  0
LINE
  8
0
 10
3.57521
 20
-241.266
 11
3.86124
 21
-241.675
  0
LINE
  8
0
 10
3.86124
 20
-241.675
 11
4.15735
 21
-242.076
  0
LINE
  8
0
 10
4.15735
 20
-242.076
 11
4.46336
 21
-242.47
  0
LINE
  8
0
 10
4.46336
 20
-242.47
 11
4.7791
 21
-242.856
  0
LINE
  8
0
 10
4.7791
 20
-242.856
 11
5.10437
 21
-243.234
  0
LINE
  8
0
 10
5.10437
 20
-243.234
 11
5.43895
 21
-243.603
  0
LINE
  8
0
 10
5.43895
 20
-243.603
 11
5.78265
 21
-243.965
  0
LINE
  8
0
 10
5.78265
 20
-243.965
 11
6.13525
 21
-244.317
  0
LINE
  8
0
 10
6.13525
 20
-244.317
 11
6.49654
 21
-244.661
  0
LINE
  8
0
 10
6.49654
 20
-244.661
 11
6.86627
 21
-244.996
  0
LINE
  8
0
 10
6.86627
 20
-244.996
 11
7.24425
 21
-245.321
  0
LINE
  8
0
 10
7.24425
 20
-245.321
 11
7.6302
 21
-245.637
  0
LINE
  8
0
 10
7.6302
 20
-245.637
 11
8.02391
 21
-245.943
  0
LINE
  8
0
 10
8.02391
 20
-245.943
 11
8.42513
 21
-246.239
  0
LINE
  8
0
 10
8.42513
 20
-246.239
 11
8.83359
 21
-246.525
  0
LINE
  8
0
 10
8.83359
 20
-246.525
 11
14.0464
 21
-250
  0
LINE
  8
0
 10
14.0464
 20
-250
 11
40.1
 21
-250
  0
LINE
  8
0
 10
40.1
 20
-250
 11
40.1
 21
-254
  0
LINE
  8
0
 10
40.1
 20
-254
 11
48.1
 21
-254
  0
LINE
  8
0
 10
48.1
 20
-254
 11
48.1
 21
-266
  0
LINE
  8
0
 10
48.1
 20
-266
 11
40.1
 21
-266
  0
LINE
  8
0
 10
40.1
 20
-266
 11
40.1
 21
-267.32
  0
LINE
  8
0
 10
40.1
 20
-267.32
 11
40.5349
 21
-267.564
  0
LINE
  8
0
 10
40.5349
 20
-267.564
 11
40.9758
 21
-267.797
  0
LINE
  8
0
 10
40.9758
 20
-267.797
 11
41.4223
 21
-268.019
  0
LINE
  8
0
 10
41.4223
 20
-268.019
 11
41.8743
 21
-268.23
  0
LINE
  8
0
 10
41.8743
 20
-268.23
 11
42.3313
 21
-268.43
  0
LINE
  8
0
 10
42.3313
 20
-268.43
 11
42.7932
 21
-268.617
  0
LINE
  8
0
 10
42.7932
 20
-268.617
 11
43.2596
 21
-268.794
  0
LINE
  8
0
 10
43.2596
 20
-268.794
 11
43.7303
 21
-268.959
  0
LINE
  8
0
 10
43.7303
 20
-268.959
 11
44.2049
 21
-269.111
  0
LINE
  8
0
 10
44.2049
 20
-269.111
 11
44.6832
 21
-269.252
  0
LINE
  8
0
 10
44.6832
 20
-269.252
 11
45.1648
 21
-269.382
  0
LINE
  8
0
 10
45.1648
 20
-269.382
 11
45.6496
 21
-269.499
  0
LINE
  8
0
 10
45.6496
 20
-269.499
 11
46.1371
 21
-269.603
  0
LINE
  8
0
 10
46.1371
 20
-269.603
 11
46.627
 21
-269.696
  0
LINE
  8
0
 10
46.627
 20
-269.696
 11
47.1192
 21
-269.777
  0
LINE
  8
0
 10
47.1192
 20
-269.777
 11
47.6131
 21
-269.845
  0
LINE
  8
0
 10
47.6131
 20
-269.845
 11
48.1086
 21
-269.901
  0
LINE
  8
0
 10
48.1086
 20
-269.901
 11
48.6054
 21
-269.944
  0
LINE
  8
0
 10
48.6054
 20
-269.944
 11
49.1031
 21
-269.975
  0
LINE
  8
0
 10
49.1031
 20
-269.975
 11
49.6014
 21
-269.994
  0
LINE
  8
0
 10
49.6014
 20
-269.994
 11
50.1
 21
-270
  0
LINE
  8
0
 10
50.1
 20
-270
 11
50.5986
 21
-269.994
  0
LINE
  8
0
 10
44.8508
 20
-140.831
 11
44.3548
 21
-140.782
  0
LINE
  8
0
 10
44.3548
 20
-140.782
 11
43.8662
 21
-140.683
  0
LINE
  8
0
 10
43.8662
 20
-140.683
 11
43.3899
 21
-140.536
  0
LINE
  8
0
 10
43.3899
 20
-140.536
 11
42.9306
 21
-140.342
  0
LINE
  8
0
 10
42.9306
 20
-140.342
 11
42.4928
 21
-140.104
  0
LINE
  8
0
 10
42.4928
 20
-140.104
 11
42.081
 21
-139.823
  0
LINE
  8
0
 10
42.081
 20
-139.823
 11
41.6991
 21
-139.503
  0
LINE
  8
0
 10
41.6991
 20
-139.503
 11
41.3511
 21
-139.146
  0
LINE
  8
0
 10
41.3511
 20
-139.146
 11
41.0403
 21
-138.756
  0
LINE
  8
0
 10
41.0403
 20
-138.756
 11
40.7699
 21
-138.337
  0
LINE
  8
0
 10
40.7699
 20
-138.337
 11
40.5425
 21
-137.894
  0
LINE
  8
0
 10
40.5425
 20
-137.894
 11
40.3604
 21
-137.43
  0
LINE
  8
0
 10
40.3604
 20
-137.43
 11
40.2254
 21
-136.95
  0
LINE
  8
0
 10
40.2254
 20
-136.95
 11
40.1388
 21
-136.459
  0
LINE
  8
0
 10
40.1388
 20
-136.459
 11
40.1015
 21
-135.962
  0
LINE
  8
0
 10
40.1015
 20
-135.962
 11
40.114
 21
-135.464
  0
LINE
  8
0
 10
40.114
 20
-135.464
 11
40.1759
 21
-134.969
  0
LINE
  8
0
 10
40.1759
 20
-134.969
 11
40.2869
 21
-134.483
  0
LINE
  8
0
 10
40.2869
 20
-134.483
 11
40.4456
 21
-134.011
  0
LINE
  8
0
 10
40.4456
 20
-134.011
 11
40.6506
 21
-133.556
  0
LINE
  8
0
 10
40.6506
 20
-133.556
 11
40.8999
 21
-133.125
  0
LINE
  8
0
 10
40.8999
 20
-133.125
 11
41.1908
 21
-132.72
  0
LINE
  8
0
 10
41.1908
 20
-132.72
 11
41.5207
 21
-132.346
  0
LINE
  8
0
 10
41.5207
 20
-132.346
 11
41.8861
 21
-132.007
  0
LINE
  8
0
 10
41.8861
 20
-132.007
 11
42.2834
 21
-131.706
  0
LINE
  8
0
 10
42.2834
 20
-131.706
 11
42.7087
 21
-131.446
  0
LINE
  8
0
 10
42.7087
 20
-131.446
 11
43.1578
 21
-131.23
  0
LINE
  8
0
 10
43.1578
 20
-131.23
 11
43.6262
 21
-131.06
  0
LINE
  8
0
 10
43.6262
 20
-131.06
 11
44.1093
 21
-130.937
  0
LINE
  8
0
 10
44.1093
 20
-130.937
 11
44.6022
 21
-130.862
  0
LINE
  8
0
 10
44.6022
 20
-130.862
 11
45.1
 21
-130.837
  0
LINE
  8
0
 10
45.1
 20
-130.837
 11
45.5978
 21
-130.862
  0
LINE
  8
0
 10
45.5978
 20
-130.862
 11
46.0907
 21
-130.937
  0
LINE
  8
0
 10
46.0907
 20
-130.937
 11
46.5738
 21
-131.06
  0
LINE
  8
0
 10
46.5738
 20
-131.06
 11
47.0422
 21
-131.23
  0
LINE
  8
0
 10
47.0422
 20
-131.23
 11
47.4913
 21
-131.446
  0
LINE
  8
0
 10
47.4913
 20
-131.446
 11
47.9166
 21
-131.706
  0
LINE
  8
0
 10
47.9166
 20
-131.706
 11
48.3139
 21
-132.007
  0
LINE
  8
0
 10
48.3139
 20
-132.007
 11
48.6793
 21
-132.346
  0
LINE
  8
0
 10
48.6793
 20
-132.346
 11
49.0092
 21
-132.72
  0
LINE
  8
0
 10
49.0092
 20
-132.72
 11
49.3001
 21
-133.125
  0
LINE
  8
0
 10
49.3001
 20
-133.125
 11
49.5493
 21
-133.556
  0
LINE
  8
0
 10
49.5493
 20
-133.556
 11
49.7544
 21
-134.011
  0
LINE
  8
0
 10
49.7544
 20
-134.011
 11
49.9131
 21
-134.483
  0
LINE
  8
0
 10
49.9131
 20
-134.483
 11
50.024
 21
-134.969
  0
LINE
  8
0
 10
50.024
 20
-134.969
 11
50.086
 21
-135.464
  0
LINE
  8
0
 10
50.086
 20
-135.464
 11
50.0984
 21
-135.962
  0
LINE
  8
0
 10
50.0984
 20
-135.962
 11
50.0612
 21
-136.459
  0
LINE
  8
0
 10
50.0612
 20
-136.459
 11
49.9746
 21
-136.95
  0
LINE
  8
0
 10
49.9746
 20
-136.95
 11
49.8396
 21
-137.43
  0
LINE
  8
0
 10
49.8396
 20
-137.43
 11
49.6575
 21
-137.894
  0
LINE
  8
0
 10
49.6575
 20
-137.894
 11
49.4301
 21
-138.337
  0
LINE
  8
0
 10
49.4301
 20
-138.337
 11
49.1597
 21
-138.756
  0
LINE
  8
0
 10
49.1597
 20
-138.756
 11
48.8489
 21
-139.146
  0
LINE
  8
0
 10
48.8489
 20
-139.146
 11
48.5009
 21
-139.503
  0
LINE
  8
0
 10
48.5009
 20
-139.503
 11
48.119
 21
-139.823
  0
LINE
  8
0
 10
48.119
 20
-139.823
 11
47.7072
 21
-140.104
  0
LINE
  8
0
 10
47.7072
 20
-140.104
 11
47.2694
 21
-140.342
  0
LINE
  8
0
 10
47.2694
 20
-140.342
 11
46.8101
 21
-140.536
  0
LINE
  8
0
 10
46.8101
 20
-140.536
 11
46.3338
 21
-140.683
  0
LINE
  8
0
 10
46.3338
 20
-140.683
 11
45.8452
 21
-140.782
  0
LINE
  8
0
 10
45.8452
 20
-140.782
 11
45.3492
 21
-140.831
  0
LINE
  8
0
 10
45.3492
 20
-140.831
 11
44.8508
 21
-140.831
  0
LINE
  8
0
 10
92.8883
 20
-138.758
 11
92.4163
 21
-138.625
  0
LINE
  8
0
 10
92.4163
 20
-138.625
 11
91.9974
 21
-138.371
  0
LINE
  8
0
 10
91.9974
 20
-138.371
 11
91.6628
 21
-138.012
  0
LINE
  8
0
 10
91.6628
 20
-138.012
 11
91.4373
 21
-137.577
  0
LINE
  8
0
 10
91.4373
 20
-137.577
 11
91.3376
 21
-137.097
  0
LINE
  8
0
 10
91.3376
 20
-137.097
 11
91.371
 21
-136.608
  0
LINE
  8
0
 10
91.371
 20
-136.608
 11
91.5352
 21
-136.146
  0
LINE
  8
0
 10
91.5352
 20
-136.146
 11
91.8179
 21
-135.746
  0
LINE
  8
0
 10
91.8179
 20
-135.746
 11
93.8179
 21
-133.746
  0
LINE
  8
0
 10
93.8179
 20
-133.746
 11
94.1981
 21
-133.436
  0
LINE
  8
0
 10
94.1981
 20
-133.436
 11
94.6478
 21
-133.241
  0
LINE
  8
0
 10
94.6478
 20
-133.241
 11
95.1334
 21
-133.174
  0
LINE
  8
0
 10
95.1334
 20
-133.174
 11
95.619
 21
-133.241
  0
LINE
  8
0
 10
95.619
 20
-133.241
 11
96.0686
 21
-133.436
  0
LINE
  8
0
 10
96.0686
 20
-133.436
 11
96.4489
 21
-133.746
  0
LINE
  8
0
 10
96.4489
 20
-133.746
 11
96.7316
 21
-134.146
  0
LINE
  8
0
 10
96.7316
 20
-134.146
 11
96.8957
 21
-134.608
  0
LINE
  8
0
 10
96.8957
 20
-134.608
 11
96.9292
 21
-135.097
  0
LINE
  8
0
 10
96.9292
 20
-135.097
 11
96.8295
 21
-135.577
  0
LINE
  8
0
 10
96.8295
 20
-135.577
 11
96.6039
 21
-136.012
  0
LINE
  8
0
 10
96.6039
 20
-136.012
 11
96.2693
 21
-136.371
  0
LINE
  8
0
 10
96.2693
 20
-136.371
 11
94.2693
 21
-138.371
  0
LINE
  8
0
 10
94.2693
 20
-138.371
 11
93.8505
 21
-138.625
  0
LINE
  8
0
 10
93.8505
 20
-138.625
 11
93.3785
 21
-138.758
  0
LINE
  8
0
 10
93.3785
 20
-138.758
 11
92.8883
 21
-138.758
  0
LINE
  8
0
 10
63.7672
 20
-138.737
 11
63.3053
 21
-138.573
  0
LINE
  8
0
 10
63.3053
 20
-138.573
 11
62.9048
 21
-138.29
  0
LINE
  8
0
 10
62.9048
 20
-138.29
 11
60.9048
 21
-136.29
  0
LINE
  8
0
 10
60.9048
 20
-136.29
 11
60.5954
 21
-135.91
  0
LINE
  8
0
 10
60.5954
 20
-135.91
 11
60.4001
 21
-135.46
  0
LINE
  8
0
 10
60.4001
 20
-135.46
 11
60.3334
 21
-134.974
  0
LINE
  8
0
 10
60.3334
 20
-134.974
 11
60.4001
 21
-134.489
  0
LINE
  8
0
 10
60.4001
 20
-134.489
 11
60.5954
 21
-134.039
  0
LINE
  8
0
 10
60.5954
 20
-134.039
 11
60.9048
 21
-133.659
  0
LINE
  8
0
 10
60.9048
 20
-133.659
 11
61.3053
 21
-133.376
  0
LINE
  8
0
 10
61.3053
 20
-133.376
 11
61.7672
 21
-133.212
  0
LINE
  8
0
 10
61.7672
 20
-133.212
 11
62.2562
 21
-133.179
  0
LINE
  8
0
 10
62.2562
 20
-133.179
 11
62.7362
 21
-133.278
  0
LINE
  8
0
 10
62.7362
 20
-133.278
 11
63.1714
 21
-133.504
  0
LINE
  8
0
 10
63.1714
 20
-133.504
 11
63.5297
 21
-133.838
  0
LINE
  8
0
 10
63.5297
 20
-133.838
 11
65.5297
 21
-135.838
  0
LINE
  8
0
 10
65.5297
 20
-135.838
 11
65.7844
 21
-136.257
  0
LINE
  8
0
 10
65.7844
 20
-136.257
 11
65.9166
 21
-136.729
  0
LINE
  8
0
 10
65.9166
 20
-136.729
 11
65.9166
 21
-137.219
  0
LINE
  8
0
 10
65.9166
 20
-137.219
 11
65.7844
 21
-137.691
  0
LINE
  8
0
 10
65.7844
 20
-137.691
 11
65.5297
 21
-138.11
  0
LINE
  8
0
 10
65.5297
 20
-138.11
 11
65.1714
 21
-138.445
  0
LINE
  8
0
 10
65.1714
 20
-138.445
 11
64.7362
 21
-138.67
  0
LINE
  8
0
 10
64.7362
 20
-138.67
 11
64.2562
 21
-138.77
  0
LINE
  8
0
 10
64.2562
 20
-138.77
 11
63.7672
 21
-138.737
  0
LINE
  8
0
 10
78.259
 20
-163.469
 11
77.7603
 21
-163.443
  0
LINE
  8
0
 10
77.7603
 20
-163.443
 11
77.2632
 21
-163.396
  0
LINE
  8
0
 10
77.2632
 20
-163.396
 11
76.7685
 21
-163.329
  0
LINE
  8
0
 10
76.7685
 20
-163.329
 11
76.277
 21
-163.241
  0
LINE
  8
0
 10
76.277
 20
-163.241
 11
75.7896
 21
-163.133
  0
LINE
  8
0
 10
75.7896
 20
-163.133
 11
75.3071
 21
-163.004
  0
LINE
  8
0
 10
75.3071
 20
-163.004
 11
74.8303
 21
-162.856
  0
LINE
  8
0
 10
74.8303
 20
-162.856
 11
74.3602
 21
-162.688
  0
LINE
  8
0
 10
74.3602
 20
-162.688
 11
73.8974
 21
-162.5
  0
LINE
  8
0
 10
73.8974
 20
-162.5
 11
73.4429
 21
-162.294
  0
LINE
  8
0
 10
73.4429
 20
-162.294
 11
72.9973
 21
-162.068
  0
LINE
  8
0
 10
72.9973
 20
-162.068
 11
72.5615
 21
-161.825
  0
LINE
  8
0
 10
72.5615
 20
-161.825
 11
72.1362
 21
-161.563
  0
LINE
  8
0
 10
72.1362
 20
-161.563
 11
71.7221
 21
-161.284
  0
LINE
  8
0
 10
71.7221
 20
-161.284
 11
71.32
 21
-160.988
  0
LINE
  8
0
 10
71.32
 20
-160.988
 11
70.9306
 21
-160.676
  0
LINE
  8
0
 10
70.9306
 20
-160.676
 11
70.5545
 21
-160.347
  0
LINE
  8
0
 10
70.5545
 20
-160.347
 11
70.1924
 21
-160.004
  0
LINE
  8
0
 10
70.1924
 20
-160.004
 11
69.8448
 21
-159.645
  0
LINE
  8
0
 10
69.8448
 20
-159.645
 11
69.5126
 21
-159.272
  0
LINE
  8
0
 10
69.5126
 20
-159.272
 11
69.1961
 21
-158.886
  0
LINE
  8
0
 10
69.1961
 20
-158.886
 11
68.8959
 21
-158.487
  0
LINE
  8
0
 10
68.8959
 20
-158.487
 11
68.6126
 21
-158.076
  0
LINE
  8
0
 10
68.6126
 20
-158.076
 11
68.3467
 21
-157.654
  0
LINE
  8
0
 10
68.3467
 20
-157.654
 11
68.0985
 21
-157.22
  0
LINE
  8
0
 10
68.0985
 20
-157.22
 11
67.8686
 21
-156.777
  0
LINE
  8
0
 10
67.8686
 20
-156.777
 11
67.6573
 21
-156.325
  0
LINE
  8
0
 10
67.6573
 20
-156.325
 11
67.4651
 21
-155.864
  0
LINE
  8
0
 10
67.4651
 20
-155.864
 11
67.2921
 21
-155.396
  0
LINE
  8
0
 10
67.2921
 20
-155.396
 11
67.1388
 21
-154.92
  0
LINE
  8
0
 10
67.1388
 20
-154.92
 11
67.0054
 21
-154.439
  0
LINE
  8
0
 10
67.0054
 20
-154.439
 11
66.8922
 21
-153.953
  0
LINE
  8
0
 10
66.8922
 20
-153.953
 11
66.7992
 21
-153.462
  0
LINE
  8
0
 10
66.7992
 20
-153.462
 11
66.7268
 21
-152.968
  0
LINE
  8
0
 10
66.7268
 20
-152.968
 11
66.6749
 21
-152.472
  0
LINE
  8
0
 10
66.6749
 20
-152.472
 11
66.6438
 21
-151.974
  0
LINE
  8
0
 10
66.6438
 20
-151.974
 11
66.6334
 21
-151.474
  0
LINE
  8
0
 10
66.6334
 20
-151.474
 11
66.6438
 21
-150.975
  0
LINE
  8
0
 10
66.6438
 20
-150.975
 11
66.6749
 21
-150.477
  0
LINE
  8
0
 10
66.6749
 20
-150.477
 11
66.7268
 21
-149.98
  0
LINE
  8
0
 10
66.7268
 20
-149.98
 11
66.7992
 21
-149.486
  0
LINE
  8
0
 10
66.7992
 20
-149.486
 11
66.8922
 21
-148.996
  0
LINE
  8
0
 10
66.8922
 20
-148.996
 11
67.0054
 21
-148.509
  0
LINE
  8
0
 10
67.0054
 20
-148.509
 11
67.1388
 21
-148.028
  0
LINE
  8
0
 10
67.1388
 20
-148.028
 11
67.2921
 21
-147.553
  0
LINE
  8
0
 10
67.2921
 20
-147.553
 11
67.4651
 21
-147.085
  0
LINE
  8
0
 10
67.4651
 20
-147.085
 11
67.6573
 21
-146.624
  0
LINE
  8
0
 10
67.6573
 20
-146.624
 11
67.8686
 21
-146.172
  0
LINE
  8
0
 10
67.8686
 20
-146.172
 11
68.0985
 21
-145.728
  0
LINE
  8
0
 10
68.0985
 20
-145.728
 11
68.3467
 21
-145.295
  0
LINE
  8
0
 10
68.3467
 20
-145.295
 11
68.6126
 21
-144.873
  0
LINE
  8
0
 10
68.6126
 20
-144.873
 11
68.8959
 21
-144.461
  0
LINE
  8
0
 10
68.8959
 20
-144.461
 11
69.1961
 21
-144.062
  0
LINE
  8
0
 10
69.1961
 20
-144.062
 11
69.5126
 21
-143.676
  0
LINE
  8
0
 10
69.5126
 20
-143.676
 11
69.8448
 21
-143.304
  0
LINE
  8
0
 10
69.8448
 20
-143.304
 11
70.1924
 21
-142.945
  0
LINE
  8
0
 10
70.1924
 20
-142.945
 11
70.5545
 21
-142.601
  0
LINE
  8
0
 10
70.5545
 20
-142.601
 11
70.9306
 21
-142.273
  0
LINE
  8
0
 10
70.9306
 20
-142.273
 11
71.32
 21
-141.96
  0
LINE
  8
0
 10
71.32
 20
-141.96
 11
71.7221
 21
-141.664
  0
LINE
  8
0
 10
71.7221
 20
-141.664
 11
72.1362
 21
-141.385
  0
LINE
  8
0
 10
72.1362
 20
-141.385
 11
72.5615
 21
-141.124
  0
LINE
  8
0
 10
72.5615
 20
-141.124
 11
72.9973
 21
-140.88
  0
LINE
  8
0
 10
72.9973
 20
-140.88
 11
73.4429
 21
-140.655
  0
LINE
  8
0
 10
73.4429
 20
-140.655
 11
73.8974
 21
-140.448
  0
LINE
  8
0
 10
73.8974
 20
-140.448
 11
74.3602
 21
-140.261
  0
LINE
  8
0
 10
74.3602
 20
-140.261
 11
74.8303
 21
-140.093
  0
LINE
  8
0
 10
74.8303
 20
-140.093
 11
75.3071
 21
-139.945
  0
LINE
  8
0
 10
75.3071
 20
-139.945
 11
75.7896
 21
-139.816
  0
LINE
  8
0
 10
75.7896
 20
-139.816
 11
76.277
 21
-139.708
  0
LINE
  8
0
 10
76.277
 20
-139.708
 11
76.7685
 21
-139.62
  0
LINE
  8
0
 10
76.7685
 20
-139.62
 11
77.2632
 21
-139.553
  0
LINE
  8
0
 10
77.2632
 20
-139.553
 11
77.7603
 21
-139.506
  0
LINE
  8
0
 10
77.7603
 20
-139.506
 11
78.259
 21
-139.48
  0
LINE
  8
0
 10
78.259
 20
-139.48
 11
78.7582
 21
-139.475
  0
LINE
  8
0
 10
78.7582
 20
-139.475
 11
79.2573
 21
-139.491
  0
LINE
  8
0
 10
79.2573
 20
-139.491
 11
79.7552
 21
-139.527
  0
LINE
  8
0
 10
79.7552
 20
-139.527
 11
80.2513
 21
-139.584
  0
LINE
  8
0
 10
80.2513
 20
-139.584
 11
80.7445
 21
-139.662
  0
LINE
  8
0
 10
80.7445
 20
-139.662
 11
81.234
 21
-139.76
  0
LINE
  8
0
 10
81.234
 20
-139.76
 11
81.7191
 21
-139.878
  0
LINE
  8
0
 10
81.7191
 20
-139.878
 11
82.1988
 21
-140.016
  0
LINE
  8
0
 10
82.1988
 20
-140.016
 11
82.6724
 21
-140.175
  0
LINE
  8
0
 10
82.6724
 20
-140.175
 11
83.1389
 21
-140.352
  0
LINE
  8
0
 10
83.1389
 20
-140.352
 11
83.5977
 21
-140.549
  0
LINE
  8
0
 10
83.5977
 20
-140.549
 11
84.0479
 21
-140.765
  0
LINE
  8
0
 10
84.0479
 20
-140.765
 11
84.4887
 21
-141
  0
LINE
  8
0
 10
84.4887
 20
-141
 11
84.9193
 21
-141.252
  0
LINE
  8
0
 10
84.9193
 20
-141.252
 11
85.3391
 21
-141.523
  0
LINE
  8
0
 10
85.3391
 20
-141.523
 11
85.7473
 21
-141.81
  0
LINE
  8
0
 10
85.7473
 20
-141.81
 11
86.1431
 21
-142.115
  0
LINE
  8
0
 10
86.1431
 20
-142.115
 11
86.526
 21
-142.435
  0
LINE
  8
0
 10
86.526
 20
-142.435
 11
86.8951
 21
-142.771
  0
LINE
  8
0
 10
86.8951
 20
-142.771
 11
87.25
 21
-143.123
  0
LINE
  8
0
 10
87.25
 20
-143.123
 11
87.59
 21
-143.488
  0
LINE
  8
0
 10
87.59
 20
-143.488
 11
87.9145
 21
-143.868
  0
LINE
  8
0
 10
87.9145
 20
-143.868
 11
88.2229
 21
-144.26
  0
LINE
  8
0
 10
88.2229
 20
-144.26
 11
88.5146
 21
-144.665
  0
LINE
  8
0
 10
88.5146
 20
-144.665
 11
88.7893
 21
-145.082
  0
LINE
  8
0
 10
88.7893
 20
-145.082
 11
89.0464
 21
-145.51
  0
LINE
  8
0
 10
89.0464
 20
-145.51
 11
89.2855
 21
-145.949
  0
LINE
  8
0
 10
89.2855
 20
-145.949
 11
89.5061
 21
-146.397
  0
LINE
  8
0
 10
89.5061
 20
-146.397
 11
89.708
 21
-146.853
  0
LINE
  8
0
 10
89.708
 20
-146.853
 11
89.8906
 21
-147.318
  0
LINE
  8
0
 10
89.8906
 20
-147.318
 11
90.0538
 21
-147.79
  0
LINE
  8
0
 10
90.0538
 20
-147.79
 11
90.1971
 21
-148.268
  0
LINE
  8
0
 10
90.1971
 20
-148.268
 11
90.3205
 21
-148.752
  0
LINE
  8
0
 10
90.3205
 20
-148.752
 11
90.4236
 21
-149.241
  0
LINE
  8
0
 10
90.4236
 20
-149.241
 11
90.5063
 21
-149.733
  0
LINE
  8
0
 10
90.5063
 20
-149.733
 11
90.5685
 21
-150.228
  0
LINE
  8
0
 10
90.5685
 20
-150.228
 11
90.61
 21
-150.726
  0
LINE
  8
0
 10
90.61
 20
-150.726
 11
90.6308
 21
-151.225
  0
LINE
  8
0
 10
90.6308
 20
-151.225
 11
90.6308
 21
-151.724
  0
LINE
  8
0
 10
90.6308
 20
-151.724
 11
90.61
 21
-152.223
  0
LINE
  8
0
 10
90.61
 20
-152.223
 11
90.5685
 21
-152.72
  0
LINE
  8
0
 10
90.5685
 20
-152.72
 11
90.5063
 21
-153.216
  0
LINE
  8
0
 10
90.5063
 20
-153.216
 11
90.4236
 21
-153.708
  0
LINE
  8
0
 10
90.4236
 20
-153.708
 11
90.3205
 21
-154.197
  0
LINE
  8
0
 10
90.3205
 20
-154.197
 11
90.1971
 21
-154.681
  0
LINE
  8
0
 10
90.1971
 20
-154.681
 11
90.0538
 21
-155.159
  0
LINE
  8
0
 10
90.0538
 20
-155.159
 11
89.8906
 21
-155.631
  0
LINE
  8
0
 10
89.8906
 20
-155.631
 11
89.708
 21
-156.095
  0
LINE
  8
0
 10
89.708
 20
-156.095
 11
89.5061
 21
-156.552
  0
LINE
  8
0
 10
89.5061
 20
-156.552
 11
89.2855
 21
-157
  0
LINE
  8
0
 10
89.2855
 20
-157
 11
89.0464
 21
-157.438
  0
LINE
  8
0
 10
89.0464
 20
-157.438
 11
88.7893
 21
-157.866
  0
LINE
  8
0
 10
88.7893
 20
-157.866
 11
88.5146
 21
-158.283
  0
LINE
  8
0
 10
88.5146
 20
-158.283
 11
88.2229
 21
-158.688
  0
LINE
  8
0
 10
88.2229
 20
-158.688
 11
87.9145
 21
-159.081
  0
LINE
  8
0
 10
87.9145
 20
-159.081
 11
87.59
 21
-159.461
  0
LINE
  8
0
 10
87.59
 20
-159.461
 11
87.25
 21
-159.826
  0
LINE
  8
0
 10
87.25
 20
-159.826
 11
86.8951
 21
-160.177
  0
LINE
  8
0
 10
86.8951
 20
-160.177
 11
86.526
 21
-160.514
  0
LINE
  8
0
 10
86.526
 20
-160.514
 11
86.1431
 21
-160.834
  0
LINE
  8
0
 10
86.1431
 20
-160.834
 11
85.7473
 21
-161.138
  0
LINE
  8
0
 10
85.7473
 20
-161.138
 11
85.3391
 21
-161.426
  0
LINE
  8
0
 10
85.3391
 20
-161.426
 11
84.9193
 21
-161.696
  0
LINE
  8
0
 10
84.9193
 20
-161.696
 11
84.4887
 21
-161.949
  0
LINE
  8
0
 10
84.4887
 20
-161.949
 11
84.0479
 21
-162.183
  0
LINE
  8
0
 10
84.0479
 20
-162.183
 11
83.5977
 21
-162.399
  0
LINE
  8
0
 10
83.5977
 20
-162.399
 11
83.1389
 21
-162.596
  0
LINE
  8
0
 10
83.1389
 20
-162.596
 11
82.6724
 21
-162.774
  0
LINE
  8
0
 10
82.6724
 20
-162.774
 11
82.1988
 21
-162.932
  0
LINE
  8
0
 10
82.1988
 20
-162.932
 11
81.7191
 21
-163.071
  0
LINE
  8
0
 10
81.7191
 20
-163.071
 11
81.234
 21
-163.189
  0
LINE
  8
0
 10
81.234
 20
-163.189
 11
80.7445
 21
-163.287
  0
LINE
  8
0
 10
80.7445
 20
-163.287
 11
80.2513
 21
-163.365
  0
LINE
  8
0
 10
80.2513
 20
-163.365
 11
79.7552
 21
-163.422
  0
LINE
  8
0
 10
79.7552
 20
-163.422
 11
79.2573
 21
-163.458
  0
LINE
  8
0
 10
79.2573
 20
-163.458
 11
78.7582
 21
-163.474
  0
LINE
  8
0
 10
78.7582
 20
-163.474
 11
78.259
 21
-163.469
  0
LINE
  8
0
 10
29.8509
 20
-152.688
 11
29.3611
 21
-152.597
  0
LINE
  8
0
 10
29.3611
 20
-152.597
 11
28.8965
 21
-152.417
  0
LINE
  8
0
 10
28.8965
 20
-152.417
 11
28.4729
 21
-152.155
  0
LINE
  8
0
 10
28.4729
 20
-152.155
 11
28.1047
 21
-151.819
  0
LINE
  8
0
 10
28.1047
 20
-151.819
 11
27.8044
 21
-151.421
  0
LINE
  8
0
 10
27.8044
 20
-151.421
 11
27.5823
 21
-150.975
  0
LINE
  8
0
 10
27.5823
 20
-150.975
 11
27.446
 21
-150.496
  0
LINE
  8
0
 10
27.446
 20
-150.496
 11
27.4
 21
-150
  0
LINE
  8
0
 10
27.4
 20
-150
 11
27.446
 21
-149.504
  0
LINE
  8
0
 10
27.446
 20
-149.504
 11
27.5823
 21
-149.025
  0
LINE
  8
0
 10
27.5823
 20
-149.025
 11
27.8044
 21
-148.579
  0
LINE
  8
0
 10
27.8044
 20
-148.579
 11
28.1047
 21
-148.181
  0
LINE
  8
0
 10
28.1047
 20
-148.181
 11
28.4729
 21
-147.845
  0
LINE
  8
0
 10
28.4729
 20
-147.845
 11
28.8965
 21
-147.583
  0
LINE
  8
0
 10
28.8965
 20
-147.583
 11
29.3611
 21
-147.403
  0
LINE
  8
0
 10
29.3611
 20
-147.403
 11
29.8509
 21
-147.312
  0
LINE
  8
0
 10
29.8509
 20
-147.312
 11
30.3491
 21
-147.312
  0
LINE
  8
0
 10
30.3491
 20
-147.312
 11
30.8389
 21
-147.403
  0
LINE
  8
0
 10
30.8389
 20
-147.403
 11
31.3035
 21
-147.583
  0
LINE
  8
0
 10
31.3035
 20
-147.583
 11
31.7271
 21
-147.845
  0
LINE
  8
0
 10
31.7271
 20
-147.845
 11
32.0953
 21
-148.181
  0
LINE
  8
0
 10
32.0953
 20
-148.181
 11
32.3956
 21
-148.579
  0
LINE
  8
0
 10
32.3956
 20
-148.579
 11
32.6177
 21
-149.025
  0
LINE
  8
0
 10
32.6177
 20
-149.025
 11
32.754
 21
-149.504
  0
LINE
  8
0
 10
32.754
 20
-149.504
 11
32.8
 21
-150
  0
LINE
  8
0
 10
32.8
 20
-150
 11
32.754
 21
-150.496
  0
LINE
  8
0
 10
32.754
 20
-150.496
 11
32.6177
 21
-150.975
  0
LINE
  8
0
 10
32.6177
 20
-150.975
 11
32.3956
 21
-151.421
  0
LINE
  8
0
 10
32.3956
 20
-151.421
 11
32.0953
 21
-151.819
  0
LINE
  8
0
 10
32.0953
 20
-151.819
 11
31.7271
 21
-152.155
  0
LINE
  8
0
 10
31.7271
 20
-152.155
 11
31.3035
 21
-152.417
  0
LINE
  8
0
 10
31.3035
 20
-152.417
 11
30.8389
 21
-152.597
  0
LINE
  8
0
 10
30.8389
 20
-152.597
 11
30.3491
 21
-152.688
  0
LINE
  8
0
 10
30.3491
 20
-152.688
 11
29.8509
 21
-152.688
  0
LINE
  8
0
 10
94.5306
 20
-169.67
 11
94.0954
 21
-169.445
  0
LINE
  8
0
 10
94.0954
 20
-169.445
 11
93.7371
 21
-169.11
  0
LINE
  8
0
 10
93.7371
 20
-169.11
 11
91.7371
 21
-167.11
  0
LINE
  8
0
 10
91.7371
 20
-167.11
 11
91.4824
 21
-166.691
  0
LINE
  8
0
 10
91.4824
 20
-166.691
 11
91.3501
 21
-166.219
  0
LINE
  8
0
 10
91.3501
 20
-166.219
 11
91.3501
 21
-165.729
  0
LINE
  8
0
 10
91.3501
 20
-165.729
 11
91.4824
 21
-165.257
  0
LINE
  8
0
 10
91.4824
 20
-165.257
 11
91.7371
 21
-164.838
  0
LINE
  8
0
 10
91.7371
 20
-164.838
 11
92.0954
 21
-164.504
  0
LINE
  8
0
 10
92.0954
 20
-164.504
 11
92.5306
 21
-164.278
  0
LINE
  8
0
 10
92.5306
 20
-164.278
 11
93.0105
 21
-164.179
  0
LINE
  8
0
 10
93.0105
 20
-164.179
 11
93.4996
 21
-164.212
  0
LINE
  8
0
 10
93.4996
 20
-164.212
 11
93.9615
 21
-164.376
  0
LINE
  8
0
 10
93.9615
 20
-164.376
 11
94.362
 21
-164.659
  0
LINE
  8
0
 10
94.362
 20
-164.659
 11
96.362
 21
-166.659
  0
LINE
  8
0
 10
96.362
 20
-166.659
 11
96.6713
 21
-167.039
  0
LINE
  8
0
 10
96.6713
 20
-167.039
 11
96.8666
 21
-167.489
  0
LINE
  8
0
 10
96.8666
 20
-167.489
 11
96.9334
 21
-167.974
  0
LINE
  8
0
 10
96.9334
 20
-167.974
 11
96.8666
 21
-168.46
  0
LINE
  8
0
 10
96.8666
 20
-168.46
 11
96.6713
 21
-168.91
  0
LINE
  8
0
 10
96.6713
 20
-168.91
 11
96.362
 21
-169.29
  0
LINE
  8
0
 10
96.362
 20
-169.29
 11
95.9615
 21
-169.573
  0
LINE
  8
0
 10
95.9615
 20
-169.573
 11
95.4996
 21
-169.737
  0
LINE
  8
0
 10
95.4996
 20
-169.737
 11
95.0105
 21
-169.77
  0
LINE
  8
0
 10
95.0105
 20
-169.77
 11
94.5306
 21
-169.67
  0
LINE
  8
0
 10
61.6478
 20
-169.708
 11
61.1981
 21
-169.512
  0
LINE
  8
0
 10
61.1981
 20
-169.512
 11
60.8179
 21
-169.203
  0
LINE
  8
0
 10
60.8179
 20
-169.203
 11
60.5352
 21
-168.802
  0
LINE
  8
0
 10
60.5352
 20
-168.802
 11
60.371
 21
-168.341
  0
LINE
  8
0
 10
60.371
 20
-168.341
 11
60.3376
 21
-167.852
  0
LINE
  8
0
 10
60.3376
 20
-167.852
 11
60.4373
 21
-167.372
  0
LINE
  8
0
 10
60.4373
 20
-167.372
 11
60.6628
 21
-166.936
  0
LINE
  8
0
 10
60.6628
 20
-166.936
 11
60.9974
 21
-166.578
  0
LINE
  8
0
 10
60.9974
 20
-166.578
 11
62.9974
 21
-164.578
  0
LINE
  8
0
 10
62.9974
 20
-164.578
 11
63.4163
 21
-164.323
  0
LINE
  8
0
 10
63.4163
 20
-164.323
 11
63.8883
 21
-164.191
  0
LINE
  8
0
 10
63.8883
 20
-164.191
 11
64.3785
 21
-164.191
  0
LINE
  8
0
 10
64.3785
 20
-164.191
 11
64.8505
 21
-164.323
  0
LINE
  8
0
 10
64.8505
 20
-164.323
 11
65.2693
 21
-164.578
  0
LINE
  8
0
 10
65.2693
 20
-164.578
 11
65.6039
 21
-164.936
  0
LINE
  8
0
 10
65.6039
 20
-164.936
 11
65.8295
 21
-165.372
  0
LINE
  8
0
 10
65.8295
 20
-165.372
 11
65.9292
 21
-165.852
  0
LINE
  8
0
 10
65.9292
 20
-165.852
 11
65.8957
 21
-166.341
  0
LINE
  8
0
 10
65.8957
 20
-166.341
 11
65.7316
 21
-166.802
  0
LINE
  8
0
 10
65.7316
 20
-166.802
 11
65.4489
 21
-167.203
  0
LINE
  8
0
 10
65.4489
 20
-167.203
 11
63.4489
 21
-169.203
  0
LINE
  8
0
 10
63.4489
 20
-169.203
 11
63.0686
 21
-169.512
  0
LINE
  8
0
 10
63.0686
 20
-169.512
 11
62.619
 21
-169.708
  0
LINE
  8
0
 10
62.619
 20
-169.708
 11
62.1334
 21
-169.774
  0
LINE
  8
0
 10
62.1334
 20
-169.774
 11
61.6478
 21
-169.708
  0
LINE
  8
0
 10
9.85088
 20
-172.688
 11
9.3611
 21
-172.597
  0
LINE
  8
0
 10
9.3611
 20
-172.597
 11
8.8965
 21
-172.417
  0
LINE
  8
0
 10
8.8965
 20
-172.417
 11
8.47289
 21
-172.155
  0
LINE
  8
0
 10
8.47289
 20
-172.155
 11
8.10468
 21
-171.819
  0
LINE
  8
0
 10
8.10468
 20
-171.819
 11
7.80441
 21
-171.421
  0
LINE
  8
0
 10
7.80441
 20
-171.421
 11
7.58232
 21
-170.975
  0
LINE
  8
0
 10
7.58232
 20
-170.975
 11
7.44597
 21
-170.496
  0
LINE
  8
0
 10
7.44597
 20
-170.496
 11
7.39999
 21
-170
  0
LINE
  8
0
 10
7.39999
 20
-170
 11
7.44597
 21
-169.504
  0
LINE
  8
0
 10
7.44597
 20
-169.504
 11
7.58232
 21
-169.025
  0
LINE
  8
0
 10
7.58232
 20
-169.025
 11
7.80441
 21
-168.579
  0
LINE
  8
0
 10
7.80441
 20
-168.579
 11
8.10468
 21
-168.181
  0
LINE
  8
0
 10
8.10468
 20
-168.181
 11
8.47289
 21
-167.845
  0
LINE
  8
0
 10
8.47289
 20
-167.845
 11
8.8965
 21
-167.583
  0
LINE
  8
0
 10
8.8965
 20
-167.583
 11
9.3611
 21
-167.403
  0
LINE
  8
0
 10
9.3611
 20
-167.403
 11
9.85088
 21
-167.312
  0
LINE
  8
0
 10
9.85088
 20
-167.312
 11
10.3491
 21
-167.312
  0
LINE
  8
0
 10
10.3491
 20
-167.312
 11
10.8389
 21
-167.403
  0
LINE
  8
0
 10
10.8389
 20
-167.403
 11
11.3035
 21
-167.583
  0
LINE
  8
0
 10
11.3035
 20
-167.583
 11
11.7271
 21
-167.845
  0
LINE
  8
0
 10
11.7271
 20
-167.845
 11
12.0953
 21
-168.181
  0
LINE
  8
0
 10
12.0953
 20
-168.181
 11
12.3956
 21
-168.579
  0
LINE
  8
0
 10
12.3956
 20
-168.579
 11
12.6177
 21
-169.025
  0
LINE
  8
0
 10
12.6177
 20
-169.025
 11
12.754
 21
-169.504
  0
LINE
  8
0
 10
12.754
 20
-169.504
 11
12.8
 21
-170
  0
LINE
  8
0
 10
12.8
 20
-170
 11
12.754
 21
-170.496
  0
LINE
  8
0
 10
12.754
 20
-170.496
 11
12.6177
 21
-170.975
  0
LINE
  8
0
 10
12.6177
 20
-170.975
 11
12.3956
 21
-171.421
  0
LINE
  8
0
 10
12.3956
 20
-171.421
 11
12.0953
 21
-171.819
  0
LINE
  8
0
 10
12.0953
 20
-171.819
 11
11.7271
 21
-172.155
  0
LINE
  8
0
 10
11.7271
 20
-172.155
 11
11.3035
 21
-172.417
  0
LINE
  8
0
 10
11.3035
 20
-172.417
 11
10.8389
 21
-172.597
  0
LINE
  8
0
 10
10.8389
 20
-172.597
 11
10.3491
 21
-172.688
  0
LINE
  8
0
 10
10.3491
 20
-172.688
 11
9.85088
 21
-172.688
  0
LINE
  8
0
 10
54.9868
 20
-183.592
 11
54.516
 21
-183.429
  0
LINE
  8
0
 10
54.516
 20
-183.429
 11
54.0832
 21
-183.182
  0
LINE
  8
0
 10
54.0832
 20
-183.182
 11
53.7032
 21
-182.859
  0
LINE
  8
0
 10
53.7032
 20
-182.859
 11
53.3888
 21
-182.473
  0
LINE
  8
0
 10
53.3888
 20
-182.473
 11
53.1508
 21
-182.035
  0
LINE
  8
0
 10
53.1508
 20
-182.035
 11
52.9974
 21
-181.561
  0
LINE
  8
0
 10
52.9974
 20
-181.561
 11
52.9336
 21
-181.067
  0
LINE
  8
0
 10
52.9336
 20
-181.067
 11
52.9617
 21
-180.569
  0
LINE
  8
0
 10
52.9617
 20
-180.569
 11
53.0808
 21
-180.086
  0
LINE
  8
0
 10
53.0808
 20
-180.086
 11
53.2867
 21
-179.632
  0
LINE
  8
0
 10
53.2867
 20
-179.632
 11
53.5725
 21
-179.224
  0
LINE
  8
0
 10
53.5725
 20
-179.224
 11
53.9284
 21
-178.875
  0
LINE
  8
0
 10
53.9284
 20
-178.875
 11
54.3423
 21
-178.598
  0
LINE
  8
0
 10
54.3423
 20
-178.598
 11
54.8002
 21
-178.401
  0
LINE
  8
0
 10
54.8002
 20
-178.401
 11
55.2863
 21
-178.292
  0
LINE
  8
0
 10
55.2863
 20
-178.292
 11
55.7842
 21
-178.274
  0
LINE
  8
0
 10
55.7842
 20
-178.274
 11
56.277
 21
-178.348
  0
LINE
  8
0
 10
56.277
 20
-178.348
 11
56.7478
 21
-178.511
  0
LINE
  8
0
 10
56.7478
 20
-178.511
 11
57.1805
 21
-178.758
  0
LINE
  8
0
 10
57.1805
 20
-178.758
 11
57.5605
 21
-179.08
  0
LINE
  8
0
 10
57.5605
 20
-179.08
 11
57.8749
 21
-179.467
  0
LINE
  8
0
 10
57.8749
 20
-179.467
 11
58.1129
 21
-179.905
  0
LINE
  8
0
 10
58.1129
 20
-179.905
 11
58.2664
 21
-180.379
  0
LINE
  8
0
 10
58.2664
 20
-180.379
 11
58.3301
 21
-180.873
  0
LINE
  8
0
 10
58.3301
 20
-180.873
 11
58.302
 21
-181.37
  0
LINE
  8
0
 10
58.302
 20
-181.37
 11
58.183
 21
-181.854
  0
LINE
  8
0
 10
58.183
 20
-181.854
 11
57.977
 21
-182.308
  0
LINE
  8
0
 10
57.977
 20
-182.308
 11
57.6913
 21
-182.716
  0
LINE
  8
0
 10
57.6913
 20
-182.716
 11
57.3353
 21
-183.065
  0
LINE
  8
0
 10
57.3353
 20
-183.065
 11
56.9214
 21
-183.342
  0
LINE
  8
0
 10
56.9214
 20
-183.342
 11
56.4636
 21
-183.539
  0
LINE
  8
0
 10
56.4636
 20
-183.539
 11
55.9774
 21
-183.648
  0
LINE
  8
0
 10
55.9774
 20
-183.648
 11
55.4795
 21
-183.666
  0
LINE
  8
0
 10
55.4795
 20
-183.666
 11
54.9868
 21
-183.592
  0
LINE
  8
0
 10
60.3819
 20
-191.621
 11
67.2648
 21
-181.791
  0
LINE
  8
0
 10
67.2648
 20
-181.791
 11
73.8181
 21
-186.379
  0
LINE
  8
0
 10
73.8181
 20
-186.379
 11
66.9352
 21
-196.209
  0
LINE
  8
0
 10
66.9352
 20
-196.209
 11
60.3819
 21
-191.621
  0
LINE
  8
0
 10
29.8509
 20
-192.688
 11
29.3611
 21
-192.597
  0
LINE
  8
0
 10
29.3611
 20
-192.597
 11
28.8965
 21
-192.417
  0
LINE
  8
0
 10
28.8965
 20
-192.417
 11
28.4729
 21
-192.155
  0
LINE
  8
0
 10
28.4729
 20
-192.155
 11
28.1047
 21
-191.819
  0
LINE
  8
0
 10
28.1047
 20
-191.819
 11
27.8044
 21
-191.421
  0
LINE
  8
0
 10
27.8044
 20
-191.421
 11
27.5823
 21
-190.975
  0
LINE
  8
0
 10
27.5823
 20
-190.975
 11
27.446
 21
-190.496
  0
LINE
  8
0
 10
27.446
 20
-190.496
 11
27.4
 21
-190
  0
LINE
  8
0
 10
27.4
 20
-190
 11
27.446
 21
-189.504
  0
LINE
  8
0
 10
27.446
 20
-189.504
 11
27.5823
 21
-189.025
  0
LINE
  8
0
 10
27.5823
 20
-189.025
 11
27.8044
 21
-188.579
  0
LINE
  8
0
 10
27.8044
 20
-188.579
 11
28.1047
 21
-188.181
  0
LINE
  8
0
 10
28.1047
 20
-188.181
 11
28.4729
 21
-187.845
  0
LINE
  8
0
 10
28.4729
 20
-187.845
 11
28.8965
 21
-187.583
  0
LINE
  8
0
 10
28.8965
 20
-187.583
 11
29.3611
 21
-187.403
  0
LINE
  8
0
 10
29.3611
 20
-187.403
 11
29.8509
 21
-187.312
  0
LINE
  8
0
 10
29.8509
 20
-187.312
 11
30.3491
 21
-187.312
  0
LINE
  8
0
 10
30.3491
 20
-187.312
 11
30.8389
 21
-187.403
  0
LINE
  8
0
 10
30.8389
 20
-187.403
 11
31.3035
 21
-187.583
  0
LINE
  8
0
 10
31.3035
 20
-187.583
 11
31.7271
 21
-187.845
  0
LINE
  8
0
 10
31.7271
 20
-187.845
 11
32.0953
 21
-188.181
  0
LINE
  8
0
 10
32.0953
 20
-188.181
 11
32.3956
 21
-188.579
  0
LINE
  8
0
 10
32.3956
 20
-188.579
 11
32.6177
 21
-189.025
  0
LINE
  8
0
 10
32.6177
 20
-189.025
 11
32.754
 21
-189.504
  0
LINE
  8
0
 10
32.754
 20
-189.504
 11
32.8
 21
-190
  0
LINE
  8
0
 10
32.8
 20
-190
 11
32.754
 21
-190.496
  0
LINE
  8
0
 10
32.754
 20
-190.496
 11
32.6177
 21
-190.975
  0
LINE
  8
0
 10
32.6177
 20
-190.975
 11
32.3956
 21
-191.421
  0
LINE
  8
0
 10
32.3956
 20
-191.421
 11
32.0953
 21
-191.819
  0
LINE
  8
0
 10
32.0953
 20
-191.819
 11
31.7271
 21
-192.155
  0
LINE
  8
0
 10
31.7271
 20
-192.155
 11
31.3035
 21
-192.417
  0
LINE
  8
0
 10
31.3035
 20
-192.417
 11
30.8389
 21
-192.597
  0
LINE
  8
0
 10
30.8389
 20
-192.597
 11
30.3491
 21
-192.688
  0
LINE
  8
0
 10
30.3491
 20
-192.688
 11
29.8509
 21
-192.688
  0
LINE
  8
0
 10
43.5152
 20
-199.975
 11
43.0444
 21
-199.812
  0
LINE
  8
0
 10
43.0444
 20
-199.812
 11
42.6117
 21
-199.565
  0
LINE
  8
0
 10
42.6117
 20
-199.565
 11
42.2316
 21
-199.242
  0
LINE
  8
0
 10
42.2316
 20
-199.242
 11
41.9173
 21
-198.856
  0
LINE
  8
0
 10
41.9173
 20
-198.856
 11
41.6793
 21
-198.418
  0
LINE
  8
0
 10
41.6793
 20
-198.418
 11
41.5258
 21
-197.944
  0
LINE
  8
0
 10
41.5258
 20
-197.944
 11
41.4621
 21
-197.45
  0
LINE
  8
0
 10
41.4621
 20
-197.45
 11
41.4902
 21
-196.953
  0
LINE
  8
0
 10
41.4902
 20
-196.953
 11
41.6093
 21
-196.469
  0
LINE
  8
0
 10
41.6093
 20
-196.469
 11
41.8152
 21
-196.015
  0
LINE
  8
0
 10
41.8152
 20
-196.015
 11
42.101
 21
-195.607
  0
LINE
  8
0
 10
42.101
 20
-195.607
 11
42.4569
 21
-195.258
  0
LINE
  8
0
 10
42.4569
 20
-195.258
 11
42.8708
 21
-194.981
  0
LINE
  8
0
 10
42.8708
 20
-194.981
 11
43.3286
 21
-194.784
  0
LINE
  8
0
 10
43.3286
 20
-194.784
 11
43.8148
 21
-194.675
  0
LINE
  8
0
 10
43.8148
 20
-194.675
 11
44.3127
 21
-194.657
  0
LINE
  8
0
 10
44.3127
 20
-194.657
 11
44.8055
 21
-194.731
  0
LINE
  8
0
 10
44.8055
 20
-194.731
 11
45.2762
 21
-194.894
  0
LINE
  8
0
 10
45.2762
 20
-194.894
 11
45.709
 21
-195.141
  0
LINE
  8
0
 10
45.709
 20
-195.141
 11
46.089
 21
-195.463
  0
LINE
  8
0
 10
46.089
 20
-195.463
 11
46.4034
 21
-195.85
  0
LINE
  8
0
 10
46.4034
 20
-195.85
 11
46.6413
 21
-196.288
  0
LINE
  8
0
 10
46.6413
 20
-196.288
 11
46.7948
 21
-196.762
  0
LINE
  8
0
 10
46.7948
 20
-196.762
 11
46.8586
 21
-197.256
  0
LINE
  8
0
 10
46.8586
 20
-197.256
 11
46.8305
 21
-197.753
  0
LINE
  8
0
 10
46.8305
 20
-197.753
 11
46.7114
 21
-198.237
  0
LINE
  8
0
 10
46.7114
 20
-198.237
 11
46.5055
 21
-198.691
  0
LINE
  8
0
 10
46.5055
 20
-198.691
 11
46.2197
 21
-199.099
  0
LINE
  8
0
 10
46.2197
 20
-199.099
 11
45.8638
 21
-199.448
  0
LINE
  8
0
 10
45.8638
 20
-199.448
 11
45.4499
 21
-199.725
  0
LINE
  8
0
 10
45.4499
 20
-199.725
 11
44.9921
 21
-199.922
  0
LINE
  8
0
 10
44.9921
 20
-199.922
 11
44.5059
 21
-200.031
  0
LINE
  8
0
 10
44.5059
 20
-200.031
 11
44.008
 21
-200.049
  0
LINE
  8
0
 10
44.008
 20
-200.049
 11
43.5152
 21
-199.975
  0
LINE
  8
0
 10
75.3549
 20
-211.783
 11
74.8829
 21
-211.651
  0
LINE
  8
0
 10
74.8829
 20
-211.651
 11
74.464
 21
-211.396
  0
LINE
  8
0
 10
74.464
 20
-211.396
 11
74.1295
 21
-211.038
  0
LINE
  8
0
 10
74.1295
 20
-211.038
 11
73.9039
 21
-210.603
  0
LINE
  8
0
 10
73.9039
 20
-210.603
 11
73.8042
 21
-210.123
  0
LINE
  8
0
 10
73.8042
 20
-210.123
 11
73.8376
 21
-209.634
  0
LINE
  8
0
 10
73.8376
 20
-209.634
 11
74.0018
 21
-209.172
  0
LINE
  8
0
 10
74.0018
 20
-209.172
 11
74.2845
 21
-208.771
  0
LINE
  8
0
 10
74.2845
 20
-208.771
 11
76.2845
 21
-206.771
  0
LINE
  8
0
 10
76.2845
 20
-206.771
 11
76.6647
 21
-206.462
  0
LINE
  8
0
 10
76.6647
 20
-206.462
 11
77.1144
 21
-206.267
  0
LINE
  8
0
 10
77.1144
 20
-206.267
 11
77.6
 21
-206.2
  0
LINE
  8
0
 10
77.6
 20
-206.2
 11
78.0856
 21
-206.267
  0
LINE
  8
0
 10
78.0856
 20
-206.267
 11
78.5352
 21
-206.462
  0
LINE
  8
0
 10
78.5352
 20
-206.462
 11
78.9155
 21
-206.771
  0
LINE
  8
0
 10
78.9155
 20
-206.771
 11
79.1982
 21
-207.172
  0
LINE
  8
0
 10
79.1982
 20
-207.172
 11
79.3624
 21
-207.634
  0
LINE
  8
0
 10
79.3624
 20
-207.634
 11
79.3958
 21
-208.123
  0
LINE
  8
0
 10
79.3958
 20
-208.123
 11
79.2961
 21
-208.603
  0
LINE
  8
0
 10
79.2961
 20
-208.603
 11
79.0705
 21
-209.038
  0
LINE
  8
0
 10
79.0705
 20
-209.038
 11
78.7359
 21
-209.396
  0
LINE
  8
0
 10
78.7359
 20
-209.396
 11
76.7359
 21
-211.396
  0
LINE
  8
0
 10
76.7359
 20
-211.396
 11
76.3171
 21
-211.651
  0
LINE
  8
0
 10
76.3171
 20
-211.651
 11
75.8451
 21
-211.783
  0
LINE
  8
0
 10
75.8451
 20
-211.783
 11
75.3549
 21
-211.783
  0
LINE
  8
0
 10
46.2338
 20
-211.762
 11
45.7719
 21
-211.598
  0
LINE
  8
0
 10
45.7719
 20
-211.598
 11
45.3714
 21
-211.316
  0
LINE
  8
0
 10
45.3714
 20
-211.316
 11
43.3714
 21
-209.316
  0
LINE
  8
0
 10
43.3714
 20
-209.316
 11
43.062
 21
-208.935
  0
LINE
  8
0
 10
43.062
 20
-208.935
 11
42.8667
 21
-208.486
  0
LINE
  8
0
 10
42.8667
 20
-208.486
 11
42.8
 21
-208
  0
LINE
  8
0
 10
42.8
 20
-208
 11
42.8667
 21
-207.514
  0
LINE
  8
0
 10
42.8667
 20
-207.514
 11
43.062
 21
-207.065
  0
LINE
  8
0
 10
43.062
 20
-207.065
 11
43.3714
 21
-206.684
  0
LINE
  8
0
 10
43.3714
 20
-206.684
 11
43.7719
 21
-206.402
  0
LINE
  8
0
 10
43.7719
 20
-206.402
 11
44.2338
 21
-206.238
  0
LINE
  8
0
 10
44.2338
 20
-206.238
 11
44.7228
 21
-206.204
  0
LINE
  8
0
 10
44.7228
 20
-206.204
 11
45.2028
 21
-206.304
  0
LINE
  8
0
 10
45.2028
 20
-206.304
 11
45.638
 21
-206.529
  0
LINE
  8
0
 10
45.638
 20
-206.529
 11
45.9963
 21
-206.864
  0
LINE
  8
0
 10
45.9963
 20
-206.864
 11
47.9963
 21
-208.864
  0
LINE
  8
0
 10
47.9963
 20
-208.864
 11
48.251
 21
-209.283
  0
LINE
  8
0
 10
48.251
 20
-209.283
 11
48.3832
 21
-209.755
  0
LINE
  8
0
 10
48.3832
 20
-209.755
 11
48.3832
 21
-210.245
  0
LINE
  8
0
 10
48.3832
 20
-210.245
 11
48.251
 21
-210.717
  0
LINE
  8
0
 10
48.251
 20
-210.717
 11
47.9963
 21
-211.136
  0
LINE
  8
0
 10
47.9963
 20
-211.136
 11
47.638
 21
-211.471
  0
LINE
  8
0
 10
47.638
 20
-211.471
 11
47.2028
 21
-211.696
  0
LINE
  8
0
 10
47.2028
 20
-211.696
 11
46.7228
 21
-211.796
  0
LINE
  8
0
 10
46.7228
 20
-211.796
 11
46.2338
 21
-211.762
  0
LINE
  8
0
 10
9.85088
 20
-212.688
 11
9.3611
 21
-212.597
  0
LINE
  8
0
 10
9.3611
 20
-212.597
 11
8.8965
 21
-212.417
  0
LINE
  8
0
 10
8.8965
 20
-212.417
 11
8.47289
 21
-212.155
  0
LINE
  8
0
 10
8.47289
 20
-212.155
 11
8.10468
 21
-211.819
  0
LINE
  8
0
 10
8.10468
 20
-211.819
 11
7.80441
 21
-211.421
  0
LINE
  8
0
 10
7.80441
 20
-211.421
 11
7.58232
 21
-210.975
  0
LINE
  8
0
 10
7.58232
 20
-210.975
 11
7.44597
 21
-210.496
  0
LINE
  8
0
 10
7.44597
 20
-210.496
 11
7.39999
 21
-210
  0
LINE
  8
0
 10
7.39999
 20
-210
 11
7.44597
 21
-209.504
  0
LINE
  8
0
 10
7.44597
 20
-209.504
 11
7.58232
 21
-209.025
  0
LINE
  8
0
 10
7.58232
 20
-209.025
 11
7.80441
 21
-208.579
  0
LINE
  8
0
 10
7.80441
 20
-208.579
 11
8.10468
 21
-208.181
  0
LINE
  8
0
 10
8.10468
 20
-208.181
 11
8.47289
 21
-207.845
  0
LINE
  8
0
 10
8.47289
 20
-207.845
 11
8.8965
 21
-207.583
  0
LINE
  8
0
 10
8.8965
 20
-207.583
 11
9.3611
 21
-207.403
  0
LINE
  8
0
 10
9.3611
 20
-207.403
 11
9.85088
 21
-207.312
  0
LINE
  8
0
 10
9.85088
 20
-207.312
 11
10.3491
 21
-207.312
  0
LINE
  8
0
 10
10.3491
 20
-207.312
 11
10.8389
 21
-207.403
  0
LINE
  8
0
 10
10.8389
 20
-207.403
 11
11.3035
 21
-207.583
  0
LINE
  8
0
 10
11.3035
 20
-207.583
 11
11.7271
 21
-207.845
  0
LINE
  8
0
 10
11.7271
 20
-207.845
 11
12.0953
 21
-208.181
  0
LINE
  8
0
 10
12.0953
 20
-208.181
 11
12.3956
 21
-208.579
  0
LINE
  8
0
 10
12.3956
 20
-208.579
 11
12.6177
 21
-209.025
  0
LINE
  8
0
 10
12.6177
 20
-209.025
 11
12.754
 21
-209.504
  0
LINE
  8
0
 10
12.754
 20
-209.504
 11
12.8
 21
-210
  0
LINE
  8
0
 10
12.8
 20
-210
 11
12.754
 21
-210.496
  0
LINE
  8
0
 10
12.754
 20
-210.496
 11
12.6177
 21
-210.975
  0
LINE
  8
0
 10
12.6177
 20
-210.975
 11
12.3956
 21
-211.421
  0
LINE
  8
0
 10
12.3956
 20
-211.421
 11
12.0953
 21
-211.819
  0
LINE
  8
0
 10
12.0953
 20
-211.819
 11
11.7271
 21
-212.155
  0
LINE
  8
0
 10
11.7271
 20
-212.155
 11
11.3035
 21
-212.417
  0
LINE
  8
0
 10
11.3035
 20
-212.417
 11
10.8389
 21
-212.597
  0
LINE
  8
0
 10
10.8389
 20
-212.597
 11
10.3491
 21
-212.688
  0
LINE
  8
0
 10
10.3491
 20
-212.688
 11
9.85088
 21
-212.688
  0
LINE
  8
0
 10
60.7256
 20
-236.494
 11
60.2269
 21
-236.468
  0
LINE
  8
0
 10
60.2269
 20
-236.468
 11
59.7298
 21
-236.422
  0
LINE
  8
0
 10
59.7298
 20
-236.422
 11
59.2351
 21
-236.354
  0
LINE
  8
0
 10
59.2351
 20
-236.354
 11
58.7436
 21
-236.266
  0
LINE
  8
0
 10
58.7436
 20
-236.266
 11
58.2562
 21
-236.158
  0
LINE
  8
0
 10
58.2562
 20
-236.158
 11
57.7737
 21
-236.03
  0
LINE
  8
0
 10
57.7737
 20
-236.03
 11
57.2969
 21
-235.881
  0
LINE
  8
0
 10
57.2969
 20
-235.881
 11
56.8268
 21
-235.713
  0
LINE
  8
0
 10
56.8268
 20
-235.713
 11
56.364
 21
-235.526
  0
LINE
  8
0
 10
56.364
 20
-235.526
 11
55.9095
 21
-235.319
  0
LINE
  8
0
 10
55.9095
 20
-235.319
 11
55.4639
 21
-235.094
  0
LINE
  8
0
 10
55.4639
 20
-235.094
 11
55.0281
 21
-234.85
  0
LINE
  8
0
 10
55.0281
 20
-234.85
 11
54.6028
 21
-234.589
  0
LINE
  8
0
 10
54.6028
 20
-234.589
 11
54.1887
 21
-234.31
  0
LINE
  8
0
 10
54.1887
 20
-234.31
 11
53.7866
 21
-234.014
  0
LINE
  8
0
 10
53.7866
 20
-234.014
 11
53.3972
 21
-233.701
  0
LINE
  8
0
 10
53.3972
 20
-233.701
 11
53.0211
 21
-233.373
  0
LINE
  8
0
 10
53.0211
 20
-233.373
 11
52.659
 21
-233.029
  0
LINE
  8
0
 10
52.659
 20
-233.029
 11
52.3115
 21
-232.671
  0
LINE
  8
0
 10
52.3115
 20
-232.671
 11
51.9792
 21
-232.298
  0
LINE
  8
0
 10
51.9792
 20
-232.298
 11
51.6627
 21
-231.912
  0
LINE
  8
0
 10
51.6627
 20
-231.912
 11
51.3625
 21
-231.513
  0
LINE
  8
0
 10
51.3625
 20
-231.513
 11
51.0792
 21
-231.102
  0
LINE
  8
0
 10
51.0792
 20
-231.102
 11
50.8133
 21
-230.679
  0
LINE
  8
0
 10
50.8133
 20
-230.679
 11
50.5651
 21
-230.246
  0
LINE
  8
0
 10
50.5651
 20
-230.246
 11
50.3352
 21
-229.803
  0
LINE
  8
0
 10
50.3352
 20
-229.803
 11
50.1239
 21
-229.35
  0
LINE
  8
0
 10
50.1239
 20
-229.35
 11
49.9317
 21
-228.89
  0
LINE
  8
0
 10
49.9317
 20
-228.89
 11
49.7587
 21
-228.421
  0
LINE
  8
0
 10
49.7587
 20
-228.421
 11
49.6055
 21
-227.946
  0
LINE
  8
0
 10
49.6055
 20
-227.946
 11
49.472
 21
-227.465
  0
LINE
  8
0
 10
49.472
 20
-227.465
 11
49.3588
 21
-226.979
  0
LINE
  8
0
 10
49.3588
 20
-226.979
 11
49.2658
 21
-226.488
  0
LINE
  8
0
 10
49.2658
 20
-226.488
 11
49.1934
 21
-225.994
  0
LINE
  8
0
 10
49.1934
 20
-225.994
 11
49.1415
 21
-225.497
  0
LINE
  8
0
 10
49.1415
 20
-225.497
 11
49.1104
 21
-224.999
  0
LINE
  8
0
 10
49.1104
 20
-224.999
 11
49.1
 21
-224.5
  0
LINE
  8
0
 10
49.1
 20
-224.5
 11
49.1104
 21
-224.001
  0
LINE
  8
0
 10
49.1104
 20
-224.001
 11
49.1415
 21
-223.503
  0
LINE
  8
0
 10
49.1415
 20
-223.503
 11
49.1934
 21
-223.006
  0
LINE
  8
0
 10
49.1934
 20
-223.006
 11
49.2658
 21
-222.512
  0
LINE
  8
0
 10
49.2658
 20
-222.512
 11
49.3588
 21
-222.021
  0
LINE
  8
0
 10
49.3588
 20
-222.021
 11
49.472
 21
-221.535
  0
LINE
  8
0
 10
49.472
 20
-221.535
 11
49.6055
 21
-221.054
  0
LINE
  8
0
 10
49.6055
 20
-221.054
 11
49.7587
 21
-220.579
  0
LINE
  8
0
 10
49.7587
 20
-220.579
 11
49.9317
 21
-220.11
  0
LINE
  8
0
 10
49.9317
 20
-220.11
 11
50.1239
 21
-219.65
  0
LINE
  8
0
 10
50.1239
 20
-219.65
 11
50.3352
 21
-219.197
  0
LINE
  8
0
 10
50.3352
 20
-219.197
 11
50.5651
 21
-218.754
  0
LINE
  8
0
 10
50.5651
 20
-218.754
 11
50.8133
 21
-218.321
  0
LINE
  8
0
 10
50.8133
 20
-218.321
 11
51.0792
 21
-217.898
  0
LINE
  8
0
 10
51.0792
 20
-217.898
 11
51.3625
 21
-217.487
  0
LINE
  8
0
 10
51.3625
 20
-217.487
 11
51.6627
 21
-217.088
  0
LINE
  8
0
 10
51.6627
 20
-217.088
 11
51.9792
 21
-216.702
  0
LINE
  8
0
 10
51.9792
 20
-216.702
 11
52.3115
 21
-216.329
  0
LINE
  8
0
 10
52.3115
 20
-216.329
 11
52.659
 21
-215.971
  0
LINE
  8
0
 10
52.659
 20
-215.971
 11
53.0211
 21
-215.627
  0
LINE
  8
0
 10
53.0211
 20
-215.627
 11
53.3972
 21
-215.299
  0
LINE
  8
0
 10
53.3972
 20
-215.299
 11
53.7866
 21
-214.986
  0
LINE
  8
0
 10
53.7866
 20
-214.986
 11
54.1887
 21
-214.69
  0
LINE
  8
0
 10
54.1887
 20
-214.69
 11
54.6028
 21
-214.411
  0
LINE
  8
0
 10
54.6028
 20
-214.411
 11
55.0281
 21
-214.15
  0
LINE
  8
0
 10
55.0281
 20
-214.15
 11
55.4639
 21
-213.906
  0
LINE
  8
0
 10
55.4639
 20
-213.906
 11
55.9095
 21
-213.681
  0
LINE
  8
0
 10
55.9095
 20
-213.681
 11
56.364
 21
-213.474
  0
LINE
  8
0
 10
56.364
 20
-213.474
 11
56.8268
 21
-213.287
  0
LINE
  8
0
 10
56.8268
 20
-213.287
 11
57.2969
 21
-213.119
  0
LINE
  8
0
 10
57.2969
 20
-213.119
 11
57.7737
 21
-212.97
  0
LINE
  8
0
 10
57.7737
 20
-212.97
 11
58.2562
 21
-212.842
  0
LINE
  8
0
 10
58.2562
 20
-212.842
 11
58.7436
 21
-212.734
  0
LINE
  8
0
 10
58.7436
 20
-212.734
 11
59.2351
 21
-212.646
  0
LINE
  8
0
 10
59.2351
 20
-212.646
 11
59.7298
 21
-212.578
  0
LINE
  8
0
 10
59.7298
 20
-212.578
 11
60.2269
 21
-212.532
  0
LINE
  8
0
 10
60.2269
 20
-212.532
 11
60.7256
 21
-212.506
  0
LINE
  8
0
 10
60.7256
 20
-212.506
 11
61.2248
 21
-212.501
  0
LINE
  8
0
 10
61.2248
 20
-212.501
 11
61.7239
 21
-212.516
  0
LINE
  8
0
 10
61.7239
 20
-212.516
 11
62.2218
 21
-212.553
  0
LINE
  8
0
 10
62.2218
 20
-212.553
 11
62.7179
 21
-212.61
  0
LINE
  8
0
 10
62.7179
 20
-212.61
 11
63.2111
 21
-212.687
  0
LINE
  8
0
 10
63.2111
 20
-212.687
 11
63.7007
 21
-212.785
  0
LINE
  8
0
 10
63.7007
 20
-212.785
 11
64.1857
 21
-212.904
  0
LINE
  8
0
 10
64.1857
 20
-212.904
 11
64.6655
 21
-213.042
  0
LINE
  8
0
 10
64.6655
 20
-213.042
 11
65.139
 21
-213.2
  0
LINE
  8
0
 10
65.139
 20
-213.2
 11
65.6056
 21
-213.378
  0
LINE
  8
0
 10
65.6056
 20
-213.378
 11
66.0643
 21
-213.575
  0
LINE
  8
0
 10
66.0643
 20
-213.575
 11
66.5145
 21
-213.791
  0
LINE
  8
0
 10
66.5145
 20
-213.791
 11
66.9553
 21
-214.025
  0
LINE
  8
0
 10
66.9553
 20
-214.025
 11
67.3859
 21
-214.278
  0
LINE
  8
0
 10
67.3859
 20
-214.278
 11
67.8057
 21
-214.548
  0
LINE
  8
0
 10
67.8057
 20
-214.548
 11
68.2139
 21
-214.836
  0
LINE
  8
0
 10
68.2139
 20
-214.836
 11
68.6097
 21
-215.14
  0
LINE
  8
0
 10
68.6097
 20
-215.14
 11
68.9926
 21
-215.461
  0
LINE
  8
0
 10
68.9926
 20
-215.461
 11
69.3618
 21
-215.797
  0
LINE
  8
0
 10
69.3618
 20
-215.797
 11
69.7166
 21
-216.148
  0
LINE
  8
0
 10
69.7166
 20
-216.148
 11
70.0566
 21
-216.514
  0
LINE
  8
0
 10
70.0566
 20
-216.514
 11
70.3811
 21
-216.893
  0
LINE
  8
0
 10
70.3811
 20
-216.893
 11
70.6895
 21
-217.286
  0
LINE
  8
0
 10
70.6895
 20
-217.286
 11
70.9812
 21
-217.691
  0
LINE
  8
0
 10
70.9812
 20
-217.691
 11
71.2559
 21
-218.108
  0
LINE
  8
0
 10
71.2559
 20
-218.108
 11
71.513
 21
-218.536
  0
LINE
  8
0
 10
71.513
 20
-218.536
 11
71.7521
 21
-218.974
  0
LINE
  8
0
 10
71.7521
 20
-218.974
 11
71.9728
 21
-219.422
  0
LINE
  8
0
 10
71.9728
 20
-219.422
 11
72.1746
 21
-219.879
  0
LINE
  8
0
 10
72.1746
 20
-219.879
 11
72.3572
 21
-220.344
  0
LINE
  8
0
 10
72.3572
 20
-220.344
 11
72.5204
 21
-220.816
  0
LINE
  8
0
 10
72.5204
 20
-220.816
 11
72.6637
 21
-221.294
  0
LINE
  8
0
 10
72.6637
 20
-221.294
 11
72.7871
 21
-221.778
  0
LINE
  8
0
 10
72.7871
 20
-221.778
 11
72.8902
 21
-222.266
  0
LINE
  8
0
 10
72.8902
 20
-222.266
 11
72.973
 21
-222.759
  0
LINE
  8
0
 10
72.973
 20
-222.759
 11
73.0351
 21
-223.254
  0
LINE
  8
0
 10
73.0351
 20
-223.254
 11
73.0766
 21
-223.751
  0
LINE
  8
0
 10
73.0766
 20
-223.751
 11
73.0974
 21
-224.25
  0
LINE
  8
0
 10
73.0974
 20
-224.25
 11
73.0974
 21
-224.75
  0
LINE
  8
0
 10
73.0974
 20
-224.75
 11
73.0766
 21
-225.249
  0
LINE
  8
0
 10
73.0766
 20
-225.249
 11
73.0351
 21
-225.746
  0
LINE
  8
0
 10
73.0351
 20
-225.746
 11
72.973
 21
-226.241
  0
LINE
  8
0
 10
72.973
 20
-226.241
 11
72.8902
 21
-226.734
  0
LINE
  8
0
 10
72.8902
 20
-226.734
 11
72.7871
 21
-227.222
  0
LINE
  8
0
 10
72.7871
 20
-227.222
 11
72.6637
 21
-227.706
  0
LINE
  8
0
 10
72.6637
 20
-227.706
 11
72.5204
 21
-228.184
  0
LINE
  8
0
 10
72.5204
 20
-228.184
 11
72.3572
 21
-228.656
  0
LINE
  8
0
 10
72.3572
 20
-228.656
 11
72.1746
 21
-229.121
  0
LINE
  8
0
 10
72.1746
 20
-229.121
 11
71.9728
 21
-229.578
  0
LINE
  8
0
 10
71.9728
 20
-229.578
 11
71.7521
 21
-230.026
  0
LINE
  8
0
 10
71.7521
 20
-230.026
 11
71.513
 21
-230.464
  0
LINE
  8
0
 10
71.513
 20
-230.464
 11
71.2559
 21
-230.892
  0
LINE
  8
0
 10
71.2559
 20
-230.892
 11
70.9812
 21
-231.309
  0
LINE
  8
0
 10
70.9812
 20
-231.309
 11
70.6895
 21
-231.714
  0
LINE
  8
0
 10
70.6895
 20
-231.714
 11
70.3811
 21
-232.107
  0
LINE
  8
0
 10
70.3811
 20
-232.107
 11
70.0566
 21
-232.486
  0
LINE
  8
0
 10
70.0566
 20
-232.486
 11
69.7166
 21
-232.852
  0
LINE
  8
0
 10
69.7166
 20
-232.852
 11
69.3618
 21
-233.203
  0
LINE
  8
0
 10
69.3618
 20
-233.203
 11
68.9926
 21
-233.539
  0
LINE
  8
0
 10
68.9926
 20
-233.539
 11
68.6097
 21
-233.86
  0
LINE
  8
0
 10
68.6097
 20
-233.86
 11
68.2139
 21
-234.164
  0
LINE
  8
0
 10
68.2139
 20
-234.164
 11
67.8057
 21
-234.452
  0
LINE
  8
0
 10
67.8057
 20
-234.452
 11
67.3859
 21
-234.722
  0
LINE
  8
0
 10
67.3859
 20
-234.722
 11
66.9553
 21
-234.975
  0
LINE
  8
0
 10
66.9553
 20
-234.975
 11
66.5145
 21
-235.209
  0
LINE
  8
0
 10
66.5145
 20
-235.209
 11
66.0643
 21
-235.425
  0
LINE
  8
0
 10
66.0643
 20
-235.425
 11
65.6056
 21
-235.622
  0
LINE
  8
0
 10
65.6056
 20
-235.622
 11
65.139
 21
-235.8
  0
LINE
  8
0
 10
65.139
 20
-235.8
 11
64.6655
 21
-235.958
  0
LINE
  8
0
 10
64.6655
 20
-235.958
 11
64.1857
 21
-236.096
  0
LINE
  8
0
 10
64.1857
 20
-236.096
 11
63.7007
 21
-236.215
  0
LINE
  8
0
 10
63.7007
 20
-236.215
 11
63.2111
 21
-236.313
  0
LINE
  8
0
 10
63.2111
 20
-236.313
 11
62.7179
 21
-236.39
  0
LINE
  8
0
 10
62.7179
 20
-236.39
 11
62.2218
 21
-236.447
  0
LINE
  8
0
 10
62.2218
 20
-236.447
 11
61.7239
 21
-236.484
  0
LINE
  8
0
 10
61.7239
 20
-236.484
 11
61.2248
 21
-236.499
  0
LINE
  8
0
 10
61.2248
 20
-236.499
 11
60.7256
 21
-236.494
  0
LINE
  8
0
 10
29.8509
 20
-232.688
 11
29.3611
 21
-232.597
  0
LINE
  8
0
 10
29.3611
 20
-232.597
 11
28.8965
 21
-232.417
  0
LINE
  8
0
 10
28.8965
 20
-232.417
 11
28.4729
 21
-232.155
  0
LINE
  8
0
 10
28.4729
 20
-232.155
 11
28.1047
 21
-231.819
  0
LINE
  8
0
 10
28.1047
 20
-231.819
 11
27.8044
 21
-231.421
  0
LINE
  8
0
 10
27.8044
 20
-231.421
 11
27.5823
 21
-230.975
  0
LINE
  8
0
 10
27.5823
 20
-230.975
 11
27.446
 21
-230.496
  0
LINE
  8
0
 10
27.446
 20
-230.496
 11
27.4
 21
-230
  0
LINE
  8
0
 10
27.4
 20
-230
 11
27.446
 21
-229.504
  0
LINE
  8
0
 10
27.446
 20
-229.504
 11
27.5823
 21
-229.025
  0
LINE
  8
0
 10
27.5823
 20
-229.025
 11
27.8044
 21
-228.579
  0
LINE
  8
0
 10
27.8044
 20
-228.579
 11
28.1047
 21
-228.181
  0
LINE
  8
0
 10
28.1047
 20
-228.181
 11
28.4729
 21
-227.845
  0
LINE
  8
0
 10
28.4729
 20
-227.845
 11
28.8965
 21
-227.583
  0
LINE
  8
0
 10
28.8965
 20
-227.583
 11
29.3611
 21
-227.403
  0
LINE
  8
0
 10
29.3611
 20
-227.403
 11
29.8509
 21
-227.312
  0
LINE
  8
0
 10
29.8509
 20
-227.312
 11
30.3491
 21
-227.312
  0
LINE
  8
0
 10
30.3491
 20
-227.312
 11
30.8389
 21
-227.403
  0
LINE
  8
0
 10
30.8389
 20
-227.403
 11
31.3035
 21
-227.583
  0
LINE
  8
0
 10
31.3035
 20
-227.583
 11
31.7271
 21
-227.845
  0
LINE
  8
0
 10
31.7271
 20
-227.845
 11
32.0953
 21
-228.181
  0
LINE
  8
0
 10
32.0953
 20
-228.181
 11
32.3956
 21
-228.579
  0
LINE
  8
0
 10
32.3956
 20
-228.579
 11
32.6177
 21
-229.025
  0
LINE
  8
0
 10
32.6177
 20
-229.025
 11
32.754
 21
-229.504
  0
LINE
  8
0
 10
32.754
 20
-229.504
 11
32.8
 21
-230
  0
LINE
  8
0
 10
32.8
 20
-230
 11
32.754
 21
-230.496
  0
LINE
  8
0
 10
32.754
 20
-230.496
 11
32.6177
 21
-230.975
  0
LINE
  8
0
 10
32.6177
 20
-230.975
 11
32.3956
 21
-231.421
  0
LINE
  8
0
 10
32.3956
 20
-231.421
 11
32.0953
 21
-231.819
  0
LINE
  8
0
 10
32.0953
 20
-231.819
 11
31.7271
 21
-232.155
  0
LINE
  8
0
 10
31.7271
 20
-232.155
 11
31.3035
 21
-232.417
  0
LINE
  8
0
 10
31.3035
 20
-232.417
 11
30.8389
 21
-232.597
  0
LINE
  8
0
 10
30.8389
 20
-232.597
 11
30.3491
 21
-232.688
  0
LINE
  8
0
 10
30.3491
 20
-232.688
 11
29.8509
 21
-232.688
  0
LINE
  8
0
 10
76.9972
 20
-242.696
 11
76.562
 21
-242.471
  0
LINE
  8
0
 10
76.562
 20
-242.471
 11
76.2037
 21
-242.136
  0
LINE
  8
0
 10
76.2037
 20
-242.136
 11
74.2037
 21
-240.136
  0
LINE
  8
0
 10
74.2037
 20
-240.136
 11
73.949
 21
-239.717
  0
LINE
  8
0
 10
73.949
 20
-239.717
 11
73.8168
 21
-239.245
  0
LINE
  8
0
 10
73.8168
 20
-239.245
 11
73.8168
 21
-238.755
  0
LINE
  8
0
 10
73.8168
 20
-238.755
 11
73.949
 21
-238.283
  0
LINE
  8
0
 10
73.949
 20
-238.283
 11
74.2037
 21
-237.864
  0
LINE
  8
0
 10
74.2037
 20
-237.864
 11
74.562
 21
-237.529
  0
LINE
  8
0
 10
74.562
 20
-237.529
 11
74.9972
 21
-237.304
  0
LINE
  8
0
 10
74.9972
 20
-237.304
 11
75.4772
 21
-237.204
  0
LINE
  8
0
 10
75.4772
 20
-237.204
 11
75.9662
 21
-237.238
  0
LINE
  8
0
 10
75.9662
 20
-237.238
 11
76.4281
 21
-237.402
  0
LINE
  8
0
 10
76.4281
 20
-237.402
 11
76.8286
 21
-237.684
  0
LINE
  8
0
 10
76.8286
 20
-237.684
 11
78.8286
 21
-239.684
  0
LINE
  8
0
 10
78.8286
 20
-239.684
 11
79.138
 21
-240.065
  0
LINE
  8
0
 10
79.138
 20
-240.065
 11
79.3333
 21
-240.514
  0
LINE
  8
0
 10
79.3333
 20
-240.514
 11
79.4
 21
-241
  0
LINE
  8
0
 10
79.4
 20
-241
 11
79.3333
 21
-241.486
  0
LINE
  8
0
 10
79.3333
 20
-241.486
 11
79.138
 21
-241.935
  0
LINE
  8
0
 10
79.138
 20
-241.935
 11
78.8286
 21
-242.316
  0
LINE
  8
0
 10
78.8286
 20
-242.316
 11
78.4281
 21
-242.598
  0
LINE
  8
0
 10
78.4281
 20
-242.598
 11
77.9662
 21
-242.762
  0
LINE
  8
0
 10
77.9662
 20
-242.762
 11
77.4772
 21
-242.796
  0
LINE
  8
0
 10
77.4772
 20
-242.796
 11
76.9972
 21
-242.696
  0
LINE
  8
0
 10
44.1144
 20
-242.733
 11
43.6647
 21
-242.538
  0
LINE
  8
0
 10
43.6647
 20
-242.538
 11
43.2845
 21
-242.229
  0
LINE
  8
0
 10
43.2845
 20
-242.229
 11
43.0018
 21
-241.828
  0
LINE
  8
0
 10
43.0018
 20
-241.828
 11
42.8376
 21
-241.366
  0
LINE
  8
0
 10
42.8376
 20
-241.366
 11
42.8042
 21
-240.877
  0
LINE
  8
0
 10
42.8042
 20
-240.877
 11
42.9039
 21
-240.397
  0
LINE
  8
0
 10
42.9039
 20
-240.397
 11
43.1295
 21
-239.962
  0
LINE
  8
0
 10
43.1295
 20
-239.962
 11
43.464
 21
-239.604
  0
LINE
  8
0
 10
43.464
 20
-239.604
 11
45.464
 21
-237.604
  0
LINE
  8
0
 10
45.464
 20
-237.604
 11
45.8829
 21
-237.349
  0
LINE
  8
0
 10
45.8829
 20
-237.349
 11
46.3549
 21
-237.217
  0
LINE
  8
0
 10
46.3549
 20
-237.217
 11
46.8451
 21
-237.217
  0
LINE
  8
0
 10
46.8451
 20
-237.217
 11
47.3171
 21
-237.349
  0
LINE
  8
0
 10
47.3171
 20
-237.349
 11
47.7359
 21
-237.604
  0
LINE
  8
0
 10
47.7359
 20
-237.604
 11
48.0705
 21
-237.962
  0
LINE
  8
0
 10
48.0705
 20
-237.962
 11
48.2961
 21
-238.397
  0
LINE
  8
0
 10
48.2961
 20
-238.397
 11
48.3958
 21
-238.877
  0
LINE
  8
0
 10
48.3958
 20
-238.877
 11
48.3624
 21
-239.366
  0
LINE
  8
0
 10
48.3624
 20
-239.366
 11
48.1982
 21
-239.828
  0
LINE
  8
0
 10
48.1982
 20
-239.828
 11
47.9155
 21
-240.229
  0
LINE
  8
0
 10
47.9155
 20
-240.229
 11
45.9155
 21
-242.229
  0
LINE
  8
0
 10
45.9155
 20
-242.229
 11
45.5352
 21
-242.538
  0
LINE
  8
0
 10
45.5352
 20
-242.538
 11
45.0856
 21
-242.733
  0
LINE
  8
0
 10
45.0856
 20
-242.733
 11
44.6
 21
-242.8
  0
LINE
  8
0
 10
44.6
 20
-242.8
 11
44.1144
 21
-242.733
  0
LINE
  8
0
 10
-49.6014
 20
-269.994
 11
-49.1031
 21
-269.975
  0
LINE
  8
0
 10
-49.1031
 20
-269.975
 11
-48.6054
 21
-269.944
  0
LINE
  8
0
 10
-48.6054
 20
-269.944
 11
-48.1086
 21
-269.901
  0
LINE
  8
0
 10
-48.1086
 20
-269.901
 11
-47.6131
 21
-269.845
  0
LINE
  8
0
 10
-47.6131
 20
-269.845
 11
-47.1192
 21
-269.777
  0
LINE
  8
0
 10
-47.1192
 20
-269.777
 11
-46.627
 21
-269.696
  0
LINE
  8
0
 10
-46.627
 20
-269.696
 11
-46.1371
 21
-269.603
  0
LINE
  8
0
 10
-46.1371
 20
-269.603
 11
-45.6496
 21
-269.499
  0
LINE
  8
0
 10
-45.6496
 20
-269.499
 11
-45.1648
 21
-269.382
  0
LINE
  8
0
 10
-45.1648
 20
-269.382
 11
-44.6832
 21
-269.252
  0
LINE
  8
0
 10
-44.6832
 20
-269.252
 11
-44.2049
 21
-269.111
  0
LINE
  8
0
 10
-44.2049
 20
-269.111
 11
-43.7303
 21
-268.959
  0
LINE
  8
0
 10
-43.7303
 20
-268.959
 11
-43.2596
 21
-268.794
  0
LINE
  8
0
 10
-43.2596
 20
-268.794
 11
-42.7932
 21
-268.617
  0
LINE
  8
0
 10
-42.7932
 20
-268.617
 11
-42.3313
 21
-268.43
  0
LINE
  8
0
 10
-42.3313
 20
-268.43
 11
-41.8743
 21
-268.23
  0
LINE
  8
0
 10
-41.8743
 20
-268.23
 11
-41.4223
 21
-268.019
  0
LINE
  8
0
 10
-41.4223
 20
-268.019
 11
-40.9758
 21
-267.797
  0
LINE
  8
0
 10
-40.9758
 20
-267.797
 11
-40.5349
 21
-267.564
  0
LINE
  8
0
 10
-40.5349
 20
-267.564
 11
-40.1
 21
-267.32
  0
LINE
  8
0
 10
-40.1
 20
-267.32
 11
-40.1
 21
-266
  0
LINE
  8
0
 10
-40.1
 20
-266
 11
-48.1
 21
-266
  0
LINE
  8
0
 10
-48.1
 20
-266
 11
-48.1
 21
-254
  0
LINE
  8
0
 10
-48.1
 20
-254
 11
-40.1
 21
-254
  0
LINE
  8
0
 10
-40.1
 20
-254
 11
-40.1
 21
-250
  0
LINE
  8
0
 10
-40.1
 20
-250
 11
-14.0464
 21
-250
  0
LINE
  8
0
 10
-14.0464
 20
-250
 11
-8.83359
 21
-246.525
  0
LINE
  8
0
 10
-8.83359
 20
-246.525
 11
-8.42513
 21
-246.239
  0
LINE
  8
0
 10
-8.42513
 20
-246.239
 11
-8.02391
 21
-245.943
  0
LINE
  8
0
 10
-8.02391
 20
-245.943
 11
-7.6302
 21
-245.637
  0
LINE
  8
0
 10
-7.6302
 20
-245.637
 11
-7.24425
 21
-245.321
  0
LINE
  8
0
 10
-7.24425
 20
-245.321
 11
-6.86627
 21
-244.996
  0
LINE
  8
0
 10
-6.86627
 20
-244.996
 11
-6.49654
 21
-244.661
  0
LINE
  8
0
 10
-6.49654
 20
-244.661
 11
-6.13525
 21
-244.317
  0
LINE
  8
0
 10
-6.13525
 20
-244.317
 11
-5.78265
 21
-243.965
  0
LINE
  8
0
 10
-5.78265
 20
-243.965
 11
-5.43895
 21
-243.603
  0
LINE
  8
0
 10
-5.43895
 20
-243.603
 11
-5.10437
 21
-243.234
  0
LINE
  8
0
 10
-5.10437
 20
-243.234
 11
-4.7791
 21
-242.856
  0
LINE
  8
0
 10
-4.7791
 20
-242.856
 11
-4.46336
 21
-242.47
  0
LINE
  8
0
 10
-4.46336
 20
-242.47
 11
-4.15735
 21
-242.076
  0
LINE
  8
0
 10
-4.15735
 20
-242.076
 11
-3.86124
 21
-241.675
  0
LINE
  8
0
 10
-3.86124
 20
-241.675
 11
-3.57521
 21
-241.266
  0
LINE
  8
0
 10
-3.57521
 20
-241.266
 11
-3.29947
 21
-240.851
  0
LINE
  8
0
 10
-3.29947
 20
-240.851
 11
-3.03418
 21
-240.429
  0
LINE
  8
0
 10
-3.03418
 20
-240.429
 11
-2.77948
 21
-240
  0
LINE
  8
0
 10
-2.77948
 20
-240
 11
-2.53557
 21
-239.565
  0
LINE
  8
0
 10
-2.53557
 20
-239.565
 11
-2.30255
 21
-239.124
  0
LINE
  8
0
 10
-2.30255
 20
-239.124
 11
-2.08061
 21
-238.678
  0
LINE
  8
0
 10
-2.08061
 20
-238.678
 11
-1.86987
 21
-238.226
  0
LINE
  8
0
 10
-1.86987
 20
-238.226
 11
-1.67047
 21
-237.769
  0
LINE
  8
0
 10
-1.67047
 20
-237.769
 11
-1.48251
 21
-237.307
  0
LINE
  8
0
 10
-1.48251
 20
-237.307
 11
-1.30614
 21
-236.84
  0
LINE
  8
0
 10
-1.30614
 20
-236.84
 11
-1.14145
 21
-236.37
  0
LINE
  8
0
 10
-1.14145
 20
-236.37
 11
-0.988541
 21
-235.895
  0
LINE
  8
0
 10
-0.988541
 20
-235.895
 11
-0.847504
 21
-235.417
  0
LINE
  8
0
 10
-0.847504
 20
-235.417
 11
-0.718445
 21
-234.935
  0
LINE
  8
0
 10
-0.718445
 20
-234.935
 11
-0.60144
 21
-234.45
  0
LINE
  8
0
 10
-0.60144
 20
-234.45
 11
-0.496536
 21
-233.963
  0
LINE
  8
0
 10
-0.496536
 20
-233.963
 11
-0.403839
 21
-233.473
  0
LINE
  8
0
 10
-0.403839
 20
-233.473
 11
-0.32338
 21
-232.981
  0
LINE
  8
0
 10
-0.32338
 20
-232.981
 11
-0.255203
 21
-232.487
  0
LINE
  8
0
 10
-0.255203
 20
-232.487
 11
-0.199371
 21
-231.991
  0
LINE
  8
0
 10
-0.199371
 20
-231.991
 11
-0.155914
 21
-231.495
  0
LINE
  8
0
 10
-0.155914
 20
-231.495
 11
-0.124847
 21
-230.997
  0
LINE
  8
0
 10
-0.124847
 20
-230.997
 11
-0.106216
 21
-230.499
  0
LINE
  8
0
 10
-0.106216
 20
-230.499
 11
-0.0999908
 21
-230
  0
LINE
  8
0
 10
-0.0999908
 20
-230
 11
-0.0999908
 21
-150
  0
LINE
  8
0
 10
-0.0999908
 20
-150
 11
-0.106216
 21
-149.501
  0
LINE
  8
0
 10
-0.106216
 20
-149.501
 11
-0.124847
 21
-149.003
  0
LINE
  8
0
 10
-0.124847
 20
-149.003
 11
-0.155914
 21
-148.505
  0
LINE
  8
0
 10
-0.155914
 20
-148.505
 11
-0.199371
 21
-148.009
  0
LINE
  8
0
 10
-0.199371
 20
-148.009
 11
-0.255203
 21
-147.513
  0
LINE
  8
0
 10
-0.255203
 20
-147.513
 11
-0.32338
 21
-147.019
  0
LINE
  8
0
 10
-0.32338
 20
-147.019
 11
-0.403839
 21
-146.527
  0
LINE
  8
0
 10
-0.403839
 20
-146.527
 11
-0.496536
 21
-146.037
  0
LINE
  8
0
 10
-0.496536
 20
-146.037
 11
-0.60144
 21
-145.55
  0
LINE
  8
0
 10
-0.60144
 20
-145.55
 11
-0.718445
 21
-145.065
  0
LINE
  8
0
 10
-0.718445
 20
-145.065
 11
-0.847504
 21
-144.583
  0
LINE
  8
0
 10
-0.847504
 20
-144.583
 11
-0.988541
 21
-144.105
  0
LINE
  8
0
 10
-0.988541
 20
-144.105
 11
-1.14145
 21
-143.63
  0
LINE
  8
0
 10
-1.14145
 20
-143.63
 11
-1.30614
 21
-143.16
  0
LINE
  8
0
 10
-1.30614
 20
-143.16
 11
-1.48251
 21
-142.693
  0
LINE
  8
0
 10
-1.48251
 20
-142.693
 11
-1.67047
 21
-142.231
  0
LINE
  8
0
 10
-1.67047
 20
-142.231
 11
-1.86987
 21
-141.774
  0
LINE
  8
0
 10
-1.86987
 20
-141.774
 11
-2.08061
 21
-141.322
  0
LINE
  8
0
 10
-2.08061
 20
-141.322
 11
-2.30255
 21
-140.876
  0
LINE
  8
0
 10
-2.30255
 20
-140.876
 11
-2.53557
 21
-140.435
  0
LINE
  8
0
 10
-2.53557
 20
-140.435
 11
-2.77948
 21
-140
  0
LINE
  8
0
 10
-2.77948
 20
-140
 11
-3.03418
 21
-139.571
  0
LINE
  8
0
 10
-3.03418
 20
-139.571
 11
-3.29947
 21
-139.149
  0
LINE
  8
0
 10
-3.29947
 20
-139.149
 11
-3.57521
 21
-138.734
  0
LINE
  8
0
 10
-3.57521
 20
-138.734
 11
-3.86124
 21
-138.325
  0
LINE
  8
0
 10
-3.86124
 20
-138.325
 11
-4.15735
 21
-137.924
  0
LINE
  8
0
 10
-4.15735
 20
-137.924
 11
-4.46336
 21
-137.53
  0
LINE
  8
0
 10
-4.46336
 20
-137.53
 11
-4.7791
 21
-137.144
  0
LINE
  8
0
 10
-4.7791
 20
-137.144
 11
-5.10437
 21
-136.766
  0
LINE
  8
0
 10
-5.10437
 20
-136.766
 11
-5.43895
 21
-136.397
  0
LINE
  8
0
 10
-5.43895
 20
-136.397
 11
-5.78265
 21
-136.035
  0
LINE
  8
0
 10
-5.78265
 20
-136.035
 11
-6.13525
 21
-135.683
  0
LINE
  8
0
 10
-6.13525
 20
-135.683
 11
-6.49654
 21
-135.339
  0
LINE
  8
0
 10
-6.49654
 20
-135.339
 11
-6.86627
 21
-135.004
  0
LINE
  8
0
 10
-6.86627
 20
-135.004
 11
-7.24425
 21
-134.679
  0
LINE
  8
0
 10
-7.24425
 20
-134.679
 11
-7.6302
 21
-134.363
  0
LINE
  8
0
 10
-7.6302
 20
-134.363
 11
-8.02391
 21
-134.057
  0
LINE
  8
0
 10
-8.02391
 20
-134.057
 11
-8.42513
 21
-133.761
  0
LINE
  8
0
 10
-8.42513
 20
-133.761
 11
-8.83359
 21
-133.475
  0
LINE
  8
0
 10
-8.83359
 20
-133.475
 11
-9.24907
 21
-133.199
  0
LINE
  8
0
 10
-9.24907
 20
-133.199
 11
-9.6713
 21
-132.934
  0
LINE
  8
0
 10
-9.6713
 20
-132.934
 11
-10.1
 21
-132.679
  0
LINE
  8
0
 10
-10.1
 20
-132.679
 11
-35.1
 21
-118.517
  0
LINE
  8
0
 10
-35.1
 20
-118.517
 11
-35.5349
 21
-118.273
  0
LINE
  8
0
 10
-35.5349
 20
-118.273
 11
-35.9758
 21
-118.04
  0
LINE
  8
0
 10
-35.9758
 20
-118.04
 11
-36.4223
 21
-117.818
  0
LINE
  8
0
 10
-36.4223
 20
-117.818
 11
-36.8743
 21
-117.607
  0
LINE
  8
0
 10
-36.8743
 20
-117.607
 11
-37.3313
 21
-117.408
  0
LINE
  8
0
 10
-37.3313
 20
-117.408
 11
-37.7932
 21
-117.22
  0
LINE
  8
0
 10
-37.7932
 20
-117.22
 11
-38.2596
 21
-117.044
  0
LINE
  8
0
 10
-38.2596
 20
-117.044
 11
-38.7303
 21
-116.879
  0
LINE
  8
0
 10
-38.7303
 20
-116.879
 11
-39.2049
 21
-116.726
  0
LINE
  8
0
 10
-39.2049
 20
-116.726
 11
-39.6832
 21
-116.585
  0
LINE
  8
0
 10
-39.6832
 20
-116.585
 11
-40.1648
 21
-116.456
  0
LINE
  8
0
 10
-40.1648
 20
-116.456
 11
-40.6496
 21
-116.339
  0
LINE
  8
0
 10
-40.6496
 20
-116.339
 11
-41.1371
 21
-116.234
  0
LINE
  8
0
 10
-41.1371
 20
-116.234
 11
-41.627
 21
-116.141
  0
LINE
  8
0
 10
-41.627
 20
-116.141
 11
-42.1192
 21
-116.061
  0
LINE
  8
0
 10
-42.1192
 20
-116.061
 11
-42.6131
 21
-115.993
  0
LINE
  8
0
 10
-42.6131
 20
-115.993
 11
-43.1086
 21
-115.937
  0
LINE
  8
0
 10
-43.1086
 20
-115.937
 11
-43.6054
 21
-115.893
  0
LINE
  8
0
 10
-43.6054
 20
-115.893
 11
-44.1031
 21
-115.862
  0
LINE
  8
0
 10
-44.1031
 20
-115.862
 11
-44.6014
 21
-115.844
  0
LINE
  8
0
 10
-44.6014
 20
-115.844
 11
-45.1
 21
-115.837
  0
LINE
  8
0
 10
-45.1
 20
-115.837
 11
-45.5986
 21
-115.844
  0
LINE
  8
0
 10
-45.5986
 20
-115.844
 11
-46.0969
 21
-115.862
  0
LINE
  8
0
 10
-46.0969
 20
-115.862
 11
-46.5946
 21
-115.893
  0
LINE
  8
0
 10
-46.5946
 20
-115.893
 11
-47.0914
 21
-115.937
  0
LINE
  8
0
 10
-47.0914
 20
-115.937
 11
-47.5869
 21
-115.993
  0
LINE
  8
0
 10
-47.5869
 20
-115.993
 11
-48.0808
 21
-116.061
  0
LINE
  8
0
 10
-48.0808
 20
-116.061
 11
-48.573
 21
-116.141
  0
LINE
  8
0
 10
-48.573
 20
-116.141
 11
-49.0629
 21
-116.234
  0
LINE
  8
0
 10
-49.0629
 20
-116.234
 11
-49.5504
 21
-116.339
  0
LINE
  8
0
 10
-49.5504
 20
-116.339
 11
-50.0351
 21
-116.456
  0
LINE
  8
0
 10
-50.0351
 20
-116.456
 11
-50.5168
 21
-116.585
  0
LINE
  8
0
 10
-50.5168
 20
-116.585
 11
-50.9951
 21
-116.726
  0
LINE
  8
0
 10
-50.9951
 20
-116.726
 11
-51.4697
 21
-116.879
  0
LINE
  8
0
 10
-51.4697
 20
-116.879
 11
-51.9404
 21
-117.044
  0
LINE
  8
0
 10
-51.9404
 20
-117.044
 11
-52.4068
 21
-117.22
  0
LINE
  8
0
 10
-52.4068
 20
-117.22
 11
-52.8687
 21
-117.408
  0
LINE
  8
0
 10
-52.8687
 20
-117.408
 11
-53.3257
 21
-117.607
  0
LINE
  8
0
 10
-53.3257
 20
-117.607
 11
-53.7777
 21
-117.818
  0
LINE
  8
0
 10
-53.7777
 20
-117.818
 11
-54.2242
 21
-118.04
  0
LINE
  8
0
 10
-54.2242
 20
-118.04
 11
-54.6651
 21
-118.273
  0
LINE
  8
0
 10
-54.6651
 20
-118.273
 11
-55.1
 21
-118.517
  0
LINE
  8
0
 10
-55.1
 20
-118.517
 11
-55.5287
 21
-118.772
  0
LINE
  8
0
 10
-55.5287
 20
-118.772
 11
-55.9509
 21
-119.037
  0
LINE
  8
0
 10
-55.9509
 20
-119.037
 11
-56.3664
 21
-119.313
  0
LINE
  8
0
 10
-56.3664
 20
-119.313
 11
-56.7749
 21
-119.599
  0
LINE
  8
0
 10
-56.7749
 20
-119.599
 11
-57.1761
 21
-119.895
  0
LINE
  8
0
 10
-57.1761
 20
-119.895
 11
-57.5698
 21
-120.201
  0
LINE
  8
0
 10
-57.5698
 20
-120.201
 11
-57.9557
 21
-120.517
  0
LINE
  8
0
 10
-57.9557
 20
-120.517
 11
-58.3337
 21
-120.842
  0
LINE
  8
0
 10
-58.3337
 20
-120.842
 11
-58.7034
 21
-121.176
  0
LINE
  8
0
 10
-58.7034
 20
-121.176
 11
-59.0647
 21
-121.52
  0
LINE
  8
0
 10
-59.0647
 20
-121.52
 11
-59.4173
 21
-121.873
  0
LINE
  8
0
 10
-59.4173
 20
-121.873
 11
-59.761
 21
-122.234
  0
LINE
  8
0
 10
-59.761
 20
-122.234
 11
-60.0956
 21
-122.604
  0
LINE
  8
0
 10
-60.0956
 20
-122.604
 11
-60.4209
 21
-122.982
  0
LINE
  8
0
 10
-60.4209
 20
-122.982
 11
-60.7366
 21
-123.368
  0
LINE
  8
0
 10
-60.7366
 20
-123.368
 11
-61.0426
 21
-123.761
  0
LINE
  8
0
 10
-61.0426
 20
-123.761
 11
-61.3388
 21
-124.163
  0
LINE
  8
0
 10
-61.3388
 20
-124.163
 11
-61.6248
 21
-124.571
  0
LINE
  8
0
 10
-61.6248
 20
-124.571
 11
-61.9005
 21
-124.987
  0
LINE
  8
0
 10
-61.9005
 20
-124.987
 11
-62.1658
 21
-125.409
  0
LINE
  8
0
 10
-62.1658
 20
-125.409
 11
-62.4205
 21
-125.837
  0
LINE
  8
0
 10
-62.4205
 20
-125.837
 11
-62.6644
 21
-126.272
  0
LINE
  8
0
 10
-62.6644
 20
-126.272
 11
-62.8974
 21
-126.713
  0
LINE
  8
0
 10
-62.8974
 20
-126.713
 11
-63.1194
 21
-127.16
  0
LINE
  8
0
 10
-63.1194
 20
-127.16
 11
-63.3301
 21
-127.612
  0
LINE
  8
0
 10
-63.3301
 20
-127.612
 11
-63.5295
 21
-128.069
  0
LINE
  8
0
 10
-63.5295
 20
-128.069
 11
-63.7175
 21
-128.531
  0
LINE
  8
0
 10
-63.7175
 20
-128.531
 11
-63.8938
 21
-128.997
  0
LINE
  8
0
 10
-63.8938
 20
-128.997
 11
-64.0585
 21
-129.468
  0
LINE
  8
0
 10
-64.0585
 20
-129.468
 11
-64.2115
 21
-129.942
  0
LINE
  8
0
 10
-64.2115
 20
-129.942
 11
-68.8196
 21
-144.572
  0
LINE
  8
0
 10
-68.8196
 20
-144.572
 11
-68.6126
 21
-144.873
  0
LINE
  8
0
 10
-68.6126
 20
-144.873
 11
-68.3467
 21
-145.295
  0
LINE
  8
0
 10
-68.3467
 20
-145.295
 11
-68.0985
 21
-145.728
  0
LINE
  8
0
 10
-68.0985
 20
-145.728
 11
-67.8686
 21
-146.172
  0
LINE
  8
0
 10
-67.8686
 20
-146.172
 11
-67.6573
 21
-146.624
  0
LINE
  8
0
 10
-67.6573
 20
-146.624
 11
-67.4651
 21
-147.085
  0
LINE
  8
0
 10
-67.4651
 20
-147.085
 11
-67.2921
 21
-147.553
  0
LINE
  8
0
 10
-67.2921
 20
-147.553
 11
-67.1388
 21
-148.028
  0
LINE
  8
0
 10
-67.1388
 20
-148.028
 11
-67.0054
 21
-148.509
  0
LINE
  8
0
 10
-67.0054
 20
-148.509
 11
-66.8922
 21
-148.996
  0
LINE
  8
0
 10
-66.8922
 20
-148.996
 11
-66.7992
 21
-149.486
  0
LINE
  8
0
 10
-66.7992
 20
-149.486
 11
-66.7268
 21
-149.98
  0
LINE
  8
0
 10
-66.7268
 20
-149.98
 11
-66.6749
 21
-150.477
  0
LINE
  8
0
 10
-66.6749
 20
-150.477
 11
-66.6438
 21
-150.975
  0
LINE
  8
0
 10
-66.6438
 20
-150.975
 11
-66.6334
 21
-151.474
  0
LINE
  8
0
 10
-66.6334
 20
-151.474
 11
-66.6438
 21
-151.974
  0
LINE
  8
0
 10
-66.6438
 20
-151.974
 11
-66.6749
 21
-152.472
  0
LINE
  8
0
 10
-66.6749
 20
-152.472
 11
-66.7268
 21
-152.968
  0
LINE
  8
0
 10
-66.7268
 20
-152.968
 11
-66.7992
 21
-153.462
  0
LINE
  8
0
 10
-66.7992
 20
-153.462
 11
-66.8922
 21
-153.953
  0
LINE
  8
0
 10
-66.8922
 20
-153.953
 11
-67.0054
 21
-154.439
  0
LINE
  8
0
 10
-67.0054
 20
-154.439
 11
-67.1388
 21
-154.92
  0
LINE
  8
0
 10
-67.1388
 20
-154.92
 11
-67.2921
 21
-155.396
  0
LINE
  8
0
 10
-67.2921
 20
-155.396
 11
-67.4651
 21
-155.864
  0
LINE
  8
0
 10
-67.4651
 20
-155.864
 11
-67.6573
 21
-156.325
  0
LINE
  8
0
 10
-67.6573
 20
-156.325
 11
-67.8686
 21
-156.777
  0
LINE
  8
0
 10
-67.8686
 20
-156.777
 11
-68.0985
 21
-157.22
  0
LINE
  8
0
 10
-68.0985
 20
-157.22
 11
-68.3467
 21
-157.654
  0
LINE
  8
0
 10
-68.3467
 20
-157.654
 11
-68.6126
 21
-158.076
  0
LINE
  8
0
 10
-68.6126
 20
-158.076
 11
-68.8959
 21
-158.487
  0
LINE
  8
0
 10
-68.8959
 20
-158.487
 11
-69.1961
 21
-158.886
  0
LINE
  8
0
 10
-69.1961
 20
-158.886
 11
-69.5126
 21
-159.272
  0
LINE
  8
0
 10
-69.5126
 20
-159.272
 11
-69.8448
 21
-159.645
  0
LINE
  8
0
 10
-69.8448
 20
-159.645
 11
-70.1924
 21
-160.004
  0
LINE
  8
0
 10
-70.1924
 20
-160.004
 11
-70.5545
 21
-160.347
  0
LINE
  8
0
 10
-70.5545
 20
-160.347
 11
-70.9306
 21
-160.676
  0
LINE
  8
0
 10
-70.9306
 20
-160.676
 11
-71.32
 21
-160.988
  0
LINE
  8
0
 10
-71.32
 20
-160.988
 11
-71.7221
 21
-161.284
  0
LINE
  8
0
 10
-71.7221
 20
-161.284
 11
-72.1362
 21
-161.563
  0
LINE
  8
0
 10
-72.1362
 20
-161.563
 11
-72.5615
 21
-161.825
  0
LINE
  8
0
 10
-72.5615
 20
-161.825
 11
-72.9973
 21
-162.068
  0
LINE
  8
0
 10
-72.9973
 20
-162.068
 11
-73.4429
 21
-162.294
  0
LINE
  8
0
 10
-73.4429
 20
-162.294
 11
-73.8974
 21
-162.5
  0
LINE
  8
0
 10
-73.8974
 20
-162.5
 11
-74.3602
 21
-162.688
  0
LINE
  8
0
 10
-74.3602
 20
-162.688
 11
-74.5468
 21
-162.754
  0
LINE
  8
0
 10
-74.5468
 20
-162.754
 11
-80.1608
 21
-180.578
  0
LINE
  8
0
 10
-80.1608
 20
-180.578
 11
-80.302
 21
-181.055
  0
LINE
  8
0
 10
-80.302
 20
-181.055
 11
-80.4247
 21
-181.538
  0
LINE
  8
0
 10
-80.4247
 20
-181.538
 11
-80.5289
 21
-182.025
  0
LINE
  8
0
 10
-80.5289
 20
-182.025
 11
-80.6143
 21
-182.516
  0
LINE
  8
0
 10
-80.6143
 20
-182.516
 11
-80.6809
 21
-183.009
  0
LINE
  8
0
 10
-80.6809
 20
-183.009
 11
-80.7285
 21
-183.505
  0
LINE
  8
0
 10
-80.7285
 20
-183.505
 11
-80.7571
 21
-184.002
  0
LINE
  8
0
 10
-80.7571
 20
-184.002
 11
-80.7667
 21
-184.5
  0
LINE
  8
0
 10
-80.7667
 20
-184.5
 11
-80.7571
 21
-184.998
  0
LINE
  8
0
 10
-80.7571
 20
-184.998
 11
-80.7285
 21
-185.495
  0
LINE
  8
0
 10
-80.7285
 20
-185.495
 11
-80.6809
 21
-185.991
  0
LINE
  8
0
 10
-80.6809
 20
-185.991
 11
-80.6143
 21
-186.484
  0
LINE
  8
0
 10
-80.6143
 20
-186.484
 11
-77.4268
 21
-206.224
  0
LINE
  8
0
 10
-77.4268
 20
-206.224
 11
-77.1144
 21
-206.267
  0
LINE
  8
0
 10
-77.1144
 20
-206.267
 11
-76.6647
 21
-206.462
  0
LINE
  8
0
 10
-76.6647
 20
-206.462
 11
-76.2845
 21
-206.771
  0
LINE
  8
0
 10
-76.2845
 20
-206.771
 11
-74.2845
 21
-208.771
  0
LINE
  8
0
 10
-74.2845
 20
-208.771
 11
-74.0018
 21
-209.172
  0
LINE
  8
0
 10
-74.0018
 20
-209.172
 11
-73.8376
 21
-209.634
  0
LINE
  8
0
 10
-73.8376
 20
-209.634
 11
-73.8042
 21
-210.123
  0
LINE
  8
0
 10
-73.8042
 20
-210.123
 11
-73.9039
 21
-210.603
  0
LINE
  8
0
 10
-73.9039
 20
-210.603
 11
-74.1295
 21
-211.038
  0
LINE
  8
0
 10
-74.1295
 20
-211.038
 11
-74.464
 21
-211.396
  0
LINE
  8
0
 10
-74.464
 20
-211.396
 11
-74.8829
 21
-211.651
  0
LINE
  8
0
 10
-74.8829
 20
-211.651
 11
-75.3549
 21
-211.783
  0
LINE
  8
0
 10
-75.3549
 20
-211.783
 11
-75.8451
 21
-211.783
  0
LINE
  8
0
 10
-75.8451
 20
-211.783
 11
-76.3171
 21
-211.651
  0
LINE
  8
0
 10
-76.3171
 20
-211.651
 11
-76.5759
 21
-211.494
  0
LINE
  8
0
 10
-76.5759
 20
-211.494
 11
-69.8766
 21
-252.981
  0
LINE
  8
0
 10
-69.8766
 20
-252.981
 11
-69.7962
 21
-253.473
  0
LINE
  8
0
 10
-69.7962
 20
-253.473
 11
-69.7034
 21
-253.963
  0
LINE
  8
0
 10
-69.7034
 20
-253.963
 11
-69.5986
 21
-254.45
  0
LINE
  8
0
 10
-69.5986
 20
-254.45
 11
-69.4815
 21
-254.935
  0
LINE
  8
0
 10
-69.4815
 20
-254.935
 11
-69.3525
 21
-255.417
  0
LINE
  8
0
 10
-69.3525
 20
-255.417
 11
-69.2115
 21
-255.895
  0
LINE
  8
0
 10
-69.2115
 20
-255.895
 11
-69.0585
 21
-256.37
  0
LINE
  8
0
 10
-69.0585
 20
-256.37
 11
-68.8938
 21
-256.84
  0
LINE
  8
0
 10
-68.8938
 20
-256.84
 11
-68.7175
 21
-257.307
  0
LINE
  8
0
 10
-68.7175
 20
-257.307
 11
-68.5295
 21
-257.769
  0
LINE
  8
0
 10
-68.5295
 20
-257.769
 11
-68.3301
 21
-258.226
  0
LINE
  8
0
 10
-68.3301
 20
-258.226
 11
-68.1194
 21
-258.678
  0
LINE
  8
0
 10
-68.1194
 20
-258.678
 11
-67.8974
 21
-259.124
  0
LINE
  8
0
 10
-67.8974
 20
-259.124
 11
-67.6644
 21
-259.565
  0
LINE
  8
0
 10
-67.6644
 20
-259.565
 11
-67.4205
 21
-260
  0
LINE
  8
0
 10
-67.4205
 20
-260
 11
-67.1658
 21
-260.429
  0
LINE
  8
0
 10
-67.1658
 20
-260.429
 11
-66.9005
 21
-260.851
  0
LINE
  8
0
 10
-66.9005
 20
-260.851
 11
-66.6248
 21
-261.266
  0
LINE
  8
0
 10
-66.6248
 20
-261.266
 11
-66.3388
 21
-261.675
  0
LINE
  8
0
 10
-66.3388
 20
-261.675
 11
-66.0426
 21
-262.076
  0
LINE
  8
0
 10
-66.0426
 20
-262.076
 11
-65.7366
 21
-262.47
  0
LINE
  8
0
 10
-65.7366
 20
-262.47
 11
-65.4209
 21
-262.856
  0
LINE
  8
0
 10
-65.4209
 20
-262.856
 11
-65.0956
 21
-263.234
  0
LINE
  8
0
 10
-65.0956
 20
-263.234
 11
-64.761
 21
-263.603
  0
LINE
  8
0
 10
-64.761
 20
-263.603
 11
-64.4173
 21
-263.965
  0
LINE
  8
0
 10
-64.4173
 20
-263.965
 11
-64.0647
 21
-264.317
  0
LINE
  8
0
 10
-64.0647
 20
-264.317
 11
-63.7034
 21
-264.661
  0
LINE
  8
0
 10
-63.7034
 20
-264.661
 11
-63.3337
 21
-264.996
  0
LINE
  8
0
 10
-63.3337
 20
-264.996
 11
-62.9557
 21
-265.321
  0
LINE
  8
0
 10
-62.9557
 20
-265.321
 11
-62.5698
 21
-265.637
  0
LINE
  8
0
 10
-62.5698
 20
-265.637
 11
-62.1761
 21
-265.943
  0
LINE
  8
0
 10
-62.1761
 20
-265.943
 11
-61.7749
 21
-266.239
  0
LINE
  8
0
 10
-61.7749
 20
-266.239
 11
-61.3664
 21
-266.525
  0
LINE
  8
0
 10
-61.3664
 20
-266.525
 11
-60.9509
 21
-266.801
  0
LINE
  8
0
 10
-60.9509
 20
-266.801
 11
-60.5287
 21
-267.066
  0
LINE
  8
0
 10
-60.5287
 20
-267.066
 11
-60.1
 21
-267.32
  0
LINE
  8
0
 10
-60.1
 20
-267.32
 11
-59.6651
 21
-267.564
  0
LINE
  8
0
 10
-59.6651
 20
-267.564
 11
-59.2242
 21
-267.797
  0
LINE
  8
0
 10
-59.2242
 20
-267.797
 11
-58.7777
 21
-268.019
  0
LINE
  8
0
 10
-58.7777
 20
-268.019
 11
-58.3257
 21
-268.23
  0
LINE
  8
0
 10
-58.3257
 20
-268.23
 11
-57.8687
 21
-268.43
  0
LINE
  8
0
 10
-57.8687
 20
-268.43
 11
-57.4068
 21
-268.617
  0
LINE
  8
0
 10
-57.4068
 20
-268.617
 11
-56.9404
 21
-268.794
  0
LINE
  8
0
 10
-56.9404
 20
-268.794
 11
-56.4697
 21
-268.959
  0
LINE
  8
0
 10
-56.4697
 20
-268.959
 11
-55.9951
 21
-269.111
  0
LINE
  8
0
 10
-55.9951
 20
-269.111
 11
-55.5168
 21
-269.252
  0
LINE
  8
0
 10
-55.5168
 20
-269.252
 11
-55.0351
 21
-269.382
  0
LINE
  8
0
 10
-55.0351
 20
-269.382
 11
-54.5504
 21
-269.499
  0
LINE
  8
0
 10
-54.5504
 20
-269.499
 11
-54.0629
 21
-269.603
  0
LINE
  8
0
 10
-54.0629
 20
-269.603
 11
-53.573
 21
-269.696
  0
LINE
  8
0
 10
-53.573
 20
-269.696
 11
-53.0808
 21
-269.777
  0
LINE
  8
0
 10
-53.0808
 20
-269.777
 11
-52.5869
 21
-269.845
  0
LINE
  8
0
 10
-52.5869
 20
-269.845
 11
-52.0914
 21
-269.901
  0
LINE
  8
0
 10
-52.0914
 20
-269.901
 11
-51.5946
 21
-269.944
  0
LINE
  8
0
 10
-51.5946
 20
-269.944
 11
-51.0969
 21
-269.975
  0
LINE
  8
0
 10
-51.0969
 20
-269.975
 11
-50.5986
 21
-269.994
  0
LINE
  8
0
 10
-50.5986
 20
-269.994
 11
-50.1
 21
-270
  0
LINE
  8
0
 10
-50.1
 20
-270
 11
-49.6014
 21
-269.994
  0
LINE
  8
0
 10
-45.3492
 20
-140.831
 11
-45.8452
 21
-140.782
  0
LINE
  8
0
 10
-45.8452
 20
-140.782
 11
-46.3338
 21
-140.683
  0
LINE
  8
0
 10
-46.3338
 20
-140.683
 11
-46.8101
 21
-140.536
  0
LINE
  8
0
 10
-46.8101
 20
-140.536
 11
-47.2694
 21
-140.342
  0
LINE
  8
0
 10
-47.2694
 20
-140.342
 11
-47.7072
 21
-140.104
  0
LINE
  8
0
 10
-47.7072
 20
-140.104
 11
-48.119
 21
-139.823
  0
LINE
  8
0
 10
-48.119
 20
-139.823
 11
-48.5009
 21
-139.503
  0
LINE
  8
0
 10
-48.5009
 20
-139.503
 11
-48.8489
 21
-139.146
  0
LINE
  8
0
 10
-48.8489
 20
-139.146
 11
-49.1597
 21
-138.756
  0
LINE
  8
0
 10
-49.1597
 20
-138.756
 11
-49.4301
 21
-138.337
  0
LINE
  8
0
 10
-49.4301
 20
-138.337
 11
-49.6575
 21
-137.894
  0
LINE
  8
0
 10
-49.6575
 20
-137.894
 11
-49.8396
 21
-137.43
  0
LINE
  8
0
 10
-49.8396
 20
-137.43
 11
-49.9746
 21
-136.95
  0
LINE
  8
0
 10
-49.9746
 20
-136.95
 11
-50.0612
 21
-136.459
  0
LINE
  8
0
 10
-50.0612
 20
-136.459
 11
-50.0984
 21
-135.962
  0
LINE
  8
0
 10
-50.0984
 20
-135.962
 11
-50.086
 21
-135.464
  0
LINE
  8
0
 10
-50.086
 20
-135.464
 11
-50.024
 21
-134.969
  0
LINE
  8
0
 10
-50.024
 20
-134.969
 11
-49.9131
 21
-134.483
  0
LINE
  8
0
 10
-49.9131
 20
-134.483
 11
-49.7544
 21
-134.011
  0
LINE
  8
0
 10
-49.7544
 20
-134.011
 11
-49.5493
 21
-133.556
  0
LINE
  8
0
 10
-49.5493
 20
-133.556
 11
-49.3001
 21
-133.125
  0
LINE
  8
0
 10
-49.3001
 20
-133.125
 11
-49.0092
 21
-132.72
  0
LINE
  8
0
 10
-49.0092
 20
-132.72
 11
-48.6793
 21
-132.346
  0
LINE
  8
0
 10
-48.6793
 20
-132.346
 11
-48.3139
 21
-132.007
  0
LINE
  8
0
 10
-48.3139
 20
-132.007
 11
-47.9166
 21
-131.706
  0
LINE
  8
0
 10
-47.9166
 20
-131.706
 11
-47.4913
 21
-131.446
  0
LINE
  8
0
 10
-47.4913
 20
-131.446
 11
-47.0422
 21
-131.23
  0
LINE
  8
0
 10
-47.0422
 20
-131.23
 11
-46.5738
 21
-131.06
  0
LINE
  8
0
 10
-46.5738
 20
-131.06
 11
-46.0907
 21
-130.937
  0
LINE
  8
0
 10
-46.0907
 20
-130.937
 11
-45.5978
 21
-130.862
  0
LINE
  8
0
 10
-45.5978
 20
-130.862
 11
-45.1
 21
-130.837
  0
LINE
  8
0
 10
-45.1
 20
-130.837
 11
-44.6022
 21
-130.862
  0
LINE
  8
0
 10
-44.6022
 20
-130.862
 11
-44.1093
 21
-130.937
  0
LINE
  8
0
 10
-44.1093
 20
-130.937
 11
-43.6262
 21
-131.06
  0
LINE
  8
0
 10
-43.6262
 20
-131.06
 11
-43.1578
 21
-131.23
  0
LINE
  8
0
 10
-43.1578
 20
-131.23
 11
-42.7087
 21
-131.446
  0
LINE
  8
0
 10
-42.7087
 20
-131.446
 11
-42.2834
 21
-131.706
  0
LINE
  8
0
 10
-42.2834
 20
-131.706
 11
-41.8861
 21
-132.007
  0
LINE
  8
0
 10
-41.8861
 20
-132.007
 11
-41.5207
 21
-132.346
  0
LINE
  8
0
 10
-41.5207
 20
-132.346
 11
-41.1908
 21
-132.72
  0
LINE
  8
0
 10
-41.1908
 20
-132.72
 11
-40.8999
 21
-133.125
  0
LINE
  8
0
 10
-40.8999
 20
-133.125
 11
-40.6506
 21
-133.556
  0
LINE
  8
0
 10
-40.6506
 20
-133.556
 11
-40.4456
 21
-134.011
  0
LINE
  8
0
 10
-40.4456
 20
-134.011
 11
-40.2869
 21
-134.483
  0
LINE
  8
0
 10
-40.2869
 20
-134.483
 11
-40.1759
 21
-134.969
  0
LINE
  8
0
 10
-40.1759
 20
-134.969
 11
-40.114
 21
-135.464
  0
LINE
  8
0
 10
-40.114
 20
-135.464
 11
-40.1015
 21
-135.962
  0
LINE
  8
0
 10
-40.1015
 20
-135.962
 11
-40.1388
 21
-136.459
  0
LINE
  8
0
 10
-40.1388
 20
-136.459
 11
-40.2254
 21
-136.95
  0
LINE
  8
0
 10
-40.2254
 20
-136.95
 11
-40.3604
 21
-137.43
  0
LINE
  8
0
 10
-40.3604
 20
-137.43
 11
-40.5425
 21
-137.894
  0
LINE
  8
0
 10
-40.5425
 20
-137.894
 11
-40.7699
 21
-138.337
  0
LINE
  8
0
 10
-40.7699
 20
-138.337
 11
-41.0403
 21
-138.756
  0
LINE
  8
0
 10
-41.0403
 20
-138.756
 11
-41.3511
 21
-139.146
  0
LINE
  8
0
 10
-41.3511
 20
-139.146
 11
-41.6991
 21
-139.503
  0
LINE
  8
0
 10
-41.6991
 20
-139.503
 11
-42.081
 21
-139.823
  0
LINE
  8
0
 10
-42.081
 20
-139.823
 11
-42.4928
 21
-140.104
  0
LINE
  8
0
 10
-42.4928
 20
-140.104
 11
-42.9306
 21
-140.342
  0
LINE
  8
0
 10
-42.9306
 20
-140.342
 11
-43.3899
 21
-140.536
  0
LINE
  8
0
 10
-43.3899
 20
-140.536
 11
-43.8662
 21
-140.683
  0
LINE
  8
0
 10
-43.8662
 20
-140.683
 11
-44.3548
 21
-140.782
  0
LINE
  8
0
 10
-44.3548
 20
-140.782
 11
-44.8508
 21
-140.831
  0
LINE
  8
0
 10
-44.8508
 20
-140.831
 11
-45.3492
 21
-140.831
  0
LINE
  8
0
 10
-64.7362
 20
-138.67
 11
-65.1714
 21
-138.445
  0
LINE
  8
0
 10
-65.1714
 20
-138.445
 11
-65.5297
 21
-138.11
  0
LINE
  8
0
 10
-65.5297
 20
-138.11
 11
-65.7844
 21
-137.691
  0
LINE
  8
0
 10
-65.7844
 20
-137.691
 11
-65.9166
 21
-137.219
  0
LINE
  8
0
 10
-65.9166
 20
-137.219
 11
-65.9166
 21
-136.729
  0
LINE
  8
0
 10
-65.9166
 20
-136.729
 11
-65.7844
 21
-136.257
  0
LINE
  8
0
 10
-65.7844
 20
-136.257
 11
-65.5297
 21
-135.838
  0
LINE
  8
0
 10
-65.5297
 20
-135.838
 11
-63.5297
 21
-133.838
  0
LINE
  8
0
 10
-63.5297
 20
-133.838
 11
-63.1714
 21
-133.504
  0
LINE
  8
0
 10
-63.1714
 20
-133.504
 11
-62.7362
 21
-133.278
  0
LINE
  8
0
 10
-62.7362
 20
-133.278
 11
-62.2562
 21
-133.179
  0
LINE
  8
0
 10
-62.2562
 20
-133.179
 11
-61.7672
 21
-133.212
  0
LINE
  8
0
 10
-61.7672
 20
-133.212
 11
-61.3053
 21
-133.376
  0
LINE
  8
0
 10
-61.3053
 20
-133.376
 11
-60.9048
 21
-133.659
  0
LINE
  8
0
 10
-60.9048
 20
-133.659
 11
-60.5954
 21
-134.039
  0
LINE
  8
0
 10
-60.5954
 20
-134.039
 11
-60.4001
 21
-134.489
  0
LINE
  8
0
 10
-60.4001
 20
-134.489
 11
-60.3334
 21
-134.974
  0
LINE
  8
0
 10
-60.3334
 20
-134.974
 11
-60.4001
 21
-135.46
  0
LINE
  8
0
 10
-60.4001
 20
-135.46
 11
-60.5954
 21
-135.91
  0
LINE
  8
0
 10
-60.5954
 20
-135.91
 11
-60.9048
 21
-136.29
  0
LINE
  8
0
 10
-60.9048
 20
-136.29
 11
-62.9048
 21
-138.29
  0
LINE
  8
0
 10
-62.9048
 20
-138.29
 11
-63.3053
 21
-138.573
  0
LINE
  8
0
 10
-63.3053
 20
-138.573
 11
-63.7672
 21
-138.737
  0
LINE
  8
0
 10
-63.7672
 20
-138.737
 11
-64.2562
 21
-138.77
  0
LINE
  8
0
 10
-64.2562
 20
-138.77
 11
-64.7362
 21
-138.67
  0
LINE
  8
0
 10
-30.3491
 20
-152.688
 11
-30.8389
 21
-152.597
  0
LINE
  8
0
 10
-30.8389
 20
-152.597
 11
-31.3035
 21
-152.417
  0
LINE
  8
0
 10
-31.3035
 20
-152.417
 11
-31.7271
 21
-152.155
  0
LINE
  8
0
 10
-31.7271
 20
-152.155
 11
-32.0953
 21
-151.819
  0
LINE
  8
0
 10
-32.0953
 20
-151.819
 11
-32.3956
 21
-151.421
  0
LINE
  8
0
 10
-32.3956
 20
-151.421
 11
-32.6177
 21
-150.975
  0
LINE
  8
0
 10
-32.6177
 20
-150.975
 11
-32.754
 21
-150.496
  0
LINE
  8
0
 10
-32.754
 20
-150.496
 11
-32.8
 21
-150
  0
LINE
  8
0
 10
-32.8
 20
-150
 11
-32.754
 21
-149.504
  0
LINE
  8
0
 10
-32.754
 20
-149.504
 11
-32.6177
 21
-149.025
  0
LINE
  8
0
 10
-32.6177
 20
-149.025
 11
-32.3956
 21
-148.579
  0
LINE
  8
0
 10
-32.3956
 20
-148.579
 11
-32.0953
 21
-148.181
  0
LINE
  8
0
 10
-32.0953
 20
-148.181
 11
-31.7271
 21
-147.845
  0
LINE
  8
0
 10
-31.7271
 20
-147.845
 11
-31.3035
 21
-147.583
  0
LINE
  8
0
 10
-31.3035
 20
-147.583
 11
-30.8389
 21
-147.403
  0
LINE
  8
0
 10
-30.8389
 20
-147.403
 11
-30.3491
 21
-147.312
  0
LINE
  8
0
 10
-30.3491
 20
-147.312
 11
-29.8509
 21
-147.312
  0
LINE
  8
0
 10
-29.8509
 20
-147.312
 11
-29.3611
 21
-147.403
  0
LINE
  8
0
 10
-29.3611
 20
-147.403
 11
-28.8965
 21
-147.583
  0
LINE
  8
0
 10
-28.8965
 20
-147.583
 11
-28.4729
 21
-147.845
  0
LINE
  8
0
 10
-28.4729
 20
-147.845
 11
-28.1047
 21
-148.181
  0
LINE
  8
0
 10
-28.1047
 20
-148.181
 11
-27.8044
 21
-148.579
  0
LINE
  8
0
 10
-27.8044
 20
-148.579
 11
-27.5823
 21
-149.025
  0
LINE
  8
0
 10
-27.5823
 20
-149.025
 11
-27.446
 21
-149.504
  0
LINE
  8
0
 10
-27.446
 20
-149.504
 11
-27.4
 21
-150
  0
LINE
  8
0
 10
-27.4
 20
-150
 11
-27.446
 21
-150.496
  0
LINE
  8
0
 10
-27.446
 20
-150.496
 11
-27.5823
 21
-150.975
  0
LINE
  8
0
 10
-27.5823
 20
-150.975
 11
-27.8044
 21
-151.421
  0
LINE
  8
0
 10
-27.8044
 20
-151.421
 11
-28.1047
 21
-151.819
  0
LINE
  8
0
 10
-28.1047
 20
-151.819
 11
-28.4729
 21
-152.155
  0
LINE
  8
0
 10
-28.4729
 20
-152.155
 11
-28.8965
 21
-152.417
  0
LINE
  8
0
 10
-28.8965
 20
-152.417
 11
-29.3611
 21
-152.597
  0
LINE
  8
0
 10
-29.3611
 20
-152.597
 11
-29.8509
 21
-152.688
  0
LINE
  8
0
 10
-29.8509
 20
-152.688
 11
-30.3491
 21
-152.688
  0
LINE
  8
0
 10
-62.619
 20
-169.708
 11
-63.0686
 21
-169.512
  0
LINE
  8
0
 10
-63.0686
 20
-169.512
 11
-63.4489
 21
-169.203
  0
LINE
  8
0
 10
-63.4489
 20
-169.203
 11
-65.4489
 21
-167.203
  0
LINE
  8
0
 10
-65.4489
 20
-167.203
 11
-65.7316
 21
-166.802
  0
LINE
  8
0
 10
-65.7316
 20
-166.802
 11
-65.8957
 21
-166.341
  0
LINE
  8
0
 10
-65.8957
 20
-166.341
 11
-65.9292
 21
-165.852
  0
LINE
  8
0
 10
-65.9292
 20
-165.852
 11
-65.8295
 21
-165.372
  0
LINE
  8
0
 10
-65.8295
 20
-165.372
 11
-65.6039
 21
-164.936
  0
LINE
  8
0
 10
-65.6039
 20
-164.936
 11
-65.2693
 21
-164.578
  0
LINE
  8
0
 10
-65.2693
 20
-164.578
 11
-64.8505
 21
-164.323
  0
LINE
  8
0
 10
-64.8505
 20
-164.323
 11
-64.3785
 21
-164.191
  0
LINE
  8
0
 10
-64.3785
 20
-164.191
 11
-63.8883
 21
-164.191
  0
LINE
  8
0
 10
-63.8883
 20
-164.191
 11
-63.4163
 21
-164.323
  0
LINE
  8
0
 10
-63.4163
 20
-164.323
 11
-62.9974
 21
-164.578
  0
LINE
  8
0
 10
-62.9974
 20
-164.578
 11
-60.9974
 21
-166.578
  0
LINE
  8
0
 10
-60.9974
 20
-166.578
 11
-60.6628
 21
-166.936
  0
LINE
  8
0
 10
-60.6628
 20
-166.936
 11
-60.4373
 21
-167.372
  0
LINE
  8
0
 10
-60.4373
 20
-167.372
 11
-60.3376
 21
-167.852
  0
LINE
  8
0
 10
-60.3376
 20
-167.852
 11
-60.371
 21
-168.341
  0
LINE
  8
0
 10
-60.371
 20
-168.341
 11
-60.5352
 21
-168.802
  0
LINE
  8
0
 10
-60.5352
 20
-168.802
 11
-60.8179
 21
-169.203
  0
LINE
  8
0
 10
-60.8179
 20
-169.203
 11
-61.1981
 21
-169.512
  0
LINE
  8
0
 10
-61.1981
 20
-169.512
 11
-61.6478
 21
-169.708
  0
LINE
  8
0
 10
-61.6478
 20
-169.708
 11
-62.1334
 21
-169.774
  0
LINE
  8
0
 10
-62.1334
 20
-169.774
 11
-62.619
 21
-169.708
  0
LINE
  8
0
 10
-10.3491
 20
-172.688
 11
-10.8389
 21
-172.597
  0
LINE
  8
0
 10
-10.8389
 20
-172.597
 11
-11.3035
 21
-172.417
  0
LINE
  8
0
 10
-11.3035
 20
-172.417
 11
-11.7271
 21
-172.155
  0
LINE
  8
0
 10
-11.7271
 20
-172.155
 11
-12.0953
 21
-171.819
  0
LINE
  8
0
 10
-12.0953
 20
-171.819
 11
-12.3956
 21
-171.421
  0
LINE
  8
0
 10
-12.3956
 20
-171.421
 11
-12.6177
 21
-170.975
  0
LINE
  8
0
 10
-12.6177
 20
-170.975
 11
-12.754
 21
-170.496
  0
LINE
  8
0
 10
-12.754
 20
-170.496
 11
-12.8
 21
-170
  0
LINE
  8
0
 10
-12.8
 20
-170
 11
-12.754
 21
-169.504
  0
LINE
  8
0
 10
-12.754
 20
-169.504
 11
-12.6177
 21
-169.025
  0
LINE
  8
0
 10
-12.6177
 20
-169.025
 11
-12.3956
 21
-168.579
  0
LINE
  8
0
 10
-12.3956
 20
-168.579
 11
-12.0953
 21
-168.181
  0
LINE
  8
0
 10
-12.0953
 20
-168.181
 11
-11.7271
 21
-167.845
  0
LINE
  8
0
 10
-11.7271
 20
-167.845
 11
-11.3035
 21
-167.583
  0
LINE
  8
0
 10
-11.3035
 20
-167.583
 11
-10.8389
 21
-167.403
  0
LINE
  8
0
 10
-10.8389
 20
-167.403
 11
-10.3491
 21
-167.312
  0
LINE
  8
0
 10
-10.3491
 20
-167.312
 11
-9.85088
 21
-167.312
  0
LINE
  8
0
 10
-9.85088
 20
-167.312
 11
-9.3611
 21
-167.403
  0
LINE
  8
0
 10
-9.3611
 20
-167.403
 11
-8.8965
 21
-167.583
  0
LINE
  8
0
 10
-8.8965
 20
-167.583
 11
-8.47289
 21
-167.845
  0
LINE
  8
0
 10
-8.47289
 20
-167.845
 11
-8.10468
 21
-168.181
  0
LINE
  8
0
 10
-8.10468
 20
-168.181
 11
-7.80441
 21
-168.579
  0
LINE
  8
0
 10
-7.80441
 20
-168.579
 11
-7.58232
 21
-169.025
  0
LINE
  8
0
 10
-7.58232
 20
-169.025
 11
-7.44597
 21
-169.504
  0
LINE
  8
0
 10
-7.44597
 20
-169.504
 11
-7.39999
 21
-170
  0
LINE
  8
0
 10
-7.39999
 20
-170
 11
-7.44597
 21
-170.496
  0
LINE
  8
0
 10
-7.44597
 20
-170.496
 11
-7.58232
 21
-170.975
  0
LINE
  8
0
 10
-7.58232
 20
-170.975
 11
-7.80441
 21
-171.421
  0
LINE
  8
0
 10
-7.80441
 20
-171.421
 11
-8.10468
 21
-171.819
  0
LINE
  8
0
 10
-8.10468
 20
-171.819
 11
-8.47289
 21
-172.155
  0
LINE
  8
0
 10
-8.47289
 20
-172.155
 11
-8.8965
 21
-172.417
  0
LINE
  8
0
 10
-8.8965
 20
-172.417
 11
-9.3611
 21
-172.597
  0
LINE
  8
0
 10
-9.3611
 20
-172.597
 11
-9.85088
 21
-172.688
  0
LINE
  8
0
 10
-9.85088
 20
-172.688
 11
-10.3491
 21
-172.688
  0
LINE
  8
0
 10
-55.9774
 20
-183.648
 11
-56.4636
 21
-183.539
  0
LINE
  8
0
 10
-56.4636
 20
-183.539
 11
-56.9214
 21
-183.342
  0
LINE
  8
0
 10
-56.9214
 20
-183.342
 11
-57.3353
 21
-183.065
  0
LINE
  8
0
 10
-57.3353
 20
-183.065
 11
-57.6913
 21
-182.716
  0
LINE
  8
0
 10
-57.6913
 20
-182.716
 11
-57.977
 21
-182.308
  0
LINE
  8
0
 10
-57.977
 20
-182.308
 11
-58.183
 21
-181.854
  0
LINE
  8
0
 10
-58.183
 20
-181.854
 11
-58.302
 21
-181.37
  0
LINE
  8
0
 10
-58.302
 20
-181.37
 11
-58.3301
 21
-180.873
  0
LINE
  8
0
 10
-58.3301
 20
-180.873
 11
-58.2664
 21
-180.379
  0
LINE
  8
0
 10
-58.2664
 20
-180.379
 11
-58.1129
 21
-179.905
  0
LINE
  8
0
 10
-58.1129
 20
-179.905
 11
-57.8749
 21
-179.467
  0
LINE
  8
0
 10
-57.8749
 20
-179.467
 11
-57.5605
 21
-179.08
  0
LINE
  8
0
 10
-57.5605
 20
-179.08
 11
-57.1805
 21
-178.758
  0
LINE
  8
0
 10
-57.1805
 20
-178.758
 11
-56.7478
 21
-178.511
  0
LINE
  8
0
 10
-56.7478
 20
-178.511
 11
-56.277
 21
-178.348
  0
LINE
  8
0
 10
-56.277
 20
-178.348
 11
-55.7842
 21
-178.274
  0
LINE
  8
0
 10
-55.7842
 20
-178.274
 11
-55.2863
 21
-178.292
  0
LINE
  8
0
 10
-55.2863
 20
-178.292
 11
-54.8002
 21
-178.401
  0
LINE
  8
0
 10
-54.8002
 20
-178.401
 11
-54.3423
 21
-178.598
  0
LINE
  8
0
 10
-54.3423
 20
-178.598
 11
-53.9284
 21
-178.875
  0
LINE
  8
0
 10
-53.9284
 20
-178.875
 11
-53.5725
 21
-179.224
  0
LINE
  8
0
 10
-53.5725
 20
-179.224
 11
-53.2867
 21
-179.632
  0
LINE
  8
0
 10
-53.2867
 20
-179.632
 11
-53.0808
 21
-180.086
  0
LINE
  8
0
 10
-53.0808
 20
-180.086
 11
-52.9617
 21
-180.569
  0
LINE
  8
0
 10
-52.9617
 20
-180.569
 11
-52.9336
 21
-181.067
  0
LINE
  8
0
 10
-52.9336
 20
-181.067
 11
-52.9974
 21
-181.561
  0
LINE
  8
0
 10
-52.9974
 20
-181.561
 11
-53.1508
 21
-182.035
  0
LINE
  8
0
 10
-53.1508
 20
-182.035
 11
-53.3888
 21
-182.473
  0
LINE
  8
0
 10
-53.3888
 20
-182.473
 11
-53.7032
 21
-182.859
  0
LINE
  8
0
 10
-53.7032
 20
-182.859
 11
-54.0832
 21
-183.182
  0
LINE
  8
0
 10
-54.0832
 20
-183.182
 11
-54.516
 21
-183.429
  0
LINE
  8
0
 10
-54.516
 20
-183.429
 11
-54.9868
 21
-183.592
  0
LINE
  8
0
 10
-54.9868
 20
-183.592
 11
-55.4795
 21
-183.666
  0
LINE
  8
0
 10
-55.4795
 20
-183.666
 11
-55.9774
 21
-183.648
  0
LINE
  8
0
 10
-73.8181
 20
-186.379
 11
-67.2648
 21
-181.791
  0
LINE
  8
0
 10
-67.2648
 20
-181.791
 11
-60.3819
 21
-191.621
  0
LINE
  8
0
 10
-60.3819
 20
-191.621
 11
-66.9352
 21
-196.209
  0
LINE
  8
0
 10
-66.9352
 20
-196.209
 11
-73.8181
 21
-186.379
  0
LINE
  8
0
 10
-30.3491
 20
-192.688
 11
-30.8389
 21
-192.597
  0
LINE
  8
0
 10
-30.8389
 20
-192.597
 11
-31.3035
 21
-192.417
  0
LINE
  8
0
 10
-31.3035
 20
-192.417
 11
-31.7271
 21
-192.155
  0
LINE
  8
0
 10
-31.7271
 20
-192.155
 11
-32.0953
 21
-191.819
  0
LINE
  8
0
 10
-32.0953
 20
-191.819
 11
-32.3956
 21
-191.421
  0
LINE
  8
0
 10
-32.3956
 20
-191.421
 11
-32.6177
 21
-190.975
  0
LINE
  8
0
 10
-32.6177
 20
-190.975
 11
-32.754
 21
-190.496
  0
LINE
  8
0
 10
-32.754
 20
-190.496
 11
-32.8
 21
-190
  0
LINE
  8
0
 10
-32.8
 20
-190
 11
-32.754
 21
-189.504
  0
LINE
  8
0
 10
-32.754
 20
-189.504
 11
-32.6177
 21
-189.025
  0
LINE
  8
0
 10
-32.6177
 20
-189.025
 11
-32.3956
 21
-188.579
  0
LINE
  8
0
 10
-32.3956
 20
-188.579
 11
-32.0953
 21
-188.181
  0
LINE
  8
0
 10
-32.0953
 20
-188.181
 11
-31.7271
 21
-187.845
  0
LINE
  8
0
 10
-31.7271
 20
-187.845
 11
-31.3035
 21
-187.583
  0
LINE
  8
0
 10
-31.3035
 20
-187.583
 11
-30.8389
 21
-187.403
  0
LINE
  8
0
 10
-30.8389
 20
-187.403
 11
-30.3491
 21
-187.312
  0
LINE
  8
0
 10
-30.3491
 20
-187.312
 11
-29.8509
 21
-187.312
  0
LINE
  8
0
 10
-29.8509
 20
-187.312
 11
-29.3611
 21
-187.403
  0
LINE
  8
0
 10
-29.3611
 20
-187.403
 11
-28.8965
 21
-187.583
  0
LINE
  8
0
 10
-28.8965
 20
-187.583
 11
-28.4729
 21
-187.845
  0
LINE
  8
0
 10
-28.4729
 20
-187.845
 11
-28.1047
 21
-188.181
  0
LINE
  8
0
 10
-28.1047
 20
-188.181
 11
-27.8044
 21
-188.579
  0
LINE
  8
0
 10
-27.8044
 20
-188.579
 11
-27.5823
 21
-189.025
  0
LINE
  8
0
 10
-27.5823
 20
-189.025
 11
-27.446
 21
-189.504
  0
LINE
  8
0
 10
-27.446
 20
-189.504
 11
-27.4
 21
-190
  0
LINE
  8
0
 10
-27.4
 20
-190
 11
-27.446
 21
-190.496
  0
LINE
  8
0
 10
-27.446
 20
-190.496
 11
-27.5823
 21
-190.975
  0
LINE
  8
0
 10
-27.5823
 20
-190.975
 11
-27.8044
 21
-191.421
  0
LINE
  8
0
 10
-27.8044
 20
-191.421
 11
-28.1047
 21
-191.819
  0
LINE
  8
0
 10
-28.1047
 20
-191.819
 11
-28.4729
 21
-192.155
  0
LINE
  8
0
 10
-28.4729
 20
-192.155
 11
-28.8965
 21
-192.417
  0
LINE
  8
0
 10
-28.8965
 20
-192.417
 11
-29.3611
 21
-192.597
  0
LINE
  8
0
 10
-29.3611
 20
-192.597
 11
-29.8509
 21
-192.688
  0
LINE
  8
0
 10
-29.8509
 20
-192.688
 11
-30.3491
 21
-192.688
  0
LINE
  8
0
 10
-44.5059
 20
-200.031
 11
-44.9921
 21
-199.922
  0
LINE
  8
0
 10
-44.9921
 20
-199.922
 11
-45.4499
 21
-199.725
  0
LINE
  8
0
 10
-45.4499
 20
-199.725
 11
-45.8638
 21
-199.448
  0
LINE
  8
0
 10
-45.8638
 20
-199.448
 11
-46.2197
 21
-199.099
  0
LINE
  8
0
 10
-46.2197
 20
-199.099
 11
-46.5055
 21
-198.691
  0
LINE
  8
0
 10
-46.5055
 20
-198.691
 11
-46.7114
 21
-198.237
  0
LINE
  8
0
 10
-46.7114
 20
-198.237
 11
-46.8305
 21
-197.753
  0
LINE
  8
0
 10
-46.8305
 20
-197.753
 11
-46.8586
 21
-197.256
  0
LINE
  8
0
 10
-46.8586
 20
-197.256
 11
-46.7948
 21
-196.762
  0
LINE
  8
0
 10
-46.7948
 20
-196.762
 11
-46.6413
 21
-196.288
  0
LINE
  8
0
 10
-46.6413
 20
-196.288
 11
-46.4034
 21
-195.85
  0
LINE
  8
0
 10
-46.4034
 20
-195.85
 11
-46.089
 21
-195.463
  0
LINE
  8
0
 10
-46.089
 20
-195.463
 11
-45.709
 21
-195.141
  0
LINE
  8
0
 10
-45.709
 20
-195.141
 11
-45.2762
 21
-194.894
  0
LINE
  8
0
 10
-45.2762
 20
-194.894
 11
-44.8055
 21
-194.731
  0
LINE
  8
0
 10
-44.8055
 20
-194.731
 11
-44.3127
 21
-194.657
  0
LINE
  8
0
 10
-44.3127
 20
-194.657
 11
-43.8148
 21
-194.675
  0
LINE
  8
0
 10
-43.8148
 20
-194.675
 11
-43.3286
 21
-194.784
  0
LINE
  8
0
 10
-43.3286
 20
-194.784
 11
-42.8708
 21
-194.981
  0
LINE
  8
0
 10
-42.8708
 20
-194.981
 11
-42.4569
 21
-195.258
  0
LINE
  8
0
 10
-42.4569
 20
-195.258
 11
-42.101
 21
-195.607
  0
LINE
  8
0
 10
-42.101
 20
-195.607
 11
-41.8152
 21
-196.015
  0
LINE
  8
0
 10
-41.8152
 20
-196.015
 11
-41.6093
 21
-196.469
  0
LINE
  8
0
 10
-41.6093
 20
-196.469
 11
-41.4902
 21
-196.953
  0
LINE
  8
0
 10
-41.4902
 20
-196.953
 11
-41.4621
 21
-197.45
  0
LINE
  8
0
 10
-41.4621
 20
-197.45
 11
-41.5258
 21
-197.944
  0
LINE
  8
0
 10
-41.5258
 20
-197.944
 11
-41.6793
 21
-198.418
  0
LINE
  8
0
 10
-41.6793
 20
-198.418
 11
-41.9173
 21
-198.856
  0
LINE
  8
0
 10
-41.9173
 20
-198.856
 11
-42.2316
 21
-199.242
  0
LINE
  8
0
 10
-42.2316
 20
-199.242
 11
-42.6117
 21
-199.565
  0
LINE
  8
0
 10
-42.6117
 20
-199.565
 11
-43.0444
 21
-199.812
  0
LINE
  8
0
 10
-43.0444
 20
-199.812
 11
-43.5152
 21
-199.975
  0
LINE
  8
0
 10
-43.5152
 20
-199.975
 11
-44.008
 21
-200.049
  0
LINE
  8
0
 10
-44.008
 20
-200.049
 11
-44.5059
 21
-200.031
  0
LINE
  8
0
 10
-47.2028
 20
-211.696
 11
-47.638
 21
-211.471
  0
LINE
  8
0
 10
-47.638
 20
-211.471
 11
-47.9963
 21
-211.136
  0
LINE
  8
0
 10
-47.9963
 20
-211.136
 11
-48.251
 21
-210.717
  0
LINE
  8
0
 10
-48.251
 20
-210.717
 11
-48.3832
 21
-210.245
  0
LINE
  8
0
 10
-48.3832
 20
-210.245
 11
-48.3832
 21
-209.755
  0
LINE
  8
0
 10
-48.3832
 20
-209.755
 11
-48.251
 21
-209.283
  0
LINE
  8
0
 10
-48.251
 20
-209.283
 11
-47.9963
 21
-208.864
  0
LINE
  8
0
 10
-47.9963
 20
-208.864
 11
-45.9963
 21
-206.864
  0
LINE
  8
0
 10
-45.9963
 20
-206.864
 11
-45.638
 21
-206.529
  0
LINE
  8
0
 10
-45.638
 20
-206.529
 11
-45.2028
 21
-206.304
  0
LINE
  8
0
 10
-45.2028
 20
-206.304
 11
-44.7228
 21
-206.204
  0
LINE
  8
0
 10
-44.7228
 20
-206.204
 11
-44.2338
 21
-206.238
  0
LINE
  8
0
 10
-44.2338
 20
-206.238
 11
-43.7719
 21
-206.402
  0
LINE
  8
0
 10
-43.7719
 20
-206.402
 11
-43.3714
 21
-206.684
  0
LINE
  8
0
 10
-43.3714
 20
-206.684
 11
-43.062
 21
-207.065
  0
LINE
  8
0
 10
-43.062
 20
-207.065
 11
-42.8667
 21
-207.514
  0
LINE
  8
0
 10
-42.8667
 20
-207.514
 11
-42.8
 21
-208
  0
LINE
  8
0
 10
-42.8
 20
-208
 11
-42.8667
 21
-208.486
  0
LINE
  8
0
 10
-42.8667
 20
-208.486
 11
-43.062
 21
-208.935
  0
LINE
  8
0
 10
-43.062
 20
-208.935
 11
-43.3714
 21
-209.316
  0
LINE
  8
0
 10
-43.3714
 20
-209.316
 11
-45.3714
 21
-211.316
  0
LINE
  8
0
 10
-45.3714
 20
-211.316
 11
-45.7719
 21
-211.598
  0
LINE
  8
0
 10
-45.7719
 20
-211.598
 11
-46.2338
 21
-211.762
  0
LINE
  8
0
 10
-46.2338
 20
-211.762
 11
-46.7228
 21
-211.796
  0
LINE
  8
0
 10
-46.7228
 20
-211.796
 11
-47.2028
 21
-211.696
  0
LINE
  8
0
 10
-10.3491
 20
-212.688
 11
-10.8389
 21
-212.597
  0
LINE
  8
0
 10
-10.8389
 20
-212.597
 11
-11.3035
 21
-212.417
  0
LINE
  8
0
 10
-11.3035
 20
-212.417
 11
-11.7271
 21
-212.155
  0
LINE
  8
0
 10
-11.7271
 20
-212.155
 11
-12.0953
 21
-211.819
  0
LINE
  8
0
 10
-12.0953
 20
-211.819
 11
-12.3956
 21
-211.421
  0
LINE
  8
0
 10
-12.3956
 20
-211.421
 11
-12.6177
 21
-210.975
  0
LINE
  8
0
 10
-12.6177
 20
-210.975
 11
-12.754
 21
-210.496
  0
LINE
  8
0
 10
-12.754
 20
-210.496
 11
-12.8
 21
-210
  0
LINE
  8
0
 10
-12.8
 20
-210
 11
-12.754
 21
-209.504
  0
LINE
  8
0
 10
-12.754
 20
-209.504
 11
-12.6177
 21
-209.025
  0
LINE
  8
0
 10
-12.6177
 20
-209.025
 11
-12.3956
 21
-208.579
  0
LINE
  8
0
 10
-12.3956
 20
-208.579
 11
-12.0953
 21
-208.181
  0
LINE
  8
0
 10
-12.0953
 20
-208.181
 11
-11.7271
 21
-207.845
  0
LINE
  8
0
 10
-11.7271
 20
-207.845
 11
-11.3035
 21
-207.583
  0
LINE
  8
0
 10
-11.3035
 20
-207.583
 11
-10.8389
 21
-207.403
  0
LINE
  8
0
 10
-10.8389
 20
-207.403
 11
-10.3491
 21
-207.312
  0
LINE
  8
0
 10
-10.3491
 20
-207.312
 11
-9.85088
 21
-207.312
  0
LINE
  8
0
 10
-9.85088
 20
-207.312
 11
-9.3611
 21
-207.403
  0
LINE
  8
0
 10
-9.3611
 20
-207.403
 11
-8.8965
 21
-207.583
  0
LINE
  8
0
 10
-8.8965
 20
-207.583
 11
-8.47289
 21
-207.845
  0
LINE
  8
0
 10
-8.47289
 20
-207.845
 11
-8.10468
 21
-208.181
  0
LINE
  8
0
 10
-8.10468
 20
-208.181
 11
-7.80441
 21
-208.579
  0
LINE
  8
0
 10
-7.80441
 20
-208.579
 11
-7.58232
 21
-209.025
  0
LINE
  8
0
 10
-7.58232
 20
-209.025
 11
-7.44597
 21
-209.504
  0
LINE
  8
0
 10
-7.44597
 20
-209.504
 11
-7.39999
 21
-210
  0
LINE
  8
0
 10
-7.39999
 20
-210
 11
-7.44597
 21
-210.496
  0
LINE
  8
0
 10
-7.44597
 20
-210.496
 11
-7.58232
 21
-210.975
  0
LINE
  8
0
 10
-7.58232
 20
-210.975
 11
-7.80441
 21
-211.421
  0
LINE
  8
0
 10
-7.80441
 20
-211.421
 11
-8.10468
 21
-211.819
  0
LINE
  8
0
 10
-8.10468
 20
-211.819
 11
-8.47289
 21
-212.155
  0
LINE
  8
0
 10
-8.47289
 20
-212.155
 11
-8.8965
 21
-212.417
  0
LINE
  8
0
 10
-8.8965
 20
-212.417
 11
-9.3611
 21
-212.597
  0
LINE
  8
0
 10
-9.3611
 20
-212.597
 11
-9.85088
 21
-212.688
  0
LINE
  8
0
 10
-9.85088
 20
-212.688
 11
-10.3491
 21
-212.688
  0
LINE
  8
0
 10
-61.7239
 20
-236.484
 11
-62.2218
 21
-236.447
  0
LINE
  8
0
 10
-62.2218
 20
-236.447
 11
-62.7179
 21
-236.39
  0
LINE
  8
0
 10
-62.7179
 20
-236.39
 11
-63.2111
 21
-236.313
  0
LINE
  8
0
 10
-63.2111
 20
-236.313
 11
-63.7007
 21
-236.215
  0
LINE
  8
0
 10
-63.7007
 20
-236.215
 11
-64.1857
 21
-236.096
  0
LINE
  8
0
 10
-64.1857
 20
-236.096
 11
-64.6655
 21
-235.958
  0
LINE
  8
0
 10
-64.6655
 20
-235.958
 11
-65.139
 21
-235.8
  0
LINE
  8
0
 10
-65.139
 20
-235.8
 11
-65.6056
 21
-235.622
  0
LINE
  8
0
 10
-65.6056
 20
-235.622
 11
-66.0643
 21
-235.425
  0
LINE
  8
0
 10
-66.0643
 20
-235.425
 11
-66.5145
 21
-235.209
  0
LINE
  8
0
 10
-66.5145
 20
-235.209
 11
-66.9553
 21
-234.975
  0
LINE
  8
0
 10
-66.9553
 20
-234.975
 11
-67.3859
 21
-234.722
  0
LINE
  8
0
 10
-67.3859
 20
-234.722
 11
-67.8057
 21
-234.452
  0
LINE
  8
0
 10
-67.8057
 20
-234.452
 11
-68.2139
 21
-234.164
  0
LINE
  8
0
 10
-68.2139
 20
-234.164
 11
-68.6097
 21
-233.86
  0
LINE
  8
0
 10
-68.6097
 20
-233.86
 11
-68.9926
 21
-233.539
  0
LINE
  8
0
 10
-68.9926
 20
-233.539
 11
-69.3618
 21
-233.203
  0
LINE
  8
0
 10
-69.3618
 20
-233.203
 11
-69.7166
 21
-232.852
  0
LINE
  8
0
 10
-69.7166
 20
-232.852
 11
-70.0566
 21
-232.486
  0
LINE
  8
0
 10
-70.0566
 20
-232.486
 11
-70.3811
 21
-232.107
  0
LINE
  8
0
 10
-70.3811
 20
-232.107
 11
-70.6895
 21
-231.714
  0
LINE
  8
0
 10
-70.6895
 20
-231.714
 11
-70.9812
 21
-231.309
  0
LINE
  8
0
 10
-70.9812
 20
-231.309
 11
-71.2559
 21
-230.892
  0
LINE
  8
0
 10
-71.2559
 20
-230.892
 11
-71.513
 21
-230.464
  0
LINE
  8
0
 10
-71.513
 20
-230.464
 11
-71.7521
 21
-230.026
  0
LINE
  8
0
 10
-71.7521
 20
-230.026
 11
-71.9728
 21
-229.578
  0
LINE
  8
0
 10
-71.9728
 20
-229.578
 11
-72.1746
 21
-229.121
  0
LINE
  8
0
 10
-72.1746
 20
-229.121
 11
-72.3572
 21
-228.656
  0
LINE
  8
0
 10
-72.3572
 20
-228.656
 11
-72.5204
 21
-228.184
  0
LINE
  8
0
 10
-72.5204
 20
-228.184
 11
-72.6637
 21
-227.706
  0
LINE
  8
0
 10
-72.6637
 20
-227.706
 11
-72.7871
 21
-227.222
  0
LINE
  8
0
 10
-72.7871
 20
-227.222
 11
-72.8902
 21
-226.734
  0
LINE
  8
0
 10
-72.8902
 20
-226.734
 11
-72.973
 21
-226.241
  0
LINE
  8
0
 10
-72.973
 20
-226.241
 11
-73.0351
 21
-225.746
  0
LINE
  8
0
 10
-73.0351
 20
-225.746
 11
-73.0766
 21
-225.249
  0
LINE
  8
0
 10
-73.0766
 20
-225.249
 11
-73.0974
 21
-224.75
  0
LINE
  8
0
 10
-73.0974
 20
-224.75
 11
-73.0974
 21
-224.25
  0
LINE
  8
0
 10
-73.0974
 20
-224.25
 11
-73.0766
 21
-223.751
  0
LINE
  8
0
 10
-73.0766
 20
-223.751
 11
-73.0351
 21
-223.254
  0
LINE
  8
0
 10
-73.0351
 20
-223.254
 11
-72.973
 21
-222.759
  0
LINE
  8
0
 10
-72.973
 20
-222.759
 11
-72.8902
 21
-222.266
  0
LINE
  8
0
 10
-72.8902
 20
-222.266
 11
-72.7871
 21
-221.778
  0
LINE
  8
0
 10
-72.7871
 20
-221.778
 11
-72.6637
 21
-221.294
  0
LINE
  8
0
 10
-72.6637
 20
-221.294
 11
-72.5204
 21
-220.816
  0
LINE
  8
0
 10
-72.5204
 20
-220.816
 11
-72.3572
 21
-220.344
  0
LINE
  8
0
 10
-72.3572
 20
-220.344
 11
-72.1746
 21
-219.879
  0
LINE
  8
0
 10
-72.1746
 20
-219.879
 11
-71.9728
 21
-219.422
  0
LINE
  8
0
 10
-71.9728
 20
-219.422
 11
-71.7521
 21
-218.974
  0
LINE
  8
0
 10
-71.7521
 20
-218.974
 11
-71.513
 21
-218.536
  0
LINE
  8
0
 10
-71.513
 20
-218.536
 11
-71.2559
 21
-218.108
  0
LINE
  8
0
 10
-71.2559
 20
-218.108
 11
-70.9812
 21
-217.691
  0
LINE
  8
0
 10
-70.9812
 20
-217.691
 11
-70.6895
 21
-217.286
  0
LINE
  8
0
 10
-70.6895
 20
-217.286
 11
-70.3811
 21
-216.893
  0
LINE
  8
0
 10
-70.3811
 20
-216.893
 11
-70.0566
 21
-216.514
  0
LINE
  8
0
 10
-70.0566
 20
-216.514
 11
-69.7166
 21
-216.148
  0
LINE
  8
0
 10
-69.7166
 20
-216.148
 11
-69.3618
 21
-215.797
  0
LINE
  8
0
 10
-69.3618
 20
-215.797
 11
-68.9926
 21
-215.461
  0
LINE
  8
0
 10
-68.9926
 20
-215.461
 11
-68.6097
 21
-215.14
  0
LINE
  8
0
 10
-68.6097
 20
-215.14
 11
-68.2139
 21
-214.836
  0
LINE
  8
0
 10
-68.2139
 20
-214.836
 11
-67.8057
 21
-214.548
  0
LINE
  8
0
 10
-67.8057
 20
-214.548
 11
-67.3859
 21
-214.278
  0
LINE
  8
0
 10
-67.3859
 20
-214.278
 11
-66.9553
 21
-214.025
  0
LINE
  8
0
 10
-66.9553
 20
-214.025
 11
-66.5145
 21
-213.791
  0
LINE
  8
0
 10
-66.5145
 20
-213.791
 11
-66.0643
 21
-213.575
  0
LINE
  8
0
 10
-66.0643
 20
-213.575
 11
-65.6056
 21
-213.378
  0
LINE
  8
0
 10
-65.6056
 20
-213.378
 11
-65.139
 21
-213.2
  0
LINE
  8
0
 10
-65.139
 20
-213.2
 11
-64.6655
 21
-213.042
  0
LINE
  8
0
 10
-64.6655
 20
-213.042
 11
-64.1857
 21
-212.904
  0
LINE
  8
0
 10
-64.1857
 20
-212.904
 11
-63.7007
 21
-212.785
  0
LINE
  8
0
 10
-63.7007
 20
-212.785
 11
-63.2111
 21
-212.687
  0
LINE
  8
0
 10
-63.2111
 20
-212.687
 11
-62.7179
 21
-212.61
  0
LINE
  8
0
 10
-62.7179
 20
-212.61
 11
-62.2218
 21
-212.553
  0
LINE
  8
0
 10
-62.2218
 20
-212.553
 11
-61.7239
 21
-212.516
  0
LINE
  8
0
 10
-61.7239
 20
-212.516
 11
-61.2248
 21
-212.501
  0
LINE
  8
0
 10
-61.2248
 20
-212.501
 11
-60.7256
 21
-212.506
  0
LINE
  8
0
 10
-60.7256
 20
-212.506
 11
-60.2269
 21
-212.532
  0
LINE
  8
0
 10
-60.2269
 20
-212.532
 11
-59.7298
 21
-212.578
  0
LINE
  8
0
 10
-59.7298
 20
-212.578
 11
-59.2351
 21
-212.646
  0
LINE
  8
0
 10
-59.2351
 20
-212.646
 11
-58.7436
 21
-212.734
  0
LINE
  8
0
 10
-58.7436
 20
-212.734
 11
-58.2562
 21
-212.842
  0
LINE
  8
0
 10
-58.2562
 20
-212.842
 11
-57.7737
 21
-212.97
  0
LINE
  8
0
 10
-57.7737
 20
-212.97
 11
-57.2969
 21
-213.119
  0
LINE
  8
0
 10
-57.2969
 20
-213.119
 11
-56.8268
 21
-213.287
  0
LINE
  8
0
 10
-56.8268
 20
-213.287
 11
-56.364
 21
-213.474
  0
LINE
  8
0
 10
-56.364
 20
-213.474
 11
-55.9095
 21
-213.681
  0
LINE
  8
0
 10
-55.9095
 20
-213.681
 11
-55.4639
 21
-213.906
  0
LINE
  8
0
 10
-55.4639
 20
-213.906
 11
-55.0281
 21
-214.15
  0
LINE
  8
0
 10
-55.0281
 20
-214.15
 11
-54.6028
 21
-214.411
  0
LINE
  8
0
 10
-54.6028
 20
-214.411
 11
-54.1887
 21
-214.69
  0
LINE
  8
0
 10
-54.1887
 20
-214.69
 11
-53.7866
 21
-214.986
  0
LINE
  8
0
 10
-53.7866
 20
-214.986
 11
-53.3972
 21
-215.299
  0
LINE
  8
0
 10
-53.3972
 20
-215.299
 11
-53.0211
 21
-215.627
  0
LINE
  8
0
 10
-53.0211
 20
-215.627
 11
-52.659
 21
-215.971
  0
LINE
  8
0
 10
-52.659
 20
-215.971
 11
-52.3115
 21
-216.329
  0
LINE
  8
0
 10
-52.3115
 20
-216.329
 11
-51.9792
 21
-216.702
  0
LINE
  8
0
 10
-51.9792
 20
-216.702
 11
-51.6627
 21
-217.088
  0
LINE
  8
0
 10
-51.6627
 20
-217.088
 11
-51.3625
 21
-217.487
  0
LINE
  8
0
 10
-51.3625
 20
-217.487
 11
-51.0792
 21
-217.898
  0
LINE
  8
0
 10
-51.0792
 20
-217.898
 11
-50.8133
 21
-218.321
  0
LINE
  8
0
 10
-50.8133
 20
-218.321
 11
-50.5651
 21
-218.754
  0
LINE
  8
0
 10
-50.5651
 20
-218.754
 11
-50.3352
 21
-219.197
  0
LINE
  8
0
 10
-50.3352
 20
-219.197
 11
-50.1239
 21
-219.65
  0
LINE
  8
0
 10
-50.1239
 20
-219.65
 11
-49.9317
 21
-220.11
  0
LINE
  8
0
 10
-49.9317
 20
-220.11
 11
-49.7587
 21
-220.579
  0
LINE
  8
0
 10
-49.7587
 20
-220.579
 11
-49.6055
 21
-221.054
  0
LINE
  8
0
 10
-49.6055
 20
-221.054
 11
-49.472
 21
-221.535
  0
LINE
  8
0
 10
-49.472
 20
-221.535
 11
-49.3588
 21
-222.021
  0
LINE
  8
0
 10
-49.3588
 20
-222.021
 11
-49.2658
 21
-222.512
  0
LINE
  8
0
 10
-49.2658
 20
-222.512
 11
-49.1934
 21
-223.006
  0
LINE
  8
0
 10
-49.1934
 20
-223.006
 11
-49.1415
 21
-223.503
  0
LINE
  8
0
 10
-49.1415
 20
-223.503
 11
-49.1104
 21
-224.001
  0
LINE
  8
0
 10
-49.1104
 20
-224.001
 11
-49.1
 21
-224.5
  0
LINE
  8
0
 10
-49.1
 20
-224.5
 11
-49.1104
 21
-224.999
  0
LINE
  8
0
 10
-49.1104
 20
-224.999
 11
-49.1415
 21
-225.497
  0
LINE
  8
0
 10
-49.1415
 20
-225.497
 11
-49.1934
 21
-225.994
  0
LINE
  8
0
 10
-49.1934
 20
-225.994
 11
-49.2658
 21
-226.488
  0
LINE
  8
0
 10
-49.2658
 20
-226.488
 11
-49.3588
 21
-226.979
  0
LINE
  8
0
 10
-49.3588
 20
-226.979
 11
-49.472
 21
-227.465
  0
LINE
  8
0
 10
-49.472
 20
-227.465
 11
-49.6055
 21
-227.946
  0
LINE
  8
0
 10
-49.6055
 20
-227.946
 11
-49.7587
 21
-228.421
  0
LINE
  8
0
 10
-49.7587
 20
-228.421
 11
-49.9317
 21
-228.89
  0
LINE
  8
0
 10
-49.9317
 20
-228.89
 11
-50.1239
 21
-229.35
  0
LINE
  8
0
 10
-50.1239
 20
-229.35
 11
-50.3352
 21
-229.803
  0
LINE
  8
0
 10
-50.3352
 20
-229.803
 11
-50.5651
 21
-230.246
  0
LINE
  8
0
 10
-50.5651
 20
-230.246
 11
-50.8133
 21
-230.679
  0
LINE
  8
0
 10
-50.8133
 20
-230.679
 11
-51.0792
 21
-231.102
  0
LINE
  8
0
 10
-51.0792
 20
-231.102
 11
-51.3625
 21
-231.513
  0
LINE
  8
0
 10
-51.3625
 20
-231.513
 11
-51.6627
 21
-231.912
  0
LINE
  8
0
 10
-51.6627
 20
-231.912
 11
-51.9792
 21
-232.298
  0
LINE
  8
0
 10
-51.9792
 20
-232.298
 11
-52.3115
 21
-232.671
  0
LINE
  8
0
 10
-52.3115
 20
-232.671
 11
-52.659
 21
-233.029
  0
LINE
  8
0
 10
-52.659
 20
-233.029
 11
-53.0211
 21
-233.373
  0
LINE
  8
0
 10
-53.0211
 20
-233.373
 11
-53.3972
 21
-233.701
  0
LINE
  8
0
 10
-53.3972
 20
-233.701
 11
-53.7866
 21
-234.014
  0
LINE
  8
0
 10
-53.7866
 20
-234.014
 11
-54.1887
 21
-234.31
  0
LINE
  8
0
 10
-54.1887
 20
-234.31
 11
-54.6028
 21
-234.589
  0
LINE
  8
0
 10
-54.6028
 20
-234.589
 11
-55.0281
 21
-234.85
  0
LINE
  8
0
 10
-55.0281
 20
-234.85
 11
-55.4639
 21
-235.094
  0
LINE
  8
0
 10
-55.4639
 20
-235.094
 11
-55.9095
 21
-235.319
  0
LINE
  8
0
 10
-55.9095
 20
-235.319
 11
-56.364
 21
-235.526
  0
LINE
  8
0
 10
-56.364
 20
-235.526
 11
-56.8268
 21
-235.713
  0
LINE
  8
0
 10
-56.8268
 20
-235.713
 11
-57.2969
 21
-235.881
  0
LINE
  8
0
 10
-57.2969
 20
-235.881
 11
-57.7737
 21
-236.03
  0
LINE
  8
0
 10
-57.7737
 20
-236.03
 11
-58.2562
 21
-236.158
  0
LINE
  8
0
 10
-58.2562
 20
-236.158
 11
-58.7436
 21
-236.266
  0
LINE
  8
0
 10
-58.7436
 20
-236.266
 11
-59.2351
 21
-236.354
  0
LINE
  8
0
 10
-59.2351
 20
-236.354
 11
-59.7298
 21
-236.422
  0
LINE
  8
0
 10
-59.7298
 20
-236.422
 11
-60.2269
 21
-236.468
  0
LINE
  8
0
 10
-60.2269
 20
-236.468
 11
-60.7256
 21
-236.494
  0
LINE
  8
0
 10
-60.7256
 20
-236.494
 11
-61.2248
 21
-236.499
  0
LINE
  8
0
 10
-61.2248
 20
-236.499
 11
-61.7239
 21
-236.484
  0
LINE
  8
0
 10
-30.3491
 20
-232.688
 11
-30.8389
 21
-232.597
  0
LINE
  8
0
 10
-30.8389
 20
-232.597
 11
-31.3035
 21
-232.417
  0
LINE
  8
0
 10
-31.3035
 20
-232.417
 11
-31.7271
 21
-232.155
  0
LINE
  8
0
 10
-31.7271
 20
-232.155
 11
-32.0953
 21
-231.819
  0
LINE
  8
0
 10
-32.0953
 20
-231.819
 11
-32.3956
 21
-231.421
  0
LINE
  8
0
 10
-32.3956
 20
-231.421
 11
-32.6177
 21
-230.975
  0
LINE
  8
0
 10
-32.6177
 20
-230.975
 11
-32.754
 21
-230.496
  0
LINE
  8
0
 10
-32.754
 20
-230.496
 11
-32.8
 21
-230
  0
LINE
  8
0
 10
-32.8
 20
-230
 11
-32.754
 21
-229.504
  0
LINE
  8
0
 10
-32.754
 20
-229.504
 11
-32.6177
 21
-229.025
  0
LINE
  8
0
 10
-32.6177
 20
-229.025
 11
-32.3956
 21
-228.579
  0
LINE
  8
0
 10
-32.3956
 20
-228.579
 11
-32.0953
 21
-228.181
  0
LINE
  8
0
 10
-32.0953
 20
-228.181
 11
-31.7271
 21
-227.845
  0
LINE
  8
0
 10
-31.7271
 20
-227.845
 11
-31.3035
 21
-227.583
  0
LINE
  8
0
 10
-31.3035
 20
-227.583
 11
-30.8389
 21
-227.403
  0
LINE
  8
0
 10
-30.8389
 20
-227.403
 11
-30.3491
 21
-227.312
  0
LINE
  8
0
 10
-30.3491
 20
-227.312
 11
-29.8509
 21
-227.312
  0
LINE
  8
0
 10
-29.8509
 20
-227.312
 11
-29.3611
 21
-227.403
  0
LINE
  8
0
 10
-29.3611
 20
-227.403
 11
-28.8965
 21
-227.583
  0
LINE
  8
0
 10
-28.8965
 20
-227.583
 11
-28.4729
 21
-227.845
  0
LINE
  8
0
 10
-28.4729
 20
-227.845
 11
-28.1047
 21
-228.181
  0
LINE
  8
0
 10
-28.1047
 20
-228.181
 11
-27.8044
 21
-228.579
  0
LINE
  8
0
 10
-27.8044
 20
-228.579
 11
-27.5823
 21
-229.025
  0
LINE
  8
0
 10
-27.5823
 20
-229.025
 11
-27.446
 21
-229.504
  0
LINE
  8
0
 10
-27.446
 20
-229.504
 11
-27.4
 21
-230
  0
LINE
  8
0
 10
-27.4
 20
-230
 11
-27.446
 21
-230.496
  0
LINE
  8
0
 10
-27.446
 20
-230.496
 11
-27.5823
 21
-230.975
  0
LINE
  8
0
 10
-27.5823
 20
-230.975
 11
-27.8044
 21
-231.421
  0
LINE
  8
0
 10
-27.8044
 20
-231.421
 11
-28.1047
 21
-231.819
  0
LINE
  8
0
 10
-28.1047
 20
-231.819
 11
-28.4729
 21
-232.155
  0
LINE
  8
0
 10
-28.4729
 20
-232.155
 11
-28.8965
 21
-232.417
  0
LINE
  8
0
 10
-28.8965
 20
-232.417
 11
-29.3611
 21
-232.597
  0
LINE
  8
0
 10
-29.3611
 20
-232.597
 11
-29.8509
 21
-232.688
  0
LINE
  8
0
 10
-29.8509
 20
-232.688
 11
-30.3491
 21
-232.688
  0
LINE
  8
0
 10
-45.0856
 20
-242.733
 11
-45.5352
 21
-242.538
  0
LINE
  8
0
 10
-45.5352
 20
-242.538
 11
-45.9155
 21
-242.229
  0
LINE
  8
0
 10
-45.9155
 20
-242.229
 11
-47.9155
 21
-240.229
  0
LINE
  8
0
 10
-47.9155
 20
-240.229
 11
-48.1982
 21
-239.828
  0
LINE
  8
0
 10
-48.1982
 20
-239.828
 11
-48.3624
 21
-239.366
  0
LINE
  8
0
 10
-48.3624
 20
-239.366
 11
-48.3958
 21
-238.877
  0
LINE
  8
0
 10
-48.3958
 20
-238.877
 11
-48.2961
 21
-238.397
  0
LINE
  8
0
 10
-48.2961
 20
-238.397
 11
-48.0705
 21
-237.962
  0
LINE
  8
0
 10
-48.0705
 20
-237.962
 11
-47.7359
 21
-237.604
  0
LINE
  8
0
 10
-47.7359
 20
-237.604
 11
-47.3171
 21
-237.349
  0
LINE
  8
0
 10
-47.3171
 20
-237.349
 11
-46.8451
 21
-237.217
  0
LINE
  8
0
 10
-46.8451
 20
-237.217
 11
-46.3549
 21
-237.217
  0
LINE
  8
0
 10
-46.3549
 20
-237.217
 11
-45.8829
 21
-237.349
  0
LINE
  8
0
 10
-45.8829
 20
-237.349
 11
-45.464
 21
-237.604
  0
LINE
  8
0
 10
-45.464
 20
-237.604
 11
-43.464
 21
-239.604
  0
LINE
  8
0
 10
-43.464
 20
-239.604
 11
-43.1295
 21
-239.962
  0
LINE
  8
0
 10
-43.1295
 20
-239.962
 11
-42.9039
 21
-240.397
  0
LINE
  8
0
 10
-42.9039
 20
-240.397
 11
-42.8042
 21
-240.877
  0
LINE
  8
0
 10
-42.8042
 20
-240.877
 11
-42.8376
 21
-241.366
  0
LINE
  8
0
 10
-42.8376
 20
-241.366
 11
-43.0018
 21
-241.828
  0
LINE
  8
0
 10
-43.0018
 20
-241.828
 11
-43.2845
 21
-242.229
  0
LINE
  8
0
 10
-43.2845
 20
-242.229
 11
-43.6647
 21
-242.538
  0
LINE
  8
0
 10
-43.6647
 20
-242.538
 11
-44.1144
 21
-242.733
  0
LINE
  8
0
 10
-44.1144
 20
-242.733
 11
-44.6
 21
-242.8
  0
LINE
  8
0
 10
-44.6
 20
-242.8
 11
-45.0856
 21
-242.733
  0
ENDSEC
  0
SECTION
  2
OBJECTS
  0
DICTIONARY
  0
ENDSEC
  0
EOF
