  0
SECTION
  2
BLOCKS
  0
ENDSEC
  0
SECTION
  2
ENTITIES
  0
LINE
  8
0
 10
5.50035
 20
-243.51
 11
5.9953
 21
-243.458
  0
LINE
  8
0
 10
5.9953
 20
-243.458
 11
6.48068
 21
-243.348
  0
LINE
  8
0
 10
6.48068
 20
-243.348
 11
6.94968
 21
-243.182
  0
LINE
  8
0
 10
6.94968
 20
-243.182
 11
7.39571
 21
-242.961
  0
LINE
  8
0
 10
7.39571
 20
-242.961
 11
7.81252
 21
-242.689
  0
LINE
  8
0
 10
7.81252
 20
-242.689
 11
8.19424
 21
-242.37
  0
LINE
  8
0
 10
8.19424
 20
-242.37
 11
8.53552
 21
-242.008
  0
LINE
  8
0
 10
8.53552
 20
-242.008
 11
8.83159
 21
-241.608
  0
LINE
  8
0
 10
8.83159
 20
-241.608
 11
9.07826
 21
-241.176
  0
LINE
  8
0
 10
9.07826
 20
-241.176
 11
9.27209
 21
-240.718
  0
LINE
  8
0
 10
9.27209
 20
-240.718
 11
9.41037
 21
-240.24
  0
LINE
  8
0
 10
9.41037
 20
-240.24
 11
9.49112
 21
-239.749
  0
LINE
  8
0
 10
9.49112
 20
-239.749
 11
9.51324
 21
-239.251
  0
LINE
  8
0
 10
9.51324
 20
-239.251
 11
9.51324
 21
-173.251
  0
LINE
  8
0
 10
9.51324
 20
-173.251
 11
9.50955
 21
-150.5
  0
LINE
  8
0
 10
9.50955
 20
-150.5
 11
9.45802
 21
-150.005
  0
LINE
  8
0
 10
9.45802
 20
-150.005
 11
9.34833
 21
-149.519
  0
LINE
  8
0
 10
9.34833
 20
-149.519
 11
9.18198
 21
-149.05
  0
LINE
  8
0
 10
9.18198
 20
-149.05
 11
8.96133
 21
-148.604
  0
LINE
  8
0
 10
8.96133
 20
-148.604
 11
8.68948
 21
-148.187
  0
LINE
  8
0
 10
8.68948
 20
-148.187
 11
8.37025
 21
-147.806
  0
LINE
  8
0
 10
8.37025
 20
-147.806
 11
8.0081
 21
-147.464
  0
LINE
  8
0
 10
8.0081
 20
-147.464
 11
7.60814
 21
-147.168
  0
LINE
  8
0
 10
7.60814
 20
-147.168
 11
7.17596
 21
-146.922
  0
LINE
  8
0
 10
7.17596
 20
-146.922
 11
6.71765
 21
-146.728
  0
LINE
  8
0
 10
6.71765
 20
-146.728
 11
6.23962
 21
-146.59
  0
LINE
  8
0
 10
6.23962
 20
-146.59
 11
-40.2489
 21
-137.351
  0
LINE
  8
0
 10
-40.2489
 20
-137.351
 11
-70.4873
 21
-119.307
  0
LINE
  8
0
 10
-70.4873
 20
-119.307
 11
-73.7639
 21
-121.601
  0
LINE
  8
0
 10
-73.7639
 20
-121.601
 11
-57.1302
 21
-145.356
  0
LINE
  8
0
 10
-57.1302
 20
-145.356
 11
-66.96
 21
-152.239
  0
LINE
  8
0
 10
-66.96
 20
-152.239
 11
-83.5937
 21
-128.484
  0
LINE
  8
0
 10
-83.5937
 20
-128.484
 11
-86.8703
 21
-130.778
  0
LINE
  8
0
 10
-86.8703
 20
-130.778
 11
-81.7225
 21
-157.695
  0
LINE
  8
0
 10
-81.7225
 20
-157.695
 11
-112.328
 21
-179.125
  0
LINE
  8
0
 10
-112.328
 20
-179.125
 11
-112.438
 21
-179.407
  0
LINE
  8
0
 10
-112.438
 20
-179.407
 11
-112.612
 21
-179.875
  0
LINE
  8
0
 10
-112.612
 20
-179.875
 11
-112.778
 21
-180.347
  0
LINE
  8
0
 10
-112.778
 20
-180.347
 11
-112.937
 21
-180.821
  0
LINE
  8
0
 10
-112.937
 20
-180.821
 11
-113.087
 21
-181.298
  0
LINE
  8
0
 10
-113.087
 20
-181.298
 11
-113.23
 21
-181.777
  0
LINE
  8
0
 10
-113.23
 20
-181.777
 11
-113.364
 21
-182.259
  0
LINE
  8
0
 10
-113.364
 20
-182.259
 11
-113.491
 21
-182.742
  0
LINE
  8
0
 10
-113.491
 20
-182.742
 11
-113.609
 21
-183.228
  0
LINE
  8
0
 10
-113.609
 20
-183.228
 11
-113.719
 21
-183.716
  0
LINE
  8
0
 10
-113.719
 20
-183.716
 11
-113.821
 21
-184.205
  0
LINE
  8
0
 10
-113.821
 20
-184.205
 11
-113.915
 21
-184.696
  0
LINE
  8
0
 10
-113.915
 20
-184.696
 11
-114.001
 21
-185.189
  0
LINE
  8
0
 10
-114.001
 20
-185.189
 11
-114.079
 21
-185.683
  0
LINE
  8
0
 10
-114.079
 20
-185.683
 11
-114.148
 21
-186.178
  0
LINE
  8
0
 10
-114.148
 20
-186.178
 11
-114.209
 21
-186.674
  0
LINE
  8
0
 10
-114.209
 20
-186.674
 11
-114.262
 21
-187.171
  0
LINE
  8
0
 10
-114.262
 20
-187.171
 11
-114.307
 21
-187.669
  0
LINE
  8
0
 10
-114.307
 20
-187.669
 11
-114.343
 21
-188.168
  0
LINE
  8
0
 10
-114.343
 20
-188.168
 11
-114.371
 21
-188.667
  0
LINE
  8
0
 10
-114.371
 20
-188.667
 11
-114.39
 21
-189.167
  0
LINE
  8
0
 10
-114.39
 20
-189.167
 11
-114.401
 21
-189.667
  0
LINE
  8
0
 10
-114.401
 20
-189.667
 11
-114.404
 21
-190.167
  0
LINE
  8
0
 10
-114.404
 20
-190.167
 11
-114.399
 21
-190.667
  0
LINE
  8
0
 10
-114.399
 20
-190.667
 11
-114.394
 21
-190.847
  0
LINE
  8
0
 10
-114.394
 20
-190.847
 11
-95.3725
 21
-218.012
  0
LINE
  8
0
 10
-95.3725
 20
-218.012
 11
-95.2047
 21
-218.079
  0
LINE
  8
0
 10
-95.2047
 20
-218.079
 11
-94.7367
 21
-218.255
  0
LINE
  8
0
 10
-94.7367
 20
-218.255
 11
-94.2659
 21
-218.423
  0
LINE
  8
0
 10
-94.2659
 20
-218.423
 11
-93.7924
 21
-218.583
  0
LINE
  8
0
 10
-93.7924
 20
-218.583
 11
-18.7177
 21
-243.272
  0
LINE
  8
0
 10
-18.7177
 20
-243.272
 11
-18.2396
 21
-243.41
  0
LINE
  8
0
 10
-18.2396
 20
-243.41
 11
-17.7486
 21
-243.491
  0
LINE
  8
0
 10
-17.7486
 20
-243.491
 11
-17.2515
 21
-243.513
  0
LINE
  8
0
 10
-17.2515
 20
-243.513
 11
5.50035
 21
-243.51
  0
LINE
  8
0
 10
-46.7472
 20
-146.492
 11
-47.196
 21
-146.295
  0
LINE
  8
0
 10
-47.196
 20
-146.295
 11
-47.5751
 21
-145.984
  0
LINE
  8
0
 10
-47.5751
 20
-145.984
 11
-47.8563
 21
-145.583
  0
LINE
  8
0
 10
-47.8563
 20
-145.583
 11
-48.0187
 21
-145.12
  0
LINE
  8
0
 10
-48.0187
 20
-145.12
 11
-48.0503
 21
-144.631
  0
LINE
  8
0
 10
-48.0503
 20
-144.631
 11
-47.9275
 21
-143.935
  0
LINE
  8
0
 10
-47.9275
 20
-143.935
 11
-47.8259
 21
-143.455
  0
LINE
  8
0
 10
-47.8259
 20
-143.455
 11
-47.5988
 21
-143.021
  0
LINE
  8
0
 10
-47.5988
 20
-143.021
 11
-47.2628
 21
-142.664
  0
LINE
  8
0
 10
-47.2628
 20
-142.664
 11
-46.843
 21
-142.411
  0
LINE
  8
0
 10
-46.843
 20
-142.411
 11
-46.3705
 21
-142.28
  0
LINE
  8
0
 10
-46.3705
 20
-142.28
 11
-45.8803
 21
-142.282
  0
LINE
  8
0
 10
-45.8803
 20
-142.282
 11
-45.4088
 21
-142.416
  0
LINE
  8
0
 10
-45.4088
 20
-142.416
 11
-44.9909
 21
-142.673
  0
LINE
  8
0
 10
-44.9909
 20
-142.673
 11
-44.6577
 21
-143.032
  0
LINE
  8
0
 10
-44.6577
 20
-143.032
 11
-44.4338
 21
-143.468
  0
LINE
  8
0
 10
-44.4338
 20
-143.468
 11
-44.3359
 21
-143.949
  0
LINE
  8
0
 10
-44.3359
 20
-143.949
 11
-44.3712
 21
-144.437
  0
LINE
  8
0
 10
-44.3712
 20
-144.437
 11
-44.494
 21
-145.134
  0
LINE
  8
0
 10
-44.494
 20
-145.134
 11
-44.6599
 21
-145.595
  0
LINE
  8
0
 10
-44.6599
 20
-145.595
 11
-44.9441
 21
-145.994
  0
LINE
  8
0
 10
-44.9441
 20
-145.994
 11
-45.3256
 21
-146.302
  0
LINE
  8
0
 10
-45.3256
 20
-146.302
 11
-45.7759
 21
-146.496
  0
LINE
  8
0
 10
-45.7759
 20
-146.496
 11
-46.2618
 21
-146.561
  0
LINE
  8
0
 10
-46.2618
 20
-146.561
 11
-46.7472
 21
-146.492
  0
LINE
  8
0
 10
-17.6751
 20
-152.347
 11
-18.1284
 21
-152.178
  0
LINE
  8
0
 10
-18.1284
 20
-152.178
 11
-18.5158
 21
-151.888
  0
LINE
  8
0
 10
-18.5158
 20
-151.888
 11
-18.8058
 21
-151.501
  0
LINE
  8
0
 10
-18.8058
 20
-151.501
 11
-18.9749
 21
-151.048
  0
LINE
  8
0
 10
-18.9749
 20
-151.048
 11
-19.0094
 21
-150.565
  0
LINE
  8
0
 10
-19.0094
 20
-150.565
 11
-18.9065
 21
-150.092
  0
LINE
  8
0
 10
-18.9065
 20
-150.092
 11
-18.6746
 21
-149.668
  0
LINE
  8
0
 10
-18.6746
 20
-149.668
 11
-18.3325
 21
-149.325
  0
LINE
  8
0
 10
-18.3325
 20
-149.325
 11
-17.9078
 21
-149.093
  0
LINE
  8
0
 10
-17.9078
 20
-149.093
 11
-17.435
 21
-148.991
  0
LINE
  8
0
 10
-17.435
 20
-148.991
 11
-16.9523
 21
-149.025
  0
LINE
  8
0
 10
-16.9523
 20
-149.025
 11
-16.499
 21
-149.194
  0
LINE
  8
0
 10
-16.499
 20
-149.194
 11
-16.1116
 21
-149.484
  0
LINE
  8
0
 10
-16.1116
 20
-149.484
 11
-15.8216
 21
-149.872
  0
LINE
  8
0
 10
-15.8216
 20
-149.872
 11
-15.6526
 21
-150.325
  0
LINE
  8
0
 10
-15.6526
 20
-150.325
 11
-15.618
 21
-150.808
  0
LINE
  8
0
 10
-15.618
 20
-150.808
 11
-15.7209
 21
-151.28
  0
LINE
  8
0
 10
-15.7209
 20
-151.28
 11
-15.9528
 21
-151.705
  0
LINE
  8
0
 10
-15.9528
 20
-151.705
 11
-16.2949
 21
-152.047
  0
LINE
  8
0
 10
-16.2949
 20
-152.047
 11
-16.7196
 21
-152.279
  0
LINE
  8
0
 10
-16.7196
 20
-152.279
 11
-17.1924
 21
-152.382
  0
LINE
  8
0
 10
-17.1924
 20
-152.382
 11
-17.6751
 21
-152.347
  0
LINE
  8
0
 10
4.7196
 20
-152.279
 11
4.29492
 21
-152.047
  0
LINE
  8
0
 10
4.29492
 20
-152.047
 11
3.95277
 21
-151.705
  0
LINE
  8
0
 10
3.95277
 20
-151.705
 11
3.72089
 21
-151.28
  0
LINE
  8
0
 10
3.72089
 20
-151.28
 11
3.61803
 21
-150.808
  0
LINE
  8
0
 10
3.61803
 20
-150.808
 11
3.65256
 21
-150.325
  0
LINE
  8
0
 10
3.65256
 20
-150.325
 11
3.82164
 21
-149.872
  0
LINE
  8
0
 10
3.82164
 20
-149.872
 11
4.11162
 21
-149.484
  0
LINE
  8
0
 10
4.11162
 20
-149.484
 11
4.49898
 21
-149.194
  0
LINE
  8
0
 10
4.49898
 20
-149.194
 11
4.95235
 21
-149.025
  0
LINE
  8
0
 10
4.95235
 20
-149.025
 11
5.43498
 21
-148.991
  0
LINE
  8
0
 10
5.43498
 20
-148.991
 11
5.90779
 21
-149.093
  0
LINE
  8
0
 10
5.90779
 20
-149.093
 11
6.33247
 21
-149.325
  0
LINE
  8
0
 10
6.33247
 20
-149.325
 11
6.67462
 21
-149.668
  0
LINE
  8
0
 10
6.67462
 20
-149.668
 11
6.90651
 21
-150.092
  0
LINE
  8
0
 10
6.90651
 20
-150.092
 11
7.00937
 21
-150.565
  0
LINE
  8
0
 10
7.00937
 20
-150.565
 11
6.97485
 21
-151.048
  0
LINE
  8
0
 10
6.97485
 20
-151.048
 11
6.80576
 21
-151.501
  0
LINE
  8
0
 10
6.80576
 20
-151.501
 11
6.51578
 21
-151.888
  0
LINE
  8
0
 10
6.51578
 20
-151.888
 11
6.12842
 21
-152.178
  0
LINE
  8
0
 10
6.12842
 20
-152.178
 11
5.67506
 21
-152.347
  0
LINE
  8
0
 10
5.67506
 20
-152.347
 11
5.19243
 21
-152.382
  0
LINE
  8
0
 10
5.19243
 20
-152.382
 11
4.7196
 21
-152.279
  0
LINE
  8
0
 10
-6.6212
 20
-172.982
 11
-7.11684
 21
-172.943
  0
LINE
  8
0
 10
-7.11684
 20
-172.943
 11
-7.61018
 21
-172.882
  0
LINE
  8
0
 10
-7.61018
 20
-172.882
 11
-8.10025
 21
-172.798
  0
LINE
  8
0
 10
-8.10025
 20
-172.798
 11
-8.58601
 21
-172.692
  0
LINE
  8
0
 10
-8.58601
 20
-172.692
 11
-9.06651
 21
-172.564
  0
LINE
  8
0
 10
-9.06651
 20
-172.564
 11
-9.54073
 21
-172.415
  0
LINE
  8
0
 10
-9.54073
 20
-172.415
 11
-10.0077
 21
-172.244
  0
LINE
  8
0
 10
-10.0077
 20
-172.244
 11
-10.4665
 21
-172.052
  0
LINE
  8
0
 10
-10.4665
 20
-172.052
 11
-10.9162
 21
-171.84
  0
LINE
  8
0
 10
-10.9162
 20
-171.84
 11
-11.3558
 21
-171.608
  0
LINE
  8
0
 10
-11.3558
 20
-171.608
 11
-11.7845
 21
-171.356
  0
LINE
  8
0
 10
-11.7845
 20
-171.356
 11
-12.2014
 21
-171.085
  0
LINE
  8
0
 10
-12.2014
 20
-171.085
 11
-12.6056
 21
-170.796
  0
LINE
  8
0
 10
-12.6056
 20
-170.796
 11
-12.9963
 21
-170.488
  0
LINE
  8
0
 10
-12.9963
 20
-170.488
 11
-13.3727
 21
-170.163
  0
LINE
  8
0
 10
-13.3727
 20
-170.163
 11
-13.7341
 21
-169.822
  0
LINE
  8
0
 10
-13.7341
 20
-169.822
 11
-14.0797
 21
-169.465
  0
LINE
  8
0
 10
-14.0797
 20
-169.465
 11
-14.4087
 21
-169.092
  0
LINE
  8
0
 10
-14.4087
 20
-169.092
 11
-14.7206
 21
-168.705
  0
LINE
  8
0
 10
-14.7206
 20
-168.705
 11
-15.0146
 21
-168.304
  0
LINE
  8
0
 10
-15.0146
 20
-168.304
 11
-15.2903
 21
-167.89
  0
LINE
  8
0
 10
-15.2903
 20
-167.89
 11
-15.5469
 21
-167.464
  0
LINE
  8
0
 10
-15.5469
 20
-167.464
 11
-15.7841
 21
-167.027
  0
LINE
  8
0
 10
-15.7841
 20
-167.027
 11
-16.0013
 21
-166.58
  0
LINE
  8
0
 10
-16.0013
 20
-166.58
 11
-16.198
 21
-166.123
  0
LINE
  8
0
 10
-16.198
 20
-166.123
 11
-16.3739
 21
-165.658
  0
LINE
  8
0
 10
-16.3739
 20
-165.658
 11
-16.5286
 21
-165.186
  0
LINE
  8
0
 10
-16.5286
 20
-165.186
 11
-16.6618
 21
-164.707
  0
LINE
  8
0
 10
-16.6618
 20
-164.707
 11
-16.7732
 21
-164.222
  0
LINE
  8
0
 10
-16.7732
 20
-164.222
 11
-16.8626
 21
-163.733
  0
LINE
  8
0
 10
-16.8626
 20
-163.733
 11
-16.9298
 21
-163.24
  0
LINE
  8
0
 10
-16.9298
 20
-163.24
 11
-16.9747
 21
-162.745
  0
LINE
  8
0
 10
-16.9747
 20
-162.745
 11
-16.9972
 21
-162.249
  0
LINE
  8
0
 10
-16.9972
 20
-162.249
 11
-16.9972
 21
-161.751
  0
LINE
  8
0
 10
-16.9972
 20
-161.751
 11
-16.9747
 21
-161.255
  0
LINE
  8
0
 10
-16.9747
 20
-161.255
 11
-16.9298
 21
-160.76
  0
LINE
  8
0
 10
-16.9298
 20
-160.76
 11
-16.8626
 21
-160.267
  0
LINE
  8
0
 10
-16.8626
 20
-160.267
 11
-16.7732
 21
-159.778
  0
LINE
  8
0
 10
-16.7732
 20
-159.778
 11
-16.6618
 21
-159.293
  0
LINE
  8
0
 10
-16.6618
 20
-159.293
 11
-16.5286
 21
-158.814
  0
LINE
  8
0
 10
-16.5286
 20
-158.814
 11
-16.3739
 21
-158.342
  0
LINE
  8
0
 10
-16.3739
 20
-158.342
 11
-16.198
 21
-157.877
  0
LINE
  8
0
 10
-16.198
 20
-157.877
 11
-16.0013
 21
-157.42
  0
LINE
  8
0
 10
-16.0013
 20
-157.42
 11
-15.7841
 21
-156.973
  0
LINE
  8
0
 10
-15.7841
 20
-156.973
 11
-15.5469
 21
-156.536
  0
LINE
  8
0
 10
-15.5469
 20
-156.536
 11
-15.2903
 21
-156.11
  0
LINE
  8
0
 10
-15.2903
 20
-156.11
 11
-15.0146
 21
-155.696
  0
LINE
  8
0
 10
-15.0146
 20
-155.696
 11
-14.7206
 21
-155.295
  0
LINE
  8
0
 10
-14.7206
 20
-155.295
 11
-14.4087
 21
-154.908
  0
LINE
  8
0
 10
-14.4087
 20
-154.908
 11
-14.0797
 21
-154.535
  0
LINE
  8
0
 10
-14.0797
 20
-154.535
 11
-13.7341
 21
-154.178
  0
LINE
  8
0
 10
-13.7341
 20
-154.178
 11
-13.3727
 21
-153.837
  0
LINE
  8
0
 10
-13.3727
 20
-153.837
 11
-12.9963
 21
-153.512
  0
LINE
  8
0
 10
-12.9963
 20
-153.512
 11
-12.6056
 21
-153.204
  0
LINE
  8
0
 10
-12.6056
 20
-153.204
 11
-12.2014
 21
-152.915
  0
LINE
  8
0
 10
-12.2014
 20
-152.915
 11
-11.7845
 21
-152.644
  0
LINE
  8
0
 10
-11.7845
 20
-152.644
 11
-11.3558
 21
-152.392
  0
LINE
  8
0
 10
-11.3558
 20
-152.392
 11
-10.9162
 21
-152.16
  0
LINE
  8
0
 10
-10.9162
 20
-152.16
 11
-10.4665
 21
-151.948
  0
LINE
  8
0
 10
-10.4665
 20
-151.948
 11
-10.0077
 21
-151.756
  0
LINE
  8
0
 10
-10.0077
 20
-151.756
 11
-9.54073
 21
-151.585
  0
LINE
  8
0
 10
-9.54073
 20
-151.585
 11
-9.06651
 21
-151.436
  0
LINE
  8
0
 10
-9.06651
 20
-151.436
 11
-8.58601
 21
-151.308
  0
LINE
  8
0
 10
-8.58601
 20
-151.308
 11
-8.10025
 21
-151.202
  0
LINE
  8
0
 10
-8.10025
 20
-151.202
 11
-7.61018
 21
-151.118
  0
LINE
  8
0
 10
-7.61018
 20
-151.118
 11
-7.11684
 21
-151.057
  0
LINE
  8
0
 10
-7.11684
 20
-151.057
 11
-6.6212
 21
-151.018
  0
LINE
  8
0
 10
-6.6212
 20
-151.018
 11
-6.1243
 21
-151.001
  0
LINE
  8
0
 10
-6.1243
 20
-151.001
 11
-5.62714
 21
-151.006
  0
LINE
  8
0
 10
-5.62714
 20
-151.006
 11
-5.13075
 21
-151.034
  0
LINE
  8
0
 10
-5.13075
 20
-151.034
 11
-4.63612
 21
-151.085
  0
LINE
  8
0
 10
-4.63612
 20
-151.085
 11
-4.1443
 21
-151.158
  0
LINE
  8
0
 10
-4.1443
 20
-151.158
 11
-3.65625
 21
-151.253
  0
LINE
  8
0
 10
-3.65625
 20
-151.253
 11
-3.173
 21
-151.369
  0
LINE
  8
0
 10
-3.173
 20
-151.369
 11
-2.69553
 21
-151.508
  0
LINE
  8
0
 10
-2.69553
 20
-151.508
 11
-2.22479
 21
-151.668
  0
LINE
  8
0
 10
-2.22479
 20
-151.668
 11
-1.76178
 21
-151.849
  0
LINE
  8
0
 10
-1.76178
 20
-151.849
 11
-1.30742
 21
-152.051
  0
LINE
  8
0
 10
-1.30742
 20
-152.051
 11
-0.862656
 21
-152.273
  0
LINE
  8
0
 10
-0.862656
 20
-152.273
 11
-0.428375
 21
-152.515
  0
LINE
  8
0
 10
-0.428375
 20
-152.515
 11
-0.00549316
 21
-152.777
  0
LINE
  8
0
 10
-0.00549316
 20
-152.777
 11
0.405136
 21
-153.057
  0
LINE
  8
0
 10
0.405136
 20
-153.057
 11
0.802704
 21
-153.356
  0
LINE
  8
0
 10
0.802704
 20
-153.356
 11
1.18637
 21
-153.672
  0
LINE
  8
0
 10
1.18637
 20
-153.672
 11
1.55534
 21
-154.005
  0
LINE
  8
0
 10
1.55534
 20
-154.005
 11
1.90889
 21
-154.355
  0
LINE
  8
0
 10
1.90889
 20
-154.355
 11
2.24628
 21
-154.72
  0
LINE
  8
0
 10
2.24628
 20
-154.72
 11
2.56682
 21
-155.1
  0
LINE
  8
0
 10
2.56682
 20
-155.1
 11
2.86986
 21
-155.494
  0
LINE
  8
0
 10
2.86986
 20
-155.494
 11
3.15479
 21
-155.902
  0
LINE
  8
0
 10
3.15479
 20
-155.902
 11
3.42101
 21
-156.322
  0
LINE
  8
0
 10
3.42101
 20
-156.322
 11
3.66797
 21
-156.753
  0
LINE
  8
0
 10
3.66797
 20
-156.753
 11
3.89519
 21
-157.195
  0
LINE
  8
0
 10
3.89519
 20
-157.195
 11
4.10219
 21
-157.647
  0
LINE
  8
0
 10
4.10219
 20
-157.647
 11
4.28856
 21
-158.108
  0
LINE
  8
0
 10
4.28856
 20
-158.108
 11
4.4539
 21
-158.577
  0
LINE
  8
0
 10
4.4539
 20
-158.577
 11
4.5979
 21
-159.053
  0
LINE
  8
0
 10
4.5979
 20
-159.053
 11
4.72023
 21
-159.535
  0
LINE
  8
0
 10
4.72023
 20
-159.535
 11
4.82068
 21
-160.022
  0
LINE
  8
0
 10
4.82068
 20
-160.022
 11
4.899
 21
-160.513
  0
LINE
  8
0
 10
4.899
 20
-160.513
 11
4.95508
 21
-161.007
  0
LINE
  8
0
 10
4.95508
 20
-161.007
 11
4.98875
 21
-161.503
  0
LINE
  8
0
 10
4.98875
 20
-161.503
 11
5
 21
-162
  0
LINE
  8
0
 10
5
 20
-162
 11
4.98875
 21
-162.497
  0
LINE
  8
0
 10
4.98875
 20
-162.497
 11
4.95508
 21
-162.993
  0
LINE
  8
0
 10
4.95508
 20
-162.993
 11
4.899
 21
-163.487
  0
LINE
  8
0
 10
4.899
 20
-163.487
 11
4.82068
 21
-163.978
  0
LINE
  8
0
 10
4.82068
 20
-163.978
 11
4.72023
 21
-164.465
  0
LINE
  8
0
 10
4.72023
 20
-164.465
 11
4.5979
 21
-164.947
  0
LINE
  8
0
 10
4.5979
 20
-164.947
 11
4.4539
 21
-165.423
  0
LINE
  8
0
 10
4.4539
 20
-165.423
 11
4.28856
 21
-165.892
  0
LINE
  8
0
 10
4.28856
 20
-165.892
 11
4.10219
 21
-166.353
  0
LINE
  8
0
 10
4.10219
 20
-166.353
 11
3.89519
 21
-166.805
  0
LINE
  8
0
 10
3.89519
 20
-166.805
 11
3.66797
 21
-167.247
  0
LINE
  8
0
 10
3.66797
 20
-167.247
 11
3.42101
 21
-167.678
  0
LINE
  8
0
 10
3.42101
 20
-167.678
 11
3.15479
 21
-168.098
  0
LINE
  8
0
 10
3.15479
 20
-168.098
 11
2.86986
 21
-168.506
  0
LINE
  8
0
 10
2.86986
 20
-168.506
 11
2.56682
 21
-168.9
  0
LINE
  8
0
 10
2.56682
 20
-168.9
 11
2.24628
 21
-169.28
  0
LINE
  8
0
 10
2.24628
 20
-169.28
 11
1.90889
 21
-169.645
  0
LINE
  8
0
 10
1.90889
 20
-169.645
 11
1.55534
 21
-169.995
  0
LINE
  8
0
 10
1.55534
 20
-169.995
 11
1.18637
 21
-170.328
  0
LINE
  8
0
 10
1.18637
 20
-170.328
 11
0.802704
 21
-170.644
  0
LINE
  8
0
 10
0.802704
 20
-170.644
 11
0.405136
 21
-170.943
  0
LINE
  8
0
 10
0.405136
 20
-170.943
 11
-0.00549316
 21
-171.223
  0
LINE
  8
0
 10
-0.00549316
 20
-171.223
 11
-0.428375
 21
-171.485
  0
LINE
  8
0
 10
-0.428375
 20
-171.485
 11
-0.862656
 21
-171.727
  0
LINE
  8
0
 10
-0.862656
 20
-171.727
 11
-1.30742
 21
-171.949
  0
LINE
  8
0
 10
-1.30742
 20
-171.949
 11
-1.76178
 21
-172.151
  0
LINE
  8
0
 10
-1.76178
 20
-172.151
 11
-2.22479
 21
-172.332
  0
LINE
  8
0
 10
-2.22479
 20
-172.332
 11
-2.69553
 21
-172.492
  0
LINE
  8
0
 10
-2.69553
 20
-172.492
 11
-3.173
 21
-172.631
  0
LINE
  8
0
 10
-3.173
 20
-172.631
 11
-3.65625
 21
-172.747
  0
LINE
  8
0
 10
-3.65625
 20
-172.747
 11
-4.1443
 21
-172.842
  0
LINE
  8
0
 10
-4.1443
 20
-172.842
 11
-4.63612
 21
-172.915
  0
LINE
  8
0
 10
-4.63612
 20
-172.915
 11
-5.13075
 21
-172.966
  0
LINE
  8
0
 10
-5.13075
 20
-172.966
 11
-5.62714
 21
-172.994
  0
LINE
  8
0
 10
-5.62714
 20
-172.994
 11
-6.1243
 21
-172.999
  0
LINE
  8
0
 10
-6.1243
 20
-172.999
 11
-6.6212
 21
-172.982
  0
LINE
  8
0
 10
-50.2843
 20
-177.997
 11
-50.7831
 21
-177.974
  0
LINE
  8
0
 10
-50.7831
 20
-177.974
 11
-51.2805
 21
-177.931
  0
LINE
  8
0
 10
-51.2805
 20
-177.931
 11
-51.7758
 21
-177.868
  0
LINE
  8
0
 10
-51.7758
 20
-177.868
 11
-52.2679
 21
-177.784
  0
LINE
  8
0
 10
-52.2679
 20
-177.784
 11
-52.7561
 21
-177.679
  0
LINE
  8
0
 10
-52.7561
 20
-177.679
 11
-53.2396
 21
-177.554
  0
LINE
  8
0
 10
-53.2396
 20
-177.554
 11
-53.7174
 21
-177.41
  0
LINE
  8
0
 10
-53.7174
 20
-177.41
 11
-54.1888
 21
-177.245
  0
LINE
  8
0
 10
-54.1888
 20
-177.245
 11
-54.653
 21
-177.061
  0
LINE
  8
0
 10
-54.653
 20
-177.061
 11
-55.1091
 21
-176.858
  0
LINE
  8
0
 10
-55.1091
 20
-176.858
 11
-55.5564
 21
-176.636
  0
LINE
  8
0
 10
-55.5564
 20
-176.636
 11
-55.994
 21
-176.396
  0
LINE
  8
0
 10
-55.994
 20
-176.396
 11
-56.4212
 21
-176.137
  0
LINE
  8
0
 10
-56.4212
 20
-176.137
 11
-56.8374
 21
-175.862
  0
LINE
  8
0
 10
-56.8374
 20
-175.862
 11
-57.2417
 21
-175.569
  0
LINE
  8
0
 10
-57.2417
 20
-175.569
 11
-57.6335
 21
-175.259
  0
LINE
  8
0
 10
-57.6335
 20
-175.259
 11
-58.012
 21
-174.934
  0
LINE
  8
0
 10
-58.012
 20
-174.934
 11
-58.3767
 21
-174.592
  0
LINE
  8
0
 10
-58.3767
 20
-174.592
 11
-58.7269
 21
-174.237
  0
LINE
  8
0
 10
-58.7269
 20
-174.237
 11
-59.062
 21
-173.866
  0
LINE
  8
0
 10
-59.062
 20
-173.866
 11
-59.3813
 21
-173.483
  0
LINE
  8
0
 10
-59.3813
 20
-173.483
 11
-59.6845
 21
-173.086
  0
LINE
  8
0
 10
-59.6845
 20
-173.086
 11
-59.9709
 21
-172.677
  0
LINE
  8
0
 10
-59.9709
 20
-172.677
 11
-60.24
 21
-172.256
  0
LINE
  8
0
 10
-60.24
 20
-172.256
 11
-60.4914
 21
-171.825
  0
LINE
  8
0
 10
-60.4914
 20
-171.825
 11
-60.7246
 21
-171.384
  0
LINE
  8
0
 10
-60.7246
 20
-171.384
 11
-60.9393
 21
-170.933
  0
LINE
  8
0
 10
-60.9393
 20
-170.933
 11
-61.135
 21
-170.473
  0
LINE
  8
0
 10
-61.135
 20
-170.473
 11
-61.3115
 21
-170.006
  0
LINE
  8
0
 10
-61.3115
 20
-170.006
 11
-61.4683
 21
-169.532
  0
LINE
  8
0
 10
-61.4683
 20
-169.532
 11
-61.6053
 21
-169.052
  0
LINE
  8
0
 10
-61.6053
 20
-169.052
 11
-61.7223
 21
-168.567
  0
LINE
  8
0
 10
-61.7223
 20
-168.567
 11
-61.8189
 21
-168.077
  0
LINE
  8
0
 10
-61.8189
 20
-168.077
 11
-61.8951
 21
-167.583
  0
LINE
  8
0
 10
-61.8951
 20
-167.583
 11
-61.9506
 21
-167.087
  0
LINE
  8
0
 10
-61.9506
 20
-167.087
 11
-61.9855
 21
-166.589
  0
LINE
  8
0
 10
-61.9855
 20
-166.589
 11
-61.9996
 21
-166.09
  0
LINE
  8
0
 10
-61.9996
 20
-166.09
 11
-61.993
 21
-165.591
  0
LINE
  8
0
 10
-61.993
 20
-165.591
 11
-61.9656
 21
-165.092
  0
LINE
  8
0
 10
-61.9656
 20
-165.092
 11
-61.9175
 21
-164.595
  0
LINE
  8
0
 10
-61.9175
 20
-164.595
 11
-61.8488
 21
-164.101
  0
LINE
  8
0
 10
-61.8488
 20
-164.101
 11
-61.7595
 21
-163.61
  0
LINE
  8
0
 10
-61.7595
 20
-163.61
 11
-61.6499
 21
-163.123
  0
LINE
  8
0
 10
-61.6499
 20
-163.123
 11
-61.5201
 21
-162.64
  0
LINE
  8
0
 10
-61.5201
 20
-162.64
 11
-61.3704
 21
-162.164
  0
LINE
  8
0
 10
-61.3704
 20
-162.164
 11
-61.201
 21
-161.694
  0
LINE
  8
0
 10
-61.201
 20
-161.694
 11
-61.0122
 21
-161.232
  0
LINE
  8
0
 10
-61.0122
 20
-161.232
 11
-60.8043
 21
-160.778
  0
LINE
  8
0
 10
-60.8043
 20
-160.778
 11
-60.5777
 21
-160.333
  0
LINE
  8
0
 10
-60.5777
 20
-160.333
 11
-60.3329
 21
-159.898
  0
LINE
  8
0
 10
-60.3329
 20
-159.898
 11
-60.0701
 21
-159.474
  0
LINE
  8
0
 10
-60.0701
 20
-159.474
 11
-59.7899
 21
-159.06
  0
LINE
  8
0
 10
-59.7899
 20
-159.06
 11
-59.4927
 21
-158.659
  0
LINE
  8
0
 10
-59.4927
 20
-158.659
 11
-59.1791
 21
-158.271
  0
LINE
  8
0
 10
-59.1791
 20
-158.271
 11
-58.8497
 21
-157.895
  0
LINE
  8
0
 10
-58.8497
 20
-157.895
 11
-58.5049
 21
-157.534
  0
LINE
  8
0
 10
-58.5049
 20
-157.534
 11
-58.1454
 21
-157.188
  0
LINE
  8
0
 10
-58.1454
 20
-157.188
 11
-57.7717
 21
-156.857
  0
LINE
  8
0
 10
-57.7717
 20
-156.857
 11
-57.3847
 21
-156.541
  0
LINE
  8
0
 10
-57.3847
 20
-156.541
 11
-56.9848
 21
-156.242
  0
LINE
  8
0
 10
-56.9848
 20
-156.242
 11
-56.5728
 21
-155.96
  0
LINE
  8
0
 10
-56.5728
 20
-155.96
 11
-56.1495
 21
-155.695
  0
LINE
  8
0
 10
-56.1495
 20
-155.695
 11
-55.7155
 21
-155.449
  0
LINE
  8
0
 10
-55.7155
 20
-155.449
 11
-55.2717
 21
-155.22
  0
LINE
  8
0
 10
-55.2717
 20
-155.22
 11
-54.8187
 21
-155.01
  0
LINE
  8
0
 10
-54.8187
 20
-155.01
 11
-54.3573
 21
-154.819
  0
LINE
  8
0
 10
-54.3573
 20
-154.819
 11
-53.8884
 21
-154.647
  0
LINE
  8
0
 10
-53.8884
 20
-154.647
 11
-53.4128
 21
-154.496
  0
LINE
  8
0
 10
-53.4128
 20
-154.496
 11
-52.9313
 21
-154.364
  0
LINE
  8
0
 10
-52.9313
 20
-154.364
 11
-52.4447
 21
-154.252
  0
LINE
  8
0
 10
-52.4447
 20
-154.252
 11
-51.9539
 21
-154.16
  0
LINE
  8
0
 10
-51.9539
 20
-154.16
 11
-51.4597
 21
-154.089
  0
LINE
  8
0
 10
-51.4597
 20
-154.089
 11
-50.9629
 21
-154.039
  0
LINE
  8
0
 10
-50.9629
 20
-154.039
 11
-50.4645
 21
-154.009
  0
LINE
  8
0
 10
-50.4645
 20
-154.009
 11
-49.9653
 21
-154
  0
LINE
  8
0
 10
-49.9653
 20
-154
 11
-49.4662
 21
-154.012
  0
LINE
  8
0
 10
-49.4662
 20
-154.012
 11
-48.9679
 21
-154.044
  0
LINE
  8
0
 10
-48.9679
 20
-154.044
 11
-48.4715
 21
-154.098
  0
LINE
  8
0
 10
-48.4715
 20
-154.098
 11
-47.9777
 21
-154.172
  0
LINE
  8
0
 10
-47.9777
 20
-154.172
 11
-47.4874
 21
-154.266
  0
LINE
  8
0
 10
-47.4874
 20
-154.266
 11
-47.0015
 21
-154.381
  0
LINE
  8
0
 10
-47.0015
 20
-154.381
 11
-46.5207
 21
-154.515
  0
LINE
  8
0
 10
-46.5207
 20
-154.515
 11
-46.046
 21
-154.67
  0
LINE
  8
0
 10
-46.046
 20
-154.67
 11
-45.5781
 21
-154.844
  0
LINE
  8
0
 10
-45.5781
 20
-154.844
 11
-45.1179
 21
-155.038
  0
LINE
  8
0
 10
-45.1179
 20
-155.038
 11
-44.6661
 21
-155.251
  0
LINE
  8
0
 10
-44.6661
 20
-155.251
 11
-44.2236
 21
-155.482
  0
LINE
  8
0
 10
-44.2236
 20
-155.482
 11
-43.791
 21
-155.731
  0
LINE
  8
0
 10
-43.791
 20
-155.731
 11
-43.3692
 21
-155.998
  0
LINE
  8
0
 10
-43.3692
 20
-155.998
 11
-42.9589
 21
-156.283
  0
LINE
  8
0
 10
-42.9589
 20
-156.283
 11
-42.5608
 21
-156.584
  0
LINE
  8
0
 10
-42.5608
 20
-156.584
 11
-42.1756
 21
-156.902
  0
LINE
  8
0
 10
-42.1756
 20
-156.902
 11
-41.8038
 21
-157.235
  0
LINE
  8
0
 10
-41.8038
 20
-157.235
 11
-41.4463
 21
-157.584
  0
LINE
  8
0
 10
-41.4463
 20
-157.584
 11
-41.1036
 21
-157.947
  0
LINE
  8
0
 10
-41.1036
 20
-157.947
 11
-40.7763
 21
-158.324
  0
LINE
  8
0
 10
-40.7763
 20
-158.324
 11
-40.465
 21
-158.714
  0
LINE
  8
0
 10
-40.465
 20
-158.714
 11
-40.1702
 21
-159.117
  0
LINE
  8
0
 10
-40.1702
 20
-159.117
 11
-39.8924
 21
-159.532
  0
LINE
  8
0
 10
-39.8924
 20
-159.532
 11
-39.632
 21
-159.958
  0
LINE
  8
0
 10
-39.632
 20
-159.958
 11
-39.3897
 21
-160.395
  0
LINE
  8
0
 10
-39.3897
 20
-160.395
 11
-39.1657
 21
-160.841
  0
LINE
  8
0
 10
-39.1657
 20
-160.841
 11
-38.9604
 21
-161.296
  0
LINE
  8
0
 10
-38.9604
 20
-161.296
 11
-38.7743
 21
-161.759
  0
LINE
  8
0
 10
-38.7743
 20
-161.759
 11
-38.6076
 21
-162.23
  0
LINE
  8
0
 10
-38.6076
 20
-162.23
 11
-38.4607
 21
-162.707
  0
LINE
  8
0
 10
-38.4607
 20
-162.707
 11
-38.3337
 21
-163.19
  0
LINE
  8
0
 10
-38.3337
 20
-163.19
 11
-38.2269
 21
-163.678
  0
LINE
  8
0
 10
-38.2269
 20
-163.678
 11
-38.1405
 21
-164.169
  0
LINE
  8
0
 10
-38.1405
 20
-164.169
 11
-38.0746
 21
-164.664
  0
LINE
  8
0
 10
-38.0746
 20
-164.664
 11
-38.0293
 21
-165.162
  0
LINE
  8
0
 10
-38.0293
 20
-165.162
 11
-38.0048
 21
-165.66
  0
LINE
  8
0
 10
-38.0048
 20
-165.66
 11
-38.0011
 21
-166.16
  0
LINE
  8
0
 10
-38.0011
 20
-166.16
 11
-38.0181
 21
-166.659
  0
LINE
  8
0
 10
-38.0181
 20
-166.659
 11
-38.0558
 21
-167.156
  0
LINE
  8
0
 10
-38.0558
 20
-167.156
 11
-38.1143
 21
-167.652
  0
LINE
  8
0
 10
-38.1143
 20
-167.652
 11
-38.1933
 21
-168.145
  0
LINE
  8
0
 10
-38.1933
 20
-168.145
 11
-38.2928
 21
-168.635
  0
LINE
  8
0
 10
-38.2928
 20
-168.635
 11
-38.4125
 21
-169.119
  0
LINE
  8
0
 10
-38.4125
 20
-169.119
 11
-38.5523
 21
-169.599
  0
LINE
  8
0
 10
-38.5523
 20
-169.599
 11
-38.7119
 21
-170.072
  0
LINE
  8
0
 10
-38.7119
 20
-170.072
 11
-38.891
 21
-170.538
  0
LINE
  8
0
 10
-38.891
 20
-170.538
 11
-39.0894
 21
-170.996
  0
LINE
  8
0
 10
-39.0894
 20
-170.996
 11
-39.3067
 21
-171.445
  0
LINE
  8
0
 10
-39.3067
 20
-171.445
 11
-39.5424
 21
-171.886
  0
LINE
  8
0
 10
-39.5424
 20
-171.886
 11
-39.7963
 21
-172.315
  0
LINE
  8
0
 10
-39.7963
 20
-172.315
 11
-40.0679
 21
-172.734
  0
LINE
  8
0
 10
-40.0679
 20
-172.734
 11
-40.3566
 21
-173.142
  0
LINE
  8
0
 10
-40.3566
 20
-173.142
 11
-40.662
 21
-173.537
  0
LINE
  8
0
 10
-40.662
 20
-173.537
 11
-40.9836
 21
-173.919
  0
LINE
  8
0
 10
-40.9836
 20
-173.919
 11
-41.3208
 21
-174.287
  0
LINE
  8
0
 10
-41.3208
 20
-174.287
 11
-41.6731
 21
-174.641
  0
LINE
  8
0
 10
-41.6731
 20
-174.641
 11
-42.0397
 21
-174.98
  0
LINE
  8
0
 10
-42.0397
 20
-174.98
 11
-42.4202
 21
-175.303
  0
LINE
  8
0
 10
-42.4202
 20
-175.303
 11
-42.8137
 21
-175.61
  0
LINE
  8
0
 10
-42.8137
 20
-175.61
 11
-43.2197
 21
-175.901
  0
LINE
  8
0
 10
-43.2197
 20
-175.901
 11
-43.6374
 21
-176.174
  0
LINE
  8
0
 10
-43.6374
 20
-176.174
 11
-44.0662
 21
-176.43
  0
LINE
  8
0
 10
-44.0662
 20
-176.43
 11
-44.5052
 21
-176.668
  0
LINE
  8
0
 10
-44.5052
 20
-176.668
 11
-44.9537
 21
-176.887
  0
LINE
  8
0
 10
-44.9537
 20
-176.887
 11
-45.411
 21
-177.088
  0
LINE
  8
0
 10
-45.411
 20
-177.088
 11
-45.8762
 21
-177.269
  0
LINE
  8
0
 10
-45.8762
 20
-177.269
 11
-46.3486
 21
-177.431
  0
LINE
  8
0
 10
-46.3486
 20
-177.431
 11
-46.8272
 21
-177.573
  0
LINE
  8
0
 10
-46.8272
 20
-177.573
 11
-47.3114
 21
-177.695
  0
LINE
  8
0
 10
-47.3114
 20
-177.695
 11
-47.8002
 21
-177.797
  0
LINE
  8
0
 10
-47.8002
 20
-177.797
 11
-48.2928
 21
-177.878
  0
LINE
  8
0
 10
-48.2928
 20
-177.878
 11
-48.7884
 21
-177.939
  0
LINE
  8
0
 10
-48.7884
 20
-177.939
 11
-49.2861
 21
-177.979
  0
LINE
  8
0
 10
-49.2861
 20
-177.979
 11
-49.785
 21
-177.998
  0
LINE
  8
0
 10
-49.785
 20
-177.998
 11
-50.2843
 21
-177.997
  0
LINE
  8
0
 10
-72.0651
 20
-163.928
 11
-72.5447
 21
-163.826
  0
LINE
  8
0
 10
-72.5447
 20
-163.826
 11
-72.9791
 21
-163.599
  0
LINE
  8
0
 10
-72.9791
 20
-163.599
 11
-73.336
 21
-163.263
  0
LINE
  8
0
 10
-73.336
 20
-163.263
 11
-73.5892
 21
-162.843
  0
LINE
  8
0
 10
-73.5892
 20
-162.843
 11
-73.7196
 21
-162.371
  0
LINE
  8
0
 10
-73.7196
 20
-162.371
 11
-73.7178
 21
-161.88
  0
LINE
  8
0
 10
-73.7178
 20
-161.88
 11
-73.5837
 21
-161.409
  0
LINE
  8
0
 10
-73.5837
 20
-161.409
 11
-73.3274
 21
-160.991
  0
LINE
  8
0
 10
-73.3274
 20
-160.991
 11
-72.9679
 21
-160.658
  0
LINE
  8
0
 10
-72.9679
 20
-160.658
 11
-72.5318
 21
-160.434
  0
LINE
  8
0
 10
-72.5318
 20
-160.434
 11
-72.0515
 21
-160.336
  0
LINE
  8
0
 10
-72.0515
 20
-160.336
 11
-71.5626
 21
-160.371
  0
LINE
  8
0
 10
-71.5626
 20
-160.371
 11
-70.8662
 21
-160.494
  0
LINE
  8
0
 10
-70.8662
 20
-160.494
 11
-70.4049
 21
-160.66
  0
LINE
  8
0
 10
-70.4049
 20
-160.66
 11
-70.0055
 21
-160.944
  0
LINE
  8
0
 10
-70.0055
 20
-160.944
 11
-69.6976
 21
-161.326
  0
LINE
  8
0
 10
-69.6976
 20
-161.326
 11
-69.504
 21
-161.776
  0
LINE
  8
0
 10
-69.504
 20
-161.776
 11
-69.4391
 21
-162.262
  0
LINE
  8
0
 10
-69.4391
 20
-162.262
 11
-69.5077
 21
-162.747
  0
LINE
  8
0
 10
-69.5077
 20
-162.747
 11
-69.7047
 21
-163.196
  0
LINE
  8
0
 10
-69.7047
 20
-163.196
 11
-70.0155
 21
-163.575
  0
LINE
  8
0
 10
-70.0155
 20
-163.575
 11
-70.4171
 21
-163.856
  0
LINE
  8
0
 10
-70.4171
 20
-163.856
 11
-70.8796
 21
-164.019
  0
LINE
  8
0
 10
-70.8796
 20
-164.019
 11
-71.3688
 21
-164.05
  0
LINE
  8
0
 10
-71.3688
 20
-164.05
 11
-72.0651
 21
-163.928
  0
LINE
  8
0
 10
-81.1516
 20
-170.583
 11
-81.6004
 21
-170.385
  0
LINE
  8
0
 10
-81.6004
 20
-170.385
 11
-81.9795
 21
-170.075
  0
LINE
  8
0
 10
-81.9795
 20
-170.075
 11
-82.2607
 21
-169.673
  0
LINE
  8
0
 10
-82.2607
 20
-169.673
 11
-82.4231
 21
-169.211
  0
LINE
  8
0
 10
-82.4231
 20
-169.211
 11
-82.4547
 21
-168.721
  0
LINE
  8
0
 10
-82.4547
 20
-168.721
 11
-82.3319
 21
-168.025
  0
LINE
  8
0
 10
-82.3319
 20
-168.025
 11
-82.2303
 21
-167.546
  0
LINE
  8
0
 10
-82.2303
 20
-167.546
 11
-82.0032
 21
-167.111
  0
LINE
  8
0
 10
-82.0032
 20
-167.111
 11
-81.6672
 21
-166.754
  0
LINE
  8
0
 10
-81.6672
 20
-166.754
 11
-81.2474
 21
-166.501
  0
LINE
  8
0
 10
-81.2474
 20
-166.501
 11
-80.7749
 21
-166.371
  0
LINE
  8
0
 10
-80.7749
 20
-166.371
 11
-80.2847
 21
-166.372
  0
LINE
  8
0
 10
-80.2847
 20
-166.372
 11
-79.8132
 21
-166.506
  0
LINE
  8
0
 10
-79.8132
 20
-166.506
 11
-79.3953
 21
-166.763
  0
LINE
  8
0
 10
-79.3953
 20
-166.763
 11
-79.0621
 21
-167.122
  0
LINE
  8
0
 10
-79.0621
 20
-167.122
 11
-78.8382
 21
-167.558
  0
LINE
  8
0
 10
-78.8382
 20
-167.558
 11
-78.7403
 21
-168.039
  0
LINE
  8
0
 10
-78.7403
 20
-168.039
 11
-78.7756
 21
-168.528
  0
LINE
  8
0
 10
-78.7756
 20
-168.528
 11
-78.8984
 21
-169.224
  0
LINE
  8
0
 10
-78.8984
 20
-169.224
 11
-79.0643
 21
-169.685
  0
LINE
  8
0
 10
-79.0643
 20
-169.685
 11
-79.3485
 21
-170.085
  0
LINE
  8
0
 10
-79.3485
 20
-170.085
 11
-79.7299
 21
-170.393
  0
LINE
  8
0
 10
-79.7299
 20
-170.393
 11
-80.1803
 21
-170.586
  0
LINE
  8
0
 10
-80.1803
 20
-170.586
 11
-80.6662
 21
-170.651
  0
LINE
  8
0
 10
-80.6662
 20
-170.651
 11
-81.1516
 21
-170.583
  0
LINE
  8
0
 10
-28.4374
 20
-171.629
 11
-29.1338
 21
-171.506
  0
LINE
  8
0
 10
-29.1338
 20
-171.506
 11
-29.5951
 21
-171.34
  0
LINE
  8
0
 10
-29.5951
 20
-171.34
 11
-29.9945
 21
-171.056
  0
LINE
  8
0
 10
-29.9945
 20
-171.056
 11
-30.3024
 21
-170.674
  0
LINE
  8
0
 10
-30.3024
 20
-170.674
 11
-30.496
 21
-170.224
  0
LINE
  8
0
 10
-30.496
 20
-170.224
 11
-30.5609
 21
-169.738
  0
LINE
  8
0
 10
-30.5609
 20
-169.738
 11
-30.4923
 21
-169.253
  0
LINE
  8
0
 10
-30.4923
 20
-169.253
 11
-30.2953
 21
-168.804
  0
LINE
  8
0
 10
-30.2953
 20
-168.804
 11
-29.9845
 21
-168.425
  0
LINE
  8
0
 10
-29.9845
 20
-168.425
 11
-29.5829
 21
-168.144
  0
LINE
  8
0
 10
-29.5829
 20
-168.144
 11
-29.1204
 21
-167.981
  0
LINE
  8
0
 10
-29.1204
 20
-167.981
 11
-28.6312
 21
-167.95
  0
LINE
  8
0
 10
-28.6312
 20
-167.95
 11
-27.9349
 21
-168.072
  0
LINE
  8
0
 10
-27.9349
 20
-168.072
 11
-27.4553
 21
-168.174
  0
LINE
  8
0
 10
-27.4553
 20
-168.174
 11
-27.0209
 21
-168.401
  0
LINE
  8
0
 10
-27.0209
 20
-168.401
 11
-26.6639
 21
-168.737
  0
LINE
  8
0
 10
-26.6639
 20
-168.737
 11
-26.4108
 21
-169.157
  0
LINE
  8
0
 10
-26.4108
 20
-169.157
 11
-26.2804
 21
-169.629
  0
LINE
  8
0
 10
-26.2804
 20
-169.629
 11
-26.2822
 21
-170.12
  0
LINE
  8
0
 10
-26.2822
 20
-170.12
 11
-26.4163
 21
-170.591
  0
LINE
  8
0
 10
-26.4163
 20
-170.591
 11
-26.6726
 21
-171.009
  0
LINE
  8
0
 10
-26.6726
 20
-171.009
 11
-27.0321
 21
-171.342
  0
LINE
  8
0
 10
-27.0321
 20
-171.342
 11
-27.4682
 21
-171.566
  0
LINE
  8
0
 10
-27.4682
 20
-171.566
 11
-27.9485
 21
-171.664
  0
LINE
  8
0
 10
-27.9485
 20
-171.664
 11
-28.4374
 21
-171.629
  0
LINE
  8
0
 10
-17.9078
 20
-174.907
 11
-18.3325
 21
-174.675
  0
LINE
  8
0
 10
-18.3325
 20
-174.675
 11
-18.6746
 21
-174.332
  0
LINE
  8
0
 10
-18.6746
 20
-174.332
 11
-18.9065
 21
-173.908
  0
LINE
  8
0
 10
-18.9065
 20
-173.908
 11
-19.0094
 21
-173.435
  0
LINE
  8
0
 10
-19.0094
 20
-173.435
 11
-18.9749
 21
-172.952
  0
LINE
  8
0
 10
-18.9749
 20
-172.952
 11
-18.8058
 21
-172.499
  0
LINE
  8
0
 10
-18.8058
 20
-172.499
 11
-18.5158
 21
-172.112
  0
LINE
  8
0
 10
-18.5158
 20
-172.112
 11
-18.1284
 21
-171.822
  0
LINE
  8
0
 10
-18.1284
 20
-171.822
 11
-17.6751
 21
-171.653
  0
LINE
  8
0
 10
-17.6751
 20
-171.653
 11
-17.1924
 21
-171.618
  0
LINE
  8
0
 10
-17.1924
 20
-171.618
 11
-16.7196
 21
-171.721
  0
LINE
  8
0
 10
-16.7196
 20
-171.721
 11
-16.2949
 21
-171.953
  0
LINE
  8
0
 10
-16.2949
 20
-171.953
 11
-15.9528
 21
-172.295
  0
LINE
  8
0
 10
-15.9528
 20
-172.295
 11
-15.7209
 21
-172.72
  0
LINE
  8
0
 10
-15.7209
 20
-172.72
 11
-15.618
 21
-173.192
  0
LINE
  8
0
 10
-15.618
 20
-173.192
 11
-15.6526
 21
-173.675
  0
LINE
  8
0
 10
-15.6526
 20
-173.675
 11
-15.8216
 21
-174.128
  0
LINE
  8
0
 10
-15.8216
 20
-174.128
 11
-16.1116
 21
-174.516
  0
LINE
  8
0
 10
-16.1116
 20
-174.516
 11
-16.499
 21
-174.806
  0
LINE
  8
0
 10
-16.499
 20
-174.806
 11
-16.9523
 21
-174.975
  0
LINE
  8
0
 10
-16.9523
 20
-174.975
 11
-17.435
 21
-175.009
  0
LINE
  8
0
 10
-17.435
 20
-175.009
 11
-17.9078
 21
-174.907
  0
LINE
  8
0
 10
4.95235
 20
-174.975
 11
4.49898
 21
-174.806
  0
LINE
  8
0
 10
4.49898
 20
-174.806
 11
4.11162
 21
-174.516
  0
LINE
  8
0
 10
4.11162
 20
-174.516
 11
3.82164
 21
-174.128
  0
LINE
  8
0
 10
3.82164
 20
-174.128
 11
3.65256
 21
-173.675
  0
LINE
  8
0
 10
3.65256
 20
-173.675
 11
3.61803
 21
-173.192
  0
LINE
  8
0
 10
3.61803
 20
-173.192
 11
3.72089
 21
-172.72
  0
LINE
  8
0
 10
3.72089
 20
-172.72
 11
3.95277
 21
-172.295
  0
LINE
  8
0
 10
3.95277
 20
-172.295
 11
4.29492
 21
-171.953
  0
LINE
  8
0
 10
4.29492
 20
-171.953
 11
4.7196
 21
-171.721
  0
LINE
  8
0
 10
4.7196
 20
-171.721
 11
5.19243
 21
-171.618
  0
LINE
  8
0
 10
5.19243
 20
-171.618
 11
5.67506
 21
-171.653
  0
LINE
  8
0
 10
5.67506
 20
-171.653
 11
6.12842
 21
-171.822
  0
LINE
  8
0
 10
6.12842
 20
-171.822
 11
6.51578
 21
-172.112
  0
LINE
  8
0
 10
6.51578
 20
-172.112
 11
6.80576
 21
-172.499
  0
LINE
  8
0
 10
6.80576
 20
-172.499
 11
6.97485
 21
-172.952
  0
LINE
  8
0
 10
6.97485
 20
-172.952
 11
7.00937
 21
-173.435
  0
LINE
  8
0
 10
7.00937
 20
-173.435
 11
6.90651
 21
-173.908
  0
LINE
  8
0
 10
6.90651
 20
-173.908
 11
6.67462
 21
-174.332
  0
LINE
  8
0
 10
6.67462
 20
-174.332
 11
6.33247
 21
-174.675
  0
LINE
  8
0
 10
6.33247
 20
-174.675
 11
5.90779
 21
-174.907
  0
LINE
  8
0
 10
5.90779
 20
-174.907
 11
5.43498
 21
-175.009
  0
LINE
  8
0
 10
5.43498
 20
-175.009
 11
4.95235
 21
-174.975
  0
LINE
  8
0
 10
-84.6887
 20
-202.087
 11
-85.1875
 21
-202.065
  0
LINE
  8
0
 10
-85.1875
 20
-202.065
 11
-85.6849
 21
-202.022
  0
LINE
  8
0
 10
-85.6849
 20
-202.022
 11
-86.1801
 21
-201.958
  0
LINE
  8
0
 10
-86.1801
 20
-201.958
 11
-86.6723
 21
-201.874
  0
LINE
  8
0
 10
-86.6723
 20
-201.874
 11
-87.1605
 21
-201.769
  0
LINE
  8
0
 10
-87.1605
 20
-201.769
 11
-87.644
 21
-201.645
  0
LINE
  8
0
 10
-87.644
 20
-201.645
 11
-88.1218
 21
-201.5
  0
LINE
  8
0
 10
-88.1218
 20
-201.5
 11
-88.5932
 21
-201.335
  0
LINE
  8
0
 10
-88.5932
 20
-201.335
 11
-89.0574
 21
-201.151
  0
LINE
  8
0
 10
-89.0574
 20
-201.151
 11
-89.5135
 21
-200.948
  0
LINE
  8
0
 10
-89.5135
 20
-200.948
 11
-89.9607
 21
-200.726
  0
LINE
  8
0
 10
-89.9607
 20
-200.726
 11
-90.3984
 21
-200.486
  0
LINE
  8
0
 10
-90.3984
 20
-200.486
 11
-90.8256
 21
-200.228
  0
LINE
  8
0
 10
-90.8256
 20
-200.228
 11
-91.2418
 21
-199.952
  0
LINE
  8
0
 10
-91.2418
 20
-199.952
 11
-91.6461
 21
-199.659
  0
LINE
  8
0
 10
-91.6461
 20
-199.659
 11
-92.0379
 21
-199.349
  0
LINE
  8
0
 10
-92.0379
 20
-199.349
 11
-92.4164
 21
-199.024
  0
LINE
  8
0
 10
-92.4164
 20
-199.024
 11
-92.7811
 21
-198.683
  0
LINE
  8
0
 10
-92.7811
 20
-198.683
 11
-93.1313
 21
-198.327
  0
LINE
  8
0
 10
-93.1313
 20
-198.327
 11
-93.4664
 21
-197.957
  0
LINE
  8
0
 10
-93.4664
 20
-197.957
 11
-93.7857
 21
-197.573
  0
LINE
  8
0
 10
-93.7857
 20
-197.573
 11
-94.0889
 21
-197.176
  0
LINE
  8
0
 10
-94.0889
 20
-197.176
 11
-94.3753
 21
-196.767
  0
LINE
  8
0
 10
-94.3753
 20
-196.767
 11
-94.6444
 21
-196.347
  0
LINE
  8
0
 10
-94.6444
 20
-196.347
 11
-94.8958
 21
-195.915
  0
LINE
  8
0
 10
-94.8958
 20
-195.915
 11
-95.129
 21
-195.474
  0
LINE
  8
0
 10
-95.129
 20
-195.474
 11
-95.3437
 21
-195.023
  0
LINE
  8
0
 10
-95.3437
 20
-195.023
 11
-95.5394
 21
-194.564
  0
LINE
  8
0
 10
-95.5394
 20
-194.564
 11
-95.7159
 21
-194.097
  0
LINE
  8
0
 10
-95.7159
 20
-194.097
 11
-95.8727
 21
-193.623
  0
LINE
  8
0
 10
-95.8727
 20
-193.623
 11
-96.0097
 21
-193.142
  0
LINE
  8
0
 10
-96.0097
 20
-193.142
 11
-96.1266
 21
-192.657
  0
LINE
  8
0
 10
-96.1266
 20
-192.657
 11
-96.2233
 21
-192.167
  0
LINE
  8
0
 10
-96.2233
 20
-192.167
 11
-96.2994
 21
-191.674
  0
LINE
  8
0
 10
-96.2994
 20
-191.674
 11
-96.355
 21
-191.178
  0
LINE
  8
0
 10
-96.355
 20
-191.178
 11
-96.3899
 21
-190.679
  0
LINE
  8
0
 10
-96.3899
 20
-190.679
 11
-96.404
 21
-190.18
  0
LINE
  8
0
 10
-96.404
 20
-190.18
 11
-96.3974
 21
-189.681
  0
LINE
  8
0
 10
-96.3974
 20
-189.681
 11
-96.37
 21
-189.183
  0
LINE
  8
0
 10
-96.37
 20
-189.183
 11
-96.3219
 21
-188.686
  0
LINE
  8
0
 10
-96.3219
 20
-188.686
 11
-96.2531
 21
-188.191
  0
LINE
  8
0
 10
-96.2531
 20
-188.191
 11
-96.1639
 21
-187.7
  0
LINE
  8
0
 10
-96.1639
 20
-187.7
 11
-96.0543
 21
-187.213
  0
LINE
  8
0
 10
-96.0543
 20
-187.213
 11
-95.9245
 21
-186.731
  0
LINE
  8
0
 10
-95.9245
 20
-186.731
 11
-95.7748
 21
-186.254
  0
LINE
  8
0
 10
-95.7748
 20
-186.254
 11
-95.6054
 21
-185.785
  0
LINE
  8
0
 10
-95.6054
 20
-185.785
 11
-95.4165
 21
-185.322
  0
LINE
  8
0
 10
-95.4165
 20
-185.322
 11
-95.2087
 21
-184.868
  0
LINE
  8
0
 10
-95.2087
 20
-184.868
 11
-94.9821
 21
-184.424
  0
LINE
  8
0
 10
-94.9821
 20
-184.424
 11
-94.7372
 21
-183.988
  0
LINE
  8
0
 10
-94.7372
 20
-183.988
 11
-94.4745
 21
-183.564
  0
LINE
  8
0
 10
-94.4745
 20
-183.564
 11
-94.1943
 21
-183.151
  0
LINE
  8
0
 10
-94.1943
 20
-183.151
 11
-93.8971
 21
-182.749
  0
LINE
  8
0
 10
-93.8971
 20
-182.749
 11
-93.5835
 21
-182.361
  0
LINE
  8
0
 10
-93.5835
 20
-182.361
 11
-93.2541
 21
-181.986
  0
LINE
  8
0
 10
-93.2541
 20
-181.986
 11
-92.9093
 21
-181.625
  0
LINE
  8
0
 10
-92.9093
 20
-181.625
 11
-92.5497
 21
-181.278
  0
LINE
  8
0
 10
-92.5497
 20
-181.278
 11
-92.1761
 21
-180.947
  0
LINE
  8
0
 10
-92.1761
 20
-180.947
 11
-91.789
 21
-180.632
  0
LINE
  8
0
 10
-91.789
 20
-180.632
 11
-91.3892
 21
-180.333
  0
LINE
  8
0
 10
-91.3892
 20
-180.333
 11
-90.9772
 21
-180.05
  0
LINE
  8
0
 10
-90.9772
 20
-180.05
 11
-90.5539
 21
-179.786
  0
LINE
  8
0
 10
-90.5539
 20
-179.786
 11
-90.1199
 21
-179.539
  0
LINE
  8
0
 10
-90.1199
 20
-179.539
 11
-89.6761
 21
-179.31
  0
LINE
  8
0
 10
-89.6761
 20
-179.31
 11
-89.2231
 21
-179.1
  0
LINE
  8
0
 10
-89.2231
 20
-179.1
 11
-88.7617
 21
-178.909
  0
LINE
  8
0
 10
-88.7617
 20
-178.909
 11
-88.2928
 21
-178.738
  0
LINE
  8
0
 10
-88.2928
 20
-178.738
 11
-87.8172
 21
-178.586
  0
LINE
  8
0
 10
-87.8172
 20
-178.586
 11
-87.3357
 21
-178.454
  0
LINE
  8
0
 10
-87.3357
 20
-178.454
 11
-86.8491
 21
-178.342
  0
LINE
  8
0
 10
-86.8491
 20
-178.342
 11
-86.3583
 21
-178.25
  0
LINE
  8
0
 10
-86.3583
 20
-178.25
 11
-85.8641
 21
-178.179
  0
LINE
  8
0
 10
-85.8641
 20
-178.179
 11
-85.3673
 21
-178.129
  0
LINE
  8
0
 10
-85.3673
 20
-178.129
 11
-84.8689
 21
-178.099
  0
LINE
  8
0
 10
-84.8689
 20
-178.099
 11
-84.3697
 21
-178.09
  0
LINE
  8
0
 10
-84.3697
 20
-178.09
 11
-83.8706
 21
-178.102
  0
LINE
  8
0
 10
-83.8706
 20
-178.102
 11
-83.3723
 21
-178.135
  0
LINE
  8
0
 10
-83.3723
 20
-178.135
 11
-82.8759
 21
-178.188
  0
LINE
  8
0
 10
-82.8759
 20
-178.188
 11
-82.3821
 21
-178.262
  0
LINE
  8
0
 10
-82.3821
 20
-178.262
 11
-81.8918
 21
-178.356
  0
LINE
  8
0
 10
-81.8918
 20
-178.356
 11
-81.4059
 21
-178.471
  0
LINE
  8
0
 10
-81.4059
 20
-178.471
 11
-80.9251
 21
-178.606
  0
LINE
  8
0
 10
-80.9251
 20
-178.606
 11
-80.4504
 21
-178.76
  0
LINE
  8
0
 10
-80.4504
 20
-178.76
 11
-79.9825
 21
-178.935
  0
LINE
  8
0
 10
-79.9825
 20
-178.935
 11
-79.5223
 21
-179.128
  0
LINE
  8
0
 10
-79.5223
 20
-179.128
 11
-79.0705
 21
-179.341
  0
LINE
  8
0
 10
-79.0705
 20
-179.341
 11
-78.628
 21
-179.572
  0
LINE
  8
0
 10
-78.628
 20
-179.572
 11
-78.1954
 21
-179.821
  0
LINE
  8
0
 10
-78.1954
 20
-179.821
 11
-77.7736
 21
-180.089
  0
LINE
  8
0
 10
-77.7736
 20
-180.089
 11
-77.3633
 21
-180.373
  0
LINE
  8
0
 10
-77.3633
 20
-180.373
 11
-76.9652
 21
-180.674
  0
LINE
  8
0
 10
-76.9652
 20
-180.674
 11
-76.5799
 21
-180.992
  0
LINE
  8
0
 10
-76.5799
 20
-180.992
 11
-76.2082
 21
-181.325
  0
LINE
  8
0
 10
-76.2082
 20
-181.325
 11
-75.8507
 21
-181.674
  0
LINE
  8
0
 10
-75.8507
 20
-181.674
 11
-75.508
 21
-182.037
  0
LINE
  8
0
 10
-75.508
 20
-182.037
 11
-75.1807
 21
-182.414
  0
LINE
  8
0
 10
-75.1807
 20
-182.414
 11
-74.8694
 21
-182.804
  0
LINE
  8
0
 10
-74.8694
 20
-182.804
 11
-74.5746
 21
-183.207
  0
LINE
  8
0
 10
-74.5746
 20
-183.207
 11
-74.2968
 21
-183.622
  0
LINE
  8
0
 10
-74.2968
 20
-183.622
 11
-74.0364
 21
-184.048
  0
LINE
  8
0
 10
-74.0364
 20
-184.048
 11
-73.7941
 21
-184.485
  0
LINE
  8
0
 10
-73.7941
 20
-184.485
 11
-73.5701
 21
-184.931
  0
LINE
  8
0
 10
-73.5701
 20
-184.931
 11
-73.3648
 21
-185.386
  0
LINE
  8
0
 10
-73.3648
 20
-185.386
 11
-73.1787
 21
-185.849
  0
LINE
  8
0
 10
-73.1787
 20
-185.849
 11
-73.012
 21
-186.32
  0
LINE
  8
0
 10
-73.012
 20
-186.32
 11
-72.8651
 21
-186.797
  0
LINE
  8
0
 10
-72.8651
 20
-186.797
 11
-72.7381
 21
-187.28
  0
LINE
  8
0
 10
-72.7381
 20
-187.28
 11
-72.6313
 21
-187.768
  0
LINE
  8
0
 10
-72.6313
 20
-187.768
 11
-72.5448
 21
-188.26
  0
LINE
  8
0
 10
-72.5448
 20
-188.26
 11
-72.479
 21
-188.755
  0
LINE
  8
0
 10
-72.479
 20
-188.755
 11
-72.4337
 21
-189.252
  0
LINE
  8
0
 10
-72.4337
 20
-189.252
 11
-72.4092
 21
-189.75
  0
LINE
  8
0
 10
-72.4092
 20
-189.75
 11
-72.4054
 21
-190.25
  0
LINE
  8
0
 10
-72.4054
 20
-190.25
 11
-72.4225
 21
-190.749
  0
LINE
  8
0
 10
-72.4225
 20
-190.749
 11
-72.4602
 21
-191.247
  0
LINE
  8
0
 10
-72.4602
 20
-191.247
 11
-72.5187
 21
-191.742
  0
LINE
  8
0
 10
-72.5187
 20
-191.742
 11
-72.5977
 21
-192.235
  0
LINE
  8
0
 10
-72.5977
 20
-192.235
 11
-72.6971
 21
-192.725
  0
LINE
  8
0
 10
-72.6971
 20
-192.725
 11
-72.8169
 21
-193.209
  0
LINE
  8
0
 10
-72.8169
 20
-193.209
 11
-72.9566
 21
-193.689
  0
LINE
  8
0
 10
-72.9566
 20
-193.689
 11
-73.1163
 21
-194.162
  0
LINE
  8
0
 10
-73.1163
 20
-194.162
 11
-73.2954
 21
-194.628
  0
LINE
  8
0
 10
-73.2954
 20
-194.628
 11
-73.4938
 21
-195.086
  0
LINE
  8
0
 10
-73.4938
 20
-195.086
 11
-73.711
 21
-195.536
  0
LINE
  8
0
 10
-73.711
 20
-195.536
 11
-73.9468
 21
-195.976
  0
LINE
  8
0
 10
-73.9468
 20
-195.976
 11
-74.2007
 21
-196.406
  0
LINE
  8
0
 10
-74.2007
 20
-196.406
 11
-74.4722
 21
-196.825
  0
LINE
  8
0
 10
-74.4722
 20
-196.825
 11
-74.761
 21
-197.232
  0
LINE
  8
0
 10
-74.761
 20
-197.232
 11
-75.0664
 21
-197.627
  0
LINE
  8
0
 10
-75.0664
 20
-197.627
 11
-75.388
 21
-198.009
  0
LINE
  8
0
 10
-75.388
 20
-198.009
 11
-75.7252
 21
-198.377
  0
LINE
  8
0
 10
-75.7252
 20
-198.377
 11
-76.0775
 21
-198.731
  0
LINE
  8
0
 10
-76.0775
 20
-198.731
 11
-76.4441
 21
-199.07
  0
LINE
  8
0
 10
-76.4441
 20
-199.07
 11
-76.8245
 21
-199.393
  0
LINE
  8
0
 10
-76.8245
 20
-199.393
 11
-77.2181
 21
-199.7
  0
LINE
  8
0
 10
-77.2181
 20
-199.7
 11
-77.6241
 21
-199.991
  0
LINE
  8
0
 10
-77.6241
 20
-199.991
 11
-78.0418
 21
-200.265
  0
LINE
  8
0
 10
-78.0418
 20
-200.265
 11
-78.4706
 21
-200.52
  0
LINE
  8
0
 10
-78.4706
 20
-200.52
 11
-78.9096
 21
-200.758
  0
LINE
  8
0
 10
-78.9096
 20
-200.758
 11
-79.3581
 21
-200.978
  0
LINE
  8
0
 10
-79.3581
 20
-200.978
 11
-79.8154
 21
-201.178
  0
LINE
  8
0
 10
-79.8154
 20
-201.178
 11
-80.2806
 21
-201.359
  0
LINE
  8
0
 10
-80.2806
 20
-201.359
 11
-80.7529
 21
-201.521
  0
LINE
  8
0
 10
-80.7529
 20
-201.521
 11
-81.2316
 21
-201.663
  0
LINE
  8
0
 10
-81.2316
 20
-201.663
 11
-81.7158
 21
-201.785
  0
LINE
  8
0
 10
-81.7158
 20
-201.785
 11
-82.2046
 21
-201.887
  0
LINE
  8
0
 10
-82.2046
 20
-201.887
 11
-82.6972
 21
-201.968
  0
LINE
  8
0
 10
-82.6972
 20
-201.968
 11
-83.1928
 21
-202.029
  0
LINE
  8
0
 10
-83.1928
 20
-202.029
 11
-83.6905
 21
-202.069
  0
LINE
  8
0
 10
-83.6905
 20
-202.069
 11
-84.1894
 21
-202.088
  0
LINE
  8
0
 10
-84.1894
 20
-202.088
 11
-84.6887
 21
-202.087
  0
LINE
  8
0
 10
-106.469
 20
-188.018
 11
-106.949
 21
-187.916
  0
LINE
  8
0
 10
-106.949
 20
-187.916
 11
-107.383
 21
-187.689
  0
LINE
  8
0
 10
-107.383
 20
-187.689
 11
-107.74
 21
-187.353
  0
LINE
  8
0
 10
-107.74
 20
-187.353
 11
-107.994
 21
-186.933
  0
LINE
  8
0
 10
-107.994
 20
-186.933
 11
-108.124
 21
-186.461
  0
LINE
  8
0
 10
-108.124
 20
-186.461
 11
-108.122
 21
-185.971
  0
LINE
  8
0
 10
-108.122
 20
-185.971
 11
-107.988
 21
-185.499
  0
LINE
  8
0
 10
-107.988
 20
-185.499
 11
-107.732
 21
-185.081
  0
LINE
  8
0
 10
-107.732
 20
-185.081
 11
-107.372
 21
-184.748
  0
LINE
  8
0
 10
-107.372
 20
-184.748
 11
-106.936
 21
-184.524
  0
LINE
  8
0
 10
-106.936
 20
-184.524
 11
-106.456
 21
-184.426
  0
LINE
  8
0
 10
-106.456
 20
-184.426
 11
-105.967
 21
-184.461
  0
LINE
  8
0
 10
-105.967
 20
-184.461
 11
-105.271
 21
-184.584
  0
LINE
  8
0
 10
-105.271
 20
-184.584
 11
-104.809
 21
-184.75
  0
LINE
  8
0
 10
-104.809
 20
-184.75
 11
-104.41
 21
-185.034
  0
LINE
  8
0
 10
-104.41
 20
-185.034
 11
-104.102
 21
-185.416
  0
LINE
  8
0
 10
-104.102
 20
-185.416
 11
-103.908
 21
-185.866
  0
LINE
  8
0
 10
-103.908
 20
-185.866
 11
-103.844
 21
-186.352
  0
LINE
  8
0
 10
-103.844
 20
-186.352
 11
-103.912
 21
-186.837
  0
LINE
  8
0
 10
-103.912
 20
-186.837
 11
-104.109
 21
-187.286
  0
LINE
  8
0
 10
-104.109
 20
-187.286
 11
-104.42
 21
-187.665
  0
LINE
  8
0
 10
-104.42
 20
-187.665
 11
-104.821
 21
-187.947
  0
LINE
  8
0
 10
-104.821
 20
-187.947
 11
-105.284
 21
-188.109
  0
LINE
  8
0
 10
-105.284
 20
-188.109
 11
-105.773
 21
-188.141
  0
LINE
  8
0
 10
-105.773
 20
-188.141
 11
-106.469
 21
-188.018
  0
LINE
  8
0
 10
-54.1197
 20
-189.718
 11
-54.5912
 21
-189.584
  0
LINE
  8
0
 10
-54.5912
 20
-189.584
 11
-55.0091
 21
-189.327
  0
LINE
  8
0
 10
-55.0091
 20
-189.327
 11
-55.3423
 21
-188.968
  0
LINE
  8
0
 10
-55.3423
 20
-188.968
 11
-55.5662
 21
-188.532
  0
LINE
  8
0
 10
-55.5662
 20
-188.532
 11
-55.6641
 21
-188.051
  0
LINE
  8
0
 10
-55.6641
 20
-188.051
 11
-55.6288
 21
-187.563
  0
LINE
  8
0
 10
-55.6288
 20
-187.563
 11
-55.506
 21
-186.866
  0
LINE
  8
0
 10
-55.506
 20
-186.866
 11
-55.3401
 21
-186.405
  0
LINE
  8
0
 10
-55.3401
 20
-186.405
 11
-55.0559
 21
-186.006
  0
LINE
  8
0
 10
-55.0559
 20
-186.006
 11
-54.6744
 21
-185.698
  0
LINE
  8
0
 10
-54.6744
 20
-185.698
 11
-54.2241
 21
-185.504
  0
LINE
  8
0
 10
-54.2241
 20
-185.504
 11
-53.7382
 21
-185.439
  0
LINE
  8
0
 10
-53.7382
 20
-185.439
 11
-53.2528
 21
-185.508
  0
LINE
  8
0
 10
-53.2528
 20
-185.508
 11
-52.8039
 21
-185.705
  0
LINE
  8
0
 10
-52.8039
 20
-185.705
 11
-52.4249
 21
-186.016
  0
LINE
  8
0
 10
-52.4249
 20
-186.016
 11
-52.1437
 21
-186.417
  0
LINE
  8
0
 10
-52.1437
 20
-186.417
 11
-51.9813
 21
-186.88
  0
LINE
  8
0
 10
-51.9813
 20
-186.88
 11
-51.9497
 21
-187.369
  0
LINE
  8
0
 10
-51.9497
 20
-187.369
 11
-52.0725
 21
-188.065
  0
LINE
  8
0
 10
-52.0725
 20
-188.065
 11
-52.174
 21
-188.545
  0
LINE
  8
0
 10
-52.174
 20
-188.545
 11
-52.4012
 21
-188.979
  0
LINE
  8
0
 10
-52.4012
 20
-188.979
 11
-52.7372
 21
-189.336
  0
LINE
  8
0
 10
-52.7372
 20
-189.336
 11
-53.157
 21
-189.589
  0
LINE
  8
0
 10
-53.157
 20
-189.589
 11
-53.6295
 21
-189.72
  0
LINE
  8
0
 10
-53.6295
 20
-189.72
 11
-54.1197
 21
-189.718
  0
LINE
  8
0
 10
-15.9372
 20
-190.936
 11
-16.3619
 21
-190.704
  0
LINE
  8
0
 10
-16.3619
 20
-190.704
 11
-16.7041
 21
-190.362
  0
LINE
  8
0
 10
-16.7041
 20
-190.362
 11
-16.936
 21
-189.937
  0
LINE
  8
0
 10
-16.936
 20
-189.937
 11
-17.0388
 21
-189.464
  0
LINE
  8
0
 10
-17.0388
 20
-189.464
 11
-17.0043
 21
-188.982
  0
LINE
  8
0
 10
-17.0043
 20
-188.982
 11
-16.8352
 21
-188.528
  0
LINE
  8
0
 10
-16.8352
 20
-188.528
 11
-16.5452
 21
-188.141
  0
LINE
  8
0
 10
-16.5452
 20
-188.141
 11
-16.1579
 21
-187.851
  0
LINE
  8
0
 10
-16.1579
 20
-187.851
 11
-15.7045
 21
-187.682
  0
LINE
  8
0
 10
-15.7045
 20
-187.682
 11
-15.2219
 21
-187.647
  0
LINE
  8
0
 10
-15.2219
 20
-187.647
 11
-14.7491
 21
-187.75
  0
LINE
  8
0
 10
-14.7491
 20
-187.75
 11
-14.3244
 21
-187.982
  0
LINE
  8
0
 10
-14.3244
 20
-187.982
 11
-13.9822
 21
-188.324
  0
LINE
  8
0
 10
-13.9822
 20
-188.324
 11
-13.7503
 21
-188.749
  0
LINE
  8
0
 10
-13.7503
 20
-188.749
 11
-13.6475
 21
-189.222
  0
LINE
  8
0
 10
-13.6475
 20
-189.222
 11
-13.682
 21
-189.705
  0
LINE
  8
0
 10
-13.682
 20
-189.705
 11
-13.8511
 21
-190.158
  0
LINE
  8
0
 10
-13.8511
 20
-190.158
 11
-14.1411
 21
-190.545
  0
LINE
  8
0
 10
-14.1411
 20
-190.545
 11
-14.5284
 21
-190.835
  0
LINE
  8
0
 10
-14.5284
 20
-190.835
 11
-14.9818
 21
-191.004
  0
LINE
  8
0
 10
-14.9818
 20
-191.004
 11
-15.4644
 21
-191.039
  0
LINE
  8
0
 10
-15.4644
 20
-191.039
 11
-15.9372
 21
-190.936
  0
LINE
  8
0
 10
-27.0182
 20
-191.004
 11
-27.4716
 21
-190.835
  0
LINE
  8
0
 10
-27.4716
 20
-190.835
 11
-27.8589
 21
-190.545
  0
LINE
  8
0
 10
-27.8589
 20
-190.545
 11
-28.1489
 21
-190.158
  0
LINE
  8
0
 10
-28.1489
 20
-190.158
 11
-28.318
 21
-189.705
  0
LINE
  8
0
 10
-28.318
 20
-189.705
 11
-28.3525
 21
-189.222
  0
LINE
  8
0
 10
-28.3525
 20
-189.222
 11
-28.2497
 21
-188.749
  0
LINE
  8
0
 10
-28.2497
 20
-188.749
 11
-28.0178
 21
-188.324
  0
LINE
  8
0
 10
-28.0178
 20
-188.324
 11
-27.6756
 21
-187.982
  0
LINE
  8
0
 10
-27.6756
 20
-187.982
 11
-27.2509
 21
-187.75
  0
LINE
  8
0
 10
-27.2509
 20
-187.75
 11
-26.7781
 21
-187.647
  0
LINE
  8
0
 10
-26.7781
 20
-187.647
 11
-26.2955
 21
-187.682
  0
LINE
  8
0
 10
-26.2955
 20
-187.682
 11
-25.8421
 21
-187.851
  0
LINE
  8
0
 10
-25.8421
 20
-187.851
 11
-25.4548
 21
-188.141
  0
LINE
  8
0
 10
-25.4548
 20
-188.141
 11
-25.1648
 21
-188.528
  0
LINE
  8
0
 10
-25.1648
 20
-188.528
 11
-24.9957
 21
-188.982
  0
LINE
  8
0
 10
-24.9957
 20
-188.982
 11
-24.9612
 21
-189.464
  0
LINE
  8
0
 10
-24.9612
 20
-189.464
 11
-25.064
 21
-189.937
  0
LINE
  8
0
 10
-25.064
 20
-189.937
 11
-25.2959
 21
-190.362
  0
LINE
  8
0
 10
-25.2959
 20
-190.362
 11
-25.6381
 21
-190.704
  0
LINE
  8
0
 10
-25.6381
 20
-190.704
 11
-26.0628
 21
-190.936
  0
LINE
  8
0
 10
-26.0628
 20
-190.936
 11
-26.5356
 21
-191.039
  0
LINE
  8
0
 10
-26.5356
 20
-191.039
 11
-27.0182
 21
-191.004
  0
LINE
  8
0
 10
-21.373
 20
-200.136
 11
-21.867
 21
-200.076
  0
LINE
  8
0
 10
-21.867
 20
-200.076
 11
-22.3529
 21
-199.969
  0
LINE
  8
0
 10
-22.3529
 20
-199.969
 11
-22.8262
 21
-199.815
  0
LINE
  8
0
 10
-22.8262
 20
-199.815
 11
-23.2824
 21
-199.617
  0
LINE
  8
0
 10
-23.2824
 20
-199.617
 11
-23.7173
 21
-199.375
  0
LINE
  8
0
 10
-23.7173
 20
-199.375
 11
-24.1269
 21
-199.092
  0
LINE
  8
0
 10
-24.1269
 20
-199.092
 11
-24.5072
 21
-198.771
  0
LINE
  8
0
 10
-24.5072
 20
-198.771
 11
-24.8548
 21
-198.415
  0
LINE
  8
0
 10
-24.8548
 20
-198.415
 11
-25.1664
 21
-198.027
  0
LINE
  8
0
 10
-25.1664
 20
-198.027
 11
-25.4391
 21
-197.611
  0
LINE
  8
0
 10
-25.4391
 20
-197.611
 11
-25.6704
 21
-197.17
  0
LINE
  8
0
 10
-25.6704
 20
-197.17
 11
-25.858
 21
-196.709
  0
LINE
  8
0
 10
-25.858
 20
-196.709
 11
-26.0004
 21
-196.232
  0
LINE
  8
0
 10
-26.0004
 20
-196.232
 11
-26.0959
 21
-195.744
  0
LINE
  8
0
 10
-26.0959
 20
-195.744
 11
-26.144
 21
-195.249
  0
LINE
  8
0
 10
-26.144
 20
-195.249
 11
-26.144
 21
-194.751
  0
LINE
  8
0
 10
-26.144
 20
-194.751
 11
-26.0959
 21
-194.256
  0
LINE
  8
0
 10
-26.0959
 20
-194.256
 11
-26.0004
 21
-193.768
  0
LINE
  8
0
 10
-26.0004
 20
-193.768
 11
-25.858
 21
-193.291
  0
LINE
  8
0
 10
-25.858
 20
-193.291
 11
-25.6704
 21
-192.83
  0
LINE
  8
0
 10
-25.6704
 20
-192.83
 11
-25.4391
 21
-192.389
  0
LINE
  8
0
 10
-25.4391
 20
-192.389
 11
-25.1664
 21
-191.973
  0
LINE
  8
0
 10
-25.1664
 20
-191.973
 11
-24.8548
 21
-191.585
  0
LINE
  8
0
 10
-24.8548
 20
-191.585
 11
-24.5072
 21
-191.229
  0
LINE
  8
0
 10
-24.5072
 20
-191.229
 11
-24.1269
 21
-190.908
  0
LINE
  8
0
 10
-24.1269
 20
-190.908
 11
-23.7173
 21
-190.625
  0
LINE
  8
0
 10
-23.7173
 20
-190.625
 11
-23.2824
 21
-190.383
  0
LINE
  8
0
 10
-23.2824
 20
-190.383
 11
-22.8262
 21
-190.185
  0
LINE
  8
0
 10
-22.8262
 20
-190.185
 11
-22.3529
 21
-190.031
  0
LINE
  8
0
 10
-22.3529
 20
-190.031
 11
-21.867
 21
-189.924
  0
LINE
  8
0
 10
-21.867
 20
-189.924
 11
-21.373
 21
-189.864
  0
LINE
  8
0
 10
-21.373
 20
-189.864
 11
-20.8755
 21
-189.852
  0
LINE
  8
0
 10
-20.8755
 20
-189.852
 11
-20.3792
 21
-189.888
  0
LINE
  8
0
 10
-20.3792
 20
-189.888
 11
-19.8887
 21
-189.971
  0
LINE
  8
0
 10
-19.8887
 20
-189.971
 11
-19.4086
 21
-190.102
  0
LINE
  8
0
 10
-19.4086
 20
-190.102
 11
-18.9433
 21
-190.279
  0
LINE
  8
0
 10
-18.9433
 20
-190.279
 11
-18.4972
 21
-190.499
  0
LINE
  8
0
 10
-18.4972
 20
-190.499
 11
-18.0745
 21
-190.762
  0
LINE
  8
0
 10
-18.0745
 20
-190.762
 11
-17.6791
 21
-191.064
  0
LINE
  8
0
 10
-17.6791
 20
-191.064
 11
-17.3147
 21
-191.403
  0
LINE
  8
0
 10
-17.3147
 20
-191.403
 11
-16.9847
 21
-191.775
  0
LINE
  8
0
 10
-16.9847
 20
-191.775
 11
-16.6922
 21
-192.178
  0
LINE
  8
0
 10
-16.6922
 20
-192.178
 11
-16.4399
 21
-192.607
  0
LINE
  8
0
 10
-16.4399
 20
-192.607
 11
-16.2302
 21
-193.058
  0
LINE
  8
0
 10
-16.2302
 20
-193.058
 11
-16.065
 21
-193.527
  0
LINE
  8
0
 10
-16.065
 20
-193.527
 11
-15.9459
 21
-194.011
  0
LINE
  8
0
 10
-15.9459
 20
-194.011
 11
-15.874
 21
-194.503
  0
LINE
  8
0
 10
-15.874
 20
-194.503
 11
-15.85
 21
-195
  0
LINE
  8
0
 10
-15.85
 20
-195
 11
-15.874
 21
-195.497
  0
LINE
  8
0
 10
-15.874
 20
-195.497
 11
-15.9459
 21
-195.989
  0
LINE
  8
0
 10
-15.9459
 20
-195.989
 11
-16.065
 21
-196.473
  0
LINE
  8
0
 10
-16.065
 20
-196.473
 11
-16.2302
 21
-196.942
  0
LINE
  8
0
 10
-16.2302
 20
-196.942
 11
-16.4399
 21
-197.393
  0
LINE
  8
0
 10
-16.4399
 20
-197.393
 11
-16.6922
 21
-197.822
  0
LINE
  8
0
 10
-16.6922
 20
-197.822
 11
-16.9847
 21
-198.225
  0
LINE
  8
0
 10
-16.9847
 20
-198.225
 11
-17.3147
 21
-198.597
  0
LINE
  8
0
 10
-17.3147
 20
-198.597
 11
-17.6791
 21
-198.936
  0
LINE
  8
0
 10
-17.6791
 20
-198.936
 11
-18.0745
 21
-199.238
  0
LINE
  8
0
 10
-18.0745
 20
-199.238
 11
-18.4972
 21
-199.501
  0
LINE
  8
0
 10
-18.4972
 20
-199.501
 11
-18.9433
 21
-199.721
  0
LINE
  8
0
 10
-18.9433
 20
-199.721
 11
-19.4086
 21
-199.898
  0
LINE
  8
0
 10
-19.4086
 20
-199.898
 11
-19.8887
 21
-200.029
  0
LINE
  8
0
 10
-19.8887
 20
-200.029
 11
-20.3792
 21
-200.112
  0
LINE
  8
0
 10
-20.3792
 20
-200.112
 11
-20.8755
 21
-200.148
  0
LINE
  8
0
 10
-20.8755
 20
-200.148
 11
-21.373
 21
-200.136
  0
LINE
  8
0
 10
-62.8418
 20
-195.719
 11
-63.5382
 21
-195.596
  0
LINE
  8
0
 10
-63.5382
 20
-195.596
 11
-63.9995
 21
-195.43
  0
LINE
  8
0
 10
-63.9995
 20
-195.43
 11
-64.3988
 21
-195.146
  0
LINE
  8
0
 10
-64.3988
 20
-195.146
 11
-64.7068
 21
-194.765
  0
LINE
  8
0
 10
-64.7068
 20
-194.765
 11
-64.9004
 21
-194.314
  0
LINE
  8
0
 10
-64.9004
 20
-194.314
 11
-64.9653
 21
-193.828
  0
LINE
  8
0
 10
-64.9653
 20
-193.828
 11
-64.8967
 21
-193.343
  0
LINE
  8
0
 10
-64.8967
 20
-193.343
 11
-64.6997
 21
-192.894
  0
LINE
  8
0
 10
-64.6997
 20
-192.894
 11
-64.3889
 21
-192.515
  0
LINE
  8
0
 10
-64.3889
 20
-192.515
 11
-63.9873
 21
-192.234
  0
LINE
  8
0
 10
-63.9873
 20
-192.234
 11
-63.5248
 21
-192.072
  0
LINE
  8
0
 10
-63.5248
 20
-192.072
 11
-63.0356
 21
-192.04
  0
LINE
  8
0
 10
-63.0356
 20
-192.04
 11
-62.3393
 21
-192.163
  0
LINE
  8
0
 10
-62.3393
 20
-192.163
 11
-61.8597
 21
-192.264
  0
LINE
  8
0
 10
-61.8597
 20
-192.264
 11
-61.4253
 21
-192.491
  0
LINE
  8
0
 10
-61.4253
 20
-192.491
 11
-61.0683
 21
-192.827
  0
LINE
  8
0
 10
-61.0683
 20
-192.827
 11
-60.8152
 21
-193.247
  0
LINE
  8
0
 10
-60.8152
 20
-193.247
 11
-60.6848
 21
-193.72
  0
LINE
  8
0
 10
-60.6848
 20
-193.72
 11
-60.6866
 21
-194.21
  0
LINE
  8
0
 10
-60.6866
 20
-194.21
 11
-60.8207
 21
-194.681
  0
LINE
  8
0
 10
-60.8207
 20
-194.681
 11
-61.077
 21
-195.099
  0
LINE
  8
0
 10
-61.077
 20
-195.099
 11
-61.4365
 21
-195.432
  0
LINE
  8
0
 10
-61.4365
 20
-195.432
 11
-61.8726
 21
-195.656
  0
LINE
  8
0
 10
-61.8726
 20
-195.656
 11
-62.3529
 21
-195.754
  0
LINE
  8
0
 10
-62.3529
 20
-195.754
 11
-62.8418
 21
-195.719
  0
LINE
  8
0
 10
-15.7045
 20
-202.318
 11
-16.1579
 21
-202.149
  0
LINE
  8
0
 10
-16.1579
 20
-202.149
 11
-16.5452
 21
-201.859
  0
LINE
  8
0
 10
-16.5452
 20
-201.859
 11
-16.8352
 21
-201.472
  0
LINE
  8
0
 10
-16.8352
 20
-201.472
 11
-17.0043
 21
-201.018
  0
LINE
  8
0
 10
-17.0043
 20
-201.018
 11
-17.0388
 21
-200.536
  0
LINE
  8
0
 10
-17.0388
 20
-200.536
 11
-16.936
 21
-200.063
  0
LINE
  8
0
 10
-16.936
 20
-200.063
 11
-16.7041
 21
-199.638
  0
LINE
  8
0
 10
-16.7041
 20
-199.638
 11
-16.3619
 21
-199.296
  0
LINE
  8
0
 10
-16.3619
 20
-199.296
 11
-15.9372
 21
-199.064
  0
LINE
  8
0
 10
-15.9372
 20
-199.064
 11
-15.4644
 21
-198.961
  0
LINE
  8
0
 10
-15.4644
 20
-198.961
 11
-14.9818
 21
-198.996
  0
LINE
  8
0
 10
-14.9818
 20
-198.996
 11
-14.5284
 21
-199.165
  0
LINE
  8
0
 10
-14.5284
 20
-199.165
 11
-14.1411
 21
-199.455
  0
LINE
  8
0
 10
-14.1411
 20
-199.455
 11
-13.8511
 21
-199.842
  0
LINE
  8
0
 10
-13.8511
 20
-199.842
 11
-13.682
 21
-200.295
  0
LINE
  8
0
 10
-13.682
 20
-200.295
 11
-13.6475
 21
-200.778
  0
LINE
  8
0
 10
-13.6475
 20
-200.778
 11
-13.7503
 21
-201.251
  0
LINE
  8
0
 10
-13.7503
 20
-201.251
 11
-13.9822
 21
-201.676
  0
LINE
  8
0
 10
-13.9822
 20
-201.676
 11
-14.3244
 21
-202.018
  0
LINE
  8
0
 10
-14.3244
 20
-202.018
 11
-14.7491
 21
-202.25
  0
LINE
  8
0
 10
-14.7491
 20
-202.25
 11
-15.2219
 21
-202.353
  0
LINE
  8
0
 10
-15.2219
 20
-202.353
 11
-15.7045
 21
-202.318
  0
LINE
  8
0
 10
-27.2509
 20
-202.25
 11
-27.6756
 21
-202.018
  0
LINE
  8
0
 10
-27.6756
 20
-202.018
 11
-28.0178
 21
-201.676
  0
LINE
  8
0
 10
-28.0178
 20
-201.676
 11
-28.2497
 21
-201.251
  0
LINE
  8
0
 10
-28.2497
 20
-201.251
 11
-28.3525
 21
-200.778
  0
LINE
  8
0
 10
-28.3525
 20
-200.778
 11
-28.318
 21
-200.295
  0
LINE
  8
0
 10
-28.318
 20
-200.295
 11
-28.1489
 21
-199.842
  0
LINE
  8
0
 10
-28.1489
 20
-199.842
 11
-27.8589
 21
-199.455
  0
LINE
  8
0
 10
-27.8589
 20
-199.455
 11
-27.4716
 21
-199.165
  0
LINE
  8
0
 10
-27.4716
 20
-199.165
 11
-27.0182
 21
-198.996
  0
LINE
  8
0
 10
-27.0182
 20
-198.996
 11
-26.5356
 21
-198.961
  0
LINE
  8
0
 10
-26.5356
 20
-198.961
 11
-26.0628
 21
-199.064
  0
LINE
  8
0
 10
-26.0628
 20
-199.064
 11
-25.6381
 21
-199.296
  0
LINE
  8
0
 10
-25.6381
 20
-199.296
 11
-25.2959
 21
-199.638
  0
LINE
  8
0
 10
-25.2959
 20
-199.638
 11
-25.064
 21
-200.063
  0
LINE
  8
0
 10
-25.064
 20
-200.063
 11
-24.9612
 21
-200.536
  0
LINE
  8
0
 10
-24.9612
 20
-200.536
 11
-24.9957
 21
-201.018
  0
LINE
  8
0
 10
-24.9957
 20
-201.018
 11
-25.1648
 21
-201.472
  0
LINE
  8
0
 10
-25.1648
 20
-201.472
 11
-25.4548
 21
-201.859
  0
LINE
  8
0
 10
-25.4548
 20
-201.859
 11
-25.8421
 21
-202.149
  0
LINE
  8
0
 10
-25.8421
 20
-202.149
 11
-26.2955
 21
-202.318
  0
LINE
  8
0
 10
-26.2955
 20
-202.318
 11
-26.7781
 21
-202.353
  0
LINE
  8
0
 10
-26.7781
 20
-202.353
 11
-27.2509
 21
-202.25
  0
LINE
  8
0
 10
-88.5241
 20
-213.808
 11
-88.9956
 21
-213.674
  0
LINE
  8
0
 10
-88.9956
 20
-213.674
 11
-89.4135
 21
-213.418
  0
LINE
  8
0
 10
-89.4135
 20
-213.418
 11
-89.7467
 21
-213.058
  0
LINE
  8
0
 10
-89.7467
 20
-213.058
 11
-89.9705
 21
-212.622
  0
LINE
  8
0
 10
-89.9705
 20
-212.622
 11
-90.0685
 21
-212.142
  0
LINE
  8
0
 10
-90.0685
 20
-212.142
 11
-90.0331
 21
-211.653
  0
LINE
  8
0
 10
-90.0331
 20
-211.653
 11
-89.9104
 21
-210.956
  0
LINE
  8
0
 10
-89.9104
 20
-210.956
 11
-89.7444
 21
-210.495
  0
LINE
  8
0
 10
-89.7444
 20
-210.495
 11
-89.4603
 21
-210.096
  0
LINE
  8
0
 10
-89.4603
 20
-210.096
 11
-89.0788
 21
-209.788
  0
LINE
  8
0
 10
-89.0788
 20
-209.788
 11
-88.6285
 21
-209.594
  0
LINE
  8
0
 10
-88.6285
 20
-209.594
 11
-88.1426
 21
-209.529
  0
LINE
  8
0
 10
-88.1426
 20
-209.529
 11
-87.6572
 21
-209.598
  0
LINE
  8
0
 10
-87.6572
 20
-209.598
 11
-87.2083
 21
-209.795
  0
LINE
  8
0
 10
-87.2083
 20
-209.795
 11
-86.8293
 21
-210.106
  0
LINE
  8
0
 10
-86.8293
 20
-210.106
 11
-86.5481
 21
-210.507
  0
LINE
  8
0
 10
-86.5481
 20
-210.507
 11
-86.3857
 21
-210.97
  0
LINE
  8
0
 10
-86.3857
 20
-210.97
 11
-86.3541
 21
-211.459
  0
LINE
  8
0
 10
-86.3541
 20
-211.459
 11
-86.4769
 21
-212.155
  0
LINE
  8
0
 10
-86.4769
 20
-212.155
 11
-86.5784
 21
-212.635
  0
LINE
  8
0
 10
-86.5784
 20
-212.635
 11
-86.8056
 21
-213.069
  0
LINE
  8
0
 10
-86.8056
 20
-213.069
 11
-87.1415
 21
-213.426
  0
LINE
  8
0
 10
-87.1415
 20
-213.426
 11
-87.5613
 21
-213.679
  0
LINE
  8
0
 10
-87.5613
 20
-213.679
 11
-88.0339
 21
-213.81
  0
LINE
  8
0
 10
-88.0339
 20
-213.81
 11
-88.5241
 21
-213.808
  0
LINE
  8
0
 10
-17.6751
 20
-218.347
 11
-18.1284
 21
-218.178
  0
LINE
  8
0
 10
-18.1284
 20
-218.178
 11
-18.5158
 21
-217.888
  0
LINE
  8
0
 10
-18.5158
 20
-217.888
 11
-18.8058
 21
-217.501
  0
LINE
  8
0
 10
-18.8058
 20
-217.501
 11
-18.9749
 21
-217.048
  0
LINE
  8
0
 10
-18.9749
 20
-217.048
 11
-19.0094
 21
-216.565
  0
LINE
  8
0
 10
-19.0094
 20
-216.565
 11
-18.9065
 21
-216.092
  0
LINE
  8
0
 10
-18.9065
 20
-216.092
 11
-18.6746
 21
-215.668
  0
LINE
  8
0
 10
-18.6746
 20
-215.668
 11
-18.3325
 21
-215.325
  0
LINE
  8
0
 10
-18.3325
 20
-215.325
 11
-17.9078
 21
-215.093
  0
LINE
  8
0
 10
-17.9078
 20
-215.093
 11
-17.435
 21
-214.991
  0
LINE
  8
0
 10
-17.435
 20
-214.991
 11
-16.9523
 21
-215.025
  0
LINE
  8
0
 10
-16.9523
 20
-215.025
 11
-16.499
 21
-215.194
  0
LINE
  8
0
 10
-16.499
 20
-215.194
 11
-16.1116
 21
-215.484
  0
LINE
  8
0
 10
-16.1116
 20
-215.484
 11
-15.8216
 21
-215.872
  0
LINE
  8
0
 10
-15.8216
 20
-215.872
 11
-15.6526
 21
-216.325
  0
LINE
  8
0
 10
-15.6526
 20
-216.325
 11
-15.618
 21
-216.808
  0
LINE
  8
0
 10
-15.618
 20
-216.808
 11
-15.7209
 21
-217.28
  0
LINE
  8
0
 10
-15.7209
 20
-217.28
 11
-15.9528
 21
-217.705
  0
LINE
  8
0
 10
-15.9528
 20
-217.705
 11
-16.2949
 21
-218.047
  0
LINE
  8
0
 10
-16.2949
 20
-218.047
 11
-16.7196
 21
-218.279
  0
LINE
  8
0
 10
-16.7196
 20
-218.279
 11
-17.1924
 21
-218.382
  0
LINE
  8
0
 10
-17.1924
 20
-218.382
 11
-17.6751
 21
-218.347
  0
LINE
  8
0
 10
4.7196
 20
-218.279
 11
4.29492
 21
-218.047
  0
LINE
  8
0
 10
4.29492
 20
-218.047
 11
3.95277
 21
-217.705
  0
LINE
  8
0
 10
3.95277
 20
-217.705
 11
3.72089
 21
-217.28
  0
LINE
  8
0
 10
3.72089
 20
-217.28
 11
3.61803
 21
-216.808
  0
LINE
  8
0
 10
3.61803
 20
-216.808
 11
3.65256
 21
-216.325
  0
LINE
  8
0
 10
3.65256
 20
-216.325
 11
3.82164
 21
-215.872
  0
LINE
  8
0
 10
3.82164
 20
-215.872
 11
4.11162
 21
-215.484
  0
LINE
  8
0
 10
4.11162
 20
-215.484
 11
4.49898
 21
-215.194
  0
LINE
  8
0
 10
4.49898
 20
-215.194
 11
4.95235
 21
-215.025
  0
LINE
  8
0
 10
4.95235
 20
-215.025
 11
5.43498
 21
-214.991
  0
LINE
  8
0
 10
5.43498
 20
-214.991
 11
5.90779
 21
-215.093
  0
LINE
  8
0
 10
5.90779
 20
-215.093
 11
6.33247
 21
-215.325
  0
LINE
  8
0
 10
6.33247
 20
-215.325
 11
6.67462
 21
-215.668
  0
LINE
  8
0
 10
6.67462
 20
-215.668
 11
6.90651
 21
-216.092
  0
LINE
  8
0
 10
6.90651
 20
-216.092
 11
7.00937
 21
-216.565
  0
LINE
  8
0
 10
7.00937
 20
-216.565
 11
6.97485
 21
-217.048
  0
LINE
  8
0
 10
6.97485
 20
-217.048
 11
6.80576
 21
-217.501
  0
LINE
  8
0
 10
6.80576
 20
-217.501
 11
6.51578
 21
-217.888
  0
LINE
  8
0
 10
6.51578
 20
-217.888
 11
6.12842
 21
-218.178
  0
LINE
  8
0
 10
6.12842
 20
-218.178
 11
5.67506
 21
-218.347
  0
LINE
  8
0
 10
5.67506
 20
-218.347
 11
5.19243
 21
-218.382
  0
LINE
  8
0
 10
5.19243
 20
-218.382
 11
4.7196
 21
-218.279
  0
LINE
  8
0
 10
-6.6212
 20
-238.982
 11
-7.11684
 21
-238.943
  0
LINE
  8
0
 10
-7.11684
 20
-238.943
 11
-7.61018
 21
-238.882
  0
LINE
  8
0
 10
-7.61018
 20
-238.882
 11
-8.10025
 21
-238.798
  0
LINE
  8
0
 10
-8.10025
 20
-238.798
 11
-8.58601
 21
-238.692
  0
LINE
  8
0
 10
-8.58601
 20
-238.692
 11
-9.06651
 21
-238.564
  0
LINE
  8
0
 10
-9.06651
 20
-238.564
 11
-9.54073
 21
-238.415
  0
LINE
  8
0
 10
-9.54073
 20
-238.415
 11
-10.0077
 21
-238.244
  0
LINE
  8
0
 10
-10.0077
 20
-238.244
 11
-10.4665
 21
-238.052
  0
LINE
  8
0
 10
-10.4665
 20
-238.052
 11
-10.9162
 21
-237.84
  0
LINE
  8
0
 10
-10.9162
 20
-237.84
 11
-11.3558
 21
-237.608
  0
LINE
  8
0
 10
-11.3558
 20
-237.608
 11
-11.7845
 21
-237.356
  0
LINE
  8
0
 10
-11.7845
 20
-237.356
 11
-12.2014
 21
-237.085
  0
LINE
  8
0
 10
-12.2014
 20
-237.085
 11
-12.6056
 21
-236.796
  0
LINE
  8
0
 10
-12.6056
 20
-236.796
 11
-12.9963
 21
-236.488
  0
LINE
  8
0
 10
-12.9963
 20
-236.488
 11
-13.3727
 21
-236.163
  0
LINE
  8
0
 10
-13.3727
 20
-236.163
 11
-13.7341
 21
-235.822
  0
LINE
  8
0
 10
-13.7341
 20
-235.822
 11
-14.0797
 21
-235.465
  0
LINE
  8
0
 10
-14.0797
 20
-235.465
 11
-14.4087
 21
-235.092
  0
LINE
  8
0
 10
-14.4087
 20
-235.092
 11
-14.7206
 21
-234.705
  0
LINE
  8
0
 10
-14.7206
 20
-234.705
 11
-15.0146
 21
-234.304
  0
LINE
  8
0
 10
-15.0146
 20
-234.304
 11
-15.2903
 21
-233.89
  0
LINE
  8
0
 10
-15.2903
 20
-233.89
 11
-15.5469
 21
-233.464
  0
LINE
  8
0
 10
-15.5469
 20
-233.464
 11
-15.7841
 21
-233.027
  0
LINE
  8
0
 10
-15.7841
 20
-233.027
 11
-16.0013
 21
-232.58
  0
LINE
  8
0
 10
-16.0013
 20
-232.58
 11
-16.198
 21
-232.123
  0
LINE
  8
0
 10
-16.198
 20
-232.123
 11
-16.3739
 21
-231.658
  0
LINE
  8
0
 10
-16.3739
 20
-231.658
 11
-16.5286
 21
-231.186
  0
LINE
  8
0
 10
-16.5286
 20
-231.186
 11
-16.6618
 21
-230.707
  0
LINE
  8
0
 10
-16.6618
 20
-230.707
 11
-16.7732
 21
-230.222
  0
LINE
  8
0
 10
-16.7732
 20
-230.222
 11
-16.8626
 21
-229.733
  0
LINE
  8
0
 10
-16.8626
 20
-229.733
 11
-16.9298
 21
-229.24
  0
LINE
  8
0
 10
-16.9298
 20
-229.24
 11
-16.9747
 21
-228.745
  0
LINE
  8
0
 10
-16.9747
 20
-228.745
 11
-16.9972
 21
-228.249
  0
LINE
  8
0
 10
-16.9972
 20
-228.249
 11
-16.9972
 21
-227.751
  0
LINE
  8
0
 10
-16.9972
 20
-227.751
 11
-16.9747
 21
-227.255
  0
LINE
  8
0
 10
-16.9747
 20
-227.255
 11
-16.9298
 21
-226.76
  0
LINE
  8
0
 10
-16.9298
 20
-226.76
 11
-16.8626
 21
-226.267
  0
LINE
  8
0
 10
-16.8626
 20
-226.267
 11
-16.7732
 21
-225.778
  0
LINE
  8
0
 10
-16.7732
 20
-225.778
 11
-16.6618
 21
-225.293
  0
LINE
  8
0
 10
-16.6618
 20
-225.293
 11
-16.5286
 21
-224.814
  0
LINE
  8
0
 10
-16.5286
 20
-224.814
 11
-16.3739
 21
-224.342
  0
LINE
  8
0
 10
-16.3739
 20
-224.342
 11
-16.198
 21
-223.877
  0
LINE
  8
0
 10
-16.198
 20
-223.877
 11
-16.0013
 21
-223.42
  0
LINE
  8
0
 10
-16.0013
 20
-223.42
 11
-15.7841
 21
-222.973
  0
LINE
  8
0
 10
-15.7841
 20
-222.973
 11
-15.5469
 21
-222.536
  0
LINE
  8
0
 10
-15.5469
 20
-222.536
 11
-15.2903
 21
-222.11
  0
LINE
  8
0
 10
-15.2903
 20
-222.11
 11
-15.0146
 21
-221.696
  0
LINE
  8
0
 10
-15.0146
 20
-221.696
 11
-14.7206
 21
-221.295
  0
LINE
  8
0
 10
-14.7206
 20
-221.295
 11
-14.4087
 21
-220.908
  0
LINE
  8
0
 10
-14.4087
 20
-220.908
 11
-14.0797
 21
-220.535
  0
LINE
  8
0
 10
-14.0797
 20
-220.535
 11
-13.7341
 21
-220.178
  0
LINE
  8
0
 10
-13.7341
 20
-220.178
 11
-13.3727
 21
-219.837
  0
LINE
  8
0
 10
-13.3727
 20
-219.837
 11
-12.9963
 21
-219.512
  0
LINE
  8
0
 10
-12.9963
 20
-219.512
 11
-12.6056
 21
-219.204
  0
LINE
  8
0
 10
-12.6056
 20
-219.204
 11
-12.2014
 21
-218.915
  0
LINE
  8
0
 10
-12.2014
 20
-218.915
 11
-11.7845
 21
-218.644
  0
LINE
  8
0
 10
-11.7845
 20
-218.644
 11
-11.3558
 21
-218.392
  0
LINE
  8
0
 10
-11.3558
 20
-218.392
 11
-10.9162
 21
-218.16
  0
LINE
  8
0
 10
-10.9162
 20
-218.16
 11
-10.4665
 21
-217.948
  0
LINE
  8
0
 10
-10.4665
 20
-217.948
 11
-10.0077
 21
-217.756
  0
LINE
  8
0
 10
-10.0077
 20
-217.756
 11
-9.54073
 21
-217.585
  0
LINE
  8
0
 10
-9.54073
 20
-217.585
 11
-9.06651
 21
-217.436
  0
LINE
  8
0
 10
-9.06651
 20
-217.436
 11
-8.58601
 21
-217.308
  0
LINE
  8
0
 10
-8.58601
 20
-217.308
 11
-8.10025
 21
-217.202
  0
LINE
  8
0
 10
-8.10025
 20
-217.202
 11
-7.61018
 21
-217.118
  0
LINE
  8
0
 10
-7.61018
 20
-217.118
 11
-7.11684
 21
-217.057
  0
LINE
  8
0
 10
-7.11684
 20
-217.057
 11
-6.6212
 21
-217.018
  0
LINE
  8
0
 10
-6.6212
 20
-217.018
 11
-6.1243
 21
-217.001
  0
LINE
  8
0
 10
-6.1243
 20
-217.001
 11
-5.62714
 21
-217.006
  0
LINE
  8
0
 10
-5.62714
 20
-217.006
 11
-5.13075
 21
-217.034
  0
LINE
  8
0
 10
-5.13075
 20
-217.034
 11
-4.63612
 21
-217.085
  0
LINE
  8
0
 10
-4.63612
 20
-217.085
 11
-4.1443
 21
-217.158
  0
LINE
  8
0
 10
-4.1443
 20
-217.158
 11
-3.65625
 21
-217.253
  0
LINE
  8
0
 10
-3.65625
 20
-217.253
 11
-3.173
 21
-217.369
  0
LINE
  8
0
 10
-3.173
 20
-217.369
 11
-2.69553
 21
-217.508
  0
LINE
  8
0
 10
-2.69553
 20
-217.508
 11
-2.22479
 21
-217.668
  0
LINE
  8
0
 10
-2.22479
 20
-217.668
 11
-1.76178
 21
-217.849
  0
LINE
  8
0
 10
-1.76178
 20
-217.849
 11
-1.30742
 21
-218.051
  0
LINE
  8
0
 10
-1.30742
 20
-218.051
 11
-0.862656
 21
-218.273
  0
LINE
  8
0
 10
-0.862656
 20
-218.273
 11
-0.428375
 21
-218.515
  0
LINE
  8
0
 10
-0.428375
 20
-218.515
 11
-0.00549316
 21
-218.777
  0
LINE
  8
0
 10
-0.00549316
 20
-218.777
 11
0.405136
 21
-219.057
  0
LINE
  8
0
 10
0.405136
 20
-219.057
 11
0.802704
 21
-219.356
  0
LINE
  8
0
 10
0.802704
 20
-219.356
 11
1.18637
 21
-219.672
  0
LINE
  8
0
 10
1.18637
 20
-219.672
 11
1.55534
 21
-220.005
  0
LINE
  8
0
 10
1.55534
 20
-220.005
 11
1.90889
 21
-220.355
  0
LINE
  8
0
 10
1.90889
 20
-220.355
 11
2.24628
 21
-220.72
  0
LINE
  8
0
 10
2.24628
 20
-220.72
 11
2.56682
 21
-221.1
  0
LINE
  8
0
 10
2.56682
 20
-221.1
 11
2.86986
 21
-221.494
  0
LINE
  8
0
 10
2.86986
 20
-221.494
 11
3.15479
 21
-221.902
  0
LINE
  8
0
 10
3.15479
 20
-221.902
 11
3.42101
 21
-222.322
  0
LINE
  8
0
 10
3.42101
 20
-222.322
 11
3.66797
 21
-222.753
  0
LINE
  8
0
 10
3.66797
 20
-222.753
 11
3.89519
 21
-223.195
  0
LINE
  8
0
 10
3.89519
 20
-223.195
 11
4.10219
 21
-223.647
  0
LINE
  8
0
 10
4.10219
 20
-223.647
 11
4.28856
 21
-224.108
  0
LINE
  8
0
 10
4.28856
 20
-224.108
 11
4.4539
 21
-224.577
  0
LINE
  8
0
 10
4.4539
 20
-224.577
 11
4.5979
 21
-225.053
  0
LINE
  8
0
 10
4.5979
 20
-225.053
 11
4.72023
 21
-225.535
  0
LINE
  8
0
 10
4.72023
 20
-225.535
 11
4.82068
 21
-226.022
  0
LINE
  8
0
 10
4.82068
 20
-226.022
 11
4.899
 21
-226.513
  0
LINE
  8
0
 10
4.899
 20
-226.513
 11
4.95508
 21
-227.007
  0
LINE
  8
0
 10
4.95508
 20
-227.007
 11
4.98875
 21
-227.503
  0
LINE
  8
0
 10
4.98875
 20
-227.503
 11
5
 21
-228
  0
LINE
  8
0
 10
5
 20
-228
 11
4.98875
 21
-228.497
  0
LINE
  8
0
 10
4.98875
 20
-228.497
 11
4.95508
 21
-228.993
  0
LINE
  8
0
 10
4.95508
 20
-228.993
 11
4.899
 21
-229.487
  0
LINE
  8
0
 10
4.899
 20
-229.487
 11
4.82068
 21
-229.978
  0
LINE
  8
0
 10
4.82068
 20
-229.978
 11
4.72023
 21
-230.465
  0
LINE
  8
0
 10
4.72023
 20
-230.465
 11
4.5979
 21
-230.947
  0
LINE
  8
0
 10
4.5979
 20
-230.947
 11
4.4539
 21
-231.423
  0
LINE
  8
0
 10
4.4539
 20
-231.423
 11
4.28856
 21
-231.892
  0
LINE
  8
0
 10
4.28856
 20
-231.892
 11
4.10219
 21
-232.353
  0
LINE
  8
0
 10
4.10219
 20
-232.353
 11
3.89519
 21
-232.805
  0
LINE
  8
0
 10
3.89519
 20
-232.805
 11
3.66797
 21
-233.247
  0
LINE
  8
0
 10
3.66797
 20
-233.247
 11
3.42101
 21
-233.678
  0
LINE
  8
0
 10
3.42101
 20
-233.678
 11
3.15479
 21
-234.098
  0
LINE
  8
0
 10
3.15479
 20
-234.098
 11
2.86986
 21
-234.506
  0
LINE
  8
0
 10
2.86986
 20
-234.506
 11
2.56682
 21
-234.9
  0
LINE
  8
0
 10
2.56682
 20
-234.9
 11
2.24628
 21
-235.28
  0
LINE
  8
0
 10
2.24628
 20
-235.28
 11
1.90889
 21
-235.645
  0
LINE
  8
0
 10
1.90889
 20
-235.645
 11
1.55534
 21
-235.995
  0
LINE
  8
0
 10
1.55534
 20
-235.995
 11
1.18637
 21
-236.328
  0
LINE
  8
0
 10
1.18637
 20
-236.328
 11
0.802704
 21
-236.644
  0
LINE
  8
0
 10
0.802704
 20
-236.644
 11
0.405136
 21
-236.943
  0
LINE
  8
0
 10
0.405136
 20
-236.943
 11
-0.00549316
 21
-237.223
  0
LINE
  8
0
 10
-0.00549316
 20
-237.223
 11
-0.428375
 21
-237.485
  0
LINE
  8
0
 10
-0.428375
 20
-237.485
 11
-0.862656
 21
-237.727
  0
LINE
  8
0
 10
-0.862656
 20
-237.727
 11
-1.30742
 21
-237.949
  0
LINE
  8
0
 10
-1.30742
 20
-237.949
 11
-1.76178
 21
-238.151
  0
LINE
  8
0
 10
-1.76178
 20
-238.151
 11
-2.22479
 21
-238.332
  0
LINE
  8
0
 10
-2.22479
 20
-238.332
 11
-2.69553
 21
-238.492
  0
LINE
  8
0
 10
-2.69553
 20
-238.492
 11
-3.173
 21
-238.631
  0
LINE
  8
0
 10
-3.173
 20
-238.631
 11
-3.65625
 21
-238.747
  0
LINE
  8
0
 10
-3.65625
 20
-238.747
 11
-4.1443
 21
-238.842
  0
LINE
  8
0
 10
-4.1443
 20
-238.842
 11
-4.63612
 21
-238.915
  0
LINE
  8
0
 10
-4.63612
 20
-238.915
 11
-5.13075
 21
-238.966
  0
LINE
  8
0
 10
-5.13075
 20
-238.966
 11
-5.62714
 21
-238.994
  0
LINE
  8
0
 10
-5.62714
 20
-238.994
 11
-6.1243
 21
-238.999
  0
LINE
  8
0
 10
-6.1243
 20
-238.999
 11
-6.6212
 21
-238.982
  0
LINE
  8
0
 10
-17.9078
 20
-240.907
 11
-18.3325
 21
-240.675
  0
LINE
  8
0
 10
-18.3325
 20
-240.675
 11
-18.6746
 21
-240.332
  0
LINE
  8
0
 10
-18.6746
 20
-240.332
 11
-18.9065
 21
-239.908
  0
LINE
  8
0
 10
-18.9065
 20
-239.908
 11
-19.0094
 21
-239.435
  0
LINE
  8
0
 10
-19.0094
 20
-239.435
 11
-18.9749
 21
-238.952
  0
LINE
  8
0
 10
-18.9749
 20
-238.952
 11
-18.8058
 21
-238.499
  0
LINE
  8
0
 10
-18.8058
 20
-238.499
 11
-18.5158
 21
-238.112
  0
LINE
  8
0
 10
-18.5158
 20
-238.112
 11
-18.1284
 21
-237.822
  0
LINE
  8
0
 10
-18.1284
 20
-237.822
 11
-17.6751
 21
-237.653
  0
LINE
  8
0
 10
-17.6751
 20
-237.653
 11
-17.1924
 21
-237.618
  0
LINE
  8
0
 10
-17.1924
 20
-237.618
 11
-16.7196
 21
-237.721
  0
LINE
  8
0
 10
-16.7196
 20
-237.721
 11
-16.2949
 21
-237.953
  0
LINE
  8
0
 10
-16.2949
 20
-237.953
 11
-15.9528
 21
-238.295
  0
LINE
  8
0
 10
-15.9528
 20
-238.295
 11
-15.7209
 21
-238.72
  0
LINE
  8
0
 10
-15.7209
 20
-238.72
 11
-15.618
 21
-239.192
  0
LINE
  8
0
 10
-15.618
 20
-239.192
 11
-15.6526
 21
-239.675
  0
LINE
  8
0
 10
-15.6526
 20
-239.675
 11
-15.8216
 21
-240.128
  0
LINE
  8
0
 10
-15.8216
 20
-240.128
 11
-16.1116
 21
-240.516
  0
LINE
  8
0
 10
-16.1116
 20
-240.516
 11
-16.499
 21
-240.806
  0
LINE
  8
0
 10
-16.499
 20
-240.806
 11
-16.9523
 21
-240.975
  0
LINE
  8
0
 10
-16.9523
 20
-240.975
 11
-17.435
 21
-241.009
  0
LINE
  8
0
 10
-17.435
 20
-241.009
 11
-17.9078
 21
-240.907
  0
LINE
  8
0
 10
4.95235
 20
-240.975
 11
4.49898
 21
-240.806
  0
LINE
  8
0
 10
4.49898
 20
-240.806
 11
4.11162
 21
-240.516
  0
LINE
  8
0
 10
4.11162
 20
-240.516
 11
3.82164
 21
-240.128
  0
LINE
  8
0
 10
3.82164
 20
-240.128
 11
3.65256
 21
-239.675
  0
LINE
  8
0
 10
3.65256
 20
-239.675
 11
3.61803
 21
-239.192
  0
LINE
  8
0
 10
3.61803
 20
-239.192
 11
3.72089
 21
-238.72
  0
LINE
  8
0
 10
3.72089
 20
-238.72
 11
3.95277
 21
-238.295
  0
LINE
  8
0
 10
3.95277
 20
-238.295
 11
4.29492
 21
-237.953
  0
LINE
  8
0
 10
4.29492
 20
-237.953
 11
4.7196
 21
-237.721
  0
LINE
  8
0
 10
4.7196
 20
-237.721
 11
5.19243
 21
-237.618
  0
LINE
  8
0
 10
5.19243
 20
-237.618
 11
5.67506
 21
-237.653
  0
LINE
  8
0
 10
5.67506
 20
-237.653
 11
6.12842
 21
-237.822
  0
LINE
  8
0
 10
6.12842
 20
-237.822
 11
6.51578
 21
-238.112
  0
LINE
  8
0
 10
6.51578
 20
-238.112
 11
6.80576
 21
-238.499
  0
LINE
  8
0
 10
6.80576
 20
-238.499
 11
6.97485
 21
-238.952
  0
LINE
  8
0
 10
6.97485
 20
-238.952
 11
7.00937
 21
-239.435
  0
LINE
  8
0
 10
7.00937
 20
-239.435
 11
6.90651
 21
-239.908
  0
LINE
  8
0
 10
6.90651
 20
-239.908
 11
6.67462
 21
-240.332
  0
LINE
  8
0
 10
6.67462
 20
-240.332
 11
6.33247
 21
-240.675
  0
LINE
  8
0
 10
6.33247
 20
-240.675
 11
5.90779
 21
-240.907
  0
LINE
  8
0
 10
5.90779
 20
-240.907
 11
5.43498
 21
-241.009
  0
LINE
  8
0
 10
5.43498
 20
-241.009
 11
4.95235
 21
-240.975
  0
ENDSEC
  0
SECTION
  2
OBJECTS
  0
DICTIONARY
  0
ENDSEC
  0
EOF
