  0
SECTION
  2
BLOCKS
  0
ENDSEC
  0
SECTION
  2
ENTITIES
  0
LINE
  8
0
 10
5.32358
 20
-243.583
 11
5.81853
 21
-243.531
  0
LINE
  8
0
 10
5.81853
 20
-243.531
 11
6.30391
 21
-243.422
  0
LINE
  8
0
 10
6.30391
 20
-243.422
 11
6.7729
 21
-243.255
  0
LINE
  8
0
 10
6.7729
 20
-243.255
 11
7.21893
 21
-243.035
  0
LINE
  8
0
 10
7.21893
 20
-243.035
 11
7.63574
 21
-242.763
  0
LINE
  8
0
 10
7.63574
 20
-242.763
 11
8.01746
 21
-242.443
  0
LINE
  8
0
 10
8.01746
 20
-242.443
 11
8.35875
 21
-242.081
  0
LINE
  8
0
 10
8.35875
 20
-242.081
 11
8.65482
 21
-241.681
  0
LINE
  8
0
 10
8.65482
 20
-241.681
 11
8.90149
 21
-241.249
  0
LINE
  8
0
 10
8.90149
 20
-241.249
 11
9.09532
 21
-240.791
  0
LINE
  8
0
 10
9.09532
 20
-240.791
 11
9.2336
 21
-240.313
  0
LINE
  8
0
 10
9.2336
 20
-240.313
 11
9.31435
 21
-239.822
  0
LINE
  8
0
 10
9.31435
 20
-239.822
 11
9.33646
 21
-239.325
  0
LINE
  8
0
 10
9.33646
 20
-239.325
 11
9.33646
 21
-173.325
  0
LINE
  8
0
 10
9.33646
 20
-173.325
 11
9.33278
 21
-150.926
  0
LINE
  8
0
 10
9.33278
 20
-150.926
 11
9.28125
 21
-150.431
  0
LINE
  8
0
 10
9.28125
 20
-150.431
 11
9.17154
 21
-149.946
  0
LINE
  8
0
 10
9.17154
 20
-149.946
 11
9.0052
 21
-149.477
  0
LINE
  8
0
 10
9.0052
 20
-149.477
 11
8.78456
 21
-149.031
  0
LINE
  8
0
 10
8.78456
 20
-149.031
 11
8.51271
 21
-148.614
  0
LINE
  8
0
 10
8.51271
 20
-148.614
 11
8.19348
 21
-148.233
  0
LINE
  8
0
 10
8.19348
 20
-148.233
 11
7.83133
 21
-147.891
  0
LINE
  8
0
 10
7.83133
 20
-147.891
 11
7.43137
 21
-147.595
  0
LINE
  8
0
 10
7.43137
 20
-147.595
 11
6.99919
 21
-147.348
  0
LINE
  8
0
 10
6.99919
 20
-147.348
 11
6.54086
 21
-147.155
  0
LINE
  8
0
 10
6.54086
 20
-147.155
 11
6.06284
 21
-147.016
  0
LINE
  8
0
 10
6.06284
 20
-147.016
 11
-39.6859
 21
-137.639
  0
LINE
  8
0
 10
-39.6859
 20
-137.639
 11
-69.9873
 21
-119.557
  0
LINE
  8
0
 10
-69.9873
 20
-119.557
 11
-73.2639
 21
-121.851
  0
LINE
  8
0
 10
-73.2639
 20
-121.851
 11
-56.6302
 21
-145.606
  0
LINE
  8
0
 10
-56.6302
 20
-145.606
 11
-66.46
 21
-152.489
  0
LINE
  8
0
 10
-66.46
 20
-152.489
 11
-83.0937
 21
-128.734
  0
LINE
  8
0
 10
-83.0937
 20
-128.734
 11
-86.3703
 21
-131.028
  0
LINE
  8
0
 10
-86.3703
 20
-131.028
 11
-81.2225
 21
-157.945
  0
LINE
  8
0
 10
-81.2225
 20
-157.945
 11
-111.828
 21
-179.375
  0
LINE
  8
0
 10
-111.828
 20
-179.375
 11
-111.938
 21
-179.657
  0
LINE
  8
0
 10
-111.938
 20
-179.657
 11
-112.112
 21
-180.125
  0
LINE
  8
0
 10
-112.112
 20
-180.125
 11
-112.278
 21
-180.597
  0
LINE
  8
0
 10
-112.278
 20
-180.597
 11
-112.437
 21
-181.071
  0
LINE
  8
0
 10
-112.437
 20
-181.071
 11
-112.587
 21
-181.548
  0
LINE
  8
0
 10
-112.587
 20
-181.548
 11
-112.73
 21
-182.027
  0
LINE
  8
0
 10
-112.73
 20
-182.027
 11
-112.864
 21
-182.509
  0
LINE
  8
0
 10
-112.864
 20
-182.509
 11
-112.991
 21
-182.992
  0
LINE
  8
0
 10
-112.991
 20
-182.992
 11
-113.109
 21
-183.478
  0
LINE
  8
0
 10
-113.109
 20
-183.478
 11
-113.219
 21
-183.966
  0
LINE
  8
0
 10
-113.219
 20
-183.966
 11
-113.321
 21
-184.455
  0
LINE
  8
0
 10
-113.321
 20
-184.455
 11
-113.415
 21
-184.946
  0
LINE
  8
0
 10
-113.415
 20
-184.946
 11
-113.501
 21
-185.439
  0
LINE
  8
0
 10
-113.501
 20
-185.439
 11
-113.579
 21
-185.933
  0
LINE
  8
0
 10
-113.579
 20
-185.933
 11
-113.648
 21
-186.428
  0
LINE
  8
0
 10
-113.648
 20
-186.428
 11
-113.709
 21
-186.924
  0
LINE
  8
0
 10
-113.709
 20
-186.924
 11
-113.762
 21
-187.421
  0
LINE
  8
0
 10
-113.762
 20
-187.421
 11
-113.807
 21
-187.919
  0
LINE
  8
0
 10
-113.807
 20
-187.919
 11
-113.843
 21
-188.418
  0
LINE
  8
0
 10
-113.843
 20
-188.418
 11
-113.871
 21
-188.917
  0
LINE
  8
0
 10
-113.871
 20
-188.917
 11
-113.89
 21
-189.417
  0
LINE
  8
0
 10
-113.89
 20
-189.417
 11
-113.901
 21
-189.917
  0
LINE
  8
0
 10
-113.901
 20
-189.917
 11
-113.904
 21
-190.417
  0
LINE
  8
0
 10
-113.904
 20
-190.417
 11
-113.899
 21
-190.917
  0
LINE
  8
0
 10
-113.899
 20
-190.917
 11
-113.894
 21
-191.097
  0
LINE
  8
0
 10
-113.894
 20
-191.097
 11
-94.8725
 21
-218.262
  0
LINE
  8
0
 10
-94.8725
 20
-218.262
 11
-94.7047
 21
-218.329
  0
LINE
  8
0
 10
-94.7047
 20
-218.329
 11
-94.2367
 21
-218.505
  0
LINE
  8
0
 10
-94.2367
 20
-218.505
 11
-93.7659
 21
-218.673
  0
LINE
  8
0
 10
-93.7659
 20
-218.673
 11
-93.2924
 21
-218.833
  0
LINE
  8
0
 10
-93.2924
 20
-218.833
 11
-18.5409
 21
-243.345
  0
LINE
  8
0
 10
-18.5409
 20
-243.345
 11
-18.0628
 21
-243.484
  0
LINE
  8
0
 10
-18.0628
 20
-243.484
 11
-17.5718
 21
-243.564
  0
LINE
  8
0
 10
-17.5718
 20
-243.564
 11
-17.0747
 21
-243.586
  0
LINE
  8
0
 10
-17.0747
 20
-243.586
 11
5.32358
 21
-243.583
  0
LINE
  8
0
 10
-46.2472
 20
-146.742
 11
-46.696
 21
-146.545
  0
LINE
  8
0
 10
-46.696
 20
-146.545
 11
-47.0751
 21
-146.234
  0
LINE
  8
0
 10
-47.0751
 20
-146.234
 11
-47.3563
 21
-145.833
  0
LINE
  8
0
 10
-47.3563
 20
-145.833
 11
-47.5187
 21
-145.37
  0
LINE
  8
0
 10
-47.5187
 20
-145.37
 11
-47.5503
 21
-144.881
  0
LINE
  8
0
 10
-47.5503
 20
-144.881
 11
-47.4275
 21
-144.185
  0
LINE
  8
0
 10
-47.4275
 20
-144.185
 11
-47.3259
 21
-143.705
  0
LINE
  8
0
 10
-47.3259
 20
-143.705
 11
-47.0988
 21
-143.271
  0
LINE
  8
0
 10
-47.0988
 20
-143.271
 11
-46.7628
 21
-142.914
  0
LINE
  8
0
 10
-46.7628
 20
-142.914
 11
-46.343
 21
-142.661
  0
LINE
  8
0
 10
-46.343
 20
-142.661
 11
-45.8705
 21
-142.53
  0
LINE
  8
0
 10
-45.8705
 20
-142.53
 11
-45.3803
 21
-142.532
  0
LINE
  8
0
 10
-45.3803
 20
-142.532
 11
-44.9088
 21
-142.666
  0
LINE
  8
0
 10
-44.9088
 20
-142.666
 11
-44.4909
 21
-142.923
  0
LINE
  8
0
 10
-44.4909
 20
-142.923
 11
-44.1577
 21
-143.282
  0
LINE
  8
0
 10
-44.1577
 20
-143.282
 11
-43.9338
 21
-143.718
  0
LINE
  8
0
 10
-43.9338
 20
-143.718
 11
-43.8359
 21
-144.199
  0
LINE
  8
0
 10
-43.8359
 20
-144.199
 11
-43.8712
 21
-144.687
  0
LINE
  8
0
 10
-43.8712
 20
-144.687
 11
-43.994
 21
-145.384
  0
LINE
  8
0
 10
-43.994
 20
-145.384
 11
-44.1599
 21
-145.845
  0
LINE
  8
0
 10
-44.1599
 20
-145.845
 11
-44.4441
 21
-146.244
  0
LINE
  8
0
 10
-44.4441
 20
-146.244
 11
-44.8256
 21
-146.552
  0
LINE
  8
0
 10
-44.8256
 20
-146.552
 11
-45.2759
 21
-146.746
  0
LINE
  8
0
 10
-45.2759
 20
-146.746
 11
-45.7618
 21
-146.811
  0
LINE
  8
0
 10
-45.7618
 20
-146.811
 11
-46.2472
 21
-146.742
  0
LINE
  8
0
 10
4.89061
 20
-153.299
 11
4.41031
 21
-153.19
  0
LINE
  8
0
 10
4.41031
 20
-153.19
 11
3.96646
 21
-152.976
  0
LINE
  8
0
 10
3.96646
 20
-152.976
 11
3.58128
 21
-152.669
  0
LINE
  8
0
 10
3.58128
 20
-152.669
 11
3.27412
 21
-152.284
  0
LINE
  8
0
 10
3.27412
 20
-152.284
 11
3.06038
 21
-151.84
  0
LINE
  8
0
 10
3.06038
 20
-151.84
 11
2.95076
 21
-151.359
  0
LINE
  8
0
 10
2.95076
 20
-151.359
 11
2.95076
 21
-150.867
  0
LINE
  8
0
 10
2.95076
 20
-150.867
 11
3.06038
 21
-150.386
  0
LINE
  8
0
 10
3.06038
 20
-150.386
 11
3.27412
 21
-149.943
  0
LINE
  8
0
 10
3.27412
 20
-149.943
 11
3.58128
 21
-149.557
  0
LINE
  8
0
 10
3.58128
 20
-149.557
 11
3.96646
 21
-149.25
  0
LINE
  8
0
 10
3.96646
 20
-149.25
 11
4.41031
 21
-149.037
  0
LINE
  8
0
 10
4.41031
 20
-149.037
 11
4.89061
 21
-148.927
  0
LINE
  8
0
 10
4.89061
 20
-148.927
 11
5.38324
 21
-148.927
  0
LINE
  8
0
 10
5.38324
 20
-148.927
 11
5.86354
 21
-149.037
  0
LINE
  8
0
 10
5.86354
 20
-149.037
 11
6.30739
 21
-149.25
  0
LINE
  8
0
 10
6.30739
 20
-149.25
 11
6.69257
 21
-149.557
  0
LINE
  8
0
 10
6.69257
 20
-149.557
 11
6.99971
 21
-149.943
  0
LINE
  8
0
 10
6.99971
 20
-149.943
 11
7.21347
 21
-150.386
  0
LINE
  8
0
 10
7.21347
 20
-150.386
 11
7.32309
 21
-150.867
  0
LINE
  8
0
 10
7.32309
 20
-150.867
 11
7.32309
 21
-151.359
  0
LINE
  8
0
 10
7.32309
 20
-151.359
 11
7.21347
 21
-151.84
  0
LINE
  8
0
 10
7.21347
 20
-151.84
 11
6.99971
 21
-152.284
  0
LINE
  8
0
 10
6.99971
 20
-152.284
 11
6.69257
 21
-152.669
  0
LINE
  8
0
 10
6.69257
 20
-152.669
 11
6.30739
 21
-152.976
  0
LINE
  8
0
 10
6.30739
 20
-152.976
 11
5.86354
 21
-153.19
  0
LINE
  8
0
 10
5.86354
 20
-153.19
 11
5.38324
 21
-153.299
  0
LINE
  8
0
 10
5.38324
 20
-153.299
 11
4.89061
 21
-153.299
  0
LINE
  8
0
 10
-17.3832
 20
-153.299
 11
-17.8635
 21
-153.19
  0
LINE
  8
0
 10
-17.8635
 20
-153.19
 11
-18.3074
 21
-152.976
  0
LINE
  8
0
 10
-18.3074
 20
-152.976
 11
-18.6926
 21
-152.669
  0
LINE
  8
0
 10
-18.6926
 20
-152.669
 11
-18.9997
 21
-152.284
  0
LINE
  8
0
 10
-18.9997
 20
-152.284
 11
-19.2135
 21
-151.84
  0
LINE
  8
0
 10
-19.2135
 20
-151.84
 11
-19.3231
 21
-151.359
  0
LINE
  8
0
 10
-19.3231
 20
-151.359
 11
-19.3231
 21
-150.867
  0
LINE
  8
0
 10
-19.3231
 20
-150.867
 11
-19.2135
 21
-150.386
  0
LINE
  8
0
 10
-19.2135
 20
-150.386
 11
-18.9997
 21
-149.943
  0
LINE
  8
0
 10
-18.9997
 20
-149.943
 11
-18.6926
 21
-149.557
  0
LINE
  8
0
 10
-18.6926
 20
-149.557
 11
-18.3074
 21
-149.25
  0
LINE
  8
0
 10
-18.3074
 20
-149.25
 11
-17.8635
 21
-149.037
  0
LINE
  8
0
 10
-17.8635
 20
-149.037
 11
-17.3832
 21
-148.927
  0
LINE
  8
0
 10
-17.3832
 20
-148.927
 11
-16.8906
 21
-148.927
  0
LINE
  8
0
 10
-16.8906
 20
-148.927
 11
-16.4103
 21
-149.037
  0
LINE
  8
0
 10
-16.4103
 20
-149.037
 11
-15.9665
 21
-149.25
  0
LINE
  8
0
 10
-15.9665
 20
-149.25
 11
-15.5813
 21
-149.557
  0
LINE
  8
0
 10
-15.5813
 20
-149.557
 11
-15.2741
 21
-149.943
  0
LINE
  8
0
 10
-15.2741
 20
-149.943
 11
-15.0604
 21
-150.386
  0
LINE
  8
0
 10
-15.0604
 20
-150.386
 11
-14.9508
 21
-150.867
  0
LINE
  8
0
 10
-14.9508
 20
-150.867
 11
-14.9508
 21
-151.359
  0
LINE
  8
0
 10
-14.9508
 20
-151.359
 11
-15.0604
 21
-151.84
  0
LINE
  8
0
 10
-15.0604
 20
-151.84
 11
-15.2741
 21
-152.284
  0
LINE
  8
0
 10
-15.2741
 20
-152.284
 11
-15.5813
 21
-152.669
  0
LINE
  8
0
 10
-15.5813
 20
-152.669
 11
-15.9665
 21
-152.976
  0
LINE
  8
0
 10
-15.9665
 20
-152.976
 11
-16.4103
 21
-153.19
  0
LINE
  8
0
 10
-16.4103
 20
-153.19
 11
-16.8906
 21
-153.299
  0
LINE
  8
0
 10
-16.8906
 20
-153.299
 11
-17.3832
 21
-153.299
  0
LINE
  8
0
 10
-6.4996
 20
-172.738
 11
-6.99808
 21
-172.702
  0
LINE
  8
0
 10
-6.99808
 20
-172.702
 11
-7.49429
 21
-172.643
  0
LINE
  8
0
 10
-7.49429
 20
-172.643
 11
-7.98714
 21
-172.56
  0
LINE
  8
0
 10
-7.98714
 20
-172.56
 11
-8.47546
 21
-172.454
  0
LINE
  8
0
 10
-8.47546
 20
-172.454
 11
-8.95819
 21
-172.325
  0
LINE
  8
0
 10
-8.95819
 20
-172.325
 11
-9.4342
 21
-172.173
  0
LINE
  8
0
 10
-9.4342
 20
-172.173
 11
-9.90245
 21
-171.998
  0
LINE
  8
0
 10
-9.90245
 20
-171.998
 11
-10.3618
 21
-171.801
  0
LINE
  8
0
 10
-10.3618
 20
-171.801
 11
-10.8114
 21
-171.583
  0
LINE
  8
0
 10
-10.8114
 20
-171.583
 11
-11.25
 21
-171.343
  0
LINE
  8
0
 10
-11.25
 20
-171.343
 11
-11.6767
 21
-171.083
  0
LINE
  8
0
 10
-11.6767
 20
-171.083
 11
-12.0906
 21
-170.803
  0
LINE
  8
0
 10
-12.0906
 20
-170.803
 11
-12.4907
 21
-170.504
  0
LINE
  8
0
 10
-12.4907
 20
-170.504
 11
-12.876
 21
-170.185
  0
LINE
  8
0
 10
-12.876
 20
-170.185
 11
-13.2458
 21
-169.849
  0
LINE
  8
0
 10
-13.2458
 20
-169.849
 11
-13.5992
 21
-169.496
  0
LINE
  8
0
 10
-13.5992
 20
-169.496
 11
-13.9354
 21
-169.126
  0
LINE
  8
0
 10
-13.9354
 20
-169.126
 11
-14.2536
 21
-168.741
  0
LINE
  8
0
 10
-14.2536
 20
-168.741
 11
-14.553
 21
-168.341
  0
LINE
  8
0
 10
-14.553
 20
-168.341
 11
-14.8332
 21
-167.927
  0
LINE
  8
0
 10
-14.8332
 20
-167.927
 11
-15.0933
 21
-167.5
  0
LINE
  8
0
 10
-15.0933
 20
-167.5
 11
-15.3328
 21
-167.061
  0
LINE
  8
0
 10
-15.3328
 20
-167.061
 11
-15.5511
 21
-166.612
  0
LINE
  8
0
 10
-15.5511
 20
-166.612
 11
-15.7478
 21
-166.152
  0
LINE
  8
0
 10
-15.7478
 20
-166.152
 11
-15.9225
 21
-165.684
  0
LINE
  8
0
 10
-15.9225
 20
-165.684
 11
-16.0747
 21
-165.208
  0
LINE
  8
0
 10
-16.0747
 20
-165.208
 11
-16.204
 21
-164.725
  0
LINE
  8
0
 10
-16.204
 20
-164.725
 11
-16.3102
 21
-164.237
  0
LINE
  8
0
 10
-16.3102
 20
-164.237
 11
-16.3931
 21
-163.744
  0
LINE
  8
0
 10
-16.3931
 20
-163.744
 11
-16.4525
 21
-163.248
  0
LINE
  8
0
 10
-16.4525
 20
-163.248
 11
-16.4881
 21
-162.75
  0
LINE
  8
0
 10
-16.4881
 20
-162.75
 11
-16.5
 21
-162.25
  0
LINE
  8
0
 10
-16.5
 20
-162.25
 11
-16.4881
 21
-161.75
  0
LINE
  8
0
 10
-16.4881
 20
-161.75
 11
-16.4525
 21
-161.252
  0
LINE
  8
0
 10
-16.4525
 20
-161.252
 11
-16.3931
 21
-160.756
  0
LINE
  8
0
 10
-16.3931
 20
-160.756
 11
-16.3102
 21
-160.263
  0
LINE
  8
0
 10
-16.3102
 20
-160.263
 11
-16.204
 21
-159.775
  0
LINE
  8
0
 10
-16.204
 20
-159.775
 11
-16.0747
 21
-159.292
  0
LINE
  8
0
 10
-16.0747
 20
-159.292
 11
-15.9225
 21
-158.816
  0
LINE
  8
0
 10
-15.9225
 20
-158.816
 11
-15.7478
 21
-158.348
  0
LINE
  8
0
 10
-15.7478
 20
-158.348
 11
-15.5511
 21
-157.888
  0
LINE
  8
0
 10
-15.5511
 20
-157.888
 11
-15.3328
 21
-157.439
  0
LINE
  8
0
 10
-15.3328
 20
-157.439
 11
-15.0933
 21
-157
  0
LINE
  8
0
 10
-15.0933
 20
-157
 11
-14.8332
 21
-156.573
  0
LINE
  8
0
 10
-14.8332
 20
-156.573
 11
-14.553
 21
-156.159
  0
LINE
  8
0
 10
-14.553
 20
-156.159
 11
-14.2536
 21
-155.759
  0
LINE
  8
0
 10
-14.2536
 20
-155.759
 11
-13.9354
 21
-155.374
  0
LINE
  8
0
 10
-13.9354
 20
-155.374
 11
-13.5992
 21
-155.004
  0
LINE
  8
0
 10
-13.5992
 20
-155.004
 11
-13.2458
 21
-154.651
  0
LINE
  8
0
 10
-13.2458
 20
-154.651
 11
-12.876
 21
-154.315
  0
LINE
  8
0
 10
-12.876
 20
-154.315
 11
-12.4907
 21
-153.996
  0
LINE
  8
0
 10
-12.4907
 20
-153.996
 11
-12.0906
 21
-153.697
  0
LINE
  8
0
 10
-12.0906
 20
-153.697
 11
-11.6767
 21
-153.417
  0
LINE
  8
0
 10
-11.6767
 20
-153.417
 11
-11.25
 21
-153.157
  0
LINE
  8
0
 10
-11.25
 20
-153.157
 11
-10.8114
 21
-152.917
  0
LINE
  8
0
 10
-10.8114
 20
-152.917
 11
-10.3618
 21
-152.699
  0
LINE
  8
0
 10
-10.3618
 20
-152.699
 11
-9.90245
 21
-152.502
  0
LINE
  8
0
 10
-9.90245
 20
-152.502
 11
-9.4342
 21
-152.327
  0
LINE
  8
0
 10
-9.4342
 20
-152.327
 11
-8.95819
 21
-152.175
  0
LINE
  8
0
 10
-8.95819
 20
-152.175
 11
-8.47546
 21
-152.046
  0
LINE
  8
0
 10
-8.47546
 20
-152.046
 11
-7.98714
 21
-151.94
  0
LINE
  8
0
 10
-7.98714
 20
-151.94
 11
-7.49429
 21
-151.857
  0
LINE
  8
0
 10
-7.49429
 20
-151.857
 11
-6.99808
 21
-151.798
  0
LINE
  8
0
 10
-6.99808
 20
-151.798
 11
-6.4996
 21
-151.762
  0
LINE
  8
0
 10
-6.4996
 20
-151.762
 11
-6
 21
-151.75
  0
LINE
  8
0
 10
-6
 20
-151.75
 11
-5.50038
 21
-151.762
  0
LINE
  8
0
 10
-5.50038
 20
-151.762
 11
-5.00191
 21
-151.798
  0
LINE
  8
0
 10
-5.00191
 20
-151.798
 11
-4.50569
 21
-151.857
  0
LINE
  8
0
 10
-4.50569
 20
-151.857
 11
-4.01285
 21
-151.94
  0
LINE
  8
0
 10
-4.01285
 20
-151.94
 11
-3.52452
 21
-152.046
  0
LINE
  8
0
 10
-3.52452
 20
-152.046
 11
-3.04181
 21
-152.175
  0
LINE
  8
0
 10
-3.04181
 20
-152.175
 11
-2.56578
 21
-152.327
  0
LINE
  8
0
 10
-2.56578
 20
-152.327
 11
-2.09753
 21
-152.502
  0
LINE
  8
0
 10
-2.09753
 20
-152.502
 11
-1.63814
 21
-152.699
  0
LINE
  8
0
 10
-1.63814
 20
-152.699
 11
-1.18861
 21
-152.917
  0
LINE
  8
0
 10
-1.18861
 20
-152.917
 11
-0.75
 21
-153.157
  0
LINE
  8
0
 10
-0.75
 20
-153.157
 11
-0.323257
 21
-153.417
  0
LINE
  8
0
 10
-0.323257
 20
-153.417
 11
0.0905914
 21
-153.697
  0
LINE
  8
0
 10
0.0905914
 20
-153.697
 11
0.490662
 21
-153.996
  0
LINE
  8
0
 10
0.490662
 20
-153.996
 11
0.876038
 21
-154.315
  0
LINE
  8
0
 10
0.876038
 20
-154.315
 11
1.24582
 21
-154.651
  0
LINE
  8
0
 10
1.24582
 20
-154.651
 11
1.5992
 21
-155.004
  0
LINE
  8
0
 10
1.5992
 20
-155.004
 11
1.93536
 21
-155.374
  0
LINE
  8
0
 10
1.93536
 20
-155.374
 11
2.25356
 21
-155.759
  0
LINE
  8
0
 10
2.25356
 20
-155.759
 11
2.55304
 21
-156.159
  0
LINE
  8
0
 10
2.55304
 20
-156.159
 11
2.83316
 21
-156.573
  0
LINE
  8
0
 10
2.83316
 20
-156.573
 11
3.09326
 21
-157
  0
LINE
  8
0
 10
3.09326
 20
-157
 11
3.33276
 21
-157.439
  0
LINE
  8
0
 10
3.33276
 20
-157.439
 11
3.55113
 21
-157.888
  0
LINE
  8
0
 10
3.55113
 20
-157.888
 11
3.74785
 21
-158.348
  0
LINE
  8
0
 10
3.74785
 20
-158.348
 11
3.9225
 21
-158.816
  0
LINE
  8
0
 10
3.9225
 20
-158.816
 11
4.07466
 21
-159.292
  0
LINE
  8
0
 10
4.07466
 20
-159.292
 11
4.20401
 21
-159.775
  0
LINE
  8
0
 10
4.20401
 20
-159.775
 11
4.31024
 21
-160.263
  0
LINE
  8
0
 10
4.31024
 20
-160.263
 11
4.39311
 21
-160.756
  0
LINE
  8
0
 10
4.39311
 20
-160.756
 11
4.45245
 21
-161.252
  0
LINE
  8
0
 10
4.45245
 20
-161.252
 11
4.4881
 21
-161.75
  0
LINE
  8
0
 10
4.4881
 20
-161.75
 11
4.5
 21
-162.25
  0
LINE
  8
0
 10
4.5
 20
-162.25
 11
4.4881
 21
-162.75
  0
LINE
  8
0
 10
4.4881
 20
-162.75
 11
4.45245
 21
-163.248
  0
LINE
  8
0
 10
4.45245
 20
-163.248
 11
4.39311
 21
-163.744
  0
LINE
  8
0
 10
4.39311
 20
-163.744
 11
4.31024
 21
-164.237
  0
LINE
  8
0
 10
4.31024
 20
-164.237
 11
4.20401
 21
-164.725
  0
LINE
  8
0
 10
4.20401
 20
-164.725
 11
4.07466
 21
-165.208
  0
LINE
  8
0
 10
4.07466
 20
-165.208
 11
3.9225
 21
-165.684
  0
LINE
  8
0
 10
3.9225
 20
-165.684
 11
3.74785
 21
-166.152
  0
LINE
  8
0
 10
3.74785
 20
-166.152
 11
3.55113
 21
-166.612
  0
LINE
  8
0
 10
3.55113
 20
-166.612
 11
3.33276
 21
-167.061
  0
LINE
  8
0
 10
3.33276
 20
-167.061
 11
3.09326
 21
-167.5
  0
LINE
  8
0
 10
3.09326
 20
-167.5
 11
2.83316
 21
-167.927
  0
LINE
  8
0
 10
2.83316
 20
-167.927
 11
2.55304
 21
-168.341
  0
LINE
  8
0
 10
2.55304
 20
-168.341
 11
2.25356
 21
-168.741
  0
LINE
  8
0
 10
2.25356
 20
-168.741
 11
1.93536
 21
-169.126
  0
LINE
  8
0
 10
1.93536
 20
-169.126
 11
1.5992
 21
-169.496
  0
LINE
  8
0
 10
1.5992
 20
-169.496
 11
1.24582
 21
-169.849
  0
LINE
  8
0
 10
1.24582
 20
-169.849
 11
0.876038
 21
-170.185
  0
LINE
  8
0
 10
0.876038
 20
-170.185
 11
0.490662
 21
-170.504
  0
LINE
  8
0
 10
0.490662
 20
-170.504
 11
0.0905914
 21
-170.803
  0
LINE
  8
0
 10
0.0905914
 20
-170.803
 11
-0.323257
 21
-171.083
  0
LINE
  8
0
 10
-0.323257
 20
-171.083
 11
-0.75
 21
-171.343
  0
LINE
  8
0
 10
-0.75
 20
-171.343
 11
-1.18861
 21
-171.583
  0
LINE
  8
0
 10
-1.18861
 20
-171.583
 11
-1.63814
 21
-171.801
  0
LINE
  8
0
 10
-1.63814
 20
-171.801
 11
-2.09753
 21
-171.998
  0
LINE
  8
0
 10
-2.09753
 20
-171.998
 11
-2.56578
 21
-172.173
  0
LINE
  8
0
 10
-2.56578
 20
-172.173
 11
-3.04181
 21
-172.325
  0
LINE
  8
0
 10
-3.04181
 20
-172.325
 11
-3.52452
 21
-172.454
  0
LINE
  8
0
 10
-3.52452
 20
-172.454
 11
-4.01285
 21
-172.56
  0
LINE
  8
0
 10
-4.01285
 20
-172.56
 11
-4.50569
 21
-172.643
  0
LINE
  8
0
 10
-4.50569
 20
-172.643
 11
-5.00191
 21
-172.702
  0
LINE
  8
0
 10
-5.00191
 20
-172.702
 11
-5.50038
 21
-172.738
  0
LINE
  8
0
 10
-5.50038
 20
-172.738
 11
-6
 21
-172.75
  0
LINE
  8
0
 10
-6
 20
-172.75
 11
-6.4996
 21
-172.738
  0
LINE
  8
0
 10
-49.7843
 20
-178.247
 11
-50.2831
 21
-178.224
  0
LINE
  8
0
 10
-50.2831
 20
-178.224
 11
-50.7805
 21
-178.181
  0
LINE
  8
0
 10
-50.7805
 20
-178.181
 11
-51.2758
 21
-178.118
  0
LINE
  8
0
 10
-51.2758
 20
-178.118
 11
-51.7679
 21
-178.034
  0
LINE
  8
0
 10
-51.7679
 20
-178.034
 11
-52.2561
 21
-177.929
  0
LINE
  8
0
 10
-52.2561
 20
-177.929
 11
-52.7396
 21
-177.804
  0
LINE
  8
0
 10
-52.7396
 20
-177.804
 11
-53.2174
 21
-177.66
  0
LINE
  8
0
 10
-53.2174
 20
-177.66
 11
-53.6888
 21
-177.495
  0
LINE
  8
0
 10
-53.6888
 20
-177.495
 11
-54.153
 21
-177.311
  0
LINE
  8
0
 10
-54.153
 20
-177.311
 11
-54.6091
 21
-177.108
  0
LINE
  8
0
 10
-54.6091
 20
-177.108
 11
-55.0564
 21
-176.886
  0
LINE
  8
0
 10
-55.0564
 20
-176.886
 11
-55.494
 21
-176.646
  0
LINE
  8
0
 10
-55.494
 20
-176.646
 11
-55.9212
 21
-176.387
  0
LINE
  8
0
 10
-55.9212
 20
-176.387
 11
-56.3374
 21
-176.112
  0
LINE
  8
0
 10
-56.3374
 20
-176.112
 11
-56.7417
 21
-175.819
  0
LINE
  8
0
 10
-56.7417
 20
-175.819
 11
-57.1335
 21
-175.509
  0
LINE
  8
0
 10
-57.1335
 20
-175.509
 11
-57.512
 21
-175.184
  0
LINE
  8
0
 10
-57.512
 20
-175.184
 11
-57.8767
 21
-174.842
  0
LINE
  8
0
 10
-57.8767
 20
-174.842
 11
-58.2269
 21
-174.487
  0
LINE
  8
0
 10
-58.2269
 20
-174.487
 11
-58.562
 21
-174.116
  0
LINE
  8
0
 10
-58.562
 20
-174.116
 11
-58.8813
 21
-173.733
  0
LINE
  8
0
 10
-58.8813
 20
-173.733
 11
-59.1845
 21
-173.336
  0
LINE
  8
0
 10
-59.1845
 20
-173.336
 11
-59.4709
 21
-172.927
  0
LINE
  8
0
 10
-59.4709
 20
-172.927
 11
-59.74
 21
-172.506
  0
LINE
  8
0
 10
-59.74
 20
-172.506
 11
-59.9914
 21
-172.075
  0
LINE
  8
0
 10
-59.9914
 20
-172.075
 11
-60.2246
 21
-171.634
  0
LINE
  8
0
 10
-60.2246
 20
-171.634
 11
-60.4393
 21
-171.183
  0
LINE
  8
0
 10
-60.4393
 20
-171.183
 11
-60.635
 21
-170.723
  0
LINE
  8
0
 10
-60.635
 20
-170.723
 11
-60.8115
 21
-170.256
  0
LINE
  8
0
 10
-60.8115
 20
-170.256
 11
-60.9683
 21
-169.782
  0
LINE
  8
0
 10
-60.9683
 20
-169.782
 11
-61.1053
 21
-169.302
  0
LINE
  8
0
 10
-61.1053
 20
-169.302
 11
-61.2223
 21
-168.817
  0
LINE
  8
0
 10
-61.2223
 20
-168.817
 11
-61.3189
 21
-168.327
  0
LINE
  8
0
 10
-61.3189
 20
-168.327
 11
-61.3951
 21
-167.833
  0
LINE
  8
0
 10
-61.3951
 20
-167.833
 11
-61.4506
 21
-167.337
  0
LINE
  8
0
 10
-61.4506
 20
-167.337
 11
-61.4855
 21
-166.839
  0
LINE
  8
0
 10
-61.4855
 20
-166.839
 11
-61.4996
 21
-166.34
  0
LINE
  8
0
 10
-61.4996
 20
-166.34
 11
-61.493
 21
-165.841
  0
LINE
  8
0
 10
-61.493
 20
-165.841
 11
-61.4656
 21
-165.342
  0
LINE
  8
0
 10
-61.4656
 20
-165.342
 11
-61.4175
 21
-164.845
  0
LINE
  8
0
 10
-61.4175
 20
-164.845
 11
-61.3488
 21
-164.351
  0
LINE
  8
0
 10
-61.3488
 20
-164.351
 11
-61.2595
 21
-163.86
  0
LINE
  8
0
 10
-61.2595
 20
-163.86
 11
-61.1499
 21
-163.373
  0
LINE
  8
0
 10
-61.1499
 20
-163.373
 11
-61.0201
 21
-162.89
  0
LINE
  8
0
 10
-61.0201
 20
-162.89
 11
-60.8704
 21
-162.414
  0
LINE
  8
0
 10
-60.8704
 20
-162.414
 11
-60.701
 21
-161.944
  0
LINE
  8
0
 10
-60.701
 20
-161.944
 11
-60.5122
 21
-161.482
  0
LINE
  8
0
 10
-60.5122
 20
-161.482
 11
-60.3043
 21
-161.028
  0
LINE
  8
0
 10
-60.3043
 20
-161.028
 11
-60.0777
 21
-160.583
  0
LINE
  8
0
 10
-60.0777
 20
-160.583
 11
-59.8329
 21
-160.148
  0
LINE
  8
0
 10
-59.8329
 20
-160.148
 11
-59.5701
 21
-159.724
  0
LINE
  8
0
 10
-59.5701
 20
-159.724
 11
-59.2899
 21
-159.31
  0
LINE
  8
0
 10
-59.2899
 20
-159.31
 11
-58.9927
 21
-158.909
  0
LINE
  8
0
 10
-58.9927
 20
-158.909
 11
-58.6791
 21
-158.521
  0
LINE
  8
0
 10
-58.6791
 20
-158.521
 11
-58.3497
 21
-158.145
  0
LINE
  8
0
 10
-58.3497
 20
-158.145
 11
-58.0049
 21
-157.784
  0
LINE
  8
0
 10
-58.0049
 20
-157.784
 11
-57.6454
 21
-157.438
  0
LINE
  8
0
 10
-57.6454
 20
-157.438
 11
-57.2717
 21
-157.107
  0
LINE
  8
0
 10
-57.2717
 20
-157.107
 11
-56.8847
 21
-156.791
  0
LINE
  8
0
 10
-56.8847
 20
-156.791
 11
-56.4848
 21
-156.492
  0
LINE
  8
0
 10
-56.4848
 20
-156.492
 11
-56.0728
 21
-156.21
  0
LINE
  8
0
 10
-56.0728
 20
-156.21
 11
-55.6495
 21
-155.945
  0
LINE
  8
0
 10
-55.6495
 20
-155.945
 11
-55.2155
 21
-155.699
  0
LINE
  8
0
 10
-55.2155
 20
-155.699
 11
-54.7717
 21
-155.47
  0
LINE
  8
0
 10
-54.7717
 20
-155.47
 11
-54.3187
 21
-155.26
  0
LINE
  8
0
 10
-54.3187
 20
-155.26
 11
-53.8573
 21
-155.069
  0
LINE
  8
0
 10
-53.8573
 20
-155.069
 11
-53.3884
 21
-154.897
  0
LINE
  8
0
 10
-53.3884
 20
-154.897
 11
-52.9128
 21
-154.746
  0
LINE
  8
0
 10
-52.9128
 20
-154.746
 11
-52.4313
 21
-154.614
  0
LINE
  8
0
 10
-52.4313
 20
-154.614
 11
-51.9447
 21
-154.502
  0
LINE
  8
0
 10
-51.9447
 20
-154.502
 11
-51.4539
 21
-154.41
  0
LINE
  8
0
 10
-51.4539
 20
-154.41
 11
-50.9597
 21
-154.339
  0
LINE
  8
0
 10
-50.9597
 20
-154.339
 11
-50.4629
 21
-154.289
  0
LINE
  8
0
 10
-50.4629
 20
-154.289
 11
-49.9645
 21
-154.259
  0
LINE
  8
0
 10
-49.9645
 20
-154.259
 11
-49.4653
 21
-154.25
  0
LINE
  8
0
 10
-49.4653
 20
-154.25
 11
-48.9662
 21
-154.262
  0
LINE
  8
0
 10
-48.9662
 20
-154.262
 11
-48.4679
 21
-154.294
  0
LINE
  8
0
 10
-48.4679
 20
-154.294
 11
-47.9715
 21
-154.348
  0
LINE
  8
0
 10
-47.9715
 20
-154.348
 11
-47.4777
 21
-154.422
  0
LINE
  8
0
 10
-47.4777
 20
-154.422
 11
-46.9874
 21
-154.516
  0
LINE
  8
0
 10
-46.9874
 20
-154.516
 11
-46.5015
 21
-154.631
  0
LINE
  8
0
 10
-46.5015
 20
-154.631
 11
-46.0207
 21
-154.765
  0
LINE
  8
0
 10
-46.0207
 20
-154.765
 11
-45.546
 21
-154.92
  0
LINE
  8
0
 10
-45.546
 20
-154.92
 11
-45.0781
 21
-155.094
  0
LINE
  8
0
 10
-45.0781
 20
-155.094
 11
-44.6179
 21
-155.288
  0
LINE
  8
0
 10
-44.6179
 20
-155.288
 11
-44.1661
 21
-155.501
  0
LINE
  8
0
 10
-44.1661
 20
-155.501
 11
-43.7236
 21
-155.732
  0
LINE
  8
0
 10
-43.7236
 20
-155.732
 11
-43.291
 21
-155.981
  0
LINE
  8
0
 10
-43.291
 20
-155.981
 11
-42.8692
 21
-156.248
  0
LINE
  8
0
 10
-42.8692
 20
-156.248
 11
-42.4589
 21
-156.533
  0
LINE
  8
0
 10
-42.4589
 20
-156.533
 11
-42.0608
 21
-156.834
  0
LINE
  8
0
 10
-42.0608
 20
-156.834
 11
-41.6756
 21
-157.152
  0
LINE
  8
0
 10
-41.6756
 20
-157.152
 11
-41.3038
 21
-157.485
  0
LINE
  8
0
 10
-41.3038
 20
-157.485
 11
-40.9463
 21
-157.834
  0
LINE
  8
0
 10
-40.9463
 20
-157.834
 11
-40.6036
 21
-158.197
  0
LINE
  8
0
 10
-40.6036
 20
-158.197
 11
-40.2763
 21
-158.574
  0
LINE
  8
0
 10
-40.2763
 20
-158.574
 11
-39.965
 21
-158.964
  0
LINE
  8
0
 10
-39.965
 20
-158.964
 11
-39.6702
 21
-159.367
  0
LINE
  8
0
 10
-39.6702
 20
-159.367
 11
-39.3924
 21
-159.782
  0
LINE
  8
0
 10
-39.3924
 20
-159.782
 11
-39.132
 21
-160.208
  0
LINE
  8
0
 10
-39.132
 20
-160.208
 11
-38.8897
 21
-160.645
  0
LINE
  8
0
 10
-38.8897
 20
-160.645
 11
-38.6657
 21
-161.091
  0
LINE
  8
0
 10
-38.6657
 20
-161.091
 11
-38.4604
 21
-161.546
  0
LINE
  8
0
 10
-38.4604
 20
-161.546
 11
-38.2743
 21
-162.009
  0
LINE
  8
0
 10
-38.2743
 20
-162.009
 11
-38.1076
 21
-162.48
  0
LINE
  8
0
 10
-38.1076
 20
-162.48
 11
-37.9607
 21
-162.957
  0
LINE
  8
0
 10
-37.9607
 20
-162.957
 11
-37.8337
 21
-163.44
  0
LINE
  8
0
 10
-37.8337
 20
-163.44
 11
-37.7269
 21
-163.928
  0
LINE
  8
0
 10
-37.7269
 20
-163.928
 11
-37.6405
 21
-164.419
  0
LINE
  8
0
 10
-37.6405
 20
-164.419
 11
-37.5746
 21
-164.914
  0
LINE
  8
0
 10
-37.5746
 20
-164.914
 11
-37.5293
 21
-165.412
  0
LINE
  8
0
 10
-37.5293
 20
-165.412
 11
-37.5048
 21
-165.91
  0
LINE
  8
0
 10
-37.5048
 20
-165.91
 11
-37.5011
 21
-166.41
  0
LINE
  8
0
 10
-37.5011
 20
-166.41
 11
-37.5181
 21
-166.909
  0
LINE
  8
0
 10
-37.5181
 20
-166.909
 11
-37.5558
 21
-167.406
  0
LINE
  8
0
 10
-37.5558
 20
-167.406
 11
-37.6143
 21
-167.902
  0
LINE
  8
0
 10
-37.6143
 20
-167.902
 11
-37.6933
 21
-168.395
  0
LINE
  8
0
 10
-37.6933
 20
-168.395
 11
-37.7928
 21
-168.885
  0
LINE
  8
0
 10
-37.7928
 20
-168.885
 11
-37.9125
 21
-169.369
  0
LINE
  8
0
 10
-37.9125
 20
-169.369
 11
-38.0523
 21
-169.849
  0
LINE
  8
0
 10
-38.0523
 20
-169.849
 11
-38.2119
 21
-170.322
  0
LINE
  8
0
 10
-38.2119
 20
-170.322
 11
-38.391
 21
-170.788
  0
LINE
  8
0
 10
-38.391
 20
-170.788
 11
-38.5894
 21
-171.246
  0
LINE
  8
0
 10
-38.5894
 20
-171.246
 11
-38.8067
 21
-171.695
  0
LINE
  8
0
 10
-38.8067
 20
-171.695
 11
-39.0424
 21
-172.136
  0
LINE
  8
0
 10
-39.0424
 20
-172.136
 11
-39.2963
 21
-172.565
  0
LINE
  8
0
 10
-39.2963
 20
-172.565
 11
-39.5679
 21
-172.984
  0
LINE
  8
0
 10
-39.5679
 20
-172.984
 11
-39.8566
 21
-173.392
  0
LINE
  8
0
 10
-39.8566
 20
-173.392
 11
-40.162
 21
-173.787
  0
LINE
  8
0
 10
-40.162
 20
-173.787
 11
-40.4836
 21
-174.169
  0
LINE
  8
0
 10
-40.4836
 20
-174.169
 11
-40.8208
 21
-174.537
  0
LINE
  8
0
 10
-40.8208
 20
-174.537
 11
-41.1731
 21
-174.891
  0
LINE
  8
0
 10
-41.1731
 20
-174.891
 11
-41.5397
 21
-175.23
  0
LINE
  8
0
 10
-41.5397
 20
-175.23
 11
-41.9202
 21
-175.553
  0
LINE
  8
0
 10
-41.9202
 20
-175.553
 11
-42.3137
 21
-175.86
  0
LINE
  8
0
 10
-42.3137
 20
-175.86
 11
-42.7197
 21
-176.151
  0
LINE
  8
0
 10
-42.7197
 20
-176.151
 11
-43.1374
 21
-176.424
  0
LINE
  8
0
 10
-43.1374
 20
-176.424
 11
-43.5662
 21
-176.68
  0
LINE
  8
0
 10
-43.5662
 20
-176.68
 11
-44.0052
 21
-176.918
  0
LINE
  8
0
 10
-44.0052
 20
-176.918
 11
-44.4537
 21
-177.137
  0
LINE
  8
0
 10
-44.4537
 20
-177.137
 11
-44.911
 21
-177.338
  0
LINE
  8
0
 10
-44.911
 20
-177.338
 11
-45.3762
 21
-177.519
  0
LINE
  8
0
 10
-45.3762
 20
-177.519
 11
-45.8486
 21
-177.681
  0
LINE
  8
0
 10
-45.8486
 20
-177.681
 11
-46.3272
 21
-177.823
  0
LINE
  8
0
 10
-46.3272
 20
-177.823
 11
-46.8114
 21
-177.945
  0
LINE
  8
0
 10
-46.8114
 20
-177.945
 11
-47.3002
 21
-178.047
  0
LINE
  8
0
 10
-47.3002
 20
-178.047
 11
-47.7928
 21
-178.128
  0
LINE
  8
0
 10
-47.7928
 20
-178.128
 11
-48.2884
 21
-178.189
  0
LINE
  8
0
 10
-48.2884
 20
-178.189
 11
-48.7861
 21
-178.229
  0
LINE
  8
0
 10
-48.7861
 20
-178.229
 11
-49.285
 21
-178.248
  0
LINE
  8
0
 10
-49.285
 20
-178.248
 11
-49.7843
 21
-178.247
  0
LINE
  8
0
 10
-71.5651
 20
-164.178
 11
-72.0447
 21
-164.076
  0
LINE
  8
0
 10
-72.0447
 20
-164.076
 11
-72.4791
 21
-163.849
  0
LINE
  8
0
 10
-72.4791
 20
-163.849
 11
-72.836
 21
-163.513
  0
LINE
  8
0
 10
-72.836
 20
-163.513
 11
-73.0892
 21
-163.093
  0
LINE
  8
0
 10
-73.0892
 20
-163.093
 11
-73.2196
 21
-162.621
  0
LINE
  8
0
 10
-73.2196
 20
-162.621
 11
-73.2178
 21
-162.13
  0
LINE
  8
0
 10
-73.2178
 20
-162.13
 11
-73.0837
 21
-161.659
  0
LINE
  8
0
 10
-73.0837
 20
-161.659
 11
-72.8274
 21
-161.241
  0
LINE
  8
0
 10
-72.8274
 20
-161.241
 11
-72.4679
 21
-160.908
  0
LINE
  8
0
 10
-72.4679
 20
-160.908
 11
-72.0318
 21
-160.684
  0
LINE
  8
0
 10
-72.0318
 20
-160.684
 11
-71.5515
 21
-160.586
  0
LINE
  8
0
 10
-71.5515
 20
-160.586
 11
-71.0626
 21
-160.621
  0
LINE
  8
0
 10
-71.0626
 20
-160.621
 11
-70.3662
 21
-160.744
  0
LINE
  8
0
 10
-70.3662
 20
-160.744
 11
-69.9049
 21
-160.91
  0
LINE
  8
0
 10
-69.9049
 20
-160.91
 11
-69.5055
 21
-161.194
  0
LINE
  8
0
 10
-69.5055
 20
-161.194
 11
-69.1976
 21
-161.576
  0
LINE
  8
0
 10
-69.1976
 20
-161.576
 11
-69.004
 21
-162.026
  0
LINE
  8
0
 10
-69.004
 20
-162.026
 11
-68.9391
 21
-162.512
  0
LINE
  8
0
 10
-68.9391
 20
-162.512
 11
-69.0077
 21
-162.997
  0
LINE
  8
0
 10
-69.0077
 20
-162.997
 11
-69.2047
 21
-163.446
  0
LINE
  8
0
 10
-69.2047
 20
-163.446
 11
-69.5155
 21
-163.825
  0
LINE
  8
0
 10
-69.5155
 20
-163.825
 11
-69.9171
 21
-164.106
  0
LINE
  8
0
 10
-69.9171
 20
-164.106
 11
-70.3796
 21
-164.269
  0
LINE
  8
0
 10
-70.3796
 20
-164.269
 11
-70.8688
 21
-164.3
  0
LINE
  8
0
 10
-70.8688
 20
-164.3
 11
-71.5651
 21
-164.178
  0
LINE
  8
0
 10
-80.6516
 20
-170.833
 11
-81.1004
 21
-170.635
  0
LINE
  8
0
 10
-81.1004
 20
-170.635
 11
-81.4795
 21
-170.325
  0
LINE
  8
0
 10
-81.4795
 20
-170.325
 11
-81.7607
 21
-169.923
  0
LINE
  8
0
 10
-81.7607
 20
-169.923
 11
-81.9231
 21
-169.461
  0
LINE
  8
0
 10
-81.9231
 20
-169.461
 11
-81.9547
 21
-168.971
  0
LINE
  8
0
 10
-81.9547
 20
-168.971
 11
-81.8319
 21
-168.275
  0
LINE
  8
0
 10
-81.8319
 20
-168.275
 11
-81.7303
 21
-167.796
  0
LINE
  8
0
 10
-81.7303
 20
-167.796
 11
-81.5032
 21
-167.361
  0
LINE
  8
0
 10
-81.5032
 20
-167.361
 11
-81.1672
 21
-167.004
  0
LINE
  8
0
 10
-81.1672
 20
-167.004
 11
-80.7474
 21
-166.751
  0
LINE
  8
0
 10
-80.7474
 20
-166.751
 11
-80.2749
 21
-166.621
  0
LINE
  8
0
 10
-80.2749
 20
-166.621
 11
-79.7847
 21
-166.622
  0
LINE
  8
0
 10
-79.7847
 20
-166.622
 11
-79.3132
 21
-166.756
  0
LINE
  8
0
 10
-79.3132
 20
-166.756
 11
-78.8953
 21
-167.013
  0
LINE
  8
0
 10
-78.8953
 20
-167.013
 11
-78.5621
 21
-167.372
  0
LINE
  8
0
 10
-78.5621
 20
-167.372
 11
-78.3382
 21
-167.808
  0
LINE
  8
0
 10
-78.3382
 20
-167.808
 11
-78.2403
 21
-168.289
  0
LINE
  8
0
 10
-78.2403
 20
-168.289
 11
-78.2756
 21
-168.778
  0
LINE
  8
0
 10
-78.2756
 20
-168.778
 11
-78.3984
 21
-169.474
  0
LINE
  8
0
 10
-78.3984
 20
-169.474
 11
-78.5643
 21
-169.935
  0
LINE
  8
0
 10
-78.5643
 20
-169.935
 11
-78.8485
 21
-170.335
  0
LINE
  8
0
 10
-78.8485
 20
-170.335
 11
-79.2299
 21
-170.643
  0
LINE
  8
0
 10
-79.2299
 20
-170.643
 11
-79.6803
 21
-170.836
  0
LINE
  8
0
 10
-79.6803
 20
-170.836
 11
-80.1662
 21
-170.901
  0
LINE
  8
0
 10
-80.1662
 20
-170.901
 11
-80.6516
 21
-170.833
  0
LINE
  8
0
 10
-27.9374
 20
-171.879
 11
-28.6338
 21
-171.756
  0
LINE
  8
0
 10
-28.6338
 20
-171.756
 11
-29.0951
 21
-171.59
  0
LINE
  8
0
 10
-29.0951
 20
-171.59
 11
-29.4945
 21
-171.306
  0
LINE
  8
0
 10
-29.4945
 20
-171.306
 11
-29.8024
 21
-170.924
  0
LINE
  8
0
 10
-29.8024
 20
-170.924
 11
-29.996
 21
-170.474
  0
LINE
  8
0
 10
-29.996
 20
-170.474
 11
-30.0609
 21
-169.988
  0
LINE
  8
0
 10
-30.0609
 20
-169.988
 11
-29.9923
 21
-169.503
  0
LINE
  8
0
 10
-29.9923
 20
-169.503
 11
-29.7953
 21
-169.054
  0
LINE
  8
0
 10
-29.7953
 20
-169.054
 11
-29.4845
 21
-168.675
  0
LINE
  8
0
 10
-29.4845
 20
-168.675
 11
-29.0829
 21
-168.394
  0
LINE
  8
0
 10
-29.0829
 20
-168.394
 11
-28.6204
 21
-168.231
  0
LINE
  8
0
 10
-28.6204
 20
-168.231
 11
-28.1312
 21
-168.2
  0
LINE
  8
0
 10
-28.1312
 20
-168.2
 11
-27.4349
 21
-168.322
  0
LINE
  8
0
 10
-27.4349
 20
-168.322
 11
-26.9553
 21
-168.424
  0
LINE
  8
0
 10
-26.9553
 20
-168.424
 11
-26.5209
 21
-168.651
  0
LINE
  8
0
 10
-26.5209
 20
-168.651
 11
-26.1639
 21
-168.987
  0
LINE
  8
0
 10
-26.1639
 20
-168.987
 11
-25.9108
 21
-169.407
  0
LINE
  8
0
 10
-25.9108
 20
-169.407
 11
-25.7804
 21
-169.879
  0
LINE
  8
0
 10
-25.7804
 20
-169.879
 11
-25.7822
 21
-170.37
  0
LINE
  8
0
 10
-25.7822
 20
-170.37
 11
-25.9163
 21
-170.841
  0
LINE
  8
0
 10
-25.9163
 20
-170.841
 11
-26.1726
 21
-171.259
  0
LINE
  8
0
 10
-26.1726
 20
-171.259
 11
-26.5321
 21
-171.592
  0
LINE
  8
0
 10
-26.5321
 20
-171.592
 11
-26.9682
 21
-171.816
  0
LINE
  8
0
 10
-26.9682
 20
-171.816
 11
-27.4485
 21
-171.914
  0
LINE
  8
0
 10
-27.4485
 20
-171.914
 11
-27.9374
 21
-171.879
  0
LINE
  8
0
 10
-17.3832
 20
-175.573
 11
-17.8635
 21
-175.463
  0
LINE
  8
0
 10
-17.8635
 20
-175.463
 11
-18.3074
 21
-175.25
  0
LINE
  8
0
 10
-18.3074
 20
-175.25
 11
-18.6926
 21
-174.943
  0
LINE
  8
0
 10
-18.6926
 20
-174.943
 11
-18.9997
 21
-174.557
  0
LINE
  8
0
 10
-18.9997
 20
-174.557
 11
-19.2135
 21
-174.114
  0
LINE
  8
0
 10
-19.2135
 20
-174.114
 11
-19.3231
 21
-173.633
  0
LINE
  8
0
 10
-19.3231
 20
-173.633
 11
-19.3231
 21
-173.141
  0
LINE
  8
0
 10
-19.3231
 20
-173.141
 11
-19.2135
 21
-172.66
  0
LINE
  8
0
 10
-19.2135
 20
-172.66
 11
-18.9997
 21
-172.216
  0
LINE
  8
0
 10
-18.9997
 20
-172.216
 11
-18.6926
 21
-171.831
  0
LINE
  8
0
 10
-18.6926
 20
-171.831
 11
-18.3074
 21
-171.524
  0
LINE
  8
0
 10
-18.3074
 20
-171.524
 11
-17.8635
 21
-171.31
  0
LINE
  8
0
 10
-17.8635
 20
-171.31
 11
-17.3832
 21
-171.201
  0
LINE
  8
0
 10
-17.3832
 20
-171.201
 11
-16.8906
 21
-171.201
  0
LINE
  8
0
 10
-16.8906
 20
-171.201
 11
-16.4103
 21
-171.31
  0
LINE
  8
0
 10
-16.4103
 20
-171.31
 11
-15.9665
 21
-171.524
  0
LINE
  8
0
 10
-15.9665
 20
-171.524
 11
-15.5813
 21
-171.831
  0
LINE
  8
0
 10
-15.5813
 20
-171.831
 11
-15.2741
 21
-172.216
  0
LINE
  8
0
 10
-15.2741
 20
-172.216
 11
-15.0604
 21
-172.66
  0
LINE
  8
0
 10
-15.0604
 20
-172.66
 11
-14.9508
 21
-173.141
  0
LINE
  8
0
 10
-14.9508
 20
-173.141
 11
-14.9508
 21
-173.633
  0
LINE
  8
0
 10
-14.9508
 20
-173.633
 11
-15.0604
 21
-174.114
  0
LINE
  8
0
 10
-15.0604
 20
-174.114
 11
-15.2741
 21
-174.557
  0
LINE
  8
0
 10
-15.2741
 20
-174.557
 11
-15.5813
 21
-174.943
  0
LINE
  8
0
 10
-15.5813
 20
-174.943
 11
-15.9665
 21
-175.25
  0
LINE
  8
0
 10
-15.9665
 20
-175.25
 11
-16.4103
 21
-175.463
  0
LINE
  8
0
 10
-16.4103
 20
-175.463
 11
-16.8906
 21
-175.573
  0
LINE
  8
0
 10
-16.8906
 20
-175.573
 11
-17.3832
 21
-175.573
  0
LINE
  8
0
 10
4.89061
 20
-175.573
 11
4.41031
 21
-175.463
  0
LINE
  8
0
 10
4.41031
 20
-175.463
 11
3.96646
 21
-175.25
  0
LINE
  8
0
 10
3.96646
 20
-175.25
 11
3.58128
 21
-174.943
  0
LINE
  8
0
 10
3.58128
 20
-174.943
 11
3.27412
 21
-174.557
  0
LINE
  8
0
 10
3.27412
 20
-174.557
 11
3.06038
 21
-174.114
  0
LINE
  8
0
 10
3.06038
 20
-174.114
 11
2.95076
 21
-173.633
  0
LINE
  8
0
 10
2.95076
 20
-173.633
 11
2.95076
 21
-173.141
  0
LINE
  8
0
 10
2.95076
 20
-173.141
 11
3.06038
 21
-172.66
  0
LINE
  8
0
 10
3.06038
 20
-172.66
 11
3.27412
 21
-172.216
  0
LINE
  8
0
 10
3.27412
 20
-172.216
 11
3.58128
 21
-171.831
  0
LINE
  8
0
 10
3.58128
 20
-171.831
 11
3.96646
 21
-171.524
  0
LINE
  8
0
 10
3.96646
 20
-171.524
 11
4.41031
 21
-171.31
  0
LINE
  8
0
 10
4.41031
 20
-171.31
 11
4.89061
 21
-171.201
  0
LINE
  8
0
 10
4.89061
 20
-171.201
 11
5.38324
 21
-171.201
  0
LINE
  8
0
 10
5.38324
 20
-171.201
 11
5.86354
 21
-171.31
  0
LINE
  8
0
 10
5.86354
 20
-171.31
 11
6.30739
 21
-171.524
  0
LINE
  8
0
 10
6.30739
 20
-171.524
 11
6.69257
 21
-171.831
  0
LINE
  8
0
 10
6.69257
 20
-171.831
 11
6.99971
 21
-172.216
  0
LINE
  8
0
 10
6.99971
 20
-172.216
 11
7.21347
 21
-172.66
  0
LINE
  8
0
 10
7.21347
 20
-172.66
 11
7.32309
 21
-173.141
  0
LINE
  8
0
 10
7.32309
 20
-173.141
 11
7.32309
 21
-173.633
  0
LINE
  8
0
 10
7.32309
 20
-173.633
 11
7.21347
 21
-174.114
  0
LINE
  8
0
 10
7.21347
 20
-174.114
 11
6.99971
 21
-174.557
  0
LINE
  8
0
 10
6.99971
 20
-174.557
 11
6.69257
 21
-174.943
  0
LINE
  8
0
 10
6.69257
 20
-174.943
 11
6.30739
 21
-175.25
  0
LINE
  8
0
 10
6.30739
 20
-175.25
 11
5.86354
 21
-175.463
  0
LINE
  8
0
 10
5.86354
 20
-175.463
 11
5.38324
 21
-175.573
  0
LINE
  8
0
 10
5.38324
 20
-175.573
 11
4.89061
 21
-175.573
  0
LINE
  8
0
 10
-84.1887
 20
-202.337
 11
-84.6875
 21
-202.315
  0
LINE
  8
0
 10
-84.6875
 20
-202.315
 11
-85.1849
 21
-202.272
  0
LINE
  8
0
 10
-85.1849
 20
-202.272
 11
-85.6801
 21
-202.208
  0
LINE
  8
0
 10
-85.6801
 20
-202.208
 11
-86.1723
 21
-202.124
  0
LINE
  8
0
 10
-86.1723
 20
-202.124
 11
-86.6605
 21
-202.019
  0
LINE
  8
0
 10
-86.6605
 20
-202.019
 11
-87.144
 21
-201.895
  0
LINE
  8
0
 10
-87.144
 20
-201.895
 11
-87.6218
 21
-201.75
  0
LINE
  8
0
 10
-87.6218
 20
-201.75
 11
-88.0932
 21
-201.585
  0
LINE
  8
0
 10
-88.0932
 20
-201.585
 11
-88.5574
 21
-201.401
  0
LINE
  8
0
 10
-88.5574
 20
-201.401
 11
-89.0135
 21
-201.198
  0
LINE
  8
0
 10
-89.0135
 20
-201.198
 11
-89.4607
 21
-200.976
  0
LINE
  8
0
 10
-89.4607
 20
-200.976
 11
-89.8984
 21
-200.736
  0
LINE
  8
0
 10
-89.8984
 20
-200.736
 11
-90.3256
 21
-200.478
  0
LINE
  8
0
 10
-90.3256
 20
-200.478
 11
-90.7418
 21
-200.202
  0
LINE
  8
0
 10
-90.7418
 20
-200.202
 11
-91.1461
 21
-199.909
  0
LINE
  8
0
 10
-91.1461
 20
-199.909
 11
-91.5379
 21
-199.599
  0
LINE
  8
0
 10
-91.5379
 20
-199.599
 11
-91.9164
 21
-199.274
  0
LINE
  8
0
 10
-91.9164
 20
-199.274
 11
-92.2811
 21
-198.933
  0
LINE
  8
0
 10
-92.2811
 20
-198.933
 11
-92.6313
 21
-198.577
  0
LINE
  8
0
 10
-92.6313
 20
-198.577
 11
-92.9664
 21
-198.207
  0
LINE
  8
0
 10
-92.9664
 20
-198.207
 11
-93.2857
 21
-197.823
  0
LINE
  8
0
 10
-93.2857
 20
-197.823
 11
-93.5889
 21
-197.426
  0
LINE
  8
0
 10
-93.5889
 20
-197.426
 11
-93.8753
 21
-197.017
  0
LINE
  8
0
 10
-93.8753
 20
-197.017
 11
-94.1444
 21
-196.597
  0
LINE
  8
0
 10
-94.1444
 20
-196.597
 11
-94.3958
 21
-196.165
  0
LINE
  8
0
 10
-94.3958
 20
-196.165
 11
-94.629
 21
-195.724
  0
LINE
  8
0
 10
-94.629
 20
-195.724
 11
-94.8437
 21
-195.273
  0
LINE
  8
0
 10
-94.8437
 20
-195.273
 11
-95.0394
 21
-194.814
  0
LINE
  8
0
 10
-95.0394
 20
-194.814
 11
-95.2159
 21
-194.347
  0
LINE
  8
0
 10
-95.2159
 20
-194.347
 11
-95.3727
 21
-193.873
  0
LINE
  8
0
 10
-95.3727
 20
-193.873
 11
-95.5097
 21
-193.392
  0
LINE
  8
0
 10
-95.5097
 20
-193.392
 11
-95.6266
 21
-192.907
  0
LINE
  8
0
 10
-95.6266
 20
-192.907
 11
-95.7233
 21
-192.417
  0
LINE
  8
0
 10
-95.7233
 20
-192.417
 11
-95.7994
 21
-191.924
  0
LINE
  8
0
 10
-95.7994
 20
-191.924
 11
-95.855
 21
-191.428
  0
LINE
  8
0
 10
-95.855
 20
-191.428
 11
-95.8899
 21
-190.929
  0
LINE
  8
0
 10
-95.8899
 20
-190.929
 11
-95.904
 21
-190.43
  0
LINE
  8
0
 10
-95.904
 20
-190.43
 11
-95.8974
 21
-189.931
  0
LINE
  8
0
 10
-95.8974
 20
-189.931
 11
-95.87
 21
-189.433
  0
LINE
  8
0
 10
-95.87
 20
-189.433
 11
-95.8219
 21
-188.936
  0
LINE
  8
0
 10
-95.8219
 20
-188.936
 11
-95.7531
 21
-188.441
  0
LINE
  8
0
 10
-95.7531
 20
-188.441
 11
-95.6639
 21
-187.95
  0
LINE
  8
0
 10
-95.6639
 20
-187.95
 11
-95.5543
 21
-187.463
  0
LINE
  8
0
 10
-95.5543
 20
-187.463
 11
-95.4245
 21
-186.981
  0
LINE
  8
0
 10
-95.4245
 20
-186.981
 11
-95.2748
 21
-186.504
  0
LINE
  8
0
 10
-95.2748
 20
-186.504
 11
-95.1054
 21
-186.035
  0
LINE
  8
0
 10
-95.1054
 20
-186.035
 11
-94.9165
 21
-185.572
  0
LINE
  8
0
 10
-94.9165
 20
-185.572
 11
-94.7087
 21
-185.118
  0
LINE
  8
0
 10
-94.7087
 20
-185.118
 11
-94.4821
 21
-184.674
  0
LINE
  8
0
 10
-94.4821
 20
-184.674
 11
-94.2372
 21
-184.238
  0
LINE
  8
0
 10
-94.2372
 20
-184.238
 11
-93.9745
 21
-183.814
  0
LINE
  8
0
 10
-93.9745
 20
-183.814
 11
-93.6943
 21
-183.401
  0
LINE
  8
0
 10
-93.6943
 20
-183.401
 11
-93.3971
 21
-182.999
  0
LINE
  8
0
 10
-93.3971
 20
-182.999
 11
-93.0835
 21
-182.611
  0
LINE
  8
0
 10
-93.0835
 20
-182.611
 11
-92.7541
 21
-182.236
  0
LINE
  8
0
 10
-92.7541
 20
-182.236
 11
-92.4093
 21
-181.875
  0
LINE
  8
0
 10
-92.4093
 20
-181.875
 11
-92.0497
 21
-181.528
  0
LINE
  8
0
 10
-92.0497
 20
-181.528
 11
-91.6761
 21
-181.197
  0
LINE
  8
0
 10
-91.6761
 20
-181.197
 11
-91.289
 21
-180.882
  0
LINE
  8
0
 10
-91.289
 20
-180.882
 11
-90.8892
 21
-180.583
  0
LINE
  8
0
 10
-90.8892
 20
-180.583
 11
-90.4772
 21
-180.3
  0
LINE
  8
0
 10
-90.4772
 20
-180.3
 11
-90.0539
 21
-180.036
  0
LINE
  8
0
 10
-90.0539
 20
-180.036
 11
-89.6199
 21
-179.789
  0
LINE
  8
0
 10
-89.6199
 20
-179.789
 11
-89.1761
 21
-179.56
  0
LINE
  8
0
 10
-89.1761
 20
-179.56
 11
-88.7231
 21
-179.35
  0
LINE
  8
0
 10
-88.7231
 20
-179.35
 11
-88.2617
 21
-179.159
  0
LINE
  8
0
 10
-88.2617
 20
-179.159
 11
-87.7928
 21
-178.988
  0
LINE
  8
0
 10
-87.7928
 20
-178.988
 11
-87.3172
 21
-178.836
  0
LINE
  8
0
 10
-87.3172
 20
-178.836
 11
-86.8357
 21
-178.704
  0
LINE
  8
0
 10
-86.8357
 20
-178.704
 11
-86.3491
 21
-178.592
  0
LINE
  8
0
 10
-86.3491
 20
-178.592
 11
-85.8583
 21
-178.5
  0
LINE
  8
0
 10
-85.8583
 20
-178.5
 11
-85.3641
 21
-178.429
  0
LINE
  8
0
 10
-85.3641
 20
-178.429
 11
-84.8673
 21
-178.379
  0
LINE
  8
0
 10
-84.8673
 20
-178.379
 11
-84.3689
 21
-178.349
  0
LINE
  8
0
 10
-84.3689
 20
-178.349
 11
-83.8697
 21
-178.34
  0
LINE
  8
0
 10
-83.8697
 20
-178.34
 11
-83.3706
 21
-178.352
  0
LINE
  8
0
 10
-83.3706
 20
-178.352
 11
-82.8723
 21
-178.385
  0
LINE
  8
0
 10
-82.8723
 20
-178.385
 11
-82.3759
 21
-178.438
  0
LINE
  8
0
 10
-82.3759
 20
-178.438
 11
-81.8821
 21
-178.512
  0
LINE
  8
0
 10
-81.8821
 20
-178.512
 11
-81.3918
 21
-178.606
  0
LINE
  8
0
 10
-81.3918
 20
-178.606
 11
-80.9059
 21
-178.721
  0
LINE
  8
0
 10
-80.9059
 20
-178.721
 11
-80.4251
 21
-178.856
  0
LINE
  8
0
 10
-80.4251
 20
-178.856
 11
-79.9504
 21
-179.01
  0
LINE
  8
0
 10
-79.9504
 20
-179.01
 11
-79.4825
 21
-179.185
  0
LINE
  8
0
 10
-79.4825
 20
-179.185
 11
-79.0223
 21
-179.378
  0
LINE
  8
0
 10
-79.0223
 20
-179.378
 11
-78.5705
 21
-179.591
  0
LINE
  8
0
 10
-78.5705
 20
-179.591
 11
-78.128
 21
-179.822
  0
LINE
  8
0
 10
-78.128
 20
-179.822
 11
-77.6954
 21
-180.071
  0
LINE
  8
0
 10
-77.6954
 20
-180.071
 11
-77.2736
 21
-180.339
  0
LINE
  8
0
 10
-77.2736
 20
-180.339
 11
-76.8633
 21
-180.623
  0
LINE
  8
0
 10
-76.8633
 20
-180.623
 11
-76.4652
 21
-180.924
  0
LINE
  8
0
 10
-76.4652
 20
-180.924
 11
-76.0799
 21
-181.242
  0
LINE
  8
0
 10
-76.0799
 20
-181.242
 11
-75.7082
 21
-181.575
  0
LINE
  8
0
 10
-75.7082
 20
-181.575
 11
-75.3507
 21
-181.924
  0
LINE
  8
0
 10
-75.3507
 20
-181.924
 11
-75.008
 21
-182.287
  0
LINE
  8
0
 10
-75.008
 20
-182.287
 11
-74.6807
 21
-182.664
  0
LINE
  8
0
 10
-74.6807
 20
-182.664
 11
-74.3694
 21
-183.054
  0
LINE
  8
0
 10
-74.3694
 20
-183.054
 11
-74.0746
 21
-183.457
  0
LINE
  8
0
 10
-74.0746
 20
-183.457
 11
-73.7968
 21
-183.872
  0
LINE
  8
0
 10
-73.7968
 20
-183.872
 11
-73.5364
 21
-184.298
  0
LINE
  8
0
 10
-73.5364
 20
-184.298
 11
-73.2941
 21
-184.735
  0
LINE
  8
0
 10
-73.2941
 20
-184.735
 11
-73.0701
 21
-185.181
  0
LINE
  8
0
 10
-73.0701
 20
-185.181
 11
-72.8648
 21
-185.636
  0
LINE
  8
0
 10
-72.8648
 20
-185.636
 11
-72.6787
 21
-186.099
  0
LINE
  8
0
 10
-72.6787
 20
-186.099
 11
-72.512
 21
-186.57
  0
LINE
  8
0
 10
-72.512
 20
-186.57
 11
-72.3651
 21
-187.047
  0
LINE
  8
0
 10
-72.3651
 20
-187.047
 11
-72.2381
 21
-187.53
  0
LINE
  8
0
 10
-72.2381
 20
-187.53
 11
-72.1313
 21
-188.018
  0
LINE
  8
0
 10
-72.1313
 20
-188.018
 11
-72.0448
 21
-188.51
  0
LINE
  8
0
 10
-72.0448
 20
-188.51
 11
-71.979
 21
-189.005
  0
LINE
  8
0
 10
-71.979
 20
-189.005
 11
-71.9337
 21
-189.502
  0
LINE
  8
0
 10
-71.9337
 20
-189.502
 11
-71.9092
 21
-190
  0
LINE
  8
0
 10
-71.9092
 20
-190
 11
-71.9054
 21
-190.5
  0
LINE
  8
0
 10
-71.9054
 20
-190.5
 11
-71.9225
 21
-190.999
  0
LINE
  8
0
 10
-71.9225
 20
-190.999
 11
-71.9602
 21
-191.497
  0
LINE
  8
0
 10
-71.9602
 20
-191.497
 11
-72.0187
 21
-191.992
  0
LINE
  8
0
 10
-72.0187
 20
-191.992
 11
-72.0977
 21
-192.485
  0
LINE
  8
0
 10
-72.0977
 20
-192.485
 11
-72.1971
 21
-192.975
  0
LINE
  8
0
 10
-72.1971
 20
-192.975
 11
-72.3169
 21
-193.459
  0
LINE
  8
0
 10
-72.3169
 20
-193.459
 11
-72.4566
 21
-193.939
  0
LINE
  8
0
 10
-72.4566
 20
-193.939
 11
-72.6163
 21
-194.412
  0
LINE
  8
0
 10
-72.6163
 20
-194.412
 11
-72.7954
 21
-194.878
  0
LINE
  8
0
 10
-72.7954
 20
-194.878
 11
-72.9938
 21
-195.336
  0
LINE
  8
0
 10
-72.9938
 20
-195.336
 11
-73.211
 21
-195.786
  0
LINE
  8
0
 10
-73.211
 20
-195.786
 11
-73.4468
 21
-196.226
  0
LINE
  8
0
 10
-73.4468
 20
-196.226
 11
-73.7007
 21
-196.656
  0
LINE
  8
0
 10
-73.7007
 20
-196.656
 11
-73.9722
 21
-197.075
  0
LINE
  8
0
 10
-73.9722
 20
-197.075
 11
-74.261
 21
-197.482
  0
LINE
  8
0
 10
-74.261
 20
-197.482
 11
-74.5664
 21
-197.877
  0
LINE
  8
0
 10
-74.5664
 20
-197.877
 11
-74.888
 21
-198.259
  0
LINE
  8
0
 10
-74.888
 20
-198.259
 11
-75.2252
 21
-198.627
  0
LINE
  8
0
 10
-75.2252
 20
-198.627
 11
-75.5775
 21
-198.981
  0
LINE
  8
0
 10
-75.5775
 20
-198.981
 11
-75.9441
 21
-199.32
  0
LINE
  8
0
 10
-75.9441
 20
-199.32
 11
-76.3245
 21
-199.643
  0
LINE
  8
0
 10
-76.3245
 20
-199.643
 11
-76.7181
 21
-199.95
  0
LINE
  8
0
 10
-76.7181
 20
-199.95
 11
-77.1241
 21
-200.241
  0
LINE
  8
0
 10
-77.1241
 20
-200.241
 11
-77.5418
 21
-200.515
  0
LINE
  8
0
 10
-77.5418
 20
-200.515
 11
-77.9706
 21
-200.77
  0
LINE
  8
0
 10
-77.9706
 20
-200.77
 11
-78.4096
 21
-201.008
  0
LINE
  8
0
 10
-78.4096
 20
-201.008
 11
-78.8581
 21
-201.228
  0
LINE
  8
0
 10
-78.8581
 20
-201.228
 11
-79.3154
 21
-201.428
  0
LINE
  8
0
 10
-79.3154
 20
-201.428
 11
-79.7806
 21
-201.609
  0
LINE
  8
0
 10
-79.7806
 20
-201.609
 11
-80.2529
 21
-201.771
  0
LINE
  8
0
 10
-80.2529
 20
-201.771
 11
-80.7316
 21
-201.913
  0
LINE
  8
0
 10
-80.7316
 20
-201.913
 11
-81.2158
 21
-202.035
  0
LINE
  8
0
 10
-81.2158
 20
-202.035
 11
-81.7046
 21
-202.137
  0
LINE
  8
0
 10
-81.7046
 20
-202.137
 11
-82.1972
 21
-202.218
  0
LINE
  8
0
 10
-82.1972
 20
-202.218
 11
-82.6928
 21
-202.279
  0
LINE
  8
0
 10
-82.6928
 20
-202.279
 11
-83.1905
 21
-202.319
  0
LINE
  8
0
 10
-83.1905
 20
-202.319
 11
-83.6894
 21
-202.338
  0
LINE
  8
0
 10
-83.6894
 20
-202.338
 11
-84.1887
 21
-202.337
  0
LINE
  8
0
 10
-105.969
 20
-188.268
 11
-106.449
 21
-188.166
  0
LINE
  8
0
 10
-106.449
 20
-188.166
 11
-106.883
 21
-187.939
  0
LINE
  8
0
 10
-106.883
 20
-187.939
 11
-107.24
 21
-187.603
  0
LINE
  8
0
 10
-107.24
 20
-187.603
 11
-107.494
 21
-187.183
  0
LINE
  8
0
 10
-107.494
 20
-187.183
 11
-107.624
 21
-186.711
  0
LINE
  8
0
 10
-107.624
 20
-186.711
 11
-107.622
 21
-186.221
  0
LINE
  8
0
 10
-107.622
 20
-186.221
 11
-107.488
 21
-185.749
  0
LINE
  8
0
 10
-107.488
 20
-185.749
 11
-107.232
 21
-185.331
  0
LINE
  8
0
 10
-107.232
 20
-185.331
 11
-106.872
 21
-184.998
  0
LINE
  8
0
 10
-106.872
 20
-184.998
 11
-106.436
 21
-184.774
  0
LINE
  8
0
 10
-106.436
 20
-184.774
 11
-105.956
 21
-184.676
  0
LINE
  8
0
 10
-105.956
 20
-184.676
 11
-105.467
 21
-184.711
  0
LINE
  8
0
 10
-105.467
 20
-184.711
 11
-104.771
 21
-184.834
  0
LINE
  8
0
 10
-104.771
 20
-184.834
 11
-104.309
 21
-185
  0
LINE
  8
0
 10
-104.309
 20
-185
 11
-103.91
 21
-185.284
  0
LINE
  8
0
 10
-103.91
 20
-185.284
 11
-103.602
 21
-185.666
  0
LINE
  8
0
 10
-103.602
 20
-185.666
 11
-103.408
 21
-186.116
  0
LINE
  8
0
 10
-103.408
 20
-186.116
 11
-103.344
 21
-186.602
  0
LINE
  8
0
 10
-103.344
 20
-186.602
 11
-103.412
 21
-187.087
  0
LINE
  8
0
 10
-103.412
 20
-187.087
 11
-103.609
 21
-187.536
  0
LINE
  8
0
 10
-103.609
 20
-187.536
 11
-103.92
 21
-187.915
  0
LINE
  8
0
 10
-103.92
 20
-187.915
 11
-104.321
 21
-188.197
  0
LINE
  8
0
 10
-104.321
 20
-188.197
 11
-104.784
 21
-188.359
  0
LINE
  8
0
 10
-104.784
 20
-188.359
 11
-105.273
 21
-188.391
  0
LINE
  8
0
 10
-105.273
 20
-188.391
 11
-105.969
 21
-188.268
  0
LINE
  8
0
 10
-21.2493
 20
-205.247
 11
-21.7473
 21
-205.222
  0
LINE
  8
0
 10
-21.7473
 20
-205.222
 11
-22.2434
 21
-205.172
  0
LINE
  8
0
 10
-22.2434
 20
-205.172
 11
-22.7365
 21
-205.098
  0
LINE
  8
0
 10
-22.7365
 20
-205.098
 11
-23.2252
 21
-204.999
  0
LINE
  8
0
 10
-23.2252
 20
-204.999
 11
-23.7084
 21
-204.876
  0
LINE
  8
0
 10
-23.7084
 20
-204.876
 11
-24.1849
 21
-204.729
  0
LINE
  8
0
 10
-24.1849
 20
-204.729
 11
-24.6534
 21
-204.559
  0
LINE
  8
0
 10
-24.6534
 20
-204.559
 11
-25.1129
 21
-204.365
  0
LINE
  8
0
 10
-25.1129
 20
-204.365
 11
-25.5621
 21
-204.149
  0
LINE
  8
0
 10
-25.5621
 20
-204.149
 11
-26
 21
-203.91
  0
LINE
  8
0
 10
-26
 20
-203.91
 11
-26.4255
 21
-203.65
  0
LINE
  8
0
 10
-26.4255
 20
-203.65
 11
-26.8374
 21
-203.369
  0
LINE
  8
0
 10
-26.8374
 20
-203.369
 11
-27.2349
 21
-203.068
  0
LINE
  8
0
 10
-27.2349
 20
-203.068
 11
-27.6169
 21
-202.748
  0
LINE
  8
0
 10
-27.6169
 20
-202.748
 11
-27.9824
 21
-202.409
  0
LINE
  8
0
 10
-27.9824
 20
-202.409
 11
-28.3305
 21
-202.052
  0
LINE
  8
0
 10
-28.3305
 20
-202.052
 11
-28.6604
 21
-201.678
  0
LINE
  8
0
 10
-28.6604
 20
-201.678
 11
-28.9713
 21
-201.288
  0
LINE
  8
0
 10
-28.9713
 20
-201.288
 11
-29.2624
 21
-200.883
  0
LINE
  8
0
 10
-29.2624
 20
-200.883
 11
-29.5329
 21
-200.464
  0
LINE
  8
0
 10
-29.5329
 20
-200.464
 11
-29.7822
 21
-200.033
  0
LINE
  8
0
 10
-29.7822
 20
-200.033
 11
-30.0097
 21
-199.589
  0
LINE
  8
0
 10
-30.0097
 20
-199.589
 11
-30.2148
 21
-199.134
  0
LINE
  8
0
 10
-30.2148
 20
-199.134
 11
-30.3969
 21
-198.67
  0
LINE
  8
0
 10
-30.3969
 20
-198.67
 11
-30.5557
 21
-198.198
  0
LINE
  8
0
 10
-30.5557
 20
-198.198
 11
-30.6908
 21
-197.718
  0
LINE
  8
0
 10
-30.6908
 20
-197.718
 11
-30.8017
 21
-197.231
  0
LINE
  8
0
 10
-30.8017
 20
-197.231
 11
-30.8883
 21
-196.74
  0
LINE
  8
0
 10
-30.8883
 20
-196.74
 11
-30.9503
 21
-196.246
  0
LINE
  8
0
 10
-30.9503
 20
-196.246
 11
-30.9876
 21
-195.748
  0
LINE
  8
0
 10
-30.9876
 20
-195.748
 11
-31
 21
-195.25
  0
LINE
  8
0
 10
-31
 20
-195.25
 11
-30.9876
 21
-194.752
  0
LINE
  8
0
 10
-30.9876
 20
-194.752
 11
-30.9503
 21
-194.254
  0
LINE
  8
0
 10
-30.9503
 20
-194.254
 11
-30.8883
 21
-193.76
  0
LINE
  8
0
 10
-30.8883
 20
-193.76
 11
-30.8017
 21
-193.269
  0
LINE
  8
0
 10
-30.8017
 20
-193.269
 11
-30.6908
 21
-192.782
  0
LINE
  8
0
 10
-30.6908
 20
-192.782
 11
-30.5557
 21
-192.302
  0
LINE
  8
0
 10
-30.5557
 20
-192.302
 11
-30.3969
 21
-191.83
  0
LINE
  8
0
 10
-30.3969
 20
-191.83
 11
-30.2148
 21
-191.366
  0
LINE
  8
0
 10
-30.2148
 20
-191.366
 11
-30.0097
 21
-190.911
  0
LINE
  8
0
 10
-30.0097
 20
-190.911
 11
-29.7822
 21
-190.467
  0
LINE
  8
0
 10
-29.7822
 20
-190.467
 11
-29.5329
 21
-190.036
  0
LINE
  8
0
 10
-29.5329
 20
-190.036
 11
-29.2624
 21
-189.617
  0
LINE
  8
0
 10
-29.2624
 20
-189.617
 11
-28.9713
 21
-189.212
  0
LINE
  8
0
 10
-28.9713
 20
-189.212
 11
-28.6604
 21
-188.822
  0
LINE
  8
0
 10
-28.6604
 20
-188.822
 11
-28.3305
 21
-188.448
  0
LINE
  8
0
 10
-28.3305
 20
-188.448
 11
-27.9824
 21
-188.091
  0
LINE
  8
0
 10
-27.9824
 20
-188.091
 11
-27.6169
 21
-187.752
  0
LINE
  8
0
 10
-27.6169
 20
-187.752
 11
-27.2349
 21
-187.432
  0
LINE
  8
0
 10
-27.2349
 20
-187.432
 11
-26.8374
 21
-187.131
  0
LINE
  8
0
 10
-26.8374
 20
-187.131
 11
-26.4255
 21
-186.85
  0
LINE
  8
0
 10
-26.4255
 20
-186.85
 11
-26
 21
-186.59
  0
LINE
  8
0
 10
-26
 20
-186.59
 11
-25.5621
 21
-186.351
  0
LINE
  8
0
 10
-25.5621
 20
-186.351
 11
-25.1129
 21
-186.135
  0
LINE
  8
0
 10
-25.1129
 20
-186.135
 11
-24.6534
 21
-185.941
  0
LINE
  8
0
 10
-24.6534
 20
-185.941
 11
-24.1849
 21
-185.771
  0
LINE
  8
0
 10
-24.1849
 20
-185.771
 11
-23.7084
 21
-185.624
  0
LINE
  8
0
 10
-23.7084
 20
-185.624
 11
-23.2252
 21
-185.501
  0
LINE
  8
0
 10
-23.2252
 20
-185.501
 11
-22.7365
 21
-185.402
  0
LINE
  8
0
 10
-22.7365
 20
-185.402
 11
-22.2434
 21
-185.328
  0
LINE
  8
0
 10
-22.2434
 20
-185.328
 11
-21.7473
 21
-185.278
  0
LINE
  8
0
 10
-21.7473
 20
-185.278
 11
-21.2493
 21
-185.253
  0
LINE
  8
0
 10
-21.2493
 20
-185.253
 11
-20.7507
 21
-185.253
  0
LINE
  8
0
 10
-20.7507
 20
-185.253
 11
-20.2527
 21
-185.278
  0
LINE
  8
0
 10
-20.2527
 20
-185.278
 11
-19.7566
 21
-185.328
  0
LINE
  8
0
 10
-19.7566
 20
-185.328
 11
-19.2635
 21
-185.402
  0
LINE
  8
0
 10
-19.2635
 20
-185.402
 11
-18.7748
 21
-185.501
  0
LINE
  8
0
 10
-18.7748
 20
-185.501
 11
-18.2916
 21
-185.624
  0
LINE
  8
0
 10
-18.2916
 20
-185.624
 11
-17.8151
 21
-185.771
  0
LINE
  8
0
 10
-17.8151
 20
-185.771
 11
-17.3466
 21
-185.941
  0
LINE
  8
0
 10
-17.3466
 20
-185.941
 11
-16.8871
 21
-186.135
  0
LINE
  8
0
 10
-16.8871
 20
-186.135
 11
-16.4379
 21
-186.351
  0
LINE
  8
0
 10
-16.4379
 20
-186.351
 11
-16
 21
-186.59
  0
LINE
  8
0
 10
-16
 20
-186.59
 11
-15.5745
 21
-186.85
  0
LINE
  8
0
 10
-15.5745
 20
-186.85
 11
-15.1626
 21
-187.131
  0
LINE
  8
0
 10
-15.1626
 20
-187.131
 11
-14.7651
 21
-187.432
  0
LINE
  8
0
 10
-14.7651
 20
-187.432
 11
-14.3831
 21
-187.752
  0
LINE
  8
0
 10
-14.3831
 20
-187.752
 11
-14.0176
 21
-188.091
  0
LINE
  8
0
 10
-14.0176
 20
-188.091
 11
-13.6695
 21
-188.448
  0
LINE
  8
0
 10
-13.6695
 20
-188.448
 11
-13.3396
 21
-188.822
  0
LINE
  8
0
 10
-13.3396
 20
-188.822
 11
-13.0287
 21
-189.212
  0
LINE
  8
0
 10
-13.0287
 20
-189.212
 11
-12.7376
 21
-189.617
  0
LINE
  8
0
 10
-12.7376
 20
-189.617
 11
-12.4671
 21
-190.036
  0
LINE
  8
0
 10
-12.4671
 20
-190.036
 11
-12.2178
 21
-190.467
  0
LINE
  8
0
 10
-12.2178
 20
-190.467
 11
-11.9903
 21
-190.911
  0
LINE
  8
0
 10
-11.9903
 20
-190.911
 11
-11.7852
 21
-191.366
  0
LINE
  8
0
 10
-11.7852
 20
-191.366
 11
-11.6031
 21
-191.83
  0
LINE
  8
0
 10
-11.6031
 20
-191.83
 11
-11.4443
 21
-192.302
  0
LINE
  8
0
 10
-11.4443
 20
-192.302
 11
-11.3092
 21
-192.782
  0
LINE
  8
0
 10
-11.3092
 20
-192.782
 11
-11.1983
 21
-193.269
  0
LINE
  8
0
 10
-11.1983
 20
-193.269
 11
-11.1117
 21
-193.76
  0
LINE
  8
0
 10
-11.1117
 20
-193.76
 11
-11.0497
 21
-194.254
  0
LINE
  8
0
 10
-11.0497
 20
-194.254
 11
-11.0124
 21
-194.752
  0
LINE
  8
0
 10
-11.0124
 20
-194.752
 11
-11
 21
-195.25
  0
LINE
  8
0
 10
-11
 20
-195.25
 11
-11.0124
 21
-195.748
  0
LINE
  8
0
 10
-11.0124
 20
-195.748
 11
-11.0497
 21
-196.246
  0
LINE
  8
0
 10
-11.0497
 20
-196.246
 11
-11.1117
 21
-196.74
  0
LINE
  8
0
 10
-11.1117
 20
-196.74
 11
-11.1983
 21
-197.231
  0
LINE
  8
0
 10
-11.1983
 20
-197.231
 11
-11.3092
 21
-197.718
  0
LINE
  8
0
 10
-11.3092
 20
-197.718
 11
-11.4443
 21
-198.198
  0
LINE
  8
0
 10
-11.4443
 20
-198.198
 11
-11.6031
 21
-198.67
  0
LINE
  8
0
 10
-11.6031
 20
-198.67
 11
-11.7852
 21
-199.134
  0
LINE
  8
0
 10
-11.7852
 20
-199.134
 11
-11.9903
 21
-199.589
  0
LINE
  8
0
 10
-11.9903
 20
-199.589
 11
-12.2178
 21
-200.033
  0
LINE
  8
0
 10
-12.2178
 20
-200.033
 11
-12.4671
 21
-200.464
  0
LINE
  8
0
 10
-12.4671
 20
-200.464
 11
-12.7376
 21
-200.883
  0
LINE
  8
0
 10
-12.7376
 20
-200.883
 11
-13.0287
 21
-201.288
  0
LINE
  8
0
 10
-13.0287
 20
-201.288
 11
-13.3396
 21
-201.678
  0
LINE
  8
0
 10
-13.3396
 20
-201.678
 11
-13.6695
 21
-202.052
  0
LINE
  8
0
 10
-13.6695
 20
-202.052
 11
-14.0176
 21
-202.409
  0
LINE
  8
0
 10
-14.0176
 20
-202.409
 11
-14.3831
 21
-202.748
  0
LINE
  8
0
 10
-14.3831
 20
-202.748
 11
-14.7651
 21
-203.068
  0
LINE
  8
0
 10
-14.7651
 20
-203.068
 11
-15.1626
 21
-203.369
  0
LINE
  8
0
 10
-15.1626
 20
-203.369
 11
-15.5745
 21
-203.65
  0
LINE
  8
0
 10
-15.5745
 20
-203.65
 11
-16
 21
-203.91
  0
LINE
  8
0
 10
-16
 20
-203.91
 11
-16.4379
 21
-204.149
  0
LINE
  8
0
 10
-16.4379
 20
-204.149
 11
-16.8871
 21
-204.365
  0
LINE
  8
0
 10
-16.8871
 20
-204.365
 11
-17.3466
 21
-204.559
  0
LINE
  8
0
 10
-17.3466
 20
-204.559
 11
-17.8151
 21
-204.729
  0
LINE
  8
0
 10
-17.8151
 20
-204.729
 11
-18.2916
 21
-204.876
  0
LINE
  8
0
 10
-18.2916
 20
-204.876
 11
-18.7748
 21
-204.999
  0
LINE
  8
0
 10
-18.7748
 20
-204.999
 11
-19.2635
 21
-205.098
  0
LINE
  8
0
 10
-19.2635
 20
-205.098
 11
-19.7566
 21
-205.172
  0
LINE
  8
0
 10
-19.7566
 20
-205.172
 11
-20.2527
 21
-205.222
  0
LINE
  8
0
 10
-20.2527
 20
-205.222
 11
-20.7507
 21
-205.247
  0
LINE
  8
0
 10
-20.7507
 20
-205.247
 11
-21.2493
 21
-205.247
  0
LINE
  8
0
 10
-53.6197
 20
-189.968
 11
-54.0912
 21
-189.834
  0
LINE
  8
0
 10
-54.0912
 20
-189.834
 11
-54.5091
 21
-189.577
  0
LINE
  8
0
 10
-54.5091
 20
-189.577
 11
-54.8423
 21
-189.218
  0
LINE
  8
0
 10
-54.8423
 20
-189.218
 11
-55.0662
 21
-188.782
  0
LINE
  8
0
 10
-55.0662
 20
-188.782
 11
-55.1641
 21
-188.301
  0
LINE
  8
0
 10
-55.1641
 20
-188.301
 11
-55.1288
 21
-187.813
  0
LINE
  8
0
 10
-55.1288
 20
-187.813
 11
-55.006
 21
-187.116
  0
LINE
  8
0
 10
-55.006
 20
-187.116
 11
-54.8401
 21
-186.655
  0
LINE
  8
0
 10
-54.8401
 20
-186.655
 11
-54.5559
 21
-186.256
  0
LINE
  8
0
 10
-54.5559
 20
-186.256
 11
-54.1744
 21
-185.948
  0
LINE
  8
0
 10
-54.1744
 20
-185.948
 11
-53.7241
 21
-185.754
  0
LINE
  8
0
 10
-53.7241
 20
-185.754
 11
-53.2382
 21
-185.689
  0
LINE
  8
0
 10
-53.2382
 20
-185.689
 11
-52.7528
 21
-185.758
  0
LINE
  8
0
 10
-52.7528
 20
-185.758
 11
-52.3039
 21
-185.955
  0
LINE
  8
0
 10
-52.3039
 20
-185.955
 11
-51.9249
 21
-186.266
  0
LINE
  8
0
 10
-51.9249
 20
-186.266
 11
-51.6437
 21
-186.667
  0
LINE
  8
0
 10
-51.6437
 20
-186.667
 11
-51.4813
 21
-187.13
  0
LINE
  8
0
 10
-51.4813
 20
-187.13
 11
-51.4497
 21
-187.619
  0
LINE
  8
0
 10
-51.4497
 20
-187.619
 11
-51.5725
 21
-188.315
  0
LINE
  8
0
 10
-51.5725
 20
-188.315
 11
-51.674
 21
-188.795
  0
LINE
  8
0
 10
-51.674
 20
-188.795
 11
-51.9012
 21
-189.229
  0
LINE
  8
0
 10
-51.9012
 20
-189.229
 11
-52.2372
 21
-189.586
  0
LINE
  8
0
 10
-52.2372
 20
-189.586
 11
-52.657
 21
-189.839
  0
LINE
  8
0
 10
-52.657
 20
-189.839
 11
-53.1295
 21
-189.97
  0
LINE
  8
0
 10
-53.1295
 20
-189.97
 11
-53.6197
 21
-189.968
  0
LINE
  8
0
 10
-62.3418
 20
-195.969
 11
-63.0382
 21
-195.846
  0
LINE
  8
0
 10
-63.0382
 20
-195.846
 11
-63.4995
 21
-195.68
  0
LINE
  8
0
 10
-63.4995
 20
-195.68
 11
-63.8988
 21
-195.396
  0
LINE
  8
0
 10
-63.8988
 20
-195.396
 11
-64.2068
 21
-195.015
  0
LINE
  8
0
 10
-64.2068
 20
-195.015
 11
-64.4004
 21
-194.564
  0
LINE
  8
0
 10
-64.4004
 20
-194.564
 11
-64.4653
 21
-194.078
  0
LINE
  8
0
 10
-64.4653
 20
-194.078
 11
-64.3967
 21
-193.593
  0
LINE
  8
0
 10
-64.3967
 20
-193.593
 11
-64.1997
 21
-193.144
  0
LINE
  8
0
 10
-64.1997
 20
-193.144
 11
-63.8889
 21
-192.765
  0
LINE
  8
0
 10
-63.8889
 20
-192.765
 11
-63.4873
 21
-192.484
  0
LINE
  8
0
 10
-63.4873
 20
-192.484
 11
-63.0248
 21
-192.322
  0
LINE
  8
0
 10
-63.0248
 20
-192.322
 11
-62.5356
 21
-192.29
  0
LINE
  8
0
 10
-62.5356
 20
-192.29
 11
-61.8393
 21
-192.413
  0
LINE
  8
0
 10
-61.8393
 20
-192.413
 11
-61.3597
 21
-192.514
  0
LINE
  8
0
 10
-61.3597
 20
-192.514
 11
-60.9253
 21
-192.741
  0
LINE
  8
0
 10
-60.9253
 20
-192.741
 11
-60.5683
 21
-193.077
  0
LINE
  8
0
 10
-60.5683
 20
-193.077
 11
-60.3152
 21
-193.497
  0
LINE
  8
0
 10
-60.3152
 20
-193.497
 11
-60.1848
 21
-193.97
  0
LINE
  8
0
 10
-60.1848
 20
-193.97
 11
-60.1866
 21
-194.46
  0
LINE
  8
0
 10
-60.1866
 20
-194.46
 11
-60.3207
 21
-194.931
  0
LINE
  8
0
 10
-60.3207
 20
-194.931
 11
-60.577
 21
-195.349
  0
LINE
  8
0
 10
-60.577
 20
-195.349
 11
-60.9365
 21
-195.682
  0
LINE
  8
0
 10
-60.9365
 20
-195.682
 11
-61.3726
 21
-195.906
  0
LINE
  8
0
 10
-61.3726
 20
-195.906
 11
-61.8529
 21
-196.004
  0
LINE
  8
0
 10
-61.8529
 20
-196.004
 11
-62.3418
 21
-195.969
  0
LINE
  8
0
 10
-8.28954
 20
-197.395
 11
-8.75453
 21
-197.232
  0
LINE
  8
0
 10
-8.75453
 20
-197.232
 11
-9.17168
 21
-196.97
  0
LINE
  8
0
 10
-9.17168
 20
-196.97
 11
-9.52002
 21
-196.622
  0
LINE
  8
0
 10
-9.52002
 20
-196.622
 11
-9.78212
 21
-196.205
  0
LINE
  8
0
 10
-9.78212
 20
-196.205
 11
-9.94484
 21
-195.74
  0
LINE
  8
0
 10
-9.94484
 20
-195.74
 11
-10
 21
-195.25
  0
LINE
  8
0
 10
-10
 20
-195.25
 11
-9.94484
 21
-194.76
  0
LINE
  8
0
 10
-9.94484
 20
-194.76
 11
-9.78212
 21
-194.295
  0
LINE
  8
0
 10
-9.78212
 20
-194.295
 11
-9.52002
 21
-193.878
  0
LINE
  8
0
 10
-9.52002
 20
-193.878
 11
-9.17168
 21
-193.53
  0
LINE
  8
0
 10
-9.17168
 20
-193.53
 11
-8.75453
 21
-193.268
  0
LINE
  8
0
 10
-8.75453
 20
-193.268
 11
-8.28954
 21
-193.105
  0
LINE
  8
0
 10
-8.28954
 20
-193.105
 11
-7.79999
 21
-193.05
  0
LINE
  8
0
 10
-7.79999
 20
-193.05
 11
-7.31044
 21
-193.105
  0
LINE
  8
0
 10
-7.31044
 20
-193.105
 11
-6.84544
 21
-193.268
  0
LINE
  8
0
 10
-6.84544
 20
-193.268
 11
-6.42831
 21
-193.53
  0
LINE
  8
0
 10
-6.42831
 20
-193.53
 11
-6.07997
 21
-193.878
  0
LINE
  8
0
 10
-6.07997
 20
-193.878
 11
-5.81786
 21
-194.295
  0
LINE
  8
0
 10
-5.81786
 20
-194.295
 11
-5.65515
 21
-194.76
  0
LINE
  8
0
 10
-5.65515
 20
-194.76
 11
-5.59999
 21
-195.25
  0
LINE
  8
0
 10
-5.59999
 20
-195.25
 11
-5.65515
 21
-195.74
  0
LINE
  8
0
 10
-5.65515
 20
-195.74
 11
-5.81786
 21
-196.205
  0
LINE
  8
0
 10
-5.81786
 20
-196.205
 11
-6.07997
 21
-196.622
  0
LINE
  8
0
 10
-6.07997
 20
-196.622
 11
-6.42831
 21
-196.97
  0
LINE
  8
0
 10
-6.42831
 20
-196.97
 11
-6.84544
 21
-197.232
  0
LINE
  8
0
 10
-6.84544
 20
-197.232
 11
-7.31044
 21
-197.395
  0
LINE
  8
0
 10
-7.31044
 20
-197.395
 11
-7.79999
 21
-197.45
  0
LINE
  8
0
 10
-7.79999
 20
-197.45
 11
-8.28954
 21
-197.395
  0
LINE
  8
0
 10
-34.6895
 20
-197.395
 11
-35.1545
 21
-197.232
  0
LINE
  8
0
 10
-35.1545
 20
-197.232
 11
-35.5717
 21
-196.97
  0
LINE
  8
0
 10
-35.5717
 20
-196.97
 11
-35.92
 21
-196.622
  0
LINE
  8
0
 10
-35.92
 20
-196.622
 11
-36.1821
 21
-196.205
  0
LINE
  8
0
 10
-36.1821
 20
-196.205
 11
-36.3448
 21
-195.74
  0
LINE
  8
0
 10
-36.3448
 20
-195.74
 11
-36.4
 21
-195.25
  0
LINE
  8
0
 10
-36.4
 20
-195.25
 11
-36.3448
 21
-194.76
  0
LINE
  8
0
 10
-36.3448
 20
-194.76
 11
-36.1821
 21
-194.295
  0
LINE
  8
0
 10
-36.1821
 20
-194.295
 11
-35.92
 21
-193.878
  0
LINE
  8
0
 10
-35.92
 20
-193.878
 11
-35.5717
 21
-193.53
  0
LINE
  8
0
 10
-35.5717
 20
-193.53
 11
-35.1545
 21
-193.268
  0
LINE
  8
0
 10
-35.1545
 20
-193.268
 11
-34.6895
 21
-193.105
  0
LINE
  8
0
 10
-34.6895
 20
-193.105
 11
-34.2
 21
-193.05
  0
LINE
  8
0
 10
-34.2
 20
-193.05
 11
-33.7104
 21
-193.105
  0
LINE
  8
0
 10
-33.7104
 20
-193.105
 11
-33.2455
 21
-193.268
  0
LINE
  8
0
 10
-33.2455
 20
-193.268
 11
-32.8283
 21
-193.53
  0
LINE
  8
0
 10
-32.8283
 20
-193.53
 11
-32.48
 21
-193.878
  0
LINE
  8
0
 10
-32.48
 20
-193.878
 11
-32.2179
 21
-194.295
  0
LINE
  8
0
 10
-32.2179
 20
-194.295
 11
-32.0551
 21
-194.76
  0
LINE
  8
0
 10
-32.0551
 20
-194.76
 11
-32
 21
-195.25
  0
LINE
  8
0
 10
-32
 20
-195.25
 11
-32.0551
 21
-195.74
  0
LINE
  8
0
 10
-32.0551
 20
-195.74
 11
-32.2179
 21
-196.205
  0
LINE
  8
0
 10
-32.2179
 20
-196.205
 11
-32.48
 21
-196.622
  0
LINE
  8
0
 10
-32.48
 20
-196.622
 11
-32.8283
 21
-196.97
  0
LINE
  8
0
 10
-32.8283
 20
-196.97
 11
-33.2455
 21
-197.232
  0
LINE
  8
0
 10
-33.2455
 20
-197.232
 11
-33.7104
 21
-197.395
  0
LINE
  8
0
 10
-33.7104
 20
-197.395
 11
-34.2
 21
-197.45
  0
LINE
  8
0
 10
-34.2
 20
-197.45
 11
-34.6895
 21
-197.395
  0
LINE
  8
0
 10
-88.0241
 20
-214.058
 11
-88.4956
 21
-213.924
  0
LINE
  8
0
 10
-88.4956
 20
-213.924
 11
-88.9135
 21
-213.668
  0
LINE
  8
0
 10
-88.9135
 20
-213.668
 11
-89.2467
 21
-213.308
  0
LINE
  8
0
 10
-89.2467
 20
-213.308
 11
-89.4705
 21
-212.872
  0
LINE
  8
0
 10
-89.4705
 20
-212.872
 11
-89.5685
 21
-212.392
  0
LINE
  8
0
 10
-89.5685
 20
-212.392
 11
-89.5331
 21
-211.903
  0
LINE
  8
0
 10
-89.5331
 20
-211.903
 11
-89.4104
 21
-211.206
  0
LINE
  8
0
 10
-89.4104
 20
-211.206
 11
-89.2444
 21
-210.745
  0
LINE
  8
0
 10
-89.2444
 20
-210.745
 11
-88.9603
 21
-210.346
  0
LINE
  8
0
 10
-88.9603
 20
-210.346
 11
-88.5788
 21
-210.038
  0
LINE
  8
0
 10
-88.5788
 20
-210.038
 11
-88.1285
 21
-209.844
  0
LINE
  8
0
 10
-88.1285
 20
-209.844
 11
-87.6426
 21
-209.779
  0
LINE
  8
0
 10
-87.6426
 20
-209.779
 11
-87.1572
 21
-209.848
  0
LINE
  8
0
 10
-87.1572
 20
-209.848
 11
-86.7083
 21
-210.045
  0
LINE
  8
0
 10
-86.7083
 20
-210.045
 11
-86.3293
 21
-210.356
  0
LINE
  8
0
 10
-86.3293
 20
-210.356
 11
-86.0481
 21
-210.757
  0
LINE
  8
0
 10
-86.0481
 20
-210.757
 11
-85.8857
 21
-211.22
  0
LINE
  8
0
 10
-85.8857
 20
-211.22
 11
-85.8541
 21
-211.709
  0
LINE
  8
0
 10
-85.8541
 20
-211.709
 11
-85.9769
 21
-212.405
  0
LINE
  8
0
 10
-85.9769
 20
-212.405
 11
-86.0784
 21
-212.885
  0
LINE
  8
0
 10
-86.0784
 20
-212.885
 11
-86.3056
 21
-213.319
  0
LINE
  8
0
 10
-86.3056
 20
-213.319
 11
-86.6415
 21
-213.676
  0
LINE
  8
0
 10
-86.6415
 20
-213.676
 11
-87.0613
 21
-213.929
  0
LINE
  8
0
 10
-87.0613
 20
-213.929
 11
-87.5339
 21
-214.06
  0
LINE
  8
0
 10
-87.5339
 20
-214.06
 11
-88.0241
 21
-214.058
  0
LINE
  8
0
 10
4.89061
 20
-219.299
 11
4.41031
 21
-219.19
  0
LINE
  8
0
 10
4.41031
 20
-219.19
 11
3.96646
 21
-218.976
  0
LINE
  8
0
 10
3.96646
 20
-218.976
 11
3.58128
 21
-218.669
  0
LINE
  8
0
 10
3.58128
 20
-218.669
 11
3.27412
 21
-218.284
  0
LINE
  8
0
 10
3.27412
 20
-218.284
 11
3.06038
 21
-217.84
  0
LINE
  8
0
 10
3.06038
 20
-217.84
 11
2.95076
 21
-217.359
  0
LINE
  8
0
 10
2.95076
 20
-217.359
 11
2.95076
 21
-216.867
  0
LINE
  8
0
 10
2.95076
 20
-216.867
 11
3.06038
 21
-216.386
  0
LINE
  8
0
 10
3.06038
 20
-216.386
 11
3.27412
 21
-215.943
  0
LINE
  8
0
 10
3.27412
 20
-215.943
 11
3.58128
 21
-215.557
  0
LINE
  8
0
 10
3.58128
 20
-215.557
 11
3.96646
 21
-215.25
  0
LINE
  8
0
 10
3.96646
 20
-215.25
 11
4.41031
 21
-215.037
  0
LINE
  8
0
 10
4.41031
 20
-215.037
 11
4.89061
 21
-214.927
  0
LINE
  8
0
 10
4.89061
 20
-214.927
 11
5.38324
 21
-214.927
  0
LINE
  8
0
 10
5.38324
 20
-214.927
 11
5.86354
 21
-215.037
  0
LINE
  8
0
 10
5.86354
 20
-215.037
 11
6.30739
 21
-215.25
  0
LINE
  8
0
 10
6.30739
 20
-215.25
 11
6.69257
 21
-215.557
  0
LINE
  8
0
 10
6.69257
 20
-215.557
 11
6.99971
 21
-215.943
  0
LINE
  8
0
 10
6.99971
 20
-215.943
 11
7.21347
 21
-216.386
  0
LINE
  8
0
 10
7.21347
 20
-216.386
 11
7.32309
 21
-216.867
  0
LINE
  8
0
 10
7.32309
 20
-216.867
 11
7.32309
 21
-217.359
  0
LINE
  8
0
 10
7.32309
 20
-217.359
 11
7.21347
 21
-217.84
  0
LINE
  8
0
 10
7.21347
 20
-217.84
 11
6.99971
 21
-218.284
  0
LINE
  8
0
 10
6.99971
 20
-218.284
 11
6.69257
 21
-218.669
  0
LINE
  8
0
 10
6.69257
 20
-218.669
 11
6.30739
 21
-218.976
  0
LINE
  8
0
 10
6.30739
 20
-218.976
 11
5.86354
 21
-219.19
  0
LINE
  8
0
 10
5.86354
 20
-219.19
 11
5.38324
 21
-219.299
  0
LINE
  8
0
 10
5.38324
 20
-219.299
 11
4.89061
 21
-219.299
  0
LINE
  8
0
 10
-17.3832
 20
-219.299
 11
-17.8635
 21
-219.19
  0
LINE
  8
0
 10
-17.8635
 20
-219.19
 11
-18.3074
 21
-218.976
  0
LINE
  8
0
 10
-18.3074
 20
-218.976
 11
-18.6926
 21
-218.669
  0
LINE
  8
0
 10
-18.6926
 20
-218.669
 11
-18.9997
 21
-218.284
  0
LINE
  8
0
 10
-18.9997
 20
-218.284
 11
-19.2135
 21
-217.84
  0
LINE
  8
0
 10
-19.2135
 20
-217.84
 11
-19.3231
 21
-217.359
  0
LINE
  8
0
 10
-19.3231
 20
-217.359
 11
-19.3231
 21
-216.867
  0
LINE
  8
0
 10
-19.3231
 20
-216.867
 11
-19.2135
 21
-216.386
  0
LINE
  8
0
 10
-19.2135
 20
-216.386
 11
-18.9997
 21
-215.943
  0
LINE
  8
0
 10
-18.9997
 20
-215.943
 11
-18.6926
 21
-215.557
  0
LINE
  8
0
 10
-18.6926
 20
-215.557
 11
-18.3074
 21
-215.25
  0
LINE
  8
0
 10
-18.3074
 20
-215.25
 11
-17.8635
 21
-215.037
  0
LINE
  8
0
 10
-17.8635
 20
-215.037
 11
-17.3832
 21
-214.927
  0
LINE
  8
0
 10
-17.3832
 20
-214.927
 11
-16.8906
 21
-214.927
  0
LINE
  8
0
 10
-16.8906
 20
-214.927
 11
-16.4103
 21
-215.037
  0
LINE
  8
0
 10
-16.4103
 20
-215.037
 11
-15.9665
 21
-215.25
  0
LINE
  8
0
 10
-15.9665
 20
-215.25
 11
-15.5813
 21
-215.557
  0
LINE
  8
0
 10
-15.5813
 20
-215.557
 11
-15.2741
 21
-215.943
  0
LINE
  8
0
 10
-15.2741
 20
-215.943
 11
-15.0604
 21
-216.386
  0
LINE
  8
0
 10
-15.0604
 20
-216.386
 11
-14.9508
 21
-216.867
  0
LINE
  8
0
 10
-14.9508
 20
-216.867
 11
-14.9508
 21
-217.359
  0
LINE
  8
0
 10
-14.9508
 20
-217.359
 11
-15.0604
 21
-217.84
  0
LINE
  8
0
 10
-15.0604
 20
-217.84
 11
-15.2741
 21
-218.284
  0
LINE
  8
0
 10
-15.2741
 20
-218.284
 11
-15.5813
 21
-218.669
  0
LINE
  8
0
 10
-15.5813
 20
-218.669
 11
-15.9665
 21
-218.976
  0
LINE
  8
0
 10
-15.9665
 20
-218.976
 11
-16.4103
 21
-219.19
  0
LINE
  8
0
 10
-16.4103
 20
-219.19
 11
-16.8906
 21
-219.299
  0
LINE
  8
0
 10
-16.8906
 20
-219.299
 11
-17.3832
 21
-219.299
  0
LINE
  8
0
 10
-6.4996
 20
-238.738
 11
-6.99808
 21
-238.702
  0
LINE
  8
0
 10
-6.99808
 20
-238.702
 11
-7.49429
 21
-238.643
  0
LINE
  8
0
 10
-7.49429
 20
-238.643
 11
-7.98714
 21
-238.56
  0
LINE
  8
0
 10
-7.98714
 20
-238.56
 11
-8.47546
 21
-238.454
  0
LINE
  8
0
 10
-8.47546
 20
-238.454
 11
-8.95819
 21
-238.325
  0
LINE
  8
0
 10
-8.95819
 20
-238.325
 11
-9.4342
 21
-238.173
  0
LINE
  8
0
 10
-9.4342
 20
-238.173
 11
-9.90245
 21
-237.998
  0
LINE
  8
0
 10
-9.90245
 20
-237.998
 11
-10.3618
 21
-237.801
  0
LINE
  8
0
 10
-10.3618
 20
-237.801
 11
-10.8114
 21
-237.583
  0
LINE
  8
0
 10
-10.8114
 20
-237.583
 11
-11.25
 21
-237.343
  0
LINE
  8
0
 10
-11.25
 20
-237.343
 11
-11.6767
 21
-237.083
  0
LINE
  8
0
 10
-11.6767
 20
-237.083
 11
-12.0906
 21
-236.803
  0
LINE
  8
0
 10
-12.0906
 20
-236.803
 11
-12.4907
 21
-236.504
  0
LINE
  8
0
 10
-12.4907
 20
-236.504
 11
-12.876
 21
-236.185
  0
LINE
  8
0
 10
-12.876
 20
-236.185
 11
-13.2458
 21
-235.849
  0
LINE
  8
0
 10
-13.2458
 20
-235.849
 11
-13.5992
 21
-235.496
  0
LINE
  8
0
 10
-13.5992
 20
-235.496
 11
-13.9354
 21
-235.126
  0
LINE
  8
0
 10
-13.9354
 20
-235.126
 11
-14.2536
 21
-234.741
  0
LINE
  8
0
 10
-14.2536
 20
-234.741
 11
-14.553
 21
-234.341
  0
LINE
  8
0
 10
-14.553
 20
-234.341
 11
-14.8332
 21
-233.927
  0
LINE
  8
0
 10
-14.8332
 20
-233.927
 11
-15.0933
 21
-233.5
  0
LINE
  8
0
 10
-15.0933
 20
-233.5
 11
-15.3328
 21
-233.061
  0
LINE
  8
0
 10
-15.3328
 20
-233.061
 11
-15.5511
 21
-232.612
  0
LINE
  8
0
 10
-15.5511
 20
-232.612
 11
-15.7478
 21
-232.152
  0
LINE
  8
0
 10
-15.7478
 20
-232.152
 11
-15.9225
 21
-231.684
  0
LINE
  8
0
 10
-15.9225
 20
-231.684
 11
-16.0747
 21
-231.208
  0
LINE
  8
0
 10
-16.0747
 20
-231.208
 11
-16.204
 21
-230.725
  0
LINE
  8
0
 10
-16.204
 20
-230.725
 11
-16.3102
 21
-230.237
  0
LINE
  8
0
 10
-16.3102
 20
-230.237
 11
-16.3931
 21
-229.744
  0
LINE
  8
0
 10
-16.3931
 20
-229.744
 11
-16.4525
 21
-229.248
  0
LINE
  8
0
 10
-16.4525
 20
-229.248
 11
-16.4881
 21
-228.75
  0
LINE
  8
0
 10
-16.4881
 20
-228.75
 11
-16.5
 21
-228.25
  0
LINE
  8
0
 10
-16.5
 20
-228.25
 11
-16.4881
 21
-227.75
  0
LINE
  8
0
 10
-16.4881
 20
-227.75
 11
-16.4525
 21
-227.252
  0
LINE
  8
0
 10
-16.4525
 20
-227.252
 11
-16.3931
 21
-226.756
  0
LINE
  8
0
 10
-16.3931
 20
-226.756
 11
-16.3102
 21
-226.263
  0
LINE
  8
0
 10
-16.3102
 20
-226.263
 11
-16.204
 21
-225.775
  0
LINE
  8
0
 10
-16.204
 20
-225.775
 11
-16.0747
 21
-225.292
  0
LINE
  8
0
 10
-16.0747
 20
-225.292
 11
-15.9225
 21
-224.816
  0
LINE
  8
0
 10
-15.9225
 20
-224.816
 11
-15.7478
 21
-224.348
  0
LINE
  8
0
 10
-15.7478
 20
-224.348
 11
-15.5511
 21
-223.888
  0
LINE
  8
0
 10
-15.5511
 20
-223.888
 11
-15.3328
 21
-223.439
  0
LINE
  8
0
 10
-15.3328
 20
-223.439
 11
-15.0933
 21
-223
  0
LINE
  8
0
 10
-15.0933
 20
-223
 11
-14.8332
 21
-222.573
  0
LINE
  8
0
 10
-14.8332
 20
-222.573
 11
-14.553
 21
-222.159
  0
LINE
  8
0
 10
-14.553
 20
-222.159
 11
-14.2536
 21
-221.759
  0
LINE
  8
0
 10
-14.2536
 20
-221.759
 11
-13.9354
 21
-221.374
  0
LINE
  8
0
 10
-13.9354
 20
-221.374
 11
-13.5992
 21
-221.004
  0
LINE
  8
0
 10
-13.5992
 20
-221.004
 11
-13.2458
 21
-220.651
  0
LINE
  8
0
 10
-13.2458
 20
-220.651
 11
-12.876
 21
-220.315
  0
LINE
  8
0
 10
-12.876
 20
-220.315
 11
-12.4907
 21
-219.996
  0
LINE
  8
0
 10
-12.4907
 20
-219.996
 11
-12.0906
 21
-219.697
  0
LINE
  8
0
 10
-12.0906
 20
-219.697
 11
-11.6767
 21
-219.417
  0
LINE
  8
0
 10
-11.6767
 20
-219.417
 11
-11.25
 21
-219.157
  0
LINE
  8
0
 10
-11.25
 20
-219.157
 11
-10.8114
 21
-218.917
  0
LINE
  8
0
 10
-10.8114
 20
-218.917
 11
-10.3618
 21
-218.699
  0
LINE
  8
0
 10
-10.3618
 20
-218.699
 11
-9.90245
 21
-218.502
  0
LINE
  8
0
 10
-9.90245
 20
-218.502
 11
-9.4342
 21
-218.327
  0
LINE
  8
0
 10
-9.4342
 20
-218.327
 11
-8.95819
 21
-218.175
  0
LINE
  8
0
 10
-8.95819
 20
-218.175
 11
-8.47546
 21
-218.046
  0
LINE
  8
0
 10
-8.47546
 20
-218.046
 11
-7.98714
 21
-217.94
  0
LINE
  8
0
 10
-7.98714
 20
-217.94
 11
-7.49429
 21
-217.857
  0
LINE
  8
0
 10
-7.49429
 20
-217.857
 11
-6.99808
 21
-217.798
  0
LINE
  8
0
 10
-6.99808
 20
-217.798
 11
-6.4996
 21
-217.762
  0
LINE
  8
0
 10
-6.4996
 20
-217.762
 11
-6
 21
-217.75
  0
LINE
  8
0
 10
-6
 20
-217.75
 11
-5.50038
 21
-217.762
  0
LINE
  8
0
 10
-5.50038
 20
-217.762
 11
-5.00191
 21
-217.798
  0
LINE
  8
0
 10
-5.00191
 20
-217.798
 11
-4.50569
 21
-217.857
  0
LINE
  8
0
 10
-4.50569
 20
-217.857
 11
-4.01285
 21
-217.94
  0
LINE
  8
0
 10
-4.01285
 20
-217.94
 11
-3.52452
 21
-218.046
  0
LINE
  8
0
 10
-3.52452
 20
-218.046
 11
-3.04181
 21
-218.175
  0
LINE
  8
0
 10
-3.04181
 20
-218.175
 11
-2.56578
 21
-218.327
  0
LINE
  8
0
 10
-2.56578
 20
-218.327
 11
-2.09753
 21
-218.502
  0
LINE
  8
0
 10
-2.09753
 20
-218.502
 11
-1.63814
 21
-218.699
  0
LINE
  8
0
 10
-1.63814
 20
-218.699
 11
-1.18861
 21
-218.917
  0
LINE
  8
0
 10
-1.18861
 20
-218.917
 11
-0.75
 21
-219.157
  0
LINE
  8
0
 10
-0.75
 20
-219.157
 11
-0.323257
 21
-219.417
  0
LINE
  8
0
 10
-0.323257
 20
-219.417
 11
0.0905914
 21
-219.697
  0
LINE
  8
0
 10
0.0905914
 20
-219.697
 11
0.490662
 21
-219.996
  0
LINE
  8
0
 10
0.490662
 20
-219.996
 11
0.876038
 21
-220.315
  0
LINE
  8
0
 10
0.876038
 20
-220.315
 11
1.24582
 21
-220.651
  0
LINE
  8
0
 10
1.24582
 20
-220.651
 11
1.5992
 21
-221.004
  0
LINE
  8
0
 10
1.5992
 20
-221.004
 11
1.93536
 21
-221.374
  0
LINE
  8
0
 10
1.93536
 20
-221.374
 11
2.25356
 21
-221.759
  0
LINE
  8
0
 10
2.25356
 20
-221.759
 11
2.55304
 21
-222.159
  0
LINE
  8
0
 10
2.55304
 20
-222.159
 11
2.83316
 21
-222.573
  0
LINE
  8
0
 10
2.83316
 20
-222.573
 11
3.09326
 21
-223
  0
LINE
  8
0
 10
3.09326
 20
-223
 11
3.33276
 21
-223.439
  0
LINE
  8
0
 10
3.33276
 20
-223.439
 11
3.55113
 21
-223.888
  0
LINE
  8
0
 10
3.55113
 20
-223.888
 11
3.74785
 21
-224.348
  0
LINE
  8
0
 10
3.74785
 20
-224.348
 11
3.9225
 21
-224.816
  0
LINE
  8
0
 10
3.9225
 20
-224.816
 11
4.07466
 21
-225.292
  0
LINE
  8
0
 10
4.07466
 20
-225.292
 11
4.20401
 21
-225.775
  0
LINE
  8
0
 10
4.20401
 20
-225.775
 11
4.31024
 21
-226.263
  0
LINE
  8
0
 10
4.31024
 20
-226.263
 11
4.39311
 21
-226.756
  0
LINE
  8
0
 10
4.39311
 20
-226.756
 11
4.45245
 21
-227.252
  0
LINE
  8
0
 10
4.45245
 20
-227.252
 11
4.4881
 21
-227.75
  0
LINE
  8
0
 10
4.4881
 20
-227.75
 11
4.5
 21
-228.25
  0
LINE
  8
0
 10
4.5
 20
-228.25
 11
4.4881
 21
-228.75
  0
LINE
  8
0
 10
4.4881
 20
-228.75
 11
4.45245
 21
-229.248
  0
LINE
  8
0
 10
4.45245
 20
-229.248
 11
4.39311
 21
-229.744
  0
LINE
  8
0
 10
4.39311
 20
-229.744
 11
4.31024
 21
-230.237
  0
LINE
  8
0
 10
4.31024
 20
-230.237
 11
4.20401
 21
-230.725
  0
LINE
  8
0
 10
4.20401
 20
-230.725
 11
4.07466
 21
-231.208
  0
LINE
  8
0
 10
4.07466
 20
-231.208
 11
3.9225
 21
-231.684
  0
LINE
  8
0
 10
3.9225
 20
-231.684
 11
3.74785
 21
-232.152
  0
LINE
  8
0
 10
3.74785
 20
-232.152
 11
3.55113
 21
-232.612
  0
LINE
  8
0
 10
3.55113
 20
-232.612
 11
3.33276
 21
-233.061
  0
LINE
  8
0
 10
3.33276
 20
-233.061
 11
3.09326
 21
-233.5
  0
LINE
  8
0
 10
3.09326
 20
-233.5
 11
2.83316
 21
-233.927
  0
LINE
  8
0
 10
2.83316
 20
-233.927
 11
2.55304
 21
-234.341
  0
LINE
  8
0
 10
2.55304
 20
-234.341
 11
2.25356
 21
-234.741
  0
LINE
  8
0
 10
2.25356
 20
-234.741
 11
1.93536
 21
-235.126
  0
LINE
  8
0
 10
1.93536
 20
-235.126
 11
1.5992
 21
-235.496
  0
LINE
  8
0
 10
1.5992
 20
-235.496
 11
1.24582
 21
-235.849
  0
LINE
  8
0
 10
1.24582
 20
-235.849
 11
0.876038
 21
-236.185
  0
LINE
  8
0
 10
0.876038
 20
-236.185
 11
0.490662
 21
-236.504
  0
LINE
  8
0
 10
0.490662
 20
-236.504
 11
0.0905914
 21
-236.803
  0
LINE
  8
0
 10
0.0905914
 20
-236.803
 11
-0.323257
 21
-237.083
  0
LINE
  8
0
 10
-0.323257
 20
-237.083
 11
-0.75
 21
-237.343
  0
LINE
  8
0
 10
-0.75
 20
-237.343
 11
-1.18861
 21
-237.583
  0
LINE
  8
0
 10
-1.18861
 20
-237.583
 11
-1.63814
 21
-237.801
  0
LINE
  8
0
 10
-1.63814
 20
-237.801
 11
-2.09753
 21
-237.998
  0
LINE
  8
0
 10
-2.09753
 20
-237.998
 11
-2.56578
 21
-238.173
  0
LINE
  8
0
 10
-2.56578
 20
-238.173
 11
-3.04181
 21
-238.325
  0
LINE
  8
0
 10
-3.04181
 20
-238.325
 11
-3.52452
 21
-238.454
  0
LINE
  8
0
 10
-3.52452
 20
-238.454
 11
-4.01285
 21
-238.56
  0
LINE
  8
0
 10
-4.01285
 20
-238.56
 11
-4.50569
 21
-238.643
  0
LINE
  8
0
 10
-4.50569
 20
-238.643
 11
-5.00191
 21
-238.702
  0
LINE
  8
0
 10
-5.00191
 20
-238.702
 11
-5.50038
 21
-238.738
  0
LINE
  8
0
 10
-5.50038
 20
-238.738
 11
-6
 21
-238.75
  0
LINE
  8
0
 10
-6
 20
-238.75
 11
-6.4996
 21
-238.738
  0
LINE
  8
0
 10
-17.3832
 20
-241.573
 11
-17.8635
 21
-241.463
  0
LINE
  8
0
 10
-17.8635
 20
-241.463
 11
-18.3074
 21
-241.25
  0
LINE
  8
0
 10
-18.3074
 20
-241.25
 11
-18.6926
 21
-240.943
  0
LINE
  8
0
 10
-18.6926
 20
-240.943
 11
-18.9997
 21
-240.557
  0
LINE
  8
0
 10
-18.9997
 20
-240.557
 11
-19.2135
 21
-240.114
  0
LINE
  8
0
 10
-19.2135
 20
-240.114
 11
-19.3231
 21
-239.633
  0
LINE
  8
0
 10
-19.3231
 20
-239.633
 11
-19.3231
 21
-239.141
  0
LINE
  8
0
 10
-19.3231
 20
-239.141
 11
-19.2135
 21
-238.66
  0
LINE
  8
0
 10
-19.2135
 20
-238.66
 11
-18.9997
 21
-238.216
  0
LINE
  8
0
 10
-18.9997
 20
-238.216
 11
-18.6926
 21
-237.831
  0
LINE
  8
0
 10
-18.6926
 20
-237.831
 11
-18.3074
 21
-237.524
  0
LINE
  8
0
 10
-18.3074
 20
-237.524
 11
-17.8635
 21
-237.31
  0
LINE
  8
0
 10
-17.8635
 20
-237.31
 11
-17.3832
 21
-237.201
  0
LINE
  8
0
 10
-17.3832
 20
-237.201
 11
-16.8906
 21
-237.201
  0
LINE
  8
0
 10
-16.8906
 20
-237.201
 11
-16.4103
 21
-237.31
  0
LINE
  8
0
 10
-16.4103
 20
-237.31
 11
-15.9665
 21
-237.524
  0
LINE
  8
0
 10
-15.9665
 20
-237.524
 11
-15.5813
 21
-237.831
  0
LINE
  8
0
 10
-15.5813
 20
-237.831
 11
-15.2741
 21
-238.216
  0
LINE
  8
0
 10
-15.2741
 20
-238.216
 11
-15.0604
 21
-238.66
  0
LINE
  8
0
 10
-15.0604
 20
-238.66
 11
-14.9508
 21
-239.141
  0
LINE
  8
0
 10
-14.9508
 20
-239.141
 11
-14.9508
 21
-239.633
  0
LINE
  8
0
 10
-14.9508
 20
-239.633
 11
-15.0604
 21
-240.114
  0
LINE
  8
0
 10
-15.0604
 20
-240.114
 11
-15.2741
 21
-240.557
  0
LINE
  8
0
 10
-15.2741
 20
-240.557
 11
-15.5813
 21
-240.943
  0
LINE
  8
0
 10
-15.5813
 20
-240.943
 11
-15.9665
 21
-241.25
  0
LINE
  8
0
 10
-15.9665
 20
-241.25
 11
-16.4103
 21
-241.463
  0
LINE
  8
0
 10
-16.4103
 20
-241.463
 11
-16.8906
 21
-241.573
  0
LINE
  8
0
 10
-16.8906
 20
-241.573
 11
-17.3832
 21
-241.573
  0
LINE
  8
0
 10
4.89061
 20
-241.573
 11
4.41031
 21
-241.463
  0
LINE
  8
0
 10
4.41031
 20
-241.463
 11
3.96646
 21
-241.25
  0
LINE
  8
0
 10
3.96646
 20
-241.25
 11
3.58128
 21
-240.943
  0
LINE
  8
0
 10
3.58128
 20
-240.943
 11
3.27412
 21
-240.557
  0
LINE
  8
0
 10
3.27412
 20
-240.557
 11
3.06038
 21
-240.114
  0
LINE
  8
0
 10
3.06038
 20
-240.114
 11
2.95076
 21
-239.633
  0
LINE
  8
0
 10
2.95076
 20
-239.633
 11
2.95076
 21
-239.141
  0
LINE
  8
0
 10
2.95076
 20
-239.141
 11
3.06038
 21
-238.66
  0
LINE
  8
0
 10
3.06038
 20
-238.66
 11
3.27412
 21
-238.216
  0
LINE
  8
0
 10
3.27412
 20
-238.216
 11
3.58128
 21
-237.831
  0
LINE
  8
0
 10
3.58128
 20
-237.831
 11
3.96646
 21
-237.524
  0
LINE
  8
0
 10
3.96646
 20
-237.524
 11
4.41031
 21
-237.31
  0
LINE
  8
0
 10
4.41031
 20
-237.31
 11
4.89061
 21
-237.201
  0
LINE
  8
0
 10
4.89061
 20
-237.201
 11
5.38324
 21
-237.201
  0
LINE
  8
0
 10
5.38324
 20
-237.201
 11
5.86354
 21
-237.31
  0
LINE
  8
0
 10
5.86354
 20
-237.31
 11
6.30739
 21
-237.524
  0
LINE
  8
0
 10
6.30739
 20
-237.524
 11
6.69257
 21
-237.831
  0
LINE
  8
0
 10
6.69257
 20
-237.831
 11
6.99971
 21
-238.216
  0
LINE
  8
0
 10
6.99971
 20
-238.216
 11
7.21347
 21
-238.66
  0
LINE
  8
0
 10
7.21347
 20
-238.66
 11
7.32309
 21
-239.141
  0
LINE
  8
0
 10
7.32309
 20
-239.141
 11
7.32309
 21
-239.633
  0
LINE
  8
0
 10
7.32309
 20
-239.633
 11
7.21347
 21
-240.114
  0
LINE
  8
0
 10
7.21347
 20
-240.114
 11
6.99971
 21
-240.557
  0
LINE
  8
0
 10
6.99971
 20
-240.557
 11
6.69257
 21
-240.943
  0
LINE
  8
0
 10
6.69257
 20
-240.943
 11
6.30739
 21
-241.25
  0
LINE
  8
0
 10
6.30739
 20
-241.25
 11
5.86354
 21
-241.463
  0
LINE
  8
0
 10
5.86354
 20
-241.463
 11
5.38324
 21
-241.573
  0
LINE
  8
0
 10
5.38324
 20
-241.573
 11
4.89061
 21
-241.573
  0
ENDSEC
  0
SECTION
  2
OBJECTS
  0
DICTIONARY
  0
ENDSEC
  0
EOF
