  0
SECTION
  2
BLOCKS
  0
ENDSEC
  0
SECTION
  2
ENTITIES
  0
LINE
  8
0
 10
-87.953
 20
-249.087
 11
-87.651
 21
-249.08
  0
LINE
  8
0
 10
-87.651
 20
-249.08
 11
5.50035
 21
-243.51
  0
LINE
  8
0
 10
5.50035
 20
-243.51
 11
5.9953
 21
-243.458
  0
LINE
  8
0
 10
5.9953
 20
-243.458
 11
6.48068
 21
-243.348
  0
LINE
  8
0
 10
6.48068
 20
-243.348
 11
6.94968
 21
-243.182
  0
LINE
  8
0
 10
6.94968
 20
-243.182
 11
7.39571
 21
-242.961
  0
LINE
  8
0
 10
7.39571
 20
-242.961
 11
7.81252
 21
-242.689
  0
LINE
  8
0
 10
7.81252
 20
-242.689
 11
8.19424
 21
-242.37
  0
LINE
  8
0
 10
8.19424
 20
-242.37
 11
8.53552
 21
-242.008
  0
LINE
  8
0
 10
8.53552
 20
-242.008
 11
8.83159
 21
-241.608
  0
LINE
  8
0
 10
8.83159
 20
-241.608
 11
9.07826
 21
-241.176
  0
LINE
  8
0
 10
9.07826
 20
-241.176
 11
9.27209
 21
-240.718
  0
LINE
  8
0
 10
9.27209
 20
-240.718
 11
9.41037
 21
-240.24
  0
LINE
  8
0
 10
9.41037
 20
-240.24
 11
9.49112
 21
-239.749
  0
LINE
  8
0
 10
9.49112
 20
-239.749
 11
9.51324
 21
-239.251
  0
LINE
  8
0
 10
9.51324
 20
-239.251
 11
9.51324
 21
-173.251
  0
LINE
  8
0
 10
9.51324
 20
-173.251
 11
9.50955
 21
-150.5
  0
LINE
  8
0
 10
9.50955
 20
-150.5
 11
9.45802
 21
-150.005
  0
LINE
  8
0
 10
9.45802
 20
-150.005
 11
9.34833
 21
-149.519
  0
LINE
  8
0
 10
9.34833
 20
-149.519
 11
9.18198
 21
-149.05
  0
LINE
  8
0
 10
9.18198
 20
-149.05
 11
8.96133
 21
-148.604
  0
LINE
  8
0
 10
8.96133
 20
-148.604
 11
8.68948
 21
-148.187
  0
LINE
  8
0
 10
8.68948
 20
-148.187
 11
8.37025
 21
-147.806
  0
LINE
  8
0
 10
8.37025
 20
-147.806
 11
8.0081
 21
-147.464
  0
LINE
  8
0
 10
8.0081
 20
-147.464
 11
7.60814
 21
-147.168
  0
LINE
  8
0
 10
7.60814
 20
-147.168
 11
7.17596
 21
-146.922
  0
LINE
  8
0
 10
7.17596
 20
-146.922
 11
6.71765
 21
-146.728
  0
LINE
  8
0
 10
6.71765
 20
-146.728
 11
6.23962
 21
-146.59
  0
LINE
  8
0
 10
6.23962
 20
-146.59
 11
5.7486
 21
-146.509
  0
LINE
  8
0
 10
5.7486
 20
-146.509
 11
5.25146
 21
-146.487
  0
LINE
  8
0
 10
5.25146
 20
-146.487
 11
-17.5004
 21
-146.49
  0
LINE
  8
0
 10
-17.5004
 20
-146.49
 11
-17.9953
 21
-146.542
  0
LINE
  8
0
 10
-17.9953
 20
-146.542
 11
-18.4807
 21
-146.652
  0
LINE
  8
0
 10
-18.4807
 20
-146.652
 11
-18.9497
 21
-146.818
  0
LINE
  8
0
 10
-18.9497
 20
-146.818
 11
-19.3957
 21
-147.039
  0
LINE
  8
0
 10
-19.3957
 20
-147.039
 11
-48.5449
 21
-161.855
  0
LINE
  8
0
 10
-48.5449
 20
-161.855
 11
-97.4304
 21
-115.541
  0
LINE
  8
0
 10
-97.4304
 20
-115.541
 11
-100.707
 21
-117.835
  0
LINE
  8
0
 10
-100.707
 20
-117.835
 11
-83.4997
 21
-142.409
  0
LINE
  8
0
 10
-83.4997
 20
-142.409
 11
-93.3295
 21
-149.292
  0
LINE
  8
0
 10
-93.3295
 20
-149.292
 11
-110.537
 21
-124.718
  0
LINE
  8
0
 10
-110.537
 20
-124.718
 11
-113.813
 21
-127.012
  0
LINE
  8
0
 10
-113.813
 20
-127.012
 11
-87.4085
 21
-187.876
  0
LINE
  8
0
 10
-87.4085
 20
-187.876
 11
-116.328
 21
-208.125
  0
LINE
  8
0
 10
-116.328
 20
-208.125
 11
-116.438
 21
-208.407
  0
LINE
  8
0
 10
-116.438
 20
-208.407
 11
-116.612
 21
-208.875
  0
LINE
  8
0
 10
-116.612
 20
-208.875
 11
-116.778
 21
-209.347
  0
LINE
  8
0
 10
-116.778
 20
-209.347
 11
-116.937
 21
-209.821
  0
LINE
  8
0
 10
-116.937
 20
-209.821
 11
-117.087
 21
-210.298
  0
LINE
  8
0
 10
-117.087
 20
-210.298
 11
-117.23
 21
-210.777
  0
LINE
  8
0
 10
-117.23
 20
-210.777
 11
-117.364
 21
-211.259
  0
LINE
  8
0
 10
-117.364
 20
-211.259
 11
-117.491
 21
-211.742
  0
LINE
  8
0
 10
-117.491
 20
-211.742
 11
-117.609
 21
-212.228
  0
LINE
  8
0
 10
-117.609
 20
-212.228
 11
-117.719
 21
-212.716
  0
LINE
  8
0
 10
-117.719
 20
-212.716
 11
-117.821
 21
-213.205
  0
LINE
  8
0
 10
-117.821
 20
-213.205
 11
-117.915
 21
-213.696
  0
LINE
  8
0
 10
-117.915
 20
-213.696
 11
-118.001
 21
-214.189
  0
LINE
  8
0
 10
-118.001
 20
-214.189
 11
-118.079
 21
-214.683
  0
LINE
  8
0
 10
-118.079
 20
-214.683
 11
-118.148
 21
-215.178
  0
LINE
  8
0
 10
-118.148
 20
-215.178
 11
-118.209
 21
-215.674
  0
LINE
  8
0
 10
-118.209
 20
-215.674
 11
-118.262
 21
-216.171
  0
LINE
  8
0
 10
-118.262
 20
-216.171
 11
-118.307
 21
-216.669
  0
LINE
  8
0
 10
-118.307
 20
-216.669
 11
-118.343
 21
-217.168
  0
LINE
  8
0
 10
-118.343
 20
-217.168
 11
-118.371
 21
-217.667
  0
LINE
  8
0
 10
-118.371
 20
-217.667
 11
-118.39
 21
-218.167
  0
LINE
  8
0
 10
-118.39
 20
-218.167
 11
-118.401
 21
-218.667
  0
LINE
  8
0
 10
-118.401
 20
-218.667
 11
-118.404
 21
-219.167
  0
LINE
  8
0
 10
-118.404
 20
-219.167
 11
-118.399
 21
-219.667
  0
LINE
  8
0
 10
-118.399
 20
-219.667
 11
-118.394
 21
-219.847
  0
LINE
  8
0
 10
-118.394
 20
-219.847
 11
-99.3725
 21
-247.012
  0
LINE
  8
0
 10
-99.3725
 20
-247.012
 11
-99.2047
 21
-247.079
  0
LINE
  8
0
 10
-99.2047
 20
-247.079
 11
-98.7367
 21
-247.255
  0
LINE
  8
0
 10
-98.7367
 20
-247.255
 11
-98.2659
 21
-247.423
  0
LINE
  8
0
 10
-98.2659
 20
-247.423
 11
-97.7924
 21
-247.583
  0
LINE
  8
0
 10
-97.7924
 20
-247.583
 11
-97.3162
 21
-247.736
  0
LINE
  8
0
 10
-97.3162
 20
-247.736
 11
-96.8376
 21
-247.881
  0
LINE
  8
0
 10
-96.8376
 20
-247.881
 11
-96.3566
 21
-248.017
  0
LINE
  8
0
 10
-96.3566
 20
-248.017
 11
-95.8734
 21
-248.146
  0
LINE
  8
0
 10
-95.8734
 20
-248.146
 11
-95.3882
 21
-248.266
  0
LINE
  8
0
 10
-95.3882
 20
-248.266
 11
-94.901
 21
-248.378
  0
LINE
  8
0
 10
-94.901
 20
-248.378
 11
-94.412
 21
-248.483
  0
LINE
  8
0
 10
-94.412
 20
-248.483
 11
-93.9213
 21
-248.579
  0
LINE
  8
0
 10
-93.9213
 20
-248.579
 11
-93.4291
 21
-248.666
  0
LINE
  8
0
 10
-93.4291
 20
-248.666
 11
-92.9355
 21
-248.746
  0
LINE
  8
0
 10
-92.9355
 20
-248.746
 11
-92.4406
 21
-248.817
  0
LINE
  8
0
 10
-92.4406
 20
-248.817
 11
-91.9446
 21
-248.881
  0
LINE
  8
0
 10
-91.9446
 20
-248.881
 11
-91.4477
 21
-248.935
  0
LINE
  8
0
 10
-91.4477
 20
-248.935
 11
-90.9499
 21
-248.982
  0
LINE
  8
0
 10
-90.9499
 20
-248.982
 11
-90.4514
 21
-249.02
  0
LINE
  8
0
 10
-90.4514
 20
-249.02
 11
-89.9523
 21
-249.05
  0
LINE
  8
0
 10
-89.9523
 20
-249.05
 11
-89.4528
 21
-249.072
  0
LINE
  8
0
 10
-89.4528
 20
-249.072
 11
-88.953
 21
-249.085
  0
LINE
  8
0
 10
-88.953
 20
-249.085
 11
-88.453
 21
-249.09
  0
LINE
  8
0
 10
-88.453
 20
-249.09
 11
-87.953
 21
-249.087
  0
LINE
  8
0
 10
4.7196
 20
-152.279
 11
4.29492
 21
-152.047
  0
LINE
  8
0
 10
4.29492
 20
-152.047
 11
3.95277
 21
-151.705
  0
LINE
  8
0
 10
3.95277
 20
-151.705
 11
3.72089
 21
-151.28
  0
LINE
  8
0
 10
3.72089
 20
-151.28
 11
3.61803
 21
-150.808
  0
LINE
  8
0
 10
3.61803
 20
-150.808
 11
3.65256
 21
-150.325
  0
LINE
  8
0
 10
3.65256
 20
-150.325
 11
3.82164
 21
-149.872
  0
LINE
  8
0
 10
3.82164
 20
-149.872
 11
4.11162
 21
-149.484
  0
LINE
  8
0
 10
4.11162
 20
-149.484
 11
4.49898
 21
-149.194
  0
LINE
  8
0
 10
4.49898
 20
-149.194
 11
4.95235
 21
-149.025
  0
LINE
  8
0
 10
4.95235
 20
-149.025
 11
5.43498
 21
-148.991
  0
LINE
  8
0
 10
5.43498
 20
-148.991
 11
5.90779
 21
-149.093
  0
LINE
  8
0
 10
5.90779
 20
-149.093
 11
6.33247
 21
-149.325
  0
LINE
  8
0
 10
6.33247
 20
-149.325
 11
6.67462
 21
-149.668
  0
LINE
  8
0
 10
6.67462
 20
-149.668
 11
6.90651
 21
-150.092
  0
LINE
  8
0
 10
6.90651
 20
-150.092
 11
7.00937
 21
-150.565
  0
LINE
  8
0
 10
7.00937
 20
-150.565
 11
6.97485
 21
-151.048
  0
LINE
  8
0
 10
6.97485
 20
-151.048
 11
6.80576
 21
-151.501
  0
LINE
  8
0
 10
6.80576
 20
-151.501
 11
6.51578
 21
-151.888
  0
LINE
  8
0
 10
6.51578
 20
-151.888
 11
6.12842
 21
-152.178
  0
LINE
  8
0
 10
6.12842
 20
-152.178
 11
5.67506
 21
-152.347
  0
LINE
  8
0
 10
5.67506
 20
-152.347
 11
5.19243
 21
-152.382
  0
LINE
  8
0
 10
5.19243
 20
-152.382
 11
4.7196
 21
-152.279
  0
LINE
  8
0
 10
-17.6751
 20
-152.347
 11
-18.1284
 21
-152.178
  0
LINE
  8
0
 10
-18.1284
 20
-152.178
 11
-18.5158
 21
-151.888
  0
LINE
  8
0
 10
-18.5158
 20
-151.888
 11
-18.8058
 21
-151.501
  0
LINE
  8
0
 10
-18.8058
 20
-151.501
 11
-18.9749
 21
-151.048
  0
LINE
  8
0
 10
-18.9749
 20
-151.048
 11
-19.0094
 21
-150.565
  0
LINE
  8
0
 10
-19.0094
 20
-150.565
 11
-18.9065
 21
-150.092
  0
LINE
  8
0
 10
-18.9065
 20
-150.092
 11
-18.6746
 21
-149.668
  0
LINE
  8
0
 10
-18.6746
 20
-149.668
 11
-18.3325
 21
-149.325
  0
LINE
  8
0
 10
-18.3325
 20
-149.325
 11
-17.9078
 21
-149.093
  0
LINE
  8
0
 10
-17.9078
 20
-149.093
 11
-17.435
 21
-148.991
  0
LINE
  8
0
 10
-17.435
 20
-148.991
 11
-16.9523
 21
-149.025
  0
LINE
  8
0
 10
-16.9523
 20
-149.025
 11
-16.499
 21
-149.194
  0
LINE
  8
0
 10
-16.499
 20
-149.194
 11
-16.1116
 21
-149.484
  0
LINE
  8
0
 10
-16.1116
 20
-149.484
 11
-15.8216
 21
-149.872
  0
LINE
  8
0
 10
-15.8216
 20
-149.872
 11
-15.6526
 21
-150.325
  0
LINE
  8
0
 10
-15.6526
 20
-150.325
 11
-15.618
 21
-150.808
  0
LINE
  8
0
 10
-15.618
 20
-150.808
 11
-15.7209
 21
-151.28
  0
LINE
  8
0
 10
-15.7209
 20
-151.28
 11
-15.9528
 21
-151.705
  0
LINE
  8
0
 10
-15.9528
 20
-151.705
 11
-16.2949
 21
-152.047
  0
LINE
  8
0
 10
-16.2949
 20
-152.047
 11
-16.7196
 21
-152.279
  0
LINE
  8
0
 10
-16.7196
 20
-152.279
 11
-17.1924
 21
-152.382
  0
LINE
  8
0
 10
-17.1924
 20
-152.382
 11
-17.6751
 21
-152.347
  0
LINE
  8
0
 10
-83.8436
 20
-155.858
 11
-84.3176
 21
-155.704
  0
LINE
  8
0
 10
-84.3176
 20
-155.704
 11
-84.7553
 21
-155.466
  0
LINE
  8
0
 10
-84.7553
 20
-155.466
 11
-85.1419
 21
-155.152
  0
LINE
  8
0
 10
-85.1419
 20
-155.152
 11
-85.4641
 21
-154.772
  0
LINE
  8
0
 10
-85.4641
 20
-154.772
 11
-85.711
 21
-154.339
  0
LINE
  8
0
 10
-85.711
 20
-154.339
 11
-85.8742
 21
-153.868
  0
LINE
  8
0
 10
-85.8742
 20
-153.868
 11
-85.9481
 21
-153.376
  0
LINE
  8
0
 10
-85.9481
 20
-153.376
 11
-85.9302
 21
-152.878
  0
LINE
  8
0
 10
-85.9302
 20
-152.878
 11
-85.8211
 21
-152.392
  0
LINE
  8
0
 10
-85.8211
 20
-152.392
 11
-85.6245
 21
-151.934
  0
LINE
  8
0
 10
-85.6245
 20
-151.934
 11
-85.3472
 21
-151.52
  0
LINE
  8
0
 10
-85.3472
 20
-151.52
 11
-84.9985
 21
-151.164
  0
LINE
  8
0
 10
-84.9985
 20
-151.164
 11
-84.5904
 21
-150.878
  0
LINE
  8
0
 10
-84.5904
 20
-150.878
 11
-84.1367
 21
-150.672
  0
LINE
  8
0
 10
-84.1367
 20
-150.672
 11
-83.6528
 21
-150.553
  0
LINE
  8
0
 10
-83.6528
 20
-150.553
 11
-83.1554
 21
-150.525
  0
LINE
  8
0
 10
-83.1554
 20
-150.525
 11
-82.6612
 21
-150.589
  0
LINE
  8
0
 10
-82.6612
 20
-150.589
 11
-82.1872
 21
-150.742
  0
LINE
  8
0
 10
-82.1872
 20
-150.742
 11
-81.7495
 21
-150.98
  0
LINE
  8
0
 10
-81.7495
 20
-150.98
 11
-81.3629
 21
-151.295
  0
LINE
  8
0
 10
-81.3629
 20
-151.295
 11
-81.0407
 21
-151.675
  0
LINE
  8
0
 10
-81.0407
 20
-151.675
 11
-80.7938
 21
-152.107
  0
LINE
  8
0
 10
-80.7938
 20
-152.107
 11
-80.6306
 21
-152.578
  0
LINE
  8
0
 10
-80.6306
 20
-152.578
 11
-80.5567
 21
-153.071
  0
LINE
  8
0
 10
-80.5567
 20
-153.071
 11
-80.5746
 21
-153.569
  0
LINE
  8
0
 10
-80.5746
 20
-153.569
 11
-80.6837
 21
-154.055
  0
LINE
  8
0
 10
-80.6837
 20
-154.055
 11
-80.8802
 21
-154.513
  0
LINE
  8
0
 10
-80.8802
 20
-154.513
 11
-81.1576
 21
-154.927
  0
LINE
  8
0
 10
-81.1576
 20
-154.927
 11
-81.5063
 21
-155.283
  0
LINE
  8
0
 10
-81.5063
 20
-155.283
 11
-81.9144
 21
-155.568
  0
LINE
  8
0
 10
-81.9144
 20
-155.568
 11
-82.3681
 21
-155.774
  0
LINE
  8
0
 10
-82.3681
 20
-155.774
 11
-82.8519
 21
-155.893
  0
LINE
  8
0
 10
-82.8519
 20
-155.893
 11
-83.3494
 21
-155.922
  0
LINE
  8
0
 10
-83.3494
 20
-155.922
 11
-83.8436
 21
-155.858
  0
LINE
  8
0
 10
-6.6212
 20
-172.982
 11
-7.11684
 21
-172.943
  0
LINE
  8
0
 10
-7.11684
 20
-172.943
 11
-7.61018
 21
-172.882
  0
LINE
  8
0
 10
-7.61018
 20
-172.882
 11
-8.10025
 21
-172.798
  0
LINE
  8
0
 10
-8.10025
 20
-172.798
 11
-8.58601
 21
-172.692
  0
LINE
  8
0
 10
-8.58601
 20
-172.692
 11
-9.06651
 21
-172.564
  0
LINE
  8
0
 10
-9.06651
 20
-172.564
 11
-9.54073
 21
-172.415
  0
LINE
  8
0
 10
-9.54073
 20
-172.415
 11
-10.0077
 21
-172.244
  0
LINE
  8
0
 10
-10.0077
 20
-172.244
 11
-10.4665
 21
-172.052
  0
LINE
  8
0
 10
-10.4665
 20
-172.052
 11
-10.9162
 21
-171.84
  0
LINE
  8
0
 10
-10.9162
 20
-171.84
 11
-11.3558
 21
-171.608
  0
LINE
  8
0
 10
-11.3558
 20
-171.608
 11
-11.7845
 21
-171.356
  0
LINE
  8
0
 10
-11.7845
 20
-171.356
 11
-12.2014
 21
-171.085
  0
LINE
  8
0
 10
-12.2014
 20
-171.085
 11
-12.6056
 21
-170.796
  0
LINE
  8
0
 10
-12.6056
 20
-170.796
 11
-12.9963
 21
-170.488
  0
LINE
  8
0
 10
-12.9963
 20
-170.488
 11
-13.3727
 21
-170.163
  0
LINE
  8
0
 10
-13.3727
 20
-170.163
 11
-13.7341
 21
-169.822
  0
LINE
  8
0
 10
-13.7341
 20
-169.822
 11
-14.0797
 21
-169.465
  0
LINE
  8
0
 10
-14.0797
 20
-169.465
 11
-14.4087
 21
-169.092
  0
LINE
  8
0
 10
-14.4087
 20
-169.092
 11
-14.7206
 21
-168.705
  0
LINE
  8
0
 10
-14.7206
 20
-168.705
 11
-15.0146
 21
-168.304
  0
LINE
  8
0
 10
-15.0146
 20
-168.304
 11
-15.2903
 21
-167.89
  0
LINE
  8
0
 10
-15.2903
 20
-167.89
 11
-15.5469
 21
-167.464
  0
LINE
  8
0
 10
-15.5469
 20
-167.464
 11
-15.7841
 21
-167.027
  0
LINE
  8
0
 10
-15.7841
 20
-167.027
 11
-16.0013
 21
-166.58
  0
LINE
  8
0
 10
-16.0013
 20
-166.58
 11
-16.198
 21
-166.123
  0
LINE
  8
0
 10
-16.198
 20
-166.123
 11
-16.3739
 21
-165.658
  0
LINE
  8
0
 10
-16.3739
 20
-165.658
 11
-16.5286
 21
-165.186
  0
LINE
  8
0
 10
-16.5286
 20
-165.186
 11
-16.6618
 21
-164.707
  0
LINE
  8
0
 10
-16.6618
 20
-164.707
 11
-16.7732
 21
-164.222
  0
LINE
  8
0
 10
-16.7732
 20
-164.222
 11
-16.8626
 21
-163.733
  0
LINE
  8
0
 10
-16.8626
 20
-163.733
 11
-16.9298
 21
-163.24
  0
LINE
  8
0
 10
-16.9298
 20
-163.24
 11
-16.9747
 21
-162.745
  0
LINE
  8
0
 10
-16.9747
 20
-162.745
 11
-16.9972
 21
-162.249
  0
LINE
  8
0
 10
-16.9972
 20
-162.249
 11
-16.9972
 21
-161.751
  0
LINE
  8
0
 10
-16.9972
 20
-161.751
 11
-16.9747
 21
-161.255
  0
LINE
  8
0
 10
-16.9747
 20
-161.255
 11
-16.9298
 21
-160.76
  0
LINE
  8
0
 10
-16.9298
 20
-160.76
 11
-16.8626
 21
-160.267
  0
LINE
  8
0
 10
-16.8626
 20
-160.267
 11
-16.7732
 21
-159.778
  0
LINE
  8
0
 10
-16.7732
 20
-159.778
 11
-16.6618
 21
-159.293
  0
LINE
  8
0
 10
-16.6618
 20
-159.293
 11
-16.5286
 21
-158.814
  0
LINE
  8
0
 10
-16.5286
 20
-158.814
 11
-16.3739
 21
-158.342
  0
LINE
  8
0
 10
-16.3739
 20
-158.342
 11
-16.198
 21
-157.877
  0
LINE
  8
0
 10
-16.198
 20
-157.877
 11
-16.0013
 21
-157.42
  0
LINE
  8
0
 10
-16.0013
 20
-157.42
 11
-15.7841
 21
-156.973
  0
LINE
  8
0
 10
-15.7841
 20
-156.973
 11
-15.5469
 21
-156.536
  0
LINE
  8
0
 10
-15.5469
 20
-156.536
 11
-15.2903
 21
-156.11
  0
LINE
  8
0
 10
-15.2903
 20
-156.11
 11
-15.0146
 21
-155.696
  0
LINE
  8
0
 10
-15.0146
 20
-155.696
 11
-14.7206
 21
-155.295
  0
LINE
  8
0
 10
-14.7206
 20
-155.295
 11
-14.4087
 21
-154.908
  0
LINE
  8
0
 10
-14.4087
 20
-154.908
 11
-14.0797
 21
-154.535
  0
LINE
  8
0
 10
-14.0797
 20
-154.535
 11
-13.7341
 21
-154.178
  0
LINE
  8
0
 10
-13.7341
 20
-154.178
 11
-13.3727
 21
-153.837
  0
LINE
  8
0
 10
-13.3727
 20
-153.837
 11
-12.9963
 21
-153.512
  0
LINE
  8
0
 10
-12.9963
 20
-153.512
 11
-12.6056
 21
-153.204
  0
LINE
  8
0
 10
-12.6056
 20
-153.204
 11
-12.2014
 21
-152.915
  0
LINE
  8
0
 10
-12.2014
 20
-152.915
 11
-11.7845
 21
-152.644
  0
LINE
  8
0
 10
-11.7845
 20
-152.644
 11
-11.3558
 21
-152.392
  0
LINE
  8
0
 10
-11.3558
 20
-152.392
 11
-10.9162
 21
-152.16
  0
LINE
  8
0
 10
-10.9162
 20
-152.16
 11
-10.4665
 21
-151.948
  0
LINE
  8
0
 10
-10.4665
 20
-151.948
 11
-10.0077
 21
-151.756
  0
LINE
  8
0
 10
-10.0077
 20
-151.756
 11
-9.54073
 21
-151.585
  0
LINE
  8
0
 10
-9.54073
 20
-151.585
 11
-9.06651
 21
-151.436
  0
LINE
  8
0
 10
-9.06651
 20
-151.436
 11
-8.58601
 21
-151.308
  0
LINE
  8
0
 10
-8.58601
 20
-151.308
 11
-8.10025
 21
-151.202
  0
LINE
  8
0
 10
-8.10025
 20
-151.202
 11
-7.61018
 21
-151.118
  0
LINE
  8
0
 10
-7.61018
 20
-151.118
 11
-7.11684
 21
-151.057
  0
LINE
  8
0
 10
-7.11684
 20
-151.057
 11
-6.6212
 21
-151.018
  0
LINE
  8
0
 10
-6.6212
 20
-151.018
 11
-6.1243
 21
-151.001
  0
LINE
  8
0
 10
-6.1243
 20
-151.001
 11
-5.62714
 21
-151.006
  0
LINE
  8
0
 10
-5.62714
 20
-151.006
 11
-5.13075
 21
-151.034
  0
LINE
  8
0
 10
-5.13075
 20
-151.034
 11
-4.63612
 21
-151.085
  0
LINE
  8
0
 10
-4.63612
 20
-151.085
 11
-4.1443
 21
-151.158
  0
LINE
  8
0
 10
-4.1443
 20
-151.158
 11
-3.65625
 21
-151.253
  0
LINE
  8
0
 10
-3.65625
 20
-151.253
 11
-3.173
 21
-151.369
  0
LINE
  8
0
 10
-3.173
 20
-151.369
 11
-2.69553
 21
-151.508
  0
LINE
  8
0
 10
-2.69553
 20
-151.508
 11
-2.22479
 21
-151.668
  0
LINE
  8
0
 10
-2.22479
 20
-151.668
 11
-1.76178
 21
-151.849
  0
LINE
  8
0
 10
-1.76178
 20
-151.849
 11
-1.30742
 21
-152.051
  0
LINE
  8
0
 10
-1.30742
 20
-152.051
 11
-0.862656
 21
-152.273
  0
LINE
  8
0
 10
-0.862656
 20
-152.273
 11
-0.428375
 21
-152.515
  0
LINE
  8
0
 10
-0.428375
 20
-152.515
 11
-0.00549316
 21
-152.777
  0
LINE
  8
0
 10
-0.00549316
 20
-152.777
 11
0.405136
 21
-153.057
  0
LINE
  8
0
 10
0.405136
 20
-153.057
 11
0.802704
 21
-153.356
  0
LINE
  8
0
 10
0.802704
 20
-153.356
 11
1.18637
 21
-153.672
  0
LINE
  8
0
 10
1.18637
 20
-153.672
 11
1.55534
 21
-154.005
  0
LINE
  8
0
 10
1.55534
 20
-154.005
 11
1.90889
 21
-154.355
  0
LINE
  8
0
 10
1.90889
 20
-154.355
 11
2.24628
 21
-154.72
  0
LINE
  8
0
 10
2.24628
 20
-154.72
 11
2.56682
 21
-155.1
  0
LINE
  8
0
 10
2.56682
 20
-155.1
 11
2.86986
 21
-155.494
  0
LINE
  8
0
 10
2.86986
 20
-155.494
 11
3.15479
 21
-155.902
  0
LINE
  8
0
 10
3.15479
 20
-155.902
 11
3.42101
 21
-156.322
  0
LINE
  8
0
 10
3.42101
 20
-156.322
 11
3.66797
 21
-156.753
  0
LINE
  8
0
 10
3.66797
 20
-156.753
 11
3.89519
 21
-157.195
  0
LINE
  8
0
 10
3.89519
 20
-157.195
 11
4.10219
 21
-157.647
  0
LINE
  8
0
 10
4.10219
 20
-157.647
 11
4.28856
 21
-158.108
  0
LINE
  8
0
 10
4.28856
 20
-158.108
 11
4.4539
 21
-158.577
  0
LINE
  8
0
 10
4.4539
 20
-158.577
 11
4.5979
 21
-159.053
  0
LINE
  8
0
 10
4.5979
 20
-159.053
 11
4.72023
 21
-159.535
  0
LINE
  8
0
 10
4.72023
 20
-159.535
 11
4.82068
 21
-160.022
  0
LINE
  8
0
 10
4.82068
 20
-160.022
 11
4.899
 21
-160.513
  0
LINE
  8
0
 10
4.899
 20
-160.513
 11
4.95508
 21
-161.007
  0
LINE
  8
0
 10
4.95508
 20
-161.007
 11
4.98875
 21
-161.503
  0
LINE
  8
0
 10
4.98875
 20
-161.503
 11
5
 21
-162
  0
LINE
  8
0
 10
5
 20
-162
 11
4.98875
 21
-162.497
  0
LINE
  8
0
 10
4.98875
 20
-162.497
 11
4.95508
 21
-162.993
  0
LINE
  8
0
 10
4.95508
 20
-162.993
 11
4.899
 21
-163.487
  0
LINE
  8
0
 10
4.899
 20
-163.487
 11
4.82068
 21
-163.978
  0
LINE
  8
0
 10
4.82068
 20
-163.978
 11
4.72023
 21
-164.465
  0
LINE
  8
0
 10
4.72023
 20
-164.465
 11
4.5979
 21
-164.947
  0
LINE
  8
0
 10
4.5979
 20
-164.947
 11
4.4539
 21
-165.423
  0
LINE
  8
0
 10
4.4539
 20
-165.423
 11
4.28856
 21
-165.892
  0
LINE
  8
0
 10
4.28856
 20
-165.892
 11
4.10219
 21
-166.353
  0
LINE
  8
0
 10
4.10219
 20
-166.353
 11
3.89519
 21
-166.805
  0
LINE
  8
0
 10
3.89519
 20
-166.805
 11
3.66797
 21
-167.247
  0
LINE
  8
0
 10
3.66797
 20
-167.247
 11
3.42101
 21
-167.678
  0
LINE
  8
0
 10
3.42101
 20
-167.678
 11
3.15479
 21
-168.098
  0
LINE
  8
0
 10
3.15479
 20
-168.098
 11
2.86986
 21
-168.506
  0
LINE
  8
0
 10
2.86986
 20
-168.506
 11
2.56682
 21
-168.9
  0
LINE
  8
0
 10
2.56682
 20
-168.9
 11
2.24628
 21
-169.28
  0
LINE
  8
0
 10
2.24628
 20
-169.28
 11
1.90889
 21
-169.645
  0
LINE
  8
0
 10
1.90889
 20
-169.645
 11
1.55534
 21
-169.995
  0
LINE
  8
0
 10
1.55534
 20
-169.995
 11
1.18637
 21
-170.328
  0
LINE
  8
0
 10
1.18637
 20
-170.328
 11
0.802704
 21
-170.644
  0
LINE
  8
0
 10
0.802704
 20
-170.644
 11
0.405136
 21
-170.943
  0
LINE
  8
0
 10
0.405136
 20
-170.943
 11
-0.00549316
 21
-171.223
  0
LINE
  8
0
 10
-0.00549316
 20
-171.223
 11
-0.428375
 21
-171.485
  0
LINE
  8
0
 10
-0.428375
 20
-171.485
 11
-0.862656
 21
-171.727
  0
LINE
  8
0
 10
-0.862656
 20
-171.727
 11
-1.30742
 21
-171.949
  0
LINE
  8
0
 10
-1.30742
 20
-171.949
 11
-1.76178
 21
-172.151
  0
LINE
  8
0
 10
-1.76178
 20
-172.151
 11
-2.22479
 21
-172.332
  0
LINE
  8
0
 10
-2.22479
 20
-172.332
 11
-2.69553
 21
-172.492
  0
LINE
  8
0
 10
-2.69553
 20
-172.492
 11
-3.173
 21
-172.631
  0
LINE
  8
0
 10
-3.173
 20
-172.631
 11
-3.65625
 21
-172.747
  0
LINE
  8
0
 10
-3.65625
 20
-172.747
 11
-4.1443
 21
-172.842
  0
LINE
  8
0
 10
-4.1443
 20
-172.842
 11
-4.63612
 21
-172.915
  0
LINE
  8
0
 10
-4.63612
 20
-172.915
 11
-5.13075
 21
-172.966
  0
LINE
  8
0
 10
-5.13075
 20
-172.966
 11
-5.62714
 21
-172.994
  0
LINE
  8
0
 10
-5.62714
 20
-172.994
 11
-6.1243
 21
-172.999
  0
LINE
  8
0
 10
-6.1243
 20
-172.999
 11
-6.6212
 21
-172.982
  0
LINE
  8
0
 10
-72.372
 20
-172.241
 11
-72.846
 21
-172.087
  0
LINE
  8
0
 10
-72.846
 20
-172.087
 11
-73.2838
 21
-171.849
  0
LINE
  8
0
 10
-73.2838
 20
-171.849
 11
-73.6703
 21
-171.535
  0
LINE
  8
0
 10
-73.6703
 20
-171.535
 11
-73.9926
 21
-171.155
  0
LINE
  8
0
 10
-73.9926
 20
-171.155
 11
-74.2395
 21
-170.722
  0
LINE
  8
0
 10
-74.2395
 20
-170.722
 11
-74.4027
 21
-170.251
  0
LINE
  8
0
 10
-74.4027
 20
-170.251
 11
-74.4766
 21
-169.759
  0
LINE
  8
0
 10
-74.4766
 20
-169.759
 11
-74.4587
 21
-169.261
  0
LINE
  8
0
 10
-74.4587
 20
-169.261
 11
-74.3496
 21
-168.775
  0
LINE
  8
0
 10
-74.3496
 20
-168.775
 11
-74.153
 21
-168.317
  0
LINE
  8
0
 10
-74.153
 20
-168.317
 11
-73.8757
 21
-167.903
  0
LINE
  8
0
 10
-73.8757
 20
-167.903
 11
-73.527
 21
-167.547
  0
LINE
  8
0
 10
-73.527
 20
-167.547
 11
-73.1189
 21
-167.261
  0
LINE
  8
0
 10
-73.1189
 20
-167.261
 11
-72.6651
 21
-167.055
  0
LINE
  8
0
 10
-72.6651
 20
-167.055
 11
-72.1813
 21
-166.936
  0
LINE
  8
0
 10
-72.1813
 20
-166.936
 11
-71.6839
 21
-166.908
  0
LINE
  8
0
 10
-71.6839
 20
-166.908
 11
-71.1897
 21
-166.972
  0
LINE
  8
0
 10
-71.1897
 20
-166.972
 11
-70.7157
 21
-167.125
  0
LINE
  8
0
 10
-70.7157
 20
-167.125
 11
-70.278
 21
-167.363
  0
LINE
  8
0
 10
-70.278
 20
-167.363
 11
-69.8914
 21
-167.678
  0
LINE
  8
0
 10
-69.8914
 20
-167.678
 11
-69.5692
 21
-168.058
  0
LINE
  8
0
 10
-69.5692
 20
-168.058
 11
-69.3223
 21
-168.49
  0
LINE
  8
0
 10
-69.3223
 20
-168.49
 11
-69.1591
 21
-168.961
  0
LINE
  8
0
 10
-69.1591
 20
-168.961
 11
-69.0852
 21
-169.454
  0
LINE
  8
0
 10
-69.0852
 20
-169.454
 11
-69.1031
 21
-169.952
  0
LINE
  8
0
 10
-69.1031
 20
-169.952
 11
-69.2122
 21
-170.438
  0
LINE
  8
0
 10
-69.2122
 20
-170.438
 11
-69.4087
 21
-170.896
  0
LINE
  8
0
 10
-69.4087
 20
-170.896
 11
-69.6861
 21
-171.31
  0
LINE
  8
0
 10
-69.6861
 20
-171.31
 11
-70.0347
 21
-171.666
  0
LINE
  8
0
 10
-70.0347
 20
-171.666
 11
-70.4429
 21
-171.951
  0
LINE
  8
0
 10
-70.4429
 20
-171.951
 11
-70.8966
 21
-172.157
  0
LINE
  8
0
 10
-70.8966
 20
-172.157
 11
-71.3804
 21
-172.276
  0
LINE
  8
0
 10
-71.3804
 20
-172.276
 11
-71.8779
 21
-172.305
  0
LINE
  8
0
 10
-71.8779
 20
-172.305
 11
-72.372
 21
-172.241
  0
LINE
  8
0
 10
-50.9314
 20
-176.537
 11
-51.3802
 21
-176.34
  0
LINE
  8
0
 10
-51.3802
 20
-176.34
 11
-51.7593
 21
-176.029
  0
LINE
  8
0
 10
-51.7593
 20
-176.029
 11
-52.0405
 21
-175.627
  0
LINE
  8
0
 10
-52.0405
 20
-175.627
 11
-52.2029
 21
-175.165
  0
LINE
  8
0
 10
-52.2029
 20
-175.165
 11
-52.2345
 21
-174.676
  0
LINE
  8
0
 10
-52.2345
 20
-174.676
 11
-51.7433
 21
-171.89
  0
LINE
  8
0
 10
-51.7433
 20
-171.89
 11
-51.6418
 21
-171.411
  0
LINE
  8
0
 10
-51.6418
 20
-171.411
 11
-51.4146
 21
-170.976
  0
LINE
  8
0
 10
-51.4146
 20
-170.976
 11
-51.0786
 21
-170.619
  0
LINE
  8
0
 10
-51.0786
 20
-170.619
 11
-50.6588
 21
-170.366
  0
LINE
  8
0
 10
-50.6588
 20
-170.366
 11
-50.1863
 21
-170.236
  0
LINE
  8
0
 10
-50.1863
 20
-170.236
 11
-49.6961
 21
-170.238
  0
LINE
  8
0
 10
-49.6961
 20
-170.238
 11
-49.2246
 21
-170.372
  0
LINE
  8
0
 10
-49.2246
 20
-170.372
 11
-48.8067
 21
-170.628
  0
LINE
  8
0
 10
-48.8067
 20
-170.628
 11
-48.4735
 21
-170.988
  0
LINE
  8
0
 10
-48.4735
 20
-170.988
 11
-48.2496
 21
-171.424
  0
LINE
  8
0
 10
-48.2496
 20
-171.424
 11
-48.1517
 21
-171.904
  0
LINE
  8
0
 10
-48.1517
 20
-171.904
 11
-48.187
 21
-172.393
  0
LINE
  8
0
 10
-48.187
 20
-172.393
 11
-48.6782
 21
-175.178
  0
LINE
  8
0
 10
-48.6782
 20
-175.178
 11
-48.8441
 21
-175.64
  0
LINE
  8
0
 10
-48.8441
 20
-175.64
 11
-49.1283
 21
-176.039
  0
LINE
  8
0
 10
-49.1283
 20
-176.039
 11
-49.5097
 21
-176.347
  0
LINE
  8
0
 10
-49.5097
 20
-176.347
 11
-49.9601
 21
-176.541
  0
LINE
  8
0
 10
-49.9601
 20
-176.541
 11
-50.446
 21
-176.605
  0
LINE
  8
0
 10
-50.446
 20
-176.605
 11
-50.9314
 21
-176.537
  0
LINE
  8
0
 10
-17.9078
 20
-174.907
 11
-18.3325
 21
-174.675
  0
LINE
  8
0
 10
-18.3325
 20
-174.675
 11
-18.6746
 21
-174.332
  0
LINE
  8
0
 10
-18.6746
 20
-174.332
 11
-18.9065
 21
-173.908
  0
LINE
  8
0
 10
-18.9065
 20
-173.908
 11
-19.0094
 21
-173.435
  0
LINE
  8
0
 10
-19.0094
 20
-173.435
 11
-18.9749
 21
-172.952
  0
LINE
  8
0
 10
-18.9749
 20
-172.952
 11
-18.8058
 21
-172.499
  0
LINE
  8
0
 10
-18.8058
 20
-172.499
 11
-18.5158
 21
-172.112
  0
LINE
  8
0
 10
-18.5158
 20
-172.112
 11
-18.1284
 21
-171.822
  0
LINE
  8
0
 10
-18.1284
 20
-171.822
 11
-17.6751
 21
-171.653
  0
LINE
  8
0
 10
-17.6751
 20
-171.653
 11
-17.1924
 21
-171.618
  0
LINE
  8
0
 10
-17.1924
 20
-171.618
 11
-16.7196
 21
-171.721
  0
LINE
  8
0
 10
-16.7196
 20
-171.721
 11
-16.2949
 21
-171.953
  0
LINE
  8
0
 10
-16.2949
 20
-171.953
 11
-15.9528
 21
-172.295
  0
LINE
  8
0
 10
-15.9528
 20
-172.295
 11
-15.7209
 21
-172.72
  0
LINE
  8
0
 10
-15.7209
 20
-172.72
 11
-15.618
 21
-173.192
  0
LINE
  8
0
 10
-15.618
 20
-173.192
 11
-15.6526
 21
-173.675
  0
LINE
  8
0
 10
-15.6526
 20
-173.675
 11
-15.8216
 21
-174.128
  0
LINE
  8
0
 10
-15.8216
 20
-174.128
 11
-16.1116
 21
-174.516
  0
LINE
  8
0
 10
-16.1116
 20
-174.516
 11
-16.499
 21
-174.806
  0
LINE
  8
0
 10
-16.499
 20
-174.806
 11
-16.9523
 21
-174.975
  0
LINE
  8
0
 10
-16.9523
 20
-174.975
 11
-17.435
 21
-175.009
  0
LINE
  8
0
 10
-17.435
 20
-175.009
 11
-17.9078
 21
-174.907
  0
LINE
  8
0
 10
4.95235
 20
-174.975
 11
4.49898
 21
-174.806
  0
LINE
  8
0
 10
4.49898
 20
-174.806
 11
4.11162
 21
-174.516
  0
LINE
  8
0
 10
4.11162
 20
-174.516
 11
3.82164
 21
-174.128
  0
LINE
  8
0
 10
3.82164
 20
-174.128
 11
3.65256
 21
-173.675
  0
LINE
  8
0
 10
3.65256
 20
-173.675
 11
3.61803
 21
-173.192
  0
LINE
  8
0
 10
3.61803
 20
-173.192
 11
3.72089
 21
-172.72
  0
LINE
  8
0
 10
3.72089
 20
-172.72
 11
3.95277
 21
-172.295
  0
LINE
  8
0
 10
3.95277
 20
-172.295
 11
4.29492
 21
-171.953
  0
LINE
  8
0
 10
4.29492
 20
-171.953
 11
4.7196
 21
-171.721
  0
LINE
  8
0
 10
4.7196
 20
-171.721
 11
5.19243
 21
-171.618
  0
LINE
  8
0
 10
5.19243
 20
-171.618
 11
5.67506
 21
-171.653
  0
LINE
  8
0
 10
5.67506
 20
-171.653
 11
6.12842
 21
-171.822
  0
LINE
  8
0
 10
6.12842
 20
-171.822
 11
6.51578
 21
-172.112
  0
LINE
  8
0
 10
6.51578
 20
-172.112
 11
6.80576
 21
-172.499
  0
LINE
  8
0
 10
6.80576
 20
-172.499
 11
6.97485
 21
-172.952
  0
LINE
  8
0
 10
6.97485
 20
-172.952
 11
7.00937
 21
-173.435
  0
LINE
  8
0
 10
7.00937
 20
-173.435
 11
6.90651
 21
-173.908
  0
LINE
  8
0
 10
6.90651
 20
-173.908
 11
6.67462
 21
-174.332
  0
LINE
  8
0
 10
6.67462
 20
-174.332
 11
6.33247
 21
-174.675
  0
LINE
  8
0
 10
6.33247
 20
-174.675
 11
5.90779
 21
-174.907
  0
LINE
  8
0
 10
5.90779
 20
-174.907
 11
5.43498
 21
-175.009
  0
LINE
  8
0
 10
5.43498
 20
-175.009
 11
4.95235
 21
-174.975
  0
LINE
  8
0
 10
-54.2843
 20
-206.997
 11
-54.7831
 21
-206.974
  0
LINE
  8
0
 10
-54.7831
 20
-206.974
 11
-55.2805
 21
-206.931
  0
LINE
  8
0
 10
-55.2805
 20
-206.931
 11
-55.7758
 21
-206.868
  0
LINE
  8
0
 10
-55.7758
 20
-206.868
 11
-56.2679
 21
-206.784
  0
LINE
  8
0
 10
-56.2679
 20
-206.784
 11
-56.7561
 21
-206.679
  0
LINE
  8
0
 10
-56.7561
 20
-206.679
 11
-57.2396
 21
-206.554
  0
LINE
  8
0
 10
-57.2396
 20
-206.554
 11
-57.7174
 21
-206.41
  0
LINE
  8
0
 10
-57.7174
 20
-206.41
 11
-58.1888
 21
-206.245
  0
LINE
  8
0
 10
-58.1888
 20
-206.245
 11
-58.653
 21
-206.061
  0
LINE
  8
0
 10
-58.653
 20
-206.061
 11
-59.1091
 21
-205.858
  0
LINE
  8
0
 10
-59.1091
 20
-205.858
 11
-59.5564
 21
-205.636
  0
LINE
  8
0
 10
-59.5564
 20
-205.636
 11
-59.994
 21
-205.396
  0
LINE
  8
0
 10
-59.994
 20
-205.396
 11
-60.4212
 21
-205.137
  0
LINE
  8
0
 10
-60.4212
 20
-205.137
 11
-60.8374
 21
-204.862
  0
LINE
  8
0
 10
-60.8374
 20
-204.862
 11
-61.2417
 21
-204.569
  0
LINE
  8
0
 10
-61.2417
 20
-204.569
 11
-61.6335
 21
-204.259
  0
LINE
  8
0
 10
-61.6335
 20
-204.259
 11
-62.012
 21
-203.934
  0
LINE
  8
0
 10
-62.012
 20
-203.934
 11
-62.3767
 21
-203.592
  0
LINE
  8
0
 10
-62.3767
 20
-203.592
 11
-62.7269
 21
-203.237
  0
LINE
  8
0
 10
-62.7269
 20
-203.237
 11
-63.062
 21
-202.866
  0
LINE
  8
0
 10
-63.062
 20
-202.866
 11
-63.3813
 21
-202.483
  0
LINE
  8
0
 10
-63.3813
 20
-202.483
 11
-63.6845
 21
-202.086
  0
LINE
  8
0
 10
-63.6845
 20
-202.086
 11
-63.9709
 21
-201.677
  0
LINE
  8
0
 10
-63.9709
 20
-201.677
 11
-64.24
 21
-201.256
  0
LINE
  8
0
 10
-64.24
 20
-201.256
 11
-64.4914
 21
-200.825
  0
LINE
  8
0
 10
-64.4914
 20
-200.825
 11
-64.7246
 21
-200.384
  0
LINE
  8
0
 10
-64.7246
 20
-200.384
 11
-64.9393
 21
-199.933
  0
LINE
  8
0
 10
-64.9393
 20
-199.933
 11
-65.135
 21
-199.473
  0
LINE
  8
0
 10
-65.135
 20
-199.473
 11
-65.3115
 21
-199.006
  0
LINE
  8
0
 10
-65.3115
 20
-199.006
 11
-65.4683
 21
-198.532
  0
LINE
  8
0
 10
-65.4683
 20
-198.532
 11
-65.6053
 21
-198.052
  0
LINE
  8
0
 10
-65.6053
 20
-198.052
 11
-65.7223
 21
-197.567
  0
LINE
  8
0
 10
-65.7223
 20
-197.567
 11
-65.8189
 21
-197.077
  0
LINE
  8
0
 10
-65.8189
 20
-197.077
 11
-65.8951
 21
-196.583
  0
LINE
  8
0
 10
-65.8951
 20
-196.583
 11
-65.9506
 21
-196.087
  0
LINE
  8
0
 10
-65.9506
 20
-196.087
 11
-65.9855
 21
-195.589
  0
LINE
  8
0
 10
-65.9855
 20
-195.589
 11
-65.9997
 21
-195.09
  0
LINE
  8
0
 10
-65.9997
 20
-195.09
 11
-65.993
 21
-194.591
  0
LINE
  8
0
 10
-65.993
 20
-194.591
 11
-65.9656
 21
-194.092
  0
LINE
  8
0
 10
-65.9656
 20
-194.092
 11
-65.9175
 21
-193.595
  0
LINE
  8
0
 10
-65.9175
 20
-193.595
 11
-65.8488
 21
-193.101
  0
LINE
  8
0
 10
-65.8488
 20
-193.101
 11
-65.7595
 21
-192.61
  0
LINE
  8
0
 10
-65.7595
 20
-192.61
 11
-65.6499
 21
-192.123
  0
LINE
  8
0
 10
-65.6499
 20
-192.123
 11
-65.5201
 21
-191.64
  0
LINE
  8
0
 10
-65.5201
 20
-191.64
 11
-65.3704
 21
-191.164
  0
LINE
  8
0
 10
-65.3704
 20
-191.164
 11
-65.201
 21
-190.694
  0
LINE
  8
0
 10
-65.201
 20
-190.694
 11
-65.0122
 21
-190.232
  0
LINE
  8
0
 10
-65.0122
 20
-190.232
 11
-64.8043
 21
-189.778
  0
LINE
  8
0
 10
-64.8043
 20
-189.778
 11
-64.5777
 21
-189.333
  0
LINE
  8
0
 10
-64.5777
 20
-189.333
 11
-64.3329
 21
-188.898
  0
LINE
  8
0
 10
-64.3329
 20
-188.898
 11
-64.0701
 21
-188.474
  0
LINE
  8
0
 10
-64.0701
 20
-188.474
 11
-63.7899
 21
-188.06
  0
LINE
  8
0
 10
-63.7899
 20
-188.06
 11
-63.4927
 21
-187.659
  0
LINE
  8
0
 10
-63.4927
 20
-187.659
 11
-63.1791
 21
-187.271
  0
LINE
  8
0
 10
-63.1791
 20
-187.271
 11
-62.8497
 21
-186.895
  0
LINE
  8
0
 10
-62.8497
 20
-186.895
 11
-62.5049
 21
-186.534
  0
LINE
  8
0
 10
-62.5049
 20
-186.534
 11
-62.1454
 21
-186.188
  0
LINE
  8
0
 10
-62.1454
 20
-186.188
 11
-61.7717
 21
-185.857
  0
LINE
  8
0
 10
-61.7717
 20
-185.857
 11
-61.3847
 21
-185.541
  0
LINE
  8
0
 10
-61.3847
 20
-185.541
 11
-60.9848
 21
-185.242
  0
LINE
  8
0
 10
-60.9848
 20
-185.242
 11
-60.5728
 21
-184.96
  0
LINE
  8
0
 10
-60.5728
 20
-184.96
 11
-60.1495
 21
-184.695
  0
LINE
  8
0
 10
-60.1495
 20
-184.695
 11
-59.7155
 21
-184.449
  0
LINE
  8
0
 10
-59.7155
 20
-184.449
 11
-59.2717
 21
-184.22
  0
LINE
  8
0
 10
-59.2717
 20
-184.22
 11
-58.8187
 21
-184.01
  0
LINE
  8
0
 10
-58.8187
 20
-184.01
 11
-58.3573
 21
-183.819
  0
LINE
  8
0
 10
-58.3573
 20
-183.819
 11
-57.8884
 21
-183.647
  0
LINE
  8
0
 10
-57.8884
 20
-183.647
 11
-57.4128
 21
-183.496
  0
LINE
  8
0
 10
-57.4128
 20
-183.496
 11
-56.9313
 21
-183.364
  0
LINE
  8
0
 10
-56.9313
 20
-183.364
 11
-56.4447
 21
-183.252
  0
LINE
  8
0
 10
-56.4447
 20
-183.252
 11
-55.9539
 21
-183.16
  0
LINE
  8
0
 10
-55.9539
 20
-183.16
 11
-55.4597
 21
-183.089
  0
LINE
  8
0
 10
-55.4597
 20
-183.089
 11
-54.9629
 21
-183.039
  0
LINE
  8
0
 10
-54.9629
 20
-183.039
 11
-54.4645
 21
-183.009
  0
LINE
  8
0
 10
-54.4645
 20
-183.009
 11
-53.9653
 21
-183
  0
LINE
  8
0
 10
-53.9653
 20
-183
 11
-53.4662
 21
-183.012
  0
LINE
  8
0
 10
-53.4662
 20
-183.012
 11
-52.9679
 21
-183.044
  0
LINE
  8
0
 10
-52.9679
 20
-183.044
 11
-52.4715
 21
-183.098
  0
LINE
  8
0
 10
-52.4715
 20
-183.098
 11
-51.9777
 21
-183.172
  0
LINE
  8
0
 10
-51.9777
 20
-183.172
 11
-51.4874
 21
-183.266
  0
LINE
  8
0
 10
-51.4874
 20
-183.266
 11
-51.0015
 21
-183.381
  0
LINE
  8
0
 10
-51.0015
 20
-183.381
 11
-50.5207
 21
-183.515
  0
LINE
  8
0
 10
-50.5207
 20
-183.515
 11
-50.046
 21
-183.67
  0
LINE
  8
0
 10
-50.046
 20
-183.67
 11
-49.5781
 21
-183.844
  0
LINE
  8
0
 10
-49.5781
 20
-183.844
 11
-49.1179
 21
-184.038
  0
LINE
  8
0
 10
-49.1179
 20
-184.038
 11
-48.6661
 21
-184.251
  0
LINE
  8
0
 10
-48.6661
 20
-184.251
 11
-48.2236
 21
-184.482
  0
LINE
  8
0
 10
-48.2236
 20
-184.482
 11
-47.791
 21
-184.731
  0
LINE
  8
0
 10
-47.791
 20
-184.731
 11
-47.3692
 21
-184.998
  0
LINE
  8
0
 10
-47.3692
 20
-184.998
 11
-46.9589
 21
-185.283
  0
LINE
  8
0
 10
-46.9589
 20
-185.283
 11
-46.5608
 21
-185.584
  0
LINE
  8
0
 10
-46.5608
 20
-185.584
 11
-46.1756
 21
-185.902
  0
LINE
  8
0
 10
-46.1756
 20
-185.902
 11
-45.8038
 21
-186.235
  0
LINE
  8
0
 10
-45.8038
 20
-186.235
 11
-45.4463
 21
-186.584
  0
LINE
  8
0
 10
-45.4463
 20
-186.584
 11
-45.1036
 21
-186.947
  0
LINE
  8
0
 10
-45.1036
 20
-186.947
 11
-44.7763
 21
-187.324
  0
LINE
  8
0
 10
-44.7763
 20
-187.324
 11
-44.465
 21
-187.714
  0
LINE
  8
0
 10
-44.465
 20
-187.714
 11
-44.1702
 21
-188.117
  0
LINE
  8
0
 10
-44.1702
 20
-188.117
 11
-43.8924
 21
-188.532
  0
LINE
  8
0
 10
-43.8924
 20
-188.532
 11
-43.632
 21
-188.958
  0
LINE
  8
0
 10
-43.632
 20
-188.958
 11
-43.3897
 21
-189.395
  0
LINE
  8
0
 10
-43.3897
 20
-189.395
 11
-43.1657
 21
-189.841
  0
LINE
  8
0
 10
-43.1657
 20
-189.841
 11
-42.9604
 21
-190.296
  0
LINE
  8
0
 10
-42.9604
 20
-190.296
 11
-42.7743
 21
-190.759
  0
LINE
  8
0
 10
-42.7743
 20
-190.759
 11
-42.6076
 21
-191.23
  0
LINE
  8
0
 10
-42.6076
 20
-191.23
 11
-42.4607
 21
-191.707
  0
LINE
  8
0
 10
-42.4607
 20
-191.707
 11
-42.3337
 21
-192.19
  0
LINE
  8
0
 10
-42.3337
 20
-192.19
 11
-42.2269
 21
-192.678
  0
LINE
  8
0
 10
-42.2269
 20
-192.678
 11
-42.1405
 21
-193.169
  0
LINE
  8
0
 10
-42.1405
 20
-193.169
 11
-42.0746
 21
-193.664
  0
LINE
  8
0
 10
-42.0746
 20
-193.664
 11
-42.0293
 21
-194.162
  0
LINE
  8
0
 10
-42.0293
 20
-194.162
 11
-42.0048
 21
-194.66
  0
LINE
  8
0
 10
-42.0048
 20
-194.66
 11
-42.0011
 21
-195.16
  0
LINE
  8
0
 10
-42.0011
 20
-195.16
 11
-42.0181
 21
-195.659
  0
LINE
  8
0
 10
-42.0181
 20
-195.659
 11
-42.0558
 21
-196.156
  0
LINE
  8
0
 10
-42.0558
 20
-196.156
 11
-42.1143
 21
-196.652
  0
LINE
  8
0
 10
-42.1143
 20
-196.652
 11
-42.1933
 21
-197.145
  0
LINE
  8
0
 10
-42.1933
 20
-197.145
 11
-42.2928
 21
-197.635
  0
LINE
  8
0
 10
-42.2928
 20
-197.635
 11
-42.4125
 21
-198.119
  0
LINE
  8
0
 10
-42.4125
 20
-198.119
 11
-42.5523
 21
-198.599
  0
LINE
  8
0
 10
-42.5523
 20
-198.599
 11
-42.7119
 21
-199.072
  0
LINE
  8
0
 10
-42.7119
 20
-199.072
 11
-42.891
 21
-199.538
  0
LINE
  8
0
 10
-42.891
 20
-199.538
 11
-43.0894
 21
-199.996
  0
LINE
  8
0
 10
-43.0894
 20
-199.996
 11
-43.3067
 21
-200.445
  0
LINE
  8
0
 10
-43.3067
 20
-200.445
 11
-43.5424
 21
-200.886
  0
LINE
  8
0
 10
-43.5424
 20
-200.886
 11
-43.7963
 21
-201.315
  0
LINE
  8
0
 10
-43.7963
 20
-201.315
 11
-44.0679
 21
-201.734
  0
LINE
  8
0
 10
-44.0679
 20
-201.734
 11
-44.3566
 21
-202.142
  0
LINE
  8
0
 10
-44.3566
 20
-202.142
 11
-44.662
 21
-202.537
  0
LINE
  8
0
 10
-44.662
 20
-202.537
 11
-44.9836
 21
-202.919
  0
LINE
  8
0
 10
-44.9836
 20
-202.919
 11
-45.3208
 21
-203.287
  0
LINE
  8
0
 10
-45.3208
 20
-203.287
 11
-45.6731
 21
-203.641
  0
LINE
  8
0
 10
-45.6731
 20
-203.641
 11
-46.0397
 21
-203.98
  0
LINE
  8
0
 10
-46.0397
 20
-203.98
 11
-46.4202
 21
-204.303
  0
LINE
  8
0
 10
-46.4202
 20
-204.303
 11
-46.8137
 21
-204.61
  0
LINE
  8
0
 10
-46.8137
 20
-204.61
 11
-47.2197
 21
-204.901
  0
LINE
  8
0
 10
-47.2197
 20
-204.901
 11
-47.6374
 21
-205.174
  0
LINE
  8
0
 10
-47.6374
 20
-205.174
 11
-48.0662
 21
-205.43
  0
LINE
  8
0
 10
-48.0662
 20
-205.43
 11
-48.5052
 21
-205.668
  0
LINE
  8
0
 10
-48.5052
 20
-205.668
 11
-48.9537
 21
-205.887
  0
LINE
  8
0
 10
-48.9537
 20
-205.887
 11
-49.411
 21
-206.088
  0
LINE
  8
0
 10
-49.411
 20
-206.088
 11
-49.8762
 21
-206.269
  0
LINE
  8
0
 10
-49.8762
 20
-206.269
 11
-50.3486
 21
-206.431
  0
LINE
  8
0
 10
-50.3486
 20
-206.431
 11
-50.8272
 21
-206.573
  0
LINE
  8
0
 10
-50.8272
 20
-206.573
 11
-51.3114
 21
-206.695
  0
LINE
  8
0
 10
-51.3114
 20
-206.695
 11
-51.8002
 21
-206.797
  0
LINE
  8
0
 10
-51.8002
 20
-206.797
 11
-52.2928
 21
-206.878
  0
LINE
  8
0
 10
-52.2928
 20
-206.878
 11
-52.7884
 21
-206.939
  0
LINE
  8
0
 10
-52.7884
 20
-206.939
 11
-53.2861
 21
-206.979
  0
LINE
  8
0
 10
-53.2861
 20
-206.979
 11
-53.785
 21
-206.998
  0
LINE
  8
0
 10
-53.785
 20
-206.998
 11
-54.2843
 21
-206.997
  0
LINE
  8
0
 10
-15.9372
 20
-190.936
 11
-16.3619
 21
-190.704
  0
LINE
  8
0
 10
-16.3619
 20
-190.704
 11
-16.7041
 21
-190.362
  0
LINE
  8
0
 10
-16.7041
 20
-190.362
 11
-16.936
 21
-189.937
  0
LINE
  8
0
 10
-16.936
 20
-189.937
 11
-17.0388
 21
-189.464
  0
LINE
  8
0
 10
-17.0388
 20
-189.464
 11
-17.0043
 21
-188.982
  0
LINE
  8
0
 10
-17.0043
 20
-188.982
 11
-16.8352
 21
-188.528
  0
LINE
  8
0
 10
-16.8352
 20
-188.528
 11
-16.5452
 21
-188.141
  0
LINE
  8
0
 10
-16.5452
 20
-188.141
 11
-16.1579
 21
-187.851
  0
LINE
  8
0
 10
-16.1579
 20
-187.851
 11
-15.7045
 21
-187.682
  0
LINE
  8
0
 10
-15.7045
 20
-187.682
 11
-15.2219
 21
-187.647
  0
LINE
  8
0
 10
-15.2219
 20
-187.647
 11
-14.7491
 21
-187.75
  0
LINE
  8
0
 10
-14.7491
 20
-187.75
 11
-14.3244
 21
-187.982
  0
LINE
  8
0
 10
-14.3244
 20
-187.982
 11
-13.9822
 21
-188.324
  0
LINE
  8
0
 10
-13.9822
 20
-188.324
 11
-13.7503
 21
-188.749
  0
LINE
  8
0
 10
-13.7503
 20
-188.749
 11
-13.6475
 21
-189.222
  0
LINE
  8
0
 10
-13.6475
 20
-189.222
 11
-13.682
 21
-189.705
  0
LINE
  8
0
 10
-13.682
 20
-189.705
 11
-13.8511
 21
-190.158
  0
LINE
  8
0
 10
-13.8511
 20
-190.158
 11
-14.1411
 21
-190.545
  0
LINE
  8
0
 10
-14.1411
 20
-190.545
 11
-14.5284
 21
-190.835
  0
LINE
  8
0
 10
-14.5284
 20
-190.835
 11
-14.9818
 21
-191.004
  0
LINE
  8
0
 10
-14.9818
 20
-191.004
 11
-15.4644
 21
-191.039
  0
LINE
  8
0
 10
-15.4644
 20
-191.039
 11
-15.9372
 21
-190.936
  0
LINE
  8
0
 10
-27.0182
 20
-191.004
 11
-27.4716
 21
-190.835
  0
LINE
  8
0
 10
-27.4716
 20
-190.835
 11
-27.8589
 21
-190.545
  0
LINE
  8
0
 10
-27.8589
 20
-190.545
 11
-28.1489
 21
-190.158
  0
LINE
  8
0
 10
-28.1489
 20
-190.158
 11
-28.318
 21
-189.705
  0
LINE
  8
0
 10
-28.318
 20
-189.705
 11
-28.3525
 21
-189.222
  0
LINE
  8
0
 10
-28.3525
 20
-189.222
 11
-28.2497
 21
-188.749
  0
LINE
  8
0
 10
-28.2497
 20
-188.749
 11
-28.0178
 21
-188.324
  0
LINE
  8
0
 10
-28.0178
 20
-188.324
 11
-27.6756
 21
-187.982
  0
LINE
  8
0
 10
-27.6756
 20
-187.982
 11
-27.2509
 21
-187.75
  0
LINE
  8
0
 10
-27.2509
 20
-187.75
 11
-26.7781
 21
-187.647
  0
LINE
  8
0
 10
-26.7781
 20
-187.647
 11
-26.2955
 21
-187.682
  0
LINE
  8
0
 10
-26.2955
 20
-187.682
 11
-25.8421
 21
-187.851
  0
LINE
  8
0
 10
-25.8421
 20
-187.851
 11
-25.4548
 21
-188.141
  0
LINE
  8
0
 10
-25.4548
 20
-188.141
 11
-25.1648
 21
-188.528
  0
LINE
  8
0
 10
-25.1648
 20
-188.528
 11
-24.9957
 21
-188.982
  0
LINE
  8
0
 10
-24.9957
 20
-188.982
 11
-24.9612
 21
-189.464
  0
LINE
  8
0
 10
-24.9612
 20
-189.464
 11
-25.064
 21
-189.937
  0
LINE
  8
0
 10
-25.064
 20
-189.937
 11
-25.2959
 21
-190.362
  0
LINE
  8
0
 10
-25.2959
 20
-190.362
 11
-25.6381
 21
-190.704
  0
LINE
  8
0
 10
-25.6381
 20
-190.704
 11
-26.0628
 21
-190.936
  0
LINE
  8
0
 10
-26.0628
 20
-190.936
 11
-26.5356
 21
-191.039
  0
LINE
  8
0
 10
-26.5356
 20
-191.039
 11
-27.0182
 21
-191.004
  0
LINE
  8
0
 10
-77.1097
 20
-192.743
 11
-77.5892
 21
-192.642
  0
LINE
  8
0
 10
-77.5892
 20
-192.642
 11
-78.0236
 21
-192.415
  0
LINE
  8
0
 10
-78.0236
 20
-192.415
 11
-78.3806
 21
-192.079
  0
LINE
  8
0
 10
-78.3806
 20
-192.079
 11
-78.6337
 21
-191.659
  0
LINE
  8
0
 10
-78.6337
 20
-191.659
 11
-78.7642
 21
-191.186
  0
LINE
  8
0
 10
-78.7642
 20
-191.186
 11
-78.7623
 21
-190.696
  0
LINE
  8
0
 10
-78.7623
 20
-190.696
 11
-78.6283
 21
-190.225
  0
LINE
  8
0
 10
-78.6283
 20
-190.225
 11
-78.372
 21
-189.807
  0
LINE
  8
0
 10
-78.372
 20
-189.807
 11
-78.0125
 21
-189.474
  0
LINE
  8
0
 10
-78.0125
 20
-189.474
 11
-77.5764
 21
-189.25
  0
LINE
  8
0
 10
-77.5764
 20
-189.25
 11
-77.096
 21
-189.152
  0
LINE
  8
0
 10
-77.096
 20
-189.152
 11
-76.6071
 21
-189.187
  0
LINE
  8
0
 10
-76.6071
 20
-189.187
 11
-73.8217
 21
-189.678
  0
LINE
  8
0
 10
-73.8217
 20
-189.678
 11
-73.3604
 21
-189.844
  0
LINE
  8
0
 10
-73.3604
 20
-189.844
 11
-72.961
 21
-190.128
  0
LINE
  8
0
 10
-72.961
 20
-190.128
 11
-72.6531
 21
-190.51
  0
LINE
  8
0
 10
-72.6531
 20
-190.51
 11
-72.4595
 21
-190.96
  0
LINE
  8
0
 10
-72.4595
 20
-190.96
 11
-72.3946
 21
-191.446
  0
LINE
  8
0
 10
-72.3946
 20
-191.446
 11
-72.4632
 21
-191.931
  0
LINE
  8
0
 10
-72.4632
 20
-191.931
 11
-72.6602
 21
-192.38
  0
LINE
  8
0
 10
-72.6602
 20
-192.38
 11
-72.971
 21
-192.759
  0
LINE
  8
0
 10
-72.971
 20
-192.759
 11
-73.3725
 21
-193.04
  0
LINE
  8
0
 10
-73.3725
 20
-193.04
 11
-73.835
 21
-193.203
  0
LINE
  8
0
 10
-73.835
 20
-193.203
 11
-74.3242
 21
-193.234
  0
LINE
  8
0
 10
-74.3242
 20
-193.234
 11
-77.1097
 21
-192.743
  0
LINE
  8
0
 10
-21.373
 20
-200.136
 11
-21.867
 21
-200.076
  0
LINE
  8
0
 10
-21.867
 20
-200.076
 11
-22.3529
 21
-199.969
  0
LINE
  8
0
 10
-22.3529
 20
-199.969
 11
-22.8262
 21
-199.815
  0
LINE
  8
0
 10
-22.8262
 20
-199.815
 11
-23.2824
 21
-199.617
  0
LINE
  8
0
 10
-23.2824
 20
-199.617
 11
-23.7173
 21
-199.375
  0
LINE
  8
0
 10
-23.7173
 20
-199.375
 11
-24.1269
 21
-199.092
  0
LINE
  8
0
 10
-24.1269
 20
-199.092
 11
-24.5072
 21
-198.771
  0
LINE
  8
0
 10
-24.5072
 20
-198.771
 11
-24.8548
 21
-198.415
  0
LINE
  8
0
 10
-24.8548
 20
-198.415
 11
-25.1664
 21
-198.027
  0
LINE
  8
0
 10
-25.1664
 20
-198.027
 11
-25.4391
 21
-197.611
  0
LINE
  8
0
 10
-25.4391
 20
-197.611
 11
-25.6704
 21
-197.17
  0
LINE
  8
0
 10
-25.6704
 20
-197.17
 11
-25.858
 21
-196.709
  0
LINE
  8
0
 10
-25.858
 20
-196.709
 11
-26.0004
 21
-196.232
  0
LINE
  8
0
 10
-26.0004
 20
-196.232
 11
-26.0959
 21
-195.744
  0
LINE
  8
0
 10
-26.0959
 20
-195.744
 11
-26.144
 21
-195.249
  0
LINE
  8
0
 10
-26.144
 20
-195.249
 11
-26.144
 21
-194.751
  0
LINE
  8
0
 10
-26.144
 20
-194.751
 11
-26.0959
 21
-194.256
  0
LINE
  8
0
 10
-26.0959
 20
-194.256
 11
-26.0004
 21
-193.768
  0
LINE
  8
0
 10
-26.0004
 20
-193.768
 11
-25.858
 21
-193.291
  0
LINE
  8
0
 10
-25.858
 20
-193.291
 11
-25.6704
 21
-192.83
  0
LINE
  8
0
 10
-25.6704
 20
-192.83
 11
-25.4391
 21
-192.389
  0
LINE
  8
0
 10
-25.4391
 20
-192.389
 11
-25.1664
 21
-191.973
  0
LINE
  8
0
 10
-25.1664
 20
-191.973
 11
-24.8548
 21
-191.585
  0
LINE
  8
0
 10
-24.8548
 20
-191.585
 11
-24.5072
 21
-191.229
  0
LINE
  8
0
 10
-24.5072
 20
-191.229
 11
-24.1269
 21
-190.908
  0
LINE
  8
0
 10
-24.1269
 20
-190.908
 11
-23.7173
 21
-190.625
  0
LINE
  8
0
 10
-23.7173
 20
-190.625
 11
-23.2824
 21
-190.383
  0
LINE
  8
0
 10
-23.2824
 20
-190.383
 11
-22.8262
 21
-190.185
  0
LINE
  8
0
 10
-22.8262
 20
-190.185
 11
-22.3529
 21
-190.031
  0
LINE
  8
0
 10
-22.3529
 20
-190.031
 11
-21.867
 21
-189.924
  0
LINE
  8
0
 10
-21.867
 20
-189.924
 11
-21.373
 21
-189.864
  0
LINE
  8
0
 10
-21.373
 20
-189.864
 11
-20.8755
 21
-189.852
  0
LINE
  8
0
 10
-20.8755
 20
-189.852
 11
-20.3792
 21
-189.888
  0
LINE
  8
0
 10
-20.3792
 20
-189.888
 11
-19.8887
 21
-189.971
  0
LINE
  8
0
 10
-19.8887
 20
-189.971
 11
-19.4086
 21
-190.102
  0
LINE
  8
0
 10
-19.4086
 20
-190.102
 11
-18.9433
 21
-190.279
  0
LINE
  8
0
 10
-18.9433
 20
-190.279
 11
-18.4972
 21
-190.499
  0
LINE
  8
0
 10
-18.4972
 20
-190.499
 11
-18.0745
 21
-190.762
  0
LINE
  8
0
 10
-18.0745
 20
-190.762
 11
-17.6791
 21
-191.064
  0
LINE
  8
0
 10
-17.6791
 20
-191.064
 11
-17.3147
 21
-191.403
  0
LINE
  8
0
 10
-17.3147
 20
-191.403
 11
-16.9847
 21
-191.775
  0
LINE
  8
0
 10
-16.9847
 20
-191.775
 11
-16.6922
 21
-192.178
  0
LINE
  8
0
 10
-16.6922
 20
-192.178
 11
-16.4399
 21
-192.607
  0
LINE
  8
0
 10
-16.4399
 20
-192.607
 11
-16.2302
 21
-193.058
  0
LINE
  8
0
 10
-16.2302
 20
-193.058
 11
-16.065
 21
-193.527
  0
LINE
  8
0
 10
-16.065
 20
-193.527
 11
-15.9459
 21
-194.011
  0
LINE
  8
0
 10
-15.9459
 20
-194.011
 11
-15.874
 21
-194.503
  0
LINE
  8
0
 10
-15.874
 20
-194.503
 11
-15.85
 21
-195
  0
LINE
  8
0
 10
-15.85
 20
-195
 11
-15.874
 21
-195.497
  0
LINE
  8
0
 10
-15.874
 20
-195.497
 11
-15.9459
 21
-195.989
  0
LINE
  8
0
 10
-15.9459
 20
-195.989
 11
-16.065
 21
-196.473
  0
LINE
  8
0
 10
-16.065
 20
-196.473
 11
-16.2302
 21
-196.942
  0
LINE
  8
0
 10
-16.2302
 20
-196.942
 11
-16.4399
 21
-197.393
  0
LINE
  8
0
 10
-16.4399
 20
-197.393
 11
-16.6922
 21
-197.822
  0
LINE
  8
0
 10
-16.6922
 20
-197.822
 11
-16.9847
 21
-198.225
  0
LINE
  8
0
 10
-16.9847
 20
-198.225
 11
-17.3147
 21
-198.597
  0
LINE
  8
0
 10
-17.3147
 20
-198.597
 11
-17.6791
 21
-198.936
  0
LINE
  8
0
 10
-17.6791
 20
-198.936
 11
-18.0745
 21
-199.238
  0
LINE
  8
0
 10
-18.0745
 20
-199.238
 11
-18.4972
 21
-199.501
  0
LINE
  8
0
 10
-18.4972
 20
-199.501
 11
-18.9433
 21
-199.721
  0
LINE
  8
0
 10
-18.9433
 20
-199.721
 11
-19.4086
 21
-199.898
  0
LINE
  8
0
 10
-19.4086
 20
-199.898
 11
-19.8887
 21
-200.029
  0
LINE
  8
0
 10
-19.8887
 20
-200.029
 11
-20.3792
 21
-200.112
  0
LINE
  8
0
 10
-20.3792
 20
-200.112
 11
-20.8755
 21
-200.148
  0
LINE
  8
0
 10
-20.8755
 20
-200.148
 11
-21.373
 21
-200.136
  0
LINE
  8
0
 10
-85.3357
 20
-200.627
 11
-85.7846
 21
-200.43
  0
LINE
  8
0
 10
-85.7846
 20
-200.43
 11
-86.1637
 21
-200.119
  0
LINE
  8
0
 10
-86.1637
 20
-200.119
 11
-86.4449
 21
-199.718
  0
LINE
  8
0
 10
-86.4449
 20
-199.718
 11
-86.6073
 21
-199.255
  0
LINE
  8
0
 10
-86.6073
 20
-199.255
 11
-86.6389
 21
-198.766
  0
LINE
  8
0
 10
-86.6389
 20
-198.766
 11
-86.1477
 21
-195.981
  0
LINE
  8
0
 10
-86.1477
 20
-195.981
 11
-86.0462
 21
-195.501
  0
LINE
  8
0
 10
-86.0462
 20
-195.501
 11
-85.819
 21
-195.067
  0
LINE
  8
0
 10
-85.819
 20
-195.067
 11
-85.483
 21
-194.71
  0
LINE
  8
0
 10
-85.483
 20
-194.71
 11
-85.0632
 21
-194.456
  0
LINE
  8
0
 10
-85.0632
 20
-194.456
 11
-84.5907
 21
-194.326
  0
LINE
  8
0
 10
-84.5907
 20
-194.326
 11
-84.1005
 21
-194.328
  0
LINE
  8
0
 10
-84.1005
 20
-194.328
 11
-83.629
 21
-194.462
  0
LINE
  8
0
 10
-83.629
 20
-194.462
 11
-83.2111
 21
-194.718
  0
LINE
  8
0
 10
-83.2111
 20
-194.718
 11
-82.8779
 21
-195.078
  0
LINE
  8
0
 10
-82.8779
 20
-195.078
 11
-82.654
 21
-195.514
  0
LINE
  8
0
 10
-82.654
 20
-195.514
 11
-82.5561
 21
-195.994
  0
LINE
  8
0
 10
-82.5561
 20
-195.994
 11
-82.5914
 21
-196.483
  0
LINE
  8
0
 10
-82.5914
 20
-196.483
 11
-83.0826
 21
-199.269
  0
LINE
  8
0
 10
-83.0826
 20
-199.269
 11
-83.2485
 21
-199.73
  0
LINE
  8
0
 10
-83.2485
 20
-199.73
 11
-83.5327
 21
-200.129
  0
LINE
  8
0
 10
-83.5327
 20
-200.129
 11
-83.9141
 21
-200.437
  0
LINE
  8
0
 10
-83.9141
 20
-200.437
 11
-84.3645
 21
-200.631
  0
LINE
  8
0
 10
-84.3645
 20
-200.631
 11
-84.8504
 21
-200.696
  0
LINE
  8
0
 10
-84.8504
 20
-200.696
 11
-85.3357
 21
-200.627
  0
LINE
  8
0
 10
-31.3929
 20
-200.813
 11
-34.1783
 21
-200.322
  0
LINE
  8
0
 10
-34.1783
 20
-200.322
 11
-34.6396
 21
-200.156
  0
LINE
  8
0
 10
-34.6396
 20
-200.156
 11
-35.039
 21
-199.872
  0
LINE
  8
0
 10
-35.039
 20
-199.872
 11
-35.3469
 21
-199.49
  0
LINE
  8
0
 10
-35.3469
 20
-199.49
 11
-35.5405
 21
-199.04
  0
LINE
  8
0
 10
-35.5405
 20
-199.04
 11
-35.6054
 21
-198.554
  0
LINE
  8
0
 10
-35.6054
 20
-198.554
 11
-35.5368
 21
-198.069
  0
LINE
  8
0
 10
-35.5368
 20
-198.069
 11
-35.3398
 21
-197.62
  0
LINE
  8
0
 10
-35.3398
 20
-197.62
 11
-35.029
 21
-197.241
  0
LINE
  8
0
 10
-35.029
 20
-197.241
 11
-34.6275
 21
-196.96
  0
LINE
  8
0
 10
-34.6275
 20
-196.96
 11
-34.165
 21
-196.797
  0
LINE
  8
0
 10
-34.165
 20
-196.797
 11
-33.6758
 21
-196.766
  0
LINE
  8
0
 10
-33.6758
 20
-196.766
 11
-30.8903
 21
-197.257
  0
LINE
  8
0
 10
-30.8903
 20
-197.257
 11
-30.4108
 21
-197.358
  0
LINE
  8
0
 10
-30.4108
 20
-197.358
 11
-29.9764
 21
-197.585
  0
LINE
  8
0
 10
-29.9764
 20
-197.585
 11
-29.6194
 21
-197.921
  0
LINE
  8
0
 10
-29.6194
 20
-197.921
 11
-29.3663
 21
-198.341
  0
LINE
  8
0
 10
-29.3663
 20
-198.341
 11
-29.2358
 21
-198.814
  0
LINE
  8
0
 10
-29.2358
 20
-198.814
 11
-29.2377
 21
-199.304
  0
LINE
  8
0
 10
-29.2377
 20
-199.304
 11
-29.3717
 21
-199.775
  0
LINE
  8
0
 10
-29.3717
 20
-199.775
 11
-29.628
 21
-200.193
  0
LINE
  8
0
 10
-29.628
 20
-200.193
 11
-29.9875
 21
-200.526
  0
LINE
  8
0
 10
-29.9875
 20
-200.526
 11
-30.4236
 21
-200.75
  0
LINE
  8
0
 10
-30.4236
 20
-200.75
 11
-30.9039
 21
-200.848
  0
LINE
  8
0
 10
-30.9039
 20
-200.848
 11
-31.3929
 21
-200.813
  0
LINE
  8
0
 10
-15.7045
 20
-202.318
 11
-16.1579
 21
-202.149
  0
LINE
  8
0
 10
-16.1579
 20
-202.149
 11
-16.5452
 21
-201.859
  0
LINE
  8
0
 10
-16.5452
 20
-201.859
 11
-16.8352
 21
-201.472
  0
LINE
  8
0
 10
-16.8352
 20
-201.472
 11
-17.0043
 21
-201.018
  0
LINE
  8
0
 10
-17.0043
 20
-201.018
 11
-17.0388
 21
-200.536
  0
LINE
  8
0
 10
-17.0388
 20
-200.536
 11
-16.936
 21
-200.063
  0
LINE
  8
0
 10
-16.936
 20
-200.063
 11
-16.7041
 21
-199.638
  0
LINE
  8
0
 10
-16.7041
 20
-199.638
 11
-16.3619
 21
-199.296
  0
LINE
  8
0
 10
-16.3619
 20
-199.296
 11
-15.9372
 21
-199.064
  0
LINE
  8
0
 10
-15.9372
 20
-199.064
 11
-15.4644
 21
-198.961
  0
LINE
  8
0
 10
-15.4644
 20
-198.961
 11
-14.9818
 21
-198.996
  0
LINE
  8
0
 10
-14.9818
 20
-198.996
 11
-14.5284
 21
-199.165
  0
LINE
  8
0
 10
-14.5284
 20
-199.165
 11
-14.1411
 21
-199.455
  0
LINE
  8
0
 10
-14.1411
 20
-199.455
 11
-13.8511
 21
-199.842
  0
LINE
  8
0
 10
-13.8511
 20
-199.842
 11
-13.682
 21
-200.295
  0
LINE
  8
0
 10
-13.682
 20
-200.295
 11
-13.6475
 21
-200.778
  0
LINE
  8
0
 10
-13.6475
 20
-200.778
 11
-13.7503
 21
-201.251
  0
LINE
  8
0
 10
-13.7503
 20
-201.251
 11
-13.9822
 21
-201.676
  0
LINE
  8
0
 10
-13.9822
 20
-201.676
 11
-14.3244
 21
-202.018
  0
LINE
  8
0
 10
-14.3244
 20
-202.018
 11
-14.7491
 21
-202.25
  0
LINE
  8
0
 10
-14.7491
 20
-202.25
 11
-15.2219
 21
-202.353
  0
LINE
  8
0
 10
-15.2219
 20
-202.353
 11
-15.7045
 21
-202.318
  0
LINE
  8
0
 10
-27.2509
 20
-202.25
 11
-27.6756
 21
-202.018
  0
LINE
  8
0
 10
-27.6756
 20
-202.018
 11
-28.0178
 21
-201.676
  0
LINE
  8
0
 10
-28.0178
 20
-201.676
 11
-28.2497
 21
-201.251
  0
LINE
  8
0
 10
-28.2497
 20
-201.251
 11
-28.3525
 21
-200.778
  0
LINE
  8
0
 10
-28.3525
 20
-200.778
 11
-28.318
 21
-200.295
  0
LINE
  8
0
 10
-28.318
 20
-200.295
 11
-28.1489
 21
-199.842
  0
LINE
  8
0
 10
-28.1489
 20
-199.842
 11
-27.8589
 21
-199.455
  0
LINE
  8
0
 10
-27.8589
 20
-199.455
 11
-27.4716
 21
-199.165
  0
LINE
  8
0
 10
-27.4716
 20
-199.165
 11
-27.0182
 21
-198.996
  0
LINE
  8
0
 10
-27.0182
 20
-198.996
 11
-26.5356
 21
-198.961
  0
LINE
  8
0
 10
-26.5356
 20
-198.961
 11
-26.0628
 21
-199.064
  0
LINE
  8
0
 10
-26.0628
 20
-199.064
 11
-25.6381
 21
-199.296
  0
LINE
  8
0
 10
-25.6381
 20
-199.296
 11
-25.2959
 21
-199.638
  0
LINE
  8
0
 10
-25.2959
 20
-199.638
 11
-25.064
 21
-200.063
  0
LINE
  8
0
 10
-25.064
 20
-200.063
 11
-24.9612
 21
-200.536
  0
LINE
  8
0
 10
-24.9612
 20
-200.536
 11
-24.9957
 21
-201.018
  0
LINE
  8
0
 10
-24.9957
 20
-201.018
 11
-25.1648
 21
-201.472
  0
LINE
  8
0
 10
-25.1648
 20
-201.472
 11
-25.4548
 21
-201.859
  0
LINE
  8
0
 10
-25.4548
 20
-201.859
 11
-25.8421
 21
-202.149
  0
LINE
  8
0
 10
-25.8421
 20
-202.149
 11
-26.2955
 21
-202.318
  0
LINE
  8
0
 10
-26.2955
 20
-202.318
 11
-26.7781
 21
-202.353
  0
LINE
  8
0
 10
-26.7781
 20
-202.353
 11
-27.2509
 21
-202.25
  0
LINE
  8
0
 10
-88.6887
 20
-231.087
 11
-89.1875
 21
-231.065
  0
LINE
  8
0
 10
-89.1875
 20
-231.065
 11
-89.6849
 21
-231.022
  0
LINE
  8
0
 10
-89.6849
 20
-231.022
 11
-90.1801
 21
-230.958
  0
LINE
  8
0
 10
-90.1801
 20
-230.958
 11
-90.6723
 21
-230.874
  0
LINE
  8
0
 10
-90.6723
 20
-230.874
 11
-91.1605
 21
-230.769
  0
LINE
  8
0
 10
-91.1605
 20
-230.769
 11
-91.644
 21
-230.645
  0
LINE
  8
0
 10
-91.644
 20
-230.645
 11
-92.1218
 21
-230.5
  0
LINE
  8
0
 10
-92.1218
 20
-230.5
 11
-92.5932
 21
-230.335
  0
LINE
  8
0
 10
-92.5932
 20
-230.335
 11
-93.0574
 21
-230.151
  0
LINE
  8
0
 10
-93.0574
 20
-230.151
 11
-93.5135
 21
-229.948
  0
LINE
  8
0
 10
-93.5135
 20
-229.948
 11
-93.9607
 21
-229.726
  0
LINE
  8
0
 10
-93.9607
 20
-229.726
 11
-94.3984
 21
-229.486
  0
LINE
  8
0
 10
-94.3984
 20
-229.486
 11
-94.8256
 21
-229.228
  0
LINE
  8
0
 10
-94.8256
 20
-229.228
 11
-95.2418
 21
-228.952
  0
LINE
  8
0
 10
-95.2418
 20
-228.952
 11
-95.6461
 21
-228.659
  0
LINE
  8
0
 10
-95.6461
 20
-228.659
 11
-96.0379
 21
-228.349
  0
LINE
  8
0
 10
-96.0379
 20
-228.349
 11
-96.4164
 21
-228.024
  0
LINE
  8
0
 10
-96.4164
 20
-228.024
 11
-96.7811
 21
-227.683
  0
LINE
  8
0
 10
-96.7811
 20
-227.683
 11
-97.1313
 21
-227.327
  0
LINE
  8
0
 10
-97.1313
 20
-227.327
 11
-97.4664
 21
-226.957
  0
LINE
  8
0
 10
-97.4664
 20
-226.957
 11
-97.7857
 21
-226.573
  0
LINE
  8
0
 10
-97.7857
 20
-226.573
 11
-98.0889
 21
-226.176
  0
LINE
  8
0
 10
-98.0889
 20
-226.176
 11
-98.3753
 21
-225.767
  0
LINE
  8
0
 10
-98.3753
 20
-225.767
 11
-98.6444
 21
-225.347
  0
LINE
  8
0
 10
-98.6444
 20
-225.347
 11
-98.8958
 21
-224.915
  0
LINE
  8
0
 10
-98.8958
 20
-224.915
 11
-99.129
 21
-224.474
  0
LINE
  8
0
 10
-99.129
 20
-224.474
 11
-99.3437
 21
-224.023
  0
LINE
  8
0
 10
-99.3437
 20
-224.023
 11
-99.5394
 21
-223.564
  0
LINE
  8
0
 10
-99.5394
 20
-223.564
 11
-99.7159
 21
-223.097
  0
LINE
  8
0
 10
-99.7159
 20
-223.097
 11
-99.8727
 21
-222.623
  0
LINE
  8
0
 10
-99.8727
 20
-222.623
 11
-100.01
 21
-222.142
  0
LINE
  8
0
 10
-100.01
 20
-222.142
 11
-100.127
 21
-221.657
  0
LINE
  8
0
 10
-100.127
 20
-221.657
 11
-100.223
 21
-221.167
  0
LINE
  8
0
 10
-100.223
 20
-221.167
 11
-100.299
 21
-220.674
  0
LINE
  8
0
 10
-100.299
 20
-220.674
 11
-100.355
 21
-220.178
  0
LINE
  8
0
 10
-100.355
 20
-220.178
 11
-100.39
 21
-219.679
  0
LINE
  8
0
 10
-100.39
 20
-219.679
 11
-100.404
 21
-219.18
  0
LINE
  8
0
 10
-100.404
 20
-219.18
 11
-100.397
 21
-218.681
  0
LINE
  8
0
 10
-100.397
 20
-218.681
 11
-100.37
 21
-218.183
  0
LINE
  8
0
 10
-100.37
 20
-218.183
 11
-100.322
 21
-217.686
  0
LINE
  8
0
 10
-100.322
 20
-217.686
 11
-100.253
 21
-217.191
  0
LINE
  8
0
 10
-100.253
 20
-217.191
 11
-100.164
 21
-216.7
  0
LINE
  8
0
 10
-100.164
 20
-216.7
 11
-100.054
 21
-216.213
  0
LINE
  8
0
 10
-100.054
 20
-216.213
 11
-99.9245
 21
-215.731
  0
LINE
  8
0
 10
-99.9245
 20
-215.731
 11
-99.7748
 21
-215.254
  0
LINE
  8
0
 10
-99.7748
 20
-215.254
 11
-99.6054
 21
-214.785
  0
LINE
  8
0
 10
-99.6054
 20
-214.785
 11
-99.4165
 21
-214.322
  0
LINE
  8
0
 10
-99.4165
 20
-214.322
 11
-99.2087
 21
-213.868
  0
LINE
  8
0
 10
-99.2087
 20
-213.868
 11
-98.9821
 21
-213.424
  0
LINE
  8
0
 10
-98.9821
 20
-213.424
 11
-98.7372
 21
-212.988
  0
LINE
  8
0
 10
-98.7372
 20
-212.988
 11
-98.4745
 21
-212.564
  0
LINE
  8
0
 10
-98.4745
 20
-212.564
 11
-98.1943
 21
-212.151
  0
LINE
  8
0
 10
-98.1943
 20
-212.151
 11
-97.8971
 21
-211.749
  0
LINE
  8
0
 10
-97.8971
 20
-211.749
 11
-97.5835
 21
-211.361
  0
LINE
  8
0
 10
-97.5835
 20
-211.361
 11
-97.2541
 21
-210.986
  0
LINE
  8
0
 10
-97.2541
 20
-210.986
 11
-96.9093
 21
-210.625
  0
LINE
  8
0
 10
-96.9093
 20
-210.625
 11
-96.5497
 21
-210.278
  0
LINE
  8
0
 10
-96.5497
 20
-210.278
 11
-96.1761
 21
-209.947
  0
LINE
  8
0
 10
-96.1761
 20
-209.947
 11
-95.789
 21
-209.632
  0
LINE
  8
0
 10
-95.789
 20
-209.632
 11
-95.3892
 21
-209.333
  0
LINE
  8
0
 10
-95.3892
 20
-209.333
 11
-94.9772
 21
-209.05
  0
LINE
  8
0
 10
-94.9772
 20
-209.05
 11
-94.5539
 21
-208.786
  0
LINE
  8
0
 10
-94.5539
 20
-208.786
 11
-94.1199
 21
-208.539
  0
LINE
  8
0
 10
-94.1199
 20
-208.539
 11
-93.6761
 21
-208.31
  0
LINE
  8
0
 10
-93.6761
 20
-208.31
 11
-93.2231
 21
-208.1
  0
LINE
  8
0
 10
-93.2231
 20
-208.1
 11
-92.7617
 21
-207.909
  0
LINE
  8
0
 10
-92.7617
 20
-207.909
 11
-92.2928
 21
-207.738
  0
LINE
  8
0
 10
-92.2928
 20
-207.738
 11
-91.8172
 21
-207.586
  0
LINE
  8
0
 10
-91.8172
 20
-207.586
 11
-91.3357
 21
-207.454
  0
LINE
  8
0
 10
-91.3357
 20
-207.454
 11
-90.8491
 21
-207.342
  0
LINE
  8
0
 10
-90.8491
 20
-207.342
 11
-90.3583
 21
-207.25
  0
LINE
  8
0
 10
-90.3583
 20
-207.25
 11
-89.8641
 21
-207.179
  0
LINE
  8
0
 10
-89.8641
 20
-207.179
 11
-89.3673
 21
-207.129
  0
LINE
  8
0
 10
-89.3673
 20
-207.129
 11
-88.8689
 21
-207.099
  0
LINE
  8
0
 10
-88.8689
 20
-207.099
 11
-88.3697
 21
-207.09
  0
LINE
  8
0
 10
-88.3697
 20
-207.09
 11
-87.8706
 21
-207.102
  0
LINE
  8
0
 10
-87.8706
 20
-207.102
 11
-87.3723
 21
-207.135
  0
LINE
  8
0
 10
-87.3723
 20
-207.135
 11
-86.8759
 21
-207.188
  0
LINE
  8
0
 10
-86.8759
 20
-207.188
 11
-86.3821
 21
-207.262
  0
LINE
  8
0
 10
-86.3821
 20
-207.262
 11
-85.8918
 21
-207.356
  0
LINE
  8
0
 10
-85.8918
 20
-207.356
 11
-85.4059
 21
-207.471
  0
LINE
  8
0
 10
-85.4059
 20
-207.471
 11
-84.9251
 21
-207.606
  0
LINE
  8
0
 10
-84.9251
 20
-207.606
 11
-84.4504
 21
-207.76
  0
LINE
  8
0
 10
-84.4504
 20
-207.76
 11
-83.9825
 21
-207.935
  0
LINE
  8
0
 10
-83.9825
 20
-207.935
 11
-83.5223
 21
-208.128
  0
LINE
  8
0
 10
-83.5223
 20
-208.128
 11
-83.0705
 21
-208.341
  0
LINE
  8
0
 10
-83.0705
 20
-208.341
 11
-82.628
 21
-208.572
  0
LINE
  8
0
 10
-82.628
 20
-208.572
 11
-82.1954
 21
-208.821
  0
LINE
  8
0
 10
-82.1954
 20
-208.821
 11
-81.7736
 21
-209.089
  0
LINE
  8
0
 10
-81.7736
 20
-209.089
 11
-81.3633
 21
-209.373
  0
LINE
  8
0
 10
-81.3633
 20
-209.373
 11
-80.9652
 21
-209.674
  0
LINE
  8
0
 10
-80.9652
 20
-209.674
 11
-80.5799
 21
-209.992
  0
LINE
  8
0
 10
-80.5799
 20
-209.992
 11
-80.2082
 21
-210.325
  0
LINE
  8
0
 10
-80.2082
 20
-210.325
 11
-79.8507
 21
-210.674
  0
LINE
  8
0
 10
-79.8507
 20
-210.674
 11
-79.508
 21
-211.037
  0
LINE
  8
0
 10
-79.508
 20
-211.037
 11
-79.1807
 21
-211.414
  0
LINE
  8
0
 10
-79.1807
 20
-211.414
 11
-78.8694
 21
-211.804
  0
LINE
  8
0
 10
-78.8694
 20
-211.804
 11
-78.5746
 21
-212.207
  0
LINE
  8
0
 10
-78.5746
 20
-212.207
 11
-78.2968
 21
-212.622
  0
LINE
  8
0
 10
-78.2968
 20
-212.622
 11
-78.0364
 21
-213.048
  0
LINE
  8
0
 10
-78.0364
 20
-213.048
 11
-77.7941
 21
-213.485
  0
LINE
  8
0
 10
-77.7941
 20
-213.485
 11
-77.5701
 21
-213.931
  0
LINE
  8
0
 10
-77.5701
 20
-213.931
 11
-77.3648
 21
-214.386
  0
LINE
  8
0
 10
-77.3648
 20
-214.386
 11
-77.1787
 21
-214.849
  0
LINE
  8
0
 10
-77.1787
 20
-214.849
 11
-77.012
 21
-215.32
  0
LINE
  8
0
 10
-77.012
 20
-215.32
 11
-76.8651
 21
-215.797
  0
LINE
  8
0
 10
-76.8651
 20
-215.797
 11
-76.7381
 21
-216.28
  0
LINE
  8
0
 10
-76.7381
 20
-216.28
 11
-76.6313
 21
-216.768
  0
LINE
  8
0
 10
-76.6313
 20
-216.768
 11
-76.5448
 21
-217.26
  0
LINE
  8
0
 10
-76.5448
 20
-217.26
 11
-76.479
 21
-217.755
  0
LINE
  8
0
 10
-76.479
 20
-217.755
 11
-76.4337
 21
-218.252
  0
LINE
  8
0
 10
-76.4337
 20
-218.252
 11
-76.4092
 21
-218.75
  0
LINE
  8
0
 10
-76.4092
 20
-218.75
 11
-76.4054
 21
-219.25
  0
LINE
  8
0
 10
-76.4054
 20
-219.25
 11
-76.4225
 21
-219.749
  0
LINE
  8
0
 10
-76.4225
 20
-219.749
 11
-76.4602
 21
-220.247
  0
LINE
  8
0
 10
-76.4602
 20
-220.247
 11
-76.5187
 21
-220.742
  0
LINE
  8
0
 10
-76.5187
 20
-220.742
 11
-76.5977
 21
-221.235
  0
LINE
  8
0
 10
-76.5977
 20
-221.235
 11
-76.6971
 21
-221.725
  0
LINE
  8
0
 10
-76.6971
 20
-221.725
 11
-76.8169
 21
-222.209
  0
LINE
  8
0
 10
-76.8169
 20
-222.209
 11
-76.9566
 21
-222.689
  0
LINE
  8
0
 10
-76.9566
 20
-222.689
 11
-77.1163
 21
-223.162
  0
LINE
  8
0
 10
-77.1163
 20
-223.162
 11
-77.2954
 21
-223.628
  0
LINE
  8
0
 10
-77.2954
 20
-223.628
 11
-77.4938
 21
-224.086
  0
LINE
  8
0
 10
-77.4938
 20
-224.086
 11
-77.711
 21
-224.536
  0
LINE
  8
0
 10
-77.711
 20
-224.536
 11
-77.9468
 21
-224.976
  0
LINE
  8
0
 10
-77.9468
 20
-224.976
 11
-78.2007
 21
-225.406
  0
LINE
  8
0
 10
-78.2007
 20
-225.406
 11
-78.4722
 21
-225.825
  0
LINE
  8
0
 10
-78.4722
 20
-225.825
 11
-78.761
 21
-226.232
  0
LINE
  8
0
 10
-78.761
 20
-226.232
 11
-79.0664
 21
-226.627
  0
LINE
  8
0
 10
-79.0664
 20
-226.627
 11
-79.388
 21
-227.009
  0
LINE
  8
0
 10
-79.388
 20
-227.009
 11
-79.7252
 21
-227.377
  0
LINE
  8
0
 10
-79.7252
 20
-227.377
 11
-80.0775
 21
-227.731
  0
LINE
  8
0
 10
-80.0775
 20
-227.731
 11
-80.4441
 21
-228.07
  0
LINE
  8
0
 10
-80.4441
 20
-228.07
 11
-80.8245
 21
-228.393
  0
LINE
  8
0
 10
-80.8245
 20
-228.393
 11
-81.2181
 21
-228.7
  0
LINE
  8
0
 10
-81.2181
 20
-228.7
 11
-81.6241
 21
-228.991
  0
LINE
  8
0
 10
-81.6241
 20
-228.991
 11
-82.0418
 21
-229.265
  0
LINE
  8
0
 10
-82.0418
 20
-229.265
 11
-82.4706
 21
-229.52
  0
LINE
  8
0
 10
-82.4706
 20
-229.52
 11
-82.9096
 21
-229.758
  0
LINE
  8
0
 10
-82.9096
 20
-229.758
 11
-83.3581
 21
-229.978
  0
LINE
  8
0
 10
-83.3581
 20
-229.978
 11
-83.8154
 21
-230.178
  0
LINE
  8
0
 10
-83.8154
 20
-230.178
 11
-84.2806
 21
-230.359
  0
LINE
  8
0
 10
-84.2806
 20
-230.359
 11
-84.7529
 21
-230.521
  0
LINE
  8
0
 10
-84.7529
 20
-230.521
 11
-85.2316
 21
-230.663
  0
LINE
  8
0
 10
-85.2316
 20
-230.663
 11
-85.7158
 21
-230.785
  0
LINE
  8
0
 10
-85.7158
 20
-230.785
 11
-86.2046
 21
-230.887
  0
LINE
  8
0
 10
-86.2046
 20
-230.887
 11
-86.6972
 21
-230.968
  0
LINE
  8
0
 10
-86.6972
 20
-230.968
 11
-87.1928
 21
-231.029
  0
LINE
  8
0
 10
-87.1928
 20
-231.029
 11
-87.6905
 21
-231.069
  0
LINE
  8
0
 10
-87.6905
 20
-231.069
 11
-88.1894
 21
-231.088
  0
LINE
  8
0
 10
-88.1894
 20
-231.088
 11
-88.6887
 21
-231.087
  0
LINE
  8
0
 10
-111.514
 20
-216.834
 11
-111.994
 21
-216.732
  0
LINE
  8
0
 10
-111.994
 20
-216.732
 11
-112.428
 21
-216.505
  0
LINE
  8
0
 10
-112.428
 20
-216.505
 11
-112.785
 21
-216.169
  0
LINE
  8
0
 10
-112.785
 20
-216.169
 11
-113.038
 21
-215.749
  0
LINE
  8
0
 10
-113.038
 20
-215.749
 11
-113.169
 21
-215.277
  0
LINE
  8
0
 10
-113.169
 20
-215.277
 11
-113.167
 21
-214.786
  0
LINE
  8
0
 10
-113.167
 20
-214.786
 11
-113.033
 21
-214.315
  0
LINE
  8
0
 10
-113.033
 20
-214.315
 11
-112.776
 21
-213.897
  0
LINE
  8
0
 10
-112.776
 20
-213.897
 11
-112.417
 21
-213.564
  0
LINE
  8
0
 10
-112.417
 20
-213.564
 11
-111.981
 21
-213.34
  0
LINE
  8
0
 10
-111.981
 20
-213.34
 11
-111.5
 21
-213.242
  0
LINE
  8
0
 10
-111.5
 20
-213.242
 11
-111.011
 21
-213.277
  0
LINE
  8
0
 10
-111.011
 20
-213.277
 11
-108.226
 21
-213.768
  0
LINE
  8
0
 10
-108.226
 20
-213.768
 11
-107.765
 21
-213.934
  0
LINE
  8
0
 10
-107.765
 20
-213.934
 11
-107.365
 21
-214.219
  0
LINE
  8
0
 10
-107.365
 20
-214.219
 11
-107.057
 21
-214.6
  0
LINE
  8
0
 10
-107.057
 20
-214.6
 11
-106.864
 21
-215.05
  0
LINE
  8
0
 10
-106.864
 20
-215.05
 11
-106.799
 21
-215.536
  0
LINE
  8
0
 10
-106.799
 20
-215.536
 11
-106.868
 21
-216.022
  0
LINE
  8
0
 10
-106.868
 20
-216.022
 11
-107.065
 21
-216.47
  0
LINE
  8
0
 10
-107.065
 20
-216.47
 11
-107.375
 21
-216.85
  0
LINE
  8
0
 10
-107.375
 20
-216.85
 11
-107.777
 21
-217.131
  0
LINE
  8
0
 10
-107.777
 20
-217.131
 11
-108.239
 21
-217.293
  0
LINE
  8
0
 10
-108.239
 20
-217.293
 11
-108.729
 21
-217.325
  0
LINE
  8
0
 10
-108.729
 20
-217.325
 11
-111.514
 21
-216.834
  0
LINE
  8
0
 10
-58.3038
 20
-219.762
 11
-58.7754
 21
-219.628
  0
LINE
  8
0
 10
-58.7754
 20
-219.628
 11
-59.1932
 21
-219.372
  0
LINE
  8
0
 10
-59.1932
 20
-219.372
 11
-59.5265
 21
-219.012
  0
LINE
  8
0
 10
-59.5265
 20
-219.012
 11
-59.7503
 21
-218.576
  0
LINE
  8
0
 10
-59.7503
 20
-218.576
 11
-59.8483
 21
-218.096
  0
LINE
  8
0
 10
-59.8483
 20
-218.096
 11
-59.8129
 21
-217.607
  0
LINE
  8
0
 10
-59.8129
 20
-217.607
 11
-59.3218
 21
-214.822
  0
LINE
  8
0
 10
-59.3218
 20
-214.822
 11
-59.1559
 21
-214.36
  0
LINE
  8
0
 10
-59.1559
 20
-214.36
 11
-58.8717
 21
-213.961
  0
LINE
  8
0
 10
-58.8717
 20
-213.961
 11
-58.4902
 21
-213.653
  0
LINE
  8
0
 10
-58.4902
 20
-213.653
 11
-58.0399
 21
-213.459
  0
LINE
  8
0
 10
-58.0399
 20
-213.459
 11
-57.554
 21
-213.395
  0
LINE
  8
0
 10
-57.554
 20
-213.395
 11
-57.0686
 21
-213.463
  0
LINE
  8
0
 10
-57.0686
 20
-213.463
 11
-56.6198
 21
-213.66
  0
LINE
  8
0
 10
-56.6198
 20
-213.66
 11
-56.2407
 21
-213.971
  0
LINE
  8
0
 10
-56.2407
 20
-213.971
 11
-55.9595
 21
-214.373
  0
LINE
  8
0
 10
-55.9595
 20
-214.373
 11
-55.7971
 21
-214.835
  0
LINE
  8
0
 10
-55.7971
 20
-214.835
 11
-55.7655
 21
-215.324
  0
LINE
  8
0
 10
-55.7655
 20
-215.324
 11
-56.2567
 21
-218.11
  0
LINE
  8
0
 10
-56.2567
 20
-218.11
 11
-56.3582
 21
-218.589
  0
LINE
  8
0
 10
-56.3582
 20
-218.589
 11
-56.5854
 21
-219.024
  0
LINE
  8
0
 10
-56.5854
 20
-219.024
 11
-56.9213
 21
-219.381
  0
LINE
  8
0
 10
-56.9213
 20
-219.381
 11
-57.3411
 21
-219.634
  0
LINE
  8
0
 10
-57.3411
 20
-219.634
 11
-57.8137
 21
-219.764
  0
LINE
  8
0
 10
-57.8137
 20
-219.764
 11
-58.3038
 21
-219.762
  0
LINE
  8
0
 10
-17.6751
 20
-218.347
 11
-18.1284
 21
-218.178
  0
LINE
  8
0
 10
-18.1284
 20
-218.178
 11
-18.5158
 21
-217.888
  0
LINE
  8
0
 10
-18.5158
 20
-217.888
 11
-18.8058
 21
-217.501
  0
LINE
  8
0
 10
-18.8058
 20
-217.501
 11
-18.9749
 21
-217.048
  0
LINE
  8
0
 10
-18.9749
 20
-217.048
 11
-19.0094
 21
-216.565
  0
LINE
  8
0
 10
-19.0094
 20
-216.565
 11
-18.9065
 21
-216.092
  0
LINE
  8
0
 10
-18.9065
 20
-216.092
 11
-18.6746
 21
-215.668
  0
LINE
  8
0
 10
-18.6746
 20
-215.668
 11
-18.3325
 21
-215.325
  0
LINE
  8
0
 10
-18.3325
 20
-215.325
 11
-17.9078
 21
-215.093
  0
LINE
  8
0
 10
-17.9078
 20
-215.093
 11
-17.435
 21
-214.991
  0
LINE
  8
0
 10
-17.435
 20
-214.991
 11
-16.9523
 21
-215.025
  0
LINE
  8
0
 10
-16.9523
 20
-215.025
 11
-16.499
 21
-215.194
  0
LINE
  8
0
 10
-16.499
 20
-215.194
 11
-16.1116
 21
-215.484
  0
LINE
  8
0
 10
-16.1116
 20
-215.484
 11
-15.8216
 21
-215.872
  0
LINE
  8
0
 10
-15.8216
 20
-215.872
 11
-15.6526
 21
-216.325
  0
LINE
  8
0
 10
-15.6526
 20
-216.325
 11
-15.618
 21
-216.808
  0
LINE
  8
0
 10
-15.618
 20
-216.808
 11
-15.7209
 21
-217.28
  0
LINE
  8
0
 10
-15.7209
 20
-217.28
 11
-15.9528
 21
-217.705
  0
LINE
  8
0
 10
-15.9528
 20
-217.705
 11
-16.2949
 21
-218.047
  0
LINE
  8
0
 10
-16.2949
 20
-218.047
 11
-16.7196
 21
-218.279
  0
LINE
  8
0
 10
-16.7196
 20
-218.279
 11
-17.1924
 21
-218.382
  0
LINE
  8
0
 10
-17.1924
 20
-218.382
 11
-17.6751
 21
-218.347
  0
LINE
  8
0
 10
4.7196
 20
-218.279
 11
4.29492
 21
-218.047
  0
LINE
  8
0
 10
4.29492
 20
-218.047
 11
3.95277
 21
-217.705
  0
LINE
  8
0
 10
3.95277
 20
-217.705
 11
3.72089
 21
-217.28
  0
LINE
  8
0
 10
3.72089
 20
-217.28
 11
3.61803
 21
-216.808
  0
LINE
  8
0
 10
3.61803
 20
-216.808
 11
3.65256
 21
-216.325
  0
LINE
  8
0
 10
3.65256
 20
-216.325
 11
3.82164
 21
-215.872
  0
LINE
  8
0
 10
3.82164
 20
-215.872
 11
4.11162
 21
-215.484
  0
LINE
  8
0
 10
4.11162
 20
-215.484
 11
4.49898
 21
-215.194
  0
LINE
  8
0
 10
4.49898
 20
-215.194
 11
4.95235
 21
-215.025
  0
LINE
  8
0
 10
4.95235
 20
-215.025
 11
5.43498
 21
-214.991
  0
LINE
  8
0
 10
5.43498
 20
-214.991
 11
5.90779
 21
-215.093
  0
LINE
  8
0
 10
5.90779
 20
-215.093
 11
6.33247
 21
-215.325
  0
LINE
  8
0
 10
6.33247
 20
-215.325
 11
6.67462
 21
-215.668
  0
LINE
  8
0
 10
6.67462
 20
-215.668
 11
6.90651
 21
-216.092
  0
LINE
  8
0
 10
6.90651
 20
-216.092
 11
7.00937
 21
-216.565
  0
LINE
  8
0
 10
7.00937
 20
-216.565
 11
6.97485
 21
-217.048
  0
LINE
  8
0
 10
6.97485
 20
-217.048
 11
6.80576
 21
-217.501
  0
LINE
  8
0
 10
6.80576
 20
-217.501
 11
6.51578
 21
-217.888
  0
LINE
  8
0
 10
6.51578
 20
-217.888
 11
6.12842
 21
-218.178
  0
LINE
  8
0
 10
6.12842
 20
-218.178
 11
5.67506
 21
-218.347
  0
LINE
  8
0
 10
5.67506
 20
-218.347
 11
5.19243
 21
-218.382
  0
LINE
  8
0
 10
5.19243
 20
-218.382
 11
4.7196
 21
-218.279
  0
LINE
  8
0
 10
-6.6212
 20
-238.982
 11
-7.11684
 21
-238.943
  0
LINE
  8
0
 10
-7.11684
 20
-238.943
 11
-7.61018
 21
-238.882
  0
LINE
  8
0
 10
-7.61018
 20
-238.882
 11
-8.10025
 21
-238.798
  0
LINE
  8
0
 10
-8.10025
 20
-238.798
 11
-8.58601
 21
-238.692
  0
LINE
  8
0
 10
-8.58601
 20
-238.692
 11
-9.06651
 21
-238.564
  0
LINE
  8
0
 10
-9.06651
 20
-238.564
 11
-9.54073
 21
-238.415
  0
LINE
  8
0
 10
-9.54073
 20
-238.415
 11
-10.0077
 21
-238.244
  0
LINE
  8
0
 10
-10.0077
 20
-238.244
 11
-10.4665
 21
-238.052
  0
LINE
  8
0
 10
-10.4665
 20
-238.052
 11
-10.9162
 21
-237.84
  0
LINE
  8
0
 10
-10.9162
 20
-237.84
 11
-11.3558
 21
-237.608
  0
LINE
  8
0
 10
-11.3558
 20
-237.608
 11
-11.7845
 21
-237.356
  0
LINE
  8
0
 10
-11.7845
 20
-237.356
 11
-12.2014
 21
-237.085
  0
LINE
  8
0
 10
-12.2014
 20
-237.085
 11
-12.6056
 21
-236.796
  0
LINE
  8
0
 10
-12.6056
 20
-236.796
 11
-12.9963
 21
-236.488
  0
LINE
  8
0
 10
-12.9963
 20
-236.488
 11
-13.3727
 21
-236.163
  0
LINE
  8
0
 10
-13.3727
 20
-236.163
 11
-13.7341
 21
-235.822
  0
LINE
  8
0
 10
-13.7341
 20
-235.822
 11
-14.0797
 21
-235.465
  0
LINE
  8
0
 10
-14.0797
 20
-235.465
 11
-14.4087
 21
-235.092
  0
LINE
  8
0
 10
-14.4087
 20
-235.092
 11
-14.7206
 21
-234.705
  0
LINE
  8
0
 10
-14.7206
 20
-234.705
 11
-15.0146
 21
-234.304
  0
LINE
  8
0
 10
-15.0146
 20
-234.304
 11
-15.2903
 21
-233.89
  0
LINE
  8
0
 10
-15.2903
 20
-233.89
 11
-15.5469
 21
-233.464
  0
LINE
  8
0
 10
-15.5469
 20
-233.464
 11
-15.7841
 21
-233.027
  0
LINE
  8
0
 10
-15.7841
 20
-233.027
 11
-16.0013
 21
-232.58
  0
LINE
  8
0
 10
-16.0013
 20
-232.58
 11
-16.198
 21
-232.123
  0
LINE
  8
0
 10
-16.198
 20
-232.123
 11
-16.3739
 21
-231.658
  0
LINE
  8
0
 10
-16.3739
 20
-231.658
 11
-16.5286
 21
-231.186
  0
LINE
  8
0
 10
-16.5286
 20
-231.186
 11
-16.6618
 21
-230.707
  0
LINE
  8
0
 10
-16.6618
 20
-230.707
 11
-16.7732
 21
-230.222
  0
LINE
  8
0
 10
-16.7732
 20
-230.222
 11
-16.8626
 21
-229.733
  0
LINE
  8
0
 10
-16.8626
 20
-229.733
 11
-16.9298
 21
-229.24
  0
LINE
  8
0
 10
-16.9298
 20
-229.24
 11
-16.9747
 21
-228.745
  0
LINE
  8
0
 10
-16.9747
 20
-228.745
 11
-16.9972
 21
-228.249
  0
LINE
  8
0
 10
-16.9972
 20
-228.249
 11
-16.9972
 21
-227.751
  0
LINE
  8
0
 10
-16.9972
 20
-227.751
 11
-16.9747
 21
-227.255
  0
LINE
  8
0
 10
-16.9747
 20
-227.255
 11
-16.9298
 21
-226.76
  0
LINE
  8
0
 10
-16.9298
 20
-226.76
 11
-16.8626
 21
-226.267
  0
LINE
  8
0
 10
-16.8626
 20
-226.267
 11
-16.7732
 21
-225.778
  0
LINE
  8
0
 10
-16.7732
 20
-225.778
 11
-16.6618
 21
-225.293
  0
LINE
  8
0
 10
-16.6618
 20
-225.293
 11
-16.5286
 21
-224.814
  0
LINE
  8
0
 10
-16.5286
 20
-224.814
 11
-16.3739
 21
-224.342
  0
LINE
  8
0
 10
-16.3739
 20
-224.342
 11
-16.198
 21
-223.877
  0
LINE
  8
0
 10
-16.198
 20
-223.877
 11
-16.0013
 21
-223.42
  0
LINE
  8
0
 10
-16.0013
 20
-223.42
 11
-15.7841
 21
-222.973
  0
LINE
  8
0
 10
-15.7841
 20
-222.973
 11
-15.5469
 21
-222.536
  0
LINE
  8
0
 10
-15.5469
 20
-222.536
 11
-15.2903
 21
-222.11
  0
LINE
  8
0
 10
-15.2903
 20
-222.11
 11
-15.0146
 21
-221.696
  0
LINE
  8
0
 10
-15.0146
 20
-221.696
 11
-14.7206
 21
-221.295
  0
LINE
  8
0
 10
-14.7206
 20
-221.295
 11
-14.4087
 21
-220.908
  0
LINE
  8
0
 10
-14.4087
 20
-220.908
 11
-14.0797
 21
-220.535
  0
LINE
  8
0
 10
-14.0797
 20
-220.535
 11
-13.7341
 21
-220.178
  0
LINE
  8
0
 10
-13.7341
 20
-220.178
 11
-13.3727
 21
-219.837
  0
LINE
  8
0
 10
-13.3727
 20
-219.837
 11
-12.9963
 21
-219.512
  0
LINE
  8
0
 10
-12.9963
 20
-219.512
 11
-12.6056
 21
-219.204
  0
LINE
  8
0
 10
-12.6056
 20
-219.204
 11
-12.2014
 21
-218.915
  0
LINE
  8
0
 10
-12.2014
 20
-218.915
 11
-11.7845
 21
-218.644
  0
LINE
  8
0
 10
-11.7845
 20
-218.644
 11
-11.3558
 21
-218.392
  0
LINE
  8
0
 10
-11.3558
 20
-218.392
 11
-10.9162
 21
-218.16
  0
LINE
  8
0
 10
-10.9162
 20
-218.16
 11
-10.4665
 21
-217.948
  0
LINE
  8
0
 10
-10.4665
 20
-217.948
 11
-10.0077
 21
-217.756
  0
LINE
  8
0
 10
-10.0077
 20
-217.756
 11
-9.54073
 21
-217.585
  0
LINE
  8
0
 10
-9.54073
 20
-217.585
 11
-9.06651
 21
-217.436
  0
LINE
  8
0
 10
-9.06651
 20
-217.436
 11
-8.58601
 21
-217.308
  0
LINE
  8
0
 10
-8.58601
 20
-217.308
 11
-8.10025
 21
-217.202
  0
LINE
  8
0
 10
-8.10025
 20
-217.202
 11
-7.61018
 21
-217.118
  0
LINE
  8
0
 10
-7.61018
 20
-217.118
 11
-7.11684
 21
-217.057
  0
LINE
  8
0
 10
-7.11684
 20
-217.057
 11
-6.6212
 21
-217.018
  0
LINE
  8
0
 10
-6.6212
 20
-217.018
 11
-6.1243
 21
-217.001
  0
LINE
  8
0
 10
-6.1243
 20
-217.001
 11
-5.62714
 21
-217.006
  0
LINE
  8
0
 10
-5.62714
 20
-217.006
 11
-5.13075
 21
-217.034
  0
LINE
  8
0
 10
-5.13075
 20
-217.034
 11
-4.63612
 21
-217.085
  0
LINE
  8
0
 10
-4.63612
 20
-217.085
 11
-4.1443
 21
-217.158
  0
LINE
  8
0
 10
-4.1443
 20
-217.158
 11
-3.65625
 21
-217.253
  0
LINE
  8
0
 10
-3.65625
 20
-217.253
 11
-3.173
 21
-217.369
  0
LINE
  8
0
 10
-3.173
 20
-217.369
 11
-2.69553
 21
-217.508
  0
LINE
  8
0
 10
-2.69553
 20
-217.508
 11
-2.22479
 21
-217.668
  0
LINE
  8
0
 10
-2.22479
 20
-217.668
 11
-1.76178
 21
-217.849
  0
LINE
  8
0
 10
-1.76178
 20
-217.849
 11
-1.30742
 21
-218.051
  0
LINE
  8
0
 10
-1.30742
 20
-218.051
 11
-0.862656
 21
-218.273
  0
LINE
  8
0
 10
-0.862656
 20
-218.273
 11
-0.428375
 21
-218.515
  0
LINE
  8
0
 10
-0.428375
 20
-218.515
 11
-0.00549316
 21
-218.777
  0
LINE
  8
0
 10
-0.00549316
 20
-218.777
 11
0.405136
 21
-219.057
  0
LINE
  8
0
 10
0.405136
 20
-219.057
 11
0.802704
 21
-219.356
  0
LINE
  8
0
 10
0.802704
 20
-219.356
 11
1.18637
 21
-219.672
  0
LINE
  8
0
 10
1.18637
 20
-219.672
 11
1.55534
 21
-220.005
  0
LINE
  8
0
 10
1.55534
 20
-220.005
 11
1.90889
 21
-220.355
  0
LINE
  8
0
 10
1.90889
 20
-220.355
 11
2.24628
 21
-220.72
  0
LINE
  8
0
 10
2.24628
 20
-220.72
 11
2.56682
 21
-221.1
  0
LINE
  8
0
 10
2.56682
 20
-221.1
 11
2.86986
 21
-221.494
  0
LINE
  8
0
 10
2.86986
 20
-221.494
 11
3.15479
 21
-221.902
  0
LINE
  8
0
 10
3.15479
 20
-221.902
 11
3.42101
 21
-222.322
  0
LINE
  8
0
 10
3.42101
 20
-222.322
 11
3.66797
 21
-222.753
  0
LINE
  8
0
 10
3.66797
 20
-222.753
 11
3.89519
 21
-223.195
  0
LINE
  8
0
 10
3.89519
 20
-223.195
 11
4.10219
 21
-223.647
  0
LINE
  8
0
 10
4.10219
 20
-223.647
 11
4.28856
 21
-224.108
  0
LINE
  8
0
 10
4.28856
 20
-224.108
 11
4.4539
 21
-224.577
  0
LINE
  8
0
 10
4.4539
 20
-224.577
 11
4.5979
 21
-225.053
  0
LINE
  8
0
 10
4.5979
 20
-225.053
 11
4.72023
 21
-225.535
  0
LINE
  8
0
 10
4.72023
 20
-225.535
 11
4.82068
 21
-226.022
  0
LINE
  8
0
 10
4.82068
 20
-226.022
 11
4.899
 21
-226.513
  0
LINE
  8
0
 10
4.899
 20
-226.513
 11
4.95508
 21
-227.007
  0
LINE
  8
0
 10
4.95508
 20
-227.007
 11
4.98875
 21
-227.503
  0
LINE
  8
0
 10
4.98875
 20
-227.503
 11
5
 21
-228
  0
LINE
  8
0
 10
5
 20
-228
 11
4.98875
 21
-228.497
  0
LINE
  8
0
 10
4.98875
 20
-228.497
 11
4.95508
 21
-228.993
  0
LINE
  8
0
 10
4.95508
 20
-228.993
 11
4.899
 21
-229.487
  0
LINE
  8
0
 10
4.899
 20
-229.487
 11
4.82068
 21
-229.978
  0
LINE
  8
0
 10
4.82068
 20
-229.978
 11
4.72023
 21
-230.465
  0
LINE
  8
0
 10
4.72023
 20
-230.465
 11
4.5979
 21
-230.947
  0
LINE
  8
0
 10
4.5979
 20
-230.947
 11
4.4539
 21
-231.423
  0
LINE
  8
0
 10
4.4539
 20
-231.423
 11
4.28856
 21
-231.892
  0
LINE
  8
0
 10
4.28856
 20
-231.892
 11
4.10219
 21
-232.353
  0
LINE
  8
0
 10
4.10219
 20
-232.353
 11
3.89519
 21
-232.805
  0
LINE
  8
0
 10
3.89519
 20
-232.805
 11
3.66797
 21
-233.247
  0
LINE
  8
0
 10
3.66797
 20
-233.247
 11
3.42101
 21
-233.678
  0
LINE
  8
0
 10
3.42101
 20
-233.678
 11
3.15479
 21
-234.098
  0
LINE
  8
0
 10
3.15479
 20
-234.098
 11
2.86986
 21
-234.506
  0
LINE
  8
0
 10
2.86986
 20
-234.506
 11
2.56682
 21
-234.9
  0
LINE
  8
0
 10
2.56682
 20
-234.9
 11
2.24628
 21
-235.28
  0
LINE
  8
0
 10
2.24628
 20
-235.28
 11
1.90889
 21
-235.645
  0
LINE
  8
0
 10
1.90889
 20
-235.645
 11
1.55534
 21
-235.995
  0
LINE
  8
0
 10
1.55534
 20
-235.995
 11
1.18637
 21
-236.328
  0
LINE
  8
0
 10
1.18637
 20
-236.328
 11
0.802704
 21
-236.644
  0
LINE
  8
0
 10
0.802704
 20
-236.644
 11
0.405136
 21
-236.943
  0
LINE
  8
0
 10
0.405136
 20
-236.943
 11
-0.00549316
 21
-237.223
  0
LINE
  8
0
 10
-0.00549316
 20
-237.223
 11
-0.428375
 21
-237.485
  0
LINE
  8
0
 10
-0.428375
 20
-237.485
 11
-0.862656
 21
-237.727
  0
LINE
  8
0
 10
-0.862656
 20
-237.727
 11
-1.30742
 21
-237.949
  0
LINE
  8
0
 10
-1.30742
 20
-237.949
 11
-1.76178
 21
-238.151
  0
LINE
  8
0
 10
-1.76178
 20
-238.151
 11
-2.22479
 21
-238.332
  0
LINE
  8
0
 10
-2.22479
 20
-238.332
 11
-2.69553
 21
-238.492
  0
LINE
  8
0
 10
-2.69553
 20
-238.492
 11
-3.173
 21
-238.631
  0
LINE
  8
0
 10
-3.173
 20
-238.631
 11
-3.65625
 21
-238.747
  0
LINE
  8
0
 10
-3.65625
 20
-238.747
 11
-4.1443
 21
-238.842
  0
LINE
  8
0
 10
-4.1443
 20
-238.842
 11
-4.63612
 21
-238.915
  0
LINE
  8
0
 10
-4.63612
 20
-238.915
 11
-5.13075
 21
-238.966
  0
LINE
  8
0
 10
-5.13075
 20
-238.966
 11
-5.62714
 21
-238.994
  0
LINE
  8
0
 10
-5.62714
 20
-238.994
 11
-6.1243
 21
-238.999
  0
LINE
  8
0
 10
-6.1243
 20
-238.999
 11
-6.6212
 21
-238.982
  0
LINE
  8
0
 10
-65.7973
 20
-224.903
 11
-68.5827
 21
-224.412
  0
LINE
  8
0
 10
-68.5827
 20
-224.412
 11
-69.044
 21
-224.246
  0
LINE
  8
0
 10
-69.044
 20
-224.246
 11
-69.4434
 21
-223.962
  0
LINE
  8
0
 10
-69.4434
 20
-223.962
 11
-69.7513
 21
-223.58
  0
LINE
  8
0
 10
-69.7513
 20
-223.58
 11
-69.9449
 21
-223.13
  0
LINE
  8
0
 10
-69.9449
 20
-223.13
 11
-70.0098
 21
-222.644
  0
LINE
  8
0
 10
-70.0098
 20
-222.644
 11
-69.9412
 21
-222.159
  0
LINE
  8
0
 10
-69.9412
 20
-222.159
 11
-69.7442
 21
-221.71
  0
LINE
  8
0
 10
-69.7442
 20
-221.71
 11
-69.4334
 21
-221.331
  0
LINE
  8
0
 10
-69.4334
 20
-221.331
 11
-69.0319
 21
-221.05
  0
LINE
  8
0
 10
-69.0319
 20
-221.05
 11
-68.5694
 21
-220.887
  0
LINE
  8
0
 10
-68.5694
 20
-220.887
 11
-68.0802
 21
-220.856
  0
LINE
  8
0
 10
-68.0802
 20
-220.856
 11
-65.2947
 21
-221.347
  0
LINE
  8
0
 10
-65.2947
 20
-221.347
 11
-64.8152
 21
-221.448
  0
LINE
  8
0
 10
-64.8152
 20
-221.448
 11
-64.3808
 21
-221.676
  0
LINE
  8
0
 10
-64.3808
 20
-221.676
 11
-64.0238
 21
-222.012
  0
LINE
  8
0
 10
-64.0238
 20
-222.012
 11
-63.7707
 21
-222.431
  0
LINE
  8
0
 10
-63.7707
 20
-222.431
 11
-63.6402
 21
-222.904
  0
LINE
  8
0
 10
-63.6402
 20
-222.904
 11
-63.6421
 21
-223.394
  0
LINE
  8
0
 10
-63.6421
 20
-223.394
 11
-63.7761
 21
-223.866
  0
LINE
  8
0
 10
-63.7761
 20
-223.866
 11
-64.0324
 21
-224.283
  0
LINE
  8
0
 10
-64.0324
 20
-224.283
 11
-64.3919
 21
-224.617
  0
LINE
  8
0
 10
-64.3919
 20
-224.617
 11
-64.828
 21
-224.841
  0
LINE
  8
0
 10
-64.828
 20
-224.841
 11
-65.3083
 21
-224.938
  0
LINE
  8
0
 10
-65.3083
 20
-224.938
 11
-65.7973
 21
-224.903
  0
LINE
  8
0
 10
-92.7082
 20
-243.853
 11
-93.1798
 21
-243.718
  0
LINE
  8
0
 10
-93.1798
 20
-243.718
 11
-93.5976
 21
-243.462
  0
LINE
  8
0
 10
-93.5976
 20
-243.462
 11
-93.9308
 21
-243.103
  0
LINE
  8
0
 10
-93.9308
 20
-243.103
 11
-94.1547
 21
-242.667
  0
LINE
  8
0
 10
-94.1547
 20
-242.667
 11
-94.2526
 21
-242.186
  0
LINE
  8
0
 10
-94.2526
 20
-242.186
 11
-94.2173
 21
-241.697
  0
LINE
  8
0
 10
-94.2173
 20
-241.697
 11
-93.7262
 21
-238.912
  0
LINE
  8
0
 10
-93.7262
 20
-238.912
 11
-93.5603
 21
-238.451
  0
LINE
  8
0
 10
-93.5603
 20
-238.451
 11
-93.2761
 21
-238.051
  0
LINE
  8
0
 10
-93.2761
 20
-238.051
 11
-92.8946
 21
-237.743
  0
LINE
  8
0
 10
-92.8946
 20
-237.743
 11
-92.4443
 21
-237.55
  0
LINE
  8
0
 10
-92.4443
 20
-237.55
 11
-91.9584
 21
-237.485
  0
LINE
  8
0
 10
-91.9584
 20
-237.485
 11
-91.473
 21
-237.553
  0
LINE
  8
0
 10
-91.473
 20
-237.553
 11
-91.0242
 21
-237.75
  0
LINE
  8
0
 10
-91.0242
 20
-237.75
 11
-90.6451
 21
-238.061
  0
LINE
  8
0
 10
-90.6451
 20
-238.061
 11
-90.3639
 21
-238.463
  0
LINE
  8
0
 10
-90.3639
 20
-238.463
 11
-90.2015
 21
-238.925
  0
LINE
  8
0
 10
-90.2015
 20
-238.925
 11
-90.1699
 21
-239.414
  0
LINE
  8
0
 10
-90.1699
 20
-239.414
 11
-90.6611
 21
-242.2
  0
LINE
  8
0
 10
-90.6611
 20
-242.2
 11
-90.7626
 21
-242.679
  0
LINE
  8
0
 10
-90.7626
 20
-242.679
 11
-90.9898
 21
-243.114
  0
LINE
  8
0
 10
-90.9898
 20
-243.114
 11
-91.3257
 21
-243.471
  0
LINE
  8
0
 10
-91.3257
 20
-243.471
 11
-91.7455
 21
-243.724
  0
LINE
  8
0
 10
-91.7455
 20
-243.724
 11
-92.218
 21
-243.854
  0
LINE
  8
0
 10
-92.218
 20
-243.854
 11
-92.7082
 21
-243.853
  0
LINE
  8
0
 10
4.95235
 20
-240.975
 11
4.49898
 21
-240.806
  0
LINE
  8
0
 10
4.49898
 20
-240.806
 11
4.11162
 21
-240.516
  0
LINE
  8
0
 10
4.11162
 20
-240.516
 11
3.82164
 21
-240.128
  0
LINE
  8
0
 10
3.82164
 20
-240.128
 11
3.65256
 21
-239.675
  0
LINE
  8
0
 10
3.65256
 20
-239.675
 11
3.61803
 21
-239.192
  0
LINE
  8
0
 10
3.61803
 20
-239.192
 11
3.72089
 21
-238.72
  0
LINE
  8
0
 10
3.72089
 20
-238.72
 11
3.95277
 21
-238.295
  0
LINE
  8
0
 10
3.95277
 20
-238.295
 11
4.29492
 21
-237.953
  0
LINE
  8
0
 10
4.29492
 20
-237.953
 11
4.7196
 21
-237.721
  0
LINE
  8
0
 10
4.7196
 20
-237.721
 11
5.19243
 21
-237.618
  0
LINE
  8
0
 10
5.19243
 20
-237.618
 11
5.67506
 21
-237.653
  0
LINE
  8
0
 10
5.67506
 20
-237.653
 11
6.12842
 21
-237.822
  0
LINE
  8
0
 10
6.12842
 20
-237.822
 11
6.51578
 21
-238.112
  0
LINE
  8
0
 10
6.51578
 20
-238.112
 11
6.80576
 21
-238.499
  0
LINE
  8
0
 10
6.80576
 20
-238.499
 11
6.97485
 21
-238.952
  0
LINE
  8
0
 10
6.97485
 20
-238.952
 11
7.00937
 21
-239.435
  0
LINE
  8
0
 10
7.00937
 20
-239.435
 11
6.90651
 21
-239.908
  0
LINE
  8
0
 10
6.90651
 20
-239.908
 11
6.67462
 21
-240.332
  0
LINE
  8
0
 10
6.67462
 20
-240.332
 11
6.33247
 21
-240.675
  0
LINE
  8
0
 10
6.33247
 20
-240.675
 11
5.90779
 21
-240.907
  0
LINE
  8
0
 10
5.90779
 20
-240.907
 11
5.43498
 21
-241.009
  0
LINE
  8
0
 10
5.43498
 20
-241.009
 11
4.95235
 21
-240.975
  0
LINE
  8
0
 10
-17.9078
 20
-240.907
 11
-18.3325
 21
-240.675
  0
LINE
  8
0
 10
-18.3325
 20
-240.675
 11
-18.6746
 21
-240.332
  0
LINE
  8
0
 10
-18.6746
 20
-240.332
 11
-18.9065
 21
-239.908
  0
LINE
  8
0
 10
-18.9065
 20
-239.908
 11
-19.0094
 21
-239.435
  0
LINE
  8
0
 10
-19.0094
 20
-239.435
 11
-18.9749
 21
-238.952
  0
LINE
  8
0
 10
-18.9749
 20
-238.952
 11
-18.8058
 21
-238.499
  0
LINE
  8
0
 10
-18.8058
 20
-238.499
 11
-18.5158
 21
-238.112
  0
LINE
  8
0
 10
-18.5158
 20
-238.112
 11
-18.1284
 21
-237.822
  0
LINE
  8
0
 10
-18.1284
 20
-237.822
 11
-17.6751
 21
-237.653
  0
LINE
  8
0
 10
-17.6751
 20
-237.653
 11
-17.1924
 21
-237.618
  0
LINE
  8
0
 10
-17.1924
 20
-237.618
 11
-16.7196
 21
-237.721
  0
LINE
  8
0
 10
-16.7196
 20
-237.721
 11
-16.2949
 21
-237.953
  0
LINE
  8
0
 10
-16.2949
 20
-237.953
 11
-15.9528
 21
-238.295
  0
LINE
  8
0
 10
-15.9528
 20
-238.295
 11
-15.7209
 21
-238.72
  0
LINE
  8
0
 10
-15.7209
 20
-238.72
 11
-15.618
 21
-239.192
  0
LINE
  8
0
 10
-15.618
 20
-239.192
 11
-15.6526
 21
-239.675
  0
LINE
  8
0
 10
-15.6526
 20
-239.675
 11
-15.8216
 21
-240.128
  0
LINE
  8
0
 10
-15.8216
 20
-240.128
 11
-16.1116
 21
-240.516
  0
LINE
  8
0
 10
-16.1116
 20
-240.516
 11
-16.499
 21
-240.806
  0
LINE
  8
0
 10
-16.499
 20
-240.806
 11
-16.9523
 21
-240.975
  0
LINE
  8
0
 10
-16.9523
 20
-240.975
 11
-17.435
 21
-241.009
  0
LINE
  8
0
 10
-17.435
 20
-241.009
 11
-17.9078
 21
-240.907
  0
ENDSEC
  0
SECTION
  2
OBJECTS
  0
DICTIONARY
  0
ENDSEC
  0
EOF
