  0
SECTION
  2
BLOCKS
  0
ENDSEC
  0
SECTION
  2
ENTITIES
  0
LINE
  8
0
 10
-54.1297
 20
-178.59
 11
-54.1365
 21
-178.592
  0
LINE
  8
0
 10
-54.1365
 20
-178.592
 11
-54.1549
 21
-178.605
  0
LINE
  8
0
 10
-54.1549
 20
-178.605
 11
-54.1297
 21
-178.59
  0
LINE
  8
0
 10
-54.5323
 20
-178.87
 11
-54.5445
 21
-178.878
  0
LINE
  8
0
 10
-54.5445
 20
-178.878
 11
-54.5679
 21
-178.907
  0
LINE
  8
0
 10
-54.5679
 20
-178.907
 11
-54.5323
 21
-178.87
  0
LINE
  8
0
 10
-54.8417
 20
-179.25
 11
-54.8555
 21
-179.267
  0
LINE
  8
0
 10
-54.8555
 20
-179.267
 11
-54.8727
 21
-179.309
  0
LINE
  8
0
 10
-54.8727
 20
-179.309
 11
-54.8417
 21
-179.25
  0
LINE
  8
0
 10
-55.0333
 20
-179.701
 11
-55.0443
 21
-179.728
  0
LINE
  8
0
 10
-55.0443
 20
-179.728
 11
-55.0493
 21
-179.777
  0
LINE
  8
0
 10
-55.0493
 20
-179.777
 11
-55.0333
 21
-179.701
  0
LINE
  8
0
 10
-55.0919
 20
-180.189
 11
-55.0956
 21
-180.224
  0
LINE
  8
0
 10
-55.0956
 20
-180.224
 11
-55.0865
 21
-180.272
  0
LINE
  8
0
 10
-55.0865
 20
-180.272
 11
-55.0919
 21
-180.189
  0
LINE
  8
0
 10
-55.0125
 20
-180.674
 11
-55.0052
 21
-180.713
  0
LINE
  8
0
 10
-55.0052
 20
-180.713
 11
-54.9834
 21
-180.756
  0
LINE
  8
0
 10
-54.9834
 20
-180.756
 11
-55.0125
 21
-180.674
  0
LINE
  8
0
 10
-54.8007
 20
-181.118
 11
-54.7804
 21
-181.158
  0
LINE
  8
0
 10
-54.7804
 20
-181.158
 11
-54.7497
 21
-181.191
  0
LINE
  8
0
 10
-54.7497
 20
-181.191
 11
-54.8007
 21
-181.118
  0
LINE
  8
0
 10
-52.1494
 20
-181.43
 11
-52.1449
 21
-181.425
  0
LINE
  8
0
 10
-52.1449
 20
-181.425
 11
-52.1678
 21
-181.443
  0
LINE
  8
0
 10
-52.1678
 20
-181.443
 11
-52.1494
 21
-181.43
  0
LINE
  8
0
 10
-54.4725
 20
-181.486
 11
-54.4396
 21
-181.521
  0
LINE
  8
0
 10
-54.4396
 20
-181.521
 11
-54.4047
 21
-181.542
  0
LINE
  8
0
 10
-54.4047
 20
-181.542
 11
-54.4725
 21
-181.486
  0
LINE
  8
0
 10
-52.5574
 20
-181.716
 11
-52.5452
 21
-181.707
  0
LINE
  8
0
 10
-52.5452
 20
-181.707
 11
-52.5929
 21
-181.728
  0
LINE
  8
0
 10
-52.5929
 20
-181.728
 11
-52.5574
 21
-181.716
  0
LINE
  8
0
 10
-54.0531
 20
-181.748
 11
-54.0102
 21
-181.774
  0
LINE
  8
0
 10
-54.0102
 20
-181.774
 11
-53.9762
 21
-181.782
  0
LINE
  8
0
 10
-53.9762
 20
-181.782
 11
-54.0531
 21
-181.748
  0
LINE
  8
0
 10
-53.0294
 20
-181.875
 11
-53.0084
 21
-181.868
  0
LINE
  8
0
 10
-53.0084
 20
-181.868
 11
-53.0749
 21
-181.877
  0
LINE
  8
0
 10
-53.0749
 20
-181.877
 11
-53.0294
 21
-181.875
  0
LINE
  8
0
 10
-53.4982
 20
-181.894
 11
-53.5748
 21
-181.883
  0
LINE
  8
0
 10
-53.5748
 20
-181.883
 11
-53.5271
 21
-181.895
  0
LINE
  8
0
 10
-53.5271
 20
-181.895
 11
-53.4982
 21
-181.894
  0
LINE
  8
0
 10
-39.7903
 20
-199.069
 11
-39.797
 21
-199.071
  0
LINE
  8
0
 10
-39.797
 20
-199.071
 11
-39.8155
 21
-199.084
  0
LINE
  8
0
 10
-39.8155
 20
-199.084
 11
-39.7903
 21
-199.069
  0
LINE
  8
0
 10
-40.1929
 20
-199.348
 11
-40.2051
 21
-199.357
  0
LINE
  8
0
 10
-40.2051
 20
-199.357
 11
-40.2285
 21
-199.386
  0
LINE
  8
0
 10
-40.2285
 20
-199.386
 11
-40.1929
 21
-199.348
  0
LINE
  8
0
 10
-40.5022
 20
-199.729
 11
-40.5161
 21
-199.746
  0
LINE
  8
0
 10
-40.5161
 20
-199.746
 11
-40.5333
 21
-199.788
  0
LINE
  8
0
 10
-40.5333
 20
-199.788
 11
-40.5022
 21
-199.729
  0
LINE
  8
0
 10
-40.6939
 20
-200.18
 11
-40.7048
 21
-200.207
  0
LINE
  8
0
 10
-40.7048
 20
-200.207
 11
-40.7099
 21
-200.256
  0
LINE
  8
0
 10
-40.7099
 20
-200.256
 11
-40.6939
 21
-200.18
  0
LINE
  8
0
 10
-40.7525
 20
-200.667
 11
-40.7561
 21
-200.702
  0
LINE
  8
0
 10
-40.7561
 20
-200.702
 11
-40.7471
 21
-200.751
  0
LINE
  8
0
 10
-40.7471
 20
-200.751
 11
-40.7525
 21
-200.667
  0
LINE
  8
0
 10
-40.6731
 20
-201.152
 11
-40.6658
 21
-201.192
  0
LINE
  8
0
 10
-40.6658
 20
-201.192
 11
-40.644
 21
-201.235
  0
LINE
  8
0
 10
-40.644
 20
-201.235
 11
-40.6731
 21
-201.152
  0
LINE
  8
0
 10
-40.4613
 20
-201.597
 11
-40.441
 21
-201.637
  0
LINE
  8
0
 10
-40.441
 20
-201.637
 11
-40.4103
 21
-201.669
  0
LINE
  8
0
 10
-40.4103
 20
-201.669
 11
-40.4613
 21
-201.597
  0
LINE
  8
0
 10
-37.81
 20
-201.909
 11
-37.8055
 21
-201.903
  0
LINE
  8
0
 10
-37.8055
 20
-201.903
 11
-37.8284
 21
-201.922
  0
LINE
  8
0
 10
-37.8284
 20
-201.922
 11
-37.81
 21
-201.909
  0
LINE
  8
0
 10
-40.1331
 20
-201.965
 11
-40.1002
 21
-202
  0
LINE
  8
0
 10
-40.1002
 20
-202
 11
-40.0653
 21
-202.02
  0
LINE
  8
0
 10
-40.0653
 20
-202.02
 11
-40.1331
 21
-201.965
  0
LINE
  8
0
 10
-38.218
 20
-202.195
 11
-38.2058
 21
-202.186
  0
LINE
  8
0
 10
-38.2058
 20
-202.186
 11
-38.2535
 21
-202.207
  0
LINE
  8
0
 10
-38.2535
 20
-202.207
 11
-38.218
 21
-202.195
  0
LINE
  8
0
 10
-39.7137
 20
-202.227
 11
-39.6708
 21
-202.252
  0
LINE
  8
0
 10
-39.6708
 20
-202.252
 11
-39.6368
 21
-202.261
  0
LINE
  8
0
 10
-39.6368
 20
-202.261
 11
-39.7137
 21
-202.227
  0
LINE
  8
0
 10
-38.69
 20
-202.354
 11
-38.669
 21
-202.347
  0
LINE
  8
0
 10
-38.669
 20
-202.347
 11
-38.7355
 21
-202.356
  0
LINE
  8
0
 10
-38.7355
 20
-202.356
 11
-38.69
 21
-202.354
  0
LINE
  8
0
 10
-39.1588
 20
-202.373
 11
-39.2354
 21
-202.362
  0
LINE
  8
0
 10
-39.2354
 20
-202.362
 11
-39.1877
 21
-202.374
  0
LINE
  8
0
 10
-39.1877
 20
-202.374
 11
-39.1588
 21
-202.373
  0
LINE
  8
0
 10
-36.7527
 20
-214.314
 11
-65.6226
 21
-173.083
  0
LINE
  8
0
 10
-65.6226
 20
-173.083
 11
-69.1894
 21
-172.512
  0
LINE
  8
0
 10
-69.1894
 20
-172.512
 11
-69.6822
 21
-172.434
  0
LINE
  8
0
 10
-69.6822
 20
-172.434
 11
-70.1761
 21
-172.364
  0
LINE
  8
0
 10
-70.1761
 20
-172.364
 11
-70.6711
 21
-172.301
  0
LINE
  8
0
 10
-70.6711
 20
-172.301
 11
-71.167
 21
-172.246
  0
LINE
  8
0
 10
-71.167
 20
-172.246
 11
-71.6636
 21
-172.199
  0
LINE
  8
0
 10
-71.6636
 20
-172.199
 11
-72.161
 21
-172.16
  0
LINE
  8
0
 10
-72.161
 20
-172.16
 11
-72.6589
 21
-172.128
  0
LINE
  8
0
 10
-72.6589
 20
-172.128
 11
-73.1572
 21
-172.104
  0
LINE
  8
0
 10
-73.1572
 20
-172.104
 11
-73.6559
 21
-172.088
  0
LINE
  8
0
 10
-73.6559
 20
-172.088
 11
-74.1547
 21
-172.08
  0
LINE
  8
0
 10
-74.1547
 20
-172.08
 11
-74.6536
 21
-172.079
  0
LINE
  8
0
 10
-74.6536
 20
-172.079
 11
-75.1525
 21
-172.087
  0
LINE
  8
0
 10
-75.1525
 20
-172.087
 11
-75.6512
 21
-172.102
  0
LINE
  8
0
 10
-75.6512
 20
-172.102
 11
-75.8574
 21
-172.111
  0
LINE
  8
0
 10
-75.8574
 20
-172.111
 11
-103.994
 21
-191.813
  0
LINE
  8
0
 10
-103.994
 20
-191.813
 11
-104.166
 21
-192.234
  0
LINE
  8
0
 10
-104.166
 20
-192.234
 11
-104.347
 21
-192.699
  0
LINE
  8
0
 10
-104.347
 20
-192.699
 11
-104.521
 21
-193.167
  0
LINE
  8
0
 10
-104.521
 20
-193.167
 11
-104.687
 21
-193.637
  0
LINE
  8
0
 10
-104.687
 20
-193.637
 11
-104.846
 21
-194.11
  0
LINE
  8
0
 10
-104.846
 20
-194.11
 11
-104.998
 21
-194.585
  0
LINE
  8
0
 10
-104.998
 20
-194.585
 11
-105.142
 21
-195.063
  0
LINE
  8
0
 10
-105.142
 20
-195.063
 11
-105.279
 21
-195.542
  0
LINE
  8
0
 10
-105.279
 20
-195.542
 11
-105.409
 21
-196.024
  0
LINE
  8
0
 10
-105.409
 20
-196.024
 11
-105.53
 21
-196.508
  0
LINE
  8
0
 10
-105.53
 20
-196.508
 11
-105.645
 21
-196.994
  0
LINE
  8
0
 10
-105.645
 20
-196.994
 11
-105.751
 21
-197.481
  0
LINE
  8
0
 10
-105.751
 20
-197.481
 11
-105.85
 21
-197.97
  0
LINE
  8
0
 10
-105.85
 20
-197.97
 11
-105.942
 21
-198.461
  0
LINE
  8
0
 10
-105.942
 20
-198.461
 11
-106.026
 21
-198.952
  0
LINE
  8
0
 10
-106.026
 20
-198.952
 11
-106.102
 21
-199.445
  0
LINE
  8
0
 10
-106.102
 20
-199.445
 11
-106.17
 21
-199.94
  0
LINE
  8
0
 10
-106.17
 20
-199.94
 11
-106.231
 21
-200.435
  0
LINE
  8
0
 10
-106.231
 20
-200.435
 11
-106.284
 21
-200.931
  0
LINE
  8
0
 10
-106.284
 20
-200.931
 11
-106.329
 21
-201.428
  0
LINE
  8
0
 10
-106.329
 20
-201.428
 11
-106.366
 21
-201.925
  0
LINE
  8
0
 10
-106.366
 20
-201.925
 11
-106.396
 21
-202.423
  0
LINE
  8
0
 10
-106.396
 20
-202.423
 11
-106.418
 21
-202.922
  0
LINE
  8
0
 10
-106.418
 20
-202.922
 11
-106.432
 21
-203.42
  0
LINE
  8
0
 10
-106.432
 20
-203.42
 11
-106.438
 21
-203.919
  0
LINE
  8
0
 10
-106.438
 20
-203.919
 11
-106.437
 21
-204.418
  0
LINE
  8
0
 10
-106.437
 20
-204.418
 11
-106.428
 21
-204.917
  0
LINE
  8
0
 10
-106.428
 20
-204.917
 11
-106.411
 21
-205.416
  0
LINE
  8
0
 10
-106.411
 20
-205.416
 11
-106.407
 21
-205.497
  0
LINE
  8
0
 10
-106.407
 20
-205.497
 11
-85.4068
 21
-268.497
  0
LINE
  8
0
 10
-85.4068
 20
-268.497
 11
-65.705
 21
-296.634
  0
LINE
  8
0
 10
-65.705
 20
-296.634
 11
-65.6302
 21
-296.665
  0
LINE
  8
0
 10
-65.6302
 20
-296.665
 11
-65.1675
 21
-296.852
  0
LINE
  8
0
 10
-65.1675
 20
-296.852
 11
-64.7019
 21
-297.031
  0
LINE
  8
0
 10
-64.7019
 20
-297.031
 11
-64.2336
 21
-297.203
  0
LINE
  8
0
 10
-64.2336
 20
-297.203
 11
-63.7626
 21
-297.368
  0
LINE
  8
0
 10
-63.7626
 20
-297.368
 11
-63.2891
 21
-297.525
  0
LINE
  8
0
 10
-63.2891
 20
-297.525
 11
-62.8133
 21
-297.675
  0
LINE
  8
0
 10
-62.8133
 20
-297.675
 11
-62.3351
 21
-297.817
  0
LINE
  8
0
 10
-62.3351
 20
-297.817
 11
-61.8548
 21
-297.952
  0
LINE
  8
0
 10
-61.8548
 20
-297.952
 11
-61.3725
 21
-298.08
  0
LINE
  8
0
 10
-61.3725
 20
-298.08
 11
-60.8882
 21
-298.2
  0
LINE
  8
0
 10
-60.8882
 20
-298.2
 11
-60.4021
 21
-298.312
  0
LINE
  8
0
 10
-60.4021
 20
-298.312
 11
-59.9143
 21
-298.417
  0
LINE
  8
0
 10
-59.9143
 20
-298.417
 11
-59.4249
 21
-298.514
  0
LINE
  8
0
 10
-59.4249
 20
-298.514
 11
-58.9341
 21
-298.603
  0
LINE
  8
0
 10
-58.9341
 20
-298.603
 11
-58.442
 21
-298.685
  0
LINE
  8
0
 10
-58.442
 20
-298.685
 11
-57.9486
 21
-298.759
  0
LINE
  8
0
 10
-57.9486
 20
-298.759
 11
-57.4541
 21
-298.826
  0
LINE
  8
0
 10
-57.4541
 20
-298.826
 11
-56.9587
 21
-298.884
  0
LINE
  8
0
 10
-56.9587
 20
-298.884
 11
-56.4624
 21
-298.936
  0
LINE
  8
0
 10
-56.4624
 20
-298.936
 11
-55.9654
 21
-298.979
  0
LINE
  8
0
 10
-55.9654
 20
-298.979
 11
-55.4677
 21
-299.014
  0
LINE
  8
0
 10
-55.4677
 20
-299.014
 11
-54.9696
 21
-299.042
  0
LINE
  8
0
 10
-54.9696
 20
-299.042
 11
-54.4711
 21
-299.062
  0
LINE
  8
0
 10
-54.4711
 20
-299.062
 11
-53.9724
 21
-299.074
  0
LINE
  8
0
 10
-53.9724
 20
-299.074
 11
-53.4735
 21
-299.079
  0
LINE
  8
0
 10
-53.4735
 20
-299.079
 11
-52.9746
 21
-299.075
  0
LINE
  8
0
 10
-52.9746
 20
-299.075
 11
-52.4758
 21
-299.064
  0
LINE
  8
0
 10
-52.4758
 20
-299.064
 11
-52.0212
 21
-299.047
  0
LINE
  8
0
 10
-52.0212
 20
-299.047
 11
-20.6621
 21
-283.696
  0
LINE
  8
0
 10
-20.6621
 20
-283.696
 11
-20.646
 21
-283.677
  0
LINE
  8
0
 10
-20.646
 20
-283.677
 11
-20.6217
 21
-283.662
  0
LINE
  8
0
 10
-20.6217
 20
-283.662
 11
-20.515
 21
-283.562
  0
LINE
  8
0
 10
-20.515
 20
-283.562
 11
-20.2653
 21
-283.433
  0
LINE
  8
0
 10
-20.2653
 20
-283.433
 11
-20.227
 21
-283.408
  0
LINE
  8
0
 10
-20.227
 20
-283.408
 11
-20.2057
 21
-283.402
  0
LINE
  8
0
 10
-20.2057
 20
-283.402
 11
-20.0894
 21
-283.342
  0
LINE
  8
0
 10
-20.0894
 20
-283.342
 11
-19.8267
 21
-283.287
  0
LINE
  8
0
 10
-19.8267
 20
-283.287
 11
-15.3371
 21
-281.089
  0
LINE
  8
0
 10
-15.3371
 20
-281.089
 11
-14.8899
 21
-280.867
  0
LINE
  8
0
 10
-14.8899
 20
-280.867
 11
-14.4466
 21
-280.638
  0
LINE
  8
0
 10
-14.4466
 20
-280.638
 11
-14.0073
 21
-280.401
  0
LINE
  8
0
 10
-14.0073
 20
-280.401
 11
-13.5721
 21
-280.156
  0
LINE
  8
0
 10
-13.5721
 20
-280.156
 11
-13.1412
 21
-279.904
  0
LINE
  8
0
 10
-13.1412
 20
-279.904
 11
-12.7147
 21
-279.645
  0
LINE
  8
0
 10
-12.7147
 20
-279.645
 11
-12.2928
 21
-279.378
  0
LINE
  8
0
 10
-12.2928
 20
-279.378
 11
-11.8755
 21
-279.104
  0
LINE
  8
0
 10
-11.8755
 20
-279.104
 11
-11.463
 21
-278.823
  0
LINE
  8
0
 10
-11.463
 20
-278.823
 11
-11.0553
 21
-278.535
  0
LINE
  8
0
 10
-11.0553
 20
-278.535
 11
-10.6527
 21
-278.239
  0
LINE
  8
0
 10
-10.6527
 20
-278.239
 11
-10.2553
 21
-277.937
  0
LINE
  8
0
 10
-10.2553
 20
-277.937
 11
-9.86308
 21
-277.629
  0
LINE
  8
0
 10
-9.86308
 20
-277.629
 11
-9.47626
 21
-277.313
  0
LINE
  8
0
 10
-9.47626
 20
-277.313
 11
-9.09492
 21
-276.991
  0
LINE
  8
0
 10
-9.09492
 20
-276.991
 11
-8.71919
 21
-276.662
  0
LINE
  8
0
 10
-8.71919
 20
-276.662
 11
-8.34917
 21
-276.327
  0
LINE
  8
0
 10
-8.34917
 20
-276.327
 11
-7.98497
 21
-275.986
  0
LINE
  8
0
 10
-7.98497
 20
-275.986
 11
-7.62669
 21
-275.638
  0
LINE
  8
0
 10
-7.62669
 20
-275.638
 11
-7.27446
 21
-275.284
  0
LINE
  8
0
 10
-7.27446
 20
-275.284
 11
-6.92838
 21
-274.925
  0
LINE
  8
0
 10
-6.92838
 20
-274.925
 11
-6.58853
 21
-274.559
  0
LINE
  8
0
 10
-6.58853
 20
-274.559
 11
-6.25502
 21
-274.187
  0
LINE
  8
0
 10
-6.25502
 20
-274.187
 11
-5.92796
 21
-273.81
  0
LINE
  8
0
 10
-5.92796
 20
-273.81
 11
-5.66814
 21
-273.5
  0
LINE
  8
0
 10
-5.66814
 20
-273.5
 11
-8
 21
-273.5
  0
LINE
  8
0
 10
-8
 20
-273.5
 11
-8
 21
-246.5
  0
LINE
  8
0
 10
-8
 20
-246.5
 11
-0.274551
 21
-246.5
  0
LINE
  8
0
 10
-0.274551
 20
-246.5
 11
-0.381042
 21
-246.157
  0
LINE
  8
0
 10
-0.381042
 20
-246.157
 11
-0.537354
 21
-245.683
  0
LINE
  8
0
 10
-0.537354
 20
-245.683
 11
-0.701797
 21
-245.212
  0
LINE
  8
0
 10
-0.701797
 20
-245.212
 11
-6.77017
 21
-228.34
  0
LINE
  8
0
 10
-6.77017
 20
-228.34
 11
-6.85948
 21
-228.556
  0
LINE
  8
0
 10
-6.85948
 20
-228.556
 11
-7.07301
 21
-229.007
  0
LINE
  8
0
 10
-7.07301
 20
-229.007
 11
-7.30875
 21
-229.446
  0
LINE
  8
0
 10
-7.30875
 20
-229.446
 11
-7.56609
 21
-229.873
  0
LINE
  8
0
 10
-7.56609
 20
-229.873
 11
-7.84439
 21
-230.287
  0
LINE
  8
0
 10
-7.84439
 20
-230.287
 11
-8.14296
 21
-230.686
  0
LINE
  8
0
 10
-8.14296
 20
-230.686
 11
-8.46107
 21
-231.07
  0
LINE
  8
0
 10
-8.46107
 20
-231.07
 11
-8.79794
 21
-231.438
  0
LINE
  8
0
 10
-8.79794
 20
-231.438
 11
-9.15271
 21
-231.788
  0
LINE
  8
0
 10
-9.15271
 20
-231.788
 11
-9.52449
 21
-232.12
  0
LINE
  8
0
 10
-9.52449
 20
-232.12
 11
-9.91238
 21
-232.434
  0
LINE
  8
0
 10
-9.91238
 20
-232.434
 11
-10.3154
 21
-232.727
  0
LINE
  8
0
 10
-10.3154
 20
-232.727
 11
-10.7326
 21
-233
  0
LINE
  8
0
 10
-10.7326
 20
-233
 11
-11.1628
 21
-233.252
  0
LINE
  8
0
 10
-11.1628
 20
-233.252
 11
-11.6051
 21
-233.482
  0
LINE
  8
0
 10
-11.6051
 20
-233.482
 11
-12.0583
 21
-233.69
  0
LINE
  8
0
 10
-12.0583
 20
-233.69
 11
-12.5213
 21
-233.875
  0
LINE
  8
0
 10
-12.5213
 20
-233.875
 11
-12.9929
 21
-234.037
  0
LINE
  8
0
 10
-12.9929
 20
-234.037
 11
-13.4721
 21
-234.175
  0
LINE
  8
0
 10
-13.4721
 20
-234.175
 11
-13.9575
 21
-234.289
  0
LINE
  8
0
 10
-13.9575
 20
-234.289
 11
-14.448
 21
-234.379
  0
LINE
  8
0
 10
-14.448
 20
-234.379
 11
-14.9423
 21
-234.444
  0
LINE
  8
0
 10
-14.9423
 20
-234.444
 11
-15.4393
 21
-234.484
  0
LINE
  8
0
 10
-15.4393
 20
-234.484
 11
-15.9377
 21
-234.5
  0
LINE
  8
0
 10
-15.9377
 20
-234.5
 11
-16.4362
 21
-234.49
  0
LINE
  8
0
 10
-16.4362
 20
-234.49
 11
-16.9336
 21
-234.456
  0
LINE
  8
0
 10
-16.9336
 20
-234.456
 11
-17.4288
 21
-234.397
  0
LINE
  8
0
 10
-17.4288
 20
-234.397
 11
-17.9203
 21
-234.314
  0
LINE
  8
0
 10
-17.9203
 20
-234.314
 11
-18.4071
 21
-234.206
  0
LINE
  8
0
 10
-18.4071
 20
-234.206
 11
-18.8879
 21
-234.074
  0
LINE
  8
0
 10
-18.8879
 20
-234.074
 11
-19.3616
 21
-233.918
  0
LINE
  8
0
 10
-19.3616
 20
-233.918
 11
-19.8268
 21
-233.739
  0
LINE
  8
0
 10
-19.8268
 20
-233.739
 11
-20.2826
 21
-233.537
  0
LINE
  8
0
 10
-20.2826
 20
-233.537
 11
-20.7277
 21
-233.312
  0
LINE
  8
0
 10
-20.7277
 20
-233.312
 11
-21.1611
 21
-233.065
  0
LINE
  8
0
 10
-21.1611
 20
-233.065
 11
-21.5816
 21
-232.797
  0
LINE
  8
0
 10
-21.5816
 20
-232.797
 11
-21.9882
 21
-232.509
  0
LINE
  8
0
 10
-21.9882
 20
-232.509
 11
-22.38
 21
-232.2
  0
LINE
  8
0
 10
-22.38
 20
-232.2
 11
-22.7559
 21
-231.873
  0
LINE
  8
0
 10
-22.7559
 20
-231.873
 11
-23.115
 21
-231.527
  0
LINE
  8
0
 10
-23.115
 20
-231.527
 11
-23.4564
 21
-231.163
  0
LINE
  8
0
 10
-23.4564
 20
-231.163
 11
-23.7793
 21
-230.784
  0
LINE
  8
0
 10
-23.7793
 20
-230.784
 11
-24.0828
 21
-230.388
  0
LINE
  8
0
 10
-24.0828
 20
-230.388
 11
-24.3663
 21
-229.978
  0
LINE
  8
0
 10
-24.3663
 20
-229.978
 11
-24.6289
 21
-229.554
  0
LINE
  8
0
 10
-24.6289
 20
-229.554
 11
-24.8701
 21
-229.117
  0
LINE
  8
0
 10
-24.8701
 20
-229.117
 11
-25.0892
 21
-228.67
  0
LINE
  8
0
 10
-25.0892
 20
-228.67
 11
-25.2858
 21
-228.211
  0
LINE
  8
0
 10
-25.2858
 20
-228.211
 11
-25.4592
 21
-227.744
  0
LINE
  8
0
 10
-25.4592
 20
-227.744
 11
-25.6092
 21
-227.268
  0
LINE
  8
0
 10
-25.6092
 20
-227.268
 11
-25.7352
 21
-226.786
  0
LINE
  8
0
 10
-25.7352
 20
-226.786
 11
-25.8371
 21
-226.298
  0
LINE
  8
0
 10
-25.8371
 20
-226.298
 11
-25.9144
 21
-225.805
  0
LINE
  8
0
 10
-25.9144
 20
-225.805
 11
-25.9672
 21
-225.309
  0
LINE
  8
0
 10
-25.9672
 20
-225.309
 11
-25.9951
 21
-224.812
  0
LINE
  8
0
 10
-25.9951
 20
-224.812
 11
-25.9982
 21
-224.313
  0
LINE
  8
0
 10
-25.9982
 20
-224.313
 11
-25.9765
 21
-223.815
  0
LINE
  8
0
 10
-25.9765
 20
-223.815
 11
-25.9299
 21
-223.318
  0
LINE
  8
0
 10
-25.9299
 20
-223.318
 11
-25.8587
 21
-222.825
  0
LINE
  8
0
 10
-25.8587
 20
-222.825
 11
-25.763
 21
-222.336
  0
LINE
  8
0
 10
-25.763
 20
-222.336
 11
-25.6429
 21
-221.852
  0
LINE
  8
0
 10
-25.6429
 20
-221.852
 11
-25.4989
 21
-221.374
  0
LINE
  8
0
 10
-25.4989
 20
-221.374
 11
-25.3313
 21
-220.905
  0
LINE
  8
0
 10
-25.3313
 20
-220.905
 11
-25.1405
 21
-220.444
  0
LINE
  8
0
 10
-25.1405
 20
-220.444
 11
-24.927
 21
-219.993
  0
LINE
  8
0
 10
-24.927
 20
-219.993
 11
-24.6912
 21
-219.554
  0
LINE
  8
0
 10
-24.6912
 20
-219.554
 11
-24.4339
 21
-219.127
  0
LINE
  8
0
 10
-24.4339
 20
-219.127
 11
-24.1556
 21
-218.713
  0
LINE
  8
0
 10
-24.1556
 20
-218.713
 11
-23.857
 21
-218.314
  0
LINE
  8
0
 10
-23.857
 20
-218.314
 11
-23.5389
 21
-217.93
  0
LINE
  8
0
 10
-23.5389
 20
-217.93
 11
-23.202
 21
-217.562
  0
LINE
  8
0
 10
-23.202
 20
-217.562
 11
-22.8473
 21
-217.212
  0
LINE
  8
0
 10
-22.8473
 20
-217.212
 11
-22.4755
 21
-216.88
  0
LINE
  8
0
 10
-22.4755
 20
-216.88
 11
-22.0876
 21
-216.566
  0
LINE
  8
0
 10
-22.0876
 20
-216.566
 11
-21.6846
 21
-216.273
  0
LINE
  8
0
 10
-21.6846
 20
-216.273
 11
-21.2674
 21
-216
  0
LINE
  8
0
 10
-21.2674
 20
-216
 11
-20.8372
 21
-215.748
  0
LINE
  8
0
 10
-20.8372
 20
-215.748
 11
-20.3949
 21
-215.518
  0
LINE
  8
0
 10
-20.3949
 20
-215.518
 11
-19.9417
 21
-215.31
  0
LINE
  8
0
 10
-19.9417
 20
-215.31
 11
-19.4787
 21
-215.125
  0
LINE
  8
0
 10
-19.4787
 20
-215.125
 11
-19.007
 21
-214.963
  0
LINE
  8
0
 10
-19.007
 20
-214.963
 11
-18.5279
 21
-214.825
  0
LINE
  8
0
 10
-18.5279
 20
-214.825
 11
-18.0425
 21
-214.711
  0
LINE
  8
0
 10
-18.0425
 20
-214.711
 11
-17.552
 21
-214.621
  0
LINE
  8
0
 10
-17.552
 20
-214.621
 11
-17.0577
 21
-214.556
  0
LINE
  8
0
 10
-17.0577
 20
-214.556
 11
-16.5607
 21
-214.516
  0
LINE
  8
0
 10
-16.5607
 20
-214.516
 11
-16.0623
 21
-214.5
  0
LINE
  8
0
 10
-16.0623
 20
-214.5
 11
-15.5638
 21
-214.51
  0
LINE
  8
0
 10
-15.5638
 20
-214.51
 11
-15.0664
 21
-214.544
  0
LINE
  8
0
 10
-15.0664
 20
-214.544
 11
-14.5712
 21
-214.603
  0
LINE
  8
0
 10
-14.5712
 20
-214.603
 11
-14.0797
 21
-214.686
  0
LINE
  8
0
 10
-14.0797
 20
-214.686
 11
-13.5929
 21
-214.794
  0
LINE
  8
0
 10
-13.5929
 20
-214.794
 11
-13.1121
 21
-214.926
  0
LINE
  8
0
 10
-13.1121
 20
-214.926
 11
-12.6384
 21
-215.082
  0
LINE
  8
0
 10
-12.6384
 20
-215.082
 11
-12.1732
 21
-215.261
  0
LINE
  8
0
 10
-12.1732
 20
-215.261
 11
-11.7174
 21
-215.463
  0
LINE
  8
0
 10
-11.7174
 20
-215.463
 11
-11.3318
 21
-215.658
  0
LINE
  8
0
 10
-11.3318
 20
-215.658
 11
-16.4023
 21
-201.561
  0
LINE
  8
0
 10
-16.4023
 20
-201.561
 11
-21.6291
 21
-205.221
  0
LINE
  8
0
 10
-21.6291
 20
-205.221
 11
-37.1156
 21
-183.104
  0
LINE
  8
0
 10
-37.1156
 20
-183.104
 11
-32.4747
 21
-179.854
  0
LINE
  8
0
 10
-32.4747
 20
-179.854
 11
-32.8622
 21
-179.657
  0
LINE
  8
0
 10
-32.8622
 20
-179.657
 11
-33.3113
 21
-179.439
  0
LINE
  8
0
 10
-33.3113
 20
-179.439
 11
-33.764
 21
-179.229
  0
LINE
  8
0
 10
-33.764
 20
-179.229
 11
-34.2203
 21
-179.027
  0
LINE
  8
0
 10
-34.2203
 20
-179.027
 11
-34.68
 21
-178.832
  0
LINE
  8
0
 10
-34.68
 20
-178.832
 11
-35.143
 21
-178.645
  0
LINE
  8
0
 10
-35.143
 20
-178.645
 11
-35.6091
 21
-178.467
  0
LINE
  8
0
 10
-35.6091
 20
-178.467
 11
-36.0783
 21
-178.296
  0
LINE
  8
0
 10
-36.0783
 20
-178.296
 11
-36.5503
 21
-178.133
  0
LINE
  8
0
 10
-36.5503
 20
-178.133
 11
-37.025
 21
-177.979
  0
LINE
  8
0
 10
-37.025
 20
-177.979
 11
-37.5023
 21
-177.833
  0
LINE
  8
0
 10
-37.5023
 20
-177.833
 11
-37.9821
 21
-177.695
  0
LINE
  8
0
 10
-37.9821
 20
-177.695
 11
-38.4642
 21
-177.565
  0
LINE
  8
0
 10
-38.4642
 20
-177.565
 11
-38.9484
 21
-177.444
  0
LINE
  8
0
 10
-38.9484
 20
-177.444
 11
-39.4347
 21
-177.331
  0
LINE
  8
0
 10
-39.4347
 20
-177.331
 11
-39.9228
 21
-177.226
  0
LINE
  8
0
 10
-39.9228
 20
-177.226
 11
-40.4126
 21
-177.13
  0
LINE
  8
0
 10
-40.4126
 20
-177.13
 11
-40.9041
 21
-177.042
  0
LINE
  8
0
 10
-40.9041
 20
-177.042
 11
-41.3969
 21
-176.963
  0
LINE
  8
0
 10
-41.3969
 20
-176.963
 11
-49.1231
 21
-175.726
  0
LINE
  8
0
 10
-49.1231
 20
-175.726
 11
-26.9229
 21
-207.431
  0
LINE
  8
0
 10
-26.9229
 20
-207.431
 11
-30.3961
 21
-209.863
  0
LINE
  8
0
 10
-30.3961
 20
-209.863
 11
-30.1772
 21
-210.289
  0
LINE
  8
0
 10
-30.1772
 20
-210.289
 11
-30.0815
 21
-210.759
  0
LINE
  8
0
 10
-30.0815
 20
-210.759
 11
-30.116
 21
-211.237
  0
LINE
  8
0
 10
-30.116
 20
-211.237
 11
-30.2782
 21
-211.688
  0
LINE
  8
0
 10
-30.2782
 20
-211.688
 11
-30.5561
 21
-212.079
  0
LINE
  8
0
 10
-30.5561
 20
-212.079
 11
-30.929
 21
-212.38
  0
LINE
  8
0
 10
-30.929
 20
-212.38
 11
-31.3694
 21
-212.569
  0
LINE
  8
0
 10
-31.3694
 20
-212.569
 11
-31.8445
 21
-212.632
  0
LINE
  8
0
 10
-31.8445
 20
-212.632
 11
-32.3191
 21
-212.565
  0
LINE
  8
0
 10
-32.3191
 20
-212.565
 11
-32.758
 21
-212.373
  0
LINE
  8
0
 10
-32.758
 20
-212.373
 11
-33.1286
 21
-212.069
  0
LINE
  8
0
 10
-33.1286
 20
-212.069
 11
-33.2661
 21
-211.872
  0
LINE
  8
0
 10
-33.2661
 20
-211.872
 11
-36.7527
 21
-214.314
  0
LINE
  8
0
 10
-70.7167
 20
-185.727
 11
-71.1992
 21
-185.706
  0
LINE
  8
0
 10
-71.1992
 20
-185.706
 11
-71.6598
 21
-185.561
  0
LINE
  8
0
 10
-71.6598
 20
-185.561
 11
-72.0671
 21
-185.301
  0
LINE
  8
0
 10
-72.0671
 20
-185.301
 11
-72.3934
 21
-184.945
  0
LINE
  8
0
 10
-72.3934
 20
-184.945
 11
-72.6164
 21
-184.517
  0
LINE
  8
0
 10
-72.6164
 20
-184.517
 11
-72.7209
 21
-184.045
  0
LINE
  8
0
 10
-72.7209
 20
-184.045
 11
-72.6999
 21
-183.563
  0
LINE
  8
0
 10
-72.6999
 20
-183.563
 11
-72.2087
 21
-180.777
  0
LINE
  8
0
 10
-72.2087
 20
-180.777
 11
-72.0635
 21
-180.317
  0
LINE
  8
0
 10
-72.0635
 20
-180.317
 11
-71.804
 21
-179.91
  0
LINE
  8
0
 10
-71.804
 20
-179.91
 11
-71.4479
 21
-179.583
  0
LINE
  8
0
 10
-71.4479
 20
-179.583
 11
-71.0196
 21
-179.36
  0
LINE
  8
0
 10
-71.0196
 20
-179.36
 11
-70.548
 21
-179.256
  0
LINE
  8
0
 10
-70.548
 20
-179.256
 11
-70.0656
 21
-179.277
  0
LINE
  8
0
 10
-70.0656
 20
-179.277
 11
-69.605
 21
-179.422
  0
LINE
  8
0
 10
-69.605
 20
-179.422
 11
-69.1977
 21
-179.681
  0
LINE
  8
0
 10
-69.1977
 20
-179.681
 11
-68.8714
 21
-180.038
  0
LINE
  8
0
 10
-68.8714
 20
-180.038
 11
-68.6484
 21
-180.466
  0
LINE
  8
0
 10
-68.6484
 20
-180.466
 11
-68.5439
 21
-180.937
  0
LINE
  8
0
 10
-68.5439
 20
-180.937
 11
-68.5649
 21
-181.42
  0
LINE
  8
0
 10
-68.5649
 20
-181.42
 11
-69.0561
 21
-184.205
  0
LINE
  8
0
 10
-69.0561
 20
-184.205
 11
-69.2013
 21
-184.666
  0
LINE
  8
0
 10
-69.2013
 20
-184.666
 11
-69.4608
 21
-185.073
  0
LINE
  8
0
 10
-69.4608
 20
-185.073
 11
-69.8168
 21
-185.4
  0
LINE
  8
0
 10
-69.8168
 20
-185.4
 11
-70.2452
 21
-185.623
  0
LINE
  8
0
 10
-70.2452
 20
-185.623
 11
-70.7167
 21
-185.727
  0
LINE
  8
0
 10
-74.7231
 20
-216.075
 11
-75.2219
 21
-216.053
  0
LINE
  8
0
 10
-75.2219
 20
-216.053
 11
-75.7194
 21
-216.01
  0
LINE
  8
0
 10
-75.7194
 20
-216.01
 11
-76.2146
 21
-215.947
  0
LINE
  8
0
 10
-76.2146
 20
-215.947
 11
-76.7067
 21
-215.862
  0
LINE
  8
0
 10
-76.7067
 20
-215.862
 11
-77.195
 21
-215.758
  0
LINE
  8
0
 10
-77.195
 20
-215.758
 11
-77.6784
 21
-215.633
  0
LINE
  8
0
 10
-77.6784
 20
-215.633
 11
-78.1562
 21
-215.488
  0
LINE
  8
0
 10
-78.1562
 20
-215.488
 11
-78.6277
 21
-215.324
  0
LINE
  8
0
 10
-78.6277
 20
-215.324
 11
-79.0918
 21
-215.14
  0
LINE
  8
0
 10
-79.0918
 20
-215.14
 11
-79.5479
 21
-214.937
  0
LINE
  8
0
 10
-79.5479
 20
-214.937
 11
-79.9952
 21
-214.715
  0
LINE
  8
0
 10
-79.9952
 20
-214.715
 11
-80.4328
 21
-214.474
  0
LINE
  8
0
 10
-80.4328
 20
-214.474
 11
-80.8601
 21
-214.216
  0
LINE
  8
0
 10
-80.8601
 20
-214.216
 11
-81.2762
 21
-213.94
  0
LINE
  8
0
 10
-81.2762
 20
-213.94
 11
-81.6805
 21
-213.647
  0
LINE
  8
0
 10
-81.6805
 20
-213.647
 11
-82.0723
 21
-213.338
  0
LINE
  8
0
 10
-82.0723
 20
-213.338
 11
-82.4509
 21
-213.012
  0
LINE
  8
0
 10
-82.4509
 20
-213.012
 11
-82.8155
 21
-212.671
  0
LINE
  8
0
 10
-82.8155
 20
-212.671
 11
-83.1657
 21
-212.315
  0
LINE
  8
0
 10
-83.1657
 20
-212.315
 11
-83.5008
 21
-211.945
  0
LINE
  8
0
 10
-83.5008
 20
-211.945
 11
-83.8202
 21
-211.561
  0
LINE
  8
0
 10
-83.8202
 20
-211.561
 11
-84.1233
 21
-211.165
  0
LINE
  8
0
 10
-84.1233
 20
-211.165
 11
-84.4097
 21
-210.756
  0
LINE
  8
0
 10
-84.4097
 20
-210.756
 11
-84.6788
 21
-210.335
  0
LINE
  8
0
 10
-84.6788
 20
-210.335
 11
-84.9302
 21
-209.904
  0
LINE
  8
0
 10
-84.9302
 20
-209.904
 11
-85.1634
 21
-209.462
  0
LINE
  8
0
 10
-85.1634
 20
-209.462
 11
-85.3781
 21
-209.011
  0
LINE
  8
0
 10
-85.3781
 20
-209.011
 11
-85.5738
 21
-208.552
  0
LINE
  8
0
 10
-85.5738
 20
-208.552
 11
-85.7503
 21
-208.085
  0
LINE
  8
0
 10
-85.7503
 20
-208.085
 11
-85.9072
 21
-207.611
  0
LINE
  8
0
 10
-85.9072
 20
-207.611
 11
-86.0442
 21
-207.131
  0
LINE
  8
0
 10
-86.0442
 20
-207.131
 11
-86.1611
 21
-206.645
  0
LINE
  8
0
 10
-86.1611
 20
-206.645
 11
-86.2577
 21
-206.156
  0
LINE
  8
0
 10
-86.2577
 20
-206.156
 11
-86.3339
 21
-205.662
  0
LINE
  8
0
 10
-86.3339
 20
-205.662
 11
-86.3895
 21
-205.166
  0
LINE
  8
0
 10
-86.3895
 20
-205.166
 11
-86.4243
 21
-204.668
  0
LINE
  8
0
 10
-86.4243
 20
-204.668
 11
-86.4385
 21
-204.169
  0
LINE
  8
0
 10
-86.4385
 20
-204.169
 11
-86.4318
 21
-203.67
  0
LINE
  8
0
 10
-86.4318
 20
-203.67
 11
-86.4044
 21
-203.171
  0
LINE
  8
0
 10
-86.4044
 20
-203.171
 11
-86.3563
 21
-202.674
  0
LINE
  8
0
 10
-86.3563
 20
-202.674
 11
-86.2876
 21
-202.18
  0
LINE
  8
0
 10
-86.2876
 20
-202.18
 11
-86.1983
 21
-201.688
  0
LINE
  8
0
 10
-86.1983
 20
-201.688
 11
-86.0887
 21
-201.201
  0
LINE
  8
0
 10
-86.0887
 20
-201.201
 11
-85.9589
 21
-200.719
  0
LINE
  8
0
 10
-85.9589
 20
-200.719
 11
-85.8092
 21
-200.243
  0
LINE
  8
0
 10
-85.8092
 20
-200.243
 11
-85.6398
 21
-199.773
  0
LINE
  8
0
 10
-85.6398
 20
-199.773
 11
-85.451
 21
-199.311
  0
LINE
  8
0
 10
-85.451
 20
-199.311
 11
-85.2431
 21
-198.857
  0
LINE
  8
0
 10
-85.2431
 20
-198.857
 11
-85.0166
 21
-198.412
  0
LINE
  8
0
 10
-85.0166
 20
-198.412
 11
-84.7717
 21
-197.977
  0
LINE
  8
0
 10
-84.7717
 20
-197.977
 11
-84.5089
 21
-197.552
  0
LINE
  8
0
 10
-84.5089
 20
-197.552
 11
-84.2287
 21
-197.139
  0
LINE
  8
0
 10
-84.2287
 20
-197.139
 11
-83.9315
 21
-196.738
  0
LINE
  8
0
 10
-83.9315
 20
-196.738
 11
-83.618
 21
-196.349
  0
LINE
  8
0
 10
-83.618
 20
-196.349
 11
-83.2885
 21
-195.974
  0
LINE
  8
0
 10
-83.2885
 20
-195.974
 11
-82.9437
 21
-195.613
  0
LINE
  8
0
 10
-82.9437
 20
-195.613
 11
-82.5842
 21
-195.267
  0
LINE
  8
0
 10
-82.5842
 20
-195.267
 11
-82.2105
 21
-194.935
  0
LINE
  8
0
 10
-82.2105
 20
-194.935
 11
-81.8235
 21
-194.62
  0
LINE
  8
0
 10
-81.8235
 20
-194.62
 11
-81.4236
 21
-194.321
  0
LINE
  8
0
 10
-81.4236
 20
-194.321
 11
-81.0117
 21
-194.039
  0
LINE
  8
0
 10
-81.0117
 20
-194.039
 11
-80.5883
 21
-193.774
  0
LINE
  8
0
 10
-80.5883
 20
-193.774
 11
-80.1544
 21
-193.527
  0
LINE
  8
0
 10
-80.1544
 20
-193.527
 11
-79.7105
 21
-193.299
  0
LINE
  8
0
 10
-79.7105
 20
-193.299
 11
-79.2575
 21
-193.089
  0
LINE
  8
0
 10
-79.2575
 20
-193.089
 11
-78.7961
 21
-192.898
  0
LINE
  8
0
 10
-78.7961
 20
-192.898
 11
-78.3273
 21
-192.726
  0
LINE
  8
0
 10
-78.3273
 20
-192.726
 11
-77.8517
 21
-192.574
  0
LINE
  8
0
 10
-77.8517
 20
-192.574
 11
-77.3701
 21
-192.442
  0
LINE
  8
0
 10
-77.3701
 20
-192.442
 11
-76.8835
 21
-192.33
  0
LINE
  8
0
 10
-76.8835
 20
-192.33
 11
-76.3927
 21
-192.239
  0
LINE
  8
0
 10
-76.3927
 20
-192.239
 11
-75.8985
 21
-192.168
  0
LINE
  8
0
 10
-75.8985
 20
-192.168
 11
-75.4017
 21
-192.117
  0
LINE
  8
0
 10
-75.4017
 20
-192.117
 11
-74.9034
 21
-192.088
  0
LINE
  8
0
 10
-74.9034
 20
-192.088
 11
-74.4041
 21
-192.079
  0
LINE
  8
0
 10
-74.4041
 20
-192.079
 11
-73.905
 21
-192.091
  0
LINE
  8
0
 10
-73.905
 20
-192.091
 11
-73.4068
 21
-192.123
  0
LINE
  8
0
 10
-73.4068
 20
-192.123
 11
-72.9103
 21
-192.176
  0
LINE
  8
0
 10
-72.9103
 20
-192.176
 11
-72.4165
 21
-192.25
  0
LINE
  8
0
 10
-72.4165
 20
-192.25
 11
-71.9262
 21
-192.345
  0
LINE
  8
0
 10
-71.9262
 20
-192.345
 11
-71.4403
 21
-192.459
  0
LINE
  8
0
 10
-71.4403
 20
-192.459
 11
-70.9595
 21
-192.594
  0
LINE
  8
0
 10
-70.9595
 20
-192.594
 11
-70.4848
 21
-192.749
  0
LINE
  8
0
 10
-70.4848
 20
-192.749
 11
-70.0169
 21
-192.923
  0
LINE
  8
0
 10
-70.0169
 20
-192.923
 11
-69.5567
 21
-193.117
  0
LINE
  8
0
 10
-69.5567
 20
-193.117
 11
-69.1049
 21
-193.329
  0
LINE
  8
0
 10
-69.1049
 20
-193.329
 11
-68.6624
 21
-193.56
  0
LINE
  8
0
 10
-68.6624
 20
-193.56
 11
-68.2298
 21
-193.81
  0
LINE
  8
0
 10
-68.2298
 20
-193.81
 11
-67.8081
 21
-194.077
  0
LINE
  8
0
 10
-67.8081
 20
-194.077
 11
-67.3977
 21
-194.362
  0
LINE
  8
0
 10
-67.3977
 20
-194.362
 11
-66.9996
 21
-194.663
  0
LINE
  8
0
 10
-66.9996
 20
-194.663
 11
-66.6144
 21
-194.98
  0
LINE
  8
0
 10
-66.6144
 20
-194.98
 11
-66.2427
 21
-195.314
  0
LINE
  8
0
 10
-66.2427
 20
-195.314
 11
-65.8852
 21
-195.662
  0
LINE
  8
0
 10
-65.8852
 20
-195.662
 11
-65.5424
 21
-196.025
  0
LINE
  8
0
 10
-65.5424
 20
-196.025
 11
-65.2151
 21
-196.402
  0
LINE
  8
0
 10
-65.2151
 20
-196.402
 11
-64.9038
 21
-196.793
  0
LINE
  8
0
 10
-64.9038
 20
-196.793
 11
-64.609
 21
-197.196
  0
LINE
  8
0
 10
-64.609
 20
-197.196
 11
-64.3312
 21
-197.611
  0
LINE
  8
0
 10
-64.3312
 20
-197.611
 11
-64.0709
 21
-198.037
  0
LINE
  8
0
 10
-64.0709
 20
-198.037
 11
-63.8285
 21
-198.473
  0
LINE
  8
0
 10
-63.8285
 20
-198.473
 11
-63.6045
 21
-198.919
  0
LINE
  8
0
 10
-63.6045
 20
-198.919
 11
-63.3993
 21
-199.375
  0
LINE
  8
0
 10
-63.3993
 20
-199.375
 11
-63.2131
 21
-199.838
  0
LINE
  8
0
 10
-63.2131
 20
-199.838
 11
-63.0464
 21
-200.309
  0
LINE
  8
0
 10
-63.0464
 20
-200.309
 11
-62.8995
 21
-200.786
  0
LINE
  8
0
 10
-62.8995
 20
-200.786
 11
-62.7725
 21
-201.269
  0
LINE
  8
0
 10
-62.7725
 20
-201.269
 11
-62.6657
 21
-201.756
  0
LINE
  8
0
 10
-62.6657
 20
-201.756
 11
-62.5793
 21
-202.248
  0
LINE
  8
0
 10
-62.5793
 20
-202.248
 11
-62.5134
 21
-202.743
  0
LINE
  8
0
 10
-62.5134
 20
-202.743
 11
-62.4681
 21
-203.24
  0
LINE
  8
0
 10
-62.4681
 20
-203.24
 11
-62.4436
 21
-203.739
  0
LINE
  8
0
 10
-62.4436
 20
-203.739
 11
-62.4399
 21
-204.238
  0
LINE
  8
0
 10
-62.4399
 20
-204.238
 11
-62.4569
 21
-204.737
  0
LINE
  8
0
 10
-62.4569
 20
-204.737
 11
-62.4947
 21
-205.235
  0
LINE
  8
0
 10
-62.4947
 20
-205.235
 11
-62.5531
 21
-205.731
  0
LINE
  8
0
 10
-62.5531
 20
-205.731
 11
-62.6321
 21
-206.224
  0
LINE
  8
0
 10
-62.6321
 20
-206.224
 11
-62.7316
 21
-206.713
  0
LINE
  8
0
 10
-62.7316
 20
-206.713
 11
-62.8513
 21
-207.198
  0
LINE
  8
0
 10
-62.8513
 20
-207.198
 11
-62.9911
 21
-207.677
  0
LINE
  8
0
 10
-62.9911
 20
-207.677
 11
-63.1507
 21
-208.15
  0
LINE
  8
0
 10
-63.1507
 20
-208.15
 11
-63.3298
 21
-208.616
  0
LINE
  8
0
 10
-63.3298
 20
-208.616
 11
-63.5282
 21
-209.075
  0
LINE
  8
0
 10
-63.5282
 20
-209.075
 11
-63.7455
 21
-209.524
  0
LINE
  8
0
 10
-63.7455
 20
-209.524
 11
-63.9812
 21
-209.964
  0
LINE
  8
0
 10
-63.9812
 20
-209.964
 11
-64.2351
 21
-210.394
  0
LINE
  8
0
 10
-64.2351
 20
-210.394
 11
-64.5067
 21
-210.813
  0
LINE
  8
0
 10
-64.5067
 20
-210.813
 11
-64.7954
 21
-211.22
  0
LINE
  8
0
 10
-64.7954
 20
-211.22
 11
-65.1009
 21
-211.615
  0
LINE
  8
0
 10
-65.1009
 20
-211.615
 11
-65.4225
 21
-211.997
  0
LINE
  8
0
 10
-65.4225
 20
-211.997
 11
-65.7597
 21
-212.366
  0
LINE
  8
0
 10
-65.7597
 20
-212.366
 11
-66.1119
 21
-212.719
  0
LINE
  8
0
 10
-66.1119
 20
-212.719
 11
-66.4785
 21
-213.058
  0
LINE
  8
0
 10
-66.4785
 20
-213.058
 11
-66.859
 21
-213.382
  0
LINE
  8
0
 10
-66.859
 20
-213.382
 11
-67.2525
 21
-213.689
  0
LINE
  8
0
 10
-67.2525
 20
-213.689
 11
-67.6585
 21
-213.98
  0
LINE
  8
0
 10
-67.6585
 20
-213.98
 11
-68.0762
 21
-214.253
  0
LINE
  8
0
 10
-68.0762
 20
-214.253
 11
-68.505
 21
-214.509
  0
LINE
  8
0
 10
-68.505
 20
-214.509
 11
-68.944
 21
-214.747
  0
LINE
  8
0
 10
-68.944
 20
-214.747
 11
-69.3925
 21
-214.966
  0
LINE
  8
0
 10
-69.3925
 20
-214.966
 11
-69.8498
 21
-215.167
  0
LINE
  8
0
 10
-69.8498
 20
-215.167
 11
-70.315
 21
-215.348
  0
LINE
  8
0
 10
-70.315
 20
-215.348
 11
-70.7874
 21
-215.51
  0
LINE
  8
0
 10
-70.7874
 20
-215.51
 11
-71.2661
 21
-215.652
  0
LINE
  8
0
 10
-71.2661
 20
-215.652
 11
-71.7502
 21
-215.774
  0
LINE
  8
0
 10
-71.7502
 20
-215.774
 11
-72.239
 21
-215.875
  0
LINE
  8
0
 10
-72.239
 20
-215.875
 11
-72.7317
 21
-215.957
  0
LINE
  8
0
 10
-72.7317
 20
-215.957
 11
-73.2272
 21
-216.017
  0
LINE
  8
0
 10
-73.2272
 20
-216.017
 11
-73.7249
 21
-216.057
  0
LINE
  8
0
 10
-73.7249
 20
-216.057
 11
-74.2238
 21
-216.077
  0
LINE
  8
0
 10
-74.2238
 20
-216.077
 11
-74.7231
 21
-216.075
  0
LINE
  8
0
 10
-94.9546
 20
-202.34
 11
-97.7401
 21
-201.849
  0
LINE
  8
0
 10
-97.7401
 20
-201.849
 11
-98.2007
 21
-201.703
  0
LINE
  8
0
 10
-98.2007
 20
-201.703
 11
-98.608
 21
-201.444
  0
LINE
  8
0
 10
-98.608
 20
-201.444
 11
-98.9343
 21
-201.088
  0
LINE
  8
0
 10
-98.9343
 20
-201.088
 11
-99.1573
 21
-200.659
  0
LINE
  8
0
 10
-99.1573
 20
-200.659
 11
-99.2618
 21
-200.188
  0
LINE
  8
0
 10
-99.2618
 20
-200.188
 11
-99.2407
 21
-199.705
  0
LINE
  8
0
 10
-99.2407
 20
-199.705
 11
-99.0955
 21
-199.245
  0
LINE
  8
0
 10
-99.0955
 20
-199.245
 11
-98.836
 21
-198.838
  0
LINE
  8
0
 10
-98.836
 20
-198.838
 11
-98.4799
 21
-198.511
  0
LINE
  8
0
 10
-98.4799
 20
-198.511
 11
-98.0516
 21
-198.288
  0
LINE
  8
0
 10
-98.0516
 20
-198.288
 11
-97.5801
 21
-198.184
  0
LINE
  8
0
 10
-97.5801
 20
-198.184
 11
-97.0976
 21
-198.205
  0
LINE
  8
0
 10
-97.0976
 20
-198.205
 11
-94.3121
 21
-198.696
  0
LINE
  8
0
 10
-94.3121
 20
-198.696
 11
-93.8515
 21
-198.841
  0
LINE
  8
0
 10
-93.8515
 20
-198.841
 11
-93.4442
 21
-199.101
  0
LINE
  8
0
 10
-93.4442
 20
-199.101
 11
-93.118
 21
-199.457
  0
LINE
  8
0
 10
-93.118
 20
-199.457
 11
-92.8949
 21
-199.885
  0
LINE
  8
0
 10
-92.8949
 20
-199.885
 11
-92.7904
 21
-200.357
  0
LINE
  8
0
 10
-92.7904
 20
-200.357
 11
-92.8115
 21
-200.839
  0
LINE
  8
0
 10
-92.8115
 20
-200.839
 11
-92.9567
 21
-201.3
  0
LINE
  8
0
 10
-92.9567
 20
-201.3
 11
-93.2162
 21
-201.707
  0
LINE
  8
0
 10
-93.2162
 20
-201.707
 11
-93.5723
 21
-202.033
  0
LINE
  8
0
 10
-93.5723
 20
-202.033
 11
-94.0006
 21
-202.256
  0
LINE
  8
0
 10
-94.0006
 20
-202.256
 11
-94.4721
 21
-202.361
  0
LINE
  8
0
 10
-94.4721
 20
-202.361
 11
-94.9546
 21
-202.34
  0
LINE
  8
0
 10
-51.78
 20
-209.953
 11
-54.5655
 21
-209.461
  0
LINE
  8
0
 10
-54.5655
 20
-209.461
 11
-55.0261
 21
-209.316
  0
LINE
  8
0
 10
-55.0261
 20
-209.316
 11
-55.4334
 21
-209.057
  0
LINE
  8
0
 10
-55.4334
 20
-209.057
 11
-55.7597
 21
-208.701
  0
LINE
  8
0
 10
-55.7597
 20
-208.701
 11
-55.9827
 21
-208.272
  0
LINE
  8
0
 10
-55.9827
 20
-208.272
 11
-56.0872
 21
-207.801
  0
LINE
  8
0
 10
-56.0872
 20
-207.801
 11
-56.0661
 21
-207.318
  0
LINE
  8
0
 10
-56.0661
 20
-207.318
 11
-55.9209
 21
-206.858
  0
LINE
  8
0
 10
-55.9209
 20
-206.858
 11
-55.6614
 21
-206.45
  0
LINE
  8
0
 10
-55.6614
 20
-206.45
 11
-55.3054
 21
-206.124
  0
LINE
  8
0
 10
-55.3054
 20
-206.124
 11
-54.877
 21
-205.901
  0
LINE
  8
0
 10
-54.877
 20
-205.901
 11
-54.4055
 21
-205.797
  0
LINE
  8
0
 10
-54.4055
 20
-205.797
 11
-53.923
 21
-205.818
  0
LINE
  8
0
 10
-53.923
 20
-205.818
 11
-51.1375
 21
-206.309
  0
LINE
  8
0
 10
-51.1375
 20
-206.309
 11
-50.677
 21
-206.454
  0
LINE
  8
0
 10
-50.677
 20
-206.454
 11
-50.2696
 21
-206.713
  0
LINE
  8
0
 10
-50.2696
 20
-206.713
 11
-49.9434
 21
-207.07
  0
LINE
  8
0
 10
-49.9434
 20
-207.07
 11
-49.7204
 21
-207.498
  0
LINE
  8
0
 10
-49.7204
 20
-207.498
 11
-49.6158
 21
-207.969
  0
LINE
  8
0
 10
-49.6158
 20
-207.969
 11
-49.6369
 21
-208.452
  0
LINE
  8
0
 10
-49.6369
 20
-208.452
 11
-49.7821
 21
-208.913
  0
LINE
  8
0
 10
-49.7821
 20
-208.913
 11
-50.0416
 21
-209.32
  0
LINE
  8
0
 10
-50.0416
 20
-209.32
 11
-50.3977
 21
-209.646
  0
LINE
  8
0
 10
-50.3977
 20
-209.646
 11
-50.826
 21
-209.869
  0
LINE
  8
0
 10
-50.826
 20
-209.869
 11
-51.2976
 21
-209.974
  0
LINE
  8
0
 10
-51.2976
 20
-209.974
 11
-51.78
 21
-209.953
  0
LINE
  8
0
 10
-20.2836
 20
-214.088
 11
-20.7603
 21
-213.964
  0
LINE
  8
0
 10
-20.7603
 20
-213.964
 11
-21.1973
 21
-213.736
  0
LINE
  8
0
 10
-21.1973
 20
-213.736
 11
-21.5727
 21
-213.417
  0
LINE
  8
0
 10
-21.5727
 20
-213.417
 11
-21.8677
 21
-213.023
  0
LINE
  8
0
 10
-21.8677
 20
-213.023
 11
-22.0675
 21
-212.572
  0
LINE
  8
0
 10
-22.0675
 20
-212.572
 11
-22.1621
 21
-212.089
  0
LINE
  8
0
 10
-22.1621
 20
-212.089
 11
-22.1467
 21
-211.597
  0
LINE
  8
0
 10
-22.1467
 20
-211.597
 11
-22.0222
 21
-211.12
  0
LINE
  8
0
 10
-22.0222
 20
-211.12
 11
-21.7947
 21
-210.683
  0
LINE
  8
0
 10
-21.7947
 20
-210.683
 11
-21.4757
 21
-210.308
  0
LINE
  8
0
 10
-21.4757
 20
-210.308
 11
-21.0812
 21
-210.013
  0
LINE
  8
0
 10
-21.0812
 20
-210.013
 11
-20.6309
 21
-209.813
  0
LINE
  8
0
 10
-20.6309
 20
-209.813
 11
-20.1474
 21
-209.718
  0
LINE
  8
0
 10
-20.1474
 20
-209.718
 11
-19.655
 21
-209.734
  0
LINE
  8
0
 10
-19.655
 20
-209.734
 11
-19.1783
 21
-209.858
  0
LINE
  8
0
 10
-19.1783
 20
-209.858
 11
-18.7414
 21
-210.086
  0
LINE
  8
0
 10
-18.7414
 20
-210.086
 11
-18.366
 21
-210.405
  0
LINE
  8
0
 10
-18.366
 20
-210.405
 11
-18.071
 21
-210.799
  0
LINE
  8
0
 10
-18.071
 20
-210.799
 11
-17.8711
 21
-211.249
  0
LINE
  8
0
 10
-17.8711
 20
-211.249
 11
-17.7765
 21
-211.733
  0
LINE
  8
0
 10
-17.7765
 20
-211.733
 11
-17.7919
 21
-212.225
  0
LINE
  8
0
 10
-17.7919
 20
-212.225
 11
-17.9164
 21
-212.702
  0
LINE
  8
0
 10
-17.9164
 20
-212.702
 11
-18.1439
 21
-213.139
  0
LINE
  8
0
 10
-18.1439
 20
-213.139
 11
-18.4629
 21
-213.514
  0
LINE
  8
0
 10
-18.4629
 20
-213.514
 11
-18.8575
 21
-213.809
  0
LINE
  8
0
 10
-18.8575
 20
-213.809
 11
-19.3078
 21
-214.009
  0
LINE
  8
0
 10
-19.3078
 20
-214.009
 11
-19.7912
 21
-214.104
  0
LINE
  8
0
 10
-19.7912
 20
-214.104
 11
-20.2836
 21
-214.088
  0
LINE
  8
0
 10
-78.8121
 20
-228.881
 11
-79.2727
 21
-228.735
  0
LINE
  8
0
 10
-79.2727
 20
-228.735
 11
-79.68
 21
-228.476
  0
LINE
  8
0
 10
-79.68
 20
-228.476
 11
-80.0062
 21
-228.12
  0
LINE
  8
0
 10
-80.0062
 20
-228.12
 11
-80.2292
 21
-227.691
  0
LINE
  8
0
 10
-80.2292
 20
-227.691
 11
-80.3338
 21
-227.22
  0
LINE
  8
0
 10
-80.3338
 20
-227.22
 11
-80.3127
 21
-226.737
  0
LINE
  8
0
 10
-80.3127
 20
-226.737
 11
-79.8215
 21
-223.952
  0
LINE
  8
0
 10
-79.8215
 20
-223.952
 11
-79.6763
 21
-223.491
  0
LINE
  8
0
 10
-79.6763
 20
-223.491
 11
-79.4168
 21
-223.084
  0
LINE
  8
0
 10
-79.4168
 20
-223.084
 11
-79.0608
 21
-222.758
  0
LINE
  8
0
 10
-79.0608
 20
-222.758
 11
-78.6324
 21
-222.535
  0
LINE
  8
0
 10
-78.6324
 20
-222.535
 11
-78.1609
 21
-222.43
  0
LINE
  8
0
 10
-78.1609
 20
-222.43
 11
-77.6784
 21
-222.451
  0
LINE
  8
0
 10
-77.6784
 20
-222.451
 11
-77.2178
 21
-222.597
  0
LINE
  8
0
 10
-77.2178
 20
-222.597
 11
-76.8105
 21
-222.856
  0
LINE
  8
0
 10
-76.8105
 20
-222.856
 11
-76.4842
 21
-223.212
  0
LINE
  8
0
 10
-76.4842
 20
-223.212
 11
-76.2612
 21
-223.641
  0
LINE
  8
0
 10
-76.2612
 20
-223.641
 11
-76.1567
 21
-224.112
  0
LINE
  8
0
 10
-76.1567
 20
-224.112
 11
-76.1778
 21
-224.594
  0
LINE
  8
0
 10
-76.1778
 20
-224.594
 11
-76.6689
 21
-227.38
  0
LINE
  8
0
 10
-76.6689
 20
-227.38
 11
-76.8141
 21
-227.841
  0
LINE
  8
0
 10
-76.8141
 20
-227.841
 11
-77.0736
 21
-228.248
  0
LINE
  8
0
 10
-77.0736
 20
-228.248
 11
-77.4297
 21
-228.574
  0
LINE
  8
0
 10
-77.4297
 20
-228.574
 11
-77.8581
 21
-228.797
  0
LINE
  8
0
 10
-77.8581
 20
-228.797
 11
-78.3296
 21
-228.902
  0
LINE
  8
0
 10
-78.3296
 20
-228.902
 11
-78.8121
 21
-228.881
  0
LINE
  8
0
 10
-12.345
 20
-239.266
 11
-12.8216
 21
-239.142
  0
LINE
  8
0
 10
-12.8216
 20
-239.142
 11
-13.2586
 21
-238.914
  0
LINE
  8
0
 10
-13.2586
 20
-238.914
 11
-13.634
 21
-238.595
  0
LINE
  8
0
 10
-13.634
 20
-238.595
 11
-13.929
 21
-238.201
  0
LINE
  8
0
 10
-13.929
 20
-238.201
 11
-14.1289
 21
-237.751
  0
LINE
  8
0
 10
-14.1289
 20
-237.751
 11
-14.2234
 21
-237.267
  0
LINE
  8
0
 10
-14.2234
 20
-237.267
 11
-14.2081
 21
-236.775
  0
LINE
  8
0
 10
-14.2081
 20
-236.775
 11
-14.0836
 21
-236.298
  0
LINE
  8
0
 10
-14.0836
 20
-236.298
 11
-13.8561
 21
-235.861
  0
LINE
  8
0
 10
-13.8561
 20
-235.861
 11
-13.5371
 21
-235.486
  0
LINE
  8
0
 10
-13.5371
 20
-235.486
 11
-13.1425
 21
-235.191
  0
LINE
  8
0
 10
-13.1425
 20
-235.191
 11
-12.6922
 21
-234.991
  0
LINE
  8
0
 10
-12.6922
 20
-234.991
 11
-12.2088
 21
-234.896
  0
LINE
  8
0
 10
-12.2088
 20
-234.896
 11
-11.7164
 21
-234.912
  0
LINE
  8
0
 10
-11.7164
 20
-234.912
 11
-11.2397
 21
-235.036
  0
LINE
  8
0
 10
-11.2397
 20
-235.036
 11
-10.8027
 21
-235.264
  0
LINE
  8
0
 10
-10.8027
 20
-235.264
 11
-10.4273
 21
-235.583
  0
LINE
  8
0
 10
-10.4273
 20
-235.583
 11
-10.1323
 21
-235.977
  0
LINE
  8
0
 10
-10.1323
 20
-235.977
 11
-9.9325
 21
-236.428
  0
LINE
  8
0
 10
-9.9325
 20
-236.428
 11
-9.83789
 21
-236.911
  0
LINE
  8
0
 10
-9.83789
 20
-236.911
 11
-9.85324
 21
-237.403
  0
LINE
  8
0
 10
-9.85324
 20
-237.403
 11
-9.97778
 21
-237.88
  0
LINE
  8
0
 10
-9.97778
 20
-237.88
 11
-10.2053
 21
-238.317
  0
LINE
  8
0
 10
-10.2053
 20
-238.317
 11
-10.5243
 21
-238.692
  0
LINE
  8
0
 10
-10.5243
 20
-238.692
 11
-10.9188
 21
-238.987
  0
LINE
  8
0
 10
-10.9188
 20
-238.987
 11
-11.3691
 21
-239.187
  0
LINE
  8
0
 10
-11.3691
 20
-239.187
 11
-11.8526
 21
-239.282
  0
LINE
  8
0
 10
-11.8526
 20
-239.282
 11
-12.345
 21
-239.266
  0
LINE
  8
0
 10
-50.1992
 20
-248.706
 11
-50.6598
 21
-248.561
  0
LINE
  8
0
 10
-50.6598
 20
-248.561
 11
-51.0671
 21
-248.301
  0
LINE
  8
0
 10
-51.0671
 20
-248.301
 11
-51.3934
 21
-247.945
  0
LINE
  8
0
 10
-51.3934
 20
-247.945
 11
-51.6164
 21
-247.517
  0
LINE
  8
0
 10
-51.6164
 20
-247.517
 11
-51.7209
 21
-247.045
  0
LINE
  8
0
 10
-51.7209
 20
-247.045
 11
-51.6999
 21
-246.563
  0
LINE
  8
0
 10
-51.6999
 20
-246.563
 11
-51.2087
 21
-243.777
  0
LINE
  8
0
 10
-51.2087
 20
-243.777
 11
-51.0635
 21
-243.317
  0
LINE
  8
0
 10
-51.0635
 20
-243.317
 11
-50.804
 21
-242.91
  0
LINE
  8
0
 10
-50.804
 20
-242.91
 11
-50.4479
 21
-242.583
  0
LINE
  8
0
 10
-50.4479
 20
-242.583
 11
-50.0195
 21
-242.36
  0
LINE
  8
0
 10
-50.0195
 20
-242.36
 11
-49.548
 21
-242.256
  0
LINE
  8
0
 10
-49.548
 20
-242.256
 11
-49.0656
 21
-242.277
  0
LINE
  8
0
 10
-49.0656
 20
-242.277
 11
-48.605
 21
-242.422
  0
LINE
  8
0
 10
-48.605
 20
-242.422
 11
-48.1977
 21
-242.681
  0
LINE
  8
0
 10
-48.1977
 20
-242.681
 11
-47.8714
 21
-243.038
  0
LINE
  8
0
 10
-47.8714
 20
-243.038
 11
-47.6484
 21
-243.466
  0
LINE
  8
0
 10
-47.6484
 20
-243.466
 11
-47.5439
 21
-243.937
  0
LINE
  8
0
 10
-47.5439
 20
-243.937
 11
-47.5649
 21
-244.42
  0
LINE
  8
0
 10
-47.5649
 20
-244.42
 11
-48.0561
 21
-247.205
  0
LINE
  8
0
 10
-48.0561
 20
-247.205
 11
-48.2013
 21
-247.666
  0
LINE
  8
0
 10
-48.2013
 20
-247.666
 11
-48.4608
 21
-248.073
  0
LINE
  8
0
 10
-48.4608
 20
-248.073
 11
-48.8168
 21
-248.4
  0
LINE
  8
0
 10
-48.8168
 20
-248.4
 11
-49.2452
 21
-248.623
  0
LINE
  8
0
 10
-49.2452
 20
-248.623
 11
-49.7167
 21
-248.727
  0
LINE
  8
0
 10
-49.7167
 20
-248.727
 11
-50.1992
 21
-248.706
  0
LINE
  8
0
 10
-20.0894
 20
-249.158
 11
-20.515
 21
-248.938
  0
LINE
  8
0
 10
-20.515
 20
-248.938
 11
-20.8652
 21
-248.611
  0
LINE
  8
0
 10
-20.8652
 20
-248.611
 11
-21.1143
 21
-248.201
  0
LINE
  8
0
 10
-21.1143
 20
-248.201
 11
-21.2436
 21
-247.74
  0
LINE
  8
0
 10
-21.2436
 20
-247.74
 11
-21.2436
 21
-247.26
  0
LINE
  8
0
 10
-21.2436
 20
-247.26
 11
-21.1143
 21
-246.799
  0
LINE
  8
0
 10
-21.1143
 20
-246.799
 11
-20.8652
 21
-246.389
  0
LINE
  8
0
 10
-20.8652
 20
-246.389
 11
-20.515
 21
-246.062
  0
LINE
  8
0
 10
-20.515
 20
-246.062
 11
-20.0894
 21
-245.842
  0
LINE
  8
0
 10
-20.0894
 20
-245.842
 11
-19.6201
 21
-245.744
  0
LINE
  8
0
 10
-19.6201
 20
-245.744
 11
-19.1419
 21
-245.777
  0
LINE
  8
0
 10
-19.1419
 20
-245.777
 11
-18.6903
 21
-245.937
  0
LINE
  8
0
 10
-18.6903
 20
-245.937
 11
-18.2987
 21
-246.214
  0
LINE
  8
0
 10
-18.2987
 20
-246.214
 11
-17.9962
 21
-246.586
  0
LINE
  8
0
 10
-17.9962
 20
-246.586
 11
-17.8053
 21
-247.025
  0
LINE
  8
0
 10
-17.8053
 20
-247.025
 11
-17.74
 21
-247.5
  0
LINE
  8
0
 10
-17.74
 20
-247.5
 11
-17.8053
 21
-247.975
  0
LINE
  8
0
 10
-17.8053
 20
-247.975
 11
-17.9962
 21
-248.414
  0
LINE
  8
0
 10
-17.9962
 20
-248.414
 11
-18.2987
 21
-248.786
  0
LINE
  8
0
 10
-18.2987
 20
-248.786
 11
-18.6903
 21
-249.063
  0
LINE
  8
0
 10
-18.6903
 20
-249.063
 11
-19.1419
 21
-249.223
  0
LINE
  8
0
 10
-19.1419
 20
-249.223
 11
-19.6201
 21
-249.256
  0
LINE
  8
0
 10
-19.6201
 20
-249.256
 11
-20.0894
 21
-249.158
  0
LINE
  8
0
 10
-53.7231
 20
-279.075
 11
-54.2219
 21
-279.053
  0
LINE
  8
0
 10
-54.2219
 20
-279.053
 11
-54.7194
 21
-279.01
  0
LINE
  8
0
 10
-54.7194
 20
-279.01
 11
-55.2146
 21
-278.947
  0
LINE
  8
0
 10
-55.2146
 20
-278.947
 11
-55.7067
 21
-278.862
  0
LINE
  8
0
 10
-55.7067
 20
-278.862
 11
-56.195
 21
-278.758
  0
LINE
  8
0
 10
-56.195
 20
-278.758
 11
-56.6784
 21
-278.633
  0
LINE
  8
0
 10
-56.6784
 20
-278.633
 11
-57.1562
 21
-278.488
  0
LINE
  8
0
 10
-57.1562
 20
-278.488
 11
-57.6277
 21
-278.324
  0
LINE
  8
0
 10
-57.6277
 20
-278.324
 11
-58.0918
 21
-278.14
  0
LINE
  8
0
 10
-58.0918
 20
-278.14
 11
-58.5479
 21
-277.937
  0
LINE
  8
0
 10
-58.5479
 20
-277.937
 11
-58.9952
 21
-277.715
  0
LINE
  8
0
 10
-58.9952
 20
-277.715
 11
-59.4328
 21
-277.474
  0
LINE
  8
0
 10
-59.4328
 20
-277.474
 11
-59.8601
 21
-277.216
  0
LINE
  8
0
 10
-59.8601
 20
-277.216
 11
-60.2762
 21
-276.94
  0
LINE
  8
0
 10
-60.2762
 20
-276.94
 11
-60.6805
 21
-276.647
  0
LINE
  8
0
 10
-60.6805
 20
-276.647
 11
-61.0723
 21
-276.338
  0
LINE
  8
0
 10
-61.0723
 20
-276.338
 11
-61.4508
 21
-276.012
  0
LINE
  8
0
 10
-61.4508
 20
-276.012
 11
-61.8155
 21
-275.671
  0
LINE
  8
0
 10
-61.8155
 20
-275.671
 11
-62.1657
 21
-275.315
  0
LINE
  8
0
 10
-62.1657
 20
-275.315
 11
-62.5008
 21
-274.945
  0
LINE
  8
0
 10
-62.5008
 20
-274.945
 11
-62.8202
 21
-274.561
  0
LINE
  8
0
 10
-62.8202
 20
-274.561
 11
-63.1233
 21
-274.165
  0
LINE
  8
0
 10
-63.1233
 20
-274.165
 11
-63.4097
 21
-273.756
  0
LINE
  8
0
 10
-63.4097
 20
-273.756
 11
-63.6788
 21
-273.335
  0
LINE
  8
0
 10
-63.6788
 20
-273.335
 11
-63.9302
 21
-272.904
  0
LINE
  8
0
 10
-63.9302
 20
-272.904
 11
-64.1634
 21
-272.462
  0
LINE
  8
0
 10
-64.1634
 20
-272.462
 11
-64.3781
 21
-272.011
  0
LINE
  8
0
 10
-64.3781
 20
-272.011
 11
-64.5738
 21
-271.552
  0
LINE
  8
0
 10
-64.5738
 20
-271.552
 11
-64.7503
 21
-271.085
  0
LINE
  8
0
 10
-64.7503
 20
-271.085
 11
-64.9072
 21
-270.611
  0
LINE
  8
0
 10
-64.9072
 20
-270.611
 11
-65.0442
 21
-270.131
  0
LINE
  8
0
 10
-65.0442
 20
-270.131
 11
-65.1611
 21
-269.645
  0
LINE
  8
0
 10
-65.1611
 20
-269.645
 11
-65.2577
 21
-269.156
  0
LINE
  8
0
 10
-65.2577
 20
-269.156
 11
-65.3339
 21
-268.662
  0
LINE
  8
0
 10
-65.3339
 20
-268.662
 11
-65.3895
 21
-268.166
  0
LINE
  8
0
 10
-65.3895
 20
-268.166
 11
-65.4243
 21
-267.668
  0
LINE
  8
0
 10
-65.4243
 20
-267.668
 11
-65.4385
 21
-267.169
  0
LINE
  8
0
 10
-65.4385
 20
-267.169
 11
-65.4318
 21
-266.67
  0
LINE
  8
0
 10
-65.4318
 20
-266.67
 11
-65.4044
 21
-266.171
  0
LINE
  8
0
 10
-65.4044
 20
-266.171
 11
-65.3563
 21
-265.674
  0
LINE
  8
0
 10
-65.3563
 20
-265.674
 11
-65.2876
 21
-265.18
  0
LINE
  8
0
 10
-65.2876
 20
-265.18
 11
-65.1983
 21
-264.688
  0
LINE
  8
0
 10
-65.1983
 20
-264.688
 11
-65.0887
 21
-264.201
  0
LINE
  8
0
 10
-65.0887
 20
-264.201
 11
-64.9589
 21
-263.719
  0
LINE
  8
0
 10
-64.9589
 20
-263.719
 11
-64.8092
 21
-263.243
  0
LINE
  8
0
 10
-64.8092
 20
-263.243
 11
-64.6398
 21
-262.773
  0
LINE
  8
0
 10
-64.6398
 20
-262.773
 11
-64.451
 21
-262.311
  0
LINE
  8
0
 10
-64.451
 20
-262.311
 11
-64.2431
 21
-261.857
  0
LINE
  8
0
 10
-64.2431
 20
-261.857
 11
-64.0166
 21
-261.412
  0
LINE
  8
0
 10
-64.0166
 20
-261.412
 11
-63.7717
 21
-260.977
  0
LINE
  8
0
 10
-63.7717
 20
-260.977
 11
-63.5089
 21
-260.552
  0
LINE
  8
0
 10
-63.5089
 20
-260.552
 11
-63.2287
 21
-260.139
  0
LINE
  8
0
 10
-63.2287
 20
-260.139
 11
-62.9315
 21
-259.738
  0
LINE
  8
0
 10
-62.9315
 20
-259.738
 11
-62.618
 21
-259.349
  0
LINE
  8
0
 10
-62.618
 20
-259.349
 11
-62.2885
 21
-258.974
  0
LINE
  8
0
 10
-62.2885
 20
-258.974
 11
-61.9437
 21
-258.613
  0
LINE
  8
0
 10
-61.9437
 20
-258.613
 11
-61.5842
 21
-258.267
  0
LINE
  8
0
 10
-61.5842
 20
-258.267
 11
-61.2105
 21
-257.935
  0
LINE
  8
0
 10
-61.2105
 20
-257.935
 11
-60.8235
 21
-257.62
  0
LINE
  8
0
 10
-60.8235
 20
-257.62
 11
-60.4236
 21
-257.321
  0
LINE
  8
0
 10
-60.4236
 20
-257.321
 11
-60.0117
 21
-257.039
  0
LINE
  8
0
 10
-60.0117
 20
-257.039
 11
-59.5883
 21
-256.774
  0
LINE
  8
0
 10
-59.5883
 20
-256.774
 11
-59.1544
 21
-256.527
  0
LINE
  8
0
 10
-59.1544
 20
-256.527
 11
-58.7105
 21
-256.299
  0
LINE
  8
0
 10
-58.7105
 20
-256.299
 11
-58.2575
 21
-256.089
  0
LINE
  8
0
 10
-58.2575
 20
-256.089
 11
-57.7961
 21
-255.898
  0
LINE
  8
0
 10
-57.7961
 20
-255.898
 11
-57.3273
 21
-255.726
  0
LINE
  8
0
 10
-57.3273
 20
-255.726
 11
-56.8517
 21
-255.574
  0
LINE
  8
0
 10
-56.8517
 20
-255.574
 11
-56.3701
 21
-255.442
  0
LINE
  8
0
 10
-56.3701
 20
-255.442
 11
-55.8835
 21
-255.33
  0
LINE
  8
0
 10
-55.8835
 20
-255.33
 11
-55.3927
 21
-255.239
  0
LINE
  8
0
 10
-55.3927
 20
-255.239
 11
-54.8985
 21
-255.168
  0
LINE
  8
0
 10
-54.8985
 20
-255.168
 11
-54.4017
 21
-255.117
  0
LINE
  8
0
 10
-54.4017
 20
-255.117
 11
-53.9034
 21
-255.088
  0
LINE
  8
0
 10
-53.9034
 20
-255.088
 11
-53.4041
 21
-255.079
  0
LINE
  8
0
 10
-53.4041
 20
-255.079
 11
-52.905
 21
-255.091
  0
LINE
  8
0
 10
-52.905
 20
-255.091
 11
-52.4068
 21
-255.123
  0
LINE
  8
0
 10
-52.4068
 20
-255.123
 11
-51.9103
 21
-255.176
  0
LINE
  8
0
 10
-51.9103
 20
-255.176
 11
-51.4165
 21
-255.25
  0
LINE
  8
0
 10
-51.4165
 20
-255.25
 11
-50.9262
 21
-255.345
  0
LINE
  8
0
 10
-50.9262
 20
-255.345
 11
-50.4403
 21
-255.459
  0
LINE
  8
0
 10
-50.4403
 20
-255.459
 11
-49.9595
 21
-255.594
  0
LINE
  8
0
 10
-49.9595
 20
-255.594
 11
-49.4848
 21
-255.749
  0
LINE
  8
0
 10
-49.4848
 20
-255.749
 11
-49.0169
 21
-255.923
  0
LINE
  8
0
 10
-49.0169
 20
-255.923
 11
-48.5567
 21
-256.117
  0
LINE
  8
0
 10
-48.5567
 20
-256.117
 11
-48.1049
 21
-256.329
  0
LINE
  8
0
 10
-48.1049
 20
-256.329
 11
-47.6624
 21
-256.56
  0
LINE
  8
0
 10
-47.6624
 20
-256.56
 11
-47.2298
 21
-256.81
  0
LINE
  8
0
 10
-47.2298
 20
-256.81
 11
-46.8081
 21
-257.077
  0
LINE
  8
0
 10
-46.8081
 20
-257.077
 11
-46.3977
 21
-257.362
  0
LINE
  8
0
 10
-46.3977
 20
-257.362
 11
-45.9996
 21
-257.663
  0
LINE
  8
0
 10
-45.9996
 20
-257.663
 11
-45.6144
 21
-257.98
  0
LINE
  8
0
 10
-45.6144
 20
-257.98
 11
-45.2427
 21
-258.314
  0
LINE
  8
0
 10
-45.2427
 20
-258.314
 11
-44.8852
 21
-258.662
  0
LINE
  8
0
 10
-44.8852
 20
-258.662
 11
-44.5424
 21
-259.025
  0
LINE
  8
0
 10
-44.5424
 20
-259.025
 11
-44.2151
 21
-259.402
  0
LINE
  8
0
 10
-44.2151
 20
-259.402
 11
-43.9038
 21
-259.793
  0
LINE
  8
0
 10
-43.9038
 20
-259.793
 11
-43.609
 21
-260.196
  0
LINE
  8
0
 10
-43.609
 20
-260.196
 11
-43.3312
 21
-260.611
  0
LINE
  8
0
 10
-43.3312
 20
-260.611
 11
-43.0709
 21
-261.037
  0
LINE
  8
0
 10
-43.0709
 20
-261.037
 11
-42.8285
 21
-261.473
  0
LINE
  8
0
 10
-42.8285
 20
-261.473
 11
-42.6045
 21
-261.919
  0
LINE
  8
0
 10
-42.6045
 20
-261.919
 11
-42.3993
 21
-262.375
  0
LINE
  8
0
 10
-42.3993
 20
-262.375
 11
-42.2131
 21
-262.838
  0
LINE
  8
0
 10
-42.2131
 20
-262.838
 11
-42.0464
 21
-263.309
  0
LINE
  8
0
 10
-42.0464
 20
-263.309
 11
-41.8995
 21
-263.786
  0
LINE
  8
0
 10
-41.8995
 20
-263.786
 11
-41.7725
 21
-264.269
  0
LINE
  8
0
 10
-41.7725
 20
-264.269
 11
-41.6657
 21
-264.756
  0
LINE
  8
0
 10
-41.6657
 20
-264.756
 11
-41.5793
 21
-265.248
  0
LINE
  8
0
 10
-41.5793
 20
-265.248
 11
-41.5134
 21
-265.743
  0
LINE
  8
0
 10
-41.5134
 20
-265.743
 11
-41.4681
 21
-266.24
  0
LINE
  8
0
 10
-41.4681
 20
-266.24
 11
-41.4436
 21
-266.739
  0
LINE
  8
0
 10
-41.4436
 20
-266.739
 11
-41.4399
 21
-267.238
  0
LINE
  8
0
 10
-41.4399
 20
-267.238
 11
-41.4569
 21
-267.737
  0
LINE
  8
0
 10
-41.4569
 20
-267.737
 11
-41.4947
 21
-268.235
  0
LINE
  8
0
 10
-41.4947
 20
-268.235
 11
-41.5531
 21
-268.731
  0
LINE
  8
0
 10
-41.5531
 20
-268.731
 11
-41.6321
 21
-269.224
  0
LINE
  8
0
 10
-41.6321
 20
-269.224
 11
-41.7316
 21
-269.713
  0
LINE
  8
0
 10
-41.7316
 20
-269.713
 11
-41.8513
 21
-270.198
  0
LINE
  8
0
 10
-41.8513
 20
-270.198
 11
-41.9911
 21
-270.677
  0
LINE
  8
0
 10
-41.9911
 20
-270.677
 11
-42.1507
 21
-271.15
  0
LINE
  8
0
 10
-42.1507
 20
-271.15
 11
-42.3298
 21
-271.616
  0
LINE
  8
0
 10
-42.3298
 20
-271.616
 11
-42.5282
 21
-272.075
  0
LINE
  8
0
 10
-42.5282
 20
-272.075
 11
-42.7455
 21
-272.524
  0
LINE
  8
0
 10
-42.7455
 20
-272.524
 11
-42.9812
 21
-272.964
  0
LINE
  8
0
 10
-42.9812
 20
-272.964
 11
-43.2351
 21
-273.394
  0
LINE
  8
0
 10
-43.2351
 20
-273.394
 11
-43.5067
 21
-273.813
  0
LINE
  8
0
 10
-43.5067
 20
-273.813
 11
-43.7954
 21
-274.22
  0
LINE
  8
0
 10
-43.7954
 20
-274.22
 11
-44.1009
 21
-274.615
  0
LINE
  8
0
 10
-44.1009
 20
-274.615
 11
-44.4225
 21
-274.997
  0
LINE
  8
0
 10
-44.4225
 20
-274.997
 11
-44.7597
 21
-275.366
  0
LINE
  8
0
 10
-44.7597
 20
-275.366
 11
-45.1119
 21
-275.719
  0
LINE
  8
0
 10
-45.1119
 20
-275.719
 11
-45.4785
 21
-276.058
  0
LINE
  8
0
 10
-45.4785
 20
-276.058
 11
-45.859
 21
-276.382
  0
LINE
  8
0
 10
-45.859
 20
-276.382
 11
-46.2525
 21
-276.689
  0
LINE
  8
0
 10
-46.2525
 20
-276.689
 11
-46.6585
 21
-276.98
  0
LINE
  8
0
 10
-46.6585
 20
-276.98
 11
-47.0762
 21
-277.253
  0
LINE
  8
0
 10
-47.0762
 20
-277.253
 11
-47.505
 21
-277.509
  0
LINE
  8
0
 10
-47.505
 20
-277.509
 11
-47.944
 21
-277.747
  0
LINE
  8
0
 10
-47.944
 20
-277.747
 11
-48.3925
 21
-277.966
  0
LINE
  8
0
 10
-48.3925
 20
-277.966
 11
-48.8498
 21
-278.167
  0
LINE
  8
0
 10
-48.8498
 20
-278.167
 11
-49.315
 21
-278.348
  0
LINE
  8
0
 10
-49.315
 20
-278.348
 11
-49.7874
 21
-278.51
  0
LINE
  8
0
 10
-49.7874
 20
-278.51
 11
-50.2661
 21
-278.652
  0
LINE
  8
0
 10
-50.2661
 20
-278.652
 11
-50.7502
 21
-278.774
  0
LINE
  8
0
 10
-50.7502
 20
-278.774
 11
-51.239
 21
-278.875
  0
LINE
  8
0
 10
-51.239
 20
-278.875
 11
-51.7317
 21
-278.957
  0
LINE
  8
0
 10
-51.7317
 20
-278.957
 11
-52.2272
 21
-279.017
  0
LINE
  8
0
 10
-52.2272
 20
-279.017
 11
-52.7249
 21
-279.057
  0
LINE
  8
0
 10
-52.7249
 20
-279.057
 11
-53.2238
 21
-279.077
  0
LINE
  8
0
 10
-53.2238
 20
-279.077
 11
-53.7231
 21
-279.075
  0
LINE
  8
0
 10
-19.7342
 20
-261.732
 11
-19.749
 21
-261.732
  0
LINE
  8
0
 10
-19.749
 20
-261.732
 11
-19.785
 21
-261.722
  0
LINE
  8
0
 10
-19.785
 20
-261.722
 11
-20.0894
 21
-261.658
  0
LINE
  8
0
 10
-20.0894
 20
-261.658
 11
-20.2057
 21
-261.598
  0
LINE
  8
0
 10
-20.2057
 20
-261.598
 11
-20.227
 21
-261.592
  0
LINE
  8
0
 10
-20.227
 20
-261.592
 11
-20.2653
 21
-261.567
  0
LINE
  8
0
 10
-20.2653
 20
-261.567
 11
-20.515
 21
-261.438
  0
LINE
  8
0
 10
-20.515
 20
-261.438
 11
-20.6217
 21
-261.338
  0
LINE
  8
0
 10
-20.6217
 20
-261.338
 11
-20.646
 21
-261.323
  0
LINE
  8
0
 10
-20.646
 20
-261.323
 11
-20.6782
 21
-261.285
  0
LINE
  8
0
 10
-20.6782
 20
-261.285
 11
-20.8652
 21
-261.111
  0
LINE
  8
0
 10
-20.8652
 20
-261.111
 11
-20.9492
 21
-260.973
  0
LINE
  8
0
 10
-20.9492
 20
-260.973
 11
-20.9722
 21
-260.946
  0
LINE
  8
0
 10
-20.9722
 20
-260.946
 11
-20.9928
 21
-260.901
  0
LINE
  8
0
 10
-20.9928
 20
-260.901
 11
-21.1143
 21
-260.701
  0
LINE
  8
0
 10
-21.1143
 20
-260.701
 11
-21.1623
 21
-260.53
  0
LINE
  8
0
 10
-21.1623
 20
-260.53
 11
-21.1791
 21
-260.493
  0
LINE
  8
0
 10
-21.1791
 20
-260.493
 11
-21.186
 21
-260.445
  0
LINE
  8
0
 10
-21.186
 20
-260.445
 11
-21.2436
 21
-260.24
  0
LINE
  8
0
 10
-21.2436
 20
-260.24
 11
-21.2436
 21
-260.044
  0
LINE
  8
0
 10
-21.2436
 20
-260.044
 11
-21.25
 21
-260
  0
LINE
  8
0
 10
-21.25
 20
-260
 11
-21.2436
 21
-259.956
  0
LINE
  8
0
 10
-21.2436
 20
-259.956
 11
-21.2436
 21
-259.76
  0
LINE
  8
0
 10
-21.2436
 20
-259.76
 11
-21.186
 21
-259.555
  0
LINE
  8
0
 10
-21.186
 20
-259.555
 11
-21.1791
 21
-259.507
  0
LINE
  8
0
 10
-21.1791
 20
-259.507
 11
-21.1623
 21
-259.47
  0
LINE
  8
0
 10
-21.1623
 20
-259.47
 11
-21.1143
 21
-259.299
  0
LINE
  8
0
 10
-21.1143
 20
-259.299
 11
-20.9928
 21
-259.099
  0
LINE
  8
0
 10
-20.9928
 20
-259.099
 11
-20.9722
 21
-259.054
  0
LINE
  8
0
 10
-20.9722
 20
-259.054
 11
-20.9492
 21
-259.027
  0
LINE
  8
0
 10
-20.9492
 20
-259.027
 11
-20.8652
 21
-258.889
  0
LINE
  8
0
 10
-20.8652
 20
-258.889
 11
-20.6782
 21
-258.715
  0
LINE
  8
0
 10
-20.6782
 20
-258.715
 11
-20.646
 21
-258.677
  0
LINE
  8
0
 10
-20.646
 20
-258.677
 11
-20.6217
 21
-258.662
  0
LINE
  8
0
 10
-20.6217
 20
-258.662
 11
-20.515
 21
-258.562
  0
LINE
  8
0
 10
-20.515
 20
-258.562
 11
-20.2653
 21
-258.433
  0
LINE
  8
0
 10
-20.2653
 20
-258.433
 11
-20.227
 21
-258.408
  0
LINE
  8
0
 10
-20.227
 20
-258.408
 11
-20.2057
 21
-258.402
  0
LINE
  8
0
 10
-20.2057
 20
-258.402
 11
-20.0894
 21
-258.342
  0
LINE
  8
0
 10
-20.0894
 20
-258.342
 11
-19.785
 21
-258.278
  0
LINE
  8
0
 10
-19.785
 20
-258.278
 11
-19.749
 21
-258.268
  0
LINE
  8
0
 10
-19.749
 20
-258.268
 11
-19.7342
 21
-258.268
  0
LINE
  8
0
 10
-19.7342
 20
-258.268
 11
-19.6201
 21
-258.244
  0
LINE
  8
0
 10
-19.6201
 20
-258.244
 11
-19.2735
 21
-258.268
  0
LINE
  8
0
 10
-19.2735
 20
-258.268
 11
-19.2509
 21
-258.268
  0
LINE
  8
0
 10
-19.2509
 20
-258.268
 11
-19.2441
 21
-258.27
  0
LINE
  8
0
 10
-19.2441
 20
-258.27
 11
-19.1419
 21
-258.277
  0
LINE
  8
0
 10
-19.1419
 20
-258.277
 11
-18.6903
 21
-258.437
  0
LINE
  8
0
 10
-18.6903
 20
-258.437
 11
-18.2987
 21
-258.714
  0
LINE
  8
0
 10
-18.2987
 20
-258.714
 11
-17.9962
 21
-259.086
  0
LINE
  8
0
 10
-17.9962
 20
-259.086
 11
-17.8053
 21
-259.525
  0
LINE
  8
0
 10
-17.8053
 20
-259.525
 11
-17.74
 21
-260
  0
LINE
  8
0
 10
-17.74
 20
-260
 11
-17.8053
 21
-260.475
  0
LINE
  8
0
 10
-17.8053
 20
-260.475
 11
-17.9962
 21
-260.914
  0
LINE
  8
0
 10
-17.9962
 20
-260.914
 11
-18.2987
 21
-261.286
  0
LINE
  8
0
 10
-18.2987
 20
-261.286
 11
-18.6903
 21
-261.563
  0
LINE
  8
0
 10
-18.6903
 20
-261.563
 11
-19.1419
 21
-261.723
  0
LINE
  8
0
 10
-19.1419
 20
-261.723
 11
-19.2441
 21
-261.73
  0
LINE
  8
0
 10
-19.2441
 20
-261.73
 11
-19.2509
 21
-261.732
  0
LINE
  8
0
 10
-19.2509
 20
-261.732
 11
-19.2735
 21
-261.732
  0
LINE
  8
0
 10
-19.2735
 20
-261.732
 11
-19.6201
 21
-261.756
  0
LINE
  8
0
 10
-19.6201
 20
-261.756
 11
-19.7342
 21
-261.732
  0
LINE
  8
0
 10
-73.9546
 20
-265.34
 11
-76.7401
 21
-264.849
  0
LINE
  8
0
 10
-76.7401
 20
-264.849
 11
-77.2007
 21
-264.703
  0
LINE
  8
0
 10
-77.2007
 20
-264.703
 11
-77.608
 21
-264.444
  0
LINE
  8
0
 10
-77.608
 20
-264.444
 11
-77.9343
 21
-264.088
  0
LINE
  8
0
 10
-77.9343
 20
-264.088
 11
-78.1573
 21
-263.659
  0
LINE
  8
0
 10
-78.1573
 20
-263.659
 11
-78.2618
 21
-263.188
  0
LINE
  8
0
 10
-78.2618
 20
-263.188
 11
-78.2407
 21
-262.705
  0
LINE
  8
0
 10
-78.2407
 20
-262.705
 11
-78.0955
 21
-262.245
  0
LINE
  8
0
 10
-78.0955
 20
-262.245
 11
-77.836
 21
-261.838
  0
LINE
  8
0
 10
-77.836
 20
-261.838
 11
-77.4799
 21
-261.511
  0
LINE
  8
0
 10
-77.4799
 20
-261.511
 11
-77.0516
 21
-261.288
  0
LINE
  8
0
 10
-77.0516
 20
-261.288
 11
-76.5801
 21
-261.184
  0
LINE
  8
0
 10
-76.5801
 20
-261.184
 11
-76.0976
 21
-261.205
  0
LINE
  8
0
 10
-76.0976
 20
-261.205
 11
-73.3121
 21
-261.696
  0
LINE
  8
0
 10
-73.3121
 20
-261.696
 11
-72.8515
 21
-261.841
  0
LINE
  8
0
 10
-72.8515
 20
-261.841
 11
-72.4442
 21
-262.101
  0
LINE
  8
0
 10
-72.4442
 20
-262.101
 11
-72.118
 21
-262.457
  0
LINE
  8
0
 10
-72.118
 20
-262.457
 11
-71.8949
 21
-262.885
  0
LINE
  8
0
 10
-71.8949
 20
-262.885
 11
-71.7904
 21
-263.357
  0
LINE
  8
0
 10
-71.7904
 20
-263.357
 11
-71.8115
 21
-263.839
  0
LINE
  8
0
 10
-71.8115
 20
-263.839
 11
-71.9567
 21
-264.3
  0
LINE
  8
0
 10
-71.9567
 20
-264.3
 11
-72.2162
 21
-264.707
  0
LINE
  8
0
 10
-72.2162
 20
-264.707
 11
-72.5723
 21
-265.033
  0
LINE
  8
0
 10
-72.5723
 20
-265.033
 11
-73.0006
 21
-265.256
  0
LINE
  8
0
 10
-73.0006
 20
-265.256
 11
-73.4721
 21
-265.361
  0
LINE
  8
0
 10
-73.4721
 20
-265.361
 11
-73.9546
 21
-265.34
  0
LINE
  8
0
 10
-30.78
 20
-272.953
 11
-33.5655
 21
-272.461
  0
LINE
  8
0
 10
-33.5655
 20
-272.461
 11
-34.0261
 21
-272.316
  0
LINE
  8
0
 10
-34.0261
 20
-272.316
 11
-34.4334
 21
-272.057
  0
LINE
  8
0
 10
-34.4334
 20
-272.057
 11
-34.7597
 21
-271.701
  0
LINE
  8
0
 10
-34.7597
 20
-271.701
 11
-34.9827
 21
-271.272
  0
LINE
  8
0
 10
-34.9827
 20
-271.272
 11
-35.0872
 21
-270.801
  0
LINE
  8
0
 10
-35.0872
 20
-270.801
 11
-35.0661
 21
-270.318
  0
LINE
  8
0
 10
-35.0661
 20
-270.318
 11
-34.9209
 21
-269.858
  0
LINE
  8
0
 10
-34.9209
 20
-269.858
 11
-34.6614
 21
-269.45
  0
LINE
  8
0
 10
-34.6614
 20
-269.45
 11
-34.3054
 21
-269.124
  0
LINE
  8
0
 10
-34.3054
 20
-269.124
 11
-33.877
 21
-268.901
  0
LINE
  8
0
 10
-33.877
 20
-268.901
 11
-33.4055
 21
-268.797
  0
LINE
  8
0
 10
-33.4055
 20
-268.797
 11
-32.923
 21
-268.818
  0
LINE
  8
0
 10
-32.923
 20
-268.818
 11
-30.1375
 21
-269.309
  0
LINE
  8
0
 10
-30.1375
 20
-269.309
 11
-29.677
 21
-269.454
  0
LINE
  8
0
 10
-29.677
 20
-269.454
 11
-29.2696
 21
-269.714
  0
LINE
  8
0
 10
-29.2696
 20
-269.714
 11
-28.9434
 21
-270.07
  0
LINE
  8
0
 10
-28.9434
 20
-270.07
 11
-28.7204
 21
-270.498
  0
LINE
  8
0
 10
-28.7204
 20
-270.498
 11
-28.6158
 21
-270.969
  0
LINE
  8
0
 10
-28.6158
 20
-270.969
 11
-28.6369
 21
-271.452
  0
LINE
  8
0
 10
-28.6369
 20
-271.452
 11
-28.7821
 21
-271.913
  0
LINE
  8
0
 10
-28.7821
 20
-271.913
 11
-29.0416
 21
-272.32
  0
LINE
  8
0
 10
-29.0416
 20
-272.32
 11
-29.3977
 21
-272.646
  0
LINE
  8
0
 10
-29.3977
 20
-272.646
 11
-29.826
 21
-272.869
  0
LINE
  8
0
 10
-29.826
 20
-272.869
 11
-30.2976
 21
-272.974
  0
LINE
  8
0
 10
-30.2976
 20
-272.974
 11
-30.78
 21
-272.953
  0
LINE
  8
0
 10
-19.6201
 20
-274.256
 11
-20.0894
 21
-274.158
  0
LINE
  8
0
 10
-20.0894
 20
-274.158
 11
-20.515
 21
-273.938
  0
LINE
  8
0
 10
-20.515
 20
-273.938
 11
-20.8652
 21
-273.611
  0
LINE
  8
0
 10
-20.8652
 20
-273.611
 11
-21.1143
 21
-273.201
  0
LINE
  8
0
 10
-21.1143
 20
-273.201
 11
-21.2436
 21
-272.74
  0
LINE
  8
0
 10
-21.2436
 20
-272.74
 11
-21.2436
 21
-272.26
  0
LINE
  8
0
 10
-21.2436
 20
-272.26
 11
-21.1143
 21
-271.799
  0
LINE
  8
0
 10
-21.1143
 20
-271.799
 11
-20.8652
 21
-271.389
  0
LINE
  8
0
 10
-20.8652
 20
-271.389
 11
-20.515
 21
-271.062
  0
LINE
  8
0
 10
-20.515
 20
-271.062
 11
-20.0894
 21
-270.842
  0
LINE
  8
0
 10
-20.0894
 20
-270.842
 11
-19.6201
 21
-270.744
  0
LINE
  8
0
 10
-19.6201
 20
-270.744
 11
-19.1419
 21
-270.777
  0
LINE
  8
0
 10
-19.1419
 20
-270.777
 11
-18.6903
 21
-270.937
  0
LINE
  8
0
 10
-18.6903
 20
-270.937
 11
-18.2987
 21
-271.214
  0
LINE
  8
0
 10
-18.2987
 20
-271.214
 11
-17.9962
 21
-271.586
  0
LINE
  8
0
 10
-17.9962
 20
-271.586
 11
-17.8053
 21
-272.025
  0
LINE
  8
0
 10
-17.8053
 20
-272.025
 11
-17.74
 21
-272.5
  0
LINE
  8
0
 10
-17.74
 20
-272.5
 11
-17.8053
 21
-272.975
  0
LINE
  8
0
 10
-17.8053
 20
-272.975
 11
-17.9962
 21
-273.414
  0
LINE
  8
0
 10
-17.9962
 20
-273.414
 11
-18.2987
 21
-273.786
  0
LINE
  8
0
 10
-18.2987
 20
-273.786
 11
-18.6903
 21
-274.063
  0
LINE
  8
0
 10
-18.6903
 20
-274.063
 11
-19.1419
 21
-274.223
  0
LINE
  8
0
 10
-19.1419
 20
-274.223
 11
-19.6201
 21
-274.256
  0
LINE
  8
0
 10
-57.8121
 20
-291.881
 11
-58.2727
 21
-291.735
  0
LINE
  8
0
 10
-58.2727
 20
-291.735
 11
-58.68
 21
-291.476
  0
LINE
  8
0
 10
-58.68
 20
-291.476
 11
-59.0062
 21
-291.12
  0
LINE
  8
0
 10
-59.0062
 20
-291.12
 11
-59.2292
 21
-290.691
  0
LINE
  8
0
 10
-59.2292
 20
-290.691
 11
-59.3338
 21
-290.22
  0
LINE
  8
0
 10
-59.3338
 20
-290.22
 11
-59.3127
 21
-289.737
  0
LINE
  8
0
 10
-59.3127
 20
-289.737
 11
-58.8215
 21
-286.952
  0
LINE
  8
0
 10
-58.8215
 20
-286.952
 11
-58.6763
 21
-286.491
  0
LINE
  8
0
 10
-58.6763
 20
-286.491
 11
-58.4168
 21
-286.084
  0
LINE
  8
0
 10
-58.4168
 20
-286.084
 11
-58.0608
 21
-285.758
  0
LINE
  8
0
 10
-58.0608
 20
-285.758
 11
-57.6324
 21
-285.535
  0
LINE
  8
0
 10
-57.6324
 20
-285.535
 11
-57.1609
 21
-285.43
  0
LINE
  8
0
 10
-57.1609
 20
-285.43
 11
-56.6784
 21
-285.451
  0
LINE
  8
0
 10
-56.6784
 20
-285.451
 11
-56.2178
 21
-285.597
  0
LINE
  8
0
 10
-56.2178
 20
-285.597
 11
-55.8105
 21
-285.856
  0
LINE
  8
0
 10
-55.8105
 20
-285.856
 11
-55.4842
 21
-286.212
  0
LINE
  8
0
 10
-55.4842
 20
-286.212
 11
-55.2612
 21
-286.641
  0
LINE
  8
0
 10
-55.2612
 20
-286.641
 11
-55.1567
 21
-287.112
  0
LINE
  8
0
 10
-55.1567
 20
-287.112
 11
-55.1778
 21
-287.594
  0
LINE
  8
0
 10
-55.1778
 20
-287.594
 11
-55.6689
 21
-290.38
  0
LINE
  8
0
 10
-55.6689
 20
-290.38
 11
-55.8141
 21
-290.841
  0
LINE
  8
0
 10
-55.8141
 20
-290.841
 11
-56.0736
 21
-291.248
  0
LINE
  8
0
 10
-56.0736
 20
-291.248
 11
-56.4297
 21
-291.574
  0
LINE
  8
0
 10
-56.4297
 20
-291.574
 11
-56.8581
 21
-291.797
  0
LINE
  8
0
 10
-56.8581
 20
-291.797
 11
-57.3296
 21
-291.902
  0
LINE
  8
0
 10
-57.3296
 20
-291.902
 11
-57.8121
 21
-291.881
  0
LINE
  8
0
 10
37.1156
 20
-183.104
 11
21.6291
 21
-205.221
  0
LINE
  8
0
 10
21.6291
 20
-205.221
 11
16.4023
 21
-201.561
  0
LINE
  8
0
 10
16.4023
 20
-201.561
 11
11.3318
 21
-215.658
  0
LINE
  8
0
 10
11.3318
 20
-215.658
 11
11.7174
 21
-215.463
  0
LINE
  8
0
 10
11.7174
 20
-215.463
 11
12.1732
 21
-215.261
  0
LINE
  8
0
 10
12.1732
 20
-215.261
 11
12.6384
 21
-215.082
  0
LINE
  8
0
 10
12.6384
 20
-215.082
 11
13.1121
 21
-214.926
  0
LINE
  8
0
 10
13.1121
 20
-214.926
 11
13.5929
 21
-214.794
  0
LINE
  8
0
 10
13.5929
 20
-214.794
 11
14.0797
 21
-214.686
  0
LINE
  8
0
 10
14.0797
 20
-214.686
 11
14.5712
 21
-214.603
  0
LINE
  8
0
 10
14.5712
 20
-214.603
 11
15.0664
 21
-214.544
  0
LINE
  8
0
 10
15.0664
 20
-214.544
 11
15.5638
 21
-214.51
  0
LINE
  8
0
 10
15.5638
 20
-214.51
 11
16.0623
 21
-214.5
  0
LINE
  8
0
 10
16.0623
 20
-214.5
 11
16.5607
 21
-214.516
  0
LINE
  8
0
 10
16.5607
 20
-214.516
 11
17.0577
 21
-214.556
  0
LINE
  8
0
 10
17.0577
 20
-214.556
 11
17.552
 21
-214.621
  0
LINE
  8
0
 10
17.552
 20
-214.621
 11
18.0425
 21
-214.711
  0
LINE
  8
0
 10
18.0425
 20
-214.711
 11
18.5279
 21
-214.825
  0
LINE
  8
0
 10
18.5279
 20
-214.825
 11
19.007
 21
-214.963
  0
LINE
  8
0
 10
19.007
 20
-214.963
 11
19.4787
 21
-215.125
  0
LINE
  8
0
 10
19.4787
 20
-215.125
 11
19.9417
 21
-215.31
  0
LINE
  8
0
 10
19.9417
 20
-215.31
 11
20.3949
 21
-215.518
  0
LINE
  8
0
 10
20.3949
 20
-215.518
 11
20.8372
 21
-215.748
  0
LINE
  8
0
 10
20.8372
 20
-215.748
 11
21.2674
 21
-216
  0
LINE
  8
0
 10
21.2674
 20
-216
 11
21.6846
 21
-216.273
  0
LINE
  8
0
 10
21.6846
 20
-216.273
 11
22.0876
 21
-216.566
  0
LINE
  8
0
 10
22.0876
 20
-216.566
 11
22.4755
 21
-216.88
  0
LINE
  8
0
 10
22.4755
 20
-216.88
 11
22.8473
 21
-217.212
  0
LINE
  8
0
 10
22.8473
 20
-217.212
 11
23.202
 21
-217.562
  0
LINE
  8
0
 10
23.202
 20
-217.562
 11
23.5389
 21
-217.93
  0
LINE
  8
0
 10
23.5389
 20
-217.93
 11
23.857
 21
-218.314
  0
LINE
  8
0
 10
23.857
 20
-218.314
 11
24.1556
 21
-218.713
  0
LINE
  8
0
 10
24.1556
 20
-218.713
 11
24.4339
 21
-219.127
  0
LINE
  8
0
 10
24.4339
 20
-219.127
 11
24.6912
 21
-219.554
  0
LINE
  8
0
 10
24.6912
 20
-219.554
 11
24.927
 21
-219.993
  0
LINE
  8
0
 10
24.927
 20
-219.993
 11
25.1405
 21
-220.444
  0
LINE
  8
0
 10
25.1405
 20
-220.444
 11
25.3313
 21
-220.905
  0
LINE
  8
0
 10
25.3313
 20
-220.905
 11
25.4989
 21
-221.374
  0
LINE
  8
0
 10
25.4989
 20
-221.374
 11
25.6429
 21
-221.852
  0
LINE
  8
0
 10
25.6429
 20
-221.852
 11
25.763
 21
-222.336
  0
LINE
  8
0
 10
25.763
 20
-222.336
 11
25.8587
 21
-222.825
  0
LINE
  8
0
 10
25.8587
 20
-222.825
 11
25.9299
 21
-223.318
  0
LINE
  8
0
 10
25.9299
 20
-223.318
 11
25.9765
 21
-223.815
  0
LINE
  8
0
 10
25.9765
 20
-223.815
 11
25.9982
 21
-224.313
  0
LINE
  8
0
 10
25.9982
 20
-224.313
 11
25.9951
 21
-224.812
  0
LINE
  8
0
 10
25.9951
 20
-224.812
 11
25.9672
 21
-225.309
  0
LINE
  8
0
 10
25.9672
 20
-225.309
 11
25.9144
 21
-225.805
  0
LINE
  8
0
 10
25.9144
 20
-225.805
 11
25.8371
 21
-226.298
  0
LINE
  8
0
 10
25.8371
 20
-226.298
 11
25.7352
 21
-226.786
  0
LINE
  8
0
 10
25.7352
 20
-226.786
 11
25.6092
 21
-227.268
  0
LINE
  8
0
 10
25.6092
 20
-227.268
 11
25.4592
 21
-227.744
  0
LINE
  8
0
 10
25.4592
 20
-227.744
 11
25.2858
 21
-228.211
  0
LINE
  8
0
 10
25.2858
 20
-228.211
 11
25.0892
 21
-228.67
  0
LINE
  8
0
 10
25.0892
 20
-228.67
 11
24.8701
 21
-229.117
  0
LINE
  8
0
 10
24.8701
 20
-229.117
 11
24.6289
 21
-229.554
  0
LINE
  8
0
 10
24.6289
 20
-229.554
 11
24.3663
 21
-229.978
  0
LINE
  8
0
 10
24.3663
 20
-229.978
 11
24.0828
 21
-230.388
  0
LINE
  8
0
 10
24.0828
 20
-230.388
 11
23.7793
 21
-230.784
  0
LINE
  8
0
 10
23.7793
 20
-230.784
 11
23.4564
 21
-231.163
  0
LINE
  8
0
 10
23.4564
 20
-231.163
 11
23.115
 21
-231.527
  0
LINE
  8
0
 10
23.115
 20
-231.527
 11
22.7559
 21
-231.873
  0
LINE
  8
0
 10
22.7559
 20
-231.873
 11
22.38
 21
-232.2
  0
LINE
  8
0
 10
22.38
 20
-232.2
 11
21.9882
 21
-232.509
  0
LINE
  8
0
 10
21.9882
 20
-232.509
 11
21.5816
 21
-232.797
  0
LINE
  8
0
 10
21.5816
 20
-232.797
 11
21.1611
 21
-233.065
  0
LINE
  8
0
 10
21.1611
 20
-233.065
 11
20.7277
 21
-233.312
  0
LINE
  8
0
 10
20.7277
 20
-233.312
 11
20.2826
 21
-233.537
  0
LINE
  8
0
 10
20.2826
 20
-233.537
 11
19.8268
 21
-233.739
  0
LINE
  8
0
 10
19.8268
 20
-233.739
 11
19.3616
 21
-233.918
  0
LINE
  8
0
 10
19.3616
 20
-233.918
 11
18.8879
 21
-234.074
  0
LINE
  8
0
 10
18.8879
 20
-234.074
 11
18.4071
 21
-234.206
  0
LINE
  8
0
 10
18.4071
 20
-234.206
 11
17.9203
 21
-234.314
  0
LINE
  8
0
 10
17.9203
 20
-234.314
 11
17.4288
 21
-234.397
  0
LINE
  8
0
 10
17.4288
 20
-234.397
 11
16.9336
 21
-234.456
  0
LINE
  8
0
 10
16.9336
 20
-234.456
 11
16.4362
 21
-234.49
  0
LINE
  8
0
 10
16.4362
 20
-234.49
 11
15.9377
 21
-234.5
  0
LINE
  8
0
 10
15.9377
 20
-234.5
 11
15.4393
 21
-234.484
  0
LINE
  8
0
 10
15.4393
 20
-234.484
 11
14.9423
 21
-234.444
  0
LINE
  8
0
 10
14.9423
 20
-234.444
 11
14.448
 21
-234.379
  0
LINE
  8
0
 10
14.448
 20
-234.379
 11
13.9575
 21
-234.289
  0
LINE
  8
0
 10
13.9575
 20
-234.289
 11
13.4721
 21
-234.175
  0
LINE
  8
0
 10
13.4721
 20
-234.175
 11
12.9929
 21
-234.037
  0
LINE
  8
0
 10
12.9929
 20
-234.037
 11
12.5213
 21
-233.875
  0
LINE
  8
0
 10
12.5213
 20
-233.875
 11
12.0583
 21
-233.69
  0
LINE
  8
0
 10
12.0583
 20
-233.69
 11
11.6051
 21
-233.482
  0
LINE
  8
0
 10
11.6051
 20
-233.482
 11
11.1628
 21
-233.252
  0
LINE
  8
0
 10
11.1628
 20
-233.252
 11
10.7326
 21
-233
  0
LINE
  8
0
 10
10.7326
 20
-233
 11
10.3154
 21
-232.727
  0
LINE
  8
0
 10
10.3154
 20
-232.727
 11
9.91238
 21
-232.434
  0
LINE
  8
0
 10
9.91238
 20
-232.434
 11
9.52449
 21
-232.12
  0
LINE
  8
0
 10
9.52449
 20
-232.12
 11
9.15271
 21
-231.788
  0
LINE
  8
0
 10
9.15271
 20
-231.788
 11
8.79794
 21
-231.438
  0
LINE
  8
0
 10
8.79794
 20
-231.438
 11
8.46107
 21
-231.07
  0
LINE
  8
0
 10
8.46107
 20
-231.07
 11
8.14296
 21
-230.686
  0
LINE
  8
0
 10
8.14296
 20
-230.686
 11
7.84439
 21
-230.287
  0
LINE
  8
0
 10
7.84439
 20
-230.287
 11
7.56609
 21
-229.873
  0
LINE
  8
0
 10
7.56609
 20
-229.873
 11
7.30875
 21
-229.446
  0
LINE
  8
0
 10
7.30875
 20
-229.446
 11
7.07301
 21
-229.007
  0
LINE
  8
0
 10
7.07301
 20
-229.007
 11
6.85948
 21
-228.556
  0
LINE
  8
0
 10
6.85948
 20
-228.556
 11
6.77017
 21
-228.34
  0
LINE
  8
0
 10
6.77017
 20
-228.34
 11
0.701797
 21
-245.212
  0
LINE
  8
0
 10
0.701797
 20
-245.212
 11
0.537354
 21
-245.683
  0
LINE
  8
0
 10
0.537354
 20
-245.683
 11
0.381042
 21
-246.157
  0
LINE
  8
0
 10
0.381042
 20
-246.157
 11
0.274551
 21
-246.5
  0
LINE
  8
0
 10
0.274551
 20
-246.5
 11
8
 21
-246.5
  0
LINE
  8
0
 10
8
 20
-246.5
 11
8
 21
-273.5
  0
LINE
  8
0
 10
8
 20
-273.5
 11
5.66814
 21
-273.5
  0
LINE
  8
0
 10
5.66814
 20
-273.5
 11
5.92796
 21
-273.81
  0
LINE
  8
0
 10
5.92796
 20
-273.81
 11
6.25502
 21
-274.187
  0
LINE
  8
0
 10
6.25502
 20
-274.187
 11
6.58853
 21
-274.559
  0
LINE
  8
0
 10
6.58853
 20
-274.559
 11
6.92838
 21
-274.925
  0
LINE
  8
0
 10
6.92838
 20
-274.925
 11
7.27446
 21
-275.284
  0
LINE
  8
0
 10
7.27446
 20
-275.284
 11
7.62669
 21
-275.638
  0
LINE
  8
0
 10
7.62669
 20
-275.638
 11
7.98497
 21
-275.986
  0
LINE
  8
0
 10
7.98497
 20
-275.986
 11
8.34917
 21
-276.327
  0
LINE
  8
0
 10
8.34917
 20
-276.327
 11
8.71919
 21
-276.662
  0
LINE
  8
0
 10
8.71919
 20
-276.662
 11
9.09492
 21
-276.991
  0
LINE
  8
0
 10
9.09492
 20
-276.991
 11
9.47626
 21
-277.313
  0
LINE
  8
0
 10
9.47626
 20
-277.313
 11
9.86308
 21
-277.629
  0
LINE
  8
0
 10
9.86308
 20
-277.629
 11
10.2553
 21
-277.937
  0
LINE
  8
0
 10
10.2553
 20
-277.937
 11
10.6527
 21
-278.239
  0
LINE
  8
0
 10
10.6527
 20
-278.239
 11
11.0553
 21
-278.535
  0
LINE
  8
0
 10
11.0553
 20
-278.535
 11
11.463
 21
-278.823
  0
LINE
  8
0
 10
11.463
 20
-278.823
 11
11.8755
 21
-279.104
  0
LINE
  8
0
 10
11.8755
 20
-279.104
 11
12.2928
 21
-279.378
  0
LINE
  8
0
 10
12.2928
 20
-279.378
 11
12.7147
 21
-279.645
  0
LINE
  8
0
 10
12.7147
 20
-279.645
 11
13.1412
 21
-279.904
  0
LINE
  8
0
 10
13.1412
 20
-279.904
 11
13.5721
 21
-280.156
  0
LINE
  8
0
 10
13.5721
 20
-280.156
 11
14.0073
 21
-280.401
  0
LINE
  8
0
 10
14.0073
 20
-280.401
 11
14.4466
 21
-280.638
  0
LINE
  8
0
 10
14.4466
 20
-280.638
 11
14.8899
 21
-280.867
  0
LINE
  8
0
 10
14.8899
 20
-280.867
 11
15.3371
 21
-281.089
  0
LINE
  8
0
 10
15.3371
 20
-281.089
 11
19.8267
 21
-283.287
  0
LINE
  8
0
 10
19.8267
 20
-283.287
 11
20.0894
 21
-283.342
  0
LINE
  8
0
 10
20.0894
 20
-283.342
 11
20.2057
 21
-283.402
  0
LINE
  8
0
 10
20.2057
 20
-283.402
 11
20.227
 21
-283.408
  0
LINE
  8
0
 10
20.227
 20
-283.408
 11
20.2653
 21
-283.433
  0
LINE
  8
0
 10
20.2653
 20
-283.433
 11
20.515
 21
-283.562
  0
LINE
  8
0
 10
20.515
 20
-283.562
 11
20.6217
 21
-283.662
  0
LINE
  8
0
 10
20.6217
 20
-283.662
 11
20.646
 21
-283.677
  0
LINE
  8
0
 10
20.646
 20
-283.677
 11
20.6621
 21
-283.696
  0
LINE
  8
0
 10
20.6621
 20
-283.696
 11
52.0212
 21
-299.047
  0
LINE
  8
0
 10
52.0212
 20
-299.047
 11
52.4758
 21
-299.064
  0
LINE
  8
0
 10
52.4758
 20
-299.064
 11
52.9746
 21
-299.075
  0
LINE
  8
0
 10
52.9746
 20
-299.075
 11
53.4735
 21
-299.079
  0
LINE
  8
0
 10
53.4735
 20
-299.079
 11
53.9724
 21
-299.074
  0
LINE
  8
0
 10
53.9724
 20
-299.074
 11
54.4711
 21
-299.062
  0
LINE
  8
0
 10
54.4711
 20
-299.062
 11
54.9696
 21
-299.042
  0
LINE
  8
0
 10
54.9696
 20
-299.042
 11
55.4677
 21
-299.014
  0
LINE
  8
0
 10
55.4677
 20
-299.014
 11
55.9654
 21
-298.979
  0
LINE
  8
0
 10
55.9654
 20
-298.979
 11
56.4624
 21
-298.936
  0
LINE
  8
0
 10
56.4624
 20
-298.936
 11
56.9587
 21
-298.884
  0
LINE
  8
0
 10
56.9587
 20
-298.884
 11
57.4541
 21
-298.826
  0
LINE
  8
0
 10
57.4541
 20
-298.826
 11
57.9486
 21
-298.759
  0
LINE
  8
0
 10
57.9486
 20
-298.759
 11
58.442
 21
-298.685
  0
LINE
  8
0
 10
58.442
 20
-298.685
 11
58.9341
 21
-298.603
  0
LINE
  8
0
 10
58.9341
 20
-298.603
 11
59.4249
 21
-298.514
  0
LINE
  8
0
 10
59.4249
 20
-298.514
 11
59.9143
 21
-298.417
  0
LINE
  8
0
 10
59.9143
 20
-298.417
 11
60.4021
 21
-298.312
  0
LINE
  8
0
 10
60.4021
 20
-298.312
 11
60.8882
 21
-298.2
  0
LINE
  8
0
 10
60.8882
 20
-298.2
 11
61.3725
 21
-298.08
  0
LINE
  8
0
 10
61.3725
 20
-298.08
 11
61.8548
 21
-297.952
  0
LINE
  8
0
 10
61.8548
 20
-297.952
 11
62.3351
 21
-297.817
  0
LINE
  8
0
 10
62.3351
 20
-297.817
 11
62.8133
 21
-297.675
  0
LINE
  8
0
 10
62.8133
 20
-297.675
 11
63.2891
 21
-297.525
  0
LINE
  8
0
 10
63.2891
 20
-297.525
 11
63.7626
 21
-297.368
  0
LINE
  8
0
 10
63.7626
 20
-297.368
 11
64.2336
 21
-297.203
  0
LINE
  8
0
 10
64.2336
 20
-297.203
 11
64.7019
 21
-297.031
  0
LINE
  8
0
 10
64.7019
 20
-297.031
 11
65.1675
 21
-296.852
  0
LINE
  8
0
 10
65.1675
 20
-296.852
 11
65.6302
 21
-296.665
  0
LINE
  8
0
 10
65.6302
 20
-296.665
 11
65.705
 21
-296.634
  0
LINE
  8
0
 10
65.705
 20
-296.634
 11
85.4068
 21
-268.497
  0
LINE
  8
0
 10
85.4068
 20
-268.497
 11
106.407
 21
-205.497
  0
LINE
  8
0
 10
106.407
 20
-205.497
 11
106.411
 21
-205.416
  0
LINE
  8
0
 10
106.411
 20
-205.416
 11
106.428
 21
-204.917
  0
LINE
  8
0
 10
106.428
 20
-204.917
 11
106.437
 21
-204.418
  0
LINE
  8
0
 10
106.437
 20
-204.418
 11
106.438
 21
-203.919
  0
LINE
  8
0
 10
106.438
 20
-203.919
 11
106.432
 21
-203.42
  0
LINE
  8
0
 10
106.432
 20
-203.42
 11
106.418
 21
-202.922
  0
LINE
  8
0
 10
106.418
 20
-202.922
 11
106.396
 21
-202.423
  0
LINE
  8
0
 10
106.396
 20
-202.423
 11
106.366
 21
-201.925
  0
LINE
  8
0
 10
106.366
 20
-201.925
 11
106.329
 21
-201.428
  0
LINE
  8
0
 10
106.329
 20
-201.428
 11
106.284
 21
-200.931
  0
LINE
  8
0
 10
106.284
 20
-200.931
 11
106.231
 21
-200.435
  0
LINE
  8
0
 10
106.231
 20
-200.435
 11
106.17
 21
-199.94
  0
LINE
  8
0
 10
106.17
 20
-199.94
 11
106.102
 21
-199.445
  0
LINE
  8
0
 10
106.102
 20
-199.445
 11
106.026
 21
-198.952
  0
LINE
  8
0
 10
106.026
 20
-198.952
 11
105.942
 21
-198.461
  0
LINE
  8
0
 10
105.942
 20
-198.461
 11
105.85
 21
-197.97
  0
LINE
  8
0
 10
105.85
 20
-197.97
 11
105.751
 21
-197.481
  0
LINE
  8
0
 10
105.751
 20
-197.481
 11
105.645
 21
-196.994
  0
LINE
  8
0
 10
105.645
 20
-196.994
 11
105.53
 21
-196.508
  0
LINE
  8
0
 10
105.53
 20
-196.508
 11
105.409
 21
-196.024
  0
LINE
  8
0
 10
105.409
 20
-196.024
 11
105.279
 21
-195.542
  0
LINE
  8
0
 10
105.279
 20
-195.542
 11
105.142
 21
-195.063
  0
LINE
  8
0
 10
105.142
 20
-195.063
 11
104.998
 21
-194.585
  0
LINE
  8
0
 10
104.998
 20
-194.585
 11
104.846
 21
-194.11
  0
LINE
  8
0
 10
104.846
 20
-194.11
 11
104.687
 21
-193.637
  0
LINE
  8
0
 10
104.687
 20
-193.637
 11
104.521
 21
-193.167
  0
LINE
  8
0
 10
104.521
 20
-193.167
 11
104.347
 21
-192.699
  0
LINE
  8
0
 10
104.347
 20
-192.699
 11
104.166
 21
-192.234
  0
LINE
  8
0
 10
104.166
 20
-192.234
 11
103.994
 21
-191.813
  0
LINE
  8
0
 10
103.994
 20
-191.813
 11
75.8574
 21
-172.111
  0
LINE
  8
0
 10
75.8574
 20
-172.111
 11
75.6512
 21
-172.102
  0
LINE
  8
0
 10
75.6512
 20
-172.102
 11
75.1525
 21
-172.087
  0
LINE
  8
0
 10
75.1525
 20
-172.087
 11
74.6536
 21
-172.079
  0
LINE
  8
0
 10
74.6536
 20
-172.079
 11
74.1547
 21
-172.08
  0
LINE
  8
0
 10
74.1547
 20
-172.08
 11
73.6559
 21
-172.088
  0
LINE
  8
0
 10
73.6559
 20
-172.088
 11
73.1572
 21
-172.104
  0
LINE
  8
0
 10
73.1572
 20
-172.104
 11
72.6589
 21
-172.128
  0
LINE
  8
0
 10
72.6589
 20
-172.128
 11
72.161
 21
-172.16
  0
LINE
  8
0
 10
72.161
 20
-172.16
 11
71.6636
 21
-172.199
  0
LINE
  8
0
 10
71.6636
 20
-172.199
 11
71.167
 21
-172.246
  0
LINE
  8
0
 10
71.167
 20
-172.246
 11
70.6711
 21
-172.301
  0
LINE
  8
0
 10
70.6711
 20
-172.301
 11
70.1761
 21
-172.364
  0
LINE
  8
0
 10
70.1761
 20
-172.364
 11
69.6822
 21
-172.434
  0
LINE
  8
0
 10
69.6822
 20
-172.434
 11
69.1894
 21
-172.512
  0
LINE
  8
0
 10
69.1894
 20
-172.512
 11
41.3969
 21
-176.963
  0
LINE
  8
0
 10
41.3969
 20
-176.963
 11
40.9041
 21
-177.042
  0
LINE
  8
0
 10
40.9041
 20
-177.042
 11
40.4126
 21
-177.13
  0
LINE
  8
0
 10
40.4126
 20
-177.13
 11
39.9228
 21
-177.226
  0
LINE
  8
0
 10
39.9228
 20
-177.226
 11
39.4347
 21
-177.331
  0
LINE
  8
0
 10
39.4347
 20
-177.331
 11
38.9484
 21
-177.444
  0
LINE
  8
0
 10
38.9484
 20
-177.444
 11
38.4642
 21
-177.565
  0
LINE
  8
0
 10
38.4642
 20
-177.565
 11
37.9821
 21
-177.695
  0
LINE
  8
0
 10
37.9821
 20
-177.695
 11
37.5023
 21
-177.833
  0
LINE
  8
0
 10
37.5023
 20
-177.833
 11
37.025
 21
-177.979
  0
LINE
  8
0
 10
37.025
 20
-177.979
 11
36.5503
 21
-178.133
  0
LINE
  8
0
 10
36.5503
 20
-178.133
 11
36.0783
 21
-178.296
  0
LINE
  8
0
 10
36.0783
 20
-178.296
 11
35.6091
 21
-178.467
  0
LINE
  8
0
 10
35.6091
 20
-178.467
 11
35.143
 21
-178.645
  0
LINE
  8
0
 10
35.143
 20
-178.645
 11
34.68
 21
-178.832
  0
LINE
  8
0
 10
34.68
 20
-178.832
 11
34.2203
 21
-179.027
  0
LINE
  8
0
 10
34.2203
 20
-179.027
 11
33.764
 21
-179.229
  0
LINE
  8
0
 10
33.764
 20
-179.229
 11
33.3113
 21
-179.439
  0
LINE
  8
0
 10
33.3113
 20
-179.439
 11
32.8622
 21
-179.657
  0
LINE
  8
0
 10
32.8622
 20
-179.657
 11
32.4747
 21
-179.854
  0
LINE
  8
0
 10
32.4747
 20
-179.854
 11
37.1156
 21
-183.104
  0
LINE
  8
0
 10
53.0749
 20
-181.877
 11
53.0294
 21
-181.875
  0
LINE
  8
0
 10
53.0294
 20
-181.875
 11
53.0084
 21
-181.868
  0
LINE
  8
0
 10
53.0084
 20
-181.868
 11
52.8785
 21
-181.851
  0
LINE
  8
0
 10
52.8785
 20
-181.851
 11
52.5929
 21
-181.728
  0
LINE
  8
0
 10
52.5929
 20
-181.728
 11
52.5574
 21
-181.716
  0
LINE
  8
0
 10
52.5574
 20
-181.716
 11
52.5452
 21
-181.707
  0
LINE
  8
0
 10
52.5452
 20
-181.707
 11
52.4382
 21
-181.661
  0
LINE
  8
0
 10
52.4382
 20
-181.661
 11
52.1678
 21
-181.443
  0
LINE
  8
0
 10
52.1678
 20
-181.443
 11
52.1494
 21
-181.43
  0
LINE
  8
0
 10
52.1494
 20
-181.43
 11
52.1449
 21
-181.425
  0
LINE
  8
0
 10
52.1449
 20
-181.425
 11
52.0652
 21
-181.36
  0
LINE
  8
0
 10
52.0652
 20
-181.36
 11
51.7873
 21
-180.97
  0
LINE
  8
0
 10
51.7873
 20
-180.97
 11
51.6251
 21
-180.519
  0
LINE
  8
0
 10
51.6251
 20
-180.519
 11
51.5906
 21
-180.041
  0
LINE
  8
0
 10
51.5906
 20
-180.041
 11
51.6863
 21
-179.571
  0
LINE
  8
0
 10
51.6863
 20
-179.571
 11
51.9052
 21
-179.145
  0
LINE
  8
0
 10
51.9052
 20
-179.145
 11
52.231
 21
-178.793
  0
LINE
  8
0
 10
52.231
 20
-178.793
 11
52.6396
 21
-178.543
  0
LINE
  8
0
 10
52.6396
 20
-178.543
 11
53.1007
 21
-178.411
  0
LINE
  8
0
 10
53.1007
 20
-178.411
 11
53.58
 21
-178.41
  0
LINE
  8
0
 10
53.58
 20
-178.41
 11
54.042
 21
-178.537
  0
LINE
  8
0
 10
54.042
 20
-178.537
 11
54.1297
 21
-178.59
  0
LINE
  8
0
 10
54.1297
 20
-178.59
 11
54.1365
 21
-178.592
  0
LINE
  8
0
 10
54.1365
 20
-178.592
 11
54.1549
 21
-178.605
  0
LINE
  8
0
 10
54.1549
 20
-178.605
 11
54.4525
 21
-178.785
  0
LINE
  8
0
 10
54.4525
 20
-178.785
 11
54.5323
 21
-178.87
  0
LINE
  8
0
 10
54.5323
 20
-178.87
 11
54.5445
 21
-178.878
  0
LINE
  8
0
 10
54.5445
 20
-178.878
 11
54.5679
 21
-178.907
  0
LINE
  8
0
 10
54.5679
 20
-178.907
 11
54.7809
 21
-179.134
  0
LINE
  8
0
 10
54.7809
 20
-179.134
 11
54.8417
 21
-179.25
  0
LINE
  8
0
 10
54.8417
 20
-179.25
 11
54.8555
 21
-179.267
  0
LINE
  8
0
 10
54.8555
 20
-179.267
 11
54.8727
 21
-179.309
  0
LINE
  8
0
 10
54.8727
 20
-179.309
 11
55.0031
 21
-179.558
  0
LINE
  8
0
 10
55.0031
 20
-179.558
 11
55.0333
 21
-179.701
  0
LINE
  8
0
 10
55.0333
 20
-179.701
 11
55.0443
 21
-179.728
  0
LINE
  8
0
 10
55.0443
 20
-179.728
 11
55.0493
 21
-179.777
  0
LINE
  8
0
 10
55.0493
 20
-179.777
 11
55.1024
 21
-180.027
  0
LINE
  8
0
 10
55.1024
 20
-180.027
 11
55.0919
 21
-180.189
  0
LINE
  8
0
 10
55.0919
 20
-180.189
 11
55.0956
 21
-180.224
  0
LINE
  8
0
 10
55.0956
 20
-180.224
 11
55.0865
 21
-180.272
  0
LINE
  8
0
 10
55.0865
 20
-180.272
 11
55.0715
 21
-180.506
  0
LINE
  8
0
 10
55.0715
 20
-180.506
 11
55.0125
 21
-180.674
  0
LINE
  8
0
 10
55.0125
 20
-180.674
 11
55.0052
 21
-180.713
  0
LINE
  8
0
 10
55.0052
 20
-180.713
 11
54.9834
 21
-180.756
  0
LINE
  8
0
 10
54.9834
 20
-180.756
 11
54.9127
 21
-180.958
  0
LINE
  8
0
 10
54.9127
 20
-180.958
 11
54.8007
 21
-181.118
  0
LINE
  8
0
 10
54.8007
 20
-181.118
 11
54.7804
 21
-181.158
  0
LINE
  8
0
 10
54.7804
 20
-181.158
 11
54.7497
 21
-181.191
  0
LINE
  8
0
 10
54.7497
 20
-181.191
 11
54.6377
 21
-181.351
  0
LINE
  8
0
 10
54.6377
 20
-181.351
 11
54.4725
 21
-181.486
  0
LINE
  8
0
 10
54.4725
 20
-181.486
 11
54.4396
 21
-181.521
  0
LINE
  8
0
 10
54.4396
 20
-181.521
 11
54.4047
 21
-181.542
  0
LINE
  8
0
 10
54.4047
 20
-181.542
 11
54.2671
 21
-181.654
  0
LINE
  8
0
 10
54.2671
 20
-181.654
 11
54.0531
 21
-181.748
  0
LINE
  8
0
 10
54.0531
 20
-181.748
 11
54.0102
 21
-181.774
  0
LINE
  8
0
 10
54.0102
 20
-181.774
 11
53.9762
 21
-181.782
  0
LINE
  8
0
 10
53.9762
 20
-181.782
 11
53.8282
 21
-181.847
  0
LINE
  8
0
 10
53.8282
 20
-181.847
 11
53.5748
 21
-181.883
  0
LINE
  8
0
 10
53.5748
 20
-181.883
 11
53.5271
 21
-181.895
  0
LINE
  8
0
 10
53.5271
 20
-181.895
 11
53.4982
 21
-181.894
  0
LINE
  8
0
 10
53.4982
 20
-181.894
 11
53.3536
 21
-181.914
  0
LINE
  8
0
 10
53.3536
 20
-181.914
 11
53.0749
 21
-181.877
  0
LINE
  8
0
 10
45.7088
 20
-192.09
 11
45.2685
 21
-191.901
  0
LINE
  8
0
 10
45.2685
 20
-191.901
 11
44.8955
 21
-191.6
  0
LINE
  8
0
 10
44.8955
 20
-191.6
 11
44.6176
 21
-191.209
  0
LINE
  8
0
 10
44.6176
 20
-191.209
 11
44.4554
 21
-190.758
  0
LINE
  8
0
 10
44.4554
 20
-190.758
 11
44.4209
 21
-190.28
  0
LINE
  8
0
 10
44.4209
 20
-190.28
 11
44.5166
 21
-189.81
  0
LINE
  8
0
 10
44.5166
 20
-189.81
 11
44.7355
 21
-189.384
  0
LINE
  8
0
 10
44.7355
 20
-189.384
 11
45.0613
 21
-189.033
  0
LINE
  8
0
 10
45.0613
 20
-189.033
 11
45.4699
 21
-188.782
  0
LINE
  8
0
 10
45.4699
 20
-188.782
 11
45.931
 21
-188.651
  0
LINE
  8
0
 10
45.931
 20
-188.651
 11
46.4102
 21
-188.649
  0
LINE
  8
0
 10
46.4102
 20
-188.649
 11
46.8723
 21
-188.777
  0
LINE
  8
0
 10
46.8723
 20
-188.777
 11
47.2827
 21
-189.024
  0
LINE
  8
0
 10
47.2827
 20
-189.024
 11
47.6112
 21
-189.373
  0
LINE
  8
0
 10
47.6112
 20
-189.373
 11
47.8333
 21
-189.798
  0
LINE
  8
0
 10
47.8333
 20
-189.798
 11
47.9326
 21
-190.267
  0
LINE
  8
0
 10
47.9326
 20
-190.267
 11
47.9017
 21
-190.745
  0
LINE
  8
0
 10
47.9017
 20
-190.745
 11
47.743
 21
-191.197
  0
LINE
  8
0
 10
47.743
 20
-191.197
 11
47.468
 21
-191.59
  0
LINE
  8
0
 10
47.468
 20
-191.59
 11
47.0974
 21
-191.894
  0
LINE
  8
0
 10
47.0974
 20
-191.894
 11
46.6585
 21
-192.086
  0
LINE
  8
0
 10
46.6585
 20
-192.086
 11
46.1839
 21
-192.154
  0
LINE
  8
0
 10
46.1839
 20
-192.154
 11
45.7088
 21
-192.09
  0
LINE
  8
0
 10
73.7249
 20
-216.057
 11
73.2272
 21
-216.017
  0
LINE
  8
0
 10
73.2272
 20
-216.017
 11
72.7317
 21
-215.957
  0
LINE
  8
0
 10
72.7317
 20
-215.957
 11
72.239
 21
-215.875
  0
LINE
  8
0
 10
72.239
 20
-215.875
 11
71.7502
 21
-215.774
  0
LINE
  8
0
 10
71.7502
 20
-215.774
 11
71.2661
 21
-215.652
  0
LINE
  8
0
 10
71.2661
 20
-215.652
 11
70.7874
 21
-215.51
  0
LINE
  8
0
 10
70.7874
 20
-215.51
 11
70.315
 21
-215.348
  0
LINE
  8
0
 10
70.315
 20
-215.348
 11
69.8498
 21
-215.167
  0
LINE
  8
0
 10
69.8498
 20
-215.167
 11
69.3925
 21
-214.966
  0
LINE
  8
0
 10
69.3925
 20
-214.966
 11
68.944
 21
-214.747
  0
LINE
  8
0
 10
68.944
 20
-214.747
 11
68.505
 21
-214.509
  0
LINE
  8
0
 10
68.505
 20
-214.509
 11
68.0762
 21
-214.253
  0
LINE
  8
0
 10
68.0762
 20
-214.253
 11
67.6585
 21
-213.98
  0
LINE
  8
0
 10
67.6585
 20
-213.98
 11
67.2525
 21
-213.689
  0
LINE
  8
0
 10
67.2525
 20
-213.689
 11
66.859
 21
-213.382
  0
LINE
  8
0
 10
66.859
 20
-213.382
 11
66.4785
 21
-213.058
  0
LINE
  8
0
 10
66.4785
 20
-213.058
 11
66.1119
 21
-212.719
  0
LINE
  8
0
 10
66.1119
 20
-212.719
 11
65.7597
 21
-212.366
  0
LINE
  8
0
 10
65.7597
 20
-212.366
 11
65.4225
 21
-211.997
  0
LINE
  8
0
 10
65.4225
 20
-211.997
 11
65.1009
 21
-211.615
  0
LINE
  8
0
 10
65.1009
 20
-211.615
 11
64.7954
 21
-211.22
  0
LINE
  8
0
 10
64.7954
 20
-211.22
 11
64.5067
 21
-210.813
  0
LINE
  8
0
 10
64.5067
 20
-210.813
 11
64.2351
 21
-210.394
  0
LINE
  8
0
 10
64.2351
 20
-210.394
 11
63.9812
 21
-209.964
  0
LINE
  8
0
 10
63.9812
 20
-209.964
 11
63.7455
 21
-209.524
  0
LINE
  8
0
 10
63.7455
 20
-209.524
 11
63.5282
 21
-209.075
  0
LINE
  8
0
 10
63.5282
 20
-209.075
 11
63.3298
 21
-208.616
  0
LINE
  8
0
 10
63.3298
 20
-208.616
 11
63.1507
 21
-208.15
  0
LINE
  8
0
 10
63.1507
 20
-208.15
 11
62.9911
 21
-207.677
  0
LINE
  8
0
 10
62.9911
 20
-207.677
 11
62.8513
 21
-207.198
  0
LINE
  8
0
 10
62.8513
 20
-207.198
 11
62.7316
 21
-206.713
  0
LINE
  8
0
 10
62.7316
 20
-206.713
 11
62.6321
 21
-206.224
  0
LINE
  8
0
 10
62.6321
 20
-206.224
 11
62.5531
 21
-205.731
  0
LINE
  8
0
 10
62.5531
 20
-205.731
 11
62.4947
 21
-205.235
  0
LINE
  8
0
 10
62.4947
 20
-205.235
 11
62.4569
 21
-204.737
  0
LINE
  8
0
 10
62.4569
 20
-204.737
 11
62.4399
 21
-204.238
  0
LINE
  8
0
 10
62.4399
 20
-204.238
 11
62.4436
 21
-203.739
  0
LINE
  8
0
 10
62.4436
 20
-203.739
 11
62.4681
 21
-203.24
  0
LINE
  8
0
 10
62.4681
 20
-203.24
 11
62.5134
 21
-202.743
  0
LINE
  8
0
 10
62.5134
 20
-202.743
 11
62.5793
 21
-202.248
  0
LINE
  8
0
 10
62.5793
 20
-202.248
 11
62.6657
 21
-201.756
  0
LINE
  8
0
 10
62.6657
 20
-201.756
 11
62.7725
 21
-201.269
  0
LINE
  8
0
 10
62.7725
 20
-201.269
 11
62.8995
 21
-200.786
  0
LINE
  8
0
 10
62.8995
 20
-200.786
 11
63.0464
 21
-200.309
  0
LINE
  8
0
 10
63.0464
 20
-200.309
 11
63.2131
 21
-199.838
  0
LINE
  8
0
 10
63.2131
 20
-199.838
 11
63.3993
 21
-199.375
  0
LINE
  8
0
 10
63.3993
 20
-199.375
 11
63.6045
 21
-198.919
  0
LINE
  8
0
 10
63.6045
 20
-198.919
 11
63.8285
 21
-198.473
  0
LINE
  8
0
 10
63.8285
 20
-198.473
 11
64.0709
 21
-198.037
  0
LINE
  8
0
 10
64.0709
 20
-198.037
 11
64.3312
 21
-197.611
  0
LINE
  8
0
 10
64.3312
 20
-197.611
 11
64.609
 21
-197.196
  0
LINE
  8
0
 10
64.609
 20
-197.196
 11
64.9038
 21
-196.793
  0
LINE
  8
0
 10
64.9038
 20
-196.793
 11
65.2151
 21
-196.402
  0
LINE
  8
0
 10
65.2151
 20
-196.402
 11
65.5424
 21
-196.025
  0
LINE
  8
0
 10
65.5424
 20
-196.025
 11
65.8852
 21
-195.662
  0
LINE
  8
0
 10
65.8852
 20
-195.662
 11
66.2427
 21
-195.314
  0
LINE
  8
0
 10
66.2427
 20
-195.314
 11
66.6144
 21
-194.98
  0
LINE
  8
0
 10
66.6144
 20
-194.98
 11
66.9996
 21
-194.663
  0
LINE
  8
0
 10
66.9996
 20
-194.663
 11
67.3977
 21
-194.362
  0
LINE
  8
0
 10
67.3977
 20
-194.362
 11
67.8081
 21
-194.077
  0
LINE
  8
0
 10
67.8081
 20
-194.077
 11
68.2298
 21
-193.81
  0
LINE
  8
0
 10
68.2298
 20
-193.81
 11
68.6624
 21
-193.56
  0
LINE
  8
0
 10
68.6624
 20
-193.56
 11
69.1049
 21
-193.329
  0
LINE
  8
0
 10
69.1049
 20
-193.329
 11
69.5567
 21
-193.117
  0
LINE
  8
0
 10
69.5567
 20
-193.117
 11
70.0169
 21
-192.923
  0
LINE
  8
0
 10
70.0169
 20
-192.923
 11
70.4848
 21
-192.749
  0
LINE
  8
0
 10
70.4848
 20
-192.749
 11
70.9595
 21
-192.594
  0
LINE
  8
0
 10
70.9595
 20
-192.594
 11
71.4403
 21
-192.459
  0
LINE
  8
0
 10
71.4403
 20
-192.459
 11
71.9262
 21
-192.345
  0
LINE
  8
0
 10
71.9262
 20
-192.345
 11
72.4165
 21
-192.25
  0
LINE
  8
0
 10
72.4165
 20
-192.25
 11
72.9103
 21
-192.176
  0
LINE
  8
0
 10
72.9103
 20
-192.176
 11
73.4068
 21
-192.123
  0
LINE
  8
0
 10
73.4068
 20
-192.123
 11
73.905
 21
-192.091
  0
LINE
  8
0
 10
73.905
 20
-192.091
 11
74.4041
 21
-192.079
  0
LINE
  8
0
 10
74.4041
 20
-192.079
 11
74.9034
 21
-192.088
  0
LINE
  8
0
 10
74.9034
 20
-192.088
 11
75.4017
 21
-192.117
  0
LINE
  8
0
 10
75.4017
 20
-192.117
 11
75.8985
 21
-192.168
  0
LINE
  8
0
 10
75.8985
 20
-192.168
 11
76.3927
 21
-192.239
  0
LINE
  8
0
 10
76.3927
 20
-192.239
 11
76.8835
 21
-192.33
  0
LINE
  8
0
 10
76.8835
 20
-192.33
 11
77.3701
 21
-192.442
  0
LINE
  8
0
 10
77.3701
 20
-192.442
 11
77.8517
 21
-192.574
  0
LINE
  8
0
 10
77.8517
 20
-192.574
 11
78.3273
 21
-192.726
  0
LINE
  8
0
 10
78.3273
 20
-192.726
 11
78.7961
 21
-192.898
  0
LINE
  8
0
 10
78.7961
 20
-192.898
 11
79.2575
 21
-193.089
  0
LINE
  8
0
 10
79.2575
 20
-193.089
 11
79.7105
 21
-193.299
  0
LINE
  8
0
 10
79.7105
 20
-193.299
 11
80.1544
 21
-193.527
  0
LINE
  8
0
 10
80.1544
 20
-193.527
 11
80.5883
 21
-193.774
  0
LINE
  8
0
 10
80.5883
 20
-193.774
 11
81.0117
 21
-194.039
  0
LINE
  8
0
 10
81.0117
 20
-194.039
 11
81.4236
 21
-194.321
  0
LINE
  8
0
 10
81.4236
 20
-194.321
 11
81.8235
 21
-194.62
  0
LINE
  8
0
 10
81.8235
 20
-194.62
 11
82.2105
 21
-194.935
  0
LINE
  8
0
 10
82.2105
 20
-194.935
 11
82.5842
 21
-195.267
  0
LINE
  8
0
 10
82.5842
 20
-195.267
 11
82.9437
 21
-195.613
  0
LINE
  8
0
 10
82.9437
 20
-195.613
 11
83.2885
 21
-195.974
  0
LINE
  8
0
 10
83.2885
 20
-195.974
 11
83.618
 21
-196.349
  0
LINE
  8
0
 10
83.618
 20
-196.349
 11
83.9315
 21
-196.738
  0
LINE
  8
0
 10
83.9315
 20
-196.738
 11
84.2287
 21
-197.139
  0
LINE
  8
0
 10
84.2287
 20
-197.139
 11
84.5089
 21
-197.552
  0
LINE
  8
0
 10
84.5089
 20
-197.552
 11
84.7717
 21
-197.977
  0
LINE
  8
0
 10
84.7717
 20
-197.977
 11
85.0166
 21
-198.412
  0
LINE
  8
0
 10
85.0166
 20
-198.412
 11
85.2431
 21
-198.857
  0
LINE
  8
0
 10
85.2431
 20
-198.857
 11
85.451
 21
-199.311
  0
LINE
  8
0
 10
85.451
 20
-199.311
 11
85.6398
 21
-199.773
  0
LINE
  8
0
 10
85.6398
 20
-199.773
 11
85.8092
 21
-200.243
  0
LINE
  8
0
 10
85.8092
 20
-200.243
 11
85.9589
 21
-200.719
  0
LINE
  8
0
 10
85.9589
 20
-200.719
 11
86.0887
 21
-201.201
  0
LINE
  8
0
 10
86.0887
 20
-201.201
 11
86.1983
 21
-201.688
  0
LINE
  8
0
 10
86.1983
 20
-201.688
 11
86.2876
 21
-202.18
  0
LINE
  8
0
 10
86.2876
 20
-202.18
 11
86.3563
 21
-202.674
  0
LINE
  8
0
 10
86.3563
 20
-202.674
 11
86.4044
 21
-203.171
  0
LINE
  8
0
 10
86.4044
 20
-203.171
 11
86.4318
 21
-203.67
  0
LINE
  8
0
 10
86.4318
 20
-203.67
 11
86.4385
 21
-204.169
  0
LINE
  8
0
 10
86.4385
 20
-204.169
 11
86.4243
 21
-204.668
  0
LINE
  8
0
 10
86.4243
 20
-204.668
 11
86.3895
 21
-205.166
  0
LINE
  8
0
 10
86.3895
 20
-205.166
 11
86.3339
 21
-205.662
  0
LINE
  8
0
 10
86.3339
 20
-205.662
 11
86.2577
 21
-206.156
  0
LINE
  8
0
 10
86.2577
 20
-206.156
 11
86.1611
 21
-206.645
  0
LINE
  8
0
 10
86.1611
 20
-206.645
 11
86.0442
 21
-207.131
  0
LINE
  8
0
 10
86.0442
 20
-207.131
 11
85.9072
 21
-207.611
  0
LINE
  8
0
 10
85.9072
 20
-207.611
 11
85.7503
 21
-208.085
  0
LINE
  8
0
 10
85.7503
 20
-208.085
 11
85.5738
 21
-208.552
  0
LINE
  8
0
 10
85.5738
 20
-208.552
 11
85.3781
 21
-209.011
  0
LINE
  8
0
 10
85.3781
 20
-209.011
 11
85.1634
 21
-209.462
  0
LINE
  8
0
 10
85.1634
 20
-209.462
 11
84.9302
 21
-209.904
  0
LINE
  8
0
 10
84.9302
 20
-209.904
 11
84.6788
 21
-210.335
  0
LINE
  8
0
 10
84.6788
 20
-210.335
 11
84.4097
 21
-210.756
  0
LINE
  8
0
 10
84.4097
 20
-210.756
 11
84.1233
 21
-211.165
  0
LINE
  8
0
 10
84.1233
 20
-211.165
 11
83.8202
 21
-211.561
  0
LINE
  8
0
 10
83.8202
 20
-211.561
 11
83.5008
 21
-211.945
  0
LINE
  8
0
 10
83.5008
 20
-211.945
 11
83.1657
 21
-212.315
  0
LINE
  8
0
 10
83.1657
 20
-212.315
 11
82.8155
 21
-212.671
  0
LINE
  8
0
 10
82.8155
 20
-212.671
 11
82.4509
 21
-213.012
  0
LINE
  8
0
 10
82.4509
 20
-213.012
 11
82.0723
 21
-213.338
  0
LINE
  8
0
 10
82.0723
 20
-213.338
 11
81.6805
 21
-213.647
  0
LINE
  8
0
 10
81.6805
 20
-213.647
 11
81.2762
 21
-213.94
  0
LINE
  8
0
 10
81.2762
 20
-213.94
 11
80.8601
 21
-214.216
  0
LINE
  8
0
 10
80.8601
 20
-214.216
 11
80.4328
 21
-214.474
  0
LINE
  8
0
 10
80.4328
 20
-214.474
 11
79.9952
 21
-214.715
  0
LINE
  8
0
 10
79.9952
 20
-214.715
 11
79.5479
 21
-214.937
  0
LINE
  8
0
 10
79.5479
 20
-214.937
 11
79.0918
 21
-215.14
  0
LINE
  8
0
 10
79.0918
 20
-215.14
 11
78.6277
 21
-215.324
  0
LINE
  8
0
 10
78.6277
 20
-215.324
 11
78.1562
 21
-215.488
  0
LINE
  8
0
 10
78.1562
 20
-215.488
 11
77.6784
 21
-215.633
  0
LINE
  8
0
 10
77.6784
 20
-215.633
 11
77.195
 21
-215.758
  0
LINE
  8
0
 10
77.195
 20
-215.758
 11
76.7067
 21
-215.862
  0
LINE
  8
0
 10
76.7067
 20
-215.862
 11
76.2146
 21
-215.947
  0
LINE
  8
0
 10
76.2146
 20
-215.947
 11
75.7194
 21
-216.01
  0
LINE
  8
0
 10
75.7194
 20
-216.01
 11
75.2219
 21
-216.053
  0
LINE
  8
0
 10
75.2219
 20
-216.053
 11
74.7231
 21
-216.075
  0
LINE
  8
0
 10
74.7231
 20
-216.075
 11
74.2238
 21
-216.077
  0
LINE
  8
0
 10
74.2238
 20
-216.077
 11
73.7249
 21
-216.057
  0
LINE
  8
0
 10
94.0006
 20
-202.256
 11
93.5723
 21
-202.033
  0
LINE
  8
0
 10
93.5723
 20
-202.033
 11
93.2162
 21
-201.707
  0
LINE
  8
0
 10
93.2162
 20
-201.707
 11
92.9567
 21
-201.3
  0
LINE
  8
0
 10
92.9567
 20
-201.3
 11
92.8115
 21
-200.839
  0
LINE
  8
0
 10
92.8115
 20
-200.839
 11
92.7904
 21
-200.357
  0
LINE
  8
0
 10
92.7904
 20
-200.357
 11
92.8949
 21
-199.885
  0
LINE
  8
0
 10
92.8949
 20
-199.885
 11
93.118
 21
-199.457
  0
LINE
  8
0
 10
93.118
 20
-199.457
 11
93.4442
 21
-199.101
  0
LINE
  8
0
 10
93.4442
 20
-199.101
 11
93.8515
 21
-198.841
  0
LINE
  8
0
 10
93.8515
 20
-198.841
 11
94.3121
 21
-198.696
  0
LINE
  8
0
 10
94.3121
 20
-198.696
 11
97.0976
 21
-198.205
  0
LINE
  8
0
 10
97.0976
 20
-198.205
 11
97.5801
 21
-198.184
  0
LINE
  8
0
 10
97.5801
 20
-198.184
 11
98.0516
 21
-198.288
  0
LINE
  8
0
 10
98.0516
 20
-198.288
 11
98.4799
 21
-198.511
  0
LINE
  8
0
 10
98.4799
 20
-198.511
 11
98.836
 21
-198.838
  0
LINE
  8
0
 10
98.836
 20
-198.838
 11
99.0955
 21
-199.245
  0
LINE
  8
0
 10
99.0955
 20
-199.245
 11
99.2407
 21
-199.705
  0
LINE
  8
0
 10
99.2407
 20
-199.705
 11
99.2618
 21
-200.188
  0
LINE
  8
0
 10
99.2618
 20
-200.188
 11
99.1573
 21
-200.659
  0
LINE
  8
0
 10
99.1573
 20
-200.659
 11
98.9343
 21
-201.088
  0
LINE
  8
0
 10
98.9343
 20
-201.088
 11
98.608
 21
-201.444
  0
LINE
  8
0
 10
98.608
 20
-201.444
 11
98.2007
 21
-201.703
  0
LINE
  8
0
 10
98.2007
 20
-201.703
 11
97.7401
 21
-201.849
  0
LINE
  8
0
 10
97.7401
 20
-201.849
 11
94.9546
 21
-202.34
  0
LINE
  8
0
 10
94.9546
 20
-202.34
 11
94.4721
 21
-202.361
  0
LINE
  8
0
 10
94.4721
 20
-202.361
 11
94.0006
 21
-202.256
  0
LINE
  8
0
 10
38.7355
 20
-202.356
 11
38.69
 21
-202.354
  0
LINE
  8
0
 10
38.69
 20
-202.354
 11
38.669
 21
-202.347
  0
LINE
  8
0
 10
38.669
 20
-202.347
 11
38.5391
 21
-202.329
  0
LINE
  8
0
 10
38.5391
 20
-202.329
 11
38.2535
 21
-202.207
  0
LINE
  8
0
 10
38.2535
 20
-202.207
 11
38.218
 21
-202.195
  0
LINE
  8
0
 10
38.218
 20
-202.195
 11
38.2058
 21
-202.186
  0
LINE
  8
0
 10
38.2058
 20
-202.186
 11
38.0988
 21
-202.14
  0
LINE
  8
0
 10
38.0988
 20
-202.14
 11
37.8284
 21
-201.922
  0
LINE
  8
0
 10
37.8284
 20
-201.922
 11
37.81
 21
-201.909
  0
LINE
  8
0
 10
37.81
 20
-201.909
 11
37.8055
 21
-201.903
  0
LINE
  8
0
 10
37.8055
 20
-201.903
 11
37.7258
 21
-201.839
  0
LINE
  8
0
 10
37.7258
 20
-201.839
 11
37.4479
 21
-201.449
  0
LINE
  8
0
 10
37.4479
 20
-201.449
 11
37.2857
 21
-200.998
  0
LINE
  8
0
 10
37.2857
 20
-200.998
 11
37.2512
 21
-200.52
  0
LINE
  8
0
 10
37.2512
 20
-200.52
 11
37.3469
 21
-200.05
  0
LINE
  8
0
 10
37.3469
 20
-200.05
 11
37.5658
 21
-199.623
  0
LINE
  8
0
 10
37.5658
 20
-199.623
 11
37.8916
 21
-199.272
  0
LINE
  8
0
 10
37.8916
 20
-199.272
 11
38.3002
 21
-199.021
  0
LINE
  8
0
 10
38.3002
 20
-199.021
 11
38.7612
 21
-198.89
  0
LINE
  8
0
 10
38.7612
 20
-198.89
 11
39.2406
 21
-198.888
  0
LINE
  8
0
 10
39.2406
 20
-198.888
 11
39.7026
 21
-199.016
  0
LINE
  8
0
 10
39.7026
 20
-199.016
 11
39.7903
 21
-199.069
  0
LINE
  8
0
 10
39.7903
 20
-199.069
 11
39.797
 21
-199.071
  0
LINE
  8
0
 10
39.797
 20
-199.071
 11
39.8155
 21
-199.084
  0
LINE
  8
0
 10
39.8155
 20
-199.084
 11
40.113
 21
-199.264
  0
LINE
  8
0
 10
40.113
 20
-199.264
 11
40.1929
 21
-199.348
  0
LINE
  8
0
 10
40.1929
 20
-199.348
 11
40.2051
 21
-199.357
  0
LINE
  8
0
 10
40.2051
 20
-199.357
 11
40.2285
 21
-199.386
  0
LINE
  8
0
 10
40.2285
 20
-199.386
 11
40.4415
 21
-199.613
  0
LINE
  8
0
 10
40.4415
 20
-199.613
 11
40.5022
 21
-199.729
  0
LINE
  8
0
 10
40.5022
 20
-199.729
 11
40.5161
 21
-199.746
  0
LINE
  8
0
 10
40.5161
 20
-199.746
 11
40.5333
 21
-199.788
  0
LINE
  8
0
 10
40.5333
 20
-199.788
 11
40.6636
 21
-200.037
  0
LINE
  8
0
 10
40.6636
 20
-200.037
 11
40.6939
 21
-200.18
  0
LINE
  8
0
 10
40.6939
 20
-200.18
 11
40.7048
 21
-200.207
  0
LINE
  8
0
 10
40.7048
 20
-200.207
 11
40.7099
 21
-200.256
  0
LINE
  8
0
 10
40.7099
 20
-200.256
 11
40.7629
 21
-200.506
  0
LINE
  8
0
 10
40.7629
 20
-200.506
 11
40.7525
 21
-200.667
  0
LINE
  8
0
 10
40.7525
 20
-200.667
 11
40.7561
 21
-200.702
  0
LINE
  8
0
 10
40.7561
 20
-200.702
 11
40.7471
 21
-200.751
  0
LINE
  8
0
 10
40.7471
 20
-200.751
 11
40.732
 21
-200.985
  0
LINE
  8
0
 10
40.732
 20
-200.985
 11
40.6731
 21
-201.152
  0
LINE
  8
0
 10
40.6731
 20
-201.152
 11
40.6658
 21
-201.192
  0
LINE
  8
0
 10
40.6658
 20
-201.192
 11
40.644
 21
-201.235
  0
LINE
  8
0
 10
40.644
 20
-201.235
 11
40.5733
 21
-201.437
  0
LINE
  8
0
 10
40.5733
 20
-201.437
 11
40.4613
 21
-201.597
  0
LINE
  8
0
 10
40.4613
 20
-201.597
 11
40.441
 21
-201.637
  0
LINE
  8
0
 10
40.441
 20
-201.637
 11
40.4103
 21
-201.669
  0
LINE
  8
0
 10
40.4103
 20
-201.669
 11
40.2983
 21
-201.829
  0
LINE
  8
0
 10
40.2983
 20
-201.829
 11
40.1331
 21
-201.965
  0
LINE
  8
0
 10
40.1331
 20
-201.965
 11
40.1002
 21
-202
  0
LINE
  8
0
 10
40.1002
 20
-202
 11
40.0653
 21
-202.02
  0
LINE
  8
0
 10
40.0653
 20
-202.02
 11
39.9277
 21
-202.133
  0
LINE
  8
0
 10
39.9277
 20
-202.133
 11
39.7137
 21
-202.227
  0
LINE
  8
0
 10
39.7137
 20
-202.227
 11
39.6708
 21
-202.252
  0
LINE
  8
0
 10
39.6708
 20
-202.252
 11
39.6368
 21
-202.261
  0
LINE
  8
0
 10
39.6368
 20
-202.261
 11
39.4888
 21
-202.326
  0
LINE
  8
0
 10
39.4888
 20
-202.326
 11
39.2354
 21
-202.362
  0
LINE
  8
0
 10
39.2354
 20
-202.362
 11
39.1877
 21
-202.374
  0
LINE
  8
0
 10
39.1877
 20
-202.374
 11
39.1588
 21
-202.373
  0
LINE
  8
0
 10
39.1588
 20
-202.373
 11
39.0142
 21
-202.393
  0
LINE
  8
0
 10
39.0142
 20
-202.393
 11
38.7355
 21
-202.356
  0
LINE
  8
0
 10
50.826
 20
-209.869
 11
50.3977
 21
-209.646
  0
LINE
  8
0
 10
50.3977
 20
-209.646
 11
50.0416
 21
-209.32
  0
LINE
  8
0
 10
50.0416
 20
-209.32
 11
49.7821
 21
-208.913
  0
LINE
  8
0
 10
49.7821
 20
-208.913
 11
49.6369
 21
-208.452
  0
LINE
  8
0
 10
49.6369
 20
-208.452
 11
49.6158
 21
-207.969
  0
LINE
  8
0
 10
49.6158
 20
-207.969
 11
49.7204
 21
-207.498
  0
LINE
  8
0
 10
49.7204
 20
-207.498
 11
49.9434
 21
-207.07
  0
LINE
  8
0
 10
49.9434
 20
-207.07
 11
50.2696
 21
-206.713
  0
LINE
  8
0
 10
50.2696
 20
-206.713
 11
50.677
 21
-206.454
  0
LINE
  8
0
 10
50.677
 20
-206.454
 11
51.1375
 21
-206.309
  0
LINE
  8
0
 10
51.1375
 20
-206.309
 11
53.923
 21
-205.818
  0
LINE
  8
0
 10
53.923
 20
-205.818
 11
54.4055
 21
-205.797
  0
LINE
  8
0
 10
54.4055
 20
-205.797
 11
54.877
 21
-205.901
  0
LINE
  8
0
 10
54.877
 20
-205.901
 11
55.3054
 21
-206.124
  0
LINE
  8
0
 10
55.3054
 20
-206.124
 11
55.6614
 21
-206.45
  0
LINE
  8
0
 10
55.6614
 20
-206.45
 11
55.9209
 21
-206.858
  0
LINE
  8
0
 10
55.9209
 20
-206.858
 11
56.0661
 21
-207.318
  0
LINE
  8
0
 10
56.0661
 20
-207.318
 11
56.0872
 21
-207.801
  0
LINE
  8
0
 10
56.0872
 20
-207.801
 11
55.9827
 21
-208.272
  0
LINE
  8
0
 10
55.9827
 20
-208.272
 11
55.7597
 21
-208.701
  0
LINE
  8
0
 10
55.7597
 20
-208.701
 11
55.4334
 21
-209.057
  0
LINE
  8
0
 10
55.4334
 20
-209.057
 11
55.0261
 21
-209.316
  0
LINE
  8
0
 10
55.0261
 20
-209.316
 11
54.5655
 21
-209.461
  0
LINE
  8
0
 10
54.5655
 20
-209.461
 11
51.78
 21
-209.953
  0
LINE
  8
0
 10
51.78
 20
-209.953
 11
51.2976
 21
-209.974
  0
LINE
  8
0
 10
51.2976
 20
-209.974
 11
50.826
 21
-209.869
  0
LINE
  8
0
 10
31.3694
 20
-212.569
 11
30.929
 21
-212.38
  0
LINE
  8
0
 10
30.929
 20
-212.38
 11
30.5561
 21
-212.079
  0
LINE
  8
0
 10
30.5561
 20
-212.079
 11
30.2782
 21
-211.688
  0
LINE
  8
0
 10
30.2782
 20
-211.688
 11
30.116
 21
-211.237
  0
LINE
  8
0
 10
30.116
 20
-211.237
 11
30.0815
 21
-210.759
  0
LINE
  8
0
 10
30.0815
 20
-210.759
 11
30.1772
 21
-210.289
  0
LINE
  8
0
 10
30.1772
 20
-210.289
 11
30.3961
 21
-209.863
  0
LINE
  8
0
 10
30.3961
 20
-209.863
 11
30.7219
 21
-209.511
  0
LINE
  8
0
 10
30.7219
 20
-209.511
 11
31.1305
 21
-209.261
  0
LINE
  8
0
 10
31.1305
 20
-209.261
 11
31.5915
 21
-209.13
  0
LINE
  8
0
 10
31.5915
 20
-209.13
 11
32.0708
 21
-209.128
  0
LINE
  8
0
 10
32.0708
 20
-209.128
 11
32.5329
 21
-209.255
  0
LINE
  8
0
 10
32.5329
 20
-209.255
 11
32.9433
 21
-209.503
  0
LINE
  8
0
 10
32.9433
 20
-209.503
 11
33.2718
 21
-209.852
  0
LINE
  8
0
 10
33.2718
 20
-209.852
 11
33.4939
 21
-210.277
  0
LINE
  8
0
 10
33.4939
 20
-210.277
 11
33.5932
 21
-210.746
  0
LINE
  8
0
 10
33.5932
 20
-210.746
 11
33.5623
 21
-211.224
  0
LINE
  8
0
 10
33.5623
 20
-211.224
 11
33.4035
 21
-211.676
  0
LINE
  8
0
 10
33.4035
 20
-211.676
 11
33.1286
 21
-212.069
  0
LINE
  8
0
 10
33.1286
 20
-212.069
 11
32.758
 21
-212.373
  0
LINE
  8
0
 10
32.758
 20
-212.373
 11
32.3191
 21
-212.565
  0
LINE
  8
0
 10
32.3191
 20
-212.565
 11
31.8445
 21
-212.632
  0
LINE
  8
0
 10
31.8445
 20
-212.632
 11
31.3694
 21
-212.569
  0
LINE
  8
0
 10
19.7912
 20
-214.104
 11
19.3078
 21
-214.009
  0
LINE
  8
0
 10
19.3078
 20
-214.009
 11
18.8575
 21
-213.809
  0
LINE
  8
0
 10
18.8575
 20
-213.809
 11
18.4629
 21
-213.514
  0
LINE
  8
0
 10
18.4629
 20
-213.514
 11
18.1439
 21
-213.139
  0
LINE
  8
0
 10
18.1439
 20
-213.139
 11
17.9164
 21
-212.702
  0
LINE
  8
0
 10
17.9164
 20
-212.702
 11
17.7919
 21
-212.225
  0
LINE
  8
0
 10
17.7919
 20
-212.225
 11
17.7765
 21
-211.733
  0
LINE
  8
0
 10
17.7765
 20
-211.733
 11
17.8711
 21
-211.249
  0
LINE
  8
0
 10
17.8711
 20
-211.249
 11
18.071
 21
-210.799
  0
LINE
  8
0
 10
18.071
 20
-210.799
 11
18.366
 21
-210.405
  0
LINE
  8
0
 10
18.366
 20
-210.405
 11
18.7414
 21
-210.086
  0
LINE
  8
0
 10
18.7414
 20
-210.086
 11
19.1783
 21
-209.858
  0
LINE
  8
0
 10
19.1783
 20
-209.858
 11
19.655
 21
-209.734
  0
LINE
  8
0
 10
19.655
 20
-209.734
 11
20.1474
 21
-209.718
  0
LINE
  8
0
 10
20.1474
 20
-209.718
 11
20.6309
 21
-209.813
  0
LINE
  8
0
 10
20.6309
 20
-209.813
 11
21.0812
 21
-210.013
  0
LINE
  8
0
 10
21.0812
 20
-210.013
 11
21.4757
 21
-210.308
  0
LINE
  8
0
 10
21.4757
 20
-210.308
 11
21.7947
 21
-210.683
  0
LINE
  8
0
 10
21.7947
 20
-210.683
 11
22.0222
 21
-211.12
  0
LINE
  8
0
 10
22.0222
 20
-211.12
 11
22.1467
 21
-211.597
  0
LINE
  8
0
 10
22.1467
 20
-211.597
 11
22.1621
 21
-212.089
  0
LINE
  8
0
 10
22.1621
 20
-212.089
 11
22.0675
 21
-212.572
  0
LINE
  8
0
 10
22.0675
 20
-212.572
 11
21.8677
 21
-213.023
  0
LINE
  8
0
 10
21.8677
 20
-213.023
 11
21.5727
 21
-213.417
  0
LINE
  8
0
 10
21.5727
 20
-213.417
 11
21.1973
 21
-213.736
  0
LINE
  8
0
 10
21.1973
 20
-213.736
 11
20.7603
 21
-213.964
  0
LINE
  8
0
 10
20.7603
 20
-213.964
 11
20.2836
 21
-214.088
  0
LINE
  8
0
 10
20.2836
 20
-214.088
 11
19.7912
 21
-214.104
  0
LINE
  8
0
 10
77.8581
 20
-228.797
 11
77.4297
 21
-228.574
  0
LINE
  8
0
 10
77.4297
 20
-228.574
 11
77.0736
 21
-228.248
  0
LINE
  8
0
 10
77.0736
 20
-228.248
 11
76.8141
 21
-227.841
  0
LINE
  8
0
 10
76.8141
 20
-227.841
 11
76.6689
 21
-227.38
  0
LINE
  8
0
 10
76.6689
 20
-227.38
 11
76.1778
 21
-224.594
  0
LINE
  8
0
 10
76.1778
 20
-224.594
 11
76.1567
 21
-224.112
  0
LINE
  8
0
 10
76.1567
 20
-224.112
 11
76.2612
 21
-223.641
  0
LINE
  8
0
 10
76.2612
 20
-223.641
 11
76.4842
 21
-223.212
  0
LINE
  8
0
 10
76.4842
 20
-223.212
 11
76.8105
 21
-222.856
  0
LINE
  8
0
 10
76.8105
 20
-222.856
 11
77.2178
 21
-222.597
  0
LINE
  8
0
 10
77.2178
 20
-222.597
 11
77.6784
 21
-222.451
  0
LINE
  8
0
 10
77.6784
 20
-222.451
 11
78.1609
 21
-222.43
  0
LINE
  8
0
 10
78.1609
 20
-222.43
 11
78.6324
 21
-222.535
  0
LINE
  8
0
 10
78.6324
 20
-222.535
 11
79.0608
 21
-222.758
  0
LINE
  8
0
 10
79.0608
 20
-222.758
 11
79.4168
 21
-223.084
  0
LINE
  8
0
 10
79.4168
 20
-223.084
 11
79.6763
 21
-223.491
  0
LINE
  8
0
 10
79.6763
 20
-223.491
 11
79.8215
 21
-223.952
  0
LINE
  8
0
 10
79.8215
 20
-223.952
 11
80.3127
 21
-226.737
  0
LINE
  8
0
 10
80.3127
 20
-226.737
 11
80.3338
 21
-227.22
  0
LINE
  8
0
 10
80.3338
 20
-227.22
 11
80.2292
 21
-227.691
  0
LINE
  8
0
 10
80.2292
 20
-227.691
 11
80.0062
 21
-228.12
  0
LINE
  8
0
 10
80.0062
 20
-228.12
 11
79.68
 21
-228.476
  0
LINE
  8
0
 10
79.68
 20
-228.476
 11
79.2727
 21
-228.735
  0
LINE
  8
0
 10
79.2727
 20
-228.735
 11
78.8121
 21
-228.881
  0
LINE
  8
0
 10
78.8121
 20
-228.881
 11
78.3296
 21
-228.902
  0
LINE
  8
0
 10
78.3296
 20
-228.902
 11
77.8581
 21
-228.797
  0
LINE
  8
0
 10
11.3691
 20
-239.187
 11
10.9188
 21
-238.987
  0
LINE
  8
0
 10
10.9188
 20
-238.987
 11
10.5243
 21
-238.692
  0
LINE
  8
0
 10
10.5243
 20
-238.692
 11
10.2053
 21
-238.317
  0
LINE
  8
0
 10
10.2053
 20
-238.317
 11
9.97778
 21
-237.88
  0
LINE
  8
0
 10
9.97778
 20
-237.88
 11
9.85324
 21
-237.403
  0
LINE
  8
0
 10
9.85324
 20
-237.403
 11
9.83789
 21
-236.911
  0
LINE
  8
0
 10
9.83789
 20
-236.911
 11
9.9325
 21
-236.428
  0
LINE
  8
0
 10
9.9325
 20
-236.428
 11
10.1323
 21
-235.977
  0
LINE
  8
0
 10
10.1323
 20
-235.977
 11
10.4273
 21
-235.583
  0
LINE
  8
0
 10
10.4273
 20
-235.583
 11
10.8027
 21
-235.264
  0
LINE
  8
0
 10
10.8027
 20
-235.264
 11
11.2397
 21
-235.036
  0
LINE
  8
0
 10
11.2397
 20
-235.036
 11
11.7164
 21
-234.912
  0
LINE
  8
0
 10
11.7164
 20
-234.912
 11
12.2088
 21
-234.896
  0
LINE
  8
0
 10
12.2088
 20
-234.896
 11
12.6922
 21
-234.991
  0
LINE
  8
0
 10
12.6922
 20
-234.991
 11
13.1425
 21
-235.191
  0
LINE
  8
0
 10
13.1425
 20
-235.191
 11
13.5371
 21
-235.486
  0
LINE
  8
0
 10
13.5371
 20
-235.486
 11
13.8561
 21
-235.861
  0
LINE
  8
0
 10
13.8561
 20
-235.861
 11
14.0836
 21
-236.298
  0
LINE
  8
0
 10
14.0836
 20
-236.298
 11
14.2081
 21
-236.775
  0
LINE
  8
0
 10
14.2081
 20
-236.775
 11
14.2234
 21
-237.267
  0
LINE
  8
0
 10
14.2234
 20
-237.267
 11
14.1289
 21
-237.751
  0
LINE
  8
0
 10
14.1289
 20
-237.751
 11
13.929
 21
-238.201
  0
LINE
  8
0
 10
13.929
 20
-238.201
 11
13.634
 21
-238.595
  0
LINE
  8
0
 10
13.634
 20
-238.595
 11
13.2586
 21
-238.914
  0
LINE
  8
0
 10
13.2586
 20
-238.914
 11
12.8216
 21
-239.142
  0
LINE
  8
0
 10
12.8216
 20
-239.142
 11
12.345
 21
-239.266
  0
LINE
  8
0
 10
12.345
 20
-239.266
 11
11.8526
 21
-239.282
  0
LINE
  8
0
 10
11.8526
 20
-239.282
 11
11.3691
 21
-239.187
  0
LINE
  8
0
 10
49.2452
 20
-248.623
 11
48.8168
 21
-248.4
  0
LINE
  8
0
 10
48.8168
 20
-248.4
 11
48.4608
 21
-248.073
  0
LINE
  8
0
 10
48.4608
 20
-248.073
 11
48.2013
 21
-247.666
  0
LINE
  8
0
 10
48.2013
 20
-247.666
 11
48.0561
 21
-247.205
  0
LINE
  8
0
 10
48.0561
 20
-247.205
 11
47.5649
 21
-244.42
  0
LINE
  8
0
 10
47.5649
 20
-244.42
 11
47.5439
 21
-243.937
  0
LINE
  8
0
 10
47.5439
 20
-243.937
 11
47.6484
 21
-243.466
  0
LINE
  8
0
 10
47.6484
 20
-243.466
 11
47.8714
 21
-243.038
  0
LINE
  8
0
 10
47.8714
 20
-243.038
 11
48.1977
 21
-242.681
  0
LINE
  8
0
 10
48.1977
 20
-242.681
 11
48.605
 21
-242.422
  0
LINE
  8
0
 10
48.605
 20
-242.422
 11
49.0656
 21
-242.277
  0
LINE
  8
0
 10
49.0656
 20
-242.277
 11
49.548
 21
-242.256
  0
LINE
  8
0
 10
49.548
 20
-242.256
 11
50.0195
 21
-242.36
  0
LINE
  8
0
 10
50.0195
 20
-242.36
 11
50.4479
 21
-242.583
  0
LINE
  8
0
 10
50.4479
 20
-242.583
 11
50.804
 21
-242.91
  0
LINE
  8
0
 10
50.804
 20
-242.91
 11
51.0635
 21
-243.317
  0
LINE
  8
0
 10
51.0635
 20
-243.317
 11
51.2087
 21
-243.777
  0
LINE
  8
0
 10
51.2087
 20
-243.777
 11
51.6999
 21
-246.563
  0
LINE
  8
0
 10
51.6999
 20
-246.563
 11
51.7209
 21
-247.045
  0
LINE
  8
0
 10
51.7209
 20
-247.045
 11
51.6164
 21
-247.517
  0
LINE
  8
0
 10
51.6164
 20
-247.517
 11
51.3934
 21
-247.945
  0
LINE
  8
0
 10
51.3934
 20
-247.945
 11
51.0671
 21
-248.301
  0
LINE
  8
0
 10
51.0671
 20
-248.301
 11
50.6598
 21
-248.561
  0
LINE
  8
0
 10
50.6598
 20
-248.561
 11
50.1992
 21
-248.706
  0
LINE
  8
0
 10
50.1992
 20
-248.706
 11
49.7167
 21
-248.727
  0
LINE
  8
0
 10
49.7167
 20
-248.727
 11
49.2452
 21
-248.623
  0
LINE
  8
0
 10
19.1419
 20
-249.223
 11
18.6903
 21
-249.063
  0
LINE
  8
0
 10
18.6903
 20
-249.063
 11
18.2987
 21
-248.786
  0
LINE
  8
0
 10
18.2987
 20
-248.786
 11
17.9962
 21
-248.414
  0
LINE
  8
0
 10
17.9962
 20
-248.414
 11
17.8053
 21
-247.975
  0
LINE
  8
0
 10
17.8053
 20
-247.975
 11
17.74
 21
-247.5
  0
LINE
  8
0
 10
17.74
 20
-247.5
 11
17.8053
 21
-247.025
  0
LINE
  8
0
 10
17.8053
 20
-247.025
 11
17.9962
 21
-246.586
  0
LINE
  8
0
 10
17.9962
 20
-246.586
 11
18.2987
 21
-246.214
  0
LINE
  8
0
 10
18.2987
 20
-246.214
 11
18.6903
 21
-245.937
  0
LINE
  8
0
 10
18.6903
 20
-245.937
 11
19.1419
 21
-245.777
  0
LINE
  8
0
 10
19.1419
 20
-245.777
 11
19.6201
 21
-245.744
  0
LINE
  8
0
 10
19.6201
 20
-245.744
 11
20.0894
 21
-245.842
  0
LINE
  8
0
 10
20.0894
 20
-245.842
 11
20.515
 21
-246.062
  0
LINE
  8
0
 10
20.515
 20
-246.062
 11
20.8652
 21
-246.389
  0
LINE
  8
0
 10
20.8652
 20
-246.389
 11
21.1143
 21
-246.799
  0
LINE
  8
0
 10
21.1143
 20
-246.799
 11
21.2436
 21
-247.26
  0
LINE
  8
0
 10
21.2436
 20
-247.26
 11
21.2436
 21
-247.74
  0
LINE
  8
0
 10
21.2436
 20
-247.74
 11
21.1143
 21
-248.201
  0
LINE
  8
0
 10
21.1143
 20
-248.201
 11
20.8652
 21
-248.611
  0
LINE
  8
0
 10
20.8652
 20
-248.611
 11
20.515
 21
-248.938
  0
LINE
  8
0
 10
20.515
 20
-248.938
 11
20.0894
 21
-249.158
  0
LINE
  8
0
 10
20.0894
 20
-249.158
 11
19.6201
 21
-249.256
  0
LINE
  8
0
 10
19.6201
 20
-249.256
 11
19.1419
 21
-249.223
  0
LINE
  8
0
 10
52.7249
 20
-279.057
 11
52.2272
 21
-279.017
  0
LINE
  8
0
 10
52.2272
 20
-279.017
 11
51.7317
 21
-278.957
  0
LINE
  8
0
 10
51.7317
 20
-278.957
 11
51.239
 21
-278.875
  0
LINE
  8
0
 10
51.239
 20
-278.875
 11
50.7502
 21
-278.774
  0
LINE
  8
0
 10
50.7502
 20
-278.774
 11
50.2661
 21
-278.652
  0
LINE
  8
0
 10
50.2661
 20
-278.652
 11
49.7874
 21
-278.51
  0
LINE
  8
0
 10
49.7874
 20
-278.51
 11
49.315
 21
-278.348
  0
LINE
  8
0
 10
49.315
 20
-278.348
 11
48.8498
 21
-278.167
  0
LINE
  8
0
 10
48.8498
 20
-278.167
 11
48.3925
 21
-277.966
  0
LINE
  8
0
 10
48.3925
 20
-277.966
 11
47.944
 21
-277.747
  0
LINE
  8
0
 10
47.944
 20
-277.747
 11
47.505
 21
-277.509
  0
LINE
  8
0
 10
47.505
 20
-277.509
 11
47.0762
 21
-277.253
  0
LINE
  8
0
 10
47.0762
 20
-277.253
 11
46.6585
 21
-276.98
  0
LINE
  8
0
 10
46.6585
 20
-276.98
 11
46.2525
 21
-276.689
  0
LINE
  8
0
 10
46.2525
 20
-276.689
 11
45.859
 21
-276.382
  0
LINE
  8
0
 10
45.859
 20
-276.382
 11
45.4785
 21
-276.058
  0
LINE
  8
0
 10
45.4785
 20
-276.058
 11
45.1119
 21
-275.719
  0
LINE
  8
0
 10
45.1119
 20
-275.719
 11
44.7597
 21
-275.366
  0
LINE
  8
0
 10
44.7597
 20
-275.366
 11
44.4225
 21
-274.997
  0
LINE
  8
0
 10
44.4225
 20
-274.997
 11
44.1009
 21
-274.615
  0
LINE
  8
0
 10
44.1009
 20
-274.615
 11
43.7954
 21
-274.22
  0
LINE
  8
0
 10
43.7954
 20
-274.22
 11
43.5067
 21
-273.813
  0
LINE
  8
0
 10
43.5067
 20
-273.813
 11
43.2351
 21
-273.394
  0
LINE
  8
0
 10
43.2351
 20
-273.394
 11
42.9812
 21
-272.964
  0
LINE
  8
0
 10
42.9812
 20
-272.964
 11
42.7455
 21
-272.524
  0
LINE
  8
0
 10
42.7455
 20
-272.524
 11
42.5282
 21
-272.075
  0
LINE
  8
0
 10
42.5282
 20
-272.075
 11
42.3298
 21
-271.616
  0
LINE
  8
0
 10
42.3298
 20
-271.616
 11
42.1507
 21
-271.15
  0
LINE
  8
0
 10
42.1507
 20
-271.15
 11
41.9911
 21
-270.677
  0
LINE
  8
0
 10
41.9911
 20
-270.677
 11
41.8513
 21
-270.198
  0
LINE
  8
0
 10
41.8513
 20
-270.198
 11
41.7316
 21
-269.713
  0
LINE
  8
0
 10
41.7316
 20
-269.713
 11
41.6321
 21
-269.224
  0
LINE
  8
0
 10
41.6321
 20
-269.224
 11
41.5531
 21
-268.731
  0
LINE
  8
0
 10
41.5531
 20
-268.731
 11
41.4947
 21
-268.235
  0
LINE
  8
0
 10
41.4947
 20
-268.235
 11
41.4569
 21
-267.737
  0
LINE
  8
0
 10
41.4569
 20
-267.737
 11
41.4399
 21
-267.238
  0
LINE
  8
0
 10
41.4399
 20
-267.238
 11
41.4436
 21
-266.739
  0
LINE
  8
0
 10
41.4436
 20
-266.739
 11
41.4681
 21
-266.24
  0
LINE
  8
0
 10
41.4681
 20
-266.24
 11
41.5134
 21
-265.743
  0
LINE
  8
0
 10
41.5134
 20
-265.743
 11
41.5793
 21
-265.248
  0
LINE
  8
0
 10
41.5793
 20
-265.248
 11
41.6657
 21
-264.756
  0
LINE
  8
0
 10
41.6657
 20
-264.756
 11
41.7725
 21
-264.269
  0
LINE
  8
0
 10
41.7725
 20
-264.269
 11
41.8995
 21
-263.786
  0
LINE
  8
0
 10
41.8995
 20
-263.786
 11
42.0464
 21
-263.309
  0
LINE
  8
0
 10
42.0464
 20
-263.309
 11
42.2131
 21
-262.838
  0
LINE
  8
0
 10
42.2131
 20
-262.838
 11
42.3993
 21
-262.375
  0
LINE
  8
0
 10
42.3993
 20
-262.375
 11
42.6045
 21
-261.919
  0
LINE
  8
0
 10
42.6045
 20
-261.919
 11
42.8285
 21
-261.473
  0
LINE
  8
0
 10
42.8285
 20
-261.473
 11
43.0709
 21
-261.037
  0
LINE
  8
0
 10
43.0709
 20
-261.037
 11
43.3312
 21
-260.611
  0
LINE
  8
0
 10
43.3312
 20
-260.611
 11
43.609
 21
-260.196
  0
LINE
  8
0
 10
43.609
 20
-260.196
 11
43.9038
 21
-259.793
  0
LINE
  8
0
 10
43.9038
 20
-259.793
 11
44.2151
 21
-259.402
  0
LINE
  8
0
 10
44.2151
 20
-259.402
 11
44.5424
 21
-259.025
  0
LINE
  8
0
 10
44.5424
 20
-259.025
 11
44.8852
 21
-258.662
  0
LINE
  8
0
 10
44.8852
 20
-258.662
 11
45.2427
 21
-258.314
  0
LINE
  8
0
 10
45.2427
 20
-258.314
 11
45.6144
 21
-257.98
  0
LINE
  8
0
 10
45.6144
 20
-257.98
 11
45.9996
 21
-257.663
  0
LINE
  8
0
 10
45.9996
 20
-257.663
 11
46.3977
 21
-257.362
  0
LINE
  8
0
 10
46.3977
 20
-257.362
 11
46.8081
 21
-257.077
  0
LINE
  8
0
 10
46.8081
 20
-257.077
 11
47.2298
 21
-256.81
  0
LINE
  8
0
 10
47.2298
 20
-256.81
 11
47.6624
 21
-256.56
  0
LINE
  8
0
 10
47.6624
 20
-256.56
 11
48.1049
 21
-256.329
  0
LINE
  8
0
 10
48.1049
 20
-256.329
 11
48.5567
 21
-256.117
  0
LINE
  8
0
 10
48.5567
 20
-256.117
 11
49.0169
 21
-255.923
  0
LINE
  8
0
 10
49.0169
 20
-255.923
 11
49.4848
 21
-255.749
  0
LINE
  8
0
 10
49.4848
 20
-255.749
 11
49.9595
 21
-255.594
  0
LINE
  8
0
 10
49.9595
 20
-255.594
 11
50.4403
 21
-255.459
  0
LINE
  8
0
 10
50.4403
 20
-255.459
 11
50.9262
 21
-255.345
  0
LINE
  8
0
 10
50.9262
 20
-255.345
 11
51.4165
 21
-255.25
  0
LINE
  8
0
 10
51.4165
 20
-255.25
 11
51.9103
 21
-255.176
  0
LINE
  8
0
 10
51.9103
 20
-255.176
 11
52.4068
 21
-255.123
  0
LINE
  8
0
 10
52.4068
 20
-255.123
 11
52.905
 21
-255.091
  0
LINE
  8
0
 10
52.905
 20
-255.091
 11
53.4041
 21
-255.079
  0
LINE
  8
0
 10
53.4041
 20
-255.079
 11
53.9034
 21
-255.088
  0
LINE
  8
0
 10
53.9034
 20
-255.088
 11
54.4017
 21
-255.117
  0
LINE
  8
0
 10
54.4017
 20
-255.117
 11
54.8985
 21
-255.168
  0
LINE
  8
0
 10
54.8985
 20
-255.168
 11
55.3927
 21
-255.239
  0
LINE
  8
0
 10
55.3927
 20
-255.239
 11
55.8835
 21
-255.33
  0
LINE
  8
0
 10
55.8835
 20
-255.33
 11
56.3701
 21
-255.442
  0
LINE
  8
0
 10
56.3701
 20
-255.442
 11
56.8517
 21
-255.574
  0
LINE
  8
0
 10
56.8517
 20
-255.574
 11
57.3273
 21
-255.726
  0
LINE
  8
0
 10
57.3273
 20
-255.726
 11
57.7961
 21
-255.898
  0
LINE
  8
0
 10
57.7961
 20
-255.898
 11
58.2575
 21
-256.089
  0
LINE
  8
0
 10
58.2575
 20
-256.089
 11
58.7105
 21
-256.299
  0
LINE
  8
0
 10
58.7105
 20
-256.299
 11
59.1544
 21
-256.527
  0
LINE
  8
0
 10
59.1544
 20
-256.527
 11
59.5883
 21
-256.774
  0
LINE
  8
0
 10
59.5883
 20
-256.774
 11
60.0117
 21
-257.039
  0
LINE
  8
0
 10
60.0117
 20
-257.039
 11
60.4236
 21
-257.321
  0
LINE
  8
0
 10
60.4236
 20
-257.321
 11
60.8235
 21
-257.62
  0
LINE
  8
0
 10
60.8235
 20
-257.62
 11
61.2105
 21
-257.935
  0
LINE
  8
0
 10
61.2105
 20
-257.935
 11
61.5842
 21
-258.267
  0
LINE
  8
0
 10
61.5842
 20
-258.267
 11
61.9437
 21
-258.613
  0
LINE
  8
0
 10
61.9437
 20
-258.613
 11
62.2885
 21
-258.974
  0
LINE
  8
0
 10
62.2885
 20
-258.974
 11
62.618
 21
-259.349
  0
LINE
  8
0
 10
62.618
 20
-259.349
 11
62.9315
 21
-259.738
  0
LINE
  8
0
 10
62.9315
 20
-259.738
 11
63.2287
 21
-260.139
  0
LINE
  8
0
 10
63.2287
 20
-260.139
 11
63.5089
 21
-260.552
  0
LINE
  8
0
 10
63.5089
 20
-260.552
 11
63.7717
 21
-260.977
  0
LINE
  8
0
 10
63.7717
 20
-260.977
 11
64.0166
 21
-261.412
  0
LINE
  8
0
 10
64.0166
 20
-261.412
 11
64.2431
 21
-261.857
  0
LINE
  8
0
 10
64.2431
 20
-261.857
 11
64.451
 21
-262.311
  0
LINE
  8
0
 10
64.451
 20
-262.311
 11
64.6398
 21
-262.773
  0
LINE
  8
0
 10
64.6398
 20
-262.773
 11
64.8092
 21
-263.243
  0
LINE
  8
0
 10
64.8092
 20
-263.243
 11
64.9589
 21
-263.719
  0
LINE
  8
0
 10
64.9589
 20
-263.719
 11
65.0887
 21
-264.201
  0
LINE
  8
0
 10
65.0887
 20
-264.201
 11
65.1983
 21
-264.688
  0
LINE
  8
0
 10
65.1983
 20
-264.688
 11
65.2876
 21
-265.18
  0
LINE
  8
0
 10
65.2876
 20
-265.18
 11
65.3563
 21
-265.674
  0
LINE
  8
0
 10
65.3563
 20
-265.674
 11
65.4044
 21
-266.171
  0
LINE
  8
0
 10
65.4044
 20
-266.171
 11
65.4318
 21
-266.67
  0
LINE
  8
0
 10
65.4318
 20
-266.67
 11
65.4385
 21
-267.169
  0
LINE
  8
0
 10
65.4385
 20
-267.169
 11
65.4243
 21
-267.668
  0
LINE
  8
0
 10
65.4243
 20
-267.668
 11
65.3895
 21
-268.166
  0
LINE
  8
0
 10
65.3895
 20
-268.166
 11
65.3339
 21
-268.662
  0
LINE
  8
0
 10
65.3339
 20
-268.662
 11
65.2577
 21
-269.156
  0
LINE
  8
0
 10
65.2577
 20
-269.156
 11
65.1611
 21
-269.645
  0
LINE
  8
0
 10
65.1611
 20
-269.645
 11
65.0442
 21
-270.131
  0
LINE
  8
0
 10
65.0442
 20
-270.131
 11
64.9072
 21
-270.611
  0
LINE
  8
0
 10
64.9072
 20
-270.611
 11
64.7503
 21
-271.085
  0
LINE
  8
0
 10
64.7503
 20
-271.085
 11
64.5738
 21
-271.552
  0
LINE
  8
0
 10
64.5738
 20
-271.552
 11
64.3781
 21
-272.011
  0
LINE
  8
0
 10
64.3781
 20
-272.011
 11
64.1634
 21
-272.462
  0
LINE
  8
0
 10
64.1634
 20
-272.462
 11
63.9302
 21
-272.904
  0
LINE
  8
0
 10
63.9302
 20
-272.904
 11
63.6788
 21
-273.335
  0
LINE
  8
0
 10
63.6788
 20
-273.335
 11
63.4097
 21
-273.756
  0
LINE
  8
0
 10
63.4097
 20
-273.756
 11
63.1233
 21
-274.165
  0
LINE
  8
0
 10
63.1233
 20
-274.165
 11
62.8202
 21
-274.561
  0
LINE
  8
0
 10
62.8202
 20
-274.561
 11
62.5008
 21
-274.945
  0
LINE
  8
0
 10
62.5008
 20
-274.945
 11
62.1657
 21
-275.315
  0
LINE
  8
0
 10
62.1657
 20
-275.315
 11
61.8155
 21
-275.671
  0
LINE
  8
0
 10
61.8155
 20
-275.671
 11
61.4508
 21
-276.012
  0
LINE
  8
0
 10
61.4508
 20
-276.012
 11
61.0723
 21
-276.338
  0
LINE
  8
0
 10
61.0723
 20
-276.338
 11
60.6805
 21
-276.647
  0
LINE
  8
0
 10
60.6805
 20
-276.647
 11
60.2762
 21
-276.94
  0
LINE
  8
0
 10
60.2762
 20
-276.94
 11
59.8601
 21
-277.216
  0
LINE
  8
0
 10
59.8601
 20
-277.216
 11
59.4328
 21
-277.474
  0
LINE
  8
0
 10
59.4328
 20
-277.474
 11
58.9952
 21
-277.715
  0
LINE
  8
0
 10
58.9952
 20
-277.715
 11
58.5479
 21
-277.937
  0
LINE
  8
0
 10
58.5479
 20
-277.937
 11
58.0918
 21
-278.14
  0
LINE
  8
0
 10
58.0918
 20
-278.14
 11
57.6277
 21
-278.324
  0
LINE
  8
0
 10
57.6277
 20
-278.324
 11
57.1562
 21
-278.488
  0
LINE
  8
0
 10
57.1562
 20
-278.488
 11
56.6784
 21
-278.633
  0
LINE
  8
0
 10
56.6784
 20
-278.633
 11
56.195
 21
-278.758
  0
LINE
  8
0
 10
56.195
 20
-278.758
 11
55.7067
 21
-278.862
  0
LINE
  8
0
 10
55.7067
 20
-278.862
 11
55.2146
 21
-278.947
  0
LINE
  8
0
 10
55.2146
 20
-278.947
 11
54.7194
 21
-279.01
  0
LINE
  8
0
 10
54.7194
 20
-279.01
 11
54.2219
 21
-279.053
  0
LINE
  8
0
 10
54.2219
 20
-279.053
 11
53.7231
 21
-279.075
  0
LINE
  8
0
 10
53.7231
 20
-279.075
 11
53.2238
 21
-279.077
  0
LINE
  8
0
 10
53.2238
 20
-279.077
 11
52.7249
 21
-279.057
  0
LINE
  8
0
 10
19.2735
 20
-261.732
 11
19.2509
 21
-261.732
  0
LINE
  8
0
 10
19.2509
 20
-261.732
 11
19.2441
 21
-261.73
  0
LINE
  8
0
 10
19.2441
 20
-261.73
 11
19.1419
 21
-261.723
  0
LINE
  8
0
 10
19.1419
 20
-261.723
 11
18.6903
 21
-261.563
  0
LINE
  8
0
 10
18.6903
 20
-261.563
 11
18.2987
 21
-261.286
  0
LINE
  8
0
 10
18.2987
 20
-261.286
 11
17.9962
 21
-260.914
  0
LINE
  8
0
 10
17.9962
 20
-260.914
 11
17.8053
 21
-260.475
  0
LINE
  8
0
 10
17.8053
 20
-260.475
 11
17.74
 21
-260
  0
LINE
  8
0
 10
17.74
 20
-260
 11
17.8053
 21
-259.525
  0
LINE
  8
0
 10
17.8053
 20
-259.525
 11
17.9962
 21
-259.086
  0
LINE
  8
0
 10
17.9962
 20
-259.086
 11
18.2987
 21
-258.714
  0
LINE
  8
0
 10
18.2987
 20
-258.714
 11
18.6903
 21
-258.437
  0
LINE
  8
0
 10
18.6903
 20
-258.437
 11
19.1419
 21
-258.277
  0
LINE
  8
0
 10
19.1419
 20
-258.277
 11
19.2441
 21
-258.27
  0
LINE
  8
0
 10
19.2441
 20
-258.27
 11
19.2509
 21
-258.268
  0
LINE
  8
0
 10
19.2509
 20
-258.268
 11
19.2735
 21
-258.268
  0
LINE
  8
0
 10
19.2735
 20
-258.268
 11
19.6201
 21
-258.244
  0
LINE
  8
0
 10
19.6201
 20
-258.244
 11
19.7342
 21
-258.268
  0
LINE
  8
0
 10
19.7342
 20
-258.268
 11
19.749
 21
-258.268
  0
LINE
  8
0
 10
19.749
 20
-258.268
 11
19.785
 21
-258.278
  0
LINE
  8
0
 10
19.785
 20
-258.278
 11
20.0894
 21
-258.342
  0
LINE
  8
0
 10
20.0894
 20
-258.342
 11
20.2057
 21
-258.402
  0
LINE
  8
0
 10
20.2057
 20
-258.402
 11
20.227
 21
-258.408
  0
LINE
  8
0
 10
20.227
 20
-258.408
 11
20.2653
 21
-258.433
  0
LINE
  8
0
 10
20.2653
 20
-258.433
 11
20.515
 21
-258.562
  0
LINE
  8
0
 10
20.515
 20
-258.562
 11
20.6217
 21
-258.662
  0
LINE
  8
0
 10
20.6217
 20
-258.662
 11
20.646
 21
-258.677
  0
LINE
  8
0
 10
20.646
 20
-258.677
 11
20.6782
 21
-258.715
  0
LINE
  8
0
 10
20.6782
 20
-258.715
 11
20.8652
 21
-258.889
  0
LINE
  8
0
 10
20.8652
 20
-258.889
 11
20.9492
 21
-259.027
  0
LINE
  8
0
 10
20.9492
 20
-259.027
 11
20.9722
 21
-259.054
  0
LINE
  8
0
 10
20.9722
 20
-259.054
 11
20.9928
 21
-259.099
  0
LINE
  8
0
 10
20.9928
 20
-259.099
 11
21.1143
 21
-259.299
  0
LINE
  8
0
 10
21.1143
 20
-259.299
 11
21.1623
 21
-259.47
  0
LINE
  8
0
 10
21.1623
 20
-259.47
 11
21.1791
 21
-259.507
  0
LINE
  8
0
 10
21.1791
 20
-259.507
 11
21.186
 21
-259.555
  0
LINE
  8
0
 10
21.186
 20
-259.555
 11
21.2436
 21
-259.76
  0
LINE
  8
0
 10
21.2436
 20
-259.76
 11
21.2436
 21
-259.956
  0
LINE
  8
0
 10
21.2436
 20
-259.956
 11
21.25
 21
-260
  0
LINE
  8
0
 10
21.25
 20
-260
 11
21.2436
 21
-260.044
  0
LINE
  8
0
 10
21.2436
 20
-260.044
 11
21.2436
 21
-260.24
  0
LINE
  8
0
 10
21.2436
 20
-260.24
 11
21.186
 21
-260.445
  0
LINE
  8
0
 10
21.186
 20
-260.445
 11
21.1791
 21
-260.493
  0
LINE
  8
0
 10
21.1791
 20
-260.493
 11
21.1623
 21
-260.53
  0
LINE
  8
0
 10
21.1623
 20
-260.53
 11
21.1143
 21
-260.701
  0
LINE
  8
0
 10
21.1143
 20
-260.701
 11
20.9928
 21
-260.901
  0
LINE
  8
0
 10
20.9928
 20
-260.901
 11
20.9722
 21
-260.946
  0
LINE
  8
0
 10
20.9722
 20
-260.946
 11
20.9492
 21
-260.973
  0
LINE
  8
0
 10
20.9492
 20
-260.973
 11
20.8652
 21
-261.111
  0
LINE
  8
0
 10
20.8652
 20
-261.111
 11
20.6782
 21
-261.285
  0
LINE
  8
0
 10
20.6782
 20
-261.285
 11
20.646
 21
-261.323
  0
LINE
  8
0
 10
20.646
 20
-261.323
 11
20.6217
 21
-261.338
  0
LINE
  8
0
 10
20.6217
 20
-261.338
 11
20.515
 21
-261.438
  0
LINE
  8
0
 10
20.515
 20
-261.438
 11
20.2653
 21
-261.567
  0
LINE
  8
0
 10
20.2653
 20
-261.567
 11
20.227
 21
-261.592
  0
LINE
  8
0
 10
20.227
 20
-261.592
 11
20.2057
 21
-261.598
  0
LINE
  8
0
 10
20.2057
 20
-261.598
 11
20.0894
 21
-261.658
  0
LINE
  8
0
 10
20.0894
 20
-261.658
 11
19.785
 21
-261.722
  0
LINE
  8
0
 10
19.785
 20
-261.722
 11
19.749
 21
-261.732
  0
LINE
  8
0
 10
19.749
 20
-261.732
 11
19.7342
 21
-261.732
  0
LINE
  8
0
 10
19.7342
 20
-261.732
 11
19.6201
 21
-261.756
  0
LINE
  8
0
 10
19.6201
 20
-261.756
 11
19.2735
 21
-261.732
  0
LINE
  8
0
 10
73.0006
 20
-265.256
 11
72.5723
 21
-265.033
  0
LINE
  8
0
 10
72.5723
 20
-265.033
 11
72.2162
 21
-264.707
  0
LINE
  8
0
 10
72.2162
 20
-264.707
 11
71.9567
 21
-264.3
  0
LINE
  8
0
 10
71.9567
 20
-264.3
 11
71.8115
 21
-263.839
  0
LINE
  8
0
 10
71.8115
 20
-263.839
 11
71.7904
 21
-263.357
  0
LINE
  8
0
 10
71.7904
 20
-263.357
 11
71.8949
 21
-262.885
  0
LINE
  8
0
 10
71.8949
 20
-262.885
 11
72.118
 21
-262.457
  0
LINE
  8
0
 10
72.118
 20
-262.457
 11
72.4442
 21
-262.101
  0
LINE
  8
0
 10
72.4442
 20
-262.101
 11
72.8515
 21
-261.841
  0
LINE
  8
0
 10
72.8515
 20
-261.841
 11
73.3121
 21
-261.696
  0
LINE
  8
0
 10
73.3121
 20
-261.696
 11
76.0976
 21
-261.205
  0
LINE
  8
0
 10
76.0976
 20
-261.205
 11
76.5801
 21
-261.184
  0
LINE
  8
0
 10
76.5801
 20
-261.184
 11
77.0516
 21
-261.288
  0
LINE
  8
0
 10
77.0516
 20
-261.288
 11
77.4799
 21
-261.511
  0
LINE
  8
0
 10
77.4799
 20
-261.511
 11
77.836
 21
-261.838
  0
LINE
  8
0
 10
77.836
 20
-261.838
 11
78.0955
 21
-262.245
  0
LINE
  8
0
 10
78.0955
 20
-262.245
 11
78.2407
 21
-262.705
  0
LINE
  8
0
 10
78.2407
 20
-262.705
 11
78.2618
 21
-263.188
  0
LINE
  8
0
 10
78.2618
 20
-263.188
 11
78.1573
 21
-263.659
  0
LINE
  8
0
 10
78.1573
 20
-263.659
 11
77.9343
 21
-264.088
  0
LINE
  8
0
 10
77.9343
 20
-264.088
 11
77.608
 21
-264.444
  0
LINE
  8
0
 10
77.608
 20
-264.444
 11
77.2007
 21
-264.703
  0
LINE
  8
0
 10
77.2007
 20
-264.703
 11
76.7401
 21
-264.849
  0
LINE
  8
0
 10
76.7401
 20
-264.849
 11
73.9546
 21
-265.34
  0
LINE
  8
0
 10
73.9546
 20
-265.34
 11
73.4721
 21
-265.361
  0
LINE
  8
0
 10
73.4721
 20
-265.361
 11
73.0006
 21
-265.256
  0
LINE
  8
0
 10
29.826
 20
-272.869
 11
29.3977
 21
-272.646
  0
LINE
  8
0
 10
29.3977
 20
-272.646
 11
29.0416
 21
-272.32
  0
LINE
  8
0
 10
29.0416
 20
-272.32
 11
28.7821
 21
-271.913
  0
LINE
  8
0
 10
28.7821
 20
-271.913
 11
28.6369
 21
-271.452
  0
LINE
  8
0
 10
28.6369
 20
-271.452
 11
28.6158
 21
-270.969
  0
LINE
  8
0
 10
28.6158
 20
-270.969
 11
28.7204
 21
-270.498
  0
LINE
  8
0
 10
28.7204
 20
-270.498
 11
28.9434
 21
-270.07
  0
LINE
  8
0
 10
28.9434
 20
-270.07
 11
29.2696
 21
-269.714
  0
LINE
  8
0
 10
29.2696
 20
-269.714
 11
29.677
 21
-269.454
  0
LINE
  8
0
 10
29.677
 20
-269.454
 11
30.1375
 21
-269.309
  0
LINE
  8
0
 10
30.1375
 20
-269.309
 11
32.923
 21
-268.818
  0
LINE
  8
0
 10
32.923
 20
-268.818
 11
33.4055
 21
-268.797
  0
LINE
  8
0
 10
33.4055
 20
-268.797
 11
33.877
 21
-268.901
  0
LINE
  8
0
 10
33.877
 20
-268.901
 11
34.3054
 21
-269.124
  0
LINE
  8
0
 10
34.3054
 20
-269.124
 11
34.6614
 21
-269.45
  0
LINE
  8
0
 10
34.6614
 20
-269.45
 11
34.9209
 21
-269.858
  0
LINE
  8
0
 10
34.9209
 20
-269.858
 11
35.0661
 21
-270.318
  0
LINE
  8
0
 10
35.0661
 20
-270.318
 11
35.0872
 21
-270.801
  0
LINE
  8
0
 10
35.0872
 20
-270.801
 11
34.9827
 21
-271.272
  0
LINE
  8
0
 10
34.9827
 20
-271.272
 11
34.7597
 21
-271.701
  0
LINE
  8
0
 10
34.7597
 20
-271.701
 11
34.4334
 21
-272.057
  0
LINE
  8
0
 10
34.4334
 20
-272.057
 11
34.0261
 21
-272.316
  0
LINE
  8
0
 10
34.0261
 20
-272.316
 11
33.5655
 21
-272.461
  0
LINE
  8
0
 10
33.5655
 20
-272.461
 11
30.78
 21
-272.953
  0
LINE
  8
0
 10
30.78
 20
-272.953
 11
30.2976
 21
-272.974
  0
LINE
  8
0
 10
30.2976
 20
-272.974
 11
29.826
 21
-272.869
  0
LINE
  8
0
 10
56.8581
 20
-291.797
 11
56.4297
 21
-291.574
  0
LINE
  8
0
 10
56.4297
 20
-291.574
 11
56.0736
 21
-291.248
  0
LINE
  8
0
 10
56.0736
 20
-291.248
 11
55.8141
 21
-290.841
  0
LINE
  8
0
 10
55.8141
 20
-290.841
 11
55.6689
 21
-290.38
  0
LINE
  8
0
 10
55.6689
 20
-290.38
 11
55.1778
 21
-287.594
  0
LINE
  8
0
 10
55.1778
 20
-287.594
 11
55.1567
 21
-287.112
  0
LINE
  8
0
 10
55.1567
 20
-287.112
 11
55.2612
 21
-286.641
  0
LINE
  8
0
 10
55.2612
 20
-286.641
 11
55.4842
 21
-286.212
  0
LINE
  8
0
 10
55.4842
 20
-286.212
 11
55.8105
 21
-285.856
  0
LINE
  8
0
 10
55.8105
 20
-285.856
 11
56.2178
 21
-285.597
  0
LINE
  8
0
 10
56.2178
 20
-285.597
 11
56.6784
 21
-285.451
  0
LINE
  8
0
 10
56.6784
 20
-285.451
 11
57.1609
 21
-285.43
  0
LINE
  8
0
 10
57.1609
 20
-285.43
 11
57.6324
 21
-285.535
  0
LINE
  8
0
 10
57.6324
 20
-285.535
 11
58.0608
 21
-285.758
  0
LINE
  8
0
 10
58.0608
 20
-285.758
 11
58.4168
 21
-286.084
  0
LINE
  8
0
 10
58.4168
 20
-286.084
 11
58.6763
 21
-286.491
  0
LINE
  8
0
 10
58.6763
 20
-286.491
 11
58.8215
 21
-286.952
  0
LINE
  8
0
 10
58.8215
 20
-286.952
 11
59.3127
 21
-289.737
  0
LINE
  8
0
 10
59.3127
 20
-289.737
 11
59.3338
 21
-290.22
  0
LINE
  8
0
 10
59.3338
 20
-290.22
 11
59.2292
 21
-290.691
  0
LINE
  8
0
 10
59.2292
 20
-290.691
 11
59.0062
 21
-291.12
  0
LINE
  8
0
 10
59.0062
 20
-291.12
 11
58.68
 21
-291.476
  0
LINE
  8
0
 10
58.68
 20
-291.476
 11
58.2727
 21
-291.735
  0
LINE
  8
0
 10
58.2727
 20
-291.735
 11
57.8121
 21
-291.881
  0
LINE
  8
0
 10
57.8121
 20
-291.881
 11
57.3296
 21
-291.902
  0
LINE
  8
0
 10
57.3296
 20
-291.902
 11
56.8581
 21
-291.797
  0
LINE
  8
0
 10
18.2987
 20
-271.214
 11
18.6903
 21
-270.937
  0
LINE
  8
0
 10
18.6903
 20
-270.937
 11
19.1419
 21
-270.777
  0
LINE
  8
0
 10
19.1419
 20
-270.777
 11
19.6201
 21
-270.744
  0
LINE
  8
0
 10
19.6201
 20
-270.744
 11
20.0894
 21
-270.842
  0
LINE
  8
0
 10
20.0894
 20
-270.842
 11
20.515
 21
-271.062
  0
LINE
  8
0
 10
20.515
 20
-271.062
 11
20.8652
 21
-271.389
  0
LINE
  8
0
 10
20.8652
 20
-271.389
 11
21.1143
 21
-271.799
  0
LINE
  8
0
 10
21.1143
 20
-271.799
 11
21.2436
 21
-272.26
  0
LINE
  8
0
 10
21.2436
 20
-272.26
 11
21.2436
 21
-272.74
  0
LINE
  8
0
 10
21.2436
 20
-272.74
 11
21.1143
 21
-273.201
  0
LINE
  8
0
 10
21.1143
 20
-273.201
 11
20.8652
 21
-273.611
  0
LINE
  8
0
 10
20.8652
 20
-273.611
 11
20.515
 21
-273.938
  0
LINE
  8
0
 10
20.515
 20
-273.938
 11
20.0894
 21
-274.158
  0
LINE
  8
0
 10
20.0894
 20
-274.158
 11
19.6201
 21
-274.256
  0
LINE
  8
0
 10
19.6201
 20
-274.256
 11
19.1419
 21
-274.223
  0
LINE
  8
0
 10
19.1419
 20
-274.223
 11
18.6903
 21
-274.063
  0
LINE
  8
0
 10
18.6903
 20
-274.063
 11
18.2987
 21
-273.786
  0
LINE
  8
0
 10
18.2987
 20
-273.786
 11
17.9962
 21
-273.414
  0
LINE
  8
0
 10
17.9962
 20
-273.414
 11
17.8053
 21
-272.975
  0
LINE
  8
0
 10
17.8053
 20
-272.975
 11
17.74
 21
-272.5
  0
LINE
  8
0
 10
17.74
 20
-272.5
 11
17.8053
 21
-272.025
  0
LINE
  8
0
 10
17.8053
 20
-272.025
 11
17.9962
 21
-271.586
  0
LINE
  8
0
 10
17.9962
 20
-271.586
 11
18.2987
 21
-271.214
  0
LINE
  8
0
 10
69.0561
 20
-184.205
 11
68.5649
 21
-181.42
  0
LINE
  8
0
 10
68.5649
 20
-181.42
 11
68.5439
 21
-180.937
  0
LINE
  8
0
 10
68.5439
 20
-180.937
 11
68.6484
 21
-180.466
  0
LINE
  8
0
 10
68.6484
 20
-180.466
 11
68.8714
 21
-180.038
  0
LINE
  8
0
 10
68.8714
 20
-180.038
 11
69.1977
 21
-179.681
  0
LINE
  8
0
 10
69.1977
 20
-179.681
 11
69.605
 21
-179.422
  0
LINE
  8
0
 10
69.605
 20
-179.422
 11
70.0656
 21
-179.277
  0
LINE
  8
0
 10
70.0656
 20
-179.277
 11
70.548
 21
-179.256
  0
LINE
  8
0
 10
70.548
 20
-179.256
 11
71.0196
 21
-179.36
  0
LINE
  8
0
 10
71.0196
 20
-179.36
 11
71.4479
 21
-179.583
  0
LINE
  8
0
 10
71.4479
 20
-179.583
 11
71.804
 21
-179.91
  0
LINE
  8
0
 10
71.804
 20
-179.91
 11
72.0635
 21
-180.317
  0
LINE
  8
0
 10
72.0635
 20
-180.317
 11
72.2087
 21
-180.777
  0
LINE
  8
0
 10
72.2087
 20
-180.777
 11
72.6999
 21
-183.563
  0
LINE
  8
0
 10
72.6999
 20
-183.563
 11
72.7209
 21
-184.045
  0
LINE
  8
0
 10
72.7209
 20
-184.045
 11
72.6164
 21
-184.517
  0
LINE
  8
0
 10
72.6164
 20
-184.517
 11
72.3934
 21
-184.945
  0
LINE
  8
0
 10
72.3934
 20
-184.945
 11
72.0671
 21
-185.301
  0
LINE
  8
0
 10
72.0671
 20
-185.301
 11
71.6598
 21
-185.561
  0
LINE
  8
0
 10
71.6598
 20
-185.561
 11
71.1992
 21
-185.706
  0
LINE
  8
0
 10
71.1992
 20
-185.706
 11
70.7167
 21
-185.727
  0
LINE
  8
0
 10
70.7167
 20
-185.727
 11
70.2452
 21
-185.623
  0
LINE
  8
0
 10
70.2452
 20
-185.623
 11
69.8168
 21
-185.4
  0
LINE
  8
0
 10
69.8168
 20
-185.4
 11
69.4608
 21
-185.073
  0
LINE
  8
0
 10
69.4608
 20
-185.073
 11
69.2013
 21
-184.666
  0
LINE
  8
0
 10
69.2013
 20
-184.666
 11
69.0561
 21
-184.205
  0
ENDSEC
  0
SECTION
  2
OBJECTS
  0
DICTIONARY
  0
ENDSEC
  0
EOF
