  0
SECTION
  2
BLOCKS
  0
ENDSEC
  0
SECTION
  2
ENTITIES
  0
LINE
  8
0
 10
53.9724
 20
-299.074
 11
54.4711
 21
-299.062
  0
LINE
  8
0
 10
54.4711
 20
-299.062
 11
54.9696
 21
-299.042
  0
LINE
  8
0
 10
54.9696
 20
-299.042
 11
55.4677
 21
-299.014
  0
LINE
  8
0
 10
55.4677
 20
-299.014
 11
55.9654
 21
-298.979
  0
LINE
  8
0
 10
55.9654
 20
-298.979
 11
56.4624
 21
-298.936
  0
LINE
  8
0
 10
56.4624
 20
-298.936
 11
56.9587
 21
-298.884
  0
LINE
  8
0
 10
56.9587
 20
-298.884
 11
57.4541
 21
-298.826
  0
LINE
  8
0
 10
57.4541
 20
-298.826
 11
57.9486
 21
-298.759
  0
LINE
  8
0
 10
57.9486
 20
-298.759
 11
58.442
 21
-298.685
  0
LINE
  8
0
 10
58.442
 20
-298.685
 11
58.9341
 21
-298.603
  0
LINE
  8
0
 10
58.9341
 20
-298.603
 11
59.4249
 21
-298.514
  0
LINE
  8
0
 10
59.4249
 20
-298.514
 11
59.9143
 21
-298.417
  0
LINE
  8
0
 10
59.9143
 20
-298.417
 11
60.4021
 21
-298.312
  0
LINE
  8
0
 10
60.4021
 20
-298.312
 11
60.8882
 21
-298.2
  0
LINE
  8
0
 10
60.8882
 20
-298.2
 11
61.3725
 21
-298.08
  0
LINE
  8
0
 10
61.3725
 20
-298.08
 11
61.8548
 21
-297.952
  0
LINE
  8
0
 10
61.8548
 20
-297.952
 11
62.3351
 21
-297.817
  0
LINE
  8
0
 10
62.3351
 20
-297.817
 11
62.8133
 21
-297.675
  0
LINE
  8
0
 10
62.8133
 20
-297.675
 11
63.2891
 21
-297.525
  0
LINE
  8
0
 10
63.2891
 20
-297.525
 11
63.7626
 21
-297.368
  0
LINE
  8
0
 10
63.7626
 20
-297.368
 11
64.2336
 21
-297.203
  0
LINE
  8
0
 10
64.2336
 20
-297.203
 11
64.7019
 21
-297.031
  0
LINE
  8
0
 10
64.7019
 20
-297.031
 11
65.1675
 21
-296.852
  0
LINE
  8
0
 10
65.1675
 20
-296.852
 11
65.6302
 21
-296.665
  0
LINE
  8
0
 10
65.6302
 20
-296.665
 11
65.705
 21
-296.634
  0
LINE
  8
0
 10
65.705
 20
-296.634
 11
85.4068
 21
-268.497
  0
LINE
  8
0
 10
85.4068
 20
-268.497
 11
106.407
 21
-205.497
  0
LINE
  8
0
 10
106.407
 20
-205.497
 11
106.411
 21
-205.416
  0
LINE
  8
0
 10
106.411
 20
-205.416
 11
106.428
 21
-204.917
  0
LINE
  8
0
 10
106.428
 20
-204.917
 11
106.437
 21
-204.418
  0
LINE
  8
0
 10
106.437
 20
-204.418
 11
106.438
 21
-203.919
  0
LINE
  8
0
 10
106.438
 20
-203.919
 11
106.432
 21
-203.42
  0
LINE
  8
0
 10
106.432
 20
-203.42
 11
106.418
 21
-202.922
  0
LINE
  8
0
 10
106.418
 20
-202.922
 11
106.396
 21
-202.423
  0
LINE
  8
0
 10
106.396
 20
-202.423
 11
106.366
 21
-201.925
  0
LINE
  8
0
 10
106.366
 20
-201.925
 11
106.329
 21
-201.428
  0
LINE
  8
0
 10
106.329
 20
-201.428
 11
106.284
 21
-200.931
  0
LINE
  8
0
 10
106.284
 20
-200.931
 11
106.231
 21
-200.435
  0
LINE
  8
0
 10
106.231
 20
-200.435
 11
106.17
 21
-199.94
  0
LINE
  8
0
 10
106.17
 20
-199.94
 11
106.102
 21
-199.445
  0
LINE
  8
0
 10
106.102
 20
-199.445
 11
106.026
 21
-198.952
  0
LINE
  8
0
 10
106.026
 20
-198.952
 11
105.942
 21
-198.461
  0
LINE
  8
0
 10
105.942
 20
-198.461
 11
105.85
 21
-197.97
  0
LINE
  8
0
 10
105.85
 20
-197.97
 11
105.751
 21
-197.481
  0
LINE
  8
0
 10
105.751
 20
-197.481
 11
105.645
 21
-196.994
  0
LINE
  8
0
 10
105.645
 20
-196.994
 11
105.53
 21
-196.508
  0
LINE
  8
0
 10
105.53
 20
-196.508
 11
105.409
 21
-196.024
  0
LINE
  8
0
 10
105.409
 20
-196.024
 11
105.279
 21
-195.542
  0
LINE
  8
0
 10
105.279
 20
-195.542
 11
105.142
 21
-195.063
  0
LINE
  8
0
 10
105.142
 20
-195.063
 11
104.998
 21
-194.585
  0
LINE
  8
0
 10
104.998
 20
-194.585
 11
104.846
 21
-194.11
  0
LINE
  8
0
 10
104.846
 20
-194.11
 11
104.687
 21
-193.637
  0
LINE
  8
0
 10
104.687
 20
-193.637
 11
104.521
 21
-193.167
  0
LINE
  8
0
 10
104.521
 20
-193.167
 11
104.347
 21
-192.699
  0
LINE
  8
0
 10
104.347
 20
-192.699
 11
104.166
 21
-192.234
  0
LINE
  8
0
 10
104.166
 20
-192.234
 11
103.994
 21
-191.813
  0
LINE
  8
0
 10
103.994
 20
-191.813
 11
75.8574
 21
-172.111
  0
LINE
  8
0
 10
75.8574
 20
-172.111
 11
75.6512
 21
-172.102
  0
LINE
  8
0
 10
75.6512
 20
-172.102
 11
75.1525
 21
-172.087
  0
LINE
  8
0
 10
75.1525
 20
-172.087
 11
74.6536
 21
-172.079
  0
LINE
  8
0
 10
74.6536
 20
-172.079
 11
74.1547
 21
-172.08
  0
LINE
  8
0
 10
74.1547
 20
-172.08
 11
73.6559
 21
-172.088
  0
LINE
  8
0
 10
73.6559
 20
-172.088
 11
73.1572
 21
-172.104
  0
LINE
  8
0
 10
73.1572
 20
-172.104
 11
72.6589
 21
-172.128
  0
LINE
  8
0
 10
72.6589
 20
-172.128
 11
72.161
 21
-172.16
  0
LINE
  8
0
 10
72.161
 20
-172.16
 11
71.6636
 21
-172.199
  0
LINE
  8
0
 10
71.6636
 20
-172.199
 11
71.167
 21
-172.246
  0
LINE
  8
0
 10
71.167
 20
-172.246
 11
70.6711
 21
-172.301
  0
LINE
  8
0
 10
70.6711
 20
-172.301
 11
70.1761
 21
-172.364
  0
LINE
  8
0
 10
70.1761
 20
-172.364
 11
69.6822
 21
-172.434
  0
LINE
  8
0
 10
69.6822
 20
-172.434
 11
40.9041
 21
-177.042
  0
LINE
  8
0
 10
40.9041
 20
-177.042
 11
40.4126
 21
-177.13
  0
LINE
  8
0
 10
40.4126
 20
-177.13
 11
39.9228
 21
-177.226
  0
LINE
  8
0
 10
39.9228
 20
-177.226
 11
39.4347
 21
-177.331
  0
LINE
  8
0
 10
39.4347
 20
-177.331
 11
38.9484
 21
-177.444
  0
LINE
  8
0
 10
38.9484
 20
-177.444
 11
38.4642
 21
-177.565
  0
LINE
  8
0
 10
38.4642
 20
-177.565
 11
37.9821
 21
-177.695
  0
LINE
  8
0
 10
37.9821
 20
-177.695
 11
37.5023
 21
-177.833
  0
LINE
  8
0
 10
37.5023
 20
-177.833
 11
37.025
 21
-177.979
  0
LINE
  8
0
 10
37.025
 20
-177.979
 11
36.5503
 21
-178.133
  0
LINE
  8
0
 10
36.5503
 20
-178.133
 11
36.0783
 21
-178.296
  0
LINE
  8
0
 10
36.0783
 20
-178.296
 11
35.6091
 21
-178.467
  0
LINE
  8
0
 10
35.6091
 20
-178.467
 11
35.143
 21
-178.645
  0
LINE
  8
0
 10
35.143
 20
-178.645
 11
34.68
 21
-178.832
  0
LINE
  8
0
 10
34.68
 20
-178.832
 11
34.2203
 21
-179.027
  0
LINE
  8
0
 10
34.2203
 20
-179.027
 11
33.764
 21
-179.229
  0
LINE
  8
0
 10
33.764
 20
-179.229
 11
33.3113
 21
-179.439
  0
LINE
  8
0
 10
33.3113
 20
-179.439
 11
32.8622
 21
-179.657
  0
LINE
  8
0
 10
32.8622
 20
-179.657
 11
32.4747
 21
-179.854
  0
LINE
  8
0
 10
32.4747
 20
-179.854
 11
37.1156
 21
-183.104
  0
LINE
  8
0
 10
37.1156
 20
-183.104
 11
21.6291
 21
-205.221
  0
LINE
  8
0
 10
21.6291
 20
-205.221
 11
16.4023
 21
-201.561
  0
LINE
  8
0
 10
16.4023
 20
-201.561
 11
11.3318
 21
-215.658
  0
LINE
  8
0
 10
11.3318
 20
-215.658
 11
11.7174
 21
-215.463
  0
LINE
  8
0
 10
11.7174
 20
-215.463
 11
12.1732
 21
-215.261
  0
LINE
  8
0
 10
12.1732
 20
-215.261
 11
12.6384
 21
-215.082
  0
LINE
  8
0
 10
12.6384
 20
-215.082
 11
13.1121
 21
-214.926
  0
LINE
  8
0
 10
13.1121
 20
-214.926
 11
13.5929
 21
-214.794
  0
LINE
  8
0
 10
13.5929
 20
-214.794
 11
14.0797
 21
-214.686
  0
LINE
  8
0
 10
14.0797
 20
-214.686
 11
14.5712
 21
-214.603
  0
LINE
  8
0
 10
14.5712
 20
-214.603
 11
15.0664
 21
-214.544
  0
LINE
  8
0
 10
15.0664
 20
-214.544
 11
15.5638
 21
-214.51
  0
LINE
  8
0
 10
15.5638
 20
-214.51
 11
16.0623
 21
-214.5
  0
LINE
  8
0
 10
16.0623
 20
-214.5
 11
16.5607
 21
-214.516
  0
LINE
  8
0
 10
16.5607
 20
-214.516
 11
17.0577
 21
-214.556
  0
LINE
  8
0
 10
17.0577
 20
-214.556
 11
17.552
 21
-214.621
  0
LINE
  8
0
 10
17.552
 20
-214.621
 11
18.0425
 21
-214.711
  0
LINE
  8
0
 10
18.0425
 20
-214.711
 11
18.5279
 21
-214.825
  0
LINE
  8
0
 10
18.5279
 20
-214.825
 11
19.0165
 21
-214.966
  0
LINE
  8
0
 10
19.0165
 20
-214.966
 11
19.4971
 21
-215.132
  0
LINE
  8
0
 10
19.4971
 20
-215.132
 11
19.9462
 21
-215.312
  0
LINE
  8
0
 10
19.9462
 20
-215.312
 11
20.3949
 21
-215.518
  0
LINE
  8
0
 10
20.3949
 20
-215.518
 11
20.8372
 21
-215.748
  0
LINE
  8
0
 10
20.8372
 20
-215.748
 11
21.2674
 21
-216
  0
LINE
  8
0
 10
21.2674
 20
-216
 11
21.6846
 21
-216.273
  0
LINE
  8
0
 10
21.6846
 20
-216.273
 11
22.0876
 21
-216.566
  0
LINE
  8
0
 10
22.0876
 20
-216.566
 11
22.4755
 21
-216.88
  0
LINE
  8
0
 10
22.4755
 20
-216.88
 11
22.8473
 21
-217.212
  0
LINE
  8
0
 10
22.8473
 20
-217.212
 11
23.202
 21
-217.562
  0
LINE
  8
0
 10
23.202
 20
-217.562
 11
23.5389
 21
-217.93
  0
LINE
  8
0
 10
23.5389
 20
-217.93
 11
23.857
 21
-218.314
  0
LINE
  8
0
 10
23.857
 20
-218.314
 11
24.1556
 21
-218.713
  0
LINE
  8
0
 10
24.1556
 20
-218.713
 11
24.4339
 21
-219.127
  0
LINE
  8
0
 10
24.4339
 20
-219.127
 11
24.6912
 21
-219.554
  0
LINE
  8
0
 10
24.6912
 20
-219.554
 11
24.927
 21
-219.993
  0
LINE
  8
0
 10
24.927
 20
-219.993
 11
25.1405
 21
-220.444
  0
LINE
  8
0
 10
25.1405
 20
-220.444
 11
25.3313
 21
-220.905
  0
LINE
  8
0
 10
25.3313
 20
-220.905
 11
25.4989
 21
-221.374
  0
LINE
  8
0
 10
25.4989
 20
-221.374
 11
25.6429
 21
-221.852
  0
LINE
  8
0
 10
25.6429
 20
-221.852
 11
25.763
 21
-222.336
  0
LINE
  8
0
 10
25.763
 20
-222.336
 11
25.8587
 21
-222.825
  0
LINE
  8
0
 10
25.8587
 20
-222.825
 11
25.9299
 21
-223.318
  0
LINE
  8
0
 10
25.9299
 20
-223.318
 11
25.9765
 21
-223.815
  0
LINE
  8
0
 10
25.9765
 20
-223.815
 11
25.9982
 21
-224.313
  0
LINE
  8
0
 10
25.9982
 20
-224.313
 11
25.9951
 21
-224.812
  0
LINE
  8
0
 10
25.9951
 20
-224.812
 11
25.9672
 21
-225.309
  0
LINE
  8
0
 10
25.9672
 20
-225.309
 11
25.9144
 21
-225.805
  0
LINE
  8
0
 10
25.9144
 20
-225.805
 11
25.8371
 21
-226.298
  0
LINE
  8
0
 10
25.8371
 20
-226.298
 11
25.7352
 21
-226.786
  0
LINE
  8
0
 10
25.7352
 20
-226.786
 11
25.6092
 21
-227.268
  0
LINE
  8
0
 10
25.6092
 20
-227.268
 11
25.4592
 21
-227.744
  0
LINE
  8
0
 10
25.4592
 20
-227.744
 11
25.2858
 21
-228.211
  0
LINE
  8
0
 10
25.2858
 20
-228.211
 11
25.0892
 21
-228.67
  0
LINE
  8
0
 10
25.0892
 20
-228.67
 11
24.8701
 21
-229.117
  0
LINE
  8
0
 10
24.8701
 20
-229.117
 11
24.6289
 21
-229.554
  0
LINE
  8
0
 10
24.6289
 20
-229.554
 11
24.3663
 21
-229.978
  0
LINE
  8
0
 10
24.3663
 20
-229.978
 11
24.0828
 21
-230.388
  0
LINE
  8
0
 10
24.0828
 20
-230.388
 11
23.7793
 21
-230.784
  0
LINE
  8
0
 10
23.7793
 20
-230.784
 11
23.4564
 21
-231.163
  0
LINE
  8
0
 10
23.4564
 20
-231.163
 11
23.115
 21
-231.527
  0
LINE
  8
0
 10
23.115
 20
-231.527
 11
22.7559
 21
-231.873
  0
LINE
  8
0
 10
22.7559
 20
-231.873
 11
22.38
 21
-232.2
  0
LINE
  8
0
 10
22.38
 20
-232.2
 11
21.9882
 21
-232.509
  0
LINE
  8
0
 10
21.9882
 20
-232.509
 11
21.5816
 21
-232.797
  0
LINE
  8
0
 10
21.5816
 20
-232.797
 11
21.1611
 21
-233.065
  0
LINE
  8
0
 10
21.1611
 20
-233.065
 11
20.7277
 21
-233.312
  0
LINE
  8
0
 10
20.7277
 20
-233.312
 11
20.2826
 21
-233.537
  0
LINE
  8
0
 10
20.2826
 20
-233.537
 11
19.8268
 21
-233.739
  0
LINE
  8
0
 10
19.8268
 20
-233.739
 11
19.3616
 21
-233.918
  0
LINE
  8
0
 10
19.3616
 20
-233.918
 11
18.8879
 21
-234.074
  0
LINE
  8
0
 10
18.8879
 20
-234.074
 11
18.4071
 21
-234.206
  0
LINE
  8
0
 10
18.4071
 20
-234.206
 11
17.9203
 21
-234.314
  0
LINE
  8
0
 10
17.9203
 20
-234.314
 11
17.4288
 21
-234.397
  0
LINE
  8
0
 10
17.4288
 20
-234.397
 11
16.9336
 21
-234.456
  0
LINE
  8
0
 10
16.9336
 20
-234.456
 11
16.4362
 21
-234.49
  0
LINE
  8
0
 10
16.4362
 20
-234.49
 11
15.9377
 21
-234.5
  0
LINE
  8
0
 10
15.9377
 20
-234.5
 11
15.4393
 21
-234.484
  0
LINE
  8
0
 10
15.4393
 20
-234.484
 11
14.9423
 21
-234.444
  0
LINE
  8
0
 10
14.9423
 20
-234.444
 11
14.448
 21
-234.379
  0
LINE
  8
0
 10
14.448
 20
-234.379
 11
13.9575
 21
-234.289
  0
LINE
  8
0
 10
13.9575
 20
-234.289
 11
13.4721
 21
-234.175
  0
LINE
  8
0
 10
13.4721
 20
-234.175
 11
12.9929
 21
-234.037
  0
LINE
  8
0
 10
12.9929
 20
-234.037
 11
12.5213
 21
-233.875
  0
LINE
  8
0
 10
12.5213
 20
-233.875
 11
12.0583
 21
-233.69
  0
LINE
  8
0
 10
12.0583
 20
-233.69
 11
11.6051
 21
-233.482
  0
LINE
  8
0
 10
11.6051
 20
-233.482
 11
11.1628
 21
-233.252
  0
LINE
  8
0
 10
11.1628
 20
-233.252
 11
10.7326
 21
-233
  0
LINE
  8
0
 10
10.7326
 20
-233
 11
10.3154
 21
-232.727
  0
LINE
  8
0
 10
10.3154
 20
-232.727
 11
9.91238
 21
-232.434
  0
LINE
  8
0
 10
9.91238
 20
-232.434
 11
9.52449
 21
-232.12
  0
LINE
  8
0
 10
9.52449
 20
-232.12
 11
9.15271
 21
-231.788
  0
LINE
  8
0
 10
9.15271
 20
-231.788
 11
8.79794
 21
-231.438
  0
LINE
  8
0
 10
8.79794
 20
-231.438
 11
8.46107
 21
-231.07
  0
LINE
  8
0
 10
8.46107
 20
-231.07
 11
8.14296
 21
-230.686
  0
LINE
  8
0
 10
8.14296
 20
-230.686
 11
7.84439
 21
-230.287
  0
LINE
  8
0
 10
7.84439
 20
-230.287
 11
7.56609
 21
-229.873
  0
LINE
  8
0
 10
7.56609
 20
-229.873
 11
7.30875
 21
-229.446
  0
LINE
  8
0
 10
7.30875
 20
-229.446
 11
7.07301
 21
-229.007
  0
LINE
  8
0
 10
7.07301
 20
-229.007
 11
6.85948
 21
-228.556
  0
LINE
  8
0
 10
6.85948
 20
-228.556
 11
6.77017
 21
-228.34
  0
LINE
  8
0
 10
6.77017
 20
-228.34
 11
0.701797
 21
-245.212
  0
LINE
  8
0
 10
0.701797
 20
-245.212
 11
0.537354
 21
-245.683
  0
LINE
  8
0
 10
0.537354
 20
-245.683
 11
0.381042
 21
-246.157
  0
LINE
  8
0
 10
0.381042
 20
-246.157
 11
0.274551
 21
-246.5
  0
LINE
  8
0
 10
0.274551
 20
-246.5
 11
8
 21
-246.5
  0
LINE
  8
0
 10
8
 20
-246.5
 11
8
 21
-273.5
  0
LINE
  8
0
 10
8
 20
-273.5
 11
5.66814
 21
-273.5
  0
LINE
  8
0
 10
5.66814
 20
-273.5
 11
5.92796
 21
-273.81
  0
LINE
  8
0
 10
5.92796
 20
-273.81
 11
6.25502
 21
-274.187
  0
LINE
  8
0
 10
6.25502
 20
-274.187
 11
6.58853
 21
-274.559
  0
LINE
  8
0
 10
6.58853
 20
-274.559
 11
6.92838
 21
-274.925
  0
LINE
  8
0
 10
6.92838
 20
-274.925
 11
7.27446
 21
-275.284
  0
LINE
  8
0
 10
7.27446
 20
-275.284
 11
7.62669
 21
-275.638
  0
LINE
  8
0
 10
7.62669
 20
-275.638
 11
7.98497
 21
-275.986
  0
LINE
  8
0
 10
7.98497
 20
-275.986
 11
8.34917
 21
-276.327
  0
LINE
  8
0
 10
8.34917
 20
-276.327
 11
8.71919
 21
-276.662
  0
LINE
  8
0
 10
8.71919
 20
-276.662
 11
9.09492
 21
-276.991
  0
LINE
  8
0
 10
9.09492
 20
-276.991
 11
9.47626
 21
-277.313
  0
LINE
  8
0
 10
9.47626
 20
-277.313
 11
9.86308
 21
-277.629
  0
LINE
  8
0
 10
9.86308
 20
-277.629
 11
10.2553
 21
-277.937
  0
LINE
  8
0
 10
10.2553
 20
-277.937
 11
10.6527
 21
-278.239
  0
LINE
  8
0
 10
10.6527
 20
-278.239
 11
11.0553
 21
-278.535
  0
LINE
  8
0
 10
11.0553
 20
-278.535
 11
11.463
 21
-278.823
  0
LINE
  8
0
 10
11.463
 20
-278.823
 11
11.8755
 21
-279.104
  0
LINE
  8
0
 10
11.8755
 20
-279.104
 11
12.2928
 21
-279.378
  0
LINE
  8
0
 10
12.2928
 20
-279.378
 11
12.7147
 21
-279.645
  0
LINE
  8
0
 10
12.7147
 20
-279.645
 11
13.1412
 21
-279.904
  0
LINE
  8
0
 10
13.1412
 20
-279.904
 11
13.5721
 21
-280.156
  0
LINE
  8
0
 10
13.5721
 20
-280.156
 11
14.0073
 21
-280.401
  0
LINE
  8
0
 10
14.0073
 20
-280.401
 11
14.4466
 21
-280.638
  0
LINE
  8
0
 10
14.4466
 20
-280.638
 11
14.8899
 21
-280.867
  0
LINE
  8
0
 10
14.8899
 20
-280.867
 11
15.3371
 21
-281.089
  0
LINE
  8
0
 10
15.3371
 20
-281.089
 11
52.0212
 21
-299.047
  0
LINE
  8
0
 10
52.0212
 20
-299.047
 11
52.4758
 21
-299.064
  0
LINE
  8
0
 10
52.4758
 20
-299.064
 11
52.9746
 21
-299.075
  0
LINE
  8
0
 10
52.9746
 20
-299.075
 11
53.4735
 21
-299.079
  0
LINE
  8
0
 10
53.4735
 20
-299.079
 11
53.9724
 21
-299.074
  0
LINE
  8
0
 10
53.0366
 20
-181.836
 11
52.5754
 21
-181.68
  0
LINE
  8
0
 10
52.5754
 20
-181.68
 11
52.1767
 21
-181.401
  0
LINE
  8
0
 10
52.1767
 20
-181.401
 11
51.8728
 21
-181.021
  0
LINE
  8
0
 10
51.8728
 20
-181.021
 11
51.6884
 21
-180.57
  0
LINE
  8
0
 10
51.6884
 20
-180.57
 11
51.6383
 21
-180.086
  0
LINE
  8
0
 10
51.6383
 20
-180.086
 11
51.7266
 21
-179.608
  0
LINE
  8
0
 10
51.7266
 20
-179.608
 11
51.9462
 21
-179.173
  0
LINE
  8
0
 10
51.9462
 20
-179.173
 11
52.2792
 21
-178.818
  0
LINE
  8
0
 10
52.2792
 20
-178.818
 11
52.6988
 21
-178.572
  0
LINE
  8
0
 10
52.6988
 20
-178.572
 11
53.1709
 21
-178.453
  0
LINE
  8
0
 10
53.1709
 20
-178.453
 11
53.6572
 21
-178.473
  0
LINE
  8
0
 10
53.6572
 20
-178.473
 11
54.1184
 21
-178.628
  0
LINE
  8
0
 10
54.1184
 20
-178.628
 11
54.5171
 21
-178.907
  0
LINE
  8
0
 10
54.5171
 20
-178.907
 11
54.821
 21
-179.287
  0
LINE
  8
0
 10
54.821
 20
-179.287
 11
55.0055
 21
-179.738
  0
LINE
  8
0
 10
55.0055
 20
-179.738
 11
55.0556
 21
-180.222
  0
LINE
  8
0
 10
55.0556
 20
-180.222
 11
54.9673
 21
-180.701
  0
LINE
  8
0
 10
54.9673
 20
-180.701
 11
54.7477
 21
-181.135
  0
LINE
  8
0
 10
54.7477
 20
-181.135
 11
54.4146
 21
-181.49
  0
LINE
  8
0
 10
54.4146
 20
-181.49
 11
53.995
 21
-181.737
  0
LINE
  8
0
 10
53.995
 20
-181.737
 11
53.523
 21
-181.855
  0
LINE
  8
0
 10
53.523
 20
-181.855
 11
53.0366
 21
-181.836
  0
LINE
  8
0
 10
45.8669
 20
-192.075
 11
45.4057
 21
-191.92
  0
LINE
  8
0
 10
45.4057
 20
-191.92
 11
45.007
 21
-191.64
  0
LINE
  8
0
 10
45.007
 20
-191.64
 11
44.7031
 21
-191.26
  0
LINE
  8
0
 10
44.7031
 20
-191.26
 11
44.5187
 21
-190.81
  0
LINE
  8
0
 10
44.5187
 20
-190.81
 11
44.4686
 21
-190.326
  0
LINE
  8
0
 10
44.4686
 20
-190.326
 11
44.5569
 21
-189.847
  0
LINE
  8
0
 10
44.5569
 20
-189.847
 11
44.7765
 21
-189.413
  0
LINE
  8
0
 10
44.7765
 20
-189.413
 11
45.1095
 21
-189.058
  0
LINE
  8
0
 10
45.1095
 20
-189.058
 11
45.5291
 21
-188.811
  0
LINE
  8
0
 10
45.5291
 20
-188.811
 11
46.0012
 21
-188.693
  0
LINE
  8
0
 10
46.0012
 20
-188.693
 11
46.4875
 21
-188.712
  0
LINE
  8
0
 10
46.4875
 20
-188.712
 11
46.9487
 21
-188.867
  0
LINE
  8
0
 10
46.9487
 20
-188.867
 11
47.3474
 21
-189.147
  0
LINE
  8
0
 10
47.3474
 20
-189.147
 11
47.6513
 21
-189.527
  0
LINE
  8
0
 10
47.6513
 20
-189.527
 11
47.8358
 21
-189.977
  0
LINE
  8
0
 10
47.8358
 20
-189.977
 11
47.8859
 21
-190.461
  0
LINE
  8
0
 10
47.8859
 20
-190.461
 11
47.7976
 21
-190.94
  0
LINE
  8
0
 10
47.7976
 20
-190.94
 11
47.578
 21
-191.374
  0
LINE
  8
0
 10
47.578
 20
-191.374
 11
47.2449
 21
-191.729
  0
LINE
  8
0
 10
47.2449
 20
-191.729
 11
46.8253
 21
-191.976
  0
LINE
  8
0
 10
46.8253
 20
-191.976
 11
46.3533
 21
-192.094
  0
LINE
  8
0
 10
46.3533
 20
-192.094
 11
45.8669
 21
-192.075
  0
LINE
  8
0
 10
73.7249
 20
-216.057
 11
73.2272
 21
-216.017
  0
LINE
  8
0
 10
73.2272
 20
-216.017
 11
72.7317
 21
-215.957
  0
LINE
  8
0
 10
72.7317
 20
-215.957
 11
72.239
 21
-215.875
  0
LINE
  8
0
 10
72.239
 20
-215.875
 11
71.7463
 21
-215.773
  0
LINE
  8
0
 10
71.7463
 20
-215.773
 11
71.2661
 21
-215.652
  0
LINE
  8
0
 10
71.2661
 20
-215.652
 11
70.7874
 21
-215.51
  0
LINE
  8
0
 10
70.7874
 20
-215.51
 11
70.315
 21
-215.348
  0
LINE
  8
0
 10
70.315
 20
-215.348
 11
69.8498
 21
-215.167
  0
LINE
  8
0
 10
69.8498
 20
-215.167
 11
69.3925
 21
-214.966
  0
LINE
  8
0
 10
69.3925
 20
-214.966
 11
68.944
 21
-214.747
  0
LINE
  8
0
 10
68.944
 20
-214.747
 11
68.505
 21
-214.509
  0
LINE
  8
0
 10
68.505
 20
-214.509
 11
68.0762
 21
-214.253
  0
LINE
  8
0
 10
68.0762
 20
-214.253
 11
67.6585
 21
-213.98
  0
LINE
  8
0
 10
67.6585
 20
-213.98
 11
67.2525
 21
-213.689
  0
LINE
  8
0
 10
67.2525
 20
-213.689
 11
66.859
 21
-213.382
  0
LINE
  8
0
 10
66.859
 20
-213.382
 11
66.4785
 21
-213.058
  0
LINE
  8
0
 10
66.4785
 20
-213.058
 11
66.1119
 21
-212.719
  0
LINE
  8
0
 10
66.1119
 20
-212.719
 11
65.7597
 21
-212.366
  0
LINE
  8
0
 10
65.7597
 20
-212.366
 11
65.4225
 21
-211.997
  0
LINE
  8
0
 10
65.4225
 20
-211.997
 11
65.1009
 21
-211.615
  0
LINE
  8
0
 10
65.1009
 20
-211.615
 11
64.7954
 21
-211.22
  0
LINE
  8
0
 10
64.7954
 20
-211.22
 11
64.5067
 21
-210.813
  0
LINE
  8
0
 10
64.5067
 20
-210.813
 11
64.2351
 21
-210.394
  0
LINE
  8
0
 10
64.2351
 20
-210.394
 11
63.9812
 21
-209.964
  0
LINE
  8
0
 10
63.9812
 20
-209.964
 11
63.7455
 21
-209.524
  0
LINE
  8
0
 10
63.7455
 20
-209.524
 11
63.5282
 21
-209.075
  0
LINE
  8
0
 10
63.5282
 20
-209.075
 11
63.3298
 21
-208.616
  0
LINE
  8
0
 10
63.3298
 20
-208.616
 11
63.1507
 21
-208.15
  0
LINE
  8
0
 10
63.1507
 20
-208.15
 11
62.9911
 21
-207.677
  0
LINE
  8
0
 10
62.9911
 20
-207.677
 11
62.8513
 21
-207.198
  0
LINE
  8
0
 10
62.8513
 20
-207.198
 11
62.7316
 21
-206.713
  0
LINE
  8
0
 10
62.7316
 20
-206.713
 11
62.6321
 21
-206.224
  0
LINE
  8
0
 10
62.6321
 20
-206.224
 11
62.5531
 21
-205.731
  0
LINE
  8
0
 10
62.5531
 20
-205.731
 11
62.4947
 21
-205.235
  0
LINE
  8
0
 10
62.4947
 20
-205.235
 11
62.4569
 21
-204.737
  0
LINE
  8
0
 10
62.4569
 20
-204.737
 11
62.4399
 21
-204.238
  0
LINE
  8
0
 10
62.4399
 20
-204.238
 11
62.4436
 21
-203.739
  0
LINE
  8
0
 10
62.4436
 20
-203.739
 11
62.4681
 21
-203.24
  0
LINE
  8
0
 10
62.4681
 20
-203.24
 11
62.5134
 21
-202.743
  0
LINE
  8
0
 10
62.5134
 20
-202.743
 11
62.5793
 21
-202.248
  0
LINE
  8
0
 10
62.5793
 20
-202.248
 11
62.6657
 21
-201.756
  0
LINE
  8
0
 10
62.6657
 20
-201.756
 11
62.7725
 21
-201.269
  0
LINE
  8
0
 10
62.7725
 20
-201.269
 11
62.8995
 21
-200.786
  0
LINE
  8
0
 10
62.8995
 20
-200.786
 11
63.0464
 21
-200.309
  0
LINE
  8
0
 10
63.0464
 20
-200.309
 11
63.2131
 21
-199.838
  0
LINE
  8
0
 10
63.2131
 20
-199.838
 11
63.3993
 21
-199.375
  0
LINE
  8
0
 10
63.3993
 20
-199.375
 11
63.6045
 21
-198.919
  0
LINE
  8
0
 10
63.6045
 20
-198.919
 11
63.8285
 21
-198.473
  0
LINE
  8
0
 10
63.8285
 20
-198.473
 11
64.0709
 21
-198.037
  0
LINE
  8
0
 10
64.0709
 20
-198.037
 11
64.3312
 21
-197.611
  0
LINE
  8
0
 10
64.3312
 20
-197.611
 11
64.609
 21
-197.196
  0
LINE
  8
0
 10
64.609
 20
-197.196
 11
64.9038
 21
-196.793
  0
LINE
  8
0
 10
64.9038
 20
-196.793
 11
65.2151
 21
-196.402
  0
LINE
  8
0
 10
65.2151
 20
-196.402
 11
65.5424
 21
-196.025
  0
LINE
  8
0
 10
65.5424
 20
-196.025
 11
65.8852
 21
-195.662
  0
LINE
  8
0
 10
65.8852
 20
-195.662
 11
66.2427
 21
-195.314
  0
LINE
  8
0
 10
66.2427
 20
-195.314
 11
66.6144
 21
-194.98
  0
LINE
  8
0
 10
66.6144
 20
-194.98
 11
66.9996
 21
-194.663
  0
LINE
  8
0
 10
66.9996
 20
-194.663
 11
67.3977
 21
-194.362
  0
LINE
  8
0
 10
67.3977
 20
-194.362
 11
67.8081
 21
-194.077
  0
LINE
  8
0
 10
67.8081
 20
-194.077
 11
68.2298
 21
-193.81
  0
LINE
  8
0
 10
68.2298
 20
-193.81
 11
68.6624
 21
-193.56
  0
LINE
  8
0
 10
68.6624
 20
-193.56
 11
69.1049
 21
-193.329
  0
LINE
  8
0
 10
69.1049
 20
-193.329
 11
69.5567
 21
-193.117
  0
LINE
  8
0
 10
69.5567
 20
-193.117
 11
70.0169
 21
-192.923
  0
LINE
  8
0
 10
70.0169
 20
-192.923
 11
70.4848
 21
-192.749
  0
LINE
  8
0
 10
70.4848
 20
-192.749
 11
70.9595
 21
-192.594
  0
LINE
  8
0
 10
70.9595
 20
-192.594
 11
71.4403
 21
-192.459
  0
LINE
  8
0
 10
71.4403
 20
-192.459
 11
71.9262
 21
-192.345
  0
LINE
  8
0
 10
71.9262
 20
-192.345
 11
72.4165
 21
-192.25
  0
LINE
  8
0
 10
72.4165
 20
-192.25
 11
72.9103
 21
-192.176
  0
LINE
  8
0
 10
72.9103
 20
-192.176
 11
73.4068
 21
-192.123
  0
LINE
  8
0
 10
73.4068
 20
-192.123
 11
73.905
 21
-192.091
  0
LINE
  8
0
 10
73.905
 20
-192.091
 11
74.4041
 21
-192.079
  0
LINE
  8
0
 10
74.4041
 20
-192.079
 11
74.9034
 21
-192.088
  0
LINE
  8
0
 10
74.9034
 20
-192.088
 11
75.4017
 21
-192.117
  0
LINE
  8
0
 10
75.4017
 20
-192.117
 11
75.8985
 21
-192.168
  0
LINE
  8
0
 10
75.8985
 20
-192.168
 11
76.3927
 21
-192.239
  0
LINE
  8
0
 10
76.3927
 20
-192.239
 11
76.8835
 21
-192.33
  0
LINE
  8
0
 10
76.8835
 20
-192.33
 11
77.3701
 21
-192.442
  0
LINE
  8
0
 10
77.3701
 20
-192.442
 11
77.8517
 21
-192.574
  0
LINE
  8
0
 10
77.8517
 20
-192.574
 11
78.3273
 21
-192.726
  0
LINE
  8
0
 10
78.3273
 20
-192.726
 11
78.7961
 21
-192.898
  0
LINE
  8
0
 10
78.7961
 20
-192.898
 11
79.2575
 21
-193.089
  0
LINE
  8
0
 10
79.2575
 20
-193.089
 11
79.7105
 21
-193.299
  0
LINE
  8
0
 10
79.7105
 20
-193.299
 11
80.1544
 21
-193.527
  0
LINE
  8
0
 10
80.1544
 20
-193.527
 11
80.5883
 21
-193.774
  0
LINE
  8
0
 10
80.5883
 20
-193.774
 11
81.0117
 21
-194.039
  0
LINE
  8
0
 10
81.0117
 20
-194.039
 11
81.4236
 21
-194.321
  0
LINE
  8
0
 10
81.4236
 20
-194.321
 11
81.8235
 21
-194.62
  0
LINE
  8
0
 10
81.8235
 20
-194.62
 11
82.2105
 21
-194.935
  0
LINE
  8
0
 10
82.2105
 20
-194.935
 11
82.5842
 21
-195.267
  0
LINE
  8
0
 10
82.5842
 20
-195.267
 11
82.9437
 21
-195.613
  0
LINE
  8
0
 10
82.9437
 20
-195.613
 11
83.2885
 21
-195.974
  0
LINE
  8
0
 10
83.2885
 20
-195.974
 11
83.618
 21
-196.349
  0
LINE
  8
0
 10
83.618
 20
-196.349
 11
83.9315
 21
-196.738
  0
LINE
  8
0
 10
83.9315
 20
-196.738
 11
84.2287
 21
-197.139
  0
LINE
  8
0
 10
84.2287
 20
-197.139
 11
84.5089
 21
-197.552
  0
LINE
  8
0
 10
84.5089
 20
-197.552
 11
84.7717
 21
-197.977
  0
LINE
  8
0
 10
84.7717
 20
-197.977
 11
85.0166
 21
-198.412
  0
LINE
  8
0
 10
85.0166
 20
-198.412
 11
85.2431
 21
-198.857
  0
LINE
  8
0
 10
85.2431
 20
-198.857
 11
85.451
 21
-199.311
  0
LINE
  8
0
 10
85.451
 20
-199.311
 11
85.6398
 21
-199.773
  0
LINE
  8
0
 10
85.6398
 20
-199.773
 11
85.8092
 21
-200.243
  0
LINE
  8
0
 10
85.8092
 20
-200.243
 11
85.9589
 21
-200.719
  0
LINE
  8
0
 10
85.9589
 20
-200.719
 11
86.0887
 21
-201.201
  0
LINE
  8
0
 10
86.0887
 20
-201.201
 11
86.1983
 21
-201.688
  0
LINE
  8
0
 10
86.1983
 20
-201.688
 11
86.2876
 21
-202.18
  0
LINE
  8
0
 10
86.2876
 20
-202.18
 11
86.3563
 21
-202.674
  0
LINE
  8
0
 10
86.3563
 20
-202.674
 11
86.4044
 21
-203.171
  0
LINE
  8
0
 10
86.4044
 20
-203.171
 11
86.4318
 21
-203.67
  0
LINE
  8
0
 10
86.4318
 20
-203.67
 11
86.4385
 21
-204.169
  0
LINE
  8
0
 10
86.4385
 20
-204.169
 11
86.4243
 21
-204.668
  0
LINE
  8
0
 10
86.4243
 20
-204.668
 11
86.3895
 21
-205.166
  0
LINE
  8
0
 10
86.3895
 20
-205.166
 11
86.3339
 21
-205.662
  0
LINE
  8
0
 10
86.3339
 20
-205.662
 11
86.2577
 21
-206.156
  0
LINE
  8
0
 10
86.2577
 20
-206.156
 11
86.1611
 21
-206.645
  0
LINE
  8
0
 10
86.1611
 20
-206.645
 11
86.0442
 21
-207.131
  0
LINE
  8
0
 10
86.0442
 20
-207.131
 11
85.9072
 21
-207.611
  0
LINE
  8
0
 10
85.9072
 20
-207.611
 11
85.7503
 21
-208.085
  0
LINE
  8
0
 10
85.7503
 20
-208.085
 11
85.5738
 21
-208.552
  0
LINE
  8
0
 10
85.5738
 20
-208.552
 11
85.3781
 21
-209.011
  0
LINE
  8
0
 10
85.3781
 20
-209.011
 11
85.1634
 21
-209.462
  0
LINE
  8
0
 10
85.1634
 20
-209.462
 11
84.9302
 21
-209.904
  0
LINE
  8
0
 10
84.9302
 20
-209.904
 11
84.6788
 21
-210.335
  0
LINE
  8
0
 10
84.6788
 20
-210.335
 11
84.4097
 21
-210.756
  0
LINE
  8
0
 10
84.4097
 20
-210.756
 11
84.1233
 21
-211.165
  0
LINE
  8
0
 10
84.1233
 20
-211.165
 11
83.8202
 21
-211.561
  0
LINE
  8
0
 10
83.8202
 20
-211.561
 11
83.5008
 21
-211.945
  0
LINE
  8
0
 10
83.5008
 20
-211.945
 11
83.1657
 21
-212.315
  0
LINE
  8
0
 10
83.1657
 20
-212.315
 11
82.8155
 21
-212.671
  0
LINE
  8
0
 10
82.8155
 20
-212.671
 11
82.4509
 21
-213.012
  0
LINE
  8
0
 10
82.4509
 20
-213.012
 11
82.0723
 21
-213.338
  0
LINE
  8
0
 10
82.0723
 20
-213.338
 11
81.6805
 21
-213.647
  0
LINE
  8
0
 10
81.6805
 20
-213.647
 11
81.2762
 21
-213.94
  0
LINE
  8
0
 10
81.2762
 20
-213.94
 11
80.8601
 21
-214.216
  0
LINE
  8
0
 10
80.8601
 20
-214.216
 11
80.4328
 21
-214.474
  0
LINE
  8
0
 10
80.4328
 20
-214.474
 11
79.9952
 21
-214.715
  0
LINE
  8
0
 10
79.9952
 20
-214.715
 11
79.5479
 21
-214.937
  0
LINE
  8
0
 10
79.5479
 20
-214.937
 11
79.0918
 21
-215.14
  0
LINE
  8
0
 10
79.0918
 20
-215.14
 11
78.6277
 21
-215.324
  0
LINE
  8
0
 10
78.6277
 20
-215.324
 11
78.1562
 21
-215.488
  0
LINE
  8
0
 10
78.1562
 20
-215.488
 11
77.6784
 21
-215.633
  0
LINE
  8
0
 10
77.6784
 20
-215.633
 11
77.195
 21
-215.758
  0
LINE
  8
0
 10
77.195
 20
-215.758
 11
76.7067
 21
-215.862
  0
LINE
  8
0
 10
76.7067
 20
-215.862
 11
76.2146
 21
-215.947
  0
LINE
  8
0
 10
76.2146
 20
-215.947
 11
75.7194
 21
-216.01
  0
LINE
  8
0
 10
75.7194
 20
-216.01
 11
75.2219
 21
-216.053
  0
LINE
  8
0
 10
75.2219
 20
-216.053
 11
74.7231
 21
-216.075
  0
LINE
  8
0
 10
74.7231
 20
-216.075
 11
74.2238
 21
-216.077
  0
LINE
  8
0
 10
74.2238
 20
-216.077
 11
73.7249
 21
-216.057
  0
LINE
  8
0
 10
94.2738
 20
-202.282
 11
93.8113
 21
-202.119
  0
LINE
  8
0
 10
93.8113
 20
-202.119
 11
93.4098
 21
-201.838
  0
LINE
  8
0
 10
93.4098
 20
-201.838
 11
93.099
 21
-201.459
  0
LINE
  8
0
 10
93.099
 20
-201.459
 11
92.902
 21
-201.01
  0
LINE
  8
0
 10
92.902
 20
-201.01
 11
92.8334
 21
-200.525
  0
LINE
  8
0
 10
92.8334
 20
-200.525
 11
92.8983
 21
-200.039
  0
LINE
  8
0
 10
92.8983
 20
-200.039
 11
93.0919
 21
-199.588
  0
LINE
  8
0
 10
93.0919
 20
-199.588
 11
93.3998
 21
-199.207
  0
LINE
  8
0
 10
93.3998
 20
-199.207
 11
93.7992
 21
-198.923
  0
LINE
  8
0
 10
93.7992
 20
-198.923
 11
94.2605
 21
-198.757
  0
LINE
  8
0
 10
94.2605
 20
-198.757
 11
97.0459
 21
-198.266
  0
LINE
  8
0
 10
97.0459
 20
-198.266
 11
97.5349
 21
-198.23
  0
LINE
  8
0
 10
97.5349
 20
-198.23
 11
98.0152
 21
-198.328
  0
LINE
  8
0
 10
98.0152
 20
-198.328
 11
98.4513
 21
-198.552
  0
LINE
  8
0
 10
98.4513
 20
-198.552
 11
98.8108
 21
-198.885
  0
LINE
  8
0
 10
98.8108
 20
-198.885
 11
99.0671
 21
-199.303
  0
LINE
  8
0
 10
99.0671
 20
-199.303
 11
99.2011
 21
-199.775
  0
LINE
  8
0
 10
99.2011
 20
-199.775
 11
99.203
 21
-200.265
  0
LINE
  8
0
 10
99.203
 20
-200.265
 11
99.0725
 21
-200.738
  0
LINE
  8
0
 10
99.0725
 20
-200.738
 11
98.8194
 21
-201.157
  0
LINE
  8
0
 10
98.8194
 20
-201.157
 11
98.4624
 21
-201.493
  0
LINE
  8
0
 10
98.4624
 20
-201.493
 11
98.028
 21
-201.72
  0
LINE
  8
0
 10
98.028
 20
-201.72
 11
97.5485
 21
-201.822
  0
LINE
  8
0
 10
97.5485
 20
-201.822
 11
94.763
 21
-202.313
  0
LINE
  8
0
 10
94.763
 20
-202.313
 11
94.2738
 21
-202.282
  0
LINE
  8
0
 10
38.6972
 20
-202.315
 11
38.236
 21
-202.159
  0
LINE
  8
0
 10
38.236
 20
-202.159
 11
37.8373
 21
-201.88
  0
LINE
  8
0
 10
37.8373
 20
-201.88
 11
37.5334
 21
-201.5
  0
LINE
  8
0
 10
37.5334
 20
-201.5
 11
37.349
 21
-201.049
  0
LINE
  8
0
 10
37.349
 20
-201.049
 11
37.2989
 21
-200.565
  0
LINE
  8
0
 10
37.2989
 20
-200.565
 11
37.3872
 21
-200.087
  0
LINE
  8
0
 10
37.3872
 20
-200.087
 11
37.6068
 21
-199.652
  0
LINE
  8
0
 10
37.6068
 20
-199.652
 11
37.9398
 21
-199.297
  0
LINE
  8
0
 10
37.9398
 20
-199.297
 11
38.3594
 21
-199.051
  0
LINE
  8
0
 10
38.3594
 20
-199.051
 11
38.8315
 21
-198.932
  0
LINE
  8
0
 10
38.8315
 20
-198.932
 11
39.3178
 21
-198.951
  0
LINE
  8
0
 10
39.3178
 20
-198.951
 11
39.779
 21
-199.107
  0
LINE
  8
0
 10
39.779
 20
-199.107
 11
40.1777
 21
-199.386
  0
LINE
  8
0
 10
40.1777
 20
-199.386
 11
40.4816
 21
-199.766
  0
LINE
  8
0
 10
40.4816
 20
-199.766
 11
40.6661
 21
-200.217
  0
LINE
  8
0
 10
40.6661
 20
-200.217
 11
40.7162
 21
-200.701
  0
LINE
  8
0
 10
40.7162
 20
-200.701
 11
40.6279
 21
-201.179
  0
LINE
  8
0
 10
40.6279
 20
-201.179
 11
40.4083
 21
-201.614
  0
LINE
  8
0
 10
40.4083
 20
-201.614
 11
40.0752
 21
-201.969
  0
LINE
  8
0
 10
40.0752
 20
-201.969
 11
39.6556
 21
-202.215
  0
LINE
  8
0
 10
39.6556
 20
-202.215
 11
39.1836
 21
-202.334
  0
LINE
  8
0
 10
39.1836
 20
-202.334
 11
38.6972
 21
-202.315
  0
LINE
  8
0
 10
50.8625
 20
-209.829
 11
50.4264
 21
-209.605
  0
LINE
  8
0
 10
50.4264
 20
-209.605
 11
50.0668
 21
-209.272
  0
LINE
  8
0
 10
50.0668
 20
-209.272
 11
49.8105
 21
-208.854
  0
LINE
  8
0
 10
49.8105
 20
-208.854
 11
49.6765
 21
-208.383
  0
LINE
  8
0
 10
49.6765
 20
-208.383
 11
49.6746
 21
-207.892
  0
LINE
  8
0
 10
49.6746
 20
-207.892
 11
49.8051
 21
-207.42
  0
LINE
  8
0
 10
49.8051
 20
-207.42
 11
50.0582
 21
-207
  0
LINE
  8
0
 10
50.0582
 20
-207
 11
50.4152
 21
-206.664
  0
LINE
  8
0
 10
50.4152
 20
-206.664
 11
50.8496
 21
-206.437
  0
LINE
  8
0
 10
50.8496
 20
-206.437
 11
51.3291
 21
-206.335
  0
LINE
  8
0
 10
51.3291
 20
-206.335
 11
54.1146
 21
-205.844
  0
LINE
  8
0
 10
54.1146
 20
-205.844
 11
54.6038
 21
-205.876
  0
LINE
  8
0
 10
54.6038
 20
-205.876
 11
55.0663
 21
-206.038
  0
LINE
  8
0
 10
55.0663
 20
-206.038
 11
55.4678
 21
-206.319
  0
LINE
  8
0
 10
55.4678
 20
-206.319
 11
55.7786
 21
-206.698
  0
LINE
  8
0
 10
55.7786
 20
-206.698
 11
55.9756
 21
-207.147
  0
LINE
  8
0
 10
55.9756
 20
-207.147
 11
56.0442
 21
-207.633
  0
LINE
  8
0
 10
56.0442
 20
-207.633
 11
55.9793
 21
-208.119
  0
LINE
  8
0
 10
55.9793
 20
-208.119
 11
55.7857
 21
-208.569
  0
LINE
  8
0
 10
55.7857
 20
-208.569
 11
55.4778
 21
-208.95
  0
LINE
  8
0
 10
55.4778
 20
-208.95
 11
55.0784
 21
-209.235
  0
LINE
  8
0
 10
55.0784
 20
-209.235
 11
54.6172
 21
-209.4
  0
LINE
  8
0
 10
54.6172
 20
-209.4
 11
51.8317
 21
-209.892
  0
LINE
  8
0
 10
51.8317
 20
-209.892
 11
51.3428
 21
-209.927
  0
LINE
  8
0
 10
51.3428
 20
-209.927
 11
50.8625
 21
-209.829
  0
LINE
  8
0
 10
31.5275
 20
-212.554
 11
31.0663
 21
-212.398
  0
LINE
  8
0
 10
31.0663
 20
-212.398
 11
30.6676
 21
-212.119
  0
LINE
  8
0
 10
30.6676
 20
-212.119
 11
30.3637
 21
-211.739
  0
LINE
  8
0
 10
30.3637
 20
-211.739
 11
30.1793
 21
-211.289
  0
LINE
  8
0
 10
30.1793
 20
-211.289
 11
30.1292
 21
-210.805
  0
LINE
  8
0
 10
30.1292
 20
-210.805
 11
30.2175
 21
-210.326
  0
LINE
  8
0
 10
30.2175
 20
-210.326
 11
30.4371
 21
-209.892
  0
LINE
  8
0
 10
30.4371
 20
-209.892
 11
30.7701
 21
-209.537
  0
LINE
  8
0
 10
30.7701
 20
-209.537
 11
31.1897
 21
-209.29
  0
LINE
  8
0
 10
31.1897
 20
-209.29
 11
31.6618
 21
-209.171
  0
LINE
  8
0
 10
31.6618
 20
-209.171
 11
32.1481
 21
-209.191
  0
LINE
  8
0
 10
32.1481
 20
-209.191
 11
32.6093
 21
-209.346
  0
LINE
  8
0
 10
32.6093
 20
-209.346
 11
33.008
 21
-209.625
  0
LINE
  8
0
 10
33.008
 20
-209.625
 11
33.3119
 21
-210.006
  0
LINE
  8
0
 10
33.3119
 20
-210.006
 11
33.4964
 21
-210.456
  0
LINE
  8
0
 10
33.4964
 20
-210.456
 11
33.5465
 21
-210.94
  0
LINE
  8
0
 10
33.5465
 20
-210.94
 11
33.4581
 21
-211.419
  0
LINE
  8
0
 10
33.4581
 20
-211.419
 11
33.2386
 21
-211.853
  0
LINE
  8
0
 10
33.2386
 20
-211.853
 11
32.9055
 21
-212.208
  0
LINE
  8
0
 10
32.9055
 20
-212.208
 11
32.4859
 21
-212.455
  0
LINE
  8
0
 10
32.4859
 20
-212.455
 11
32.0139
 21
-212.573
  0
LINE
  8
0
 10
32.0139
 20
-212.573
 11
31.5275
 21
-212.554
  0
LINE
  8
0
 10
19.7912
 20
-214.104
 11
19.3078
 21
-214.009
  0
LINE
  8
0
 10
19.3078
 20
-214.009
 11
18.8575
 21
-213.809
  0
LINE
  8
0
 10
18.8575
 20
-213.809
 11
18.4629
 21
-213.514
  0
LINE
  8
0
 10
18.4629
 20
-213.514
 11
18.1439
 21
-213.139
  0
LINE
  8
0
 10
18.1439
 20
-213.139
 11
17.9164
 21
-212.702
  0
LINE
  8
0
 10
17.9164
 20
-212.702
 11
17.7919
 21
-212.225
  0
LINE
  8
0
 10
17.7919
 20
-212.225
 11
17.7765
 21
-211.733
  0
LINE
  8
0
 10
17.7765
 20
-211.733
 11
17.8711
 21
-211.249
  0
LINE
  8
0
 10
17.8711
 20
-211.249
 11
18.071
 21
-210.799
  0
LINE
  8
0
 10
18.071
 20
-210.799
 11
18.366
 21
-210.405
  0
LINE
  8
0
 10
18.366
 20
-210.405
 11
18.7414
 21
-210.086
  0
LINE
  8
0
 10
18.7414
 20
-210.086
 11
19.1783
 21
-209.858
  0
LINE
  8
0
 10
19.1783
 20
-209.858
 11
19.655
 21
-209.734
  0
LINE
  8
0
 10
19.655
 20
-209.734
 11
20.1474
 21
-209.718
  0
LINE
  8
0
 10
20.1474
 20
-209.718
 11
20.6309
 21
-209.813
  0
LINE
  8
0
 10
20.6309
 20
-209.813
 11
21.0812
 21
-210.013
  0
LINE
  8
0
 10
21.0812
 20
-210.013
 11
21.4757
 21
-210.308
  0
LINE
  8
0
 10
21.4757
 20
-210.308
 11
21.7947
 21
-210.683
  0
LINE
  8
0
 10
21.7947
 20
-210.683
 11
22.0222
 21
-211.12
  0
LINE
  8
0
 10
22.0222
 20
-211.12
 11
22.1467
 21
-211.597
  0
LINE
  8
0
 10
22.1467
 20
-211.597
 11
22.1621
 21
-212.089
  0
LINE
  8
0
 10
22.1621
 20
-212.089
 11
22.0675
 21
-212.572
  0
LINE
  8
0
 10
22.0675
 20
-212.572
 11
21.8677
 21
-213.023
  0
LINE
  8
0
 10
21.8677
 20
-213.023
 11
21.5727
 21
-213.417
  0
LINE
  8
0
 10
21.5727
 20
-213.417
 11
21.1973
 21
-213.736
  0
LINE
  8
0
 10
21.1973
 20
-213.736
 11
20.7603
 21
-213.964
  0
LINE
  8
0
 10
20.7603
 20
-213.964
 11
20.2836
 21
-214.088
  0
LINE
  8
0
 10
20.2836
 20
-214.088
 11
19.7912
 21
-214.104
  0
LINE
  8
0
 10
77.78
 20
-228.712
 11
77.3602
 21
-228.459
  0
LINE
  8
0
 10
77.3602
 20
-228.459
 11
77.0242
 21
-228.102
  0
LINE
  8
0
 10
77.0242
 20
-228.102
 11
76.797
 21
-227.668
  0
LINE
  8
0
 10
76.797
 20
-227.668
 11
76.6955
 21
-227.188
  0
LINE
  8
0
 10
76.6955
 20
-227.188
 11
76.2043
 21
-224.403
  0
LINE
  8
0
 10
76.2043
 20
-224.403
 11
76.2359
 21
-223.914
  0
LINE
  8
0
 10
76.2359
 20
-223.914
 11
76.3983
 21
-223.451
  0
LINE
  8
0
 10
76.3983
 20
-223.451
 11
76.6795
 21
-223.05
  0
LINE
  8
0
 10
76.6795
 20
-223.05
 11
77.0586
 21
-222.739
  0
LINE
  8
0
 10
77.0586
 20
-222.739
 11
77.5074
 21
-222.542
  0
LINE
  8
0
 10
77.5074
 20
-222.542
 11
77.9928
 21
-222.473
  0
LINE
  8
0
 10
77.9928
 20
-222.473
 11
78.4787
 21
-222.538
  0
LINE
  8
0
 10
78.4787
 20
-222.538
 11
78.9291
 21
-222.732
  0
LINE
  8
0
 10
78.9291
 20
-222.732
 11
79.3105
 21
-223.04
  0
LINE
  8
0
 10
79.3105
 20
-223.04
 11
79.5947
 21
-223.439
  0
LINE
  8
0
 10
79.5947
 20
-223.439
 11
79.7606
 21
-223.9
  0
LINE
  8
0
 10
79.7606
 20
-223.9
 11
80.2518
 21
-226.686
  0
LINE
  8
0
 10
80.2518
 20
-226.686
 11
80.2871
 21
-227.175
  0
LINE
  8
0
 10
80.2871
 20
-227.175
 11
80.1892
 21
-227.655
  0
LINE
  8
0
 10
80.1892
 20
-227.655
 11
79.9653
 21
-228.091
  0
LINE
  8
0
 10
79.9653
 20
-228.091
 11
79.6321
 21
-228.451
  0
LINE
  8
0
 10
79.6321
 20
-228.451
 11
79.2142
 21
-228.707
  0
LINE
  8
0
 10
79.2142
 20
-228.707
 11
78.7427
 21
-228.841
  0
LINE
  8
0
 10
78.7427
 20
-228.841
 11
78.2525
 21
-228.843
  0
LINE
  8
0
 10
78.2525
 20
-228.843
 11
77.78
 21
-228.712
  0
LINE
  8
0
 10
11.3691
 20
-239.187
 11
10.9188
 21
-238.987
  0
LINE
  8
0
 10
10.9188
 20
-238.987
 11
10.5243
 21
-238.692
  0
LINE
  8
0
 10
10.5243
 20
-238.692
 11
10.2053
 21
-238.317
  0
LINE
  8
0
 10
10.2053
 20
-238.317
 11
9.97778
 21
-237.88
  0
LINE
  8
0
 10
9.97778
 20
-237.88
 11
9.85324
 21
-237.403
  0
LINE
  8
0
 10
9.85324
 20
-237.403
 11
9.83789
 21
-236.911
  0
LINE
  8
0
 10
9.83789
 20
-236.911
 11
9.9325
 21
-236.428
  0
LINE
  8
0
 10
9.9325
 20
-236.428
 11
10.1323
 21
-235.977
  0
LINE
  8
0
 10
10.1323
 20
-235.977
 11
10.4273
 21
-235.583
  0
LINE
  8
0
 10
10.4273
 20
-235.583
 11
10.8027
 21
-235.264
  0
LINE
  8
0
 10
10.8027
 20
-235.264
 11
11.2397
 21
-235.036
  0
LINE
  8
0
 10
11.2397
 20
-235.036
 11
11.7164
 21
-234.912
  0
LINE
  8
0
 10
11.7164
 20
-234.912
 11
12.2088
 21
-234.896
  0
LINE
  8
0
 10
12.2088
 20
-234.896
 11
12.6922
 21
-234.991
  0
LINE
  8
0
 10
12.6922
 20
-234.991
 11
13.1425
 21
-235.191
  0
LINE
  8
0
 10
13.1425
 20
-235.191
 11
13.5371
 21
-235.486
  0
LINE
  8
0
 10
13.5371
 20
-235.486
 11
13.8561
 21
-235.861
  0
LINE
  8
0
 10
13.8561
 20
-235.861
 11
14.0836
 21
-236.298
  0
LINE
  8
0
 10
14.0836
 20
-236.298
 11
14.2081
 21
-236.775
  0
LINE
  8
0
 10
14.2081
 20
-236.775
 11
14.2234
 21
-237.267
  0
LINE
  8
0
 10
14.2234
 20
-237.267
 11
14.1289
 21
-237.751
  0
LINE
  8
0
 10
14.1289
 20
-237.751
 11
13.929
 21
-238.201
  0
LINE
  8
0
 10
13.929
 20
-238.201
 11
13.634
 21
-238.595
  0
LINE
  8
0
 10
13.634
 20
-238.595
 11
13.2586
 21
-238.914
  0
LINE
  8
0
 10
13.2586
 20
-238.914
 11
12.8216
 21
-239.142
  0
LINE
  8
0
 10
12.8216
 20
-239.142
 11
12.345
 21
-239.266
  0
LINE
  8
0
 10
12.345
 20
-239.266
 11
11.8526
 21
-239.282
  0
LINE
  8
0
 10
11.8526
 20
-239.282
 11
11.3691
 21
-239.187
  0
LINE
  8
0
 10
49.3989
 20
-248.619
 11
48.9486
 21
-248.426
  0
LINE
  8
0
 10
48.9486
 20
-248.426
 11
48.5671
 21
-248.118
  0
LINE
  8
0
 10
48.5671
 20
-248.118
 11
48.2829
 21
-247.718
  0
LINE
  8
0
 10
48.2829
 20
-247.718
 11
48.117
 21
-247.257
  0
LINE
  8
0
 10
48.117
 20
-247.257
 11
47.6259
 21
-244.472
  0
LINE
  8
0
 10
47.6259
 20
-244.472
 11
47.5906
 21
-243.983
  0
LINE
  8
0
 10
47.5906
 20
-243.983
 11
47.6885
 21
-243.502
  0
LINE
  8
0
 10
47.6885
 20
-243.502
 11
47.9123
 21
-243.066
  0
LINE
  8
0
 10
47.9123
 20
-243.066
 11
48.2456
 21
-242.707
  0
LINE
  8
0
 10
48.2456
 20
-242.707
 11
48.6634
 21
-242.45
  0
LINE
  8
0
 10
48.6634
 20
-242.45
 11
49.1349
 21
-242.316
  0
LINE
  8
0
 10
49.1349
 20
-242.316
 11
49.6252
 21
-242.314
  0
LINE
  8
0
 10
49.6252
 20
-242.314
 11
50.0977
 21
-242.445
  0
LINE
  8
0
 10
50.0977
 20
-242.445
 11
50.5175
 21
-242.698
  0
LINE
  8
0
 10
50.5175
 20
-242.698
 11
50.8534
 21
-243.055
  0
LINE
  8
0
 10
50.8534
 20
-243.055
 11
51.0806
 21
-243.489
  0
LINE
  8
0
 10
51.0806
 20
-243.489
 11
51.1821
 21
-243.969
  0
LINE
  8
0
 10
51.1821
 20
-243.969
 11
51.6733
 21
-246.754
  0
LINE
  8
0
 10
51.6733
 20
-246.754
 11
51.6417
 21
-247.244
  0
LINE
  8
0
 10
51.6417
 20
-247.244
 11
51.4793
 21
-247.706
  0
LINE
  8
0
 10
51.4793
 20
-247.706
 11
51.1981
 21
-248.108
  0
LINE
  8
0
 10
51.1981
 20
-248.108
 11
50.819
 21
-248.419
  0
LINE
  8
0
 10
50.819
 20
-248.419
 11
50.3702
 21
-248.616
  0
LINE
  8
0
 10
50.3702
 20
-248.616
 11
49.8848
 21
-248.684
  0
LINE
  8
0
 10
49.8848
 20
-248.684
 11
49.3989
 21
-248.619
  0
LINE
  8
0
 10
18.7566
 20
-249.193
 11
18.2896
 21
-249.055
  0
LINE
  8
0
 10
18.2896
 20
-249.055
 11
17.8802
 21
-248.792
  0
LINE
  8
0
 10
17.8802
 20
-248.792
 11
17.5614
 21
-248.424
  0
LINE
  8
0
 10
17.5614
 20
-248.424
 11
17.3593
 21
-247.982
  0
LINE
  8
0
 10
17.3593
 20
-247.982
 11
17.29
 21
-247.5
  0
LINE
  8
0
 10
17.29
 20
-247.5
 11
17.3593
 21
-247.018
  0
LINE
  8
0
 10
17.3593
 20
-247.018
 11
17.5614
 21
-246.576
  0
LINE
  8
0
 10
17.5614
 20
-246.576
 11
17.8802
 21
-246.208
  0
LINE
  8
0
 10
17.8802
 20
-246.208
 11
18.2896
 21
-245.945
  0
LINE
  8
0
 10
18.2896
 20
-245.945
 11
18.7566
 21
-245.807
  0
LINE
  8
0
 10
18.7566
 20
-245.807
 11
19.2433
 21
-245.807
  0
LINE
  8
0
 10
19.2433
 20
-245.807
 11
19.7104
 21
-245.945
  0
LINE
  8
0
 10
19.7104
 20
-245.945
 11
20.1198
 21
-246.208
  0
LINE
  8
0
 10
20.1198
 20
-246.208
 11
20.4385
 21
-246.576
  0
LINE
  8
0
 10
20.4385
 20
-246.576
 11
20.6407
 21
-247.018
  0
LINE
  8
0
 10
20.6407
 20
-247.018
 11
20.71
 21
-247.5
  0
LINE
  8
0
 10
20.71
 20
-247.5
 11
20.6407
 21
-247.982
  0
LINE
  8
0
 10
20.6407
 20
-247.982
 11
20.4385
 21
-248.424
  0
LINE
  8
0
 10
20.4385
 20
-248.424
 11
20.1198
 21
-248.792
  0
LINE
  8
0
 10
20.1198
 20
-248.792
 11
19.7104
 21
-249.055
  0
LINE
  8
0
 10
19.7104
 20
-249.055
 11
19.2433
 21
-249.193
  0
LINE
  8
0
 10
19.2433
 20
-249.193
 11
18.7566
 21
-249.193
  0
LINE
  8
0
 10
52.7249
 20
-279.057
 11
52.2272
 21
-279.017
  0
LINE
  8
0
 10
52.2272
 20
-279.017
 11
51.7317
 21
-278.957
  0
LINE
  8
0
 10
51.7317
 20
-278.957
 11
51.239
 21
-278.875
  0
LINE
  8
0
 10
51.239
 20
-278.875
 11
50.7502
 21
-278.774
  0
LINE
  8
0
 10
50.7502
 20
-278.774
 11
50.2661
 21
-278.652
  0
LINE
  8
0
 10
50.2661
 20
-278.652
 11
49.7874
 21
-278.51
  0
LINE
  8
0
 10
49.7874
 20
-278.51
 11
49.315
 21
-278.348
  0
LINE
  8
0
 10
49.315
 20
-278.348
 11
48.8498
 21
-278.167
  0
LINE
  8
0
 10
48.8498
 20
-278.167
 11
48.3925
 21
-277.966
  0
LINE
  8
0
 10
48.3925
 20
-277.966
 11
47.944
 21
-277.747
  0
LINE
  8
0
 10
47.944
 20
-277.747
 11
47.505
 21
-277.509
  0
LINE
  8
0
 10
47.505
 20
-277.509
 11
47.0762
 21
-277.253
  0
LINE
  8
0
 10
47.0762
 20
-277.253
 11
46.6585
 21
-276.98
  0
LINE
  8
0
 10
46.6585
 20
-276.98
 11
46.2525
 21
-276.689
  0
LINE
  8
0
 10
46.2525
 20
-276.689
 11
45.859
 21
-276.382
  0
LINE
  8
0
 10
45.859
 20
-276.382
 11
45.4785
 21
-276.058
  0
LINE
  8
0
 10
45.4785
 20
-276.058
 11
45.1119
 21
-275.719
  0
LINE
  8
0
 10
45.1119
 20
-275.719
 11
44.7597
 21
-275.366
  0
LINE
  8
0
 10
44.7597
 20
-275.366
 11
44.4225
 21
-274.997
  0
LINE
  8
0
 10
44.4225
 20
-274.997
 11
44.1009
 21
-274.615
  0
LINE
  8
0
 10
44.1009
 20
-274.615
 11
43.7954
 21
-274.22
  0
LINE
  8
0
 10
43.7954
 20
-274.22
 11
43.5067
 21
-273.813
  0
LINE
  8
0
 10
43.5067
 20
-273.813
 11
43.2351
 21
-273.394
  0
LINE
  8
0
 10
43.2351
 20
-273.394
 11
42.9812
 21
-272.964
  0
LINE
  8
0
 10
42.9812
 20
-272.964
 11
42.7455
 21
-272.524
  0
LINE
  8
0
 10
42.7455
 20
-272.524
 11
42.5282
 21
-272.075
  0
LINE
  8
0
 10
42.5282
 20
-272.075
 11
42.3298
 21
-271.616
  0
LINE
  8
0
 10
42.3298
 20
-271.616
 11
42.1507
 21
-271.15
  0
LINE
  8
0
 10
42.1507
 20
-271.15
 11
41.9911
 21
-270.677
  0
LINE
  8
0
 10
41.9911
 20
-270.677
 11
41.8513
 21
-270.198
  0
LINE
  8
0
 10
41.8513
 20
-270.198
 11
41.7316
 21
-269.713
  0
LINE
  8
0
 10
41.7316
 20
-269.713
 11
41.6321
 21
-269.224
  0
LINE
  8
0
 10
41.6321
 20
-269.224
 11
41.5531
 21
-268.731
  0
LINE
  8
0
 10
41.5531
 20
-268.731
 11
41.4947
 21
-268.235
  0
LINE
  8
0
 10
41.4947
 20
-268.235
 11
41.4569
 21
-267.737
  0
LINE
  8
0
 10
41.4569
 20
-267.737
 11
41.4399
 21
-267.238
  0
LINE
  8
0
 10
41.4399
 20
-267.238
 11
41.4436
 21
-266.739
  0
LINE
  8
0
 10
41.4436
 20
-266.739
 11
41.4681
 21
-266.24
  0
LINE
  8
0
 10
41.4681
 20
-266.24
 11
41.5134
 21
-265.743
  0
LINE
  8
0
 10
41.5134
 20
-265.743
 11
41.5793
 21
-265.248
  0
LINE
  8
0
 10
41.5793
 20
-265.248
 11
41.6657
 21
-264.756
  0
LINE
  8
0
 10
41.6657
 20
-264.756
 11
41.7725
 21
-264.269
  0
LINE
  8
0
 10
41.7725
 20
-264.269
 11
41.8995
 21
-263.786
  0
LINE
  8
0
 10
41.8995
 20
-263.786
 11
42.0464
 21
-263.309
  0
LINE
  8
0
 10
42.0464
 20
-263.309
 11
42.2131
 21
-262.838
  0
LINE
  8
0
 10
42.2131
 20
-262.838
 11
42.3993
 21
-262.375
  0
LINE
  8
0
 10
42.3993
 20
-262.375
 11
42.6045
 21
-261.919
  0
LINE
  8
0
 10
42.6045
 20
-261.919
 11
42.8285
 21
-261.473
  0
LINE
  8
0
 10
42.8285
 20
-261.473
 11
43.0709
 21
-261.037
  0
LINE
  8
0
 10
43.0709
 20
-261.037
 11
43.3312
 21
-260.611
  0
LINE
  8
0
 10
43.3312
 20
-260.611
 11
43.609
 21
-260.196
  0
LINE
  8
0
 10
43.609
 20
-260.196
 11
43.9038
 21
-259.793
  0
LINE
  8
0
 10
43.9038
 20
-259.793
 11
44.2151
 21
-259.402
  0
LINE
  8
0
 10
44.2151
 20
-259.402
 11
44.5424
 21
-259.025
  0
LINE
  8
0
 10
44.5424
 20
-259.025
 11
44.8852
 21
-258.662
  0
LINE
  8
0
 10
44.8852
 20
-258.662
 11
45.2427
 21
-258.314
  0
LINE
  8
0
 10
45.2427
 20
-258.314
 11
45.6144
 21
-257.98
  0
LINE
  8
0
 10
45.6144
 20
-257.98
 11
45.9996
 21
-257.663
  0
LINE
  8
0
 10
45.9996
 20
-257.663
 11
46.3977
 21
-257.362
  0
LINE
  8
0
 10
46.3977
 20
-257.362
 11
46.8081
 21
-257.077
  0
LINE
  8
0
 10
46.8081
 20
-257.077
 11
47.2298
 21
-256.81
  0
LINE
  8
0
 10
47.2298
 20
-256.81
 11
47.6624
 21
-256.56
  0
LINE
  8
0
 10
47.6624
 20
-256.56
 11
48.1049
 21
-256.329
  0
LINE
  8
0
 10
48.1049
 20
-256.329
 11
48.5567
 21
-256.117
  0
LINE
  8
0
 10
48.5567
 20
-256.117
 11
49.0169
 21
-255.923
  0
LINE
  8
0
 10
49.0169
 20
-255.923
 11
49.4848
 21
-255.749
  0
LINE
  8
0
 10
49.4848
 20
-255.749
 11
49.9595
 21
-255.594
  0
LINE
  8
0
 10
49.9595
 20
-255.594
 11
50.4403
 21
-255.459
  0
LINE
  8
0
 10
50.4403
 20
-255.459
 11
50.9262
 21
-255.345
  0
LINE
  8
0
 10
50.9262
 20
-255.345
 11
51.4165
 21
-255.25
  0
LINE
  8
0
 10
51.4165
 20
-255.25
 11
51.9103
 21
-255.176
  0
LINE
  8
0
 10
51.9103
 20
-255.176
 11
52.4068
 21
-255.123
  0
LINE
  8
0
 10
52.4068
 20
-255.123
 11
52.905
 21
-255.091
  0
LINE
  8
0
 10
52.905
 20
-255.091
 11
53.4041
 21
-255.079
  0
LINE
  8
0
 10
53.4041
 20
-255.079
 11
53.9034
 21
-255.088
  0
LINE
  8
0
 10
53.9034
 20
-255.088
 11
54.4017
 21
-255.117
  0
LINE
  8
0
 10
54.4017
 20
-255.117
 11
54.8985
 21
-255.168
  0
LINE
  8
0
 10
54.8985
 20
-255.168
 11
55.3927
 21
-255.239
  0
LINE
  8
0
 10
55.3927
 20
-255.239
 11
55.8835
 21
-255.33
  0
LINE
  8
0
 10
55.8835
 20
-255.33
 11
56.3701
 21
-255.442
  0
LINE
  8
0
 10
56.3701
 20
-255.442
 11
56.8517
 21
-255.574
  0
LINE
  8
0
 10
56.8517
 20
-255.574
 11
57.3273
 21
-255.726
  0
LINE
  8
0
 10
57.3273
 20
-255.726
 11
57.7961
 21
-255.898
  0
LINE
  8
0
 10
57.7961
 20
-255.898
 11
58.2575
 21
-256.089
  0
LINE
  8
0
 10
58.2575
 20
-256.089
 11
58.7105
 21
-256.299
  0
LINE
  8
0
 10
58.7105
 20
-256.299
 11
59.1544
 21
-256.527
  0
LINE
  8
0
 10
59.1544
 20
-256.527
 11
59.5883
 21
-256.774
  0
LINE
  8
0
 10
59.5883
 20
-256.774
 11
60.0117
 21
-257.039
  0
LINE
  8
0
 10
60.0117
 20
-257.039
 11
60.4236
 21
-257.321
  0
LINE
  8
0
 10
60.4236
 20
-257.321
 11
60.8235
 21
-257.62
  0
LINE
  8
0
 10
60.8235
 20
-257.62
 11
61.2105
 21
-257.935
  0
LINE
  8
0
 10
61.2105
 20
-257.935
 11
61.5842
 21
-258.267
  0
LINE
  8
0
 10
61.5842
 20
-258.267
 11
61.9437
 21
-258.613
  0
LINE
  8
0
 10
61.9437
 20
-258.613
 11
62.2885
 21
-258.974
  0
LINE
  8
0
 10
62.2885
 20
-258.974
 11
62.618
 21
-259.349
  0
LINE
  8
0
 10
62.618
 20
-259.349
 11
62.9315
 21
-259.738
  0
LINE
  8
0
 10
62.9315
 20
-259.738
 11
63.2287
 21
-260.139
  0
LINE
  8
0
 10
63.2287
 20
-260.139
 11
63.5089
 21
-260.552
  0
LINE
  8
0
 10
63.5089
 20
-260.552
 11
63.7717
 21
-260.977
  0
LINE
  8
0
 10
63.7717
 20
-260.977
 11
64.0166
 21
-261.412
  0
LINE
  8
0
 10
64.0166
 20
-261.412
 11
64.2431
 21
-261.857
  0
LINE
  8
0
 10
64.2431
 20
-261.857
 11
64.451
 21
-262.311
  0
LINE
  8
0
 10
64.451
 20
-262.311
 11
64.6398
 21
-262.773
  0
LINE
  8
0
 10
64.6398
 20
-262.773
 11
64.8092
 21
-263.243
  0
LINE
  8
0
 10
64.8092
 20
-263.243
 11
64.9589
 21
-263.719
  0
LINE
  8
0
 10
64.9589
 20
-263.719
 11
65.0887
 21
-264.201
  0
LINE
  8
0
 10
65.0887
 20
-264.201
 11
65.1983
 21
-264.688
  0
LINE
  8
0
 10
65.1983
 20
-264.688
 11
65.2876
 21
-265.18
  0
LINE
  8
0
 10
65.2876
 20
-265.18
 11
65.3563
 21
-265.674
  0
LINE
  8
0
 10
65.3563
 20
-265.674
 11
65.4044
 21
-266.171
  0
LINE
  8
0
 10
65.4044
 20
-266.171
 11
65.4318
 21
-266.67
  0
LINE
  8
0
 10
65.4318
 20
-266.67
 11
65.4385
 21
-267.169
  0
LINE
  8
0
 10
65.4385
 20
-267.169
 11
65.4243
 21
-267.668
  0
LINE
  8
0
 10
65.4243
 20
-267.668
 11
65.3895
 21
-268.166
  0
LINE
  8
0
 10
65.3895
 20
-268.166
 11
65.3339
 21
-268.662
  0
LINE
  8
0
 10
65.3339
 20
-268.662
 11
65.2577
 21
-269.156
  0
LINE
  8
0
 10
65.2577
 20
-269.156
 11
65.1611
 21
-269.645
  0
LINE
  8
0
 10
65.1611
 20
-269.645
 11
65.0442
 21
-270.131
  0
LINE
  8
0
 10
65.0442
 20
-270.131
 11
64.9072
 21
-270.611
  0
LINE
  8
0
 10
64.9072
 20
-270.611
 11
64.7503
 21
-271.085
  0
LINE
  8
0
 10
64.7503
 20
-271.085
 11
64.5738
 21
-271.552
  0
LINE
  8
0
 10
64.5738
 20
-271.552
 11
64.3781
 21
-272.011
  0
LINE
  8
0
 10
64.3781
 20
-272.011
 11
64.1634
 21
-272.462
  0
LINE
  8
0
 10
64.1634
 20
-272.462
 11
63.9302
 21
-272.904
  0
LINE
  8
0
 10
63.9302
 20
-272.904
 11
63.6788
 21
-273.335
  0
LINE
  8
0
 10
63.6788
 20
-273.335
 11
63.4097
 21
-273.756
  0
LINE
  8
0
 10
63.4097
 20
-273.756
 11
63.1233
 21
-274.165
  0
LINE
  8
0
 10
63.1233
 20
-274.165
 11
62.8202
 21
-274.561
  0
LINE
  8
0
 10
62.8202
 20
-274.561
 11
62.5008
 21
-274.945
  0
LINE
  8
0
 10
62.5008
 20
-274.945
 11
62.1657
 21
-275.315
  0
LINE
  8
0
 10
62.1657
 20
-275.315
 11
61.8155
 21
-275.671
  0
LINE
  8
0
 10
61.8155
 20
-275.671
 11
61.4508
 21
-276.012
  0
LINE
  8
0
 10
61.4508
 20
-276.012
 11
61.0723
 21
-276.338
  0
LINE
  8
0
 10
61.0723
 20
-276.338
 11
60.6805
 21
-276.647
  0
LINE
  8
0
 10
60.6805
 20
-276.647
 11
60.2762
 21
-276.94
  0
LINE
  8
0
 10
60.2762
 20
-276.94
 11
59.8601
 21
-277.216
  0
LINE
  8
0
 10
59.8601
 20
-277.216
 11
59.4328
 21
-277.474
  0
LINE
  8
0
 10
59.4328
 20
-277.474
 11
58.9952
 21
-277.715
  0
LINE
  8
0
 10
58.9952
 20
-277.715
 11
58.5479
 21
-277.937
  0
LINE
  8
0
 10
58.5479
 20
-277.937
 11
58.0918
 21
-278.14
  0
LINE
  8
0
 10
58.0918
 20
-278.14
 11
57.6277
 21
-278.324
  0
LINE
  8
0
 10
57.6277
 20
-278.324
 11
57.1562
 21
-278.488
  0
LINE
  8
0
 10
57.1562
 20
-278.488
 11
56.6784
 21
-278.633
  0
LINE
  8
0
 10
56.6784
 20
-278.633
 11
56.195
 21
-278.758
  0
LINE
  8
0
 10
56.195
 20
-278.758
 11
55.7067
 21
-278.862
  0
LINE
  8
0
 10
55.7067
 20
-278.862
 11
55.2146
 21
-278.947
  0
LINE
  8
0
 10
55.2146
 20
-278.947
 11
54.7194
 21
-279.01
  0
LINE
  8
0
 10
54.7194
 20
-279.01
 11
54.2219
 21
-279.053
  0
LINE
  8
0
 10
54.2219
 20
-279.053
 11
53.7231
 21
-279.075
  0
LINE
  8
0
 10
53.7231
 20
-279.075
 11
53.2238
 21
-279.077
  0
LINE
  8
0
 10
53.2238
 20
-279.077
 11
52.7249
 21
-279.057
  0
LINE
  8
0
 10
18.7566
 20
-261.693
 11
18.2896
 21
-261.555
  0
LINE
  8
0
 10
18.2896
 20
-261.555
 11
17.8802
 21
-261.292
  0
LINE
  8
0
 10
17.8802
 20
-261.292
 11
17.5614
 21
-260.924
  0
LINE
  8
0
 10
17.5614
 20
-260.924
 11
17.3593
 21
-260.482
  0
LINE
  8
0
 10
17.3593
 20
-260.482
 11
17.29
 21
-260
  0
LINE
  8
0
 10
17.29
 20
-260
 11
17.3593
 21
-259.518
  0
LINE
  8
0
 10
17.3593
 20
-259.518
 11
17.5614
 21
-259.076
  0
LINE
  8
0
 10
17.5614
 20
-259.076
 11
17.8802
 21
-258.708
  0
LINE
  8
0
 10
17.8802
 20
-258.708
 11
18.2896
 21
-258.445
  0
LINE
  8
0
 10
18.2896
 20
-258.445
 11
18.7566
 21
-258.307
  0
LINE
  8
0
 10
18.7566
 20
-258.307
 11
19.2433
 21
-258.307
  0
LINE
  8
0
 10
19.2433
 20
-258.307
 11
19.7104
 21
-258.445
  0
LINE
  8
0
 10
19.7104
 20
-258.445
 11
20.1198
 21
-258.708
  0
LINE
  8
0
 10
20.1198
 20
-258.708
 11
20.4385
 21
-259.076
  0
LINE
  8
0
 10
20.4385
 20
-259.076
 11
20.6407
 21
-259.518
  0
LINE
  8
0
 10
20.6407
 20
-259.518
 11
20.71
 21
-260
  0
LINE
  8
0
 10
20.71
 20
-260
 11
20.6407
 21
-260.482
  0
LINE
  8
0
 10
20.6407
 20
-260.482
 11
20.4385
 21
-260.924
  0
LINE
  8
0
 10
20.4385
 20
-260.924
 11
20.1198
 21
-261.292
  0
LINE
  8
0
 10
20.1198
 20
-261.292
 11
19.7104
 21
-261.555
  0
LINE
  8
0
 10
19.7104
 20
-261.555
 11
19.2433
 21
-261.693
  0
LINE
  8
0
 10
19.2433
 20
-261.693
 11
18.7566
 21
-261.693
  0
LINE
  8
0
 10
73.2738
 20
-265.282
 11
72.8113
 21
-265.119
  0
LINE
  8
0
 10
72.8113
 20
-265.119
 11
72.4098
 21
-264.838
  0
LINE
  8
0
 10
72.4098
 20
-264.838
 11
72.099
 21
-264.459
  0
LINE
  8
0
 10
72.099
 20
-264.459
 11
71.902
 21
-264.01
  0
LINE
  8
0
 10
71.902
 20
-264.01
 11
71.8334
 21
-263.525
  0
LINE
  8
0
 10
71.8334
 20
-263.525
 11
71.8983
 21
-263.039
  0
LINE
  8
0
 10
71.8983
 20
-263.039
 11
72.0919
 21
-262.588
  0
LINE
  8
0
 10
72.0919
 20
-262.588
 11
72.3998
 21
-262.207
  0
LINE
  8
0
 10
72.3998
 20
-262.207
 11
72.7992
 21
-261.923
  0
LINE
  8
0
 10
72.7992
 20
-261.923
 11
73.2605
 21
-261.757
  0
LINE
  8
0
 10
73.2605
 20
-261.757
 11
76.0459
 21
-261.266
  0
LINE
  8
0
 10
76.0459
 20
-261.266
 11
76.5349
 21
-261.23
  0
LINE
  8
0
 10
76.5349
 20
-261.23
 11
77.0152
 21
-261.328
  0
LINE
  8
0
 10
77.0152
 20
-261.328
 11
77.4513
 21
-261.552
  0
LINE
  8
0
 10
77.4513
 20
-261.552
 11
77.8108
 21
-261.885
  0
LINE
  8
0
 10
77.8108
 20
-261.885
 11
78.0671
 21
-262.303
  0
LINE
  8
0
 10
78.0671
 20
-262.303
 11
78.2011
 21
-262.775
  0
LINE
  8
0
 10
78.2011
 20
-262.775
 11
78.203
 21
-263.265
  0
LINE
  8
0
 10
78.203
 20
-263.265
 11
78.0725
 21
-263.738
  0
LINE
  8
0
 10
78.0725
 20
-263.738
 11
77.8194
 21
-264.157
  0
LINE
  8
0
 10
77.8194
 20
-264.157
 11
77.4624
 21
-264.493
  0
LINE
  8
0
 10
77.4624
 20
-264.493
 11
77.028
 21
-264.72
  0
LINE
  8
0
 10
77.028
 20
-264.72
 11
76.5485
 21
-264.822
  0
LINE
  8
0
 10
76.5485
 20
-264.822
 11
73.763
 21
-265.313
  0
LINE
  8
0
 10
73.763
 20
-265.313
 11
73.2738
 21
-265.282
  0
LINE
  8
0
 10
29.8624
 20
-272.829
 11
29.4264
 21
-272.605
  0
LINE
  8
0
 10
29.4264
 20
-272.605
 11
29.0668
 21
-272.272
  0
LINE
  8
0
 10
29.0668
 20
-272.272
 11
28.8105
 21
-271.854
  0
LINE
  8
0
 10
28.8105
 20
-271.854
 11
28.6765
 21
-271.383
  0
LINE
  8
0
 10
28.6765
 20
-271.383
 11
28.6746
 21
-270.892
  0
LINE
  8
0
 10
28.6746
 20
-270.892
 11
28.8051
 21
-270.42
  0
LINE
  8
0
 10
28.8051
 20
-270.42
 11
29.0582
 21
-270
  0
LINE
  8
0
 10
29.0582
 20
-270
 11
29.4152
 21
-269.664
  0
LINE
  8
0
 10
29.4152
 20
-269.664
 11
29.8496
 21
-269.437
  0
LINE
  8
0
 10
29.8496
 20
-269.437
 11
30.3291
 21
-269.335
  0
LINE
  8
0
 10
30.3291
 20
-269.335
 11
33.1146
 21
-268.844
  0
LINE
  8
0
 10
33.1146
 20
-268.844
 11
33.6038
 21
-268.876
  0
LINE
  8
0
 10
33.6038
 20
-268.876
 11
34.0663
 21
-269.038
  0
LINE
  8
0
 10
34.0663
 20
-269.038
 11
34.4678
 21
-269.319
  0
LINE
  8
0
 10
34.4678
 20
-269.319
 11
34.7786
 21
-269.698
  0
LINE
  8
0
 10
34.7786
 20
-269.698
 11
34.9756
 21
-270.147
  0
LINE
  8
0
 10
34.9756
 20
-270.147
 11
35.0442
 21
-270.633
  0
LINE
  8
0
 10
35.0442
 20
-270.633
 11
34.9793
 21
-271.119
  0
LINE
  8
0
 10
34.9793
 20
-271.119
 11
34.7857
 21
-271.569
  0
LINE
  8
0
 10
34.7857
 20
-271.569
 11
34.4778
 21
-271.95
  0
LINE
  8
0
 10
34.4778
 20
-271.95
 11
34.0784
 21
-272.235
  0
LINE
  8
0
 10
34.0784
 20
-272.235
 11
33.6172
 21
-272.4
  0
LINE
  8
0
 10
33.6172
 20
-272.4
 11
30.8317
 21
-272.892
  0
LINE
  8
0
 10
30.8317
 20
-272.892
 11
30.3428
 21
-272.927
  0
LINE
  8
0
 10
30.3428
 20
-272.927
 11
29.8624
 21
-272.829
  0
LINE
  8
0
 10
18.7566
 20
-274.193
 11
18.2896
 21
-274.055
  0
LINE
  8
0
 10
18.2896
 20
-274.055
 11
17.8802
 21
-273.792
  0
LINE
  8
0
 10
17.8802
 20
-273.792
 11
17.5614
 21
-273.424
  0
LINE
  8
0
 10
17.5614
 20
-273.424
 11
17.3593
 21
-272.982
  0
LINE
  8
0
 10
17.3593
 20
-272.982
 11
17.29
 21
-272.5
  0
LINE
  8
0
 10
17.29
 20
-272.5
 11
17.3593
 21
-272.018
  0
LINE
  8
0
 10
17.3593
 20
-272.018
 11
17.5614
 21
-271.576
  0
LINE
  8
0
 10
17.5614
 20
-271.576
 11
17.8802
 21
-271.208
  0
LINE
  8
0
 10
17.8802
 20
-271.208
 11
18.2896
 21
-270.945
  0
LINE
  8
0
 10
18.2896
 20
-270.945
 11
18.7566
 21
-270.807
  0
LINE
  8
0
 10
18.7566
 20
-270.807
 11
19.2433
 21
-270.807
  0
LINE
  8
0
 10
19.2433
 20
-270.807
 11
19.7104
 21
-270.945
  0
LINE
  8
0
 10
19.7104
 20
-270.945
 11
20.1198
 21
-271.208
  0
LINE
  8
0
 10
20.1198
 20
-271.208
 11
20.4385
 21
-271.576
  0
LINE
  8
0
 10
20.4385
 20
-271.576
 11
20.6407
 21
-272.018
  0
LINE
  8
0
 10
20.6407
 20
-272.018
 11
20.71
 21
-272.5
  0
LINE
  8
0
 10
20.71
 20
-272.5
 11
20.6407
 21
-272.982
  0
LINE
  8
0
 10
20.6407
 20
-272.982
 11
20.4385
 21
-273.424
  0
LINE
  8
0
 10
20.4385
 20
-273.424
 11
20.1198
 21
-273.792
  0
LINE
  8
0
 10
20.1198
 20
-273.792
 11
19.7104
 21
-274.055
  0
LINE
  8
0
 10
19.7104
 20
-274.055
 11
19.2433
 21
-274.193
  0
LINE
  8
0
 10
19.2433
 20
-274.193
 11
18.7566
 21
-274.193
  0
LINE
  8
0
 10
56.78
 20
-291.712
 11
56.3602
 21
-291.459
  0
LINE
  8
0
 10
56.3602
 20
-291.459
 11
56.0242
 21
-291.102
  0
LINE
  8
0
 10
56.0242
 20
-291.102
 11
55.797
 21
-290.668
  0
LINE
  8
0
 10
55.797
 20
-290.668
 11
55.6955
 21
-290.188
  0
LINE
  8
0
 10
55.6955
 20
-290.188
 11
55.2043
 21
-287.403
  0
LINE
  8
0
 10
55.2043
 20
-287.403
 11
55.2359
 21
-286.914
  0
LINE
  8
0
 10
55.2359
 20
-286.914
 11
55.3983
 21
-286.451
  0
LINE
  8
0
 10
55.3983
 20
-286.451
 11
55.6795
 21
-286.05
  0
LINE
  8
0
 10
55.6795
 20
-286.05
 11
56.0586
 21
-285.739
  0
LINE
  8
0
 10
56.0586
 20
-285.739
 11
56.5074
 21
-285.542
  0
LINE
  8
0
 10
56.5074
 20
-285.542
 11
56.9928
 21
-285.473
  0
LINE
  8
0
 10
56.9928
 20
-285.473
 11
57.4787
 21
-285.538
  0
LINE
  8
0
 10
57.4787
 20
-285.538
 11
57.9291
 21
-285.732
  0
LINE
  8
0
 10
57.9291
 20
-285.732
 11
58.3105
 21
-286.04
  0
LINE
  8
0
 10
58.3105
 20
-286.04
 11
58.5947
 21
-286.439
  0
LINE
  8
0
 10
58.5947
 20
-286.439
 11
58.7606
 21
-286.9
  0
LINE
  8
0
 10
58.7606
 20
-286.9
 11
59.2518
 21
-289.686
  0
LINE
  8
0
 10
59.2518
 20
-289.686
 11
59.2871
 21
-290.175
  0
LINE
  8
0
 10
59.2871
 20
-290.175
 11
59.1891
 21
-290.655
  0
LINE
  8
0
 10
59.1891
 20
-290.655
 11
58.9653
 21
-291.091
  0
LINE
  8
0
 10
58.9653
 20
-291.091
 11
58.6321
 21
-291.451
  0
LINE
  8
0
 10
58.6321
 20
-291.451
 11
58.2142
 21
-291.707
  0
LINE
  8
0
 10
58.2142
 20
-291.707
 11
57.7427
 21
-291.841
  0
LINE
  8
0
 10
57.7427
 20
-291.841
 11
57.2525
 21
-291.843
  0
LINE
  8
0
 10
57.2525
 20
-291.843
 11
56.78
 21
-291.712
  0
LINE
  8
0
 10
69.117
 20
-184.257
 11
68.6259
 21
-181.472
  0
LINE
  8
0
 10
68.6259
 20
-181.472
 11
68.5906
 21
-180.983
  0
LINE
  8
0
 10
68.5906
 20
-180.983
 11
68.6885
 21
-180.502
  0
LINE
  8
0
 10
68.6885
 20
-180.502
 11
68.9123
 21
-180.066
  0
LINE
  8
0
 10
68.9123
 20
-180.066
 11
69.2456
 21
-179.707
  0
LINE
  8
0
 10
69.2456
 20
-179.707
 11
69.6634
 21
-179.45
  0
LINE
  8
0
 10
69.6634
 20
-179.45
 11
70.1349
 21
-179.316
  0
LINE
  8
0
 10
70.1349
 20
-179.316
 11
70.6252
 21
-179.314
  0
LINE
  8
0
 10
70.6252
 20
-179.314
 11
71.0977
 21
-179.445
  0
LINE
  8
0
 10
71.0977
 20
-179.445
 11
71.5175
 21
-179.698
  0
LINE
  8
0
 10
71.5175
 20
-179.698
 11
71.8534
 21
-180.055
  0
LINE
  8
0
 10
71.8534
 20
-180.055
 11
72.0806
 21
-180.489
  0
LINE
  8
0
 10
72.0806
 20
-180.489
 11
72.1821
 21
-180.969
  0
LINE
  8
0
 10
72.1821
 20
-180.969
 11
72.6733
 21
-183.754
  0
LINE
  8
0
 10
72.6733
 20
-183.754
 11
72.6417
 21
-184.244
  0
LINE
  8
0
 10
72.6417
 20
-184.244
 11
72.4793
 21
-184.706
  0
LINE
  8
0
 10
72.4793
 20
-184.706
 11
72.1981
 21
-185.108
  0
LINE
  8
0
 10
72.1981
 20
-185.108
 11
71.819
 21
-185.419
  0
LINE
  8
0
 10
71.819
 20
-185.419
 11
71.3702
 21
-185.616
  0
LINE
  8
0
 10
71.3702
 20
-185.616
 11
70.8848
 21
-185.684
  0
LINE
  8
0
 10
70.8848
 20
-185.684
 11
70.3989
 21
-185.619
  0
LINE
  8
0
 10
70.3989
 20
-185.619
 11
69.9486
 21
-185.426
  0
LINE
  8
0
 10
69.9486
 20
-185.426
 11
69.5671
 21
-185.118
  0
LINE
  8
0
 10
69.5671
 20
-185.118
 11
69.2829
 21
-184.718
  0
LINE
  8
0
 10
69.2829
 20
-184.718
 11
69.117
 21
-184.257
  0
LINE
  8
0
 10
-36.7527
 20
-214.314
 11
-65.6226
 21
-173.083
  0
LINE
  8
0
 10
-65.6226
 20
-173.083
 11
-69.6822
 21
-172.434
  0
LINE
  8
0
 10
-69.6822
 20
-172.434
 11
-70.1761
 21
-172.364
  0
LINE
  8
0
 10
-70.1761
 20
-172.364
 11
-70.6711
 21
-172.301
  0
LINE
  8
0
 10
-70.6711
 20
-172.301
 11
-71.167
 21
-172.246
  0
LINE
  8
0
 10
-71.167
 20
-172.246
 11
-71.6636
 21
-172.199
  0
LINE
  8
0
 10
-71.6636
 20
-172.199
 11
-72.161
 21
-172.16
  0
LINE
  8
0
 10
-72.161
 20
-172.16
 11
-72.6589
 21
-172.128
  0
LINE
  8
0
 10
-72.6589
 20
-172.128
 11
-73.1572
 21
-172.104
  0
LINE
  8
0
 10
-73.1572
 20
-172.104
 11
-73.6559
 21
-172.088
  0
LINE
  8
0
 10
-73.6559
 20
-172.088
 11
-74.1547
 21
-172.08
  0
LINE
  8
0
 10
-74.1547
 20
-172.08
 11
-74.6536
 21
-172.079
  0
LINE
  8
0
 10
-74.6536
 20
-172.079
 11
-75.1525
 21
-172.087
  0
LINE
  8
0
 10
-75.1525
 20
-172.087
 11
-75.6512
 21
-172.102
  0
LINE
  8
0
 10
-75.6512
 20
-172.102
 11
-75.8574
 21
-172.111
  0
LINE
  8
0
 10
-75.8574
 20
-172.111
 11
-103.994
 21
-191.813
  0
LINE
  8
0
 10
-103.994
 20
-191.813
 11
-104.166
 21
-192.234
  0
LINE
  8
0
 10
-104.166
 20
-192.234
 11
-104.347
 21
-192.699
  0
LINE
  8
0
 10
-104.347
 20
-192.699
 11
-104.521
 21
-193.167
  0
LINE
  8
0
 10
-104.521
 20
-193.167
 11
-104.687
 21
-193.637
  0
LINE
  8
0
 10
-104.687
 20
-193.637
 11
-104.846
 21
-194.11
  0
LINE
  8
0
 10
-104.846
 20
-194.11
 11
-104.998
 21
-194.585
  0
LINE
  8
0
 10
-104.998
 20
-194.585
 11
-105.142
 21
-195.063
  0
LINE
  8
0
 10
-105.142
 20
-195.063
 11
-105.279
 21
-195.542
  0
LINE
  8
0
 10
-105.279
 20
-195.542
 11
-105.409
 21
-196.024
  0
LINE
  8
0
 10
-105.409
 20
-196.024
 11
-105.53
 21
-196.508
  0
LINE
  8
0
 10
-105.53
 20
-196.508
 11
-105.645
 21
-196.994
  0
LINE
  8
0
 10
-105.645
 20
-196.994
 11
-105.751
 21
-197.481
  0
LINE
  8
0
 10
-105.751
 20
-197.481
 11
-105.85
 21
-197.97
  0
LINE
  8
0
 10
-105.85
 20
-197.97
 11
-105.942
 21
-198.461
  0
LINE
  8
0
 10
-105.942
 20
-198.461
 11
-106.026
 21
-198.952
  0
LINE
  8
0
 10
-106.026
 20
-198.952
 11
-106.102
 21
-199.445
  0
LINE
  8
0
 10
-106.102
 20
-199.445
 11
-106.17
 21
-199.94
  0
LINE
  8
0
 10
-106.17
 20
-199.94
 11
-106.231
 21
-200.435
  0
LINE
  8
0
 10
-106.231
 20
-200.435
 11
-106.284
 21
-200.931
  0
LINE
  8
0
 10
-106.284
 20
-200.931
 11
-106.329
 21
-201.428
  0
LINE
  8
0
 10
-106.329
 20
-201.428
 11
-106.366
 21
-201.925
  0
LINE
  8
0
 10
-106.366
 20
-201.925
 11
-106.396
 21
-202.423
  0
LINE
  8
0
 10
-106.396
 20
-202.423
 11
-106.418
 21
-202.922
  0
LINE
  8
0
 10
-106.418
 20
-202.922
 11
-106.432
 21
-203.42
  0
LINE
  8
0
 10
-106.432
 20
-203.42
 11
-106.438
 21
-203.919
  0
LINE
  8
0
 10
-106.438
 20
-203.919
 11
-106.437
 21
-204.418
  0
LINE
  8
0
 10
-106.437
 20
-204.418
 11
-106.428
 21
-204.917
  0
LINE
  8
0
 10
-106.428
 20
-204.917
 11
-106.411
 21
-205.416
  0
LINE
  8
0
 10
-106.411
 20
-205.416
 11
-106.407
 21
-205.497
  0
LINE
  8
0
 10
-106.407
 20
-205.497
 11
-85.4068
 21
-268.497
  0
LINE
  8
0
 10
-85.4068
 20
-268.497
 11
-65.705
 21
-296.634
  0
LINE
  8
0
 10
-65.705
 20
-296.634
 11
-65.6302
 21
-296.665
  0
LINE
  8
0
 10
-65.6302
 20
-296.665
 11
-65.1675
 21
-296.852
  0
LINE
  8
0
 10
-65.1675
 20
-296.852
 11
-64.7019
 21
-297.031
  0
LINE
  8
0
 10
-64.7019
 20
-297.031
 11
-64.2336
 21
-297.203
  0
LINE
  8
0
 10
-64.2336
 20
-297.203
 11
-63.7626
 21
-297.368
  0
LINE
  8
0
 10
-63.7626
 20
-297.368
 11
-63.2891
 21
-297.525
  0
LINE
  8
0
 10
-63.2891
 20
-297.525
 11
-62.8133
 21
-297.675
  0
LINE
  8
0
 10
-62.8133
 20
-297.675
 11
-62.3351
 21
-297.817
  0
LINE
  8
0
 10
-62.3351
 20
-297.817
 11
-61.8548
 21
-297.952
  0
LINE
  8
0
 10
-61.8548
 20
-297.952
 11
-61.3725
 21
-298.08
  0
LINE
  8
0
 10
-61.3725
 20
-298.08
 11
-60.8882
 21
-298.2
  0
LINE
  8
0
 10
-60.8882
 20
-298.2
 11
-60.4021
 21
-298.312
  0
LINE
  8
0
 10
-60.4021
 20
-298.312
 11
-59.9143
 21
-298.417
  0
LINE
  8
0
 10
-59.9143
 20
-298.417
 11
-59.4249
 21
-298.514
  0
LINE
  8
0
 10
-59.4249
 20
-298.514
 11
-58.9341
 21
-298.603
  0
LINE
  8
0
 10
-58.9341
 20
-298.603
 11
-58.442
 21
-298.685
  0
LINE
  8
0
 10
-58.442
 20
-298.685
 11
-57.9486
 21
-298.759
  0
LINE
  8
0
 10
-57.9486
 20
-298.759
 11
-57.4541
 21
-298.826
  0
LINE
  8
0
 10
-57.4541
 20
-298.826
 11
-56.9587
 21
-298.884
  0
LINE
  8
0
 10
-56.9587
 20
-298.884
 11
-56.4624
 21
-298.936
  0
LINE
  8
0
 10
-56.4624
 20
-298.936
 11
-55.9654
 21
-298.979
  0
LINE
  8
0
 10
-55.9654
 20
-298.979
 11
-55.4677
 21
-299.014
  0
LINE
  8
0
 10
-55.4677
 20
-299.014
 11
-54.9696
 21
-299.042
  0
LINE
  8
0
 10
-54.9696
 20
-299.042
 11
-54.4711
 21
-299.062
  0
LINE
  8
0
 10
-54.4711
 20
-299.062
 11
-53.9724
 21
-299.074
  0
LINE
  8
0
 10
-53.9724
 20
-299.074
 11
-53.4735
 21
-299.079
  0
LINE
  8
0
 10
-53.4735
 20
-299.079
 11
-52.9746
 21
-299.075
  0
LINE
  8
0
 10
-52.9746
 20
-299.075
 11
-52.4758
 21
-299.064
  0
LINE
  8
0
 10
-52.4758
 20
-299.064
 11
-52.0212
 21
-299.047
  0
LINE
  8
0
 10
-52.0212
 20
-299.047
 11
-15.3371
 21
-281.089
  0
LINE
  8
0
 10
-15.3371
 20
-281.089
 11
-14.8899
 21
-280.867
  0
LINE
  8
0
 10
-14.8899
 20
-280.867
 11
-14.4466
 21
-280.638
  0
LINE
  8
0
 10
-14.4466
 20
-280.638
 11
-14.0073
 21
-280.401
  0
LINE
  8
0
 10
-14.0073
 20
-280.401
 11
-13.5721
 21
-280.156
  0
LINE
  8
0
 10
-13.5721
 20
-280.156
 11
-13.1412
 21
-279.904
  0
LINE
  8
0
 10
-13.1412
 20
-279.904
 11
-12.7147
 21
-279.645
  0
LINE
  8
0
 10
-12.7147
 20
-279.645
 11
-12.2928
 21
-279.378
  0
LINE
  8
0
 10
-12.2928
 20
-279.378
 11
-11.8755
 21
-279.104
  0
LINE
  8
0
 10
-11.8755
 20
-279.104
 11
-11.463
 21
-278.823
  0
LINE
  8
0
 10
-11.463
 20
-278.823
 11
-11.0553
 21
-278.535
  0
LINE
  8
0
 10
-11.0553
 20
-278.535
 11
-10.6527
 21
-278.239
  0
LINE
  8
0
 10
-10.6527
 20
-278.239
 11
-10.2553
 21
-277.937
  0
LINE
  8
0
 10
-10.2553
 20
-277.937
 11
-9.86308
 21
-277.629
  0
LINE
  8
0
 10
-9.86308
 20
-277.629
 11
-9.47626
 21
-277.313
  0
LINE
  8
0
 10
-9.47626
 20
-277.313
 11
-9.09492
 21
-276.991
  0
LINE
  8
0
 10
-9.09492
 20
-276.991
 11
-8.71919
 21
-276.662
  0
LINE
  8
0
 10
-8.71919
 20
-276.662
 11
-8.34917
 21
-276.327
  0
LINE
  8
0
 10
-8.34917
 20
-276.327
 11
-7.98497
 21
-275.986
  0
LINE
  8
0
 10
-7.98497
 20
-275.986
 11
-7.62669
 21
-275.638
  0
LINE
  8
0
 10
-7.62669
 20
-275.638
 11
-7.27446
 21
-275.284
  0
LINE
  8
0
 10
-7.27446
 20
-275.284
 11
-6.92838
 21
-274.925
  0
LINE
  8
0
 10
-6.92838
 20
-274.925
 11
-6.58853
 21
-274.559
  0
LINE
  8
0
 10
-6.58853
 20
-274.559
 11
-6.25502
 21
-274.187
  0
LINE
  8
0
 10
-6.25502
 20
-274.187
 11
-5.92796
 21
-273.81
  0
LINE
  8
0
 10
-5.92796
 20
-273.81
 11
-5.66814
 21
-273.5
  0
LINE
  8
0
 10
-5.66814
 20
-273.5
 11
-8
 21
-273.5
  0
LINE
  8
0
 10
-8
 20
-273.5
 11
-8
 21
-246.5
  0
LINE
  8
0
 10
-8
 20
-246.5
 11
-0.274551
 21
-246.5
  0
LINE
  8
0
 10
-0.274551
 20
-246.5
 11
-0.381042
 21
-246.157
  0
LINE
  8
0
 10
-0.381042
 20
-246.157
 11
-0.537354
 21
-245.683
  0
LINE
  8
0
 10
-0.537354
 20
-245.683
 11
-0.701797
 21
-245.212
  0
LINE
  8
0
 10
-0.701797
 20
-245.212
 11
-6.77017
 21
-228.34
  0
LINE
  8
0
 10
-6.77017
 20
-228.34
 11
-6.85948
 21
-228.556
  0
LINE
  8
0
 10
-6.85948
 20
-228.556
 11
-7.07301
 21
-229.007
  0
LINE
  8
0
 10
-7.07301
 20
-229.007
 11
-7.30875
 21
-229.446
  0
LINE
  8
0
 10
-7.30875
 20
-229.446
 11
-7.56609
 21
-229.873
  0
LINE
  8
0
 10
-7.56609
 20
-229.873
 11
-7.84439
 21
-230.287
  0
LINE
  8
0
 10
-7.84439
 20
-230.287
 11
-8.14296
 21
-230.686
  0
LINE
  8
0
 10
-8.14296
 20
-230.686
 11
-8.46107
 21
-231.07
  0
LINE
  8
0
 10
-8.46107
 20
-231.07
 11
-8.79794
 21
-231.438
  0
LINE
  8
0
 10
-8.79794
 20
-231.438
 11
-9.15271
 21
-231.788
  0
LINE
  8
0
 10
-9.15271
 20
-231.788
 11
-9.52449
 21
-232.12
  0
LINE
  8
0
 10
-9.52449
 20
-232.12
 11
-9.91238
 21
-232.434
  0
LINE
  8
0
 10
-9.91238
 20
-232.434
 11
-10.3154
 21
-232.727
  0
LINE
  8
0
 10
-10.3154
 20
-232.727
 11
-10.7326
 21
-233
  0
LINE
  8
0
 10
-10.7326
 20
-233
 11
-11.1628
 21
-233.252
  0
LINE
  8
0
 10
-11.1628
 20
-233.252
 11
-11.6051
 21
-233.482
  0
LINE
  8
0
 10
-11.6051
 20
-233.482
 11
-12.0583
 21
-233.69
  0
LINE
  8
0
 10
-12.0583
 20
-233.69
 11
-12.5213
 21
-233.875
  0
LINE
  8
0
 10
-12.5213
 20
-233.875
 11
-12.9929
 21
-234.037
  0
LINE
  8
0
 10
-12.9929
 20
-234.037
 11
-13.4721
 21
-234.175
  0
LINE
  8
0
 10
-13.4721
 20
-234.175
 11
-13.9575
 21
-234.289
  0
LINE
  8
0
 10
-13.9575
 20
-234.289
 11
-14.448
 21
-234.379
  0
LINE
  8
0
 10
-14.448
 20
-234.379
 11
-14.9423
 21
-234.444
  0
LINE
  8
0
 10
-14.9423
 20
-234.444
 11
-15.4393
 21
-234.484
  0
LINE
  8
0
 10
-15.4393
 20
-234.484
 11
-15.9377
 21
-234.5
  0
LINE
  8
0
 10
-15.9377
 20
-234.5
 11
-16.4362
 21
-234.49
  0
LINE
  8
0
 10
-16.4362
 20
-234.49
 11
-16.9336
 21
-234.456
  0
LINE
  8
0
 10
-16.9336
 20
-234.456
 11
-17.4288
 21
-234.397
  0
LINE
  8
0
 10
-17.4288
 20
-234.397
 11
-17.9203
 21
-234.314
  0
LINE
  8
0
 10
-17.9203
 20
-234.314
 11
-18.4071
 21
-234.206
  0
LINE
  8
0
 10
-18.4071
 20
-234.206
 11
-18.8879
 21
-234.074
  0
LINE
  8
0
 10
-18.8879
 20
-234.074
 11
-19.3616
 21
-233.918
  0
LINE
  8
0
 10
-19.3616
 20
-233.918
 11
-19.8268
 21
-233.739
  0
LINE
  8
0
 10
-19.8268
 20
-233.739
 11
-20.2826
 21
-233.537
  0
LINE
  8
0
 10
-20.2826
 20
-233.537
 11
-20.7277
 21
-233.312
  0
LINE
  8
0
 10
-20.7277
 20
-233.312
 11
-21.1611
 21
-233.065
  0
LINE
  8
0
 10
-21.1611
 20
-233.065
 11
-21.5816
 21
-232.797
  0
LINE
  8
0
 10
-21.5816
 20
-232.797
 11
-21.9882
 21
-232.509
  0
LINE
  8
0
 10
-21.9882
 20
-232.509
 11
-22.38
 21
-232.2
  0
LINE
  8
0
 10
-22.38
 20
-232.2
 11
-22.7559
 21
-231.873
  0
LINE
  8
0
 10
-22.7559
 20
-231.873
 11
-23.115
 21
-231.527
  0
LINE
  8
0
 10
-23.115
 20
-231.527
 11
-23.4564
 21
-231.163
  0
LINE
  8
0
 10
-23.4564
 20
-231.163
 11
-23.7793
 21
-230.784
  0
LINE
  8
0
 10
-23.7793
 20
-230.784
 11
-24.0828
 21
-230.388
  0
LINE
  8
0
 10
-24.0828
 20
-230.388
 11
-24.3663
 21
-229.978
  0
LINE
  8
0
 10
-24.3663
 20
-229.978
 11
-24.6289
 21
-229.554
  0
LINE
  8
0
 10
-24.6289
 20
-229.554
 11
-24.8701
 21
-229.117
  0
LINE
  8
0
 10
-24.8701
 20
-229.117
 11
-25.0892
 21
-228.67
  0
LINE
  8
0
 10
-25.0892
 20
-228.67
 11
-25.2858
 21
-228.211
  0
LINE
  8
0
 10
-25.2858
 20
-228.211
 11
-25.4592
 21
-227.744
  0
LINE
  8
0
 10
-25.4592
 20
-227.744
 11
-25.6092
 21
-227.268
  0
LINE
  8
0
 10
-25.6092
 20
-227.268
 11
-25.7352
 21
-226.786
  0
LINE
  8
0
 10
-25.7352
 20
-226.786
 11
-25.8371
 21
-226.298
  0
LINE
  8
0
 10
-25.8371
 20
-226.298
 11
-25.9144
 21
-225.805
  0
LINE
  8
0
 10
-25.9144
 20
-225.805
 11
-25.9672
 21
-225.309
  0
LINE
  8
0
 10
-25.9672
 20
-225.309
 11
-25.9951
 21
-224.812
  0
LINE
  8
0
 10
-25.9951
 20
-224.812
 11
-25.9982
 21
-224.313
  0
LINE
  8
0
 10
-25.9982
 20
-224.313
 11
-25.9765
 21
-223.815
  0
LINE
  8
0
 10
-25.9765
 20
-223.815
 11
-25.9299
 21
-223.318
  0
LINE
  8
0
 10
-25.9299
 20
-223.318
 11
-25.8587
 21
-222.825
  0
LINE
  8
0
 10
-25.8587
 20
-222.825
 11
-25.763
 21
-222.336
  0
LINE
  8
0
 10
-25.763
 20
-222.336
 11
-25.6429
 21
-221.852
  0
LINE
  8
0
 10
-25.6429
 20
-221.852
 11
-25.4989
 21
-221.374
  0
LINE
  8
0
 10
-25.4989
 20
-221.374
 11
-25.3313
 21
-220.905
  0
LINE
  8
0
 10
-25.3313
 20
-220.905
 11
-25.1405
 21
-220.444
  0
LINE
  8
0
 10
-25.1405
 20
-220.444
 11
-24.927
 21
-219.993
  0
LINE
  8
0
 10
-24.927
 20
-219.993
 11
-24.6912
 21
-219.554
  0
LINE
  8
0
 10
-24.6912
 20
-219.554
 11
-24.4339
 21
-219.127
  0
LINE
  8
0
 10
-24.4339
 20
-219.127
 11
-24.1556
 21
-218.713
  0
LINE
  8
0
 10
-24.1556
 20
-218.713
 11
-23.857
 21
-218.314
  0
LINE
  8
0
 10
-23.857
 20
-218.314
 11
-23.5389
 21
-217.93
  0
LINE
  8
0
 10
-23.5389
 20
-217.93
 11
-23.202
 21
-217.562
  0
LINE
  8
0
 10
-23.202
 20
-217.562
 11
-22.8473
 21
-217.212
  0
LINE
  8
0
 10
-22.8473
 20
-217.212
 11
-22.4755
 21
-216.88
  0
LINE
  8
0
 10
-22.4755
 20
-216.88
 11
-22.0876
 21
-216.566
  0
LINE
  8
0
 10
-22.0876
 20
-216.566
 11
-21.6846
 21
-216.273
  0
LINE
  8
0
 10
-21.6846
 20
-216.273
 11
-21.2674
 21
-216
  0
LINE
  8
0
 10
-21.2674
 20
-216
 11
-20.8372
 21
-215.748
  0
LINE
  8
0
 10
-20.8372
 20
-215.748
 11
-20.3949
 21
-215.518
  0
LINE
  8
0
 10
-20.3949
 20
-215.518
 11
-19.9417
 21
-215.31
  0
LINE
  8
0
 10
-19.9417
 20
-215.31
 11
-19.4787
 21
-215.125
  0
LINE
  8
0
 10
-19.4787
 20
-215.125
 11
-19.007
 21
-214.963
  0
LINE
  8
0
 10
-19.007
 20
-214.963
 11
-18.5279
 21
-214.825
  0
LINE
  8
0
 10
-18.5279
 20
-214.825
 11
-18.0425
 21
-214.711
  0
LINE
  8
0
 10
-18.0425
 20
-214.711
 11
-17.552
 21
-214.621
  0
LINE
  8
0
 10
-17.552
 20
-214.621
 11
-17.0577
 21
-214.556
  0
LINE
  8
0
 10
-17.0577
 20
-214.556
 11
-16.5607
 21
-214.516
  0
LINE
  8
0
 10
-16.5607
 20
-214.516
 11
-16.0623
 21
-214.5
  0
LINE
  8
0
 10
-16.0623
 20
-214.5
 11
-15.5638
 21
-214.51
  0
LINE
  8
0
 10
-15.5638
 20
-214.51
 11
-15.0664
 21
-214.544
  0
LINE
  8
0
 10
-15.0664
 20
-214.544
 11
-14.5712
 21
-214.603
  0
LINE
  8
0
 10
-14.5712
 20
-214.603
 11
-14.0797
 21
-214.686
  0
LINE
  8
0
 10
-14.0797
 20
-214.686
 11
-13.5929
 21
-214.794
  0
LINE
  8
0
 10
-13.5929
 20
-214.794
 11
-13.1121
 21
-214.926
  0
LINE
  8
0
 10
-13.1121
 20
-214.926
 11
-12.6384
 21
-215.082
  0
LINE
  8
0
 10
-12.6384
 20
-215.082
 11
-12.1732
 21
-215.261
  0
LINE
  8
0
 10
-12.1732
 20
-215.261
 11
-11.7174
 21
-215.463
  0
LINE
  8
0
 10
-11.7174
 20
-215.463
 11
-11.3318
 21
-215.658
  0
LINE
  8
0
 10
-11.3318
 20
-215.658
 11
-16.4023
 21
-201.561
  0
LINE
  8
0
 10
-16.4023
 20
-201.561
 11
-21.6291
 21
-205.221
  0
LINE
  8
0
 10
-21.6291
 20
-205.221
 11
-37.1156
 21
-183.104
  0
LINE
  8
0
 10
-37.1156
 20
-183.104
 11
-32.4747
 21
-179.854
  0
LINE
  8
0
 10
-32.4747
 20
-179.854
 11
-32.8622
 21
-179.657
  0
LINE
  8
0
 10
-32.8622
 20
-179.657
 11
-33.3113
 21
-179.439
  0
LINE
  8
0
 10
-33.3113
 20
-179.439
 11
-33.764
 21
-179.229
  0
LINE
  8
0
 10
-33.764
 20
-179.229
 11
-34.2203
 21
-179.027
  0
LINE
  8
0
 10
-34.2203
 20
-179.027
 11
-34.68
 21
-178.832
  0
LINE
  8
0
 10
-34.68
 20
-178.832
 11
-35.143
 21
-178.645
  0
LINE
  8
0
 10
-35.143
 20
-178.645
 11
-35.6091
 21
-178.467
  0
LINE
  8
0
 10
-35.6091
 20
-178.467
 11
-36.0783
 21
-178.296
  0
LINE
  8
0
 10
-36.0783
 20
-178.296
 11
-36.5503
 21
-178.133
  0
LINE
  8
0
 10
-36.5503
 20
-178.133
 11
-37.025
 21
-177.979
  0
LINE
  8
0
 10
-37.025
 20
-177.979
 11
-37.5023
 21
-177.833
  0
LINE
  8
0
 10
-37.5023
 20
-177.833
 11
-37.9821
 21
-177.695
  0
LINE
  8
0
 10
-37.9821
 20
-177.695
 11
-38.4642
 21
-177.565
  0
LINE
  8
0
 10
-38.4642
 20
-177.565
 11
-38.9484
 21
-177.444
  0
LINE
  8
0
 10
-38.9484
 20
-177.444
 11
-39.4347
 21
-177.331
  0
LINE
  8
0
 10
-39.4347
 20
-177.331
 11
-39.9228
 21
-177.226
  0
LINE
  8
0
 10
-39.9228
 20
-177.226
 11
-40.4126
 21
-177.13
  0
LINE
  8
0
 10
-40.4126
 20
-177.13
 11
-40.9041
 21
-177.042
  0
LINE
  8
0
 10
-40.9041
 20
-177.042
 11
-49.1229
 21
-175.726
  0
LINE
  8
0
 10
-49.1229
 20
-175.726
 11
-26.9229
 21
-207.431
  0
LINE
  8
0
 10
-26.9229
 20
-207.431
 11
-30.4371
 21
-209.892
  0
LINE
  8
0
 10
-30.4371
 20
-209.892
 11
-30.2175
 21
-210.326
  0
LINE
  8
0
 10
-30.2175
 20
-210.326
 11
-30.1292
 21
-210.805
  0
LINE
  8
0
 10
-30.1292
 20
-210.805
 11
-30.1793
 21
-211.289
  0
LINE
  8
0
 10
-30.1793
 20
-211.289
 11
-30.3637
 21
-211.739
  0
LINE
  8
0
 10
-30.3637
 20
-211.739
 11
-30.6676
 21
-212.119
  0
LINE
  8
0
 10
-30.6676
 20
-212.119
 11
-31.0663
 21
-212.398
  0
LINE
  8
0
 10
-31.0663
 20
-212.398
 11
-31.5275
 21
-212.554
  0
LINE
  8
0
 10
-31.5275
 20
-212.554
 11
-32.0139
 21
-212.573
  0
LINE
  8
0
 10
-32.0139
 20
-212.573
 11
-32.4859
 21
-212.455
  0
LINE
  8
0
 10
-32.4859
 20
-212.455
 11
-32.9055
 21
-212.208
  0
LINE
  8
0
 10
-32.9055
 20
-212.208
 11
-33.2386
 21
-211.853
  0
LINE
  8
0
 10
-33.2386
 20
-211.853
 11
-36.7527
 21
-214.314
  0
LINE
  8
0
 10
-70.8848
 20
-185.684
 11
-71.3702
 21
-185.616
  0
LINE
  8
0
 10
-71.3702
 20
-185.616
 11
-71.819
 21
-185.419
  0
LINE
  8
0
 10
-71.819
 20
-185.419
 11
-72.1981
 21
-185.108
  0
LINE
  8
0
 10
-72.1981
 20
-185.108
 11
-72.4793
 21
-184.706
  0
LINE
  8
0
 10
-72.4793
 20
-184.706
 11
-72.6417
 21
-184.244
  0
LINE
  8
0
 10
-72.6417
 20
-184.244
 11
-72.6733
 21
-183.754
  0
LINE
  8
0
 10
-72.6733
 20
-183.754
 11
-72.1821
 21
-180.969
  0
LINE
  8
0
 10
-72.1821
 20
-180.969
 11
-72.0806
 21
-180.489
  0
LINE
  8
0
 10
-72.0806
 20
-180.489
 11
-71.8534
 21
-180.055
  0
LINE
  8
0
 10
-71.8534
 20
-180.055
 11
-71.5175
 21
-179.698
  0
LINE
  8
0
 10
-71.5175
 20
-179.698
 11
-71.0977
 21
-179.445
  0
LINE
  8
0
 10
-71.0977
 20
-179.445
 11
-70.6252
 21
-179.314
  0
LINE
  8
0
 10
-70.6252
 20
-179.314
 11
-70.1349
 21
-179.316
  0
LINE
  8
0
 10
-70.1349
 20
-179.316
 11
-69.6634
 21
-179.45
  0
LINE
  8
0
 10
-69.6634
 20
-179.45
 11
-69.2456
 21
-179.707
  0
LINE
  8
0
 10
-69.2456
 20
-179.707
 11
-68.9123
 21
-180.066
  0
LINE
  8
0
 10
-68.9123
 20
-180.066
 11
-68.6885
 21
-180.502
  0
LINE
  8
0
 10
-68.6885
 20
-180.502
 11
-68.5906
 21
-180.983
  0
LINE
  8
0
 10
-68.5906
 20
-180.983
 11
-68.6259
 21
-181.472
  0
LINE
  8
0
 10
-68.6259
 20
-181.472
 11
-69.117
 21
-184.257
  0
LINE
  8
0
 10
-69.117
 20
-184.257
 11
-69.2829
 21
-184.718
  0
LINE
  8
0
 10
-69.2829
 20
-184.718
 11
-69.5671
 21
-185.118
  0
LINE
  8
0
 10
-69.5671
 20
-185.118
 11
-69.9486
 21
-185.426
  0
LINE
  8
0
 10
-69.9486
 20
-185.426
 11
-70.3989
 21
-185.619
  0
LINE
  8
0
 10
-70.3989
 20
-185.619
 11
-70.8848
 21
-185.684
  0
LINE
  8
0
 10
-74.7231
 20
-216.075
 11
-75.2219
 21
-216.053
  0
LINE
  8
0
 10
-75.2219
 20
-216.053
 11
-75.7194
 21
-216.01
  0
LINE
  8
0
 10
-75.7194
 20
-216.01
 11
-76.2146
 21
-215.947
  0
LINE
  8
0
 10
-76.2146
 20
-215.947
 11
-76.7067
 21
-215.862
  0
LINE
  8
0
 10
-76.7067
 20
-215.862
 11
-77.195
 21
-215.758
  0
LINE
  8
0
 10
-77.195
 20
-215.758
 11
-77.6784
 21
-215.633
  0
LINE
  8
0
 10
-77.6784
 20
-215.633
 11
-78.1562
 21
-215.488
  0
LINE
  8
0
 10
-78.1562
 20
-215.488
 11
-78.6277
 21
-215.324
  0
LINE
  8
0
 10
-78.6277
 20
-215.324
 11
-79.0918
 21
-215.14
  0
LINE
  8
0
 10
-79.0918
 20
-215.14
 11
-79.5479
 21
-214.937
  0
LINE
  8
0
 10
-79.5479
 20
-214.937
 11
-79.9952
 21
-214.715
  0
LINE
  8
0
 10
-79.9952
 20
-214.715
 11
-80.4328
 21
-214.474
  0
LINE
  8
0
 10
-80.4328
 20
-214.474
 11
-80.8601
 21
-214.216
  0
LINE
  8
0
 10
-80.8601
 20
-214.216
 11
-81.2762
 21
-213.94
  0
LINE
  8
0
 10
-81.2762
 20
-213.94
 11
-81.6805
 21
-213.647
  0
LINE
  8
0
 10
-81.6805
 20
-213.647
 11
-82.0723
 21
-213.338
  0
LINE
  8
0
 10
-82.0723
 20
-213.338
 11
-82.4509
 21
-213.012
  0
LINE
  8
0
 10
-82.4509
 20
-213.012
 11
-82.8155
 21
-212.671
  0
LINE
  8
0
 10
-82.8155
 20
-212.671
 11
-83.1657
 21
-212.315
  0
LINE
  8
0
 10
-83.1657
 20
-212.315
 11
-83.5008
 21
-211.945
  0
LINE
  8
0
 10
-83.5008
 20
-211.945
 11
-83.8202
 21
-211.561
  0
LINE
  8
0
 10
-83.8202
 20
-211.561
 11
-84.1233
 21
-211.165
  0
LINE
  8
0
 10
-84.1233
 20
-211.165
 11
-84.4097
 21
-210.756
  0
LINE
  8
0
 10
-84.4097
 20
-210.756
 11
-84.6788
 21
-210.335
  0
LINE
  8
0
 10
-84.6788
 20
-210.335
 11
-84.9302
 21
-209.904
  0
LINE
  8
0
 10
-84.9302
 20
-209.904
 11
-85.1634
 21
-209.462
  0
LINE
  8
0
 10
-85.1634
 20
-209.462
 11
-85.3781
 21
-209.011
  0
LINE
  8
0
 10
-85.3781
 20
-209.011
 11
-85.5738
 21
-208.552
  0
LINE
  8
0
 10
-85.5738
 20
-208.552
 11
-85.7503
 21
-208.085
  0
LINE
  8
0
 10
-85.7503
 20
-208.085
 11
-85.9072
 21
-207.611
  0
LINE
  8
0
 10
-85.9072
 20
-207.611
 11
-86.0442
 21
-207.131
  0
LINE
  8
0
 10
-86.0442
 20
-207.131
 11
-86.1611
 21
-206.645
  0
LINE
  8
0
 10
-86.1611
 20
-206.645
 11
-86.2577
 21
-206.156
  0
LINE
  8
0
 10
-86.2577
 20
-206.156
 11
-86.3339
 21
-205.662
  0
LINE
  8
0
 10
-86.3339
 20
-205.662
 11
-86.3895
 21
-205.166
  0
LINE
  8
0
 10
-86.3895
 20
-205.166
 11
-86.4243
 21
-204.668
  0
LINE
  8
0
 10
-86.4243
 20
-204.668
 11
-86.4385
 21
-204.169
  0
LINE
  8
0
 10
-86.4385
 20
-204.169
 11
-86.4318
 21
-203.67
  0
LINE
  8
0
 10
-86.4318
 20
-203.67
 11
-86.4044
 21
-203.171
  0
LINE
  8
0
 10
-86.4044
 20
-203.171
 11
-86.3563
 21
-202.674
  0
LINE
  8
0
 10
-86.3563
 20
-202.674
 11
-86.2876
 21
-202.18
  0
LINE
  8
0
 10
-86.2876
 20
-202.18
 11
-86.1983
 21
-201.688
  0
LINE
  8
0
 10
-86.1983
 20
-201.688
 11
-86.0887
 21
-201.201
  0
LINE
  8
0
 10
-86.0887
 20
-201.201
 11
-85.9589
 21
-200.719
  0
LINE
  8
0
 10
-85.9589
 20
-200.719
 11
-85.8092
 21
-200.243
  0
LINE
  8
0
 10
-85.8092
 20
-200.243
 11
-85.6398
 21
-199.773
  0
LINE
  8
0
 10
-85.6398
 20
-199.773
 11
-85.451
 21
-199.311
  0
LINE
  8
0
 10
-85.451
 20
-199.311
 11
-85.2431
 21
-198.857
  0
LINE
  8
0
 10
-85.2431
 20
-198.857
 11
-85.0166
 21
-198.412
  0
LINE
  8
0
 10
-85.0166
 20
-198.412
 11
-84.7717
 21
-197.977
  0
LINE
  8
0
 10
-84.7717
 20
-197.977
 11
-84.5089
 21
-197.552
  0
LINE
  8
0
 10
-84.5089
 20
-197.552
 11
-84.2287
 21
-197.139
  0
LINE
  8
0
 10
-84.2287
 20
-197.139
 11
-83.9315
 21
-196.738
  0
LINE
  8
0
 10
-83.9315
 20
-196.738
 11
-83.618
 21
-196.349
  0
LINE
  8
0
 10
-83.618
 20
-196.349
 11
-83.2885
 21
-195.974
  0
LINE
  8
0
 10
-83.2885
 20
-195.974
 11
-82.9437
 21
-195.613
  0
LINE
  8
0
 10
-82.9437
 20
-195.613
 11
-82.5842
 21
-195.267
  0
LINE
  8
0
 10
-82.5842
 20
-195.267
 11
-82.2105
 21
-194.935
  0
LINE
  8
0
 10
-82.2105
 20
-194.935
 11
-81.8235
 21
-194.62
  0
LINE
  8
0
 10
-81.8235
 20
-194.62
 11
-81.4236
 21
-194.321
  0
LINE
  8
0
 10
-81.4236
 20
-194.321
 11
-81.0117
 21
-194.039
  0
LINE
  8
0
 10
-81.0117
 20
-194.039
 11
-80.5883
 21
-193.774
  0
LINE
  8
0
 10
-80.5883
 20
-193.774
 11
-80.1544
 21
-193.527
  0
LINE
  8
0
 10
-80.1544
 20
-193.527
 11
-79.7105
 21
-193.299
  0
LINE
  8
0
 10
-79.7105
 20
-193.299
 11
-79.2575
 21
-193.089
  0
LINE
  8
0
 10
-79.2575
 20
-193.089
 11
-78.7961
 21
-192.898
  0
LINE
  8
0
 10
-78.7961
 20
-192.898
 11
-78.3273
 21
-192.726
  0
LINE
  8
0
 10
-78.3273
 20
-192.726
 11
-77.8517
 21
-192.574
  0
LINE
  8
0
 10
-77.8517
 20
-192.574
 11
-77.3701
 21
-192.442
  0
LINE
  8
0
 10
-77.3701
 20
-192.442
 11
-76.8835
 21
-192.33
  0
LINE
  8
0
 10
-76.8835
 20
-192.33
 11
-76.3927
 21
-192.239
  0
LINE
  8
0
 10
-76.3927
 20
-192.239
 11
-75.8985
 21
-192.168
  0
LINE
  8
0
 10
-75.8985
 20
-192.168
 11
-75.4017
 21
-192.117
  0
LINE
  8
0
 10
-75.4017
 20
-192.117
 11
-74.9034
 21
-192.088
  0
LINE
  8
0
 10
-74.9034
 20
-192.088
 11
-74.4041
 21
-192.079
  0
LINE
  8
0
 10
-74.4041
 20
-192.079
 11
-73.905
 21
-192.091
  0
LINE
  8
0
 10
-73.905
 20
-192.091
 11
-73.4068
 21
-192.123
  0
LINE
  8
0
 10
-73.4068
 20
-192.123
 11
-72.9103
 21
-192.176
  0
LINE
  8
0
 10
-72.9103
 20
-192.176
 11
-72.4165
 21
-192.25
  0
LINE
  8
0
 10
-72.4165
 20
-192.25
 11
-71.9262
 21
-192.345
  0
LINE
  8
0
 10
-71.9262
 20
-192.345
 11
-71.4403
 21
-192.459
  0
LINE
  8
0
 10
-71.4403
 20
-192.459
 11
-70.9595
 21
-192.594
  0
LINE
  8
0
 10
-70.9595
 20
-192.594
 11
-70.4848
 21
-192.749
  0
LINE
  8
0
 10
-70.4848
 20
-192.749
 11
-70.0169
 21
-192.923
  0
LINE
  8
0
 10
-70.0169
 20
-192.923
 11
-69.5567
 21
-193.117
  0
LINE
  8
0
 10
-69.5567
 20
-193.117
 11
-69.1049
 21
-193.329
  0
LINE
  8
0
 10
-69.1049
 20
-193.329
 11
-68.6624
 21
-193.56
  0
LINE
  8
0
 10
-68.6624
 20
-193.56
 11
-68.2298
 21
-193.81
  0
LINE
  8
0
 10
-68.2298
 20
-193.81
 11
-67.8081
 21
-194.077
  0
LINE
  8
0
 10
-67.8081
 20
-194.077
 11
-67.3977
 21
-194.362
  0
LINE
  8
0
 10
-67.3977
 20
-194.362
 11
-66.9996
 21
-194.663
  0
LINE
  8
0
 10
-66.9996
 20
-194.663
 11
-66.6144
 21
-194.98
  0
LINE
  8
0
 10
-66.6144
 20
-194.98
 11
-66.2427
 21
-195.314
  0
LINE
  8
0
 10
-66.2427
 20
-195.314
 11
-65.8852
 21
-195.662
  0
LINE
  8
0
 10
-65.8852
 20
-195.662
 11
-65.5424
 21
-196.025
  0
LINE
  8
0
 10
-65.5424
 20
-196.025
 11
-65.2151
 21
-196.402
  0
LINE
  8
0
 10
-65.2151
 20
-196.402
 11
-64.9038
 21
-196.793
  0
LINE
  8
0
 10
-64.9038
 20
-196.793
 11
-64.609
 21
-197.196
  0
LINE
  8
0
 10
-64.609
 20
-197.196
 11
-64.3312
 21
-197.611
  0
LINE
  8
0
 10
-64.3312
 20
-197.611
 11
-64.0709
 21
-198.037
  0
LINE
  8
0
 10
-64.0709
 20
-198.037
 11
-63.8285
 21
-198.473
  0
LINE
  8
0
 10
-63.8285
 20
-198.473
 11
-63.6045
 21
-198.919
  0
LINE
  8
0
 10
-63.6045
 20
-198.919
 11
-63.3993
 21
-199.375
  0
LINE
  8
0
 10
-63.3993
 20
-199.375
 11
-63.2131
 21
-199.838
  0
LINE
  8
0
 10
-63.2131
 20
-199.838
 11
-63.0464
 21
-200.309
  0
LINE
  8
0
 10
-63.0464
 20
-200.309
 11
-62.8995
 21
-200.786
  0
LINE
  8
0
 10
-62.8995
 20
-200.786
 11
-62.7725
 21
-201.269
  0
LINE
  8
0
 10
-62.7725
 20
-201.269
 11
-62.6657
 21
-201.756
  0
LINE
  8
0
 10
-62.6657
 20
-201.756
 11
-62.5793
 21
-202.248
  0
LINE
  8
0
 10
-62.5793
 20
-202.248
 11
-62.5134
 21
-202.743
  0
LINE
  8
0
 10
-62.5134
 20
-202.743
 11
-62.4681
 21
-203.24
  0
LINE
  8
0
 10
-62.4681
 20
-203.24
 11
-62.4436
 21
-203.739
  0
LINE
  8
0
 10
-62.4436
 20
-203.739
 11
-62.4399
 21
-204.238
  0
LINE
  8
0
 10
-62.4399
 20
-204.238
 11
-62.4569
 21
-204.737
  0
LINE
  8
0
 10
-62.4569
 20
-204.737
 11
-62.4947
 21
-205.235
  0
LINE
  8
0
 10
-62.4947
 20
-205.235
 11
-62.5531
 21
-205.731
  0
LINE
  8
0
 10
-62.5531
 20
-205.731
 11
-62.6321
 21
-206.224
  0
LINE
  8
0
 10
-62.6321
 20
-206.224
 11
-62.7316
 21
-206.713
  0
LINE
  8
0
 10
-62.7316
 20
-206.713
 11
-62.8513
 21
-207.198
  0
LINE
  8
0
 10
-62.8513
 20
-207.198
 11
-62.9911
 21
-207.677
  0
LINE
  8
0
 10
-62.9911
 20
-207.677
 11
-63.1507
 21
-208.15
  0
LINE
  8
0
 10
-63.1507
 20
-208.15
 11
-63.3298
 21
-208.616
  0
LINE
  8
0
 10
-63.3298
 20
-208.616
 11
-63.5282
 21
-209.075
  0
LINE
  8
0
 10
-63.5282
 20
-209.075
 11
-63.7455
 21
-209.524
  0
LINE
  8
0
 10
-63.7455
 20
-209.524
 11
-63.9812
 21
-209.964
  0
LINE
  8
0
 10
-63.9812
 20
-209.964
 11
-64.2351
 21
-210.394
  0
LINE
  8
0
 10
-64.2351
 20
-210.394
 11
-64.5067
 21
-210.813
  0
LINE
  8
0
 10
-64.5067
 20
-210.813
 11
-64.7954
 21
-211.22
  0
LINE
  8
0
 10
-64.7954
 20
-211.22
 11
-65.1009
 21
-211.615
  0
LINE
  8
0
 10
-65.1009
 20
-211.615
 11
-65.4225
 21
-211.997
  0
LINE
  8
0
 10
-65.4225
 20
-211.997
 11
-65.7597
 21
-212.366
  0
LINE
  8
0
 10
-65.7597
 20
-212.366
 11
-66.1119
 21
-212.719
  0
LINE
  8
0
 10
-66.1119
 20
-212.719
 11
-66.4785
 21
-213.058
  0
LINE
  8
0
 10
-66.4785
 20
-213.058
 11
-66.859
 21
-213.382
  0
LINE
  8
0
 10
-66.859
 20
-213.382
 11
-67.2525
 21
-213.689
  0
LINE
  8
0
 10
-67.2525
 20
-213.689
 11
-67.6585
 21
-213.98
  0
LINE
  8
0
 10
-67.6585
 20
-213.98
 11
-68.0762
 21
-214.253
  0
LINE
  8
0
 10
-68.0762
 20
-214.253
 11
-68.505
 21
-214.509
  0
LINE
  8
0
 10
-68.505
 20
-214.509
 11
-68.944
 21
-214.747
  0
LINE
  8
0
 10
-68.944
 20
-214.747
 11
-69.3925
 21
-214.966
  0
LINE
  8
0
 10
-69.3925
 20
-214.966
 11
-69.8498
 21
-215.167
  0
LINE
  8
0
 10
-69.8498
 20
-215.167
 11
-70.315
 21
-215.348
  0
LINE
  8
0
 10
-70.315
 20
-215.348
 11
-70.7874
 21
-215.51
  0
LINE
  8
0
 10
-70.7874
 20
-215.51
 11
-71.2661
 21
-215.652
  0
LINE
  8
0
 10
-71.2661
 20
-215.652
 11
-71.7502
 21
-215.774
  0
LINE
  8
0
 10
-71.7502
 20
-215.774
 11
-72.239
 21
-215.875
  0
LINE
  8
0
 10
-72.239
 20
-215.875
 11
-72.7317
 21
-215.957
  0
LINE
  8
0
 10
-72.7317
 20
-215.957
 11
-73.2272
 21
-216.017
  0
LINE
  8
0
 10
-73.2272
 20
-216.017
 11
-73.7249
 21
-216.057
  0
LINE
  8
0
 10
-73.7249
 20
-216.057
 11
-74.2238
 21
-216.077
  0
LINE
  8
0
 10
-74.2238
 20
-216.077
 11
-74.7231
 21
-216.075
  0
LINE
  8
0
 10
-97.5485
 20
-201.822
 11
-98.028
 21
-201.72
  0
LINE
  8
0
 10
-98.028
 20
-201.72
 11
-98.4624
 21
-201.493
  0
LINE
  8
0
 10
-98.4624
 20
-201.493
 11
-98.8194
 21
-201.157
  0
LINE
  8
0
 10
-98.8194
 20
-201.157
 11
-99.0725
 21
-200.738
  0
LINE
  8
0
 10
-99.0725
 20
-200.738
 11
-99.203
 21
-200.265
  0
LINE
  8
0
 10
-99.203
 20
-200.265
 11
-99.2011
 21
-199.775
  0
LINE
  8
0
 10
-99.2011
 20
-199.775
 11
-99.0671
 21
-199.303
  0
LINE
  8
0
 10
-99.0671
 20
-199.303
 11
-98.8108
 21
-198.885
  0
LINE
  8
0
 10
-98.8108
 20
-198.885
 11
-98.4513
 21
-198.552
  0
LINE
  8
0
 10
-98.4513
 20
-198.552
 11
-98.0152
 21
-198.328
  0
LINE
  8
0
 10
-98.0152
 20
-198.328
 11
-97.5349
 21
-198.23
  0
LINE
  8
0
 10
-97.5349
 20
-198.23
 11
-97.0459
 21
-198.266
  0
LINE
  8
0
 10
-97.0459
 20
-198.266
 11
-94.2605
 21
-198.757
  0
LINE
  8
0
 10
-94.2605
 20
-198.757
 11
-93.7992
 21
-198.923
  0
LINE
  8
0
 10
-93.7992
 20
-198.923
 11
-93.3998
 21
-199.207
  0
LINE
  8
0
 10
-93.3998
 20
-199.207
 11
-93.0919
 21
-199.588
  0
LINE
  8
0
 10
-93.0919
 20
-199.588
 11
-92.8983
 21
-200.039
  0
LINE
  8
0
 10
-92.8983
 20
-200.039
 11
-92.8334
 21
-200.525
  0
LINE
  8
0
 10
-92.8334
 20
-200.525
 11
-92.902
 21
-201.01
  0
LINE
  8
0
 10
-92.902
 20
-201.01
 11
-93.099
 21
-201.459
  0
LINE
  8
0
 10
-93.099
 20
-201.459
 11
-93.4098
 21
-201.838
  0
LINE
  8
0
 10
-93.4098
 20
-201.838
 11
-93.8113
 21
-202.119
  0
LINE
  8
0
 10
-93.8113
 20
-202.119
 11
-94.2738
 21
-202.282
  0
LINE
  8
0
 10
-94.2738
 20
-202.282
 11
-94.763
 21
-202.313
  0
LINE
  8
0
 10
-94.763
 20
-202.313
 11
-97.5485
 21
-201.822
  0
LINE
  8
0
 10
-51.8317
 20
-209.892
 11
-54.6172
 21
-209.4
  0
LINE
  8
0
 10
-54.6172
 20
-209.4
 11
-55.0784
 21
-209.235
  0
LINE
  8
0
 10
-55.0784
 20
-209.235
 11
-55.4778
 21
-208.95
  0
LINE
  8
0
 10
-55.4778
 20
-208.95
 11
-55.7857
 21
-208.569
  0
LINE
  8
0
 10
-55.7857
 20
-208.569
 11
-55.9793
 21
-208.119
  0
LINE
  8
0
 10
-55.9793
 20
-208.119
 11
-56.0442
 21
-207.633
  0
LINE
  8
0
 10
-56.0442
 20
-207.633
 11
-55.9756
 21
-207.147
  0
LINE
  8
0
 10
-55.9756
 20
-207.147
 11
-55.7786
 21
-206.698
  0
LINE
  8
0
 10
-55.7786
 20
-206.698
 11
-55.4678
 21
-206.319
  0
LINE
  8
0
 10
-55.4678
 20
-206.319
 11
-55.0663
 21
-206.038
  0
LINE
  8
0
 10
-55.0663
 20
-206.038
 11
-54.6038
 21
-205.876
  0
LINE
  8
0
 10
-54.6038
 20
-205.876
 11
-54.1146
 21
-205.844
  0
LINE
  8
0
 10
-54.1146
 20
-205.844
 11
-51.3291
 21
-206.335
  0
LINE
  8
0
 10
-51.3291
 20
-206.335
 11
-50.8496
 21
-206.437
  0
LINE
  8
0
 10
-50.8496
 20
-206.437
 11
-50.4152
 21
-206.664
  0
LINE
  8
0
 10
-50.4152
 20
-206.664
 11
-50.0582
 21
-207
  0
LINE
  8
0
 10
-50.0582
 20
-207
 11
-49.8051
 21
-207.42
  0
LINE
  8
0
 10
-49.8051
 20
-207.42
 11
-49.6746
 21
-207.892
  0
LINE
  8
0
 10
-49.6746
 20
-207.892
 11
-49.6765
 21
-208.383
  0
LINE
  8
0
 10
-49.6765
 20
-208.383
 11
-49.8105
 21
-208.854
  0
LINE
  8
0
 10
-49.8105
 20
-208.854
 11
-50.0668
 21
-209.272
  0
LINE
  8
0
 10
-50.0668
 20
-209.272
 11
-50.4264
 21
-209.605
  0
LINE
  8
0
 10
-50.4264
 20
-209.605
 11
-50.8625
 21
-209.829
  0
LINE
  8
0
 10
-50.8625
 20
-209.829
 11
-51.3428
 21
-209.927
  0
LINE
  8
0
 10
-51.3428
 20
-209.927
 11
-51.8317
 21
-209.892
  0
LINE
  8
0
 10
-20.2836
 20
-214.088
 11
-20.7603
 21
-213.964
  0
LINE
  8
0
 10
-20.7603
 20
-213.964
 11
-21.1973
 21
-213.736
  0
LINE
  8
0
 10
-21.1973
 20
-213.736
 11
-21.5727
 21
-213.417
  0
LINE
  8
0
 10
-21.5727
 20
-213.417
 11
-21.8677
 21
-213.023
  0
LINE
  8
0
 10
-21.8677
 20
-213.023
 11
-22.0675
 21
-212.572
  0
LINE
  8
0
 10
-22.0675
 20
-212.572
 11
-22.1621
 21
-212.089
  0
LINE
  8
0
 10
-22.1621
 20
-212.089
 11
-22.1467
 21
-211.597
  0
LINE
  8
0
 10
-22.1467
 20
-211.597
 11
-22.0222
 21
-211.12
  0
LINE
  8
0
 10
-22.0222
 20
-211.12
 11
-21.7947
 21
-210.683
  0
LINE
  8
0
 10
-21.7947
 20
-210.683
 11
-21.4757
 21
-210.308
  0
LINE
  8
0
 10
-21.4757
 20
-210.308
 11
-21.0812
 21
-210.013
  0
LINE
  8
0
 10
-21.0812
 20
-210.013
 11
-20.6309
 21
-209.813
  0
LINE
  8
0
 10
-20.6309
 20
-209.813
 11
-20.1474
 21
-209.718
  0
LINE
  8
0
 10
-20.1474
 20
-209.718
 11
-19.655
 21
-209.734
  0
LINE
  8
0
 10
-19.655
 20
-209.734
 11
-19.1783
 21
-209.858
  0
LINE
  8
0
 10
-19.1783
 20
-209.858
 11
-18.7414
 21
-210.086
  0
LINE
  8
0
 10
-18.7414
 20
-210.086
 11
-18.366
 21
-210.405
  0
LINE
  8
0
 10
-18.366
 20
-210.405
 11
-18.071
 21
-210.799
  0
LINE
  8
0
 10
-18.071
 20
-210.799
 11
-17.8711
 21
-211.249
  0
LINE
  8
0
 10
-17.8711
 20
-211.249
 11
-17.7765
 21
-211.733
  0
LINE
  8
0
 10
-17.7765
 20
-211.733
 11
-17.7919
 21
-212.225
  0
LINE
  8
0
 10
-17.7919
 20
-212.225
 11
-17.9164
 21
-212.702
  0
LINE
  8
0
 10
-17.9164
 20
-212.702
 11
-18.1439
 21
-213.139
  0
LINE
  8
0
 10
-18.1439
 20
-213.139
 11
-18.4629
 21
-213.514
  0
LINE
  8
0
 10
-18.4629
 20
-213.514
 11
-18.8575
 21
-213.809
  0
LINE
  8
0
 10
-18.8575
 20
-213.809
 11
-19.3078
 21
-214.009
  0
LINE
  8
0
 10
-19.3078
 20
-214.009
 11
-19.7912
 21
-214.104
  0
LINE
  8
0
 10
-19.7912
 20
-214.104
 11
-20.2836
 21
-214.088
  0
LINE
  8
0
 10
-78.7427
 20
-228.841
 11
-79.2142
 21
-228.707
  0
LINE
  8
0
 10
-79.2142
 20
-228.707
 11
-79.6321
 21
-228.451
  0
LINE
  8
0
 10
-79.6321
 20
-228.451
 11
-79.9653
 21
-228.091
  0
LINE
  8
0
 10
-79.9653
 20
-228.091
 11
-80.1892
 21
-227.655
  0
LINE
  8
0
 10
-80.1892
 20
-227.655
 11
-80.2871
 21
-227.175
  0
LINE
  8
0
 10
-80.2871
 20
-227.175
 11
-80.2518
 21
-226.686
  0
LINE
  8
0
 10
-80.2518
 20
-226.686
 11
-79.7606
 21
-223.9
  0
LINE
  8
0
 10
-79.7606
 20
-223.9
 11
-79.5947
 21
-223.439
  0
LINE
  8
0
 10
-79.5947
 20
-223.439
 11
-79.3105
 21
-223.04
  0
LINE
  8
0
 10
-79.3105
 20
-223.04
 11
-78.9291
 21
-222.732
  0
LINE
  8
0
 10
-78.9291
 20
-222.732
 11
-78.4787
 21
-222.538
  0
LINE
  8
0
 10
-78.4787
 20
-222.538
 11
-77.9928
 21
-222.473
  0
LINE
  8
0
 10
-77.9928
 20
-222.473
 11
-77.5074
 21
-222.542
  0
LINE
  8
0
 10
-77.5074
 20
-222.542
 11
-77.0586
 21
-222.739
  0
LINE
  8
0
 10
-77.0586
 20
-222.739
 11
-76.6795
 21
-223.05
  0
LINE
  8
0
 10
-76.6795
 20
-223.05
 11
-76.3983
 21
-223.451
  0
LINE
  8
0
 10
-76.3983
 20
-223.451
 11
-76.2359
 21
-223.914
  0
LINE
  8
0
 10
-76.2359
 20
-223.914
 11
-76.2043
 21
-224.403
  0
LINE
  8
0
 10
-76.2043
 20
-224.403
 11
-76.6955
 21
-227.188
  0
LINE
  8
0
 10
-76.6955
 20
-227.188
 11
-76.797
 21
-227.668
  0
LINE
  8
0
 10
-76.797
 20
-227.668
 11
-77.0242
 21
-228.102
  0
LINE
  8
0
 10
-77.0242
 20
-228.102
 11
-77.3602
 21
-228.459
  0
LINE
  8
0
 10
-77.3602
 20
-228.459
 11
-77.78
 21
-228.712
  0
LINE
  8
0
 10
-77.78
 20
-228.712
 11
-78.2525
 21
-228.843
  0
LINE
  8
0
 10
-78.2525
 20
-228.843
 11
-78.7427
 21
-228.841
  0
LINE
  8
0
 10
-12.345
 20
-239.266
 11
-12.8216
 21
-239.142
  0
LINE
  8
0
 10
-12.8216
 20
-239.142
 11
-13.2586
 21
-238.914
  0
LINE
  8
0
 10
-13.2586
 20
-238.914
 11
-13.634
 21
-238.595
  0
LINE
  8
0
 10
-13.634
 20
-238.595
 11
-13.929
 21
-238.201
  0
LINE
  8
0
 10
-13.929
 20
-238.201
 11
-14.1289
 21
-237.751
  0
LINE
  8
0
 10
-14.1289
 20
-237.751
 11
-14.2234
 21
-237.267
  0
LINE
  8
0
 10
-14.2234
 20
-237.267
 11
-14.2081
 21
-236.775
  0
LINE
  8
0
 10
-14.2081
 20
-236.775
 11
-14.0836
 21
-236.298
  0
LINE
  8
0
 10
-14.0836
 20
-236.298
 11
-13.8561
 21
-235.861
  0
LINE
  8
0
 10
-13.8561
 20
-235.861
 11
-13.5371
 21
-235.486
  0
LINE
  8
0
 10
-13.5371
 20
-235.486
 11
-13.1425
 21
-235.191
  0
LINE
  8
0
 10
-13.1425
 20
-235.191
 11
-12.6922
 21
-234.991
  0
LINE
  8
0
 10
-12.6922
 20
-234.991
 11
-12.2088
 21
-234.896
  0
LINE
  8
0
 10
-12.2088
 20
-234.896
 11
-11.7164
 21
-234.912
  0
LINE
  8
0
 10
-11.7164
 20
-234.912
 11
-11.2397
 21
-235.036
  0
LINE
  8
0
 10
-11.2397
 20
-235.036
 11
-10.8027
 21
-235.264
  0
LINE
  8
0
 10
-10.8027
 20
-235.264
 11
-10.4273
 21
-235.583
  0
LINE
  8
0
 10
-10.4273
 20
-235.583
 11
-10.1323
 21
-235.977
  0
LINE
  8
0
 10
-10.1323
 20
-235.977
 11
-9.9325
 21
-236.428
  0
LINE
  8
0
 10
-9.9325
 20
-236.428
 11
-9.83789
 21
-236.911
  0
LINE
  8
0
 10
-9.83789
 20
-236.911
 11
-9.85324
 21
-237.403
  0
LINE
  8
0
 10
-9.85324
 20
-237.403
 11
-9.97778
 21
-237.88
  0
LINE
  8
0
 10
-9.97778
 20
-237.88
 11
-10.2053
 21
-238.317
  0
LINE
  8
0
 10
-10.2053
 20
-238.317
 11
-10.5243
 21
-238.692
  0
LINE
  8
0
 10
-10.5243
 20
-238.692
 11
-10.9188
 21
-238.987
  0
LINE
  8
0
 10
-10.9188
 20
-238.987
 11
-11.3691
 21
-239.187
  0
LINE
  8
0
 10
-11.3691
 20
-239.187
 11
-11.8526
 21
-239.282
  0
LINE
  8
0
 10
-11.8526
 20
-239.282
 11
-12.345
 21
-239.266
  0
LINE
  8
0
 10
-50.3702
 20
-248.616
 11
-50.819
 21
-248.419
  0
LINE
  8
0
 10
-50.819
 20
-248.419
 11
-51.1981
 21
-248.108
  0
LINE
  8
0
 10
-51.1981
 20
-248.108
 11
-51.4793
 21
-247.706
  0
LINE
  8
0
 10
-51.4793
 20
-247.706
 11
-51.6417
 21
-247.244
  0
LINE
  8
0
 10
-51.6417
 20
-247.244
 11
-51.6733
 21
-246.754
  0
LINE
  8
0
 10
-51.6733
 20
-246.754
 11
-51.1821
 21
-243.969
  0
LINE
  8
0
 10
-51.1821
 20
-243.969
 11
-51.0806
 21
-243.489
  0
LINE
  8
0
 10
-51.0806
 20
-243.489
 11
-50.8534
 21
-243.055
  0
LINE
  8
0
 10
-50.8534
 20
-243.055
 11
-50.5175
 21
-242.698
  0
LINE
  8
0
 10
-50.5175
 20
-242.698
 11
-50.0977
 21
-242.445
  0
LINE
  8
0
 10
-50.0977
 20
-242.445
 11
-49.6252
 21
-242.314
  0
LINE
  8
0
 10
-49.6252
 20
-242.314
 11
-49.1349
 21
-242.316
  0
LINE
  8
0
 10
-49.1349
 20
-242.316
 11
-48.6634
 21
-242.45
  0
LINE
  8
0
 10
-48.6634
 20
-242.45
 11
-48.2456
 21
-242.707
  0
LINE
  8
0
 10
-48.2456
 20
-242.707
 11
-47.9123
 21
-243.066
  0
LINE
  8
0
 10
-47.9123
 20
-243.066
 11
-47.6885
 21
-243.502
  0
LINE
  8
0
 10
-47.6885
 20
-243.502
 11
-47.5906
 21
-243.983
  0
LINE
  8
0
 10
-47.5906
 20
-243.983
 11
-47.6259
 21
-244.472
  0
LINE
  8
0
 10
-47.6259
 20
-244.472
 11
-48.117
 21
-247.257
  0
LINE
  8
0
 10
-48.117
 20
-247.257
 11
-48.2829
 21
-247.718
  0
LINE
  8
0
 10
-48.2829
 20
-247.718
 11
-48.5671
 21
-248.118
  0
LINE
  8
0
 10
-48.5671
 20
-248.118
 11
-48.9486
 21
-248.426
  0
LINE
  8
0
 10
-48.9486
 20
-248.426
 11
-49.3989
 21
-248.619
  0
LINE
  8
0
 10
-49.3989
 20
-248.619
 11
-49.8848
 21
-248.684
  0
LINE
  8
0
 10
-49.8848
 20
-248.684
 11
-50.3702
 21
-248.616
  0
LINE
  8
0
 10
-19.2433
 20
-249.193
 11
-19.7104
 21
-249.055
  0
LINE
  8
0
 10
-19.7104
 20
-249.055
 11
-20.1198
 21
-248.792
  0
LINE
  8
0
 10
-20.1198
 20
-248.792
 11
-20.4385
 21
-248.424
  0
LINE
  8
0
 10
-20.4385
 20
-248.424
 11
-20.6407
 21
-247.982
  0
LINE
  8
0
 10
-20.6407
 20
-247.982
 11
-20.71
 21
-247.5
  0
LINE
  8
0
 10
-20.71
 20
-247.5
 11
-20.6407
 21
-247.018
  0
LINE
  8
0
 10
-20.6407
 20
-247.018
 11
-20.4385
 21
-246.576
  0
LINE
  8
0
 10
-20.4385
 20
-246.576
 11
-20.1198
 21
-246.208
  0
LINE
  8
0
 10
-20.1198
 20
-246.208
 11
-19.7104
 21
-245.945
  0
LINE
  8
0
 10
-19.7104
 20
-245.945
 11
-19.2433
 21
-245.807
  0
LINE
  8
0
 10
-19.2433
 20
-245.807
 11
-18.7566
 21
-245.807
  0
LINE
  8
0
 10
-18.7566
 20
-245.807
 11
-18.2896
 21
-245.945
  0
LINE
  8
0
 10
-18.2896
 20
-245.945
 11
-17.8802
 21
-246.208
  0
LINE
  8
0
 10
-17.8802
 20
-246.208
 11
-17.5614
 21
-246.576
  0
LINE
  8
0
 10
-17.5614
 20
-246.576
 11
-17.3593
 21
-247.018
  0
LINE
  8
0
 10
-17.3593
 20
-247.018
 11
-17.29
 21
-247.5
  0
LINE
  8
0
 10
-17.29
 20
-247.5
 11
-17.3593
 21
-247.982
  0
LINE
  8
0
 10
-17.3593
 20
-247.982
 11
-17.5614
 21
-248.424
  0
LINE
  8
0
 10
-17.5614
 20
-248.424
 11
-17.8802
 21
-248.792
  0
LINE
  8
0
 10
-17.8802
 20
-248.792
 11
-18.2896
 21
-249.055
  0
LINE
  8
0
 10
-18.2896
 20
-249.055
 11
-18.7566
 21
-249.193
  0
LINE
  8
0
 10
-18.7566
 20
-249.193
 11
-19.2433
 21
-249.193
  0
LINE
  8
0
 10
-53.7231
 20
-279.075
 11
-54.2219
 21
-279.053
  0
LINE
  8
0
 10
-54.2219
 20
-279.053
 11
-54.7194
 21
-279.01
  0
LINE
  8
0
 10
-54.7194
 20
-279.01
 11
-55.2146
 21
-278.947
  0
LINE
  8
0
 10
-55.2146
 20
-278.947
 11
-55.7067
 21
-278.862
  0
LINE
  8
0
 10
-55.7067
 20
-278.862
 11
-56.195
 21
-278.758
  0
LINE
  8
0
 10
-56.195
 20
-278.758
 11
-56.6784
 21
-278.633
  0
LINE
  8
0
 10
-56.6784
 20
-278.633
 11
-57.1562
 21
-278.488
  0
LINE
  8
0
 10
-57.1562
 20
-278.488
 11
-57.6277
 21
-278.324
  0
LINE
  8
0
 10
-57.6277
 20
-278.324
 11
-58.0918
 21
-278.14
  0
LINE
  8
0
 10
-58.0918
 20
-278.14
 11
-58.5479
 21
-277.937
  0
LINE
  8
0
 10
-58.5479
 20
-277.937
 11
-58.9952
 21
-277.715
  0
LINE
  8
0
 10
-58.9952
 20
-277.715
 11
-59.4328
 21
-277.474
  0
LINE
  8
0
 10
-59.4328
 20
-277.474
 11
-59.8601
 21
-277.216
  0
LINE
  8
0
 10
-59.8601
 20
-277.216
 11
-60.2762
 21
-276.94
  0
LINE
  8
0
 10
-60.2762
 20
-276.94
 11
-60.6805
 21
-276.647
  0
LINE
  8
0
 10
-60.6805
 20
-276.647
 11
-61.0723
 21
-276.338
  0
LINE
  8
0
 10
-61.0723
 20
-276.338
 11
-61.4508
 21
-276.012
  0
LINE
  8
0
 10
-61.4508
 20
-276.012
 11
-61.8155
 21
-275.671
  0
LINE
  8
0
 10
-61.8155
 20
-275.671
 11
-62.1657
 21
-275.315
  0
LINE
  8
0
 10
-62.1657
 20
-275.315
 11
-62.5008
 21
-274.945
  0
LINE
  8
0
 10
-62.5008
 20
-274.945
 11
-62.8202
 21
-274.561
  0
LINE
  8
0
 10
-62.8202
 20
-274.561
 11
-63.1233
 21
-274.165
  0
LINE
  8
0
 10
-63.1233
 20
-274.165
 11
-63.4097
 21
-273.756
  0
LINE
  8
0
 10
-63.4097
 20
-273.756
 11
-63.6788
 21
-273.335
  0
LINE
  8
0
 10
-63.6788
 20
-273.335
 11
-63.9302
 21
-272.904
  0
LINE
  8
0
 10
-63.9302
 20
-272.904
 11
-64.1634
 21
-272.462
  0
LINE
  8
0
 10
-64.1634
 20
-272.462
 11
-64.3781
 21
-272.011
  0
LINE
  8
0
 10
-64.3781
 20
-272.011
 11
-64.5738
 21
-271.552
  0
LINE
  8
0
 10
-64.5738
 20
-271.552
 11
-64.7503
 21
-271.085
  0
LINE
  8
0
 10
-64.7503
 20
-271.085
 11
-64.9072
 21
-270.611
  0
LINE
  8
0
 10
-64.9072
 20
-270.611
 11
-65.0442
 21
-270.131
  0
LINE
  8
0
 10
-65.0442
 20
-270.131
 11
-65.1611
 21
-269.645
  0
LINE
  8
0
 10
-65.1611
 20
-269.645
 11
-65.2577
 21
-269.156
  0
LINE
  8
0
 10
-65.2577
 20
-269.156
 11
-65.3339
 21
-268.662
  0
LINE
  8
0
 10
-65.3339
 20
-268.662
 11
-65.3895
 21
-268.166
  0
LINE
  8
0
 10
-65.3895
 20
-268.166
 11
-65.4243
 21
-267.668
  0
LINE
  8
0
 10
-65.4243
 20
-267.668
 11
-65.4385
 21
-267.169
  0
LINE
  8
0
 10
-65.4385
 20
-267.169
 11
-65.4318
 21
-266.67
  0
LINE
  8
0
 10
-65.4318
 20
-266.67
 11
-65.4044
 21
-266.171
  0
LINE
  8
0
 10
-65.4044
 20
-266.171
 11
-65.3563
 21
-265.674
  0
LINE
  8
0
 10
-65.3563
 20
-265.674
 11
-65.2876
 21
-265.18
  0
LINE
  8
0
 10
-65.2876
 20
-265.18
 11
-65.1983
 21
-264.688
  0
LINE
  8
0
 10
-65.1983
 20
-264.688
 11
-65.0887
 21
-264.201
  0
LINE
  8
0
 10
-65.0887
 20
-264.201
 11
-64.9589
 21
-263.719
  0
LINE
  8
0
 10
-64.9589
 20
-263.719
 11
-64.8092
 21
-263.243
  0
LINE
  8
0
 10
-64.8092
 20
-263.243
 11
-64.6398
 21
-262.773
  0
LINE
  8
0
 10
-64.6398
 20
-262.773
 11
-64.451
 21
-262.311
  0
LINE
  8
0
 10
-64.451
 20
-262.311
 11
-64.2431
 21
-261.857
  0
LINE
  8
0
 10
-64.2431
 20
-261.857
 11
-64.0166
 21
-261.412
  0
LINE
  8
0
 10
-64.0166
 20
-261.412
 11
-63.7717
 21
-260.977
  0
LINE
  8
0
 10
-63.7717
 20
-260.977
 11
-63.5089
 21
-260.552
  0
LINE
  8
0
 10
-63.5089
 20
-260.552
 11
-63.2287
 21
-260.139
  0
LINE
  8
0
 10
-63.2287
 20
-260.139
 11
-62.9315
 21
-259.738
  0
LINE
  8
0
 10
-62.9315
 20
-259.738
 11
-62.618
 21
-259.349
  0
LINE
  8
0
 10
-62.618
 20
-259.349
 11
-62.2885
 21
-258.974
  0
LINE
  8
0
 10
-62.2885
 20
-258.974
 11
-61.9437
 21
-258.613
  0
LINE
  8
0
 10
-61.9437
 20
-258.613
 11
-61.5842
 21
-258.267
  0
LINE
  8
0
 10
-61.5842
 20
-258.267
 11
-61.2105
 21
-257.935
  0
LINE
  8
0
 10
-61.2105
 20
-257.935
 11
-60.8235
 21
-257.62
  0
LINE
  8
0
 10
-60.8235
 20
-257.62
 11
-60.4236
 21
-257.321
  0
LINE
  8
0
 10
-60.4236
 20
-257.321
 11
-60.0117
 21
-257.039
  0
LINE
  8
0
 10
-60.0117
 20
-257.039
 11
-59.5883
 21
-256.774
  0
LINE
  8
0
 10
-59.5883
 20
-256.774
 11
-59.1544
 21
-256.527
  0
LINE
  8
0
 10
-59.1544
 20
-256.527
 11
-58.7105
 21
-256.299
  0
LINE
  8
0
 10
-58.7105
 20
-256.299
 11
-58.2575
 21
-256.089
  0
LINE
  8
0
 10
-58.2575
 20
-256.089
 11
-57.7961
 21
-255.898
  0
LINE
  8
0
 10
-57.7961
 20
-255.898
 11
-57.3273
 21
-255.726
  0
LINE
  8
0
 10
-57.3273
 20
-255.726
 11
-56.8517
 21
-255.574
  0
LINE
  8
0
 10
-56.8517
 20
-255.574
 11
-56.3701
 21
-255.442
  0
LINE
  8
0
 10
-56.3701
 20
-255.442
 11
-55.8835
 21
-255.33
  0
LINE
  8
0
 10
-55.8835
 20
-255.33
 11
-55.3927
 21
-255.239
  0
LINE
  8
0
 10
-55.3927
 20
-255.239
 11
-54.8985
 21
-255.168
  0
LINE
  8
0
 10
-54.8985
 20
-255.168
 11
-54.4017
 21
-255.117
  0
LINE
  8
0
 10
-54.4017
 20
-255.117
 11
-53.9034
 21
-255.088
  0
LINE
  8
0
 10
-53.9034
 20
-255.088
 11
-53.4041
 21
-255.079
  0
LINE
  8
0
 10
-53.4041
 20
-255.079
 11
-52.905
 21
-255.091
  0
LINE
  8
0
 10
-52.905
 20
-255.091
 11
-52.4068
 21
-255.123
  0
LINE
  8
0
 10
-52.4068
 20
-255.123
 11
-51.9103
 21
-255.176
  0
LINE
  8
0
 10
-51.9103
 20
-255.176
 11
-51.4165
 21
-255.25
  0
LINE
  8
0
 10
-51.4165
 20
-255.25
 11
-50.9262
 21
-255.345
  0
LINE
  8
0
 10
-50.9262
 20
-255.345
 11
-50.4403
 21
-255.459
  0
LINE
  8
0
 10
-50.4403
 20
-255.459
 11
-49.9595
 21
-255.594
  0
LINE
  8
0
 10
-49.9595
 20
-255.594
 11
-49.4848
 21
-255.749
  0
LINE
  8
0
 10
-49.4848
 20
-255.749
 11
-49.0169
 21
-255.923
  0
LINE
  8
0
 10
-49.0169
 20
-255.923
 11
-48.5567
 21
-256.117
  0
LINE
  8
0
 10
-48.5567
 20
-256.117
 11
-48.1049
 21
-256.329
  0
LINE
  8
0
 10
-48.1049
 20
-256.329
 11
-47.6624
 21
-256.56
  0
LINE
  8
0
 10
-47.6624
 20
-256.56
 11
-47.2298
 21
-256.81
  0
LINE
  8
0
 10
-47.2298
 20
-256.81
 11
-46.8081
 21
-257.077
  0
LINE
  8
0
 10
-46.8081
 20
-257.077
 11
-46.3977
 21
-257.362
  0
LINE
  8
0
 10
-46.3977
 20
-257.362
 11
-45.9996
 21
-257.663
  0
LINE
  8
0
 10
-45.9996
 20
-257.663
 11
-45.6144
 21
-257.98
  0
LINE
  8
0
 10
-45.6144
 20
-257.98
 11
-45.2427
 21
-258.314
  0
LINE
  8
0
 10
-45.2427
 20
-258.314
 11
-44.8852
 21
-258.662
  0
LINE
  8
0
 10
-44.8852
 20
-258.662
 11
-44.5424
 21
-259.025
  0
LINE
  8
0
 10
-44.5424
 20
-259.025
 11
-44.2151
 21
-259.402
  0
LINE
  8
0
 10
-44.2151
 20
-259.402
 11
-43.9038
 21
-259.793
  0
LINE
  8
0
 10
-43.9038
 20
-259.793
 11
-43.609
 21
-260.196
  0
LINE
  8
0
 10
-43.609
 20
-260.196
 11
-43.3312
 21
-260.611
  0
LINE
  8
0
 10
-43.3312
 20
-260.611
 11
-43.0709
 21
-261.037
  0
LINE
  8
0
 10
-43.0709
 20
-261.037
 11
-42.8285
 21
-261.473
  0
LINE
  8
0
 10
-42.8285
 20
-261.473
 11
-42.6045
 21
-261.919
  0
LINE
  8
0
 10
-42.6045
 20
-261.919
 11
-42.3993
 21
-262.375
  0
LINE
  8
0
 10
-42.3993
 20
-262.375
 11
-42.2131
 21
-262.838
  0
LINE
  8
0
 10
-42.2131
 20
-262.838
 11
-42.0464
 21
-263.309
  0
LINE
  8
0
 10
-42.0464
 20
-263.309
 11
-41.8995
 21
-263.786
  0
LINE
  8
0
 10
-41.8995
 20
-263.786
 11
-41.7725
 21
-264.269
  0
LINE
  8
0
 10
-41.7725
 20
-264.269
 11
-41.6657
 21
-264.756
  0
LINE
  8
0
 10
-41.6657
 20
-264.756
 11
-41.5793
 21
-265.248
  0
LINE
  8
0
 10
-41.5793
 20
-265.248
 11
-41.5134
 21
-265.743
  0
LINE
  8
0
 10
-41.5134
 20
-265.743
 11
-41.4681
 21
-266.24
  0
LINE
  8
0
 10
-41.4681
 20
-266.24
 11
-41.4436
 21
-266.739
  0
LINE
  8
0
 10
-41.4436
 20
-266.739
 11
-41.4399
 21
-267.238
  0
LINE
  8
0
 10
-41.4399
 20
-267.238
 11
-41.4569
 21
-267.737
  0
LINE
  8
0
 10
-41.4569
 20
-267.737
 11
-41.4947
 21
-268.235
  0
LINE
  8
0
 10
-41.4947
 20
-268.235
 11
-41.5531
 21
-268.731
  0
LINE
  8
0
 10
-41.5531
 20
-268.731
 11
-41.6321
 21
-269.224
  0
LINE
  8
0
 10
-41.6321
 20
-269.224
 11
-41.7316
 21
-269.713
  0
LINE
  8
0
 10
-41.7316
 20
-269.713
 11
-41.8513
 21
-270.198
  0
LINE
  8
0
 10
-41.8513
 20
-270.198
 11
-41.9911
 21
-270.677
  0
LINE
  8
0
 10
-41.9911
 20
-270.677
 11
-42.1507
 21
-271.15
  0
LINE
  8
0
 10
-42.1507
 20
-271.15
 11
-42.3298
 21
-271.616
  0
LINE
  8
0
 10
-42.3298
 20
-271.616
 11
-42.5282
 21
-272.075
  0
LINE
  8
0
 10
-42.5282
 20
-272.075
 11
-42.7455
 21
-272.524
  0
LINE
  8
0
 10
-42.7455
 20
-272.524
 11
-42.9812
 21
-272.964
  0
LINE
  8
0
 10
-42.9812
 20
-272.964
 11
-43.2351
 21
-273.394
  0
LINE
  8
0
 10
-43.2351
 20
-273.394
 11
-43.5067
 21
-273.813
  0
LINE
  8
0
 10
-43.5067
 20
-273.813
 11
-43.7954
 21
-274.22
  0
LINE
  8
0
 10
-43.7954
 20
-274.22
 11
-44.1009
 21
-274.615
  0
LINE
  8
0
 10
-44.1009
 20
-274.615
 11
-44.4225
 21
-274.997
  0
LINE
  8
0
 10
-44.4225
 20
-274.997
 11
-44.7597
 21
-275.366
  0
LINE
  8
0
 10
-44.7597
 20
-275.366
 11
-45.1119
 21
-275.719
  0
LINE
  8
0
 10
-45.1119
 20
-275.719
 11
-45.4785
 21
-276.058
  0
LINE
  8
0
 10
-45.4785
 20
-276.058
 11
-45.859
 21
-276.382
  0
LINE
  8
0
 10
-45.859
 20
-276.382
 11
-46.2525
 21
-276.689
  0
LINE
  8
0
 10
-46.2525
 20
-276.689
 11
-46.6585
 21
-276.98
  0
LINE
  8
0
 10
-46.6585
 20
-276.98
 11
-47.0762
 21
-277.253
  0
LINE
  8
0
 10
-47.0762
 20
-277.253
 11
-47.505
 21
-277.509
  0
LINE
  8
0
 10
-47.505
 20
-277.509
 11
-47.944
 21
-277.747
  0
LINE
  8
0
 10
-47.944
 20
-277.747
 11
-48.3925
 21
-277.966
  0
LINE
  8
0
 10
-48.3925
 20
-277.966
 11
-48.8498
 21
-278.167
  0
LINE
  8
0
 10
-48.8498
 20
-278.167
 11
-49.315
 21
-278.348
  0
LINE
  8
0
 10
-49.315
 20
-278.348
 11
-49.7874
 21
-278.51
  0
LINE
  8
0
 10
-49.7874
 20
-278.51
 11
-50.2661
 21
-278.652
  0
LINE
  8
0
 10
-50.2661
 20
-278.652
 11
-50.7502
 21
-278.774
  0
LINE
  8
0
 10
-50.7502
 20
-278.774
 11
-51.239
 21
-278.875
  0
LINE
  8
0
 10
-51.239
 20
-278.875
 11
-51.7317
 21
-278.957
  0
LINE
  8
0
 10
-51.7317
 20
-278.957
 11
-52.2272
 21
-279.017
  0
LINE
  8
0
 10
-52.2272
 20
-279.017
 11
-52.7249
 21
-279.057
  0
LINE
  8
0
 10
-52.7249
 20
-279.057
 11
-53.2238
 21
-279.077
  0
LINE
  8
0
 10
-53.2238
 20
-279.077
 11
-53.7231
 21
-279.075
  0
LINE
  8
0
 10
-19.2433
 20
-261.693
 11
-19.7104
 21
-261.555
  0
LINE
  8
0
 10
-19.7104
 20
-261.555
 11
-20.1198
 21
-261.292
  0
LINE
  8
0
 10
-20.1198
 20
-261.292
 11
-20.4385
 21
-260.924
  0
LINE
  8
0
 10
-20.4385
 20
-260.924
 11
-20.6407
 21
-260.482
  0
LINE
  8
0
 10
-20.6407
 20
-260.482
 11
-20.71
 21
-260
  0
LINE
  8
0
 10
-20.71
 20
-260
 11
-20.6407
 21
-259.518
  0
LINE
  8
0
 10
-20.6407
 20
-259.518
 11
-20.4385
 21
-259.076
  0
LINE
  8
0
 10
-20.4385
 20
-259.076
 11
-20.1198
 21
-258.708
  0
LINE
  8
0
 10
-20.1198
 20
-258.708
 11
-19.7104
 21
-258.445
  0
LINE
  8
0
 10
-19.7104
 20
-258.445
 11
-19.2433
 21
-258.307
  0
LINE
  8
0
 10
-19.2433
 20
-258.307
 11
-18.7566
 21
-258.307
  0
LINE
  8
0
 10
-18.7566
 20
-258.307
 11
-18.2896
 21
-258.445
  0
LINE
  8
0
 10
-18.2896
 20
-258.445
 11
-17.8802
 21
-258.708
  0
LINE
  8
0
 10
-17.8802
 20
-258.708
 11
-17.5614
 21
-259.076
  0
LINE
  8
0
 10
-17.5614
 20
-259.076
 11
-17.3593
 21
-259.518
  0
LINE
  8
0
 10
-17.3593
 20
-259.518
 11
-17.29
 21
-260
  0
LINE
  8
0
 10
-17.29
 20
-260
 11
-17.3593
 21
-260.482
  0
LINE
  8
0
 10
-17.3593
 20
-260.482
 11
-17.5614
 21
-260.924
  0
LINE
  8
0
 10
-17.5614
 20
-260.924
 11
-17.8802
 21
-261.292
  0
LINE
  8
0
 10
-17.8802
 20
-261.292
 11
-18.2896
 21
-261.555
  0
LINE
  8
0
 10
-18.2896
 20
-261.555
 11
-18.7566
 21
-261.693
  0
LINE
  8
0
 10
-18.7566
 20
-261.693
 11
-19.2433
 21
-261.693
  0
LINE
  8
0
 10
-76.5485
 20
-264.822
 11
-77.028
 21
-264.72
  0
LINE
  8
0
 10
-77.028
 20
-264.72
 11
-77.4624
 21
-264.493
  0
LINE
  8
0
 10
-77.4624
 20
-264.493
 11
-77.8194
 21
-264.157
  0
LINE
  8
0
 10
-77.8194
 20
-264.157
 11
-78.0725
 21
-263.738
  0
LINE
  8
0
 10
-78.0725
 20
-263.738
 11
-78.203
 21
-263.265
  0
LINE
  8
0
 10
-78.203
 20
-263.265
 11
-78.2011
 21
-262.775
  0
LINE
  8
0
 10
-78.2011
 20
-262.775
 11
-78.0671
 21
-262.303
  0
LINE
  8
0
 10
-78.0671
 20
-262.303
 11
-77.8108
 21
-261.885
  0
LINE
  8
0
 10
-77.8108
 20
-261.885
 11
-77.4513
 21
-261.552
  0
LINE
  8
0
 10
-77.4513
 20
-261.552
 11
-77.0152
 21
-261.328
  0
LINE
  8
0
 10
-77.0152
 20
-261.328
 11
-76.5349
 21
-261.23
  0
LINE
  8
0
 10
-76.5349
 20
-261.23
 11
-76.0459
 21
-261.266
  0
LINE
  8
0
 10
-76.0459
 20
-261.266
 11
-73.2605
 21
-261.757
  0
LINE
  8
0
 10
-73.2605
 20
-261.757
 11
-72.7992
 21
-261.923
  0
LINE
  8
0
 10
-72.7992
 20
-261.923
 11
-72.3998
 21
-262.207
  0
LINE
  8
0
 10
-72.3998
 20
-262.207
 11
-72.0919
 21
-262.588
  0
LINE
  8
0
 10
-72.0919
 20
-262.588
 11
-71.8983
 21
-263.039
  0
LINE
  8
0
 10
-71.8983
 20
-263.039
 11
-71.8334
 21
-263.525
  0
LINE
  8
0
 10
-71.8334
 20
-263.525
 11
-71.902
 21
-264.01
  0
LINE
  8
0
 10
-71.902
 20
-264.01
 11
-72.099
 21
-264.459
  0
LINE
  8
0
 10
-72.099
 20
-264.459
 11
-72.4098
 21
-264.838
  0
LINE
  8
0
 10
-72.4098
 20
-264.838
 11
-72.8113
 21
-265.119
  0
LINE
  8
0
 10
-72.8113
 20
-265.119
 11
-73.2738
 21
-265.282
  0
LINE
  8
0
 10
-73.2738
 20
-265.282
 11
-73.763
 21
-265.313
  0
LINE
  8
0
 10
-73.763
 20
-265.313
 11
-76.5485
 21
-264.822
  0
LINE
  8
0
 10
-30.8317
 20
-272.892
 11
-33.6172
 21
-272.4
  0
LINE
  8
0
 10
-33.6172
 20
-272.4
 11
-34.0784
 21
-272.235
  0
LINE
  8
0
 10
-34.0784
 20
-272.235
 11
-34.4778
 21
-271.95
  0
LINE
  8
0
 10
-34.4778
 20
-271.95
 11
-34.7857
 21
-271.569
  0
LINE
  8
0
 10
-34.7857
 20
-271.569
 11
-34.9793
 21
-271.119
  0
LINE
  8
0
 10
-34.9793
 20
-271.119
 11
-35.0442
 21
-270.633
  0
LINE
  8
0
 10
-35.0442
 20
-270.633
 11
-34.9756
 21
-270.147
  0
LINE
  8
0
 10
-34.9756
 20
-270.147
 11
-34.7786
 21
-269.698
  0
LINE
  8
0
 10
-34.7786
 20
-269.698
 11
-34.4678
 21
-269.319
  0
LINE
  8
0
 10
-34.4678
 20
-269.319
 11
-34.0663
 21
-269.038
  0
LINE
  8
0
 10
-34.0663
 20
-269.038
 11
-33.6038
 21
-268.876
  0
LINE
  8
0
 10
-33.6038
 20
-268.876
 11
-33.1146
 21
-268.844
  0
LINE
  8
0
 10
-33.1146
 20
-268.844
 11
-30.3291
 21
-269.335
  0
LINE
  8
0
 10
-30.3291
 20
-269.335
 11
-29.8496
 21
-269.437
  0
LINE
  8
0
 10
-29.8496
 20
-269.437
 11
-29.4152
 21
-269.664
  0
LINE
  8
0
 10
-29.4152
 20
-269.664
 11
-29.0582
 21
-270
  0
LINE
  8
0
 10
-29.0582
 20
-270
 11
-28.8051
 21
-270.42
  0
LINE
  8
0
 10
-28.8051
 20
-270.42
 11
-28.6746
 21
-270.892
  0
LINE
  8
0
 10
-28.6746
 20
-270.892
 11
-28.6765
 21
-271.383
  0
LINE
  8
0
 10
-28.6765
 20
-271.383
 11
-28.8105
 21
-271.854
  0
LINE
  8
0
 10
-28.8105
 20
-271.854
 11
-29.0668
 21
-272.272
  0
LINE
  8
0
 10
-29.0668
 20
-272.272
 11
-29.4264
 21
-272.605
  0
LINE
  8
0
 10
-29.4264
 20
-272.605
 11
-29.8624
 21
-272.829
  0
LINE
  8
0
 10
-29.8624
 20
-272.829
 11
-30.3428
 21
-272.927
  0
LINE
  8
0
 10
-30.3428
 20
-272.927
 11
-30.8317
 21
-272.892
  0
LINE
  8
0
 10
-19.2433
 20
-274.193
 11
-19.7104
 21
-274.055
  0
LINE
  8
0
 10
-19.7104
 20
-274.055
 11
-20.1198
 21
-273.792
  0
LINE
  8
0
 10
-20.1198
 20
-273.792
 11
-20.4385
 21
-273.424
  0
LINE
  8
0
 10
-20.4385
 20
-273.424
 11
-20.6407
 21
-272.982
  0
LINE
  8
0
 10
-20.6407
 20
-272.982
 11
-20.71
 21
-272.5
  0
LINE
  8
0
 10
-20.71
 20
-272.5
 11
-20.6407
 21
-272.018
  0
LINE
  8
0
 10
-20.6407
 20
-272.018
 11
-20.4385
 21
-271.576
  0
LINE
  8
0
 10
-20.4385
 20
-271.576
 11
-20.1198
 21
-271.208
  0
LINE
  8
0
 10
-20.1198
 20
-271.208
 11
-19.7104
 21
-270.945
  0
LINE
  8
0
 10
-19.7104
 20
-270.945
 11
-19.2433
 21
-270.807
  0
LINE
  8
0
 10
-19.2433
 20
-270.807
 11
-18.7566
 21
-270.807
  0
LINE
  8
0
 10
-18.7566
 20
-270.807
 11
-18.2896
 21
-270.945
  0
LINE
  8
0
 10
-18.2896
 20
-270.945
 11
-17.8802
 21
-271.208
  0
LINE
  8
0
 10
-17.8802
 20
-271.208
 11
-17.5614
 21
-271.576
  0
LINE
  8
0
 10
-17.5614
 20
-271.576
 11
-17.3593
 21
-272.018
  0
LINE
  8
0
 10
-17.3593
 20
-272.018
 11
-17.29
 21
-272.5
  0
LINE
  8
0
 10
-17.29
 20
-272.5
 11
-17.3593
 21
-272.982
  0
LINE
  8
0
 10
-17.3593
 20
-272.982
 11
-17.5614
 21
-273.424
  0
LINE
  8
0
 10
-17.5614
 20
-273.424
 11
-17.8802
 21
-273.792
  0
LINE
  8
0
 10
-17.8802
 20
-273.792
 11
-18.2896
 21
-274.055
  0
LINE
  8
0
 10
-18.2896
 20
-274.055
 11
-18.7566
 21
-274.193
  0
LINE
  8
0
 10
-18.7566
 20
-274.193
 11
-19.2433
 21
-274.193
  0
LINE
  8
0
 10
-57.7427
 20
-291.841
 11
-58.2142
 21
-291.707
  0
LINE
  8
0
 10
-58.2142
 20
-291.707
 11
-58.6321
 21
-291.451
  0
LINE
  8
0
 10
-58.6321
 20
-291.451
 11
-58.9653
 21
-291.091
  0
LINE
  8
0
 10
-58.9653
 20
-291.091
 11
-59.1891
 21
-290.655
  0
LINE
  8
0
 10
-59.1891
 20
-290.655
 11
-59.2871
 21
-290.175
  0
LINE
  8
0
 10
-59.2871
 20
-290.175
 11
-59.2518
 21
-289.686
  0
LINE
  8
0
 10
-59.2518
 20
-289.686
 11
-58.7606
 21
-286.9
  0
LINE
  8
0
 10
-58.7606
 20
-286.9
 11
-58.5947
 21
-286.439
  0
LINE
  8
0
 10
-58.5947
 20
-286.439
 11
-58.3105
 21
-286.04
  0
LINE
  8
0
 10
-58.3105
 20
-286.04
 11
-57.9291
 21
-285.732
  0
LINE
  8
0
 10
-57.9291
 20
-285.732
 11
-57.4787
 21
-285.538
  0
LINE
  8
0
 10
-57.4787
 20
-285.538
 11
-56.9928
 21
-285.473
  0
LINE
  8
0
 10
-56.9928
 20
-285.473
 11
-56.5074
 21
-285.542
  0
LINE
  8
0
 10
-56.5074
 20
-285.542
 11
-56.0586
 21
-285.739
  0
LINE
  8
0
 10
-56.0586
 20
-285.739
 11
-55.6795
 21
-286.05
  0
LINE
  8
0
 10
-55.6795
 20
-286.05
 11
-55.3983
 21
-286.451
  0
LINE
  8
0
 10
-55.3983
 20
-286.451
 11
-55.2359
 21
-286.914
  0
LINE
  8
0
 10
-55.2359
 20
-286.914
 11
-55.2043
 21
-287.403
  0
LINE
  8
0
 10
-55.2043
 20
-287.403
 11
-55.6955
 21
-290.188
  0
LINE
  8
0
 10
-55.6955
 20
-290.188
 11
-55.797
 21
-290.668
  0
LINE
  8
0
 10
-55.797
 20
-290.668
 11
-56.0242
 21
-291.102
  0
LINE
  8
0
 10
-56.0242
 20
-291.102
 11
-56.3602
 21
-291.459
  0
LINE
  8
0
 10
-56.3602
 20
-291.459
 11
-56.78
 21
-291.712
  0
LINE
  8
0
 10
-56.78
 20
-291.712
 11
-57.2525
 21
-291.843
  0
LINE
  8
0
 10
-57.2525
 20
-291.843
 11
-57.7427
 21
-291.841
  0
ENDSEC
  0
SECTION
  2
OBJECTS
  0
DICTIONARY
  0
ENDSEC
  0
EOF
