  0
SECTION
  2
BLOCKS
  0
ENDSEC
  0
SECTION
  2
ENTITIES
  0
LINE
  8
0
 10
-4.67641
 20
-243.583
 11
-4.18146
 21
-243.531
  0
LINE
  8
0
 10
-4.18146
 20
-243.531
 11
-3.69608
 21
-243.422
  0
LINE
  8
0
 10
-3.69608
 20
-243.422
 11
-3.22708
 21
-243.255
  0
LINE
  8
0
 10
-3.22708
 20
-243.255
 11
-2.78105
 21
-243.035
  0
LINE
  8
0
 10
-2.78105
 20
-243.035
 11
-2.36424
 21
-242.763
  0
LINE
  8
0
 10
-2.36424
 20
-242.763
 11
-1.98253
 21
-242.443
  0
LINE
  8
0
 10
-1.98253
 20
-242.443
 11
-1.64124
 21
-242.081
  0
LINE
  8
0
 10
-1.64124
 20
-242.081
 11
-1.34517
 21
-241.681
  0
LINE
  8
0
 10
-1.34517
 20
-241.681
 11
-1.0985
 21
-241.249
  0
LINE
  8
0
 10
-1.0985
 20
-241.249
 11
-0.904663
 21
-240.791
  0
LINE
  8
0
 10
-0.904663
 20
-240.791
 11
-0.766388
 21
-240.313
  0
LINE
  8
0
 10
-0.766388
 20
-240.313
 11
-0.685638
 21
-239.822
  0
LINE
  8
0
 10
-0.685638
 20
-239.822
 11
-0.663528
 21
-239.325
  0
LINE
  8
0
 10
-0.663528
 20
-239.325
 11
-0.663528
 21
-173.325
  0
LINE
  8
0
 10
-0.663528
 20
-173.325
 11
-0.667206
 21
-150.926
  0
LINE
  8
0
 10
-0.667206
 20
-150.926
 11
-0.718735
 21
-150.431
  0
LINE
  8
0
 10
-0.718735
 20
-150.431
 11
-0.828445
 21
-149.946
  0
LINE
  8
0
 10
-0.828445
 20
-149.946
 11
-0.994781
 21
-149.477
  0
LINE
  8
0
 10
-0.994781
 20
-149.477
 11
-1.21542
 21
-149.031
  0
LINE
  8
0
 10
-1.21542
 20
-149.031
 11
-1.48727
 21
-148.614
  0
LINE
  8
0
 10
-1.48727
 20
-148.614
 11
-1.8065
 21
-148.233
  0
LINE
  8
0
 10
-1.8065
 20
-148.233
 11
-2.16866
 21
-147.891
  0
LINE
  8
0
 10
-2.16866
 20
-147.891
 11
-2.56862
 21
-147.595
  0
LINE
  8
0
 10
-2.56862
 20
-147.595
 11
-3.00079
 21
-147.348
  0
LINE
  8
0
 10
-3.00079
 20
-147.348
 11
-3.45912
 21
-147.155
  0
LINE
  8
0
 10
-3.45912
 20
-147.155
 11
-3.93715
 21
-147.016
  0
LINE
  8
0
 10
-3.93715
 20
-147.016
 11
-49.1411
 21
-137.751
  0
LINE
  8
0
 10
-49.1411
 20
-137.751
 11
-102.93
 21
-86.7905
  0
LINE
  8
0
 10
-102.93
 20
-86.7905
 11
-119.313
 21
-98.2621
  0
LINE
  8
0
 10
-119.313
 20
-98.2621
 11
-92.9085
 21
-159.126
  0
LINE
  8
0
 10
-92.9085
 20
-159.126
 11
-121.828
 21
-179.375
  0
LINE
  8
0
 10
-121.828
 20
-179.375
 11
-121.938
 21
-179.657
  0
LINE
  8
0
 10
-121.938
 20
-179.657
 11
-122.112
 21
-180.125
  0
LINE
  8
0
 10
-122.112
 20
-180.125
 11
-122.278
 21
-180.597
  0
LINE
  8
0
 10
-122.278
 20
-180.597
 11
-122.437
 21
-181.071
  0
LINE
  8
0
 10
-122.437
 20
-181.071
 11
-122.587
 21
-181.548
  0
LINE
  8
0
 10
-122.587
 20
-181.548
 11
-122.73
 21
-182.027
  0
LINE
  8
0
 10
-122.73
 20
-182.027
 11
-122.864
 21
-182.509
  0
LINE
  8
0
 10
-122.864
 20
-182.509
 11
-122.991
 21
-182.992
  0
LINE
  8
0
 10
-122.991
 20
-182.992
 11
-123.109
 21
-183.478
  0
LINE
  8
0
 10
-123.109
 20
-183.478
 11
-123.219
 21
-183.966
  0
LINE
  8
0
 10
-123.219
 20
-183.966
 11
-123.321
 21
-184.455
  0
LINE
  8
0
 10
-123.321
 20
-184.455
 11
-123.415
 21
-184.946
  0
LINE
  8
0
 10
-123.415
 20
-184.946
 11
-123.501
 21
-185.439
  0
LINE
  8
0
 10
-123.501
 20
-185.439
 11
-123.579
 21
-185.933
  0
LINE
  8
0
 10
-123.579
 20
-185.933
 11
-123.648
 21
-186.428
  0
LINE
  8
0
 10
-123.648
 20
-186.428
 11
-123.709
 21
-186.924
  0
LINE
  8
0
 10
-123.709
 20
-186.924
 11
-123.762
 21
-187.421
  0
LINE
  8
0
 10
-123.762
 20
-187.421
 11
-123.807
 21
-187.919
  0
LINE
  8
0
 10
-123.807
 20
-187.919
 11
-123.843
 21
-188.418
  0
LINE
  8
0
 10
-123.843
 20
-188.418
 11
-123.871
 21
-188.917
  0
LINE
  8
0
 10
-123.871
 20
-188.917
 11
-123.89
 21
-189.417
  0
LINE
  8
0
 10
-123.89
 20
-189.417
 11
-123.901
 21
-189.917
  0
LINE
  8
0
 10
-123.901
 20
-189.917
 11
-123.904
 21
-190.417
  0
LINE
  8
0
 10
-123.904
 20
-190.417
 11
-123.899
 21
-190.917
  0
LINE
  8
0
 10
-123.899
 20
-190.917
 11
-123.894
 21
-191.097
  0
LINE
  8
0
 10
-123.894
 20
-191.097
 11
-104.872
 21
-218.262
  0
LINE
  8
0
 10
-104.872
 20
-218.262
 11
-104.705
 21
-218.329
  0
LINE
  8
0
 10
-104.705
 20
-218.329
 11
-104.237
 21
-218.505
  0
LINE
  8
0
 10
-104.237
 20
-218.505
 11
-103.766
 21
-218.673
  0
LINE
  8
0
 10
-103.766
 20
-218.673
 11
-103.292
 21
-218.833
  0
LINE
  8
0
 10
-103.292
 20
-218.833
 11
-28.5409
 21
-243.345
  0
LINE
  8
0
 10
-28.5409
 20
-243.345
 11
-28.0628
 21
-243.484
  0
LINE
  8
0
 10
-28.0628
 20
-243.484
 11
-27.5718
 21
-243.564
  0
LINE
  8
0
 10
-27.5718
 20
-243.564
 11
-27.0747
 21
-243.586
  0
LINE
  8
0
 10
-27.0747
 20
-243.586
 11
-4.67641
 21
-243.583
  0
LINE
  8
0
 10
-108.038
 20
-99.424
 11
-108.455
 21
-99.1787
  0
LINE
  8
0
 10
-108.455
 20
-99.1787
 11
-108.786
 21
-98.8259
  0
LINE
  8
0
 10
-108.786
 20
-98.8259
 11
-109.004
 21
-98.3941
  0
LINE
  8
0
 10
-109.004
 20
-98.3941
 11
-109.092
 21
-97.9182
  0
LINE
  8
0
 10
-109.092
 20
-97.9182
 11
-109.042
 21
-97.4369
  0
LINE
  8
0
 10
-109.042
 20
-97.4369
 11
-108.859
 21
-96.9892
  0
LINE
  8
0
 10
-108.859
 20
-96.9892
 11
-108.557
 21
-96.6112
  0
LINE
  8
0
 10
-108.557
 20
-96.6112
 11
-108.161
 21
-96.3336
  0
LINE
  8
0
 10
-108.161
 20
-96.3336
 11
-107.702
 21
-96.179
  0
LINE
  8
0
 10
-107.702
 20
-96.179
 11
-107.219
 21
-96.1598
  0
LINE
  8
0
 10
-107.219
 20
-96.1598
 11
-106.749
 21
-96.2776
  0
LINE
  8
0
 10
-106.749
 20
-96.2776
 11
-106.332
 21
-96.5229
  0
LINE
  8
0
 10
-106.332
 20
-96.5229
 11
-106.001
 21
-96.8757
  0
LINE
  8
0
 10
-106.001
 20
-96.8757
 11
-105.783
 21
-97.3075
  0
LINE
  8
0
 10
-105.783
 20
-97.3075
 11
-105.695
 21
-97.7834
  0
LINE
  8
0
 10
-105.695
 20
-97.7834
 11
-105.745
 21
-98.2647
  0
LINE
  8
0
 10
-105.745
 20
-98.2647
 11
-105.928
 21
-98.7124
  0
LINE
  8
0
 10
-105.928
 20
-98.7124
 11
-106.23
 21
-99.0904
  0
LINE
  8
0
 10
-106.23
 20
-99.0904
 11
-106.627
 21
-99.368
  0
LINE
  8
0
 10
-106.627
 20
-99.368
 11
-107.085
 21
-99.5226
  0
LINE
  8
0
 10
-107.085
 20
-99.5226
 11
-107.569
 21
-99.5418
  0
LINE
  8
0
 10
-107.569
 20
-99.5418
 11
-108.038
 21
-99.424
  0
LINE
  8
0
 10
-93.6985
 20
-119.903
 11
-94.1157
 21
-119.658
  0
LINE
  8
0
 10
-94.1157
 20
-119.658
 11
-94.4468
 21
-119.305
  0
LINE
  8
0
 10
-94.4468
 20
-119.305
 11
-94.6651
 21
-118.873
  0
LINE
  8
0
 10
-94.6651
 20
-118.873
 11
-94.7529
 21
-118.397
  0
LINE
  8
0
 10
-94.7529
 20
-118.397
 11
-94.7031
 21
-117.916
  0
LINE
  8
0
 10
-94.7031
 20
-117.916
 11
-94.5197
 21
-117.468
  0
LINE
  8
0
 10
-94.5197
 20
-117.468
 11
-94.2176
 21
-117.09
  0
LINE
  8
0
 10
-94.2176
 20
-117.09
 11
-93.8212
 21
-116.812
  0
LINE
  8
0
 10
-93.8212
 20
-116.812
 11
-93.3627
 21
-116.658
  0
LINE
  8
0
 10
-93.3627
 20
-116.658
 11
-92.8792
 21
-116.639
  0
LINE
  8
0
 10
-92.8792
 20
-116.639
 11
-92.4099
 21
-116.756
  0
LINE
  8
0
 10
-92.4099
 20
-116.756
 11
-91.9928
 21
-117.002
  0
LINE
  8
0
 10
-91.9928
 20
-117.002
 11
-91.6617
 21
-117.355
  0
LINE
  8
0
 10
-91.6617
 20
-117.355
 11
-91.4434
 21
-117.786
  0
LINE
  8
0
 10
-91.4434
 20
-117.786
 11
-91.3556
 21
-118.262
  0
LINE
  8
0
 10
-91.3556
 20
-118.262
 11
-91.4054
 21
-118.743
  0
LINE
  8
0
 10
-91.4054
 20
-118.743
 11
-91.5888
 21
-119.191
  0
LINE
  8
0
 10
-91.5888
 20
-119.191
 11
-91.8909
 21
-119.569
  0
LINE
  8
0
 10
-91.8909
 20
-119.569
 11
-92.2872
 21
-119.847
  0
LINE
  8
0
 10
-92.2872
 20
-119.847
 11
-92.7457
 21
-120.001
  0
LINE
  8
0
 10
-92.7457
 20
-120.001
 11
-93.2292
 21
-120.021
  0
LINE
  8
0
 10
-93.2292
 20
-120.021
 11
-93.6985
 21
-119.903
  0
LINE
  8
0
 10
-79.3591
 20
-140.382
 11
-79.7762
 21
-140.136
  0
LINE
  8
0
 10
-79.7762
 20
-140.136
 11
-80.1074
 21
-139.783
  0
LINE
  8
0
 10
-80.1074
 20
-139.783
 11
-80.3257
 21
-139.352
  0
LINE
  8
0
 10
-80.3257
 20
-139.352
 11
-80.4135
 21
-138.876
  0
LINE
  8
0
 10
-80.4135
 20
-138.876
 11
-80.3636
 21
-138.395
  0
LINE
  8
0
 10
-80.3636
 20
-138.395
 11
-80.1803
 21
-137.947
  0
LINE
  8
0
 10
-80.1803
 20
-137.947
 11
-79.8781
 21
-137.569
  0
LINE
  8
0
 10
-79.8781
 20
-137.569
 11
-79.4818
 21
-137.291
  0
LINE
  8
0
 10
-79.4818
 20
-137.291
 11
-79.0233
 21
-137.137
  0
LINE
  8
0
 10
-79.0233
 20
-137.137
 11
-78.5398
 21
-137.117
  0
LINE
  8
0
 10
-78.5398
 20
-137.117
 11
-78.0705
 21
-137.235
  0
LINE
  8
0
 10
-78.0705
 20
-137.235
 11
-77.6534
 21
-137.48
  0
LINE
  8
0
 10
-77.6534
 20
-137.48
 11
-77.3223
 21
-137.833
  0
LINE
  8
0
 10
-77.3223
 20
-137.833
 11
-77.1039
 21
-138.265
  0
LINE
  8
0
 10
-77.1039
 20
-138.265
 11
-77.0161
 21
-138.741
  0
LINE
  8
0
 10
-77.0161
 20
-138.741
 11
-77.066
 21
-139.222
  0
LINE
  8
0
 10
-77.066
 20
-139.222
 11
-77.2494
 21
-139.67
  0
LINE
  8
0
 10
-77.2494
 20
-139.67
 11
-77.5515
 21
-140.048
  0
LINE
  8
0
 10
-77.5515
 20
-140.048
 11
-77.9478
 21
-140.326
  0
LINE
  8
0
 10
-77.9478
 20
-140.326
 11
-78.4063
 21
-140.48
  0
LINE
  8
0
 10
-78.4063
 20
-140.48
 11
-78.8898
 21
-140.499
  0
LINE
  8
0
 10
-78.8898
 20
-140.499
 11
-79.3591
 21
-140.382
  0
LINE
  8
0
 10
-56.2472
 20
-146.742
 11
-56.696
 21
-146.545
  0
LINE
  8
0
 10
-56.696
 20
-146.545
 11
-57.0751
 21
-146.234
  0
LINE
  8
0
 10
-57.0751
 20
-146.234
 11
-57.3563
 21
-145.833
  0
LINE
  8
0
 10
-57.3563
 20
-145.833
 11
-57.5187
 21
-145.37
  0
LINE
  8
0
 10
-57.5187
 20
-145.37
 11
-57.5503
 21
-144.881
  0
LINE
  8
0
 10
-57.5503
 20
-144.881
 11
-57.4275
 21
-144.185
  0
LINE
  8
0
 10
-57.4275
 20
-144.185
 11
-57.3259
 21
-143.705
  0
LINE
  8
0
 10
-57.3259
 20
-143.705
 11
-57.0988
 21
-143.271
  0
LINE
  8
0
 10
-57.0988
 20
-143.271
 11
-56.7628
 21
-142.914
  0
LINE
  8
0
 10
-56.7628
 20
-142.914
 11
-56.343
 21
-142.661
  0
LINE
  8
0
 10
-56.343
 20
-142.661
 11
-55.8705
 21
-142.53
  0
LINE
  8
0
 10
-55.8705
 20
-142.53
 11
-55.3803
 21
-142.532
  0
LINE
  8
0
 10
-55.3803
 20
-142.532
 11
-54.9088
 21
-142.666
  0
LINE
  8
0
 10
-54.9088
 20
-142.666
 11
-54.4909
 21
-142.923
  0
LINE
  8
0
 10
-54.4909
 20
-142.923
 11
-54.1577
 21
-143.282
  0
LINE
  8
0
 10
-54.1577
 20
-143.282
 11
-53.9338
 21
-143.718
  0
LINE
  8
0
 10
-53.9338
 20
-143.718
 11
-53.8359
 21
-144.199
  0
LINE
  8
0
 10
-53.8359
 20
-144.199
 11
-53.8712
 21
-144.687
  0
LINE
  8
0
 10
-53.8712
 20
-144.687
 11
-53.994
 21
-145.384
  0
LINE
  8
0
 10
-53.994
 20
-145.384
 11
-54.1599
 21
-145.845
  0
LINE
  8
0
 10
-54.1599
 20
-145.845
 11
-54.4441
 21
-146.244
  0
LINE
  8
0
 10
-54.4441
 20
-146.244
 11
-54.8256
 21
-146.552
  0
LINE
  8
0
 10
-54.8256
 20
-146.552
 11
-55.2759
 21
-146.746
  0
LINE
  8
0
 10
-55.2759
 20
-146.746
 11
-55.7618
 21
-146.811
  0
LINE
  8
0
 10
-55.7618
 20
-146.811
 11
-56.2472
 21
-146.742
  0
LINE
  8
0
 10
-5.10939
 20
-153.299
 11
-5.58968
 21
-153.19
  0
LINE
  8
0
 10
-5.58968
 20
-153.19
 11
-6.03354
 21
-152.976
  0
LINE
  8
0
 10
-6.03354
 20
-152.976
 11
-6.4187
 21
-152.669
  0
LINE
  8
0
 10
-6.4187
 20
-152.669
 11
-6.72586
 21
-152.284
  0
LINE
  8
0
 10
-6.72586
 20
-152.284
 11
-6.93961
 21
-151.84
  0
LINE
  8
0
 10
-6.93961
 20
-151.84
 11
-7.04922
 21
-151.359
  0
LINE
  8
0
 10
-7.04922
 20
-151.359
 11
-7.04922
 21
-150.867
  0
LINE
  8
0
 10
-7.04922
 20
-150.867
 11
-6.93961
 21
-150.386
  0
LINE
  8
0
 10
-6.93961
 20
-150.386
 11
-6.72586
 21
-149.943
  0
LINE
  8
0
 10
-6.72586
 20
-149.943
 11
-6.4187
 21
-149.557
  0
LINE
  8
0
 10
-6.4187
 20
-149.557
 11
-6.03354
 21
-149.25
  0
LINE
  8
0
 10
-6.03354
 20
-149.25
 11
-5.58968
 21
-149.037
  0
LINE
  8
0
 10
-5.58968
 20
-149.037
 11
-5.10939
 21
-148.927
  0
LINE
  8
0
 10
-5.10939
 20
-148.927
 11
-4.61674
 21
-148.927
  0
LINE
  8
0
 10
-4.61674
 20
-148.927
 11
-4.13644
 21
-149.037
  0
LINE
  8
0
 10
-4.13644
 20
-149.037
 11
-3.6926
 21
-149.25
  0
LINE
  8
0
 10
-3.6926
 20
-149.25
 11
-3.30743
 21
-149.557
  0
LINE
  8
0
 10
-3.30743
 20
-149.557
 11
-3.00027
 21
-149.943
  0
LINE
  8
0
 10
-3.00027
 20
-149.943
 11
-2.78651
 21
-150.386
  0
LINE
  8
0
 10
-2.78651
 20
-150.386
 11
-2.6769
 21
-150.867
  0
LINE
  8
0
 10
-2.6769
 20
-150.867
 11
-2.6769
 21
-151.359
  0
LINE
  8
0
 10
-2.6769
 20
-151.359
 11
-2.78651
 21
-151.84
  0
LINE
  8
0
 10
-2.78651
 20
-151.84
 11
-3.00027
 21
-152.284
  0
LINE
  8
0
 10
-3.00027
 20
-152.284
 11
-3.30743
 21
-152.669
  0
LINE
  8
0
 10
-3.30743
 20
-152.669
 11
-3.6926
 21
-152.976
  0
LINE
  8
0
 10
-3.6926
 20
-152.976
 11
-4.13644
 21
-153.19
  0
LINE
  8
0
 10
-4.13644
 20
-153.19
 11
-4.61674
 21
-153.299
  0
LINE
  8
0
 10
-4.61674
 20
-153.299
 11
-5.10939
 21
-153.299
  0
LINE
  8
0
 10
-27.3832
 20
-153.299
 11
-27.8635
 21
-153.19
  0
LINE
  8
0
 10
-27.8635
 20
-153.19
 11
-28.3074
 21
-152.976
  0
LINE
  8
0
 10
-28.3074
 20
-152.976
 11
-28.6926
 21
-152.669
  0
LINE
  8
0
 10
-28.6926
 20
-152.669
 11
-28.9997
 21
-152.284
  0
LINE
  8
0
 10
-28.9997
 20
-152.284
 11
-29.2135
 21
-151.84
  0
LINE
  8
0
 10
-29.2135
 20
-151.84
 11
-29.3231
 21
-151.359
  0
LINE
  8
0
 10
-29.3231
 20
-151.359
 11
-29.3231
 21
-150.867
  0
LINE
  8
0
 10
-29.3231
 20
-150.867
 11
-29.2135
 21
-150.386
  0
LINE
  8
0
 10
-29.2135
 20
-150.386
 11
-28.9997
 21
-149.943
  0
LINE
  8
0
 10
-28.9997
 20
-149.943
 11
-28.6926
 21
-149.557
  0
LINE
  8
0
 10
-28.6926
 20
-149.557
 11
-28.3074
 21
-149.25
  0
LINE
  8
0
 10
-28.3074
 20
-149.25
 11
-27.8635
 21
-149.037
  0
LINE
  8
0
 10
-27.8635
 20
-149.037
 11
-27.3832
 21
-148.927
  0
LINE
  8
0
 10
-27.3832
 20
-148.927
 11
-26.8906
 21
-148.927
  0
LINE
  8
0
 10
-26.8906
 20
-148.927
 11
-26.4103
 21
-149.037
  0
LINE
  8
0
 10
-26.4103
 20
-149.037
 11
-25.9665
 21
-149.25
  0
LINE
  8
0
 10
-25.9665
 20
-149.25
 11
-25.5813
 21
-149.557
  0
LINE
  8
0
 10
-25.5813
 20
-149.557
 11
-25.2741
 21
-149.943
  0
LINE
  8
0
 10
-25.2741
 20
-149.943
 11
-25.0604
 21
-150.386
  0
LINE
  8
0
 10
-25.0604
 20
-150.386
 11
-24.9508
 21
-150.867
  0
LINE
  8
0
 10
-24.9508
 20
-150.867
 11
-24.9508
 21
-151.359
  0
LINE
  8
0
 10
-24.9508
 20
-151.359
 11
-25.0604
 21
-151.84
  0
LINE
  8
0
 10
-25.0604
 20
-151.84
 11
-25.2741
 21
-152.284
  0
LINE
  8
0
 10
-25.2741
 20
-152.284
 11
-25.5813
 21
-152.669
  0
LINE
  8
0
 10
-25.5813
 20
-152.669
 11
-25.9665
 21
-152.976
  0
LINE
  8
0
 10
-25.9665
 20
-152.976
 11
-26.4103
 21
-153.19
  0
LINE
  8
0
 10
-26.4103
 20
-153.19
 11
-26.8906
 21
-153.299
  0
LINE
  8
0
 10
-26.8906
 20
-153.299
 11
-27.3832
 21
-153.299
  0
LINE
  8
0
 10
-16.4996
 20
-172.738
 11
-16.9981
 21
-172.702
  0
LINE
  8
0
 10
-16.9981
 20
-172.702
 11
-17.4943
 21
-172.643
  0
LINE
  8
0
 10
-17.4943
 20
-172.643
 11
-17.9871
 21
-172.56
  0
LINE
  8
0
 10
-17.9871
 20
-172.56
 11
-18.4755
 21
-172.454
  0
LINE
  8
0
 10
-18.4755
 20
-172.454
 11
-18.9582
 21
-172.325
  0
LINE
  8
0
 10
-18.9582
 20
-172.325
 11
-19.4342
 21
-172.173
  0
LINE
  8
0
 10
-19.4342
 20
-172.173
 11
-19.9025
 21
-171.998
  0
LINE
  8
0
 10
-19.9025
 20
-171.998
 11
-20.3618
 21
-171.801
  0
LINE
  8
0
 10
-20.3618
 20
-171.801
 11
-20.8114
 21
-171.583
  0
LINE
  8
0
 10
-20.8114
 20
-171.583
 11
-21.25
 21
-171.343
  0
LINE
  8
0
 10
-21.25
 20
-171.343
 11
-21.6767
 21
-171.083
  0
LINE
  8
0
 10
-21.6767
 20
-171.083
 11
-22.0906
 21
-170.803
  0
LINE
  8
0
 10
-22.0906
 20
-170.803
 11
-22.4907
 21
-170.504
  0
LINE
  8
0
 10
-22.4907
 20
-170.504
 11
-22.876
 21
-170.185
  0
LINE
  8
0
 10
-22.876
 20
-170.185
 11
-23.2458
 21
-169.849
  0
LINE
  8
0
 10
-23.2458
 20
-169.849
 11
-23.5992
 21
-169.496
  0
LINE
  8
0
 10
-23.5992
 20
-169.496
 11
-23.9354
 21
-169.126
  0
LINE
  8
0
 10
-23.9354
 20
-169.126
 11
-24.2536
 21
-168.741
  0
LINE
  8
0
 10
-24.2536
 20
-168.741
 11
-24.553
 21
-168.341
  0
LINE
  8
0
 10
-24.553
 20
-168.341
 11
-24.8332
 21
-167.927
  0
LINE
  8
0
 10
-24.8332
 20
-167.927
 11
-25.0933
 21
-167.5
  0
LINE
  8
0
 10
-25.0933
 20
-167.5
 11
-25.3328
 21
-167.061
  0
LINE
  8
0
 10
-25.3328
 20
-167.061
 11
-25.5511
 21
-166.612
  0
LINE
  8
0
 10
-25.5511
 20
-166.612
 11
-25.7479
 21
-166.152
  0
LINE
  8
0
 10
-25.7479
 20
-166.152
 11
-25.9225
 21
-165.684
  0
LINE
  8
0
 10
-25.9225
 20
-165.684
 11
-26.0747
 21
-165.208
  0
LINE
  8
0
 10
-26.0747
 20
-165.208
 11
-26.204
 21
-164.725
  0
LINE
  8
0
 10
-26.204
 20
-164.725
 11
-26.3102
 21
-164.237
  0
LINE
  8
0
 10
-26.3102
 20
-164.237
 11
-26.3931
 21
-163.744
  0
LINE
  8
0
 10
-26.3931
 20
-163.744
 11
-26.4525
 21
-163.248
  0
LINE
  8
0
 10
-26.4525
 20
-163.248
 11
-26.4881
 21
-162.75
  0
LINE
  8
0
 10
-26.4881
 20
-162.75
 11
-26.5
 21
-162.25
  0
LINE
  8
0
 10
-26.5
 20
-162.25
 11
-26.4881
 21
-161.75
  0
LINE
  8
0
 10
-26.4881
 20
-161.75
 11
-26.4525
 21
-161.252
  0
LINE
  8
0
 10
-26.4525
 20
-161.252
 11
-26.3931
 21
-160.756
  0
LINE
  8
0
 10
-26.3931
 20
-160.756
 11
-26.3102
 21
-160.263
  0
LINE
  8
0
 10
-26.3102
 20
-160.263
 11
-26.204
 21
-159.775
  0
LINE
  8
0
 10
-26.204
 20
-159.775
 11
-26.0747
 21
-159.292
  0
LINE
  8
0
 10
-26.0747
 20
-159.292
 11
-25.9225
 21
-158.816
  0
LINE
  8
0
 10
-25.9225
 20
-158.816
 11
-25.7479
 21
-158.348
  0
LINE
  8
0
 10
-25.7479
 20
-158.348
 11
-25.5511
 21
-157.888
  0
LINE
  8
0
 10
-25.5511
 20
-157.888
 11
-25.3328
 21
-157.439
  0
LINE
  8
0
 10
-25.3328
 20
-157.439
 11
-25.0933
 21
-157
  0
LINE
  8
0
 10
-25.0933
 20
-157
 11
-24.8332
 21
-156.573
  0
LINE
  8
0
 10
-24.8332
 20
-156.573
 11
-24.553
 21
-156.159
  0
LINE
  8
0
 10
-24.553
 20
-156.159
 11
-24.2536
 21
-155.759
  0
LINE
  8
0
 10
-24.2536
 20
-155.759
 11
-23.9354
 21
-155.374
  0
LINE
  8
0
 10
-23.9354
 20
-155.374
 11
-23.5992
 21
-155.004
  0
LINE
  8
0
 10
-23.5992
 20
-155.004
 11
-23.2458
 21
-154.651
  0
LINE
  8
0
 10
-23.2458
 20
-154.651
 11
-22.876
 21
-154.315
  0
LINE
  8
0
 10
-22.876
 20
-154.315
 11
-22.4907
 21
-153.996
  0
LINE
  8
0
 10
-22.4907
 20
-153.996
 11
-22.0906
 21
-153.697
  0
LINE
  8
0
 10
-22.0906
 20
-153.697
 11
-21.6767
 21
-153.417
  0
LINE
  8
0
 10
-21.6767
 20
-153.417
 11
-21.25
 21
-153.157
  0
LINE
  8
0
 10
-21.25
 20
-153.157
 11
-20.8114
 21
-152.917
  0
LINE
  8
0
 10
-20.8114
 20
-152.917
 11
-20.3618
 21
-152.699
  0
LINE
  8
0
 10
-20.3618
 20
-152.699
 11
-19.9025
 21
-152.502
  0
LINE
  8
0
 10
-19.9025
 20
-152.502
 11
-19.4342
 21
-152.327
  0
LINE
  8
0
 10
-19.4342
 20
-152.327
 11
-18.9582
 21
-152.175
  0
LINE
  8
0
 10
-18.9582
 20
-152.175
 11
-18.4755
 21
-152.046
  0
LINE
  8
0
 10
-18.4755
 20
-152.046
 11
-17.9871
 21
-151.94
  0
LINE
  8
0
 10
-17.9871
 20
-151.94
 11
-17.4943
 21
-151.857
  0
LINE
  8
0
 10
-17.4943
 20
-151.857
 11
-16.9981
 21
-151.798
  0
LINE
  8
0
 10
-16.9981
 20
-151.798
 11
-16.4996
 21
-151.762
  0
LINE
  8
0
 10
-16.4996
 20
-151.762
 11
-16
 21
-151.75
  0
LINE
  8
0
 10
-16
 20
-151.75
 11
-15.5004
 21
-151.762
  0
LINE
  8
0
 10
-15.5004
 20
-151.762
 11
-15.0019
 21
-151.798
  0
LINE
  8
0
 10
-15.0019
 20
-151.798
 11
-14.5057
 21
-151.857
  0
LINE
  8
0
 10
-14.5057
 20
-151.857
 11
-14.0128
 21
-151.94
  0
LINE
  8
0
 10
-14.0128
 20
-151.94
 11
-13.5245
 21
-152.046
  0
LINE
  8
0
 10
-13.5245
 20
-152.046
 11
-13.0418
 21
-152.175
  0
LINE
  8
0
 10
-13.0418
 20
-152.175
 11
-12.5658
 21
-152.327
  0
LINE
  8
0
 10
-12.5658
 20
-152.327
 11
-12.0975
 21
-152.502
  0
LINE
  8
0
 10
-12.0975
 20
-152.502
 11
-11.6381
 21
-152.699
  0
LINE
  8
0
 10
-11.6381
 20
-152.699
 11
-11.1886
 21
-152.917
  0
LINE
  8
0
 10
-11.1886
 20
-152.917
 11
-10.75
 21
-153.157
  0
LINE
  8
0
 10
-10.75
 20
-153.157
 11
-10.3233
 21
-153.417
  0
LINE
  8
0
 10
-10.3233
 20
-153.417
 11
-9.90939
 21
-153.697
  0
LINE
  8
0
 10
-9.90939
 20
-153.697
 11
-9.50932
 21
-153.996
  0
LINE
  8
0
 10
-9.50932
 20
-153.996
 11
-9.12396
 21
-154.315
  0
LINE
  8
0
 10
-9.12396
 20
-154.315
 11
-8.75417
 21
-154.651
  0
LINE
  8
0
 10
-8.75417
 20
-154.651
 11
-8.40079
 21
-155.004
  0
LINE
  8
0
 10
-8.40079
 20
-155.004
 11
-8.06462
 21
-155.374
  0
LINE
  8
0
 10
-8.06462
 20
-155.374
 11
-7.74643
 21
-155.759
  0
LINE
  8
0
 10
-7.74643
 20
-155.759
 11
-7.44695
 21
-156.159
  0
LINE
  8
0
 10
-7.44695
 20
-156.159
 11
-7.16682
 21
-156.573
  0
LINE
  8
0
 10
-7.16682
 20
-156.573
 11
-6.90672
 21
-157
  0
LINE
  8
0
 10
-6.90672
 20
-157
 11
-6.66722
 21
-157.439
  0
LINE
  8
0
 10
-6.66722
 20
-157.439
 11
-6.44885
 21
-157.888
  0
LINE
  8
0
 10
-6.44885
 20
-157.888
 11
-6.25214
 21
-158.348
  0
LINE
  8
0
 10
-6.25214
 20
-158.348
 11
-6.07748
 21
-158.816
  0
LINE
  8
0
 10
-6.07748
 20
-158.816
 11
-5.92532
 21
-159.292
  0
LINE
  8
0
 10
-5.92532
 20
-159.292
 11
-5.79597
 21
-159.775
  0
LINE
  8
0
 10
-5.79597
 20
-159.775
 11
-5.68974
 21
-160.263
  0
LINE
  8
0
 10
-5.68974
 20
-160.263
 11
-5.60687
 21
-160.756
  0
LINE
  8
0
 10
-5.60687
 20
-160.756
 11
-5.54753
 21
-161.252
  0
LINE
  8
0
 10
-5.54753
 20
-161.252
 11
-5.51189
 21
-161.75
  0
LINE
  8
0
 10
-5.51189
 20
-161.75
 11
-5.5
 21
-162.25
  0
LINE
  8
0
 10
-5.5
 20
-162.25
 11
-5.51189
 21
-162.75
  0
LINE
  8
0
 10
-5.51189
 20
-162.75
 11
-5.54753
 21
-163.248
  0
LINE
  8
0
 10
-5.54753
 20
-163.248
 11
-5.60687
 21
-163.744
  0
LINE
  8
0
 10
-5.60687
 20
-163.744
 11
-5.68974
 21
-164.237
  0
LINE
  8
0
 10
-5.68974
 20
-164.237
 11
-5.79597
 21
-164.725
  0
LINE
  8
0
 10
-5.79597
 20
-164.725
 11
-5.92532
 21
-165.208
  0
LINE
  8
0
 10
-5.92532
 20
-165.208
 11
-6.07748
 21
-165.684
  0
LINE
  8
0
 10
-6.07748
 20
-165.684
 11
-6.25214
 21
-166.152
  0
LINE
  8
0
 10
-6.25214
 20
-166.152
 11
-6.44885
 21
-166.612
  0
LINE
  8
0
 10
-6.44885
 20
-166.612
 11
-6.66722
 21
-167.061
  0
LINE
  8
0
 10
-6.66722
 20
-167.061
 11
-6.90672
 21
-167.5
  0
LINE
  8
0
 10
-6.90672
 20
-167.5
 11
-7.16682
 21
-167.927
  0
LINE
  8
0
 10
-7.16682
 20
-167.927
 11
-7.44695
 21
-168.341
  0
LINE
  8
0
 10
-7.44695
 20
-168.341
 11
-7.74643
 21
-168.741
  0
LINE
  8
0
 10
-7.74643
 20
-168.741
 11
-8.06462
 21
-169.126
  0
LINE
  8
0
 10
-8.06462
 20
-169.126
 11
-8.40079
 21
-169.496
  0
LINE
  8
0
 10
-8.40079
 20
-169.496
 11
-8.75417
 21
-169.849
  0
LINE
  8
0
 10
-8.75417
 20
-169.849
 11
-9.12396
 21
-170.185
  0
LINE
  8
0
 10
-9.12396
 20
-170.185
 11
-9.50932
 21
-170.504
  0
LINE
  8
0
 10
-9.50932
 20
-170.504
 11
-9.90939
 21
-170.803
  0
LINE
  8
0
 10
-9.90939
 20
-170.803
 11
-10.3233
 21
-171.083
  0
LINE
  8
0
 10
-10.3233
 20
-171.083
 11
-10.75
 21
-171.343
  0
LINE
  8
0
 10
-10.75
 20
-171.343
 11
-11.1886
 21
-171.583
  0
LINE
  8
0
 10
-11.1886
 20
-171.583
 11
-11.6381
 21
-171.801
  0
LINE
  8
0
 10
-11.6381
 20
-171.801
 11
-12.0975
 21
-171.998
  0
LINE
  8
0
 10
-12.0975
 20
-171.998
 11
-12.5658
 21
-172.173
  0
LINE
  8
0
 10
-12.5658
 20
-172.173
 11
-13.0418
 21
-172.325
  0
LINE
  8
0
 10
-13.0418
 20
-172.325
 11
-13.5245
 21
-172.454
  0
LINE
  8
0
 10
-13.5245
 20
-172.454
 11
-14.0128
 21
-172.56
  0
LINE
  8
0
 10
-14.0128
 20
-172.56
 11
-14.5057
 21
-172.643
  0
LINE
  8
0
 10
-14.5057
 20
-172.643
 11
-15.0019
 21
-172.702
  0
LINE
  8
0
 10
-15.0019
 20
-172.702
 11
-15.5004
 21
-172.738
  0
LINE
  8
0
 10
-15.5004
 20
-172.738
 11
-16
 21
-172.75
  0
LINE
  8
0
 10
-16
 20
-172.75
 11
-16.4996
 21
-172.738
  0
LINE
  8
0
 10
-59.7843
 20
-178.247
 11
-60.2831
 21
-178.224
  0
LINE
  8
0
 10
-60.2831
 20
-178.224
 11
-60.7805
 21
-178.181
  0
LINE
  8
0
 10
-60.7805
 20
-178.181
 11
-61.2758
 21
-178.118
  0
LINE
  8
0
 10
-61.2758
 20
-178.118
 11
-61.7679
 21
-178.034
  0
LINE
  8
0
 10
-61.7679
 20
-178.034
 11
-62.2561
 21
-177.929
  0
LINE
  8
0
 10
-62.2561
 20
-177.929
 11
-62.7396
 21
-177.804
  0
LINE
  8
0
 10
-62.7396
 20
-177.804
 11
-63.2174
 21
-177.66
  0
LINE
  8
0
 10
-63.2174
 20
-177.66
 11
-63.6888
 21
-177.495
  0
LINE
  8
0
 10
-63.6888
 20
-177.495
 11
-64.153
 21
-177.311
  0
LINE
  8
0
 10
-64.153
 20
-177.311
 11
-64.6091
 21
-177.108
  0
LINE
  8
0
 10
-64.6091
 20
-177.108
 11
-65.0564
 21
-176.886
  0
LINE
  8
0
 10
-65.0564
 20
-176.886
 11
-65.494
 21
-176.646
  0
LINE
  8
0
 10
-65.494
 20
-176.646
 11
-65.9212
 21
-176.387
  0
LINE
  8
0
 10
-65.9212
 20
-176.387
 11
-66.3374
 21
-176.112
  0
LINE
  8
0
 10
-66.3374
 20
-176.112
 11
-66.7417
 21
-175.819
  0
LINE
  8
0
 10
-66.7417
 20
-175.819
 11
-67.1335
 21
-175.509
  0
LINE
  8
0
 10
-67.1335
 20
-175.509
 11
-67.512
 21
-175.184
  0
LINE
  8
0
 10
-67.512
 20
-175.184
 11
-67.8767
 21
-174.842
  0
LINE
  8
0
 10
-67.8767
 20
-174.842
 11
-68.2269
 21
-174.487
  0
LINE
  8
0
 10
-68.2269
 20
-174.487
 11
-68.562
 21
-174.116
  0
LINE
  8
0
 10
-68.562
 20
-174.116
 11
-68.8814
 21
-173.733
  0
LINE
  8
0
 10
-68.8814
 20
-173.733
 11
-69.1845
 21
-173.336
  0
LINE
  8
0
 10
-69.1845
 20
-173.336
 11
-69.4709
 21
-172.927
  0
LINE
  8
0
 10
-69.4709
 20
-172.927
 11
-69.74
 21
-172.506
  0
LINE
  8
0
 10
-69.74
 20
-172.506
 11
-69.9914
 21
-172.075
  0
LINE
  8
0
 10
-69.9914
 20
-172.075
 11
-70.2246
 21
-171.634
  0
LINE
  8
0
 10
-70.2246
 20
-171.634
 11
-70.4393
 21
-171.183
  0
LINE
  8
0
 10
-70.4393
 20
-171.183
 11
-70.635
 21
-170.723
  0
LINE
  8
0
 10
-70.635
 20
-170.723
 11
-70.8115
 21
-170.256
  0
LINE
  8
0
 10
-70.8115
 20
-170.256
 11
-70.9683
 21
-169.782
  0
LINE
  8
0
 10
-70.9683
 20
-169.782
 11
-71.1053
 21
-169.302
  0
LINE
  8
0
 10
-71.1053
 20
-169.302
 11
-71.2223
 21
-168.817
  0
LINE
  8
0
 10
-71.2223
 20
-168.817
 11
-71.3189
 21
-168.327
  0
LINE
  8
0
 10
-71.3189
 20
-168.327
 11
-71.3951
 21
-167.833
  0
LINE
  8
0
 10
-71.3951
 20
-167.833
 11
-71.4506
 21
-167.337
  0
LINE
  8
0
 10
-71.4506
 20
-167.337
 11
-71.4855
 21
-166.839
  0
LINE
  8
0
 10
-71.4855
 20
-166.839
 11
-71.4997
 21
-166.34
  0
LINE
  8
0
 10
-71.4997
 20
-166.34
 11
-71.493
 21
-165.841
  0
LINE
  8
0
 10
-71.493
 20
-165.841
 11
-71.4656
 21
-165.342
  0
LINE
  8
0
 10
-71.4656
 20
-165.342
 11
-71.4175
 21
-164.845
  0
LINE
  8
0
 10
-71.4175
 20
-164.845
 11
-71.3488
 21
-164.351
  0
LINE
  8
0
 10
-71.3488
 20
-164.351
 11
-71.2595
 21
-163.86
  0
LINE
  8
0
 10
-71.2595
 20
-163.86
 11
-71.1499
 21
-163.373
  0
LINE
  8
0
 10
-71.1499
 20
-163.373
 11
-71.0201
 21
-162.89
  0
LINE
  8
0
 10
-71.0201
 20
-162.89
 11
-70.8704
 21
-162.414
  0
LINE
  8
0
 10
-70.8704
 20
-162.414
 11
-70.701
 21
-161.944
  0
LINE
  8
0
 10
-70.701
 20
-161.944
 11
-70.5122
 21
-161.482
  0
LINE
  8
0
 10
-70.5122
 20
-161.482
 11
-70.3043
 21
-161.028
  0
LINE
  8
0
 10
-70.3043
 20
-161.028
 11
-70.0777
 21
-160.583
  0
LINE
  8
0
 10
-70.0777
 20
-160.583
 11
-69.8329
 21
-160.148
  0
LINE
  8
0
 10
-69.8329
 20
-160.148
 11
-69.5701
 21
-159.724
  0
LINE
  8
0
 10
-69.5701
 20
-159.724
 11
-69.2899
 21
-159.31
  0
LINE
  8
0
 10
-69.2899
 20
-159.31
 11
-68.9927
 21
-158.909
  0
LINE
  8
0
 10
-68.9927
 20
-158.909
 11
-68.6791
 21
-158.521
  0
LINE
  8
0
 10
-68.6791
 20
-158.521
 11
-68.3497
 21
-158.145
  0
LINE
  8
0
 10
-68.3497
 20
-158.145
 11
-68.0049
 21
-157.784
  0
LINE
  8
0
 10
-68.0049
 20
-157.784
 11
-67.6454
 21
-157.438
  0
LINE
  8
0
 10
-67.6454
 20
-157.438
 11
-67.2717
 21
-157.107
  0
LINE
  8
0
 10
-67.2717
 20
-157.107
 11
-66.8847
 21
-156.791
  0
LINE
  8
0
 10
-66.8847
 20
-156.791
 11
-66.4848
 21
-156.492
  0
LINE
  8
0
 10
-66.4848
 20
-156.492
 11
-66.0728
 21
-156.21
  0
LINE
  8
0
 10
-66.0728
 20
-156.21
 11
-65.6495
 21
-155.945
  0
LINE
  8
0
 10
-65.6495
 20
-155.945
 11
-65.2155
 21
-155.699
  0
LINE
  8
0
 10
-65.2155
 20
-155.699
 11
-64.7717
 21
-155.47
  0
LINE
  8
0
 10
-64.7717
 20
-155.47
 11
-64.3187
 21
-155.26
  0
LINE
  8
0
 10
-64.3187
 20
-155.26
 11
-63.8573
 21
-155.069
  0
LINE
  8
0
 10
-63.8573
 20
-155.069
 11
-63.3884
 21
-154.897
  0
LINE
  8
0
 10
-63.3884
 20
-154.897
 11
-62.9128
 21
-154.746
  0
LINE
  8
0
 10
-62.9128
 20
-154.746
 11
-62.4313
 21
-154.614
  0
LINE
  8
0
 10
-62.4313
 20
-154.614
 11
-61.9447
 21
-154.502
  0
LINE
  8
0
 10
-61.9447
 20
-154.502
 11
-61.4539
 21
-154.41
  0
LINE
  8
0
 10
-61.4539
 20
-154.41
 11
-60.9597
 21
-154.339
  0
LINE
  8
0
 10
-60.9597
 20
-154.339
 11
-60.4629
 21
-154.289
  0
LINE
  8
0
 10
-60.4629
 20
-154.289
 11
-59.9645
 21
-154.259
  0
LINE
  8
0
 10
-59.9645
 20
-154.259
 11
-59.4653
 21
-154.25
  0
LINE
  8
0
 10
-59.4653
 20
-154.25
 11
-58.9662
 21
-154.262
  0
LINE
  8
0
 10
-58.9662
 20
-154.262
 11
-58.4679
 21
-154.294
  0
LINE
  8
0
 10
-58.4679
 20
-154.294
 11
-57.9715
 21
-154.348
  0
LINE
  8
0
 10
-57.9715
 20
-154.348
 11
-57.4777
 21
-154.422
  0
LINE
  8
0
 10
-57.4777
 20
-154.422
 11
-56.9874
 21
-154.516
  0
LINE
  8
0
 10
-56.9874
 20
-154.516
 11
-56.5015
 21
-154.631
  0
LINE
  8
0
 10
-56.5015
 20
-154.631
 11
-56.0207
 21
-154.765
  0
LINE
  8
0
 10
-56.0207
 20
-154.765
 11
-55.546
 21
-154.92
  0
LINE
  8
0
 10
-55.546
 20
-154.92
 11
-55.0781
 21
-155.094
  0
LINE
  8
0
 10
-55.0781
 20
-155.094
 11
-54.6179
 21
-155.288
  0
LINE
  8
0
 10
-54.6179
 20
-155.288
 11
-54.1661
 21
-155.501
  0
LINE
  8
0
 10
-54.1661
 20
-155.501
 11
-53.7236
 21
-155.732
  0
LINE
  8
0
 10
-53.7236
 20
-155.732
 11
-53.291
 21
-155.981
  0
LINE
  8
0
 10
-53.291
 20
-155.981
 11
-52.8692
 21
-156.248
  0
LINE
  8
0
 10
-52.8692
 20
-156.248
 11
-52.4589
 21
-156.533
  0
LINE
  8
0
 10
-52.4589
 20
-156.533
 11
-52.0608
 21
-156.834
  0
LINE
  8
0
 10
-52.0608
 20
-156.834
 11
-51.6756
 21
-157.152
  0
LINE
  8
0
 10
-51.6756
 20
-157.152
 11
-51.3038
 21
-157.485
  0
LINE
  8
0
 10
-51.3038
 20
-157.485
 11
-50.9463
 21
-157.834
  0
LINE
  8
0
 10
-50.9463
 20
-157.834
 11
-50.6036
 21
-158.197
  0
LINE
  8
0
 10
-50.6036
 20
-158.197
 11
-50.2763
 21
-158.574
  0
LINE
  8
0
 10
-50.2763
 20
-158.574
 11
-49.965
 21
-158.964
  0
LINE
  8
0
 10
-49.965
 20
-158.964
 11
-49.6702
 21
-159.367
  0
LINE
  8
0
 10
-49.6702
 20
-159.367
 11
-49.3924
 21
-159.782
  0
LINE
  8
0
 10
-49.3924
 20
-159.782
 11
-49.132
 21
-160.208
  0
LINE
  8
0
 10
-49.132
 20
-160.208
 11
-48.8897
 21
-160.645
  0
LINE
  8
0
 10
-48.8897
 20
-160.645
 11
-48.6657
 21
-161.091
  0
LINE
  8
0
 10
-48.6657
 20
-161.091
 11
-48.4604
 21
-161.546
  0
LINE
  8
0
 10
-48.4604
 20
-161.546
 11
-48.2743
 21
-162.009
  0
LINE
  8
0
 10
-48.2743
 20
-162.009
 11
-48.1076
 21
-162.48
  0
LINE
  8
0
 10
-48.1076
 20
-162.48
 11
-47.9607
 21
-162.957
  0
LINE
  8
0
 10
-47.9607
 20
-162.957
 11
-47.8337
 21
-163.44
  0
LINE
  8
0
 10
-47.8337
 20
-163.44
 11
-47.7269
 21
-163.928
  0
LINE
  8
0
 10
-47.7269
 20
-163.928
 11
-47.6405
 21
-164.419
  0
LINE
  8
0
 10
-47.6405
 20
-164.419
 11
-47.5746
 21
-164.914
  0
LINE
  8
0
 10
-47.5746
 20
-164.914
 11
-47.5293
 21
-165.412
  0
LINE
  8
0
 10
-47.5293
 20
-165.412
 11
-47.5048
 21
-165.91
  0
LINE
  8
0
 10
-47.5048
 20
-165.91
 11
-47.5011
 21
-166.41
  0
LINE
  8
0
 10
-47.5011
 20
-166.41
 11
-47.5181
 21
-166.909
  0
LINE
  8
0
 10
-47.5181
 20
-166.909
 11
-47.5558
 21
-167.406
  0
LINE
  8
0
 10
-47.5558
 20
-167.406
 11
-47.6143
 21
-167.902
  0
LINE
  8
0
 10
-47.6143
 20
-167.902
 11
-47.6933
 21
-168.395
  0
LINE
  8
0
 10
-47.6933
 20
-168.395
 11
-47.7928
 21
-168.885
  0
LINE
  8
0
 10
-47.7928
 20
-168.885
 11
-47.9125
 21
-169.369
  0
LINE
  8
0
 10
-47.9125
 20
-169.369
 11
-48.0523
 21
-169.849
  0
LINE
  8
0
 10
-48.0523
 20
-169.849
 11
-48.2119
 21
-170.322
  0
LINE
  8
0
 10
-48.2119
 20
-170.322
 11
-48.391
 21
-170.788
  0
LINE
  8
0
 10
-48.391
 20
-170.788
 11
-48.5894
 21
-171.246
  0
LINE
  8
0
 10
-48.5894
 20
-171.246
 11
-48.8067
 21
-171.695
  0
LINE
  8
0
 10
-48.8067
 20
-171.695
 11
-49.0424
 21
-172.136
  0
LINE
  8
0
 10
-49.0424
 20
-172.136
 11
-49.2963
 21
-172.565
  0
LINE
  8
0
 10
-49.2963
 20
-172.565
 11
-49.5679
 21
-172.984
  0
LINE
  8
0
 10
-49.5679
 20
-172.984
 11
-49.8566
 21
-173.392
  0
LINE
  8
0
 10
-49.8566
 20
-173.392
 11
-50.162
 21
-173.787
  0
LINE
  8
0
 10
-50.162
 20
-173.787
 11
-50.4836
 21
-174.169
  0
LINE
  8
0
 10
-50.4836
 20
-174.169
 11
-50.8208
 21
-174.537
  0
LINE
  8
0
 10
-50.8208
 20
-174.537
 11
-51.1731
 21
-174.891
  0
LINE
  8
0
 10
-51.1731
 20
-174.891
 11
-51.5397
 21
-175.23
  0
LINE
  8
0
 10
-51.5397
 20
-175.23
 11
-51.9202
 21
-175.553
  0
LINE
  8
0
 10
-51.9202
 20
-175.553
 11
-52.3137
 21
-175.86
  0
LINE
  8
0
 10
-52.3137
 20
-175.86
 11
-52.7197
 21
-176.151
  0
LINE
  8
0
 10
-52.7197
 20
-176.151
 11
-53.1374
 21
-176.424
  0
LINE
  8
0
 10
-53.1374
 20
-176.424
 11
-53.5662
 21
-176.68
  0
LINE
  8
0
 10
-53.5662
 20
-176.68
 11
-54.0052
 21
-176.918
  0
LINE
  8
0
 10
-54.0052
 20
-176.918
 11
-54.4537
 21
-177.137
  0
LINE
  8
0
 10
-54.4537
 20
-177.137
 11
-54.911
 21
-177.338
  0
LINE
  8
0
 10
-54.911
 20
-177.338
 11
-55.3762
 21
-177.519
  0
LINE
  8
0
 10
-55.3762
 20
-177.519
 11
-55.8486
 21
-177.681
  0
LINE
  8
0
 10
-55.8486
 20
-177.681
 11
-56.3272
 21
-177.823
  0
LINE
  8
0
 10
-56.3272
 20
-177.823
 11
-56.8114
 21
-177.945
  0
LINE
  8
0
 10
-56.8114
 20
-177.945
 11
-57.3002
 21
-178.047
  0
LINE
  8
0
 10
-57.3002
 20
-178.047
 11
-57.7928
 21
-178.128
  0
LINE
  8
0
 10
-57.7928
 20
-178.128
 11
-58.2884
 21
-178.189
  0
LINE
  8
0
 10
-58.2884
 20
-178.189
 11
-58.7861
 21
-178.229
  0
LINE
  8
0
 10
-58.7861
 20
-178.229
 11
-59.285
 21
-178.248
  0
LINE
  8
0
 10
-59.285
 20
-178.248
 11
-59.7843
 21
-178.247
  0
LINE
  8
0
 10
-81.5651
 20
-164.178
 11
-82.0447
 21
-164.076
  0
LINE
  8
0
 10
-82.0447
 20
-164.076
 11
-82.4791
 21
-163.849
  0
LINE
  8
0
 10
-82.4791
 20
-163.849
 11
-82.836
 21
-163.513
  0
LINE
  8
0
 10
-82.836
 20
-163.513
 11
-83.0892
 21
-163.093
  0
LINE
  8
0
 10
-83.0892
 20
-163.093
 11
-83.2196
 21
-162.621
  0
LINE
  8
0
 10
-83.2196
 20
-162.621
 11
-83.2178
 21
-162.13
  0
LINE
  8
0
 10
-83.2178
 20
-162.13
 11
-83.0837
 21
-161.659
  0
LINE
  8
0
 10
-83.0837
 20
-161.659
 11
-82.8274
 21
-161.241
  0
LINE
  8
0
 10
-82.8274
 20
-161.241
 11
-82.4679
 21
-160.908
  0
LINE
  8
0
 10
-82.4679
 20
-160.908
 11
-82.0318
 21
-160.684
  0
LINE
  8
0
 10
-82.0318
 20
-160.684
 11
-81.5515
 21
-160.586
  0
LINE
  8
0
 10
-81.5515
 20
-160.586
 11
-81.0626
 21
-160.621
  0
LINE
  8
0
 10
-81.0626
 20
-160.621
 11
-80.3662
 21
-160.744
  0
LINE
  8
0
 10
-80.3662
 20
-160.744
 11
-79.9049
 21
-160.91
  0
LINE
  8
0
 10
-79.9049
 20
-160.91
 11
-79.5055
 21
-161.194
  0
LINE
  8
0
 10
-79.5055
 20
-161.194
 11
-79.1976
 21
-161.576
  0
LINE
  8
0
 10
-79.1976
 20
-161.576
 11
-79.004
 21
-162.026
  0
LINE
  8
0
 10
-79.004
 20
-162.026
 11
-78.9391
 21
-162.512
  0
LINE
  8
0
 10
-78.9391
 20
-162.512
 11
-79.0077
 21
-162.997
  0
LINE
  8
0
 10
-79.0077
 20
-162.997
 11
-79.2047
 21
-163.446
  0
LINE
  8
0
 10
-79.2047
 20
-163.446
 11
-79.5155
 21
-163.825
  0
LINE
  8
0
 10
-79.5155
 20
-163.825
 11
-79.9171
 21
-164.106
  0
LINE
  8
0
 10
-79.9171
 20
-164.106
 11
-80.3796
 21
-164.269
  0
LINE
  8
0
 10
-80.3796
 20
-164.269
 11
-80.8688
 21
-164.3
  0
LINE
  8
0
 10
-80.8688
 20
-164.3
 11
-81.5651
 21
-164.178
  0
LINE
  8
0
 10
-90.6516
 20
-170.833
 11
-91.1004
 21
-170.635
  0
LINE
  8
0
 10
-91.1004
 20
-170.635
 11
-91.4795
 21
-170.325
  0
LINE
  8
0
 10
-91.4795
 20
-170.325
 11
-91.7607
 21
-169.923
  0
LINE
  8
0
 10
-91.7607
 20
-169.923
 11
-91.9231
 21
-169.461
  0
LINE
  8
0
 10
-91.9231
 20
-169.461
 11
-91.9547
 21
-168.971
  0
LINE
  8
0
 10
-91.9547
 20
-168.971
 11
-91.8319
 21
-168.275
  0
LINE
  8
0
 10
-91.8319
 20
-168.275
 11
-91.7303
 21
-167.796
  0
LINE
  8
0
 10
-91.7303
 20
-167.796
 11
-91.5032
 21
-167.361
  0
LINE
  8
0
 10
-91.5032
 20
-167.361
 11
-91.1672
 21
-167.004
  0
LINE
  8
0
 10
-91.1672
 20
-167.004
 11
-90.7474
 21
-166.751
  0
LINE
  8
0
 10
-90.7474
 20
-166.751
 11
-90.2749
 21
-166.621
  0
LINE
  8
0
 10
-90.2749
 20
-166.621
 11
-89.7847
 21
-166.622
  0
LINE
  8
0
 10
-89.7847
 20
-166.622
 11
-89.3132
 21
-166.756
  0
LINE
  8
0
 10
-89.3132
 20
-166.756
 11
-88.8953
 21
-167.013
  0
LINE
  8
0
 10
-88.8953
 20
-167.013
 11
-88.5621
 21
-167.372
  0
LINE
  8
0
 10
-88.5621
 20
-167.372
 11
-88.3382
 21
-167.808
  0
LINE
  8
0
 10
-88.3382
 20
-167.808
 11
-88.2403
 21
-168.289
  0
LINE
  8
0
 10
-88.2403
 20
-168.289
 11
-88.2756
 21
-168.778
  0
LINE
  8
0
 10
-88.2756
 20
-168.778
 11
-88.3984
 21
-169.474
  0
LINE
  8
0
 10
-88.3984
 20
-169.474
 11
-88.5643
 21
-169.935
  0
LINE
  8
0
 10
-88.5643
 20
-169.935
 11
-88.8485
 21
-170.335
  0
LINE
  8
0
 10
-88.8485
 20
-170.335
 11
-89.2299
 21
-170.643
  0
LINE
  8
0
 10
-89.2299
 20
-170.643
 11
-89.6803
 21
-170.836
  0
LINE
  8
0
 10
-89.6803
 20
-170.836
 11
-90.1662
 21
-170.901
  0
LINE
  8
0
 10
-90.1662
 20
-170.901
 11
-90.6516
 21
-170.833
  0
LINE
  8
0
 10
-37.9374
 20
-171.879
 11
-38.6338
 21
-171.756
  0
LINE
  8
0
 10
-38.6338
 20
-171.756
 11
-39.0951
 21
-171.59
  0
LINE
  8
0
 10
-39.0951
 20
-171.59
 11
-39.4945
 21
-171.306
  0
LINE
  8
0
 10
-39.4945
 20
-171.306
 11
-39.8024
 21
-170.924
  0
LINE
  8
0
 10
-39.8024
 20
-170.924
 11
-39.996
 21
-170.474
  0
LINE
  8
0
 10
-39.996
 20
-170.474
 11
-40.0609
 21
-169.988
  0
LINE
  8
0
 10
-40.0609
 20
-169.988
 11
-39.9923
 21
-169.503
  0
LINE
  8
0
 10
-39.9923
 20
-169.503
 11
-39.7953
 21
-169.054
  0
LINE
  8
0
 10
-39.7953
 20
-169.054
 11
-39.4845
 21
-168.675
  0
LINE
  8
0
 10
-39.4845
 20
-168.675
 11
-39.0829
 21
-168.394
  0
LINE
  8
0
 10
-39.0829
 20
-168.394
 11
-38.6204
 21
-168.231
  0
LINE
  8
0
 10
-38.6204
 20
-168.231
 11
-38.1312
 21
-168.2
  0
LINE
  8
0
 10
-38.1312
 20
-168.2
 11
-37.4349
 21
-168.322
  0
LINE
  8
0
 10
-37.4349
 20
-168.322
 11
-36.9553
 21
-168.424
  0
LINE
  8
0
 10
-36.9553
 20
-168.424
 11
-36.5209
 21
-168.651
  0
LINE
  8
0
 10
-36.5209
 20
-168.651
 11
-36.1639
 21
-168.987
  0
LINE
  8
0
 10
-36.1639
 20
-168.987
 11
-35.9108
 21
-169.407
  0
LINE
  8
0
 10
-35.9108
 20
-169.407
 11
-35.7804
 21
-169.879
  0
LINE
  8
0
 10
-35.7804
 20
-169.879
 11
-35.7822
 21
-170.37
  0
LINE
  8
0
 10
-35.7822
 20
-170.37
 11
-35.9163
 21
-170.841
  0
LINE
  8
0
 10
-35.9163
 20
-170.841
 11
-36.1726
 21
-171.259
  0
LINE
  8
0
 10
-36.1726
 20
-171.259
 11
-36.5321
 21
-171.592
  0
LINE
  8
0
 10
-36.5321
 20
-171.592
 11
-36.9682
 21
-171.816
  0
LINE
  8
0
 10
-36.9682
 20
-171.816
 11
-37.4485
 21
-171.914
  0
LINE
  8
0
 10
-37.4485
 20
-171.914
 11
-37.9374
 21
-171.879
  0
LINE
  8
0
 10
-27.3832
 20
-175.573
 11
-27.8635
 21
-175.463
  0
LINE
  8
0
 10
-27.8635
 20
-175.463
 11
-28.3074
 21
-175.25
  0
LINE
  8
0
 10
-28.3074
 20
-175.25
 11
-28.6926
 21
-174.943
  0
LINE
  8
0
 10
-28.6926
 20
-174.943
 11
-28.9997
 21
-174.557
  0
LINE
  8
0
 10
-28.9997
 20
-174.557
 11
-29.2135
 21
-174.114
  0
LINE
  8
0
 10
-29.2135
 20
-174.114
 11
-29.3231
 21
-173.633
  0
LINE
  8
0
 10
-29.3231
 20
-173.633
 11
-29.3231
 21
-173.141
  0
LINE
  8
0
 10
-29.3231
 20
-173.141
 11
-29.2135
 21
-172.66
  0
LINE
  8
0
 10
-29.2135
 20
-172.66
 11
-28.9997
 21
-172.216
  0
LINE
  8
0
 10
-28.9997
 20
-172.216
 11
-28.6926
 21
-171.831
  0
LINE
  8
0
 10
-28.6926
 20
-171.831
 11
-28.3074
 21
-171.524
  0
LINE
  8
0
 10
-28.3074
 20
-171.524
 11
-27.8635
 21
-171.31
  0
LINE
  8
0
 10
-27.8635
 20
-171.31
 11
-27.3832
 21
-171.201
  0
LINE
  8
0
 10
-27.3832
 20
-171.201
 11
-26.8906
 21
-171.201
  0
LINE
  8
0
 10
-26.8906
 20
-171.201
 11
-26.4103
 21
-171.31
  0
LINE
  8
0
 10
-26.4103
 20
-171.31
 11
-25.9665
 21
-171.524
  0
LINE
  8
0
 10
-25.9665
 20
-171.524
 11
-25.5813
 21
-171.831
  0
LINE
  8
0
 10
-25.5813
 20
-171.831
 11
-25.2741
 21
-172.216
  0
LINE
  8
0
 10
-25.2741
 20
-172.216
 11
-25.0604
 21
-172.66
  0
LINE
  8
0
 10
-25.0604
 20
-172.66
 11
-24.9508
 21
-173.141
  0
LINE
  8
0
 10
-24.9508
 20
-173.141
 11
-24.9508
 21
-173.633
  0
LINE
  8
0
 10
-24.9508
 20
-173.633
 11
-25.0604
 21
-174.114
  0
LINE
  8
0
 10
-25.0604
 20
-174.114
 11
-25.2741
 21
-174.557
  0
LINE
  8
0
 10
-25.2741
 20
-174.557
 11
-25.5813
 21
-174.943
  0
LINE
  8
0
 10
-25.5813
 20
-174.943
 11
-25.9665
 21
-175.25
  0
LINE
  8
0
 10
-25.9665
 20
-175.25
 11
-26.4103
 21
-175.463
  0
LINE
  8
0
 10
-26.4103
 20
-175.463
 11
-26.8906
 21
-175.573
  0
LINE
  8
0
 10
-26.8906
 20
-175.573
 11
-27.3832
 21
-175.573
  0
LINE
  8
0
 10
-5.10939
 20
-175.573
 11
-5.58968
 21
-175.463
  0
LINE
  8
0
 10
-5.58968
 20
-175.463
 11
-6.03354
 21
-175.25
  0
LINE
  8
0
 10
-6.03354
 20
-175.25
 11
-6.4187
 21
-174.943
  0
LINE
  8
0
 10
-6.4187
 20
-174.943
 11
-6.72586
 21
-174.557
  0
LINE
  8
0
 10
-6.72586
 20
-174.557
 11
-6.93961
 21
-174.114
  0
LINE
  8
0
 10
-6.93961
 20
-174.114
 11
-7.04922
 21
-173.633
  0
LINE
  8
0
 10
-7.04922
 20
-173.633
 11
-7.04922
 21
-173.141
  0
LINE
  8
0
 10
-7.04922
 20
-173.141
 11
-6.93961
 21
-172.66
  0
LINE
  8
0
 10
-6.93961
 20
-172.66
 11
-6.72586
 21
-172.216
  0
LINE
  8
0
 10
-6.72586
 20
-172.216
 11
-6.4187
 21
-171.831
  0
LINE
  8
0
 10
-6.4187
 20
-171.831
 11
-6.03354
 21
-171.524
  0
LINE
  8
0
 10
-6.03354
 20
-171.524
 11
-5.58968
 21
-171.31
  0
LINE
  8
0
 10
-5.58968
 20
-171.31
 11
-5.10939
 21
-171.201
  0
LINE
  8
0
 10
-5.10939
 20
-171.201
 11
-4.61674
 21
-171.201
  0
LINE
  8
0
 10
-4.61674
 20
-171.201
 11
-4.13644
 21
-171.31
  0
LINE
  8
0
 10
-4.13644
 20
-171.31
 11
-3.6926
 21
-171.524
  0
LINE
  8
0
 10
-3.6926
 20
-171.524
 11
-3.30743
 21
-171.831
  0
LINE
  8
0
 10
-3.30743
 20
-171.831
 11
-3.00027
 21
-172.216
  0
LINE
  8
0
 10
-3.00027
 20
-172.216
 11
-2.78651
 21
-172.66
  0
LINE
  8
0
 10
-2.78651
 20
-172.66
 11
-2.6769
 21
-173.141
  0
LINE
  8
0
 10
-2.6769
 20
-173.141
 11
-2.6769
 21
-173.633
  0
LINE
  8
0
 10
-2.6769
 20
-173.633
 11
-2.78651
 21
-174.114
  0
LINE
  8
0
 10
-2.78651
 20
-174.114
 11
-3.00027
 21
-174.557
  0
LINE
  8
0
 10
-3.00027
 20
-174.557
 11
-3.30743
 21
-174.943
  0
LINE
  8
0
 10
-3.30743
 20
-174.943
 11
-3.6926
 21
-175.25
  0
LINE
  8
0
 10
-3.6926
 20
-175.25
 11
-4.13644
 21
-175.463
  0
LINE
  8
0
 10
-4.13644
 20
-175.463
 11
-4.61674
 21
-175.573
  0
LINE
  8
0
 10
-4.61674
 20
-175.573
 11
-5.10939
 21
-175.573
  0
LINE
  8
0
 10
-94.1887
 20
-202.337
 11
-94.6875
 21
-202.315
  0
LINE
  8
0
 10
-94.6875
 20
-202.315
 11
-95.1849
 21
-202.272
  0
LINE
  8
0
 10
-95.1849
 20
-202.272
 11
-95.6801
 21
-202.208
  0
LINE
  8
0
 10
-95.6801
 20
-202.208
 11
-96.1723
 21
-202.124
  0
LINE
  8
0
 10
-96.1723
 20
-202.124
 11
-96.6605
 21
-202.019
  0
LINE
  8
0
 10
-96.6605
 20
-202.019
 11
-97.144
 21
-201.895
  0
LINE
  8
0
 10
-97.144
 20
-201.895
 11
-97.6218
 21
-201.75
  0
LINE
  8
0
 10
-97.6218
 20
-201.75
 11
-98.0932
 21
-201.585
  0
LINE
  8
0
 10
-98.0932
 20
-201.585
 11
-98.5574
 21
-201.401
  0
LINE
  8
0
 10
-98.5574
 20
-201.401
 11
-99.0135
 21
-201.198
  0
LINE
  8
0
 10
-99.0135
 20
-201.198
 11
-99.4607
 21
-200.976
  0
LINE
  8
0
 10
-99.4607
 20
-200.976
 11
-99.8984
 21
-200.736
  0
LINE
  8
0
 10
-99.8984
 20
-200.736
 11
-100.326
 21
-200.478
  0
LINE
  8
0
 10
-100.326
 20
-200.478
 11
-100.742
 21
-200.202
  0
LINE
  8
0
 10
-100.742
 20
-200.202
 11
-101.146
 21
-199.909
  0
LINE
  8
0
 10
-101.146
 20
-199.909
 11
-101.538
 21
-199.599
  0
LINE
  8
0
 10
-101.538
 20
-199.599
 11
-101.916
 21
-199.274
  0
LINE
  8
0
 10
-101.916
 20
-199.274
 11
-102.281
 21
-198.933
  0
LINE
  8
0
 10
-102.281
 20
-198.933
 11
-102.631
 21
-198.577
  0
LINE
  8
0
 10
-102.631
 20
-198.577
 11
-102.966
 21
-198.207
  0
LINE
  8
0
 10
-102.966
 20
-198.207
 11
-103.286
 21
-197.823
  0
LINE
  8
0
 10
-103.286
 20
-197.823
 11
-103.589
 21
-197.426
  0
LINE
  8
0
 10
-103.589
 20
-197.426
 11
-103.875
 21
-197.017
  0
LINE
  8
0
 10
-103.875
 20
-197.017
 11
-104.144
 21
-196.597
  0
LINE
  8
0
 10
-104.144
 20
-196.597
 11
-104.396
 21
-196.165
  0
LINE
  8
0
 10
-104.396
 20
-196.165
 11
-104.629
 21
-195.724
  0
LINE
  8
0
 10
-104.629
 20
-195.724
 11
-104.844
 21
-195.273
  0
LINE
  8
0
 10
-104.844
 20
-195.273
 11
-105.039
 21
-194.814
  0
LINE
  8
0
 10
-105.039
 20
-194.814
 11
-105.216
 21
-194.347
  0
LINE
  8
0
 10
-105.216
 20
-194.347
 11
-105.373
 21
-193.873
  0
LINE
  8
0
 10
-105.373
 20
-193.873
 11
-105.51
 21
-193.392
  0
LINE
  8
0
 10
-105.51
 20
-193.392
 11
-105.627
 21
-192.907
  0
LINE
  8
0
 10
-105.627
 20
-192.907
 11
-105.723
 21
-192.417
  0
LINE
  8
0
 10
-105.723
 20
-192.417
 11
-105.799
 21
-191.924
  0
LINE
  8
0
 10
-105.799
 20
-191.924
 11
-105.855
 21
-191.428
  0
LINE
  8
0
 10
-105.855
 20
-191.428
 11
-105.89
 21
-190.929
  0
LINE
  8
0
 10
-105.89
 20
-190.929
 11
-105.904
 21
-190.43
  0
LINE
  8
0
 10
-105.904
 20
-190.43
 11
-105.897
 21
-189.931
  0
LINE
  8
0
 10
-105.897
 20
-189.931
 11
-105.87
 21
-189.433
  0
LINE
  8
0
 10
-105.87
 20
-189.433
 11
-105.822
 21
-188.936
  0
LINE
  8
0
 10
-105.822
 20
-188.936
 11
-105.753
 21
-188.441
  0
LINE
  8
0
 10
-105.753
 20
-188.441
 11
-105.664
 21
-187.95
  0
LINE
  8
0
 10
-105.664
 20
-187.95
 11
-105.554
 21
-187.463
  0
LINE
  8
0
 10
-105.554
 20
-187.463
 11
-105.424
 21
-186.981
  0
LINE
  8
0
 10
-105.424
 20
-186.981
 11
-105.275
 21
-186.504
  0
LINE
  8
0
 10
-105.275
 20
-186.504
 11
-105.105
 21
-186.035
  0
LINE
  8
0
 10
-105.105
 20
-186.035
 11
-104.917
 21
-185.572
  0
LINE
  8
0
 10
-104.917
 20
-185.572
 11
-104.709
 21
-185.118
  0
LINE
  8
0
 10
-104.709
 20
-185.118
 11
-104.482
 21
-184.674
  0
LINE
  8
0
 10
-104.482
 20
-184.674
 11
-104.237
 21
-184.238
  0
LINE
  8
0
 10
-104.237
 20
-184.238
 11
-103.974
 21
-183.814
  0
LINE
  8
0
 10
-103.974
 20
-183.814
 11
-103.694
 21
-183.401
  0
LINE
  8
0
 10
-103.694
 20
-183.401
 11
-103.397
 21
-182.999
  0
LINE
  8
0
 10
-103.397
 20
-182.999
 11
-103.084
 21
-182.611
  0
LINE
  8
0
 10
-103.084
 20
-182.611
 11
-102.754
 21
-182.236
  0
LINE
  8
0
 10
-102.754
 20
-182.236
 11
-102.409
 21
-181.875
  0
LINE
  8
0
 10
-102.409
 20
-181.875
 11
-102.05
 21
-181.528
  0
LINE
  8
0
 10
-102.05
 20
-181.528
 11
-101.676
 21
-181.197
  0
LINE
  8
0
 10
-101.676
 20
-181.197
 11
-101.289
 21
-180.882
  0
LINE
  8
0
 10
-101.289
 20
-180.882
 11
-100.889
 21
-180.583
  0
LINE
  8
0
 10
-100.889
 20
-180.583
 11
-100.477
 21
-180.3
  0
LINE
  8
0
 10
-100.477
 20
-180.3
 11
-100.054
 21
-180.036
  0
LINE
  8
0
 10
-100.054
 20
-180.036
 11
-99.6199
 21
-179.789
  0
LINE
  8
0
 10
-99.6199
 20
-179.789
 11
-99.1761
 21
-179.56
  0
LINE
  8
0
 10
-99.1761
 20
-179.56
 11
-98.7231
 21
-179.35
  0
LINE
  8
0
 10
-98.7231
 20
-179.35
 11
-98.2617
 21
-179.159
  0
LINE
  8
0
 10
-98.2617
 20
-179.159
 11
-97.7928
 21
-178.988
  0
LINE
  8
0
 10
-97.7928
 20
-178.988
 11
-97.3172
 21
-178.836
  0
LINE
  8
0
 10
-97.3172
 20
-178.836
 11
-96.8357
 21
-178.704
  0
LINE
  8
0
 10
-96.8357
 20
-178.704
 11
-96.3491
 21
-178.592
  0
LINE
  8
0
 10
-96.3491
 20
-178.592
 11
-95.8583
 21
-178.5
  0
LINE
  8
0
 10
-95.8583
 20
-178.5
 11
-95.3641
 21
-178.429
  0
LINE
  8
0
 10
-95.3641
 20
-178.429
 11
-94.8673
 21
-178.379
  0
LINE
  8
0
 10
-94.8673
 20
-178.379
 11
-94.3689
 21
-178.349
  0
LINE
  8
0
 10
-94.3689
 20
-178.349
 11
-93.8697
 21
-178.34
  0
LINE
  8
0
 10
-93.8697
 20
-178.34
 11
-93.3706
 21
-178.352
  0
LINE
  8
0
 10
-93.3706
 20
-178.352
 11
-92.8723
 21
-178.385
  0
LINE
  8
0
 10
-92.8723
 20
-178.385
 11
-92.3759
 21
-178.438
  0
LINE
  8
0
 10
-92.3759
 20
-178.438
 11
-91.8821
 21
-178.512
  0
LINE
  8
0
 10
-91.8821
 20
-178.512
 11
-91.3918
 21
-178.606
  0
LINE
  8
0
 10
-91.3918
 20
-178.606
 11
-90.9059
 21
-178.721
  0
LINE
  8
0
 10
-90.9059
 20
-178.721
 11
-90.4251
 21
-178.856
  0
LINE
  8
0
 10
-90.4251
 20
-178.856
 11
-89.9504
 21
-179.01
  0
LINE
  8
0
 10
-89.9504
 20
-179.01
 11
-89.4825
 21
-179.185
  0
LINE
  8
0
 10
-89.4825
 20
-179.185
 11
-89.0223
 21
-179.378
  0
LINE
  8
0
 10
-89.0223
 20
-179.378
 11
-88.5705
 21
-179.591
  0
LINE
  8
0
 10
-88.5705
 20
-179.591
 11
-88.128
 21
-179.822
  0
LINE
  8
0
 10
-88.128
 20
-179.822
 11
-87.6954
 21
-180.071
  0
LINE
  8
0
 10
-87.6954
 20
-180.071
 11
-87.2736
 21
-180.339
  0
LINE
  8
0
 10
-87.2736
 20
-180.339
 11
-86.8633
 21
-180.623
  0
LINE
  8
0
 10
-86.8633
 20
-180.623
 11
-86.4652
 21
-180.924
  0
LINE
  8
0
 10
-86.4652
 20
-180.924
 11
-86.0799
 21
-181.242
  0
LINE
  8
0
 10
-86.0799
 20
-181.242
 11
-85.7082
 21
-181.575
  0
LINE
  8
0
 10
-85.7082
 20
-181.575
 11
-85.3507
 21
-181.924
  0
LINE
  8
0
 10
-85.3507
 20
-181.924
 11
-85.008
 21
-182.287
  0
LINE
  8
0
 10
-85.008
 20
-182.287
 11
-84.6807
 21
-182.664
  0
LINE
  8
0
 10
-84.6807
 20
-182.664
 11
-84.3694
 21
-183.054
  0
LINE
  8
0
 10
-84.3694
 20
-183.054
 11
-84.0746
 21
-183.457
  0
LINE
  8
0
 10
-84.0746
 20
-183.457
 11
-83.7968
 21
-183.872
  0
LINE
  8
0
 10
-83.7968
 20
-183.872
 11
-83.5364
 21
-184.298
  0
LINE
  8
0
 10
-83.5364
 20
-184.298
 11
-83.2941
 21
-184.735
  0
LINE
  8
0
 10
-83.2941
 20
-184.735
 11
-83.0701
 21
-185.181
  0
LINE
  8
0
 10
-83.0701
 20
-185.181
 11
-82.8648
 21
-185.636
  0
LINE
  8
0
 10
-82.8648
 20
-185.636
 11
-82.6787
 21
-186.099
  0
LINE
  8
0
 10
-82.6787
 20
-186.099
 11
-82.512
 21
-186.57
  0
LINE
  8
0
 10
-82.512
 20
-186.57
 11
-82.3651
 21
-187.047
  0
LINE
  8
0
 10
-82.3651
 20
-187.047
 11
-82.2381
 21
-187.53
  0
LINE
  8
0
 10
-82.2381
 20
-187.53
 11
-82.1313
 21
-188.018
  0
LINE
  8
0
 10
-82.1313
 20
-188.018
 11
-82.0448
 21
-188.51
  0
LINE
  8
0
 10
-82.0448
 20
-188.51
 11
-81.979
 21
-189.005
  0
LINE
  8
0
 10
-81.979
 20
-189.005
 11
-81.9337
 21
-189.502
  0
LINE
  8
0
 10
-81.9337
 20
-189.502
 11
-81.9092
 21
-190
  0
LINE
  8
0
 10
-81.9092
 20
-190
 11
-81.9054
 21
-190.5
  0
LINE
  8
0
 10
-81.9054
 20
-190.5
 11
-81.9225
 21
-190.999
  0
LINE
  8
0
 10
-81.9225
 20
-190.999
 11
-81.9602
 21
-191.497
  0
LINE
  8
0
 10
-81.9602
 20
-191.497
 11
-82.0187
 21
-191.992
  0
LINE
  8
0
 10
-82.0187
 20
-191.992
 11
-82.0977
 21
-192.485
  0
LINE
  8
0
 10
-82.0977
 20
-192.485
 11
-82.1971
 21
-192.975
  0
LINE
  8
0
 10
-82.1971
 20
-192.975
 11
-82.3169
 21
-193.459
  0
LINE
  8
0
 10
-82.3169
 20
-193.459
 11
-82.4566
 21
-193.939
  0
LINE
  8
0
 10
-82.4566
 20
-193.939
 11
-82.6163
 21
-194.412
  0
LINE
  8
0
 10
-82.6163
 20
-194.412
 11
-82.7954
 21
-194.878
  0
LINE
  8
0
 10
-82.7954
 20
-194.878
 11
-82.9938
 21
-195.336
  0
LINE
  8
0
 10
-82.9938
 20
-195.336
 11
-83.211
 21
-195.786
  0
LINE
  8
0
 10
-83.211
 20
-195.786
 11
-83.4468
 21
-196.226
  0
LINE
  8
0
 10
-83.4468
 20
-196.226
 11
-83.7007
 21
-196.656
  0
LINE
  8
0
 10
-83.7007
 20
-196.656
 11
-83.9722
 21
-197.075
  0
LINE
  8
0
 10
-83.9722
 20
-197.075
 11
-84.261
 21
-197.482
  0
LINE
  8
0
 10
-84.261
 20
-197.482
 11
-84.5664
 21
-197.877
  0
LINE
  8
0
 10
-84.5664
 20
-197.877
 11
-84.888
 21
-198.259
  0
LINE
  8
0
 10
-84.888
 20
-198.259
 11
-85.2252
 21
-198.627
  0
LINE
  8
0
 10
-85.2252
 20
-198.627
 11
-85.5775
 21
-198.981
  0
LINE
  8
0
 10
-85.5775
 20
-198.981
 11
-85.9441
 21
-199.32
  0
LINE
  8
0
 10
-85.9441
 20
-199.32
 11
-86.3245
 21
-199.643
  0
LINE
  8
0
 10
-86.3245
 20
-199.643
 11
-86.7181
 21
-199.95
  0
LINE
  8
0
 10
-86.7181
 20
-199.95
 11
-87.1241
 21
-200.241
  0
LINE
  8
0
 10
-87.1241
 20
-200.241
 11
-87.5418
 21
-200.515
  0
LINE
  8
0
 10
-87.5418
 20
-200.515
 11
-87.9706
 21
-200.77
  0
LINE
  8
0
 10
-87.9706
 20
-200.77
 11
-88.4096
 21
-201.008
  0
LINE
  8
0
 10
-88.4096
 20
-201.008
 11
-88.8581
 21
-201.228
  0
LINE
  8
0
 10
-88.8581
 20
-201.228
 11
-89.3154
 21
-201.428
  0
LINE
  8
0
 10
-89.3154
 20
-201.428
 11
-89.7806
 21
-201.609
  0
LINE
  8
0
 10
-89.7806
 20
-201.609
 11
-90.2529
 21
-201.771
  0
LINE
  8
0
 10
-90.2529
 20
-201.771
 11
-90.7316
 21
-201.913
  0
LINE
  8
0
 10
-90.7316
 20
-201.913
 11
-91.2158
 21
-202.035
  0
LINE
  8
0
 10
-91.2158
 20
-202.035
 11
-91.7046
 21
-202.137
  0
LINE
  8
0
 10
-91.7046
 20
-202.137
 11
-92.1972
 21
-202.218
  0
LINE
  8
0
 10
-92.1972
 20
-202.218
 11
-92.6928
 21
-202.279
  0
LINE
  8
0
 10
-92.6928
 20
-202.279
 11
-93.1905
 21
-202.319
  0
LINE
  8
0
 10
-93.1905
 20
-202.319
 11
-93.6894
 21
-202.338
  0
LINE
  8
0
 10
-93.6894
 20
-202.338
 11
-94.1887
 21
-202.337
  0
LINE
  8
0
 10
-115.969
 20
-188.268
 11
-116.449
 21
-188.166
  0
LINE
  8
0
 10
-116.449
 20
-188.166
 11
-116.883
 21
-187.939
  0
LINE
  8
0
 10
-116.883
 20
-187.939
 11
-117.24
 21
-187.603
  0
LINE
  8
0
 10
-117.24
 20
-187.603
 11
-117.494
 21
-187.183
  0
LINE
  8
0
 10
-117.494
 20
-187.183
 11
-117.624
 21
-186.711
  0
LINE
  8
0
 10
-117.624
 20
-186.711
 11
-117.622
 21
-186.221
  0
LINE
  8
0
 10
-117.622
 20
-186.221
 11
-117.488
 21
-185.749
  0
LINE
  8
0
 10
-117.488
 20
-185.749
 11
-117.232
 21
-185.331
  0
LINE
  8
0
 10
-117.232
 20
-185.331
 11
-116.872
 21
-184.998
  0
LINE
  8
0
 10
-116.872
 20
-184.998
 11
-116.436
 21
-184.774
  0
LINE
  8
0
 10
-116.436
 20
-184.774
 11
-115.956
 21
-184.676
  0
LINE
  8
0
 10
-115.956
 20
-184.676
 11
-115.467
 21
-184.711
  0
LINE
  8
0
 10
-115.467
 20
-184.711
 11
-114.771
 21
-184.834
  0
LINE
  8
0
 10
-114.771
 20
-184.834
 11
-114.309
 21
-185
  0
LINE
  8
0
 10
-114.309
 20
-185
 11
-113.91
 21
-185.284
  0
LINE
  8
0
 10
-113.91
 20
-185.284
 11
-113.602
 21
-185.666
  0
LINE
  8
0
 10
-113.602
 20
-185.666
 11
-113.408
 21
-186.116
  0
LINE
  8
0
 10
-113.408
 20
-186.116
 11
-113.344
 21
-186.602
  0
LINE
  8
0
 10
-113.344
 20
-186.602
 11
-113.412
 21
-187.087
  0
LINE
  8
0
 10
-113.412
 20
-187.087
 11
-113.609
 21
-187.536
  0
LINE
  8
0
 10
-113.609
 20
-187.536
 11
-113.92
 21
-187.915
  0
LINE
  8
0
 10
-113.92
 20
-187.915
 11
-114.321
 21
-188.197
  0
LINE
  8
0
 10
-114.321
 20
-188.197
 11
-114.784
 21
-188.359
  0
LINE
  8
0
 10
-114.784
 20
-188.359
 11
-115.273
 21
-188.391
  0
LINE
  8
0
 10
-115.273
 20
-188.391
 11
-115.969
 21
-188.268
  0
LINE
  8
0
 10
-31.2493
 20
-205.247
 11
-31.7473
 21
-205.222
  0
LINE
  8
0
 10
-31.7473
 20
-205.222
 11
-32.2434
 21
-205.172
  0
LINE
  8
0
 10
-32.2434
 20
-205.172
 11
-32.7365
 21
-205.098
  0
LINE
  8
0
 10
-32.7365
 20
-205.098
 11
-33.2252
 21
-204.999
  0
LINE
  8
0
 10
-33.2252
 20
-204.999
 11
-33.7084
 21
-204.876
  0
LINE
  8
0
 10
-33.7084
 20
-204.876
 11
-34.1849
 21
-204.729
  0
LINE
  8
0
 10
-34.1849
 20
-204.729
 11
-34.6534
 21
-204.559
  0
LINE
  8
0
 10
-34.6534
 20
-204.559
 11
-35.1129
 21
-204.365
  0
LINE
  8
0
 10
-35.1129
 20
-204.365
 11
-35.5621
 21
-204.149
  0
LINE
  8
0
 10
-35.5621
 20
-204.149
 11
-36
 21
-203.91
  0
LINE
  8
0
 10
-36
 20
-203.91
 11
-36.4255
 21
-203.65
  0
LINE
  8
0
 10
-36.4255
 20
-203.65
 11
-36.8374
 21
-203.369
  0
LINE
  8
0
 10
-36.8374
 20
-203.369
 11
-37.2349
 21
-203.068
  0
LINE
  8
0
 10
-37.2349
 20
-203.068
 11
-37.6169
 21
-202.748
  0
LINE
  8
0
 10
-37.6169
 20
-202.748
 11
-37.9824
 21
-202.409
  0
LINE
  8
0
 10
-37.9824
 20
-202.409
 11
-38.3305
 21
-202.052
  0
LINE
  8
0
 10
-38.3305
 20
-202.052
 11
-38.6604
 21
-201.678
  0
LINE
  8
0
 10
-38.6604
 20
-201.678
 11
-38.9713
 21
-201.288
  0
LINE
  8
0
 10
-38.9713
 20
-201.288
 11
-39.2624
 21
-200.883
  0
LINE
  8
0
 10
-39.2624
 20
-200.883
 11
-39.5329
 21
-200.464
  0
LINE
  8
0
 10
-39.5329
 20
-200.464
 11
-39.7822
 21
-200.033
  0
LINE
  8
0
 10
-39.7822
 20
-200.033
 11
-40.0097
 21
-199.589
  0
LINE
  8
0
 10
-40.0097
 20
-199.589
 11
-40.2148
 21
-199.134
  0
LINE
  8
0
 10
-40.2148
 20
-199.134
 11
-40.3969
 21
-198.67
  0
LINE
  8
0
 10
-40.3969
 20
-198.67
 11
-40.5557
 21
-198.198
  0
LINE
  8
0
 10
-40.5557
 20
-198.198
 11
-40.6908
 21
-197.718
  0
LINE
  8
0
 10
-40.6908
 20
-197.718
 11
-40.8017
 21
-197.231
  0
LINE
  8
0
 10
-40.8017
 20
-197.231
 11
-40.8883
 21
-196.74
  0
LINE
  8
0
 10
-40.8883
 20
-196.74
 11
-40.9503
 21
-196.246
  0
LINE
  8
0
 10
-40.9503
 20
-196.246
 11
-40.9876
 21
-195.748
  0
LINE
  8
0
 10
-40.9876
 20
-195.748
 11
-41
 21
-195.25
  0
LINE
  8
0
 10
-41
 20
-195.25
 11
-40.9876
 21
-194.752
  0
LINE
  8
0
 10
-40.9876
 20
-194.752
 11
-40.9503
 21
-194.254
  0
LINE
  8
0
 10
-40.9503
 20
-194.254
 11
-40.8883
 21
-193.76
  0
LINE
  8
0
 10
-40.8883
 20
-193.76
 11
-40.8017
 21
-193.269
  0
LINE
  8
0
 10
-40.8017
 20
-193.269
 11
-40.6908
 21
-192.782
  0
LINE
  8
0
 10
-40.6908
 20
-192.782
 11
-40.5557
 21
-192.302
  0
LINE
  8
0
 10
-40.5557
 20
-192.302
 11
-40.3969
 21
-191.83
  0
LINE
  8
0
 10
-40.3969
 20
-191.83
 11
-40.2148
 21
-191.366
  0
LINE
  8
0
 10
-40.2148
 20
-191.366
 11
-40.0097
 21
-190.911
  0
LINE
  8
0
 10
-40.0097
 20
-190.911
 11
-39.7822
 21
-190.467
  0
LINE
  8
0
 10
-39.7822
 20
-190.467
 11
-39.5329
 21
-190.036
  0
LINE
  8
0
 10
-39.5329
 20
-190.036
 11
-39.2624
 21
-189.617
  0
LINE
  8
0
 10
-39.2624
 20
-189.617
 11
-38.9713
 21
-189.212
  0
LINE
  8
0
 10
-38.9713
 20
-189.212
 11
-38.6604
 21
-188.822
  0
LINE
  8
0
 10
-38.6604
 20
-188.822
 11
-38.3305
 21
-188.448
  0
LINE
  8
0
 10
-38.3305
 20
-188.448
 11
-37.9824
 21
-188.091
  0
LINE
  8
0
 10
-37.9824
 20
-188.091
 11
-37.6169
 21
-187.752
  0
LINE
  8
0
 10
-37.6169
 20
-187.752
 11
-37.2349
 21
-187.432
  0
LINE
  8
0
 10
-37.2349
 20
-187.432
 11
-36.8374
 21
-187.131
  0
LINE
  8
0
 10
-36.8374
 20
-187.131
 11
-36.4255
 21
-186.85
  0
LINE
  8
0
 10
-36.4255
 20
-186.85
 11
-36
 21
-186.59
  0
LINE
  8
0
 10
-36
 20
-186.59
 11
-35.5621
 21
-186.351
  0
LINE
  8
0
 10
-35.5621
 20
-186.351
 11
-35.1129
 21
-186.135
  0
LINE
  8
0
 10
-35.1129
 20
-186.135
 11
-34.6534
 21
-185.941
  0
LINE
  8
0
 10
-34.6534
 20
-185.941
 11
-34.1849
 21
-185.771
  0
LINE
  8
0
 10
-34.1849
 20
-185.771
 11
-33.7084
 21
-185.624
  0
LINE
  8
0
 10
-33.7084
 20
-185.624
 11
-33.2252
 21
-185.501
  0
LINE
  8
0
 10
-33.2252
 20
-185.501
 11
-32.7365
 21
-185.402
  0
LINE
  8
0
 10
-32.7365
 20
-185.402
 11
-32.2434
 21
-185.328
  0
LINE
  8
0
 10
-32.2434
 20
-185.328
 11
-31.7473
 21
-185.278
  0
LINE
  8
0
 10
-31.7473
 20
-185.278
 11
-31.2493
 21
-185.253
  0
LINE
  8
0
 10
-31.2493
 20
-185.253
 11
-30.7507
 21
-185.253
  0
LINE
  8
0
 10
-30.7507
 20
-185.253
 11
-30.2527
 21
-185.278
  0
LINE
  8
0
 10
-30.2527
 20
-185.278
 11
-29.7566
 21
-185.328
  0
LINE
  8
0
 10
-29.7566
 20
-185.328
 11
-29.2635
 21
-185.402
  0
LINE
  8
0
 10
-29.2635
 20
-185.402
 11
-28.7748
 21
-185.501
  0
LINE
  8
0
 10
-28.7748
 20
-185.501
 11
-28.2916
 21
-185.624
  0
LINE
  8
0
 10
-28.2916
 20
-185.624
 11
-27.8151
 21
-185.771
  0
LINE
  8
0
 10
-27.8151
 20
-185.771
 11
-27.3466
 21
-185.941
  0
LINE
  8
0
 10
-27.3466
 20
-185.941
 11
-26.8871
 21
-186.135
  0
LINE
  8
0
 10
-26.8871
 20
-186.135
 11
-26.4379
 21
-186.351
  0
LINE
  8
0
 10
-26.4379
 20
-186.351
 11
-26
 21
-186.59
  0
LINE
  8
0
 10
-26
 20
-186.59
 11
-25.5745
 21
-186.85
  0
LINE
  8
0
 10
-25.5745
 20
-186.85
 11
-25.1626
 21
-187.131
  0
LINE
  8
0
 10
-25.1626
 20
-187.131
 11
-24.7651
 21
-187.432
  0
LINE
  8
0
 10
-24.7651
 20
-187.432
 11
-24.3831
 21
-187.752
  0
LINE
  8
0
 10
-24.3831
 20
-187.752
 11
-24.0176
 21
-188.091
  0
LINE
  8
0
 10
-24.0176
 20
-188.091
 11
-23.6695
 21
-188.448
  0
LINE
  8
0
 10
-23.6695
 20
-188.448
 11
-23.3396
 21
-188.822
  0
LINE
  8
0
 10
-23.3396
 20
-188.822
 11
-23.0287
 21
-189.212
  0
LINE
  8
0
 10
-23.0287
 20
-189.212
 11
-22.7376
 21
-189.617
  0
LINE
  8
0
 10
-22.7376
 20
-189.617
 11
-22.4671
 21
-190.036
  0
LINE
  8
0
 10
-22.4671
 20
-190.036
 11
-22.2178
 21
-190.467
  0
LINE
  8
0
 10
-22.2178
 20
-190.467
 11
-21.9903
 21
-190.911
  0
LINE
  8
0
 10
-21.9903
 20
-190.911
 11
-21.7852
 21
-191.366
  0
LINE
  8
0
 10
-21.7852
 20
-191.366
 11
-21.6031
 21
-191.83
  0
LINE
  8
0
 10
-21.6031
 20
-191.83
 11
-21.4443
 21
-192.302
  0
LINE
  8
0
 10
-21.4443
 20
-192.302
 11
-21.3092
 21
-192.782
  0
LINE
  8
0
 10
-21.3092
 20
-192.782
 11
-21.1983
 21
-193.269
  0
LINE
  8
0
 10
-21.1983
 20
-193.269
 11
-21.1117
 21
-193.76
  0
LINE
  8
0
 10
-21.1117
 20
-193.76
 11
-21.0497
 21
-194.254
  0
LINE
  8
0
 10
-21.0497
 20
-194.254
 11
-21.0124
 21
-194.752
  0
LINE
  8
0
 10
-21.0124
 20
-194.752
 11
-21
 21
-195.25
  0
LINE
  8
0
 10
-21
 20
-195.25
 11
-21.0124
 21
-195.748
  0
LINE
  8
0
 10
-21.0124
 20
-195.748
 11
-21.0497
 21
-196.246
  0
LINE
  8
0
 10
-21.0497
 20
-196.246
 11
-21.1117
 21
-196.74
  0
LINE
  8
0
 10
-21.1117
 20
-196.74
 11
-21.1983
 21
-197.231
  0
LINE
  8
0
 10
-21.1983
 20
-197.231
 11
-21.3092
 21
-197.718
  0
LINE
  8
0
 10
-21.3092
 20
-197.718
 11
-21.4443
 21
-198.198
  0
LINE
  8
0
 10
-21.4443
 20
-198.198
 11
-21.6031
 21
-198.67
  0
LINE
  8
0
 10
-21.6031
 20
-198.67
 11
-21.7852
 21
-199.134
  0
LINE
  8
0
 10
-21.7852
 20
-199.134
 11
-21.9903
 21
-199.589
  0
LINE
  8
0
 10
-21.9903
 20
-199.589
 11
-22.2178
 21
-200.033
  0
LINE
  8
0
 10
-22.2178
 20
-200.033
 11
-22.4671
 21
-200.464
  0
LINE
  8
0
 10
-22.4671
 20
-200.464
 11
-22.7376
 21
-200.883
  0
LINE
  8
0
 10
-22.7376
 20
-200.883
 11
-23.0287
 21
-201.288
  0
LINE
  8
0
 10
-23.0287
 20
-201.288
 11
-23.3396
 21
-201.678
  0
LINE
  8
0
 10
-23.3396
 20
-201.678
 11
-23.6695
 21
-202.052
  0
LINE
  8
0
 10
-23.6695
 20
-202.052
 11
-24.0176
 21
-202.409
  0
LINE
  8
0
 10
-24.0176
 20
-202.409
 11
-24.3831
 21
-202.748
  0
LINE
  8
0
 10
-24.3831
 20
-202.748
 11
-24.7651
 21
-203.068
  0
LINE
  8
0
 10
-24.7651
 20
-203.068
 11
-25.1626
 21
-203.369
  0
LINE
  8
0
 10
-25.1626
 20
-203.369
 11
-25.5745
 21
-203.65
  0
LINE
  8
0
 10
-25.5745
 20
-203.65
 11
-26
 21
-203.91
  0
LINE
  8
0
 10
-26
 20
-203.91
 11
-26.4379
 21
-204.149
  0
LINE
  8
0
 10
-26.4379
 20
-204.149
 11
-26.8871
 21
-204.365
  0
LINE
  8
0
 10
-26.8871
 20
-204.365
 11
-27.3466
 21
-204.559
  0
LINE
  8
0
 10
-27.3466
 20
-204.559
 11
-27.8151
 21
-204.729
  0
LINE
  8
0
 10
-27.8151
 20
-204.729
 11
-28.2916
 21
-204.876
  0
LINE
  8
0
 10
-28.2916
 20
-204.876
 11
-28.7748
 21
-204.999
  0
LINE
  8
0
 10
-28.7748
 20
-204.999
 11
-29.2635
 21
-205.098
  0
LINE
  8
0
 10
-29.2635
 20
-205.098
 11
-29.7566
 21
-205.172
  0
LINE
  8
0
 10
-29.7566
 20
-205.172
 11
-30.2527
 21
-205.222
  0
LINE
  8
0
 10
-30.2527
 20
-205.222
 11
-30.7507
 21
-205.247
  0
LINE
  8
0
 10
-30.7507
 20
-205.247
 11
-31.2493
 21
-205.247
  0
LINE
  8
0
 10
-63.6197
 20
-189.968
 11
-64.0912
 21
-189.834
  0
LINE
  8
0
 10
-64.0912
 20
-189.834
 11
-64.5091
 21
-189.577
  0
LINE
  8
0
 10
-64.5091
 20
-189.577
 11
-64.8423
 21
-189.218
  0
LINE
  8
0
 10
-64.8423
 20
-189.218
 11
-65.0662
 21
-188.782
  0
LINE
  8
0
 10
-65.0662
 20
-188.782
 11
-65.1641
 21
-188.301
  0
LINE
  8
0
 10
-65.1641
 20
-188.301
 11
-65.1288
 21
-187.813
  0
LINE
  8
0
 10
-65.1288
 20
-187.813
 11
-65.006
 21
-187.116
  0
LINE
  8
0
 10
-65.006
 20
-187.116
 11
-64.8401
 21
-186.655
  0
LINE
  8
0
 10
-64.8401
 20
-186.655
 11
-64.5559
 21
-186.256
  0
LINE
  8
0
 10
-64.5559
 20
-186.256
 11
-64.1744
 21
-185.948
  0
LINE
  8
0
 10
-64.1744
 20
-185.948
 11
-63.7241
 21
-185.754
  0
LINE
  8
0
 10
-63.7241
 20
-185.754
 11
-63.2382
 21
-185.689
  0
LINE
  8
0
 10
-63.2382
 20
-185.689
 11
-62.7528
 21
-185.758
  0
LINE
  8
0
 10
-62.7528
 20
-185.758
 11
-62.3039
 21
-185.955
  0
LINE
  8
0
 10
-62.3039
 20
-185.955
 11
-61.9249
 21
-186.266
  0
LINE
  8
0
 10
-61.9249
 20
-186.266
 11
-61.6437
 21
-186.667
  0
LINE
  8
0
 10
-61.6437
 20
-186.667
 11
-61.4813
 21
-187.13
  0
LINE
  8
0
 10
-61.4813
 20
-187.13
 11
-61.4497
 21
-187.619
  0
LINE
  8
0
 10
-61.4497
 20
-187.619
 11
-61.5725
 21
-188.315
  0
LINE
  8
0
 10
-61.5725
 20
-188.315
 11
-61.674
 21
-188.795
  0
LINE
  8
0
 10
-61.674
 20
-188.795
 11
-61.9012
 21
-189.229
  0
LINE
  8
0
 10
-61.9012
 20
-189.229
 11
-62.2372
 21
-189.586
  0
LINE
  8
0
 10
-62.2372
 20
-189.586
 11
-62.657
 21
-189.839
  0
LINE
  8
0
 10
-62.657
 20
-189.839
 11
-63.1295
 21
-189.97
  0
LINE
  8
0
 10
-63.1295
 20
-189.97
 11
-63.6197
 21
-189.968
  0
LINE
  8
0
 10
-72.3418
 20
-195.969
 11
-73.0382
 21
-195.846
  0
LINE
  8
0
 10
-73.0382
 20
-195.846
 11
-73.4995
 21
-195.68
  0
LINE
  8
0
 10
-73.4995
 20
-195.68
 11
-73.8988
 21
-195.396
  0
LINE
  8
0
 10
-73.8988
 20
-195.396
 11
-74.2068
 21
-195.015
  0
LINE
  8
0
 10
-74.2068
 20
-195.015
 11
-74.4004
 21
-194.564
  0
LINE
  8
0
 10
-74.4004
 20
-194.564
 11
-74.4653
 21
-194.078
  0
LINE
  8
0
 10
-74.4653
 20
-194.078
 11
-74.3967
 21
-193.593
  0
LINE
  8
0
 10
-74.3967
 20
-193.593
 11
-74.1997
 21
-193.144
  0
LINE
  8
0
 10
-74.1997
 20
-193.144
 11
-73.8889
 21
-192.765
  0
LINE
  8
0
 10
-73.8889
 20
-192.765
 11
-73.4873
 21
-192.484
  0
LINE
  8
0
 10
-73.4873
 20
-192.484
 11
-73.0248
 21
-192.322
  0
LINE
  8
0
 10
-73.0248
 20
-192.322
 11
-72.5356
 21
-192.29
  0
LINE
  8
0
 10
-72.5356
 20
-192.29
 11
-71.8393
 21
-192.413
  0
LINE
  8
0
 10
-71.8393
 20
-192.413
 11
-71.3597
 21
-192.514
  0
LINE
  8
0
 10
-71.3597
 20
-192.514
 11
-70.9253
 21
-192.741
  0
LINE
  8
0
 10
-70.9253
 20
-192.741
 11
-70.5683
 21
-193.077
  0
LINE
  8
0
 10
-70.5683
 20
-193.077
 11
-70.3152
 21
-193.497
  0
LINE
  8
0
 10
-70.3152
 20
-193.497
 11
-70.1848
 21
-193.97
  0
LINE
  8
0
 10
-70.1848
 20
-193.97
 11
-70.1866
 21
-194.46
  0
LINE
  8
0
 10
-70.1866
 20
-194.46
 11
-70.3207
 21
-194.931
  0
LINE
  8
0
 10
-70.3207
 20
-194.931
 11
-70.577
 21
-195.349
  0
LINE
  8
0
 10
-70.577
 20
-195.349
 11
-70.9365
 21
-195.682
  0
LINE
  8
0
 10
-70.9365
 20
-195.682
 11
-71.3726
 21
-195.906
  0
LINE
  8
0
 10
-71.3726
 20
-195.906
 11
-71.8529
 21
-196.004
  0
LINE
  8
0
 10
-71.8529
 20
-196.004
 11
-72.3418
 21
-195.969
  0
LINE
  8
0
 10
-44.6895
 20
-197.395
 11
-45.1545
 21
-197.232
  0
LINE
  8
0
 10
-45.1545
 20
-197.232
 11
-45.5717
 21
-196.97
  0
LINE
  8
0
 10
-45.5717
 20
-196.97
 11
-45.92
 21
-196.622
  0
LINE
  8
0
 10
-45.92
 20
-196.622
 11
-46.1821
 21
-196.205
  0
LINE
  8
0
 10
-46.1821
 20
-196.205
 11
-46.3448
 21
-195.74
  0
LINE
  8
0
 10
-46.3448
 20
-195.74
 11
-46.4
 21
-195.25
  0
LINE
  8
0
 10
-46.4
 20
-195.25
 11
-46.3448
 21
-194.76
  0
LINE
  8
0
 10
-46.3448
 20
-194.76
 11
-46.1821
 21
-194.295
  0
LINE
  8
0
 10
-46.1821
 20
-194.295
 11
-45.92
 21
-193.878
  0
LINE
  8
0
 10
-45.92
 20
-193.878
 11
-45.5717
 21
-193.53
  0
LINE
  8
0
 10
-45.5717
 20
-193.53
 11
-45.1545
 21
-193.268
  0
LINE
  8
0
 10
-45.1545
 20
-193.268
 11
-44.6895
 21
-193.105
  0
LINE
  8
0
 10
-44.6895
 20
-193.105
 11
-44.2
 21
-193.05
  0
LINE
  8
0
 10
-44.2
 20
-193.05
 11
-43.7104
 21
-193.105
  0
LINE
  8
0
 10
-43.7104
 20
-193.105
 11
-43.2455
 21
-193.268
  0
LINE
  8
0
 10
-43.2455
 20
-193.268
 11
-42.8283
 21
-193.53
  0
LINE
  8
0
 10
-42.8283
 20
-193.53
 11
-42.48
 21
-193.878
  0
LINE
  8
0
 10
-42.48
 20
-193.878
 11
-42.2179
 21
-194.295
  0
LINE
  8
0
 10
-42.2179
 20
-194.295
 11
-42.0551
 21
-194.76
  0
LINE
  8
0
 10
-42.0551
 20
-194.76
 11
-42
 21
-195.25
  0
LINE
  8
0
 10
-42
 20
-195.25
 11
-42.0551
 21
-195.74
  0
LINE
  8
0
 10
-42.0551
 20
-195.74
 11
-42.2179
 21
-196.205
  0
LINE
  8
0
 10
-42.2179
 20
-196.205
 11
-42.48
 21
-196.622
  0
LINE
  8
0
 10
-42.48
 20
-196.622
 11
-42.8283
 21
-196.97
  0
LINE
  8
0
 10
-42.8283
 20
-196.97
 11
-43.2455
 21
-197.232
  0
LINE
  8
0
 10
-43.2455
 20
-197.232
 11
-43.7104
 21
-197.395
  0
LINE
  8
0
 10
-43.7104
 20
-197.395
 11
-44.2
 21
-197.45
  0
LINE
  8
0
 10
-44.2
 20
-197.45
 11
-44.6895
 21
-197.395
  0
LINE
  8
0
 10
-18.2895
 20
-197.395
 11
-18.7545
 21
-197.232
  0
LINE
  8
0
 10
-18.7545
 20
-197.232
 11
-19.1717
 21
-196.97
  0
LINE
  8
0
 10
-19.1717
 20
-196.97
 11
-19.52
 21
-196.622
  0
LINE
  8
0
 10
-19.52
 20
-196.622
 11
-19.7821
 21
-196.205
  0
LINE
  8
0
 10
-19.7821
 20
-196.205
 11
-19.9448
 21
-195.74
  0
LINE
  8
0
 10
-19.9448
 20
-195.74
 11
-20
 21
-195.25
  0
LINE
  8
0
 10
-20
 20
-195.25
 11
-19.9448
 21
-194.76
  0
LINE
  8
0
 10
-19.9448
 20
-194.76
 11
-19.7821
 21
-194.295
  0
LINE
  8
0
 10
-19.7821
 20
-194.295
 11
-19.52
 21
-193.878
  0
LINE
  8
0
 10
-19.52
 20
-193.878
 11
-19.1717
 21
-193.53
  0
LINE
  8
0
 10
-19.1717
 20
-193.53
 11
-18.7545
 21
-193.268
  0
LINE
  8
0
 10
-18.7545
 20
-193.268
 11
-18.2895
 21
-193.105
  0
LINE
  8
0
 10
-18.2895
 20
-193.105
 11
-17.8
 21
-193.05
  0
LINE
  8
0
 10
-17.8
 20
-193.05
 11
-17.3105
 21
-193.105
  0
LINE
  8
0
 10
-17.3105
 20
-193.105
 11
-16.8454
 21
-193.268
  0
LINE
  8
0
 10
-16.8454
 20
-193.268
 11
-16.4283
 21
-193.53
  0
LINE
  8
0
 10
-16.4283
 20
-193.53
 11
-16.08
 21
-193.878
  0
LINE
  8
0
 10
-16.08
 20
-193.878
 11
-15.8179
 21
-194.295
  0
LINE
  8
0
 10
-15.8179
 20
-194.295
 11
-15.6552
 21
-194.76
  0
LINE
  8
0
 10
-15.6552
 20
-194.76
 11
-15.6
 21
-195.25
  0
LINE
  8
0
 10
-15.6
 20
-195.25
 11
-15.6552
 21
-195.74
  0
LINE
  8
0
 10
-15.6552
 20
-195.74
 11
-15.8179
 21
-196.205
  0
LINE
  8
0
 10
-15.8179
 20
-196.205
 11
-16.08
 21
-196.622
  0
LINE
  8
0
 10
-16.08
 20
-196.622
 11
-16.4283
 21
-196.97
  0
LINE
  8
0
 10
-16.4283
 20
-196.97
 11
-16.8454
 21
-197.232
  0
LINE
  8
0
 10
-16.8454
 20
-197.232
 11
-17.3105
 21
-197.395
  0
LINE
  8
0
 10
-17.3105
 20
-197.395
 11
-17.8
 21
-197.45
  0
LINE
  8
0
 10
-17.8
 20
-197.45
 11
-18.2895
 21
-197.395
  0
LINE
  8
0
 10
-98.0241
 20
-214.058
 11
-98.4956
 21
-213.924
  0
LINE
  8
0
 10
-98.4956
 20
-213.924
 11
-98.9135
 21
-213.668
  0
LINE
  8
0
 10
-98.9135
 20
-213.668
 11
-99.2467
 21
-213.308
  0
LINE
  8
0
 10
-99.2467
 20
-213.308
 11
-99.4705
 21
-212.872
  0
LINE
  8
0
 10
-99.4705
 20
-212.872
 11
-99.5685
 21
-212.392
  0
LINE
  8
0
 10
-99.5685
 20
-212.392
 11
-99.5331
 21
-211.903
  0
LINE
  8
0
 10
-99.5331
 20
-211.903
 11
-99.4104
 21
-211.206
  0
LINE
  8
0
 10
-99.4104
 20
-211.206
 11
-99.2444
 21
-210.745
  0
LINE
  8
0
 10
-99.2444
 20
-210.745
 11
-98.9603
 21
-210.346
  0
LINE
  8
0
 10
-98.9603
 20
-210.346
 11
-98.5788
 21
-210.038
  0
LINE
  8
0
 10
-98.5788
 20
-210.038
 11
-98.1285
 21
-209.844
  0
LINE
  8
0
 10
-98.1285
 20
-209.844
 11
-97.6426
 21
-209.779
  0
LINE
  8
0
 10
-97.6426
 20
-209.779
 11
-97.1572
 21
-209.848
  0
LINE
  8
0
 10
-97.1572
 20
-209.848
 11
-96.7083
 21
-210.045
  0
LINE
  8
0
 10
-96.7083
 20
-210.045
 11
-96.3293
 21
-210.356
  0
LINE
  8
0
 10
-96.3293
 20
-210.356
 11
-96.0481
 21
-210.757
  0
LINE
  8
0
 10
-96.0481
 20
-210.757
 11
-95.8857
 21
-211.22
  0
LINE
  8
0
 10
-95.8857
 20
-211.22
 11
-95.8541
 21
-211.709
  0
LINE
  8
0
 10
-95.8541
 20
-211.709
 11
-95.9769
 21
-212.405
  0
LINE
  8
0
 10
-95.9769
 20
-212.405
 11
-96.0784
 21
-212.885
  0
LINE
  8
0
 10
-96.0784
 20
-212.885
 11
-96.3056
 21
-213.319
  0
LINE
  8
0
 10
-96.3056
 20
-213.319
 11
-96.6415
 21
-213.676
  0
LINE
  8
0
 10
-96.6415
 20
-213.676
 11
-97.0613
 21
-213.929
  0
LINE
  8
0
 10
-97.0613
 20
-213.929
 11
-97.5339
 21
-214.06
  0
LINE
  8
0
 10
-97.5339
 20
-214.06
 11
-98.0241
 21
-214.058
  0
LINE
  8
0
 10
-5.10939
 20
-219.299
 11
-5.58968
 21
-219.19
  0
LINE
  8
0
 10
-5.58968
 20
-219.19
 11
-6.03354
 21
-218.976
  0
LINE
  8
0
 10
-6.03354
 20
-218.976
 11
-6.4187
 21
-218.669
  0
LINE
  8
0
 10
-6.4187
 20
-218.669
 11
-6.72586
 21
-218.284
  0
LINE
  8
0
 10
-6.72586
 20
-218.284
 11
-6.93961
 21
-217.84
  0
LINE
  8
0
 10
-6.93961
 20
-217.84
 11
-7.04922
 21
-217.359
  0
LINE
  8
0
 10
-7.04922
 20
-217.359
 11
-7.04922
 21
-216.867
  0
LINE
  8
0
 10
-7.04922
 20
-216.867
 11
-6.93961
 21
-216.386
  0
LINE
  8
0
 10
-6.93961
 20
-216.386
 11
-6.72586
 21
-215.943
  0
LINE
  8
0
 10
-6.72586
 20
-215.943
 11
-6.4187
 21
-215.557
  0
LINE
  8
0
 10
-6.4187
 20
-215.557
 11
-6.03354
 21
-215.25
  0
LINE
  8
0
 10
-6.03354
 20
-215.25
 11
-5.58968
 21
-215.037
  0
LINE
  8
0
 10
-5.58968
 20
-215.037
 11
-5.10939
 21
-214.927
  0
LINE
  8
0
 10
-5.10939
 20
-214.927
 11
-4.61674
 21
-214.927
  0
LINE
  8
0
 10
-4.61674
 20
-214.927
 11
-4.13644
 21
-215.037
  0
LINE
  8
0
 10
-4.13644
 20
-215.037
 11
-3.6926
 21
-215.25
  0
LINE
  8
0
 10
-3.6926
 20
-215.25
 11
-3.30743
 21
-215.557
  0
LINE
  8
0
 10
-3.30743
 20
-215.557
 11
-3.00027
 21
-215.943
  0
LINE
  8
0
 10
-3.00027
 20
-215.943
 11
-2.78651
 21
-216.386
  0
LINE
  8
0
 10
-2.78651
 20
-216.386
 11
-2.6769
 21
-216.867
  0
LINE
  8
0
 10
-2.6769
 20
-216.867
 11
-2.6769
 21
-217.359
  0
LINE
  8
0
 10
-2.6769
 20
-217.359
 11
-2.78651
 21
-217.84
  0
LINE
  8
0
 10
-2.78651
 20
-217.84
 11
-3.00027
 21
-218.284
  0
LINE
  8
0
 10
-3.00027
 20
-218.284
 11
-3.30743
 21
-218.669
  0
LINE
  8
0
 10
-3.30743
 20
-218.669
 11
-3.6926
 21
-218.976
  0
LINE
  8
0
 10
-3.6926
 20
-218.976
 11
-4.13644
 21
-219.19
  0
LINE
  8
0
 10
-4.13644
 20
-219.19
 11
-4.61674
 21
-219.299
  0
LINE
  8
0
 10
-4.61674
 20
-219.299
 11
-5.10939
 21
-219.299
  0
LINE
  8
0
 10
-27.3832
 20
-219.299
 11
-27.8635
 21
-219.19
  0
LINE
  8
0
 10
-27.8635
 20
-219.19
 11
-28.3074
 21
-218.976
  0
LINE
  8
0
 10
-28.3074
 20
-218.976
 11
-28.6926
 21
-218.669
  0
LINE
  8
0
 10
-28.6926
 20
-218.669
 11
-28.9997
 21
-218.284
  0
LINE
  8
0
 10
-28.9997
 20
-218.284
 11
-29.2135
 21
-217.84
  0
LINE
  8
0
 10
-29.2135
 20
-217.84
 11
-29.3231
 21
-217.359
  0
LINE
  8
0
 10
-29.3231
 20
-217.359
 11
-29.3231
 21
-216.867
  0
LINE
  8
0
 10
-29.3231
 20
-216.867
 11
-29.2135
 21
-216.386
  0
LINE
  8
0
 10
-29.2135
 20
-216.386
 11
-28.9997
 21
-215.943
  0
LINE
  8
0
 10
-28.9997
 20
-215.943
 11
-28.6926
 21
-215.557
  0
LINE
  8
0
 10
-28.6926
 20
-215.557
 11
-28.3074
 21
-215.25
  0
LINE
  8
0
 10
-28.3074
 20
-215.25
 11
-27.8635
 21
-215.037
  0
LINE
  8
0
 10
-27.8635
 20
-215.037
 11
-27.3832
 21
-214.927
  0
LINE
  8
0
 10
-27.3832
 20
-214.927
 11
-26.8906
 21
-214.927
  0
LINE
  8
0
 10
-26.8906
 20
-214.927
 11
-26.4103
 21
-215.037
  0
LINE
  8
0
 10
-26.4103
 20
-215.037
 11
-25.9665
 21
-215.25
  0
LINE
  8
0
 10
-25.9665
 20
-215.25
 11
-25.5813
 21
-215.557
  0
LINE
  8
0
 10
-25.5813
 20
-215.557
 11
-25.2741
 21
-215.943
  0
LINE
  8
0
 10
-25.2741
 20
-215.943
 11
-25.0604
 21
-216.386
  0
LINE
  8
0
 10
-25.0604
 20
-216.386
 11
-24.9508
 21
-216.867
  0
LINE
  8
0
 10
-24.9508
 20
-216.867
 11
-24.9508
 21
-217.359
  0
LINE
  8
0
 10
-24.9508
 20
-217.359
 11
-25.0604
 21
-217.84
  0
LINE
  8
0
 10
-25.0604
 20
-217.84
 11
-25.2741
 21
-218.284
  0
LINE
  8
0
 10
-25.2741
 20
-218.284
 11
-25.5813
 21
-218.669
  0
LINE
  8
0
 10
-25.5813
 20
-218.669
 11
-25.9665
 21
-218.976
  0
LINE
  8
0
 10
-25.9665
 20
-218.976
 11
-26.4103
 21
-219.19
  0
LINE
  8
0
 10
-26.4103
 20
-219.19
 11
-26.8906
 21
-219.299
  0
LINE
  8
0
 10
-26.8906
 20
-219.299
 11
-27.3832
 21
-219.299
  0
LINE
  8
0
 10
-16.4996
 20
-238.738
 11
-16.9981
 21
-238.702
  0
LINE
  8
0
 10
-16.9981
 20
-238.702
 11
-17.4943
 21
-238.643
  0
LINE
  8
0
 10
-17.4943
 20
-238.643
 11
-17.9871
 21
-238.56
  0
LINE
  8
0
 10
-17.9871
 20
-238.56
 11
-18.4755
 21
-238.454
  0
LINE
  8
0
 10
-18.4755
 20
-238.454
 11
-18.9582
 21
-238.325
  0
LINE
  8
0
 10
-18.9582
 20
-238.325
 11
-19.4342
 21
-238.173
  0
LINE
  8
0
 10
-19.4342
 20
-238.173
 11
-19.9025
 21
-237.998
  0
LINE
  8
0
 10
-19.9025
 20
-237.998
 11
-20.3618
 21
-237.801
  0
LINE
  8
0
 10
-20.3618
 20
-237.801
 11
-20.8114
 21
-237.583
  0
LINE
  8
0
 10
-20.8114
 20
-237.583
 11
-21.25
 21
-237.343
  0
LINE
  8
0
 10
-21.25
 20
-237.343
 11
-21.6767
 21
-237.083
  0
LINE
  8
0
 10
-21.6767
 20
-237.083
 11
-22.0906
 21
-236.803
  0
LINE
  8
0
 10
-22.0906
 20
-236.803
 11
-22.4907
 21
-236.504
  0
LINE
  8
0
 10
-22.4907
 20
-236.504
 11
-22.876
 21
-236.185
  0
LINE
  8
0
 10
-22.876
 20
-236.185
 11
-23.2458
 21
-235.849
  0
LINE
  8
0
 10
-23.2458
 20
-235.849
 11
-23.5992
 21
-235.496
  0
LINE
  8
0
 10
-23.5992
 20
-235.496
 11
-23.9354
 21
-235.126
  0
LINE
  8
0
 10
-23.9354
 20
-235.126
 11
-24.2536
 21
-234.741
  0
LINE
  8
0
 10
-24.2536
 20
-234.741
 11
-24.553
 21
-234.341
  0
LINE
  8
0
 10
-24.553
 20
-234.341
 11
-24.8332
 21
-233.927
  0
LINE
  8
0
 10
-24.8332
 20
-233.927
 11
-25.0933
 21
-233.5
  0
LINE
  8
0
 10
-25.0933
 20
-233.5
 11
-25.3328
 21
-233.061
  0
LINE
  8
0
 10
-25.3328
 20
-233.061
 11
-25.5511
 21
-232.612
  0
LINE
  8
0
 10
-25.5511
 20
-232.612
 11
-25.7479
 21
-232.152
  0
LINE
  8
0
 10
-25.7479
 20
-232.152
 11
-25.9225
 21
-231.684
  0
LINE
  8
0
 10
-25.9225
 20
-231.684
 11
-26.0747
 21
-231.208
  0
LINE
  8
0
 10
-26.0747
 20
-231.208
 11
-26.204
 21
-230.725
  0
LINE
  8
0
 10
-26.204
 20
-230.725
 11
-26.3102
 21
-230.237
  0
LINE
  8
0
 10
-26.3102
 20
-230.237
 11
-26.3931
 21
-229.744
  0
LINE
  8
0
 10
-26.3931
 20
-229.744
 11
-26.4525
 21
-229.248
  0
LINE
  8
0
 10
-26.4525
 20
-229.248
 11
-26.4881
 21
-228.75
  0
LINE
  8
0
 10
-26.4881
 20
-228.75
 11
-26.5
 21
-228.25
  0
LINE
  8
0
 10
-26.5
 20
-228.25
 11
-26.4881
 21
-227.75
  0
LINE
  8
0
 10
-26.4881
 20
-227.75
 11
-26.4525
 21
-227.252
  0
LINE
  8
0
 10
-26.4525
 20
-227.252
 11
-26.3931
 21
-226.756
  0
LINE
  8
0
 10
-26.3931
 20
-226.756
 11
-26.3102
 21
-226.263
  0
LINE
  8
0
 10
-26.3102
 20
-226.263
 11
-26.204
 21
-225.775
  0
LINE
  8
0
 10
-26.204
 20
-225.775
 11
-26.0747
 21
-225.292
  0
LINE
  8
0
 10
-26.0747
 20
-225.292
 11
-25.9225
 21
-224.816
  0
LINE
  8
0
 10
-25.9225
 20
-224.816
 11
-25.7479
 21
-224.348
  0
LINE
  8
0
 10
-25.7479
 20
-224.348
 11
-25.5511
 21
-223.888
  0
LINE
  8
0
 10
-25.5511
 20
-223.888
 11
-25.3328
 21
-223.439
  0
LINE
  8
0
 10
-25.3328
 20
-223.439
 11
-25.0933
 21
-223
  0
LINE
  8
0
 10
-25.0933
 20
-223
 11
-24.8332
 21
-222.573
  0
LINE
  8
0
 10
-24.8332
 20
-222.573
 11
-24.553
 21
-222.159
  0
LINE
  8
0
 10
-24.553
 20
-222.159
 11
-24.2536
 21
-221.759
  0
LINE
  8
0
 10
-24.2536
 20
-221.759
 11
-23.9354
 21
-221.374
  0
LINE
  8
0
 10
-23.9354
 20
-221.374
 11
-23.5992
 21
-221.004
  0
LINE
  8
0
 10
-23.5992
 20
-221.004
 11
-23.2458
 21
-220.651
  0
LINE
  8
0
 10
-23.2458
 20
-220.651
 11
-22.876
 21
-220.315
  0
LINE
  8
0
 10
-22.876
 20
-220.315
 11
-22.4907
 21
-219.996
  0
LINE
  8
0
 10
-22.4907
 20
-219.996
 11
-22.0906
 21
-219.697
  0
LINE
  8
0
 10
-22.0906
 20
-219.697
 11
-21.6767
 21
-219.417
  0
LINE
  8
0
 10
-21.6767
 20
-219.417
 11
-21.25
 21
-219.157
  0
LINE
  8
0
 10
-21.25
 20
-219.157
 11
-20.8114
 21
-218.917
  0
LINE
  8
0
 10
-20.8114
 20
-218.917
 11
-20.3618
 21
-218.699
  0
LINE
  8
0
 10
-20.3618
 20
-218.699
 11
-19.9025
 21
-218.502
  0
LINE
  8
0
 10
-19.9025
 20
-218.502
 11
-19.4342
 21
-218.327
  0
LINE
  8
0
 10
-19.4342
 20
-218.327
 11
-18.9582
 21
-218.175
  0
LINE
  8
0
 10
-18.9582
 20
-218.175
 11
-18.4755
 21
-218.046
  0
LINE
  8
0
 10
-18.4755
 20
-218.046
 11
-17.9871
 21
-217.94
  0
LINE
  8
0
 10
-17.9871
 20
-217.94
 11
-17.4943
 21
-217.857
  0
LINE
  8
0
 10
-17.4943
 20
-217.857
 11
-16.9981
 21
-217.798
  0
LINE
  8
0
 10
-16.9981
 20
-217.798
 11
-16.4996
 21
-217.762
  0
LINE
  8
0
 10
-16.4996
 20
-217.762
 11
-16
 21
-217.75
  0
LINE
  8
0
 10
-16
 20
-217.75
 11
-15.5004
 21
-217.762
  0
LINE
  8
0
 10
-15.5004
 20
-217.762
 11
-15.0019
 21
-217.798
  0
LINE
  8
0
 10
-15.0019
 20
-217.798
 11
-14.5057
 21
-217.857
  0
LINE
  8
0
 10
-14.5057
 20
-217.857
 11
-14.0128
 21
-217.94
  0
LINE
  8
0
 10
-14.0128
 20
-217.94
 11
-13.5245
 21
-218.046
  0
LINE
  8
0
 10
-13.5245
 20
-218.046
 11
-13.0418
 21
-218.175
  0
LINE
  8
0
 10
-13.0418
 20
-218.175
 11
-12.5658
 21
-218.327
  0
LINE
  8
0
 10
-12.5658
 20
-218.327
 11
-12.0975
 21
-218.502
  0
LINE
  8
0
 10
-12.0975
 20
-218.502
 11
-11.6381
 21
-218.699
  0
LINE
  8
0
 10
-11.6381
 20
-218.699
 11
-11.1886
 21
-218.917
  0
LINE
  8
0
 10
-11.1886
 20
-218.917
 11
-10.75
 21
-219.157
  0
LINE
  8
0
 10
-10.75
 20
-219.157
 11
-10.3233
 21
-219.417
  0
LINE
  8
0
 10
-10.3233
 20
-219.417
 11
-9.90939
 21
-219.697
  0
LINE
  8
0
 10
-9.90939
 20
-219.697
 11
-9.50932
 21
-219.996
  0
LINE
  8
0
 10
-9.50932
 20
-219.996
 11
-9.12396
 21
-220.315
  0
LINE
  8
0
 10
-9.12396
 20
-220.315
 11
-8.75417
 21
-220.651
  0
LINE
  8
0
 10
-8.75417
 20
-220.651
 11
-8.40079
 21
-221.004
  0
LINE
  8
0
 10
-8.40079
 20
-221.004
 11
-8.06462
 21
-221.374
  0
LINE
  8
0
 10
-8.06462
 20
-221.374
 11
-7.74643
 21
-221.759
  0
LINE
  8
0
 10
-7.74643
 20
-221.759
 11
-7.44695
 21
-222.159
  0
LINE
  8
0
 10
-7.44695
 20
-222.159
 11
-7.16682
 21
-222.573
  0
LINE
  8
0
 10
-7.16682
 20
-222.573
 11
-6.90672
 21
-223
  0
LINE
  8
0
 10
-6.90672
 20
-223
 11
-6.66722
 21
-223.439
  0
LINE
  8
0
 10
-6.66722
 20
-223.439
 11
-6.44885
 21
-223.888
  0
LINE
  8
0
 10
-6.44885
 20
-223.888
 11
-6.25214
 21
-224.348
  0
LINE
  8
0
 10
-6.25214
 20
-224.348
 11
-6.07748
 21
-224.816
  0
LINE
  8
0
 10
-6.07748
 20
-224.816
 11
-5.92532
 21
-225.292
  0
LINE
  8
0
 10
-5.92532
 20
-225.292
 11
-5.79597
 21
-225.775
  0
LINE
  8
0
 10
-5.79597
 20
-225.775
 11
-5.68974
 21
-226.263
  0
LINE
  8
0
 10
-5.68974
 20
-226.263
 11
-5.60687
 21
-226.756
  0
LINE
  8
0
 10
-5.60687
 20
-226.756
 11
-5.54753
 21
-227.252
  0
LINE
  8
0
 10
-5.54753
 20
-227.252
 11
-5.51189
 21
-227.75
  0
LINE
  8
0
 10
-5.51189
 20
-227.75
 11
-5.5
 21
-228.25
  0
LINE
  8
0
 10
-5.5
 20
-228.25
 11
-5.51189
 21
-228.75
  0
LINE
  8
0
 10
-5.51189
 20
-228.75
 11
-5.54753
 21
-229.248
  0
LINE
  8
0
 10
-5.54753
 20
-229.248
 11
-5.60687
 21
-229.744
  0
LINE
  8
0
 10
-5.60687
 20
-229.744
 11
-5.68974
 21
-230.237
  0
LINE
  8
0
 10
-5.68974
 20
-230.237
 11
-5.79597
 21
-230.725
  0
LINE
  8
0
 10
-5.79597
 20
-230.725
 11
-5.92532
 21
-231.208
  0
LINE
  8
0
 10
-5.92532
 20
-231.208
 11
-6.07748
 21
-231.684
  0
LINE
  8
0
 10
-6.07748
 20
-231.684
 11
-6.25214
 21
-232.152
  0
LINE
  8
0
 10
-6.25214
 20
-232.152
 11
-6.44885
 21
-232.612
  0
LINE
  8
0
 10
-6.44885
 20
-232.612
 11
-6.66722
 21
-233.061
  0
LINE
  8
0
 10
-6.66722
 20
-233.061
 11
-6.90672
 21
-233.5
  0
LINE
  8
0
 10
-6.90672
 20
-233.5
 11
-7.16682
 21
-233.927
  0
LINE
  8
0
 10
-7.16682
 20
-233.927
 11
-7.44695
 21
-234.341
  0
LINE
  8
0
 10
-7.44695
 20
-234.341
 11
-7.74643
 21
-234.741
  0
LINE
  8
0
 10
-7.74643
 20
-234.741
 11
-8.06462
 21
-235.126
  0
LINE
  8
0
 10
-8.06462
 20
-235.126
 11
-8.40079
 21
-235.496
  0
LINE
  8
0
 10
-8.40079
 20
-235.496
 11
-8.75417
 21
-235.849
  0
LINE
  8
0
 10
-8.75417
 20
-235.849
 11
-9.12396
 21
-236.185
  0
LINE
  8
0
 10
-9.12396
 20
-236.185
 11
-9.50932
 21
-236.504
  0
LINE
  8
0
 10
-9.50932
 20
-236.504
 11
-9.90939
 21
-236.803
  0
LINE
  8
0
 10
-9.90939
 20
-236.803
 11
-10.3233
 21
-237.083
  0
LINE
  8
0
 10
-10.3233
 20
-237.083
 11
-10.75
 21
-237.343
  0
LINE
  8
0
 10
-10.75
 20
-237.343
 11
-11.1886
 21
-237.583
  0
LINE
  8
0
 10
-11.1886
 20
-237.583
 11
-11.6381
 21
-237.801
  0
LINE
  8
0
 10
-11.6381
 20
-237.801
 11
-12.0975
 21
-237.998
  0
LINE
  8
0
 10
-12.0975
 20
-237.998
 11
-12.5658
 21
-238.173
  0
LINE
  8
0
 10
-12.5658
 20
-238.173
 11
-13.0418
 21
-238.325
  0
LINE
  8
0
 10
-13.0418
 20
-238.325
 11
-13.5245
 21
-238.454
  0
LINE
  8
0
 10
-13.5245
 20
-238.454
 11
-14.0128
 21
-238.56
  0
LINE
  8
0
 10
-14.0128
 20
-238.56
 11
-14.5057
 21
-238.643
  0
LINE
  8
0
 10
-14.5057
 20
-238.643
 11
-15.0019
 21
-238.702
  0
LINE
  8
0
 10
-15.0019
 20
-238.702
 11
-15.5004
 21
-238.738
  0
LINE
  8
0
 10
-15.5004
 20
-238.738
 11
-16
 21
-238.75
  0
LINE
  8
0
 10
-16
 20
-238.75
 11
-16.4996
 21
-238.738
  0
LINE
  8
0
 10
-27.3832
 20
-241.573
 11
-27.8635
 21
-241.463
  0
LINE
  8
0
 10
-27.8635
 20
-241.463
 11
-28.3074
 21
-241.25
  0
LINE
  8
0
 10
-28.3074
 20
-241.25
 11
-28.6926
 21
-240.943
  0
LINE
  8
0
 10
-28.6926
 20
-240.943
 11
-28.9997
 21
-240.557
  0
LINE
  8
0
 10
-28.9997
 20
-240.557
 11
-29.2135
 21
-240.114
  0
LINE
  8
0
 10
-29.2135
 20
-240.114
 11
-29.3231
 21
-239.633
  0
LINE
  8
0
 10
-29.3231
 20
-239.633
 11
-29.3231
 21
-239.141
  0
LINE
  8
0
 10
-29.3231
 20
-239.141
 11
-29.2135
 21
-238.66
  0
LINE
  8
0
 10
-29.2135
 20
-238.66
 11
-28.9997
 21
-238.216
  0
LINE
  8
0
 10
-28.9997
 20
-238.216
 11
-28.6926
 21
-237.831
  0
LINE
  8
0
 10
-28.6926
 20
-237.831
 11
-28.3074
 21
-237.524
  0
LINE
  8
0
 10
-28.3074
 20
-237.524
 11
-27.8635
 21
-237.31
  0
LINE
  8
0
 10
-27.8635
 20
-237.31
 11
-27.3832
 21
-237.201
  0
LINE
  8
0
 10
-27.3832
 20
-237.201
 11
-26.8906
 21
-237.201
  0
LINE
  8
0
 10
-26.8906
 20
-237.201
 11
-26.4103
 21
-237.31
  0
LINE
  8
0
 10
-26.4103
 20
-237.31
 11
-25.9665
 21
-237.524
  0
LINE
  8
0
 10
-25.9665
 20
-237.524
 11
-25.5813
 21
-237.831
  0
LINE
  8
0
 10
-25.5813
 20
-237.831
 11
-25.2741
 21
-238.216
  0
LINE
  8
0
 10
-25.2741
 20
-238.216
 11
-25.0604
 21
-238.66
  0
LINE
  8
0
 10
-25.0604
 20
-238.66
 11
-24.9508
 21
-239.141
  0
LINE
  8
0
 10
-24.9508
 20
-239.141
 11
-24.9508
 21
-239.633
  0
LINE
  8
0
 10
-24.9508
 20
-239.633
 11
-25.0604
 21
-240.114
  0
LINE
  8
0
 10
-25.0604
 20
-240.114
 11
-25.2741
 21
-240.557
  0
LINE
  8
0
 10
-25.2741
 20
-240.557
 11
-25.5813
 21
-240.943
  0
LINE
  8
0
 10
-25.5813
 20
-240.943
 11
-25.9665
 21
-241.25
  0
LINE
  8
0
 10
-25.9665
 20
-241.25
 11
-26.4103
 21
-241.463
  0
LINE
  8
0
 10
-26.4103
 20
-241.463
 11
-26.8906
 21
-241.573
  0
LINE
  8
0
 10
-26.8906
 20
-241.573
 11
-27.3832
 21
-241.573
  0
LINE
  8
0
 10
-5.10939
 20
-241.573
 11
-5.58968
 21
-241.463
  0
LINE
  8
0
 10
-5.58968
 20
-241.463
 11
-6.03354
 21
-241.25
  0
LINE
  8
0
 10
-6.03354
 20
-241.25
 11
-6.4187
 21
-240.943
  0
LINE
  8
0
 10
-6.4187
 20
-240.943
 11
-6.72586
 21
-240.557
  0
LINE
  8
0
 10
-6.72586
 20
-240.557
 11
-6.93961
 21
-240.114
  0
LINE
  8
0
 10
-6.93961
 20
-240.114
 11
-7.04922
 21
-239.633
  0
LINE
  8
0
 10
-7.04922
 20
-239.633
 11
-7.04922
 21
-239.141
  0
LINE
  8
0
 10
-7.04922
 20
-239.141
 11
-6.93961
 21
-238.66
  0
LINE
  8
0
 10
-6.93961
 20
-238.66
 11
-6.72586
 21
-238.216
  0
LINE
  8
0
 10
-6.72586
 20
-238.216
 11
-6.4187
 21
-237.831
  0
LINE
  8
0
 10
-6.4187
 20
-237.831
 11
-6.03354
 21
-237.524
  0
LINE
  8
0
 10
-6.03354
 20
-237.524
 11
-5.58968
 21
-237.31
  0
LINE
  8
0
 10
-5.58968
 20
-237.31
 11
-5.10939
 21
-237.201
  0
LINE
  8
0
 10
-5.10939
 20
-237.201
 11
-4.61674
 21
-237.201
  0
LINE
  8
0
 10
-4.61674
 20
-237.201
 11
-4.13644
 21
-237.31
  0
LINE
  8
0
 10
-4.13644
 20
-237.31
 11
-3.6926
 21
-237.524
  0
LINE
  8
0
 10
-3.6926
 20
-237.524
 11
-3.30743
 21
-237.831
  0
LINE
  8
0
 10
-3.30743
 20
-237.831
 11
-3.00027
 21
-238.216
  0
LINE
  8
0
 10
-3.00027
 20
-238.216
 11
-2.78651
 21
-238.66
  0
LINE
  8
0
 10
-2.78651
 20
-238.66
 11
-2.6769
 21
-239.141
  0
LINE
  8
0
 10
-2.6769
 20
-239.141
 11
-2.6769
 21
-239.633
  0
LINE
  8
0
 10
-2.6769
 20
-239.633
 11
-2.78651
 21
-240.114
  0
LINE
  8
0
 10
-2.78651
 20
-240.114
 11
-3.00027
 21
-240.557
  0
LINE
  8
0
 10
-3.00027
 20
-240.557
 11
-3.30743
 21
-240.943
  0
LINE
  8
0
 10
-3.30743
 20
-240.943
 11
-3.6926
 21
-241.25
  0
LINE
  8
0
 10
-3.6926
 20
-241.25
 11
-4.13644
 21
-241.463
  0
LINE
  8
0
 10
-4.13644
 20
-241.463
 11
-4.61674
 21
-241.573
  0
LINE
  8
0
 10
-4.61674
 20
-241.573
 11
-5.10939
 21
-241.573
  0
LINE
  8
0
 10
27.5718
 20
-243.564
 11
28.0628
 21
-243.484
  0
LINE
  8
0
 10
28.0628
 20
-243.484
 11
28.5409
 21
-243.345
  0
LINE
  8
0
 10
28.5409
 20
-243.345
 11
103.292
 21
-218.833
  0
LINE
  8
0
 10
103.292
 20
-218.833
 11
103.766
 21
-218.673
  0
LINE
  8
0
 10
103.766
 20
-218.673
 11
104.237
 21
-218.505
  0
LINE
  8
0
 10
104.237
 20
-218.505
 11
104.705
 21
-218.329
  0
LINE
  8
0
 10
104.705
 20
-218.329
 11
104.872
 21
-218.262
  0
LINE
  8
0
 10
104.872
 20
-218.262
 11
123.894
 21
-191.097
  0
LINE
  8
0
 10
123.894
 20
-191.097
 11
123.899
 21
-190.917
  0
LINE
  8
0
 10
123.899
 20
-190.917
 11
123.904
 21
-190.417
  0
LINE
  8
0
 10
123.904
 20
-190.417
 11
123.901
 21
-189.917
  0
LINE
  8
0
 10
123.901
 20
-189.917
 11
123.89
 21
-189.417
  0
LINE
  8
0
 10
123.89
 20
-189.417
 11
123.871
 21
-188.917
  0
LINE
  8
0
 10
123.871
 20
-188.917
 11
123.843
 21
-188.418
  0
LINE
  8
0
 10
123.843
 20
-188.418
 11
123.807
 21
-187.919
  0
LINE
  8
0
 10
123.807
 20
-187.919
 11
123.762
 21
-187.421
  0
LINE
  8
0
 10
123.762
 20
-187.421
 11
123.709
 21
-186.924
  0
LINE
  8
0
 10
123.709
 20
-186.924
 11
123.648
 21
-186.428
  0
LINE
  8
0
 10
123.648
 20
-186.428
 11
123.579
 21
-185.933
  0
LINE
  8
0
 10
123.579
 20
-185.933
 11
123.501
 21
-185.439
  0
LINE
  8
0
 10
123.501
 20
-185.439
 11
123.415
 21
-184.946
  0
LINE
  8
0
 10
123.415
 20
-184.946
 11
123.321
 21
-184.455
  0
LINE
  8
0
 10
123.321
 20
-184.455
 11
123.219
 21
-183.966
  0
LINE
  8
0
 10
123.219
 20
-183.966
 11
123.109
 21
-183.478
  0
LINE
  8
0
 10
123.109
 20
-183.478
 11
122.991
 21
-182.992
  0
LINE
  8
0
 10
122.991
 20
-182.992
 11
122.864
 21
-182.509
  0
LINE
  8
0
 10
122.864
 20
-182.509
 11
122.73
 21
-182.027
  0
LINE
  8
0
 10
122.73
 20
-182.027
 11
122.587
 21
-181.548
  0
LINE
  8
0
 10
122.587
 20
-181.548
 11
122.437
 21
-181.071
  0
LINE
  8
0
 10
122.437
 20
-181.071
 11
122.278
 21
-180.597
  0
LINE
  8
0
 10
122.278
 20
-180.597
 11
122.112
 21
-180.125
  0
LINE
  8
0
 10
122.112
 20
-180.125
 11
121.938
 21
-179.657
  0
LINE
  8
0
 10
121.938
 20
-179.657
 11
121.828
 21
-179.375
  0
LINE
  8
0
 10
121.828
 20
-179.375
 11
91.2225
 21
-157.945
  0
LINE
  8
0
 10
91.2225
 20
-157.945
 11
96.3703
 21
-131.028
  0
LINE
  8
0
 10
96.3703
 20
-131.028
 11
93.0937
 21
-128.734
  0
LINE
  8
0
 10
93.0937
 20
-128.734
 11
76.46
 21
-152.489
  0
LINE
  8
0
 10
76.46
 20
-152.489
 11
66.6302
 21
-145.606
  0
LINE
  8
0
 10
66.6302
 20
-145.606
 11
83.2639
 21
-121.851
  0
LINE
  8
0
 10
83.2639
 20
-121.851
 11
79.9873
 21
-119.557
  0
LINE
  8
0
 10
79.9873
 20
-119.557
 11
49.6859
 21
-137.639
  0
LINE
  8
0
 10
49.6859
 20
-137.639
 11
3.93715
 21
-147.016
  0
LINE
  8
0
 10
3.93715
 20
-147.016
 11
3.45912
 21
-147.155
  0
LINE
  8
0
 10
3.45912
 20
-147.155
 11
3.00079
 21
-147.348
  0
LINE
  8
0
 10
3.00079
 20
-147.348
 11
2.56862
 21
-147.595
  0
LINE
  8
0
 10
2.56862
 20
-147.595
 11
2.16866
 21
-147.891
  0
LINE
  8
0
 10
2.16866
 20
-147.891
 11
1.8065
 21
-148.233
  0
LINE
  8
0
 10
1.8065
 20
-148.233
 11
1.48727
 21
-148.614
  0
LINE
  8
0
 10
1.48727
 20
-148.614
 11
1.21542
 21
-149.031
  0
LINE
  8
0
 10
1.21542
 20
-149.031
 11
0.994781
 21
-149.477
  0
LINE
  8
0
 10
0.994781
 20
-149.477
 11
0.828445
 21
-149.946
  0
LINE
  8
0
 10
0.828445
 20
-149.946
 11
0.718735
 21
-150.431
  0
LINE
  8
0
 10
0.718735
 20
-150.431
 11
0.667206
 21
-150.926
  0
LINE
  8
0
 10
0.667206
 20
-150.926
 11
0.663528
 21
-173.325
  0
LINE
  8
0
 10
0.663528
 20
-173.325
 11
0.663528
 21
-239.325
  0
LINE
  8
0
 10
0.663528
 20
-239.325
 11
0.685638
 21
-239.822
  0
LINE
  8
0
 10
0.685638
 20
-239.822
 11
0.766388
 21
-240.313
  0
LINE
  8
0
 10
0.766388
 20
-240.313
 11
0.904663
 21
-240.791
  0
LINE
  8
0
 10
0.904663
 20
-240.791
 11
1.0985
 21
-241.249
  0
LINE
  8
0
 10
1.0985
 20
-241.249
 11
1.34517
 21
-241.681
  0
LINE
  8
0
 10
1.34517
 20
-241.681
 11
1.64124
 21
-242.081
  0
LINE
  8
0
 10
1.64124
 20
-242.081
 11
1.98253
 21
-242.443
  0
LINE
  8
0
 10
1.98253
 20
-242.443
 11
2.36424
 21
-242.763
  0
LINE
  8
0
 10
2.36424
 20
-242.763
 11
2.78105
 21
-243.035
  0
LINE
  8
0
 10
2.78105
 20
-243.035
 11
3.22708
 21
-243.255
  0
LINE
  8
0
 10
3.22708
 20
-243.255
 11
3.69608
 21
-243.422
  0
LINE
  8
0
 10
3.69608
 20
-243.422
 11
4.18146
 21
-243.531
  0
LINE
  8
0
 10
4.18146
 20
-243.531
 11
4.67641
 21
-243.583
  0
LINE
  8
0
 10
4.67641
 20
-243.583
 11
27.0747
 21
-243.586
  0
LINE
  8
0
 10
27.0747
 20
-243.586
 11
27.5718
 21
-243.564
  0
LINE
  8
0
 10
55.2759
 20
-146.746
 11
54.8256
 21
-146.552
  0
LINE
  8
0
 10
54.8256
 20
-146.552
 11
54.4441
 21
-146.244
  0
LINE
  8
0
 10
54.4441
 20
-146.244
 11
54.1599
 21
-145.845
  0
LINE
  8
0
 10
54.1599
 20
-145.845
 11
53.994
 21
-145.384
  0
LINE
  8
0
 10
53.994
 20
-145.384
 11
53.8712
 21
-144.687
  0
LINE
  8
0
 10
53.8712
 20
-144.687
 11
53.8359
 21
-144.199
  0
LINE
  8
0
 10
53.8359
 20
-144.199
 11
53.9338
 21
-143.718
  0
LINE
  8
0
 10
53.9338
 20
-143.718
 11
54.1577
 21
-143.282
  0
LINE
  8
0
 10
54.1577
 20
-143.282
 11
54.4909
 21
-142.923
  0
LINE
  8
0
 10
54.4909
 20
-142.923
 11
54.9088
 21
-142.666
  0
LINE
  8
0
 10
54.9088
 20
-142.666
 11
55.3803
 21
-142.532
  0
LINE
  8
0
 10
55.3803
 20
-142.532
 11
55.8705
 21
-142.53
  0
LINE
  8
0
 10
55.8705
 20
-142.53
 11
56.343
 21
-142.661
  0
LINE
  8
0
 10
56.343
 20
-142.661
 11
56.7628
 21
-142.914
  0
LINE
  8
0
 10
56.7628
 20
-142.914
 11
57.0988
 21
-143.271
  0
LINE
  8
0
 10
57.0988
 20
-143.271
 11
57.3259
 21
-143.705
  0
LINE
  8
0
 10
57.3259
 20
-143.705
 11
57.4275
 21
-144.185
  0
LINE
  8
0
 10
57.4275
 20
-144.185
 11
57.5503
 21
-144.881
  0
LINE
  8
0
 10
57.5503
 20
-144.881
 11
57.5187
 21
-145.37
  0
LINE
  8
0
 10
57.5187
 20
-145.37
 11
57.3563
 21
-145.833
  0
LINE
  8
0
 10
57.3563
 20
-145.833
 11
57.0751
 21
-146.234
  0
LINE
  8
0
 10
57.0751
 20
-146.234
 11
56.696
 21
-146.545
  0
LINE
  8
0
 10
56.696
 20
-146.545
 11
56.2472
 21
-146.742
  0
LINE
  8
0
 10
56.2472
 20
-146.742
 11
55.7618
 21
-146.811
  0
LINE
  8
0
 10
55.7618
 20
-146.811
 11
55.2759
 21
-146.746
  0
LINE
  8
0
 10
26.8906
 20
-153.299
 11
26.4103
 21
-153.19
  0
LINE
  8
0
 10
26.4103
 20
-153.19
 11
25.9665
 21
-152.976
  0
LINE
  8
0
 10
25.9665
 20
-152.976
 11
25.5813
 21
-152.669
  0
LINE
  8
0
 10
25.5813
 20
-152.669
 11
25.2741
 21
-152.284
  0
LINE
  8
0
 10
25.2741
 20
-152.284
 11
25.0604
 21
-151.84
  0
LINE
  8
0
 10
25.0604
 20
-151.84
 11
24.9508
 21
-151.359
  0
LINE
  8
0
 10
24.9508
 20
-151.359
 11
24.9508
 21
-150.867
  0
LINE
  8
0
 10
24.9508
 20
-150.867
 11
25.0604
 21
-150.386
  0
LINE
  8
0
 10
25.0604
 20
-150.386
 11
25.2741
 21
-149.943
  0
LINE
  8
0
 10
25.2741
 20
-149.943
 11
25.5813
 21
-149.557
  0
LINE
  8
0
 10
25.5813
 20
-149.557
 11
25.9665
 21
-149.25
  0
LINE
  8
0
 10
25.9665
 20
-149.25
 11
26.4103
 21
-149.037
  0
LINE
  8
0
 10
26.4103
 20
-149.037
 11
26.8906
 21
-148.927
  0
LINE
  8
0
 10
26.8906
 20
-148.927
 11
27.3832
 21
-148.927
  0
LINE
  8
0
 10
27.3832
 20
-148.927
 11
27.8635
 21
-149.037
  0
LINE
  8
0
 10
27.8635
 20
-149.037
 11
28.3074
 21
-149.25
  0
LINE
  8
0
 10
28.3074
 20
-149.25
 11
28.6926
 21
-149.557
  0
LINE
  8
0
 10
28.6926
 20
-149.557
 11
28.9997
 21
-149.943
  0
LINE
  8
0
 10
28.9997
 20
-149.943
 11
29.2135
 21
-150.386
  0
LINE
  8
0
 10
29.2135
 20
-150.386
 11
29.3231
 21
-150.867
  0
LINE
  8
0
 10
29.3231
 20
-150.867
 11
29.3231
 21
-151.359
  0
LINE
  8
0
 10
29.3231
 20
-151.359
 11
29.2135
 21
-151.84
  0
LINE
  8
0
 10
29.2135
 20
-151.84
 11
28.9997
 21
-152.284
  0
LINE
  8
0
 10
28.9997
 20
-152.284
 11
28.6926
 21
-152.669
  0
LINE
  8
0
 10
28.6926
 20
-152.669
 11
28.3074
 21
-152.976
  0
LINE
  8
0
 10
28.3074
 20
-152.976
 11
27.8635
 21
-153.19
  0
LINE
  8
0
 10
27.8635
 20
-153.19
 11
27.3832
 21
-153.299
  0
LINE
  8
0
 10
27.3832
 20
-153.299
 11
26.8906
 21
-153.299
  0
LINE
  8
0
 10
4.61674
 20
-153.299
 11
4.13644
 21
-153.19
  0
LINE
  8
0
 10
4.13644
 20
-153.19
 11
3.6926
 21
-152.976
  0
LINE
  8
0
 10
3.6926
 20
-152.976
 11
3.30743
 21
-152.669
  0
LINE
  8
0
 10
3.30743
 20
-152.669
 11
3.00027
 21
-152.284
  0
LINE
  8
0
 10
3.00027
 20
-152.284
 11
2.78651
 21
-151.84
  0
LINE
  8
0
 10
2.78651
 20
-151.84
 11
2.6769
 21
-151.359
  0
LINE
  8
0
 10
2.6769
 20
-151.359
 11
2.6769
 21
-150.867
  0
LINE
  8
0
 10
2.6769
 20
-150.867
 11
2.78651
 21
-150.386
  0
LINE
  8
0
 10
2.78651
 20
-150.386
 11
3.00027
 21
-149.943
  0
LINE
  8
0
 10
3.00027
 20
-149.943
 11
3.30743
 21
-149.557
  0
LINE
  8
0
 10
3.30743
 20
-149.557
 11
3.6926
 21
-149.25
  0
LINE
  8
0
 10
3.6926
 20
-149.25
 11
4.13644
 21
-149.037
  0
LINE
  8
0
 10
4.13644
 20
-149.037
 11
4.61674
 21
-148.927
  0
LINE
  8
0
 10
4.61674
 20
-148.927
 11
5.10939
 21
-148.927
  0
LINE
  8
0
 10
5.10939
 20
-148.927
 11
5.58968
 21
-149.037
  0
LINE
  8
0
 10
5.58968
 20
-149.037
 11
6.03354
 21
-149.25
  0
LINE
  8
0
 10
6.03354
 20
-149.25
 11
6.4187
 21
-149.557
  0
LINE
  8
0
 10
6.4187
 20
-149.557
 11
6.72586
 21
-149.943
  0
LINE
  8
0
 10
6.72586
 20
-149.943
 11
6.93961
 21
-150.386
  0
LINE
  8
0
 10
6.93961
 20
-150.386
 11
7.04922
 21
-150.867
  0
LINE
  8
0
 10
7.04922
 20
-150.867
 11
7.04922
 21
-151.359
  0
LINE
  8
0
 10
7.04922
 20
-151.359
 11
6.93961
 21
-151.84
  0
LINE
  8
0
 10
6.93961
 20
-151.84
 11
6.72586
 21
-152.284
  0
LINE
  8
0
 10
6.72586
 20
-152.284
 11
6.4187
 21
-152.669
  0
LINE
  8
0
 10
6.4187
 20
-152.669
 11
6.03354
 21
-152.976
  0
LINE
  8
0
 10
6.03354
 20
-152.976
 11
5.58968
 21
-153.19
  0
LINE
  8
0
 10
5.58968
 20
-153.19
 11
5.10939
 21
-153.299
  0
LINE
  8
0
 10
5.10939
 20
-153.299
 11
4.61674
 21
-153.299
  0
LINE
  8
0
 10
15.5004
 20
-172.738
 11
15.0019
 21
-172.702
  0
LINE
  8
0
 10
15.0019
 20
-172.702
 11
14.5057
 21
-172.643
  0
LINE
  8
0
 10
14.5057
 20
-172.643
 11
14.0128
 21
-172.56
  0
LINE
  8
0
 10
14.0128
 20
-172.56
 11
13.5245
 21
-172.454
  0
LINE
  8
0
 10
13.5245
 20
-172.454
 11
13.0418
 21
-172.325
  0
LINE
  8
0
 10
13.0418
 20
-172.325
 11
12.5658
 21
-172.173
  0
LINE
  8
0
 10
12.5658
 20
-172.173
 11
12.0975
 21
-171.998
  0
LINE
  8
0
 10
12.0975
 20
-171.998
 11
11.6381
 21
-171.801
  0
LINE
  8
0
 10
11.6381
 20
-171.801
 11
11.1886
 21
-171.583
  0
LINE
  8
0
 10
11.1886
 20
-171.583
 11
10.75
 21
-171.343
  0
LINE
  8
0
 10
10.75
 20
-171.343
 11
10.3233
 21
-171.083
  0
LINE
  8
0
 10
10.3233
 20
-171.083
 11
9.90939
 21
-170.803
  0
LINE
  8
0
 10
9.90939
 20
-170.803
 11
9.50932
 21
-170.504
  0
LINE
  8
0
 10
9.50932
 20
-170.504
 11
9.12396
 21
-170.185
  0
LINE
  8
0
 10
9.12396
 20
-170.185
 11
8.75417
 21
-169.849
  0
LINE
  8
0
 10
8.75417
 20
-169.849
 11
8.40079
 21
-169.496
  0
LINE
  8
0
 10
8.40079
 20
-169.496
 11
8.06462
 21
-169.126
  0
LINE
  8
0
 10
8.06462
 20
-169.126
 11
7.74643
 21
-168.741
  0
LINE
  8
0
 10
7.74643
 20
-168.741
 11
7.44695
 21
-168.341
  0
LINE
  8
0
 10
7.44695
 20
-168.341
 11
7.16682
 21
-167.927
  0
LINE
  8
0
 10
7.16682
 20
-167.927
 11
6.90672
 21
-167.5
  0
LINE
  8
0
 10
6.90672
 20
-167.5
 11
6.66722
 21
-167.061
  0
LINE
  8
0
 10
6.66722
 20
-167.061
 11
6.44885
 21
-166.612
  0
LINE
  8
0
 10
6.44885
 20
-166.612
 11
6.25214
 21
-166.152
  0
LINE
  8
0
 10
6.25214
 20
-166.152
 11
6.07748
 21
-165.684
  0
LINE
  8
0
 10
6.07748
 20
-165.684
 11
5.92532
 21
-165.208
  0
LINE
  8
0
 10
5.92532
 20
-165.208
 11
5.79597
 21
-164.725
  0
LINE
  8
0
 10
5.79597
 20
-164.725
 11
5.68974
 21
-164.237
  0
LINE
  8
0
 10
5.68974
 20
-164.237
 11
5.60687
 21
-163.744
  0
LINE
  8
0
 10
5.60687
 20
-163.744
 11
5.54753
 21
-163.248
  0
LINE
  8
0
 10
5.54753
 20
-163.248
 11
5.51189
 21
-162.75
  0
LINE
  8
0
 10
5.51189
 20
-162.75
 11
5.5
 21
-162.25
  0
LINE
  8
0
 10
5.5
 20
-162.25
 11
5.51189
 21
-161.75
  0
LINE
  8
0
 10
5.51189
 20
-161.75
 11
5.54753
 21
-161.252
  0
LINE
  8
0
 10
5.54753
 20
-161.252
 11
5.60687
 21
-160.756
  0
LINE
  8
0
 10
5.60687
 20
-160.756
 11
5.68974
 21
-160.263
  0
LINE
  8
0
 10
5.68974
 20
-160.263
 11
5.79597
 21
-159.775
  0
LINE
  8
0
 10
5.79597
 20
-159.775
 11
5.92532
 21
-159.292
  0
LINE
  8
0
 10
5.92532
 20
-159.292
 11
6.07748
 21
-158.816
  0
LINE
  8
0
 10
6.07748
 20
-158.816
 11
6.25214
 21
-158.348
  0
LINE
  8
0
 10
6.25214
 20
-158.348
 11
6.44885
 21
-157.888
  0
LINE
  8
0
 10
6.44885
 20
-157.888
 11
6.66722
 21
-157.439
  0
LINE
  8
0
 10
6.66722
 20
-157.439
 11
6.90672
 21
-157
  0
LINE
  8
0
 10
6.90672
 20
-157
 11
7.16682
 21
-156.573
  0
LINE
  8
0
 10
7.16682
 20
-156.573
 11
7.44695
 21
-156.159
  0
LINE
  8
0
 10
7.44695
 20
-156.159
 11
7.74643
 21
-155.759
  0
LINE
  8
0
 10
7.74643
 20
-155.759
 11
8.06462
 21
-155.374
  0
LINE
  8
0
 10
8.06462
 20
-155.374
 11
8.40079
 21
-155.004
  0
LINE
  8
0
 10
8.40079
 20
-155.004
 11
8.75417
 21
-154.651
  0
LINE
  8
0
 10
8.75417
 20
-154.651
 11
9.12396
 21
-154.315
  0
LINE
  8
0
 10
9.12396
 20
-154.315
 11
9.50932
 21
-153.996
  0
LINE
  8
0
 10
9.50932
 20
-153.996
 11
9.90939
 21
-153.697
  0
LINE
  8
0
 10
9.90939
 20
-153.697
 11
10.3233
 21
-153.417
  0
LINE
  8
0
 10
10.3233
 20
-153.417
 11
10.75
 21
-153.157
  0
LINE
  8
0
 10
10.75
 20
-153.157
 11
11.1886
 21
-152.917
  0
LINE
  8
0
 10
11.1886
 20
-152.917
 11
11.6381
 21
-152.699
  0
LINE
  8
0
 10
11.6381
 20
-152.699
 11
12.0975
 21
-152.502
  0
LINE
  8
0
 10
12.0975
 20
-152.502
 11
12.5658
 21
-152.327
  0
LINE
  8
0
 10
12.5658
 20
-152.327
 11
13.0418
 21
-152.175
  0
LINE
  8
0
 10
13.0418
 20
-152.175
 11
13.5245
 21
-152.046
  0
LINE
  8
0
 10
13.5245
 20
-152.046
 11
14.0128
 21
-151.94
  0
LINE
  8
0
 10
14.0128
 20
-151.94
 11
14.5057
 21
-151.857
  0
LINE
  8
0
 10
14.5057
 20
-151.857
 11
15.0019
 21
-151.798
  0
LINE
  8
0
 10
15.0019
 20
-151.798
 11
15.5004
 21
-151.762
  0
LINE
  8
0
 10
15.5004
 20
-151.762
 11
16
 21
-151.75
  0
LINE
  8
0
 10
16
 20
-151.75
 11
16.4996
 21
-151.762
  0
LINE
  8
0
 10
16.4996
 20
-151.762
 11
16.9981
 21
-151.798
  0
LINE
  8
0
 10
16.9981
 20
-151.798
 11
17.4943
 21
-151.857
  0
LINE
  8
0
 10
17.4943
 20
-151.857
 11
17.9871
 21
-151.94
  0
LINE
  8
0
 10
17.9871
 20
-151.94
 11
18.4755
 21
-152.046
  0
LINE
  8
0
 10
18.4755
 20
-152.046
 11
18.9582
 21
-152.175
  0
LINE
  8
0
 10
18.9582
 20
-152.175
 11
19.4342
 21
-152.327
  0
LINE
  8
0
 10
19.4342
 20
-152.327
 11
19.9025
 21
-152.502
  0
LINE
  8
0
 10
19.9025
 20
-152.502
 11
20.3618
 21
-152.699
  0
LINE
  8
0
 10
20.3618
 20
-152.699
 11
20.8114
 21
-152.917
  0
LINE
  8
0
 10
20.8114
 20
-152.917
 11
21.25
 21
-153.157
  0
LINE
  8
0
 10
21.25
 20
-153.157
 11
21.6767
 21
-153.417
  0
LINE
  8
0
 10
21.6767
 20
-153.417
 11
22.0906
 21
-153.697
  0
LINE
  8
0
 10
22.0906
 20
-153.697
 11
22.4907
 21
-153.996
  0
LINE
  8
0
 10
22.4907
 20
-153.996
 11
22.876
 21
-154.315
  0
LINE
  8
0
 10
22.876
 20
-154.315
 11
23.2458
 21
-154.651
  0
LINE
  8
0
 10
23.2458
 20
-154.651
 11
23.5992
 21
-155.004
  0
LINE
  8
0
 10
23.5992
 20
-155.004
 11
23.9354
 21
-155.374
  0
LINE
  8
0
 10
23.9354
 20
-155.374
 11
24.2536
 21
-155.759
  0
LINE
  8
0
 10
24.2536
 20
-155.759
 11
24.553
 21
-156.159
  0
LINE
  8
0
 10
24.553
 20
-156.159
 11
24.8332
 21
-156.573
  0
LINE
  8
0
 10
24.8332
 20
-156.573
 11
25.0933
 21
-157
  0
LINE
  8
0
 10
25.0933
 20
-157
 11
25.3328
 21
-157.439
  0
LINE
  8
0
 10
25.3328
 20
-157.439
 11
25.5511
 21
-157.888
  0
LINE
  8
0
 10
25.5511
 20
-157.888
 11
25.7479
 21
-158.348
  0
LINE
  8
0
 10
25.7479
 20
-158.348
 11
25.9225
 21
-158.816
  0
LINE
  8
0
 10
25.9225
 20
-158.816
 11
26.0747
 21
-159.292
  0
LINE
  8
0
 10
26.0747
 20
-159.292
 11
26.204
 21
-159.775
  0
LINE
  8
0
 10
26.204
 20
-159.775
 11
26.3102
 21
-160.263
  0
LINE
  8
0
 10
26.3102
 20
-160.263
 11
26.3931
 21
-160.756
  0
LINE
  8
0
 10
26.3931
 20
-160.756
 11
26.4525
 21
-161.252
  0
LINE
  8
0
 10
26.4525
 20
-161.252
 11
26.4881
 21
-161.75
  0
LINE
  8
0
 10
26.4881
 20
-161.75
 11
26.5
 21
-162.25
  0
LINE
  8
0
 10
26.5
 20
-162.25
 11
26.4881
 21
-162.75
  0
LINE
  8
0
 10
26.4881
 20
-162.75
 11
26.4525
 21
-163.248
  0
LINE
  8
0
 10
26.4525
 20
-163.248
 11
26.3931
 21
-163.744
  0
LINE
  8
0
 10
26.3931
 20
-163.744
 11
26.3102
 21
-164.237
  0
LINE
  8
0
 10
26.3102
 20
-164.237
 11
26.204
 21
-164.725
  0
LINE
  8
0
 10
26.204
 20
-164.725
 11
26.0747
 21
-165.208
  0
LINE
  8
0
 10
26.0747
 20
-165.208
 11
25.9225
 21
-165.684
  0
LINE
  8
0
 10
25.9225
 20
-165.684
 11
25.7479
 21
-166.152
  0
LINE
  8
0
 10
25.7479
 20
-166.152
 11
25.5511
 21
-166.612
  0
LINE
  8
0
 10
25.5511
 20
-166.612
 11
25.3328
 21
-167.061
  0
LINE
  8
0
 10
25.3328
 20
-167.061
 11
25.0933
 21
-167.5
  0
LINE
  8
0
 10
25.0933
 20
-167.5
 11
24.8332
 21
-167.927
  0
LINE
  8
0
 10
24.8332
 20
-167.927
 11
24.553
 21
-168.341
  0
LINE
  8
0
 10
24.553
 20
-168.341
 11
24.2536
 21
-168.741
  0
LINE
  8
0
 10
24.2536
 20
-168.741
 11
23.9354
 21
-169.126
  0
LINE
  8
0
 10
23.9354
 20
-169.126
 11
23.5992
 21
-169.496
  0
LINE
  8
0
 10
23.5992
 20
-169.496
 11
23.2458
 21
-169.849
  0
LINE
  8
0
 10
23.2458
 20
-169.849
 11
22.876
 21
-170.185
  0
LINE
  8
0
 10
22.876
 20
-170.185
 11
22.4907
 21
-170.504
  0
LINE
  8
0
 10
22.4907
 20
-170.504
 11
22.0906
 21
-170.803
  0
LINE
  8
0
 10
22.0906
 20
-170.803
 11
21.6767
 21
-171.083
  0
LINE
  8
0
 10
21.6767
 20
-171.083
 11
21.25
 21
-171.343
  0
LINE
  8
0
 10
21.25
 20
-171.343
 11
20.8114
 21
-171.583
  0
LINE
  8
0
 10
20.8114
 20
-171.583
 11
20.3618
 21
-171.801
  0
LINE
  8
0
 10
20.3618
 20
-171.801
 11
19.9025
 21
-171.998
  0
LINE
  8
0
 10
19.9025
 20
-171.998
 11
19.4342
 21
-172.173
  0
LINE
  8
0
 10
19.4342
 20
-172.173
 11
18.9582
 21
-172.325
  0
LINE
  8
0
 10
18.9582
 20
-172.325
 11
18.4755
 21
-172.454
  0
LINE
  8
0
 10
18.4755
 20
-172.454
 11
17.9871
 21
-172.56
  0
LINE
  8
0
 10
17.9871
 20
-172.56
 11
17.4943
 21
-172.643
  0
LINE
  8
0
 10
17.4943
 20
-172.643
 11
16.9981
 21
-172.702
  0
LINE
  8
0
 10
16.9981
 20
-172.702
 11
16.4996
 21
-172.738
  0
LINE
  8
0
 10
16.4996
 20
-172.738
 11
16
 21
-172.75
  0
LINE
  8
0
 10
16
 20
-172.75
 11
15.5004
 21
-172.738
  0
LINE
  8
0
 10
58.7861
 20
-178.229
 11
58.2884
 21
-178.189
  0
LINE
  8
0
 10
58.2884
 20
-178.189
 11
57.7928
 21
-178.128
  0
LINE
  8
0
 10
57.7928
 20
-178.128
 11
57.3002
 21
-178.047
  0
LINE
  8
0
 10
57.3002
 20
-178.047
 11
56.8114
 21
-177.945
  0
LINE
  8
0
 10
56.8114
 20
-177.945
 11
56.3272
 21
-177.823
  0
LINE
  8
0
 10
56.3272
 20
-177.823
 11
55.8486
 21
-177.681
  0
LINE
  8
0
 10
55.8486
 20
-177.681
 11
55.3762
 21
-177.519
  0
LINE
  8
0
 10
55.3762
 20
-177.519
 11
54.911
 21
-177.338
  0
LINE
  8
0
 10
54.911
 20
-177.338
 11
54.4537
 21
-177.137
  0
LINE
  8
0
 10
54.4537
 20
-177.137
 11
54.0052
 21
-176.918
  0
LINE
  8
0
 10
54.0052
 20
-176.918
 11
53.5662
 21
-176.68
  0
LINE
  8
0
 10
53.5662
 20
-176.68
 11
53.1374
 21
-176.424
  0
LINE
  8
0
 10
53.1374
 20
-176.424
 11
52.7197
 21
-176.151
  0
LINE
  8
0
 10
52.7197
 20
-176.151
 11
52.3137
 21
-175.86
  0
LINE
  8
0
 10
52.3137
 20
-175.86
 11
51.9202
 21
-175.553
  0
LINE
  8
0
 10
51.9202
 20
-175.553
 11
51.5397
 21
-175.23
  0
LINE
  8
0
 10
51.5397
 20
-175.23
 11
51.1731
 21
-174.891
  0
LINE
  8
0
 10
51.1731
 20
-174.891
 11
50.8208
 21
-174.537
  0
LINE
  8
0
 10
50.8208
 20
-174.537
 11
50.4836
 21
-174.169
  0
LINE
  8
0
 10
50.4836
 20
-174.169
 11
50.162
 21
-173.787
  0
LINE
  8
0
 10
50.162
 20
-173.787
 11
49.8566
 21
-173.392
  0
LINE
  8
0
 10
49.8566
 20
-173.392
 11
49.5679
 21
-172.984
  0
LINE
  8
0
 10
49.5679
 20
-172.984
 11
49.2963
 21
-172.565
  0
LINE
  8
0
 10
49.2963
 20
-172.565
 11
49.0424
 21
-172.136
  0
LINE
  8
0
 10
49.0424
 20
-172.136
 11
48.8067
 21
-171.695
  0
LINE
  8
0
 10
48.8067
 20
-171.695
 11
48.5894
 21
-171.246
  0
LINE
  8
0
 10
48.5894
 20
-171.246
 11
48.391
 21
-170.788
  0
LINE
  8
0
 10
48.391
 20
-170.788
 11
48.2119
 21
-170.322
  0
LINE
  8
0
 10
48.2119
 20
-170.322
 11
48.0523
 21
-169.849
  0
LINE
  8
0
 10
48.0523
 20
-169.849
 11
47.9125
 21
-169.369
  0
LINE
  8
0
 10
47.9125
 20
-169.369
 11
47.7928
 21
-168.885
  0
LINE
  8
0
 10
47.7928
 20
-168.885
 11
47.6933
 21
-168.395
  0
LINE
  8
0
 10
47.6933
 20
-168.395
 11
47.6143
 21
-167.902
  0
LINE
  8
0
 10
47.6143
 20
-167.902
 11
47.5558
 21
-167.406
  0
LINE
  8
0
 10
47.5558
 20
-167.406
 11
47.5181
 21
-166.909
  0
LINE
  8
0
 10
47.5181
 20
-166.909
 11
47.5011
 21
-166.41
  0
LINE
  8
0
 10
47.5011
 20
-166.41
 11
47.5048
 21
-165.91
  0
LINE
  8
0
 10
47.5048
 20
-165.91
 11
47.5293
 21
-165.412
  0
LINE
  8
0
 10
47.5293
 20
-165.412
 11
47.5746
 21
-164.914
  0
LINE
  8
0
 10
47.5746
 20
-164.914
 11
47.6405
 21
-164.419
  0
LINE
  8
0
 10
47.6405
 20
-164.419
 11
47.7269
 21
-163.928
  0
LINE
  8
0
 10
47.7269
 20
-163.928
 11
47.8337
 21
-163.44
  0
LINE
  8
0
 10
47.8337
 20
-163.44
 11
47.9607
 21
-162.957
  0
LINE
  8
0
 10
47.9607
 20
-162.957
 11
48.1076
 21
-162.48
  0
LINE
  8
0
 10
48.1076
 20
-162.48
 11
48.2743
 21
-162.009
  0
LINE
  8
0
 10
48.2743
 20
-162.009
 11
48.4604
 21
-161.546
  0
LINE
  8
0
 10
48.4604
 20
-161.546
 11
48.6657
 21
-161.091
  0
LINE
  8
0
 10
48.6657
 20
-161.091
 11
48.8897
 21
-160.645
  0
LINE
  8
0
 10
48.8897
 20
-160.645
 11
49.132
 21
-160.208
  0
LINE
  8
0
 10
49.132
 20
-160.208
 11
49.3924
 21
-159.782
  0
LINE
  8
0
 10
49.3924
 20
-159.782
 11
49.6702
 21
-159.367
  0
LINE
  8
0
 10
49.6702
 20
-159.367
 11
49.965
 21
-158.964
  0
LINE
  8
0
 10
49.965
 20
-158.964
 11
50.2763
 21
-158.574
  0
LINE
  8
0
 10
50.2763
 20
-158.574
 11
50.6036
 21
-158.197
  0
LINE
  8
0
 10
50.6036
 20
-158.197
 11
50.9463
 21
-157.834
  0
LINE
  8
0
 10
50.9463
 20
-157.834
 11
51.3038
 21
-157.485
  0
LINE
  8
0
 10
51.3038
 20
-157.485
 11
51.6756
 21
-157.152
  0
LINE
  8
0
 10
51.6756
 20
-157.152
 11
52.0608
 21
-156.834
  0
LINE
  8
0
 10
52.0608
 20
-156.834
 11
52.4589
 21
-156.533
  0
LINE
  8
0
 10
52.4589
 20
-156.533
 11
52.8692
 21
-156.248
  0
LINE
  8
0
 10
52.8692
 20
-156.248
 11
53.291
 21
-155.981
  0
LINE
  8
0
 10
53.291
 20
-155.981
 11
53.7236
 21
-155.732
  0
LINE
  8
0
 10
53.7236
 20
-155.732
 11
54.1661
 21
-155.501
  0
LINE
  8
0
 10
54.1661
 20
-155.501
 11
54.6179
 21
-155.288
  0
LINE
  8
0
 10
54.6179
 20
-155.288
 11
55.0781
 21
-155.094
  0
LINE
  8
0
 10
55.0781
 20
-155.094
 11
55.546
 21
-154.92
  0
LINE
  8
0
 10
55.546
 20
-154.92
 11
56.0207
 21
-154.765
  0
LINE
  8
0
 10
56.0207
 20
-154.765
 11
56.5015
 21
-154.631
  0
LINE
  8
0
 10
56.5015
 20
-154.631
 11
56.9874
 21
-154.516
  0
LINE
  8
0
 10
56.9874
 20
-154.516
 11
57.4777
 21
-154.422
  0
LINE
  8
0
 10
57.4777
 20
-154.422
 11
57.9715
 21
-154.348
  0
LINE
  8
0
 10
57.9715
 20
-154.348
 11
58.4679
 21
-154.294
  0
LINE
  8
0
 10
58.4679
 20
-154.294
 11
58.9662
 21
-154.262
  0
LINE
  8
0
 10
58.9662
 20
-154.262
 11
59.4653
 21
-154.25
  0
LINE
  8
0
 10
59.4653
 20
-154.25
 11
59.9645
 21
-154.259
  0
LINE
  8
0
 10
59.9645
 20
-154.259
 11
60.4629
 21
-154.289
  0
LINE
  8
0
 10
60.4629
 20
-154.289
 11
60.9597
 21
-154.339
  0
LINE
  8
0
 10
60.9597
 20
-154.339
 11
61.4539
 21
-154.41
  0
LINE
  8
0
 10
61.4539
 20
-154.41
 11
61.9447
 21
-154.502
  0
LINE
  8
0
 10
61.9447
 20
-154.502
 11
62.4313
 21
-154.614
  0
LINE
  8
0
 10
62.4313
 20
-154.614
 11
62.9128
 21
-154.746
  0
LINE
  8
0
 10
62.9128
 20
-154.746
 11
63.3884
 21
-154.897
  0
LINE
  8
0
 10
63.3884
 20
-154.897
 11
63.8573
 21
-155.069
  0
LINE
  8
0
 10
63.8573
 20
-155.069
 11
64.3187
 21
-155.26
  0
LINE
  8
0
 10
64.3187
 20
-155.26
 11
64.7717
 21
-155.47
  0
LINE
  8
0
 10
64.7717
 20
-155.47
 11
65.2155
 21
-155.699
  0
LINE
  8
0
 10
65.2155
 20
-155.699
 11
65.6495
 21
-155.945
  0
LINE
  8
0
 10
65.6495
 20
-155.945
 11
66.0728
 21
-156.21
  0
LINE
  8
0
 10
66.0728
 20
-156.21
 11
66.4848
 21
-156.492
  0
LINE
  8
0
 10
66.4848
 20
-156.492
 11
66.8847
 21
-156.791
  0
LINE
  8
0
 10
66.8847
 20
-156.791
 11
67.2717
 21
-157.107
  0
LINE
  8
0
 10
67.2717
 20
-157.107
 11
67.6454
 21
-157.438
  0
LINE
  8
0
 10
67.6454
 20
-157.438
 11
68.0049
 21
-157.784
  0
LINE
  8
0
 10
68.0049
 20
-157.784
 11
68.3497
 21
-158.145
  0
LINE
  8
0
 10
68.3497
 20
-158.145
 11
68.6791
 21
-158.521
  0
LINE
  8
0
 10
68.6791
 20
-158.521
 11
68.9927
 21
-158.909
  0
LINE
  8
0
 10
68.9927
 20
-158.909
 11
69.2899
 21
-159.31
  0
LINE
  8
0
 10
69.2899
 20
-159.31
 11
69.5701
 21
-159.724
  0
LINE
  8
0
 10
69.5701
 20
-159.724
 11
69.8329
 21
-160.148
  0
LINE
  8
0
 10
69.8329
 20
-160.148
 11
70.0777
 21
-160.583
  0
LINE
  8
0
 10
70.0777
 20
-160.583
 11
70.3043
 21
-161.028
  0
LINE
  8
0
 10
70.3043
 20
-161.028
 11
70.5122
 21
-161.482
  0
LINE
  8
0
 10
70.5122
 20
-161.482
 11
70.701
 21
-161.944
  0
LINE
  8
0
 10
70.701
 20
-161.944
 11
70.8704
 21
-162.414
  0
LINE
  8
0
 10
70.8704
 20
-162.414
 11
71.0201
 21
-162.89
  0
LINE
  8
0
 10
71.0201
 20
-162.89
 11
71.1499
 21
-163.373
  0
LINE
  8
0
 10
71.1499
 20
-163.373
 11
71.2595
 21
-163.86
  0
LINE
  8
0
 10
71.2595
 20
-163.86
 11
71.3488
 21
-164.351
  0
LINE
  8
0
 10
71.3488
 20
-164.351
 11
71.4175
 21
-164.845
  0
LINE
  8
0
 10
71.4175
 20
-164.845
 11
71.4656
 21
-165.342
  0
LINE
  8
0
 10
71.4656
 20
-165.342
 11
71.493
 21
-165.841
  0
LINE
  8
0
 10
71.493
 20
-165.841
 11
71.4997
 21
-166.34
  0
LINE
  8
0
 10
71.4997
 20
-166.34
 11
71.4855
 21
-166.839
  0
LINE
  8
0
 10
71.4855
 20
-166.839
 11
71.4506
 21
-167.337
  0
LINE
  8
0
 10
71.4506
 20
-167.337
 11
71.3951
 21
-167.833
  0
LINE
  8
0
 10
71.3951
 20
-167.833
 11
71.3189
 21
-168.327
  0
LINE
  8
0
 10
71.3189
 20
-168.327
 11
71.2223
 21
-168.817
  0
LINE
  8
0
 10
71.2223
 20
-168.817
 11
71.1053
 21
-169.302
  0
LINE
  8
0
 10
71.1053
 20
-169.302
 11
70.9683
 21
-169.782
  0
LINE
  8
0
 10
70.9683
 20
-169.782
 11
70.8115
 21
-170.256
  0
LINE
  8
0
 10
70.8115
 20
-170.256
 11
70.635
 21
-170.723
  0
LINE
  8
0
 10
70.635
 20
-170.723
 11
70.4393
 21
-171.183
  0
LINE
  8
0
 10
70.4393
 20
-171.183
 11
70.2246
 21
-171.634
  0
LINE
  8
0
 10
70.2246
 20
-171.634
 11
69.9914
 21
-172.075
  0
LINE
  8
0
 10
69.9914
 20
-172.075
 11
69.74
 21
-172.506
  0
LINE
  8
0
 10
69.74
 20
-172.506
 11
69.4709
 21
-172.927
  0
LINE
  8
0
 10
69.4709
 20
-172.927
 11
69.1845
 21
-173.336
  0
LINE
  8
0
 10
69.1845
 20
-173.336
 11
68.8814
 21
-173.733
  0
LINE
  8
0
 10
68.8814
 20
-173.733
 11
68.562
 21
-174.116
  0
LINE
  8
0
 10
68.562
 20
-174.116
 11
68.2269
 21
-174.487
  0
LINE
  8
0
 10
68.2269
 20
-174.487
 11
67.8767
 21
-174.842
  0
LINE
  8
0
 10
67.8767
 20
-174.842
 11
67.512
 21
-175.184
  0
LINE
  8
0
 10
67.512
 20
-175.184
 11
67.1335
 21
-175.509
  0
LINE
  8
0
 10
67.1335
 20
-175.509
 11
66.7417
 21
-175.819
  0
LINE
  8
0
 10
66.7417
 20
-175.819
 11
66.3374
 21
-176.112
  0
LINE
  8
0
 10
66.3374
 20
-176.112
 11
65.9212
 21
-176.387
  0
LINE
  8
0
 10
65.9212
 20
-176.387
 11
65.494
 21
-176.646
  0
LINE
  8
0
 10
65.494
 20
-176.646
 11
65.0564
 21
-176.886
  0
LINE
  8
0
 10
65.0564
 20
-176.886
 11
64.6091
 21
-177.108
  0
LINE
  8
0
 10
64.6091
 20
-177.108
 11
64.153
 21
-177.311
  0
LINE
  8
0
 10
64.153
 20
-177.311
 11
63.6888
 21
-177.495
  0
LINE
  8
0
 10
63.6888
 20
-177.495
 11
63.2174
 21
-177.66
  0
LINE
  8
0
 10
63.2174
 20
-177.66
 11
62.7396
 21
-177.804
  0
LINE
  8
0
 10
62.7396
 20
-177.804
 11
62.2561
 21
-177.929
  0
LINE
  8
0
 10
62.2561
 20
-177.929
 11
61.7679
 21
-178.034
  0
LINE
  8
0
 10
61.7679
 20
-178.034
 11
61.2758
 21
-178.118
  0
LINE
  8
0
 10
61.2758
 20
-178.118
 11
60.7805
 21
-178.181
  0
LINE
  8
0
 10
60.7805
 20
-178.181
 11
60.2831
 21
-178.224
  0
LINE
  8
0
 10
60.2831
 20
-178.224
 11
59.7843
 21
-178.247
  0
LINE
  8
0
 10
59.7843
 20
-178.247
 11
59.285
 21
-178.248
  0
LINE
  8
0
 10
59.285
 20
-178.248
 11
58.7861
 21
-178.229
  0
LINE
  8
0
 10
80.3796
 20
-164.269
 11
79.9171
 21
-164.106
  0
LINE
  8
0
 10
79.9171
 20
-164.106
 11
79.5155
 21
-163.825
  0
LINE
  8
0
 10
79.5155
 20
-163.825
 11
79.2047
 21
-163.446
  0
LINE
  8
0
 10
79.2047
 20
-163.446
 11
79.0077
 21
-162.997
  0
LINE
  8
0
 10
79.0077
 20
-162.997
 11
78.9391
 21
-162.512
  0
LINE
  8
0
 10
78.9391
 20
-162.512
 11
79.004
 21
-162.026
  0
LINE
  8
0
 10
79.004
 20
-162.026
 11
79.1976
 21
-161.576
  0
LINE
  8
0
 10
79.1976
 20
-161.576
 11
79.5055
 21
-161.194
  0
LINE
  8
0
 10
79.5055
 20
-161.194
 11
79.9049
 21
-160.91
  0
LINE
  8
0
 10
79.9049
 20
-160.91
 11
80.3662
 21
-160.744
  0
LINE
  8
0
 10
80.3662
 20
-160.744
 11
81.0626
 21
-160.621
  0
LINE
  8
0
 10
81.0626
 20
-160.621
 11
81.5515
 21
-160.586
  0
LINE
  8
0
 10
81.5515
 20
-160.586
 11
82.0318
 21
-160.684
  0
LINE
  8
0
 10
82.0318
 20
-160.684
 11
82.4679
 21
-160.908
  0
LINE
  8
0
 10
82.4679
 20
-160.908
 11
82.8274
 21
-161.241
  0
LINE
  8
0
 10
82.8274
 20
-161.241
 11
83.0837
 21
-161.659
  0
LINE
  8
0
 10
83.0837
 20
-161.659
 11
83.2178
 21
-162.13
  0
LINE
  8
0
 10
83.2178
 20
-162.13
 11
83.2196
 21
-162.621
  0
LINE
  8
0
 10
83.2196
 20
-162.621
 11
83.0892
 21
-163.093
  0
LINE
  8
0
 10
83.0892
 20
-163.093
 11
82.836
 21
-163.513
  0
LINE
  8
0
 10
82.836
 20
-163.513
 11
82.4791
 21
-163.849
  0
LINE
  8
0
 10
82.4791
 20
-163.849
 11
82.0447
 21
-164.076
  0
LINE
  8
0
 10
82.0447
 20
-164.076
 11
81.5651
 21
-164.178
  0
LINE
  8
0
 10
81.5651
 20
-164.178
 11
80.8688
 21
-164.3
  0
LINE
  8
0
 10
80.8688
 20
-164.3
 11
80.3796
 21
-164.269
  0
LINE
  8
0
 10
89.6803
 20
-170.836
 11
89.2299
 21
-170.643
  0
LINE
  8
0
 10
89.2299
 20
-170.643
 11
88.8485
 21
-170.335
  0
LINE
  8
0
 10
88.8485
 20
-170.335
 11
88.5643
 21
-169.935
  0
LINE
  8
0
 10
88.5643
 20
-169.935
 11
88.3984
 21
-169.474
  0
LINE
  8
0
 10
88.3984
 20
-169.474
 11
88.2756
 21
-168.778
  0
LINE
  8
0
 10
88.2756
 20
-168.778
 11
88.2403
 21
-168.289
  0
LINE
  8
0
 10
88.2403
 20
-168.289
 11
88.3382
 21
-167.808
  0
LINE
  8
0
 10
88.3382
 20
-167.808
 11
88.5621
 21
-167.372
  0
LINE
  8
0
 10
88.5621
 20
-167.372
 11
88.8953
 21
-167.013
  0
LINE
  8
0
 10
88.8953
 20
-167.013
 11
89.3132
 21
-166.756
  0
LINE
  8
0
 10
89.3132
 20
-166.756
 11
89.7847
 21
-166.622
  0
LINE
  8
0
 10
89.7847
 20
-166.622
 11
90.2749
 21
-166.621
  0
LINE
  8
0
 10
90.2749
 20
-166.621
 11
90.7474
 21
-166.751
  0
LINE
  8
0
 10
90.7474
 20
-166.751
 11
91.1672
 21
-167.004
  0
LINE
  8
0
 10
91.1672
 20
-167.004
 11
91.5032
 21
-167.361
  0
LINE
  8
0
 10
91.5032
 20
-167.361
 11
91.7303
 21
-167.796
  0
LINE
  8
0
 10
91.7303
 20
-167.796
 11
91.8319
 21
-168.275
  0
LINE
  8
0
 10
91.8319
 20
-168.275
 11
91.9547
 21
-168.971
  0
LINE
  8
0
 10
91.9547
 20
-168.971
 11
91.9231
 21
-169.461
  0
LINE
  8
0
 10
91.9231
 20
-169.461
 11
91.7607
 21
-169.923
  0
LINE
  8
0
 10
91.7607
 20
-169.923
 11
91.4795
 21
-170.325
  0
LINE
  8
0
 10
91.4795
 20
-170.325
 11
91.1004
 21
-170.635
  0
LINE
  8
0
 10
91.1004
 20
-170.635
 11
90.6516
 21
-170.833
  0
LINE
  8
0
 10
90.6516
 20
-170.833
 11
90.1662
 21
-170.901
  0
LINE
  8
0
 10
90.1662
 20
-170.901
 11
89.6803
 21
-170.836
  0
LINE
  8
0
 10
36.9682
 20
-171.816
 11
36.5321
 21
-171.592
  0
LINE
  8
0
 10
36.5321
 20
-171.592
 11
36.1726
 21
-171.259
  0
LINE
  8
0
 10
36.1726
 20
-171.259
 11
35.9163
 21
-170.841
  0
LINE
  8
0
 10
35.9163
 20
-170.841
 11
35.7822
 21
-170.37
  0
LINE
  8
0
 10
35.7822
 20
-170.37
 11
35.7804
 21
-169.879
  0
LINE
  8
0
 10
35.7804
 20
-169.879
 11
35.9108
 21
-169.407
  0
LINE
  8
0
 10
35.9108
 20
-169.407
 11
36.1639
 21
-168.987
  0
LINE
  8
0
 10
36.1639
 20
-168.987
 11
36.5209
 21
-168.651
  0
LINE
  8
0
 10
36.5209
 20
-168.651
 11
36.9553
 21
-168.424
  0
LINE
  8
0
 10
36.9553
 20
-168.424
 11
37.4349
 21
-168.322
  0
LINE
  8
0
 10
37.4349
 20
-168.322
 11
38.1312
 21
-168.2
  0
LINE
  8
0
 10
38.1312
 20
-168.2
 11
38.6204
 21
-168.231
  0
LINE
  8
0
 10
38.6204
 20
-168.231
 11
39.0829
 21
-168.394
  0
LINE
  8
0
 10
39.0829
 20
-168.394
 11
39.4845
 21
-168.675
  0
LINE
  8
0
 10
39.4845
 20
-168.675
 11
39.7953
 21
-169.054
  0
LINE
  8
0
 10
39.7953
 20
-169.054
 11
39.9923
 21
-169.503
  0
LINE
  8
0
 10
39.9923
 20
-169.503
 11
40.0609
 21
-169.988
  0
LINE
  8
0
 10
40.0609
 20
-169.988
 11
39.996
 21
-170.474
  0
LINE
  8
0
 10
39.996
 20
-170.474
 11
39.8024
 21
-170.924
  0
LINE
  8
0
 10
39.8024
 20
-170.924
 11
39.4945
 21
-171.306
  0
LINE
  8
0
 10
39.4945
 20
-171.306
 11
39.0951
 21
-171.59
  0
LINE
  8
0
 10
39.0951
 20
-171.59
 11
38.6338
 21
-171.756
  0
LINE
  8
0
 10
38.6338
 20
-171.756
 11
37.9374
 21
-171.879
  0
LINE
  8
0
 10
37.9374
 20
-171.879
 11
37.4485
 21
-171.914
  0
LINE
  8
0
 10
37.4485
 20
-171.914
 11
36.9682
 21
-171.816
  0
LINE
  8
0
 10
26.8906
 20
-175.573
 11
26.4103
 21
-175.463
  0
LINE
  8
0
 10
26.4103
 20
-175.463
 11
25.9665
 21
-175.25
  0
LINE
  8
0
 10
25.9665
 20
-175.25
 11
25.5813
 21
-174.943
  0
LINE
  8
0
 10
25.5813
 20
-174.943
 11
25.2741
 21
-174.557
  0
LINE
  8
0
 10
25.2741
 20
-174.557
 11
25.0604
 21
-174.114
  0
LINE
  8
0
 10
25.0604
 20
-174.114
 11
24.9508
 21
-173.633
  0
LINE
  8
0
 10
24.9508
 20
-173.633
 11
24.9508
 21
-173.141
  0
LINE
  8
0
 10
24.9508
 20
-173.141
 11
25.0604
 21
-172.66
  0
LINE
  8
0
 10
25.0604
 20
-172.66
 11
25.2741
 21
-172.216
  0
LINE
  8
0
 10
25.2741
 20
-172.216
 11
25.5813
 21
-171.831
  0
LINE
  8
0
 10
25.5813
 20
-171.831
 11
25.9665
 21
-171.524
  0
LINE
  8
0
 10
25.9665
 20
-171.524
 11
26.4103
 21
-171.31
  0
LINE
  8
0
 10
26.4103
 20
-171.31
 11
26.8906
 21
-171.201
  0
LINE
  8
0
 10
26.8906
 20
-171.201
 11
27.3832
 21
-171.201
  0
LINE
  8
0
 10
27.3832
 20
-171.201
 11
27.8635
 21
-171.31
  0
LINE
  8
0
 10
27.8635
 20
-171.31
 11
28.3074
 21
-171.524
  0
LINE
  8
0
 10
28.3074
 20
-171.524
 11
28.6926
 21
-171.831
  0
LINE
  8
0
 10
28.6926
 20
-171.831
 11
28.9997
 21
-172.216
  0
LINE
  8
0
 10
28.9997
 20
-172.216
 11
29.2135
 21
-172.66
  0
LINE
  8
0
 10
29.2135
 20
-172.66
 11
29.3231
 21
-173.141
  0
LINE
  8
0
 10
29.3231
 20
-173.141
 11
29.3231
 21
-173.633
  0
LINE
  8
0
 10
29.3231
 20
-173.633
 11
29.2135
 21
-174.114
  0
LINE
  8
0
 10
29.2135
 20
-174.114
 11
28.9997
 21
-174.557
  0
LINE
  8
0
 10
28.9997
 20
-174.557
 11
28.6926
 21
-174.943
  0
LINE
  8
0
 10
28.6926
 20
-174.943
 11
28.3074
 21
-175.25
  0
LINE
  8
0
 10
28.3074
 20
-175.25
 11
27.8635
 21
-175.463
  0
LINE
  8
0
 10
27.8635
 20
-175.463
 11
27.3832
 21
-175.573
  0
LINE
  8
0
 10
27.3832
 20
-175.573
 11
26.8906
 21
-175.573
  0
LINE
  8
0
 10
4.61674
 20
-175.573
 11
4.13644
 21
-175.463
  0
LINE
  8
0
 10
4.13644
 20
-175.463
 11
3.6926
 21
-175.25
  0
LINE
  8
0
 10
3.6926
 20
-175.25
 11
3.30743
 21
-174.943
  0
LINE
  8
0
 10
3.30743
 20
-174.943
 11
3.00027
 21
-174.557
  0
LINE
  8
0
 10
3.00027
 20
-174.557
 11
2.78651
 21
-174.114
  0
LINE
  8
0
 10
2.78651
 20
-174.114
 11
2.6769
 21
-173.633
  0
LINE
  8
0
 10
2.6769
 20
-173.633
 11
2.6769
 21
-173.141
  0
LINE
  8
0
 10
2.6769
 20
-173.141
 11
2.78651
 21
-172.66
  0
LINE
  8
0
 10
2.78651
 20
-172.66
 11
3.00027
 21
-172.216
  0
LINE
  8
0
 10
3.00027
 20
-172.216
 11
3.30743
 21
-171.831
  0
LINE
  8
0
 10
3.30743
 20
-171.831
 11
3.6926
 21
-171.524
  0
LINE
  8
0
 10
3.6926
 20
-171.524
 11
4.13644
 21
-171.31
  0
LINE
  8
0
 10
4.13644
 20
-171.31
 11
4.61674
 21
-171.201
  0
LINE
  8
0
 10
4.61674
 20
-171.201
 11
5.10939
 21
-171.201
  0
LINE
  8
0
 10
5.10939
 20
-171.201
 11
5.58968
 21
-171.31
  0
LINE
  8
0
 10
5.58968
 20
-171.31
 11
6.03354
 21
-171.524
  0
LINE
  8
0
 10
6.03354
 20
-171.524
 11
6.4187
 21
-171.831
  0
LINE
  8
0
 10
6.4187
 20
-171.831
 11
6.72586
 21
-172.216
  0
LINE
  8
0
 10
6.72586
 20
-172.216
 11
6.93961
 21
-172.66
  0
LINE
  8
0
 10
6.93961
 20
-172.66
 11
7.04922
 21
-173.141
  0
LINE
  8
0
 10
7.04922
 20
-173.141
 11
7.04922
 21
-173.633
  0
LINE
  8
0
 10
7.04922
 20
-173.633
 11
6.93961
 21
-174.114
  0
LINE
  8
0
 10
6.93961
 20
-174.114
 11
6.72586
 21
-174.557
  0
LINE
  8
0
 10
6.72586
 20
-174.557
 11
6.4187
 21
-174.943
  0
LINE
  8
0
 10
6.4187
 20
-174.943
 11
6.03354
 21
-175.25
  0
LINE
  8
0
 10
6.03354
 20
-175.25
 11
5.58968
 21
-175.463
  0
LINE
  8
0
 10
5.58968
 20
-175.463
 11
5.10939
 21
-175.573
  0
LINE
  8
0
 10
5.10939
 20
-175.573
 11
4.61674
 21
-175.573
  0
LINE
  8
0
 10
93.1905
 20
-202.319
 11
92.6928
 21
-202.279
  0
LINE
  8
0
 10
92.6928
 20
-202.279
 11
92.1972
 21
-202.218
  0
LINE
  8
0
 10
92.1972
 20
-202.218
 11
91.7046
 21
-202.137
  0
LINE
  8
0
 10
91.7046
 20
-202.137
 11
91.2158
 21
-202.035
  0
LINE
  8
0
 10
91.2158
 20
-202.035
 11
90.7316
 21
-201.913
  0
LINE
  8
0
 10
90.7316
 20
-201.913
 11
90.2529
 21
-201.771
  0
LINE
  8
0
 10
90.2529
 20
-201.771
 11
89.7806
 21
-201.609
  0
LINE
  8
0
 10
89.7806
 20
-201.609
 11
89.3154
 21
-201.428
  0
LINE
  8
0
 10
89.3154
 20
-201.428
 11
88.8581
 21
-201.228
  0
LINE
  8
0
 10
88.8581
 20
-201.228
 11
88.4096
 21
-201.008
  0
LINE
  8
0
 10
88.4096
 20
-201.008
 11
87.9706
 21
-200.77
  0
LINE
  8
0
 10
87.9706
 20
-200.77
 11
87.5418
 21
-200.515
  0
LINE
  8
0
 10
87.5418
 20
-200.515
 11
87.1241
 21
-200.241
  0
LINE
  8
0
 10
87.1241
 20
-200.241
 11
86.7181
 21
-199.95
  0
LINE
  8
0
 10
86.7181
 20
-199.95
 11
86.3245
 21
-199.643
  0
LINE
  8
0
 10
86.3245
 20
-199.643
 11
85.9441
 21
-199.32
  0
LINE
  8
0
 10
85.9441
 20
-199.32
 11
85.5775
 21
-198.981
  0
LINE
  8
0
 10
85.5775
 20
-198.981
 11
85.2252
 21
-198.627
  0
LINE
  8
0
 10
85.2252
 20
-198.627
 11
84.888
 21
-198.259
  0
LINE
  8
0
 10
84.888
 20
-198.259
 11
84.5664
 21
-197.877
  0
LINE
  8
0
 10
84.5664
 20
-197.877
 11
84.261
 21
-197.482
  0
LINE
  8
0
 10
84.261
 20
-197.482
 11
83.9722
 21
-197.075
  0
LINE
  8
0
 10
83.9722
 20
-197.075
 11
83.7007
 21
-196.656
  0
LINE
  8
0
 10
83.7007
 20
-196.656
 11
83.4468
 21
-196.226
  0
LINE
  8
0
 10
83.4468
 20
-196.226
 11
83.211
 21
-195.786
  0
LINE
  8
0
 10
83.211
 20
-195.786
 11
82.9938
 21
-195.336
  0
LINE
  8
0
 10
82.9938
 20
-195.336
 11
82.7954
 21
-194.878
  0
LINE
  8
0
 10
82.7954
 20
-194.878
 11
82.6163
 21
-194.412
  0
LINE
  8
0
 10
82.6163
 20
-194.412
 11
82.4566
 21
-193.939
  0
LINE
  8
0
 10
82.4566
 20
-193.939
 11
82.3169
 21
-193.459
  0
LINE
  8
0
 10
82.3169
 20
-193.459
 11
82.1971
 21
-192.975
  0
LINE
  8
0
 10
82.1971
 20
-192.975
 11
82.0977
 21
-192.485
  0
LINE
  8
0
 10
82.0977
 20
-192.485
 11
82.0187
 21
-191.992
  0
LINE
  8
0
 10
82.0187
 20
-191.992
 11
81.9602
 21
-191.497
  0
LINE
  8
0
 10
81.9602
 20
-191.497
 11
81.9225
 21
-190.999
  0
LINE
  8
0
 10
81.9225
 20
-190.999
 11
81.9054
 21
-190.5
  0
LINE
  8
0
 10
81.9054
 20
-190.5
 11
81.9092
 21
-190
  0
LINE
  8
0
 10
81.9092
 20
-190
 11
81.9337
 21
-189.502
  0
LINE
  8
0
 10
81.9337
 20
-189.502
 11
81.979
 21
-189.005
  0
LINE
  8
0
 10
81.979
 20
-189.005
 11
82.0448
 21
-188.51
  0
LINE
  8
0
 10
82.0448
 20
-188.51
 11
82.1313
 21
-188.018
  0
LINE
  8
0
 10
82.1313
 20
-188.018
 11
82.2381
 21
-187.53
  0
LINE
  8
0
 10
82.2381
 20
-187.53
 11
82.3651
 21
-187.047
  0
LINE
  8
0
 10
82.3651
 20
-187.047
 11
82.512
 21
-186.57
  0
LINE
  8
0
 10
82.512
 20
-186.57
 11
82.6787
 21
-186.099
  0
LINE
  8
0
 10
82.6787
 20
-186.099
 11
82.8648
 21
-185.636
  0
LINE
  8
0
 10
82.8648
 20
-185.636
 11
83.0701
 21
-185.181
  0
LINE
  8
0
 10
83.0701
 20
-185.181
 11
83.2941
 21
-184.735
  0
LINE
  8
0
 10
83.2941
 20
-184.735
 11
83.5364
 21
-184.298
  0
LINE
  8
0
 10
83.5364
 20
-184.298
 11
83.7968
 21
-183.872
  0
LINE
  8
0
 10
83.7968
 20
-183.872
 11
84.0746
 21
-183.457
  0
LINE
  8
0
 10
84.0746
 20
-183.457
 11
84.3694
 21
-183.054
  0
LINE
  8
0
 10
84.3694
 20
-183.054
 11
84.6807
 21
-182.664
  0
LINE
  8
0
 10
84.6807
 20
-182.664
 11
85.008
 21
-182.287
  0
LINE
  8
0
 10
85.008
 20
-182.287
 11
85.3507
 21
-181.924
  0
LINE
  8
0
 10
85.3507
 20
-181.924
 11
85.7082
 21
-181.575
  0
LINE
  8
0
 10
85.7082
 20
-181.575
 11
86.0799
 21
-181.242
  0
LINE
  8
0
 10
86.0799
 20
-181.242
 11
86.4652
 21
-180.924
  0
LINE
  8
0
 10
86.4652
 20
-180.924
 11
86.8633
 21
-180.623
  0
LINE
  8
0
 10
86.8633
 20
-180.623
 11
87.2736
 21
-180.339
  0
LINE
  8
0
 10
87.2736
 20
-180.339
 11
87.6954
 21
-180.071
  0
LINE
  8
0
 10
87.6954
 20
-180.071
 11
88.128
 21
-179.822
  0
LINE
  8
0
 10
88.128
 20
-179.822
 11
88.5705
 21
-179.591
  0
LINE
  8
0
 10
88.5705
 20
-179.591
 11
89.0223
 21
-179.378
  0
LINE
  8
0
 10
89.0223
 20
-179.378
 11
89.4825
 21
-179.185
  0
LINE
  8
0
 10
89.4825
 20
-179.185
 11
89.9504
 21
-179.01
  0
LINE
  8
0
 10
89.9504
 20
-179.01
 11
90.4251
 21
-178.856
  0
LINE
  8
0
 10
90.4251
 20
-178.856
 11
90.9059
 21
-178.721
  0
LINE
  8
0
 10
90.9059
 20
-178.721
 11
91.3918
 21
-178.606
  0
LINE
  8
0
 10
91.3918
 20
-178.606
 11
91.8821
 21
-178.512
  0
LINE
  8
0
 10
91.8821
 20
-178.512
 11
92.3759
 21
-178.438
  0
LINE
  8
0
 10
92.3759
 20
-178.438
 11
92.8723
 21
-178.385
  0
LINE
  8
0
 10
92.8723
 20
-178.385
 11
93.3706
 21
-178.352
  0
LINE
  8
0
 10
93.3706
 20
-178.352
 11
93.8697
 21
-178.34
  0
LINE
  8
0
 10
93.8697
 20
-178.34
 11
94.3689
 21
-178.349
  0
LINE
  8
0
 10
94.3689
 20
-178.349
 11
94.8673
 21
-178.379
  0
LINE
  8
0
 10
94.8673
 20
-178.379
 11
95.3641
 21
-178.429
  0
LINE
  8
0
 10
95.3641
 20
-178.429
 11
95.8583
 21
-178.5
  0
LINE
  8
0
 10
95.8583
 20
-178.5
 11
96.3491
 21
-178.592
  0
LINE
  8
0
 10
96.3491
 20
-178.592
 11
96.8357
 21
-178.704
  0
LINE
  8
0
 10
96.8357
 20
-178.704
 11
97.3172
 21
-178.836
  0
LINE
  8
0
 10
97.3172
 20
-178.836
 11
97.7928
 21
-178.988
  0
LINE
  8
0
 10
97.7928
 20
-178.988
 11
98.2617
 21
-179.159
  0
LINE
  8
0
 10
98.2617
 20
-179.159
 11
98.7231
 21
-179.35
  0
LINE
  8
0
 10
98.7231
 20
-179.35
 11
99.1761
 21
-179.56
  0
LINE
  8
0
 10
99.1761
 20
-179.56
 11
99.6199
 21
-179.789
  0
LINE
  8
0
 10
99.6199
 20
-179.789
 11
100.054
 21
-180.036
  0
LINE
  8
0
 10
100.054
 20
-180.036
 11
100.477
 21
-180.3
  0
LINE
  8
0
 10
100.477
 20
-180.3
 11
100.889
 21
-180.583
  0
LINE
  8
0
 10
100.889
 20
-180.583
 11
101.289
 21
-180.882
  0
LINE
  8
0
 10
101.289
 20
-180.882
 11
101.676
 21
-181.197
  0
LINE
  8
0
 10
101.676
 20
-181.197
 11
102.05
 21
-181.528
  0
LINE
  8
0
 10
102.05
 20
-181.528
 11
102.409
 21
-181.875
  0
LINE
  8
0
 10
102.409
 20
-181.875
 11
102.754
 21
-182.236
  0
LINE
  8
0
 10
102.754
 20
-182.236
 11
103.084
 21
-182.611
  0
LINE
  8
0
 10
103.084
 20
-182.611
 11
103.397
 21
-182.999
  0
LINE
  8
0
 10
103.397
 20
-182.999
 11
103.694
 21
-183.401
  0
LINE
  8
0
 10
103.694
 20
-183.401
 11
103.974
 21
-183.814
  0
LINE
  8
0
 10
103.974
 20
-183.814
 11
104.237
 21
-184.238
  0
LINE
  8
0
 10
104.237
 20
-184.238
 11
104.482
 21
-184.674
  0
LINE
  8
0
 10
104.482
 20
-184.674
 11
104.709
 21
-185.118
  0
LINE
  8
0
 10
104.709
 20
-185.118
 11
104.917
 21
-185.572
  0
LINE
  8
0
 10
104.917
 20
-185.572
 11
105.105
 21
-186.035
  0
LINE
  8
0
 10
105.105
 20
-186.035
 11
105.275
 21
-186.504
  0
LINE
  8
0
 10
105.275
 20
-186.504
 11
105.424
 21
-186.981
  0
LINE
  8
0
 10
105.424
 20
-186.981
 11
105.554
 21
-187.463
  0
LINE
  8
0
 10
105.554
 20
-187.463
 11
105.664
 21
-187.95
  0
LINE
  8
0
 10
105.664
 20
-187.95
 11
105.753
 21
-188.441
  0
LINE
  8
0
 10
105.753
 20
-188.441
 11
105.822
 21
-188.936
  0
LINE
  8
0
 10
105.822
 20
-188.936
 11
105.87
 21
-189.433
  0
LINE
  8
0
 10
105.87
 20
-189.433
 11
105.897
 21
-189.931
  0
LINE
  8
0
 10
105.897
 20
-189.931
 11
105.904
 21
-190.43
  0
LINE
  8
0
 10
105.904
 20
-190.43
 11
105.89
 21
-190.929
  0
LINE
  8
0
 10
105.89
 20
-190.929
 11
105.855
 21
-191.428
  0
LINE
  8
0
 10
105.855
 20
-191.428
 11
105.799
 21
-191.924
  0
LINE
  8
0
 10
105.799
 20
-191.924
 11
105.723
 21
-192.417
  0
LINE
  8
0
 10
105.723
 20
-192.417
 11
105.627
 21
-192.907
  0
LINE
  8
0
 10
105.627
 20
-192.907
 11
105.51
 21
-193.392
  0
LINE
  8
0
 10
105.51
 20
-193.392
 11
105.373
 21
-193.873
  0
LINE
  8
0
 10
105.373
 20
-193.873
 11
105.216
 21
-194.347
  0
LINE
  8
0
 10
105.216
 20
-194.347
 11
105.039
 21
-194.814
  0
LINE
  8
0
 10
105.039
 20
-194.814
 11
104.844
 21
-195.273
  0
LINE
  8
0
 10
104.844
 20
-195.273
 11
104.629
 21
-195.724
  0
LINE
  8
0
 10
104.629
 20
-195.724
 11
104.396
 21
-196.165
  0
LINE
  8
0
 10
104.396
 20
-196.165
 11
104.144
 21
-196.597
  0
LINE
  8
0
 10
104.144
 20
-196.597
 11
103.875
 21
-197.017
  0
LINE
  8
0
 10
103.875
 20
-197.017
 11
103.589
 21
-197.426
  0
LINE
  8
0
 10
103.589
 20
-197.426
 11
103.286
 21
-197.823
  0
LINE
  8
0
 10
103.286
 20
-197.823
 11
102.966
 21
-198.207
  0
LINE
  8
0
 10
102.966
 20
-198.207
 11
102.631
 21
-198.577
  0
LINE
  8
0
 10
102.631
 20
-198.577
 11
102.281
 21
-198.933
  0
LINE
  8
0
 10
102.281
 20
-198.933
 11
101.916
 21
-199.274
  0
LINE
  8
0
 10
101.916
 20
-199.274
 11
101.538
 21
-199.599
  0
LINE
  8
0
 10
101.538
 20
-199.599
 11
101.146
 21
-199.909
  0
LINE
  8
0
 10
101.146
 20
-199.909
 11
100.742
 21
-200.202
  0
LINE
  8
0
 10
100.742
 20
-200.202
 11
100.326
 21
-200.478
  0
LINE
  8
0
 10
100.326
 20
-200.478
 11
99.8984
 21
-200.736
  0
LINE
  8
0
 10
99.8984
 20
-200.736
 11
99.4607
 21
-200.976
  0
LINE
  8
0
 10
99.4607
 20
-200.976
 11
99.0135
 21
-201.198
  0
LINE
  8
0
 10
99.0135
 20
-201.198
 11
98.5574
 21
-201.401
  0
LINE
  8
0
 10
98.5574
 20
-201.401
 11
98.0932
 21
-201.585
  0
LINE
  8
0
 10
98.0932
 20
-201.585
 11
97.6218
 21
-201.75
  0
LINE
  8
0
 10
97.6218
 20
-201.75
 11
97.144
 21
-201.895
  0
LINE
  8
0
 10
97.144
 20
-201.895
 11
96.6605
 21
-202.019
  0
LINE
  8
0
 10
96.6605
 20
-202.019
 11
96.1723
 21
-202.124
  0
LINE
  8
0
 10
96.1723
 20
-202.124
 11
95.6801
 21
-202.208
  0
LINE
  8
0
 10
95.6801
 20
-202.208
 11
95.1849
 21
-202.272
  0
LINE
  8
0
 10
95.1849
 20
-202.272
 11
94.6875
 21
-202.315
  0
LINE
  8
0
 10
94.6875
 20
-202.315
 11
94.1887
 21
-202.337
  0
LINE
  8
0
 10
94.1887
 20
-202.337
 11
93.6894
 21
-202.338
  0
LINE
  8
0
 10
93.6894
 20
-202.338
 11
93.1905
 21
-202.319
  0
LINE
  8
0
 10
114.784
 20
-188.359
 11
114.321
 21
-188.197
  0
LINE
  8
0
 10
114.321
 20
-188.197
 11
113.92
 21
-187.915
  0
LINE
  8
0
 10
113.92
 20
-187.915
 11
113.609
 21
-187.536
  0
LINE
  8
0
 10
113.609
 20
-187.536
 11
113.412
 21
-187.087
  0
LINE
  8
0
 10
113.412
 20
-187.087
 11
113.344
 21
-186.602
  0
LINE
  8
0
 10
113.344
 20
-186.602
 11
113.408
 21
-186.116
  0
LINE
  8
0
 10
113.408
 20
-186.116
 11
113.602
 21
-185.666
  0
LINE
  8
0
 10
113.602
 20
-185.666
 11
113.91
 21
-185.284
  0
LINE
  8
0
 10
113.91
 20
-185.284
 11
114.309
 21
-185
  0
LINE
  8
0
 10
114.309
 20
-185
 11
114.771
 21
-184.834
  0
LINE
  8
0
 10
114.771
 20
-184.834
 11
115.467
 21
-184.711
  0
LINE
  8
0
 10
115.467
 20
-184.711
 11
115.956
 21
-184.676
  0
LINE
  8
0
 10
115.956
 20
-184.676
 11
116.436
 21
-184.774
  0
LINE
  8
0
 10
116.436
 20
-184.774
 11
116.872
 21
-184.998
  0
LINE
  8
0
 10
116.872
 20
-184.998
 11
117.232
 21
-185.331
  0
LINE
  8
0
 10
117.232
 20
-185.331
 11
117.488
 21
-185.749
  0
LINE
  8
0
 10
117.488
 20
-185.749
 11
117.622
 21
-186.221
  0
LINE
  8
0
 10
117.622
 20
-186.221
 11
117.624
 21
-186.711
  0
LINE
  8
0
 10
117.624
 20
-186.711
 11
117.494
 21
-187.183
  0
LINE
  8
0
 10
117.494
 20
-187.183
 11
117.24
 21
-187.603
  0
LINE
  8
0
 10
117.24
 20
-187.603
 11
116.883
 21
-187.939
  0
LINE
  8
0
 10
116.883
 20
-187.939
 11
116.449
 21
-188.166
  0
LINE
  8
0
 10
116.449
 20
-188.166
 11
115.969
 21
-188.268
  0
LINE
  8
0
 10
115.969
 20
-188.268
 11
115.273
 21
-188.391
  0
LINE
  8
0
 10
115.273
 20
-188.391
 11
114.784
 21
-188.359
  0
LINE
  8
0
 10
30.7507
 20
-205.247
 11
30.2527
 21
-205.222
  0
LINE
  8
0
 10
30.2527
 20
-205.222
 11
29.7566
 21
-205.172
  0
LINE
  8
0
 10
29.7566
 20
-205.172
 11
29.2635
 21
-205.098
  0
LINE
  8
0
 10
29.2635
 20
-205.098
 11
28.7748
 21
-204.999
  0
LINE
  8
0
 10
28.7748
 20
-204.999
 11
28.2916
 21
-204.876
  0
LINE
  8
0
 10
28.2916
 20
-204.876
 11
27.8151
 21
-204.729
  0
LINE
  8
0
 10
27.8151
 20
-204.729
 11
27.3466
 21
-204.559
  0
LINE
  8
0
 10
27.3466
 20
-204.559
 11
26.8871
 21
-204.365
  0
LINE
  8
0
 10
26.8871
 20
-204.365
 11
26.4379
 21
-204.149
  0
LINE
  8
0
 10
26.4379
 20
-204.149
 11
26
 21
-203.91
  0
LINE
  8
0
 10
26
 20
-203.91
 11
25.5745
 21
-203.65
  0
LINE
  8
0
 10
25.5745
 20
-203.65
 11
25.1626
 21
-203.369
  0
LINE
  8
0
 10
25.1626
 20
-203.369
 11
24.7651
 21
-203.068
  0
LINE
  8
0
 10
24.7651
 20
-203.068
 11
24.3831
 21
-202.748
  0
LINE
  8
0
 10
24.3831
 20
-202.748
 11
24.0176
 21
-202.409
  0
LINE
  8
0
 10
24.0176
 20
-202.409
 11
23.6695
 21
-202.052
  0
LINE
  8
0
 10
23.6695
 20
-202.052
 11
23.3396
 21
-201.678
  0
LINE
  8
0
 10
23.3396
 20
-201.678
 11
23.0287
 21
-201.288
  0
LINE
  8
0
 10
23.0287
 20
-201.288
 11
22.7376
 21
-200.883
  0
LINE
  8
0
 10
22.7376
 20
-200.883
 11
22.4671
 21
-200.464
  0
LINE
  8
0
 10
22.4671
 20
-200.464
 11
22.2178
 21
-200.033
  0
LINE
  8
0
 10
22.2178
 20
-200.033
 11
21.9903
 21
-199.589
  0
LINE
  8
0
 10
21.9903
 20
-199.589
 11
21.7852
 21
-199.134
  0
LINE
  8
0
 10
21.7852
 20
-199.134
 11
21.6031
 21
-198.67
  0
LINE
  8
0
 10
21.6031
 20
-198.67
 11
21.4443
 21
-198.198
  0
LINE
  8
0
 10
21.4443
 20
-198.198
 11
21.3092
 21
-197.718
  0
LINE
  8
0
 10
21.3092
 20
-197.718
 11
21.1983
 21
-197.231
  0
LINE
  8
0
 10
21.1983
 20
-197.231
 11
21.1117
 21
-196.74
  0
LINE
  8
0
 10
21.1117
 20
-196.74
 11
21.0497
 21
-196.246
  0
LINE
  8
0
 10
21.0497
 20
-196.246
 11
21.0124
 21
-195.748
  0
LINE
  8
0
 10
21.0124
 20
-195.748
 11
21
 21
-195.25
  0
LINE
  8
0
 10
21
 20
-195.25
 11
21.0124
 21
-194.752
  0
LINE
  8
0
 10
21.0124
 20
-194.752
 11
21.0497
 21
-194.254
  0
LINE
  8
0
 10
21.0497
 20
-194.254
 11
21.1117
 21
-193.76
  0
LINE
  8
0
 10
21.1117
 20
-193.76
 11
21.1983
 21
-193.269
  0
LINE
  8
0
 10
21.1983
 20
-193.269
 11
21.3092
 21
-192.782
  0
LINE
  8
0
 10
21.3092
 20
-192.782
 11
21.4443
 21
-192.302
  0
LINE
  8
0
 10
21.4443
 20
-192.302
 11
21.6031
 21
-191.83
  0
LINE
  8
0
 10
21.6031
 20
-191.83
 11
21.7852
 21
-191.366
  0
LINE
  8
0
 10
21.7852
 20
-191.366
 11
21.9903
 21
-190.911
  0
LINE
  8
0
 10
21.9903
 20
-190.911
 11
22.2178
 21
-190.467
  0
LINE
  8
0
 10
22.2178
 20
-190.467
 11
22.4671
 21
-190.036
  0
LINE
  8
0
 10
22.4671
 20
-190.036
 11
22.7376
 21
-189.617
  0
LINE
  8
0
 10
22.7376
 20
-189.617
 11
23.0287
 21
-189.212
  0
LINE
  8
0
 10
23.0287
 20
-189.212
 11
23.3396
 21
-188.822
  0
LINE
  8
0
 10
23.3396
 20
-188.822
 11
23.6695
 21
-188.448
  0
LINE
  8
0
 10
23.6695
 20
-188.448
 11
24.0176
 21
-188.091
  0
LINE
  8
0
 10
24.0176
 20
-188.091
 11
24.3831
 21
-187.752
  0
LINE
  8
0
 10
24.3831
 20
-187.752
 11
24.7651
 21
-187.432
  0
LINE
  8
0
 10
24.7651
 20
-187.432
 11
25.1626
 21
-187.131
  0
LINE
  8
0
 10
25.1626
 20
-187.131
 11
25.5745
 21
-186.85
  0
LINE
  8
0
 10
25.5745
 20
-186.85
 11
26
 21
-186.59
  0
LINE
  8
0
 10
26
 20
-186.59
 11
26.4379
 21
-186.351
  0
LINE
  8
0
 10
26.4379
 20
-186.351
 11
26.8871
 21
-186.135
  0
LINE
  8
0
 10
26.8871
 20
-186.135
 11
27.3466
 21
-185.941
  0
LINE
  8
0
 10
27.3466
 20
-185.941
 11
27.8151
 21
-185.771
  0
LINE
  8
0
 10
27.8151
 20
-185.771
 11
28.2916
 21
-185.624
  0
LINE
  8
0
 10
28.2916
 20
-185.624
 11
28.7748
 21
-185.501
  0
LINE
  8
0
 10
28.7748
 20
-185.501
 11
29.2635
 21
-185.402
  0
LINE
  8
0
 10
29.2635
 20
-185.402
 11
29.7566
 21
-185.328
  0
LINE
  8
0
 10
29.7566
 20
-185.328
 11
30.2527
 21
-185.278
  0
LINE
  8
0
 10
30.2527
 20
-185.278
 11
30.7507
 21
-185.253
  0
LINE
  8
0
 10
30.7507
 20
-185.253
 11
31.2493
 21
-185.253
  0
LINE
  8
0
 10
31.2493
 20
-185.253
 11
31.7473
 21
-185.278
  0
LINE
  8
0
 10
31.7473
 20
-185.278
 11
32.2434
 21
-185.328
  0
LINE
  8
0
 10
32.2434
 20
-185.328
 11
32.7365
 21
-185.402
  0
LINE
  8
0
 10
32.7365
 20
-185.402
 11
33.2252
 21
-185.501
  0
LINE
  8
0
 10
33.2252
 20
-185.501
 11
33.7084
 21
-185.624
  0
LINE
  8
0
 10
33.7084
 20
-185.624
 11
34.1849
 21
-185.771
  0
LINE
  8
0
 10
34.1849
 20
-185.771
 11
34.6534
 21
-185.941
  0
LINE
  8
0
 10
34.6534
 20
-185.941
 11
35.1129
 21
-186.135
  0
LINE
  8
0
 10
35.1129
 20
-186.135
 11
35.5621
 21
-186.351
  0
LINE
  8
0
 10
35.5621
 20
-186.351
 11
36
 21
-186.59
  0
LINE
  8
0
 10
36
 20
-186.59
 11
36.4255
 21
-186.85
  0
LINE
  8
0
 10
36.4255
 20
-186.85
 11
36.8374
 21
-187.131
  0
LINE
  8
0
 10
36.8374
 20
-187.131
 11
37.2349
 21
-187.432
  0
LINE
  8
0
 10
37.2349
 20
-187.432
 11
37.6169
 21
-187.752
  0
LINE
  8
0
 10
37.6169
 20
-187.752
 11
37.9824
 21
-188.091
  0
LINE
  8
0
 10
37.9824
 20
-188.091
 11
38.3305
 21
-188.448
  0
LINE
  8
0
 10
38.3305
 20
-188.448
 11
38.6604
 21
-188.822
  0
LINE
  8
0
 10
38.6604
 20
-188.822
 11
38.9713
 21
-189.212
  0
LINE
  8
0
 10
38.9713
 20
-189.212
 11
39.2624
 21
-189.617
  0
LINE
  8
0
 10
39.2624
 20
-189.617
 11
39.5329
 21
-190.036
  0
LINE
  8
0
 10
39.5329
 20
-190.036
 11
39.7822
 21
-190.467
  0
LINE
  8
0
 10
39.7822
 20
-190.467
 11
40.0097
 21
-190.911
  0
LINE
  8
0
 10
40.0097
 20
-190.911
 11
40.2148
 21
-191.366
  0
LINE
  8
0
 10
40.2148
 20
-191.366
 11
40.3969
 21
-191.83
  0
LINE
  8
0
 10
40.3969
 20
-191.83
 11
40.5557
 21
-192.302
  0
LINE
  8
0
 10
40.5557
 20
-192.302
 11
40.6908
 21
-192.782
  0
LINE
  8
0
 10
40.6908
 20
-192.782
 11
40.8017
 21
-193.269
  0
LINE
  8
0
 10
40.8017
 20
-193.269
 11
40.8883
 21
-193.76
  0
LINE
  8
0
 10
40.8883
 20
-193.76
 11
40.9503
 21
-194.254
  0
LINE
  8
0
 10
40.9503
 20
-194.254
 11
40.9876
 21
-194.752
  0
LINE
  8
0
 10
40.9876
 20
-194.752
 11
41
 21
-195.25
  0
LINE
  8
0
 10
41
 20
-195.25
 11
40.9876
 21
-195.748
  0
LINE
  8
0
 10
40.9876
 20
-195.748
 11
40.9503
 21
-196.246
  0
LINE
  8
0
 10
40.9503
 20
-196.246
 11
40.8883
 21
-196.74
  0
LINE
  8
0
 10
40.8883
 20
-196.74
 11
40.8017
 21
-197.231
  0
LINE
  8
0
 10
40.8017
 20
-197.231
 11
40.6908
 21
-197.718
  0
LINE
  8
0
 10
40.6908
 20
-197.718
 11
40.5557
 21
-198.198
  0
LINE
  8
0
 10
40.5557
 20
-198.198
 11
40.3969
 21
-198.67
  0
LINE
  8
0
 10
40.3969
 20
-198.67
 11
40.2148
 21
-199.134
  0
LINE
  8
0
 10
40.2148
 20
-199.134
 11
40.0097
 21
-199.589
  0
LINE
  8
0
 10
40.0097
 20
-199.589
 11
39.7822
 21
-200.033
  0
LINE
  8
0
 10
39.7822
 20
-200.033
 11
39.5329
 21
-200.464
  0
LINE
  8
0
 10
39.5329
 20
-200.464
 11
39.2624
 21
-200.883
  0
LINE
  8
0
 10
39.2624
 20
-200.883
 11
38.9713
 21
-201.288
  0
LINE
  8
0
 10
38.9713
 20
-201.288
 11
38.6604
 21
-201.678
  0
LINE
  8
0
 10
38.6604
 20
-201.678
 11
38.3305
 21
-202.052
  0
LINE
  8
0
 10
38.3305
 20
-202.052
 11
37.9824
 21
-202.409
  0
LINE
  8
0
 10
37.9824
 20
-202.409
 11
37.6169
 21
-202.748
  0
LINE
  8
0
 10
37.6169
 20
-202.748
 11
37.2349
 21
-203.068
  0
LINE
  8
0
 10
37.2349
 20
-203.068
 11
36.8374
 21
-203.369
  0
LINE
  8
0
 10
36.8374
 20
-203.369
 11
36.4255
 21
-203.65
  0
LINE
  8
0
 10
36.4255
 20
-203.65
 11
36
 21
-203.91
  0
LINE
  8
0
 10
36
 20
-203.91
 11
35.5621
 21
-204.149
  0
LINE
  8
0
 10
35.5621
 20
-204.149
 11
35.1129
 21
-204.365
  0
LINE
  8
0
 10
35.1129
 20
-204.365
 11
34.6534
 21
-204.559
  0
LINE
  8
0
 10
34.6534
 20
-204.559
 11
34.1849
 21
-204.729
  0
LINE
  8
0
 10
34.1849
 20
-204.729
 11
33.7084
 21
-204.876
  0
LINE
  8
0
 10
33.7084
 20
-204.876
 11
33.2252
 21
-204.999
  0
LINE
  8
0
 10
33.2252
 20
-204.999
 11
32.7365
 21
-205.098
  0
LINE
  8
0
 10
32.7365
 20
-205.098
 11
32.2434
 21
-205.172
  0
LINE
  8
0
 10
32.2434
 20
-205.172
 11
31.7473
 21
-205.222
  0
LINE
  8
0
 10
31.7473
 20
-205.222
 11
31.2493
 21
-205.247
  0
LINE
  8
0
 10
31.2493
 20
-205.247
 11
30.7507
 21
-205.247
  0
LINE
  8
0
 10
62.657
 20
-189.839
 11
62.2372
 21
-189.586
  0
LINE
  8
0
 10
62.2372
 20
-189.586
 11
61.9012
 21
-189.229
  0
LINE
  8
0
 10
61.9012
 20
-189.229
 11
61.674
 21
-188.795
  0
LINE
  8
0
 10
61.674
 20
-188.795
 11
61.5725
 21
-188.315
  0
LINE
  8
0
 10
61.5725
 20
-188.315
 11
61.4497
 21
-187.619
  0
LINE
  8
0
 10
61.4497
 20
-187.619
 11
61.4813
 21
-187.13
  0
LINE
  8
0
 10
61.4813
 20
-187.13
 11
61.6437
 21
-186.667
  0
LINE
  8
0
 10
61.6437
 20
-186.667
 11
61.9249
 21
-186.266
  0
LINE
  8
0
 10
61.9249
 20
-186.266
 11
62.3039
 21
-185.955
  0
LINE
  8
0
 10
62.3039
 20
-185.955
 11
62.7528
 21
-185.758
  0
LINE
  8
0
 10
62.7528
 20
-185.758
 11
63.2382
 21
-185.689
  0
LINE
  8
0
 10
63.2382
 20
-185.689
 11
63.7241
 21
-185.754
  0
LINE
  8
0
 10
63.7241
 20
-185.754
 11
64.1744
 21
-185.948
  0
LINE
  8
0
 10
64.1744
 20
-185.948
 11
64.5559
 21
-186.256
  0
LINE
  8
0
 10
64.5559
 20
-186.256
 11
64.8401
 21
-186.655
  0
LINE
  8
0
 10
64.8401
 20
-186.655
 11
65.006
 21
-187.116
  0
LINE
  8
0
 10
65.006
 20
-187.116
 11
65.1288
 21
-187.813
  0
LINE
  8
0
 10
65.1288
 20
-187.813
 11
65.1641
 21
-188.301
  0
LINE
  8
0
 10
65.1641
 20
-188.301
 11
65.0662
 21
-188.782
  0
LINE
  8
0
 10
65.0662
 20
-188.782
 11
64.8423
 21
-189.218
  0
LINE
  8
0
 10
64.8423
 20
-189.218
 11
64.5091
 21
-189.577
  0
LINE
  8
0
 10
64.5091
 20
-189.577
 11
64.0912
 21
-189.834
  0
LINE
  8
0
 10
64.0912
 20
-189.834
 11
63.6197
 21
-189.968
  0
LINE
  8
0
 10
63.6197
 20
-189.968
 11
63.1295
 21
-189.97
  0
LINE
  8
0
 10
63.1295
 20
-189.97
 11
62.657
 21
-189.839
  0
LINE
  8
0
 10
71.3726
 20
-195.906
 11
70.9365
 21
-195.682
  0
LINE
  8
0
 10
70.9365
 20
-195.682
 11
70.577
 21
-195.349
  0
LINE
  8
0
 10
70.577
 20
-195.349
 11
70.3207
 21
-194.931
  0
LINE
  8
0
 10
70.3207
 20
-194.931
 11
70.1866
 21
-194.46
  0
LINE
  8
0
 10
70.1866
 20
-194.46
 11
70.1848
 21
-193.97
  0
LINE
  8
0
 10
70.1848
 20
-193.97
 11
70.3152
 21
-193.497
  0
LINE
  8
0
 10
70.3152
 20
-193.497
 11
70.5683
 21
-193.077
  0
LINE
  8
0
 10
70.5683
 20
-193.077
 11
70.9253
 21
-192.741
  0
LINE
  8
0
 10
70.9253
 20
-192.741
 11
71.3597
 21
-192.514
  0
LINE
  8
0
 10
71.3597
 20
-192.514
 11
71.8393
 21
-192.413
  0
LINE
  8
0
 10
71.8393
 20
-192.413
 11
72.5356
 21
-192.29
  0
LINE
  8
0
 10
72.5356
 20
-192.29
 11
73.0248
 21
-192.322
  0
LINE
  8
0
 10
73.0248
 20
-192.322
 11
73.4873
 21
-192.484
  0
LINE
  8
0
 10
73.4873
 20
-192.484
 11
73.8889
 21
-192.765
  0
LINE
  8
0
 10
73.8889
 20
-192.765
 11
74.1997
 21
-193.144
  0
LINE
  8
0
 10
74.1997
 20
-193.144
 11
74.3967
 21
-193.593
  0
LINE
  8
0
 10
74.3967
 20
-193.593
 11
74.4653
 21
-194.078
  0
LINE
  8
0
 10
74.4653
 20
-194.078
 11
74.4004
 21
-194.564
  0
LINE
  8
0
 10
74.4004
 20
-194.564
 11
74.2068
 21
-195.015
  0
LINE
  8
0
 10
74.2068
 20
-195.015
 11
73.8988
 21
-195.396
  0
LINE
  8
0
 10
73.8988
 20
-195.396
 11
73.4995
 21
-195.68
  0
LINE
  8
0
 10
73.4995
 20
-195.68
 11
73.0382
 21
-195.846
  0
LINE
  8
0
 10
73.0382
 20
-195.846
 11
72.3418
 21
-195.969
  0
LINE
  8
0
 10
72.3418
 20
-195.969
 11
71.8529
 21
-196.004
  0
LINE
  8
0
 10
71.8529
 20
-196.004
 11
71.3726
 21
-195.906
  0
LINE
  8
0
 10
17.3105
 20
-197.395
 11
16.8454
 21
-197.232
  0
LINE
  8
0
 10
16.8454
 20
-197.232
 11
16.4283
 21
-196.97
  0
LINE
  8
0
 10
16.4283
 20
-196.97
 11
16.08
 21
-196.622
  0
LINE
  8
0
 10
16.08
 20
-196.622
 11
15.8179
 21
-196.205
  0
LINE
  8
0
 10
15.8179
 20
-196.205
 11
15.6552
 21
-195.74
  0
LINE
  8
0
 10
15.6552
 20
-195.74
 11
15.6
 21
-195.25
  0
LINE
  8
0
 10
15.6
 20
-195.25
 11
15.6552
 21
-194.76
  0
LINE
  8
0
 10
15.6552
 20
-194.76
 11
15.8179
 21
-194.295
  0
LINE
  8
0
 10
15.8179
 20
-194.295
 11
16.08
 21
-193.878
  0
LINE
  8
0
 10
16.08
 20
-193.878
 11
16.4283
 21
-193.53
  0
LINE
  8
0
 10
16.4283
 20
-193.53
 11
16.8454
 21
-193.268
  0
LINE
  8
0
 10
16.8454
 20
-193.268
 11
17.3105
 21
-193.105
  0
LINE
  8
0
 10
17.3105
 20
-193.105
 11
17.8
 21
-193.05
  0
LINE
  8
0
 10
17.8
 20
-193.05
 11
18.2895
 21
-193.105
  0
LINE
  8
0
 10
18.2895
 20
-193.105
 11
18.7545
 21
-193.268
  0
LINE
  8
0
 10
18.7545
 20
-193.268
 11
19.1717
 21
-193.53
  0
LINE
  8
0
 10
19.1717
 20
-193.53
 11
19.52
 21
-193.878
  0
LINE
  8
0
 10
19.52
 20
-193.878
 11
19.7821
 21
-194.295
  0
LINE
  8
0
 10
19.7821
 20
-194.295
 11
19.9448
 21
-194.76
  0
LINE
  8
0
 10
19.9448
 20
-194.76
 11
20
 21
-195.25
  0
LINE
  8
0
 10
20
 20
-195.25
 11
19.9448
 21
-195.74
  0
LINE
  8
0
 10
19.9448
 20
-195.74
 11
19.7821
 21
-196.205
  0
LINE
  8
0
 10
19.7821
 20
-196.205
 11
19.52
 21
-196.622
  0
LINE
  8
0
 10
19.52
 20
-196.622
 11
19.1717
 21
-196.97
  0
LINE
  8
0
 10
19.1717
 20
-196.97
 11
18.7545
 21
-197.232
  0
LINE
  8
0
 10
18.7545
 20
-197.232
 11
18.2895
 21
-197.395
  0
LINE
  8
0
 10
18.2895
 20
-197.395
 11
17.8
 21
-197.45
  0
LINE
  8
0
 10
17.8
 20
-197.45
 11
17.3105
 21
-197.395
  0
LINE
  8
0
 10
43.7104
 20
-197.395
 11
43.2455
 21
-197.232
  0
LINE
  8
0
 10
43.2455
 20
-197.232
 11
42.8283
 21
-196.97
  0
LINE
  8
0
 10
42.8283
 20
-196.97
 11
42.48
 21
-196.622
  0
LINE
  8
0
 10
42.48
 20
-196.622
 11
42.2179
 21
-196.205
  0
LINE
  8
0
 10
42.2179
 20
-196.205
 11
42.0551
 21
-195.74
  0
LINE
  8
0
 10
42.0551
 20
-195.74
 11
42
 21
-195.25
  0
LINE
  8
0
 10
42
 20
-195.25
 11
42.0551
 21
-194.76
  0
LINE
  8
0
 10
42.0551
 20
-194.76
 11
42.2179
 21
-194.295
  0
LINE
  8
0
 10
42.2179
 20
-194.295
 11
42.48
 21
-193.878
  0
LINE
  8
0
 10
42.48
 20
-193.878
 11
42.8283
 21
-193.53
  0
LINE
  8
0
 10
42.8283
 20
-193.53
 11
43.2455
 21
-193.268
  0
LINE
  8
0
 10
43.2455
 20
-193.268
 11
43.7104
 21
-193.105
  0
LINE
  8
0
 10
43.7104
 20
-193.105
 11
44.2
 21
-193.05
  0
LINE
  8
0
 10
44.2
 20
-193.05
 11
44.6895
 21
-193.105
  0
LINE
  8
0
 10
44.6895
 20
-193.105
 11
45.1545
 21
-193.268
  0
LINE
  8
0
 10
45.1545
 20
-193.268
 11
45.5717
 21
-193.53
  0
LINE
  8
0
 10
45.5717
 20
-193.53
 11
45.92
 21
-193.878
  0
LINE
  8
0
 10
45.92
 20
-193.878
 11
46.1821
 21
-194.295
  0
LINE
  8
0
 10
46.1821
 20
-194.295
 11
46.3448
 21
-194.76
  0
LINE
  8
0
 10
46.3448
 20
-194.76
 11
46.4
 21
-195.25
  0
LINE
  8
0
 10
46.4
 20
-195.25
 11
46.3448
 21
-195.74
  0
LINE
  8
0
 10
46.3448
 20
-195.74
 11
46.1821
 21
-196.205
  0
LINE
  8
0
 10
46.1821
 20
-196.205
 11
45.92
 21
-196.622
  0
LINE
  8
0
 10
45.92
 20
-196.622
 11
45.5717
 21
-196.97
  0
LINE
  8
0
 10
45.5717
 20
-196.97
 11
45.1545
 21
-197.232
  0
LINE
  8
0
 10
45.1545
 20
-197.232
 11
44.6895
 21
-197.395
  0
LINE
  8
0
 10
44.6895
 20
-197.395
 11
44.2
 21
-197.45
  0
LINE
  8
0
 10
44.2
 20
-197.45
 11
43.7104
 21
-197.395
  0
LINE
  8
0
 10
97.0613
 20
-213.929
 11
96.6415
 21
-213.676
  0
LINE
  8
0
 10
96.6415
 20
-213.676
 11
96.3056
 21
-213.319
  0
LINE
  8
0
 10
96.3056
 20
-213.319
 11
96.0784
 21
-212.885
  0
LINE
  8
0
 10
96.0784
 20
-212.885
 11
95.9769
 21
-212.405
  0
LINE
  8
0
 10
95.9769
 20
-212.405
 11
95.8541
 21
-211.709
  0
LINE
  8
0
 10
95.8541
 20
-211.709
 11
95.8857
 21
-211.22
  0
LINE
  8
0
 10
95.8857
 20
-211.22
 11
96.0481
 21
-210.757
  0
LINE
  8
0
 10
96.0481
 20
-210.757
 11
96.3293
 21
-210.356
  0
LINE
  8
0
 10
96.3293
 20
-210.356
 11
96.7083
 21
-210.045
  0
LINE
  8
0
 10
96.7083
 20
-210.045
 11
97.1572
 21
-209.848
  0
LINE
  8
0
 10
97.1572
 20
-209.848
 11
97.6426
 21
-209.779
  0
LINE
  8
0
 10
97.6426
 20
-209.779
 11
98.1285
 21
-209.844
  0
LINE
  8
0
 10
98.1285
 20
-209.844
 11
98.5788
 21
-210.038
  0
LINE
  8
0
 10
98.5788
 20
-210.038
 11
98.9603
 21
-210.346
  0
LINE
  8
0
 10
98.9603
 20
-210.346
 11
99.2444
 21
-210.745
  0
LINE
  8
0
 10
99.2444
 20
-210.745
 11
99.4104
 21
-211.206
  0
LINE
  8
0
 10
99.4104
 20
-211.206
 11
99.5331
 21
-211.903
  0
LINE
  8
0
 10
99.5331
 20
-211.903
 11
99.5685
 21
-212.392
  0
LINE
  8
0
 10
99.5685
 20
-212.392
 11
99.4705
 21
-212.872
  0
LINE
  8
0
 10
99.4705
 20
-212.872
 11
99.2467
 21
-213.308
  0
LINE
  8
0
 10
99.2467
 20
-213.308
 11
98.9135
 21
-213.668
  0
LINE
  8
0
 10
98.9135
 20
-213.668
 11
98.4956
 21
-213.924
  0
LINE
  8
0
 10
98.4956
 20
-213.924
 11
98.0241
 21
-214.058
  0
LINE
  8
0
 10
98.0241
 20
-214.058
 11
97.5339
 21
-214.06
  0
LINE
  8
0
 10
97.5339
 20
-214.06
 11
97.0613
 21
-213.929
  0
LINE
  8
0
 10
4.61674
 20
-219.299
 11
4.13644
 21
-219.19
  0
LINE
  8
0
 10
4.13644
 20
-219.19
 11
3.6926
 21
-218.976
  0
LINE
  8
0
 10
3.6926
 20
-218.976
 11
3.30743
 21
-218.669
  0
LINE
  8
0
 10
3.30743
 20
-218.669
 11
3.00027
 21
-218.284
  0
LINE
  8
0
 10
3.00027
 20
-218.284
 11
2.78651
 21
-217.84
  0
LINE
  8
0
 10
2.78651
 20
-217.84
 11
2.6769
 21
-217.359
  0
LINE
  8
0
 10
2.6769
 20
-217.359
 11
2.6769
 21
-216.867
  0
LINE
  8
0
 10
2.6769
 20
-216.867
 11
2.78651
 21
-216.386
  0
LINE
  8
0
 10
2.78651
 20
-216.386
 11
3.00027
 21
-215.943
  0
LINE
  8
0
 10
3.00027
 20
-215.943
 11
3.30743
 21
-215.557
  0
LINE
  8
0
 10
3.30743
 20
-215.557
 11
3.6926
 21
-215.25
  0
LINE
  8
0
 10
3.6926
 20
-215.25
 11
4.13644
 21
-215.037
  0
LINE
  8
0
 10
4.13644
 20
-215.037
 11
4.61674
 21
-214.927
  0
LINE
  8
0
 10
4.61674
 20
-214.927
 11
5.10939
 21
-214.927
  0
LINE
  8
0
 10
5.10939
 20
-214.927
 11
5.58968
 21
-215.037
  0
LINE
  8
0
 10
5.58968
 20
-215.037
 11
6.03354
 21
-215.25
  0
LINE
  8
0
 10
6.03354
 20
-215.25
 11
6.4187
 21
-215.557
  0
LINE
  8
0
 10
6.4187
 20
-215.557
 11
6.72586
 21
-215.943
  0
LINE
  8
0
 10
6.72586
 20
-215.943
 11
6.93961
 21
-216.386
  0
LINE
  8
0
 10
6.93961
 20
-216.386
 11
7.04922
 21
-216.867
  0
LINE
  8
0
 10
7.04922
 20
-216.867
 11
7.04922
 21
-217.359
  0
LINE
  8
0
 10
7.04922
 20
-217.359
 11
6.93961
 21
-217.84
  0
LINE
  8
0
 10
6.93961
 20
-217.84
 11
6.72586
 21
-218.284
  0
LINE
  8
0
 10
6.72586
 20
-218.284
 11
6.4187
 21
-218.669
  0
LINE
  8
0
 10
6.4187
 20
-218.669
 11
6.03354
 21
-218.976
  0
LINE
  8
0
 10
6.03354
 20
-218.976
 11
5.58968
 21
-219.19
  0
LINE
  8
0
 10
5.58968
 20
-219.19
 11
5.10939
 21
-219.299
  0
LINE
  8
0
 10
5.10939
 20
-219.299
 11
4.61674
 21
-219.299
  0
LINE
  8
0
 10
26.8906
 20
-219.299
 11
26.4103
 21
-219.19
  0
LINE
  8
0
 10
26.4103
 20
-219.19
 11
25.9665
 21
-218.976
  0
LINE
  8
0
 10
25.9665
 20
-218.976
 11
25.5813
 21
-218.669
  0
LINE
  8
0
 10
25.5813
 20
-218.669
 11
25.2741
 21
-218.284
  0
LINE
  8
0
 10
25.2741
 20
-218.284
 11
25.0604
 21
-217.84
  0
LINE
  8
0
 10
25.0604
 20
-217.84
 11
24.9508
 21
-217.359
  0
LINE
  8
0
 10
24.9508
 20
-217.359
 11
24.9508
 21
-216.867
  0
LINE
  8
0
 10
24.9508
 20
-216.867
 11
25.0604
 21
-216.386
  0
LINE
  8
0
 10
25.0604
 20
-216.386
 11
25.2741
 21
-215.943
  0
LINE
  8
0
 10
25.2741
 20
-215.943
 11
25.5813
 21
-215.557
  0
LINE
  8
0
 10
25.5813
 20
-215.557
 11
25.9665
 21
-215.25
  0
LINE
  8
0
 10
25.9665
 20
-215.25
 11
26.4103
 21
-215.037
  0
LINE
  8
0
 10
26.4103
 20
-215.037
 11
26.8906
 21
-214.927
  0
LINE
  8
0
 10
26.8906
 20
-214.927
 11
27.3832
 21
-214.927
  0
LINE
  8
0
 10
27.3832
 20
-214.927
 11
27.8635
 21
-215.037
  0
LINE
  8
0
 10
27.8635
 20
-215.037
 11
28.3074
 21
-215.25
  0
LINE
  8
0
 10
28.3074
 20
-215.25
 11
28.6926
 21
-215.557
  0
LINE
  8
0
 10
28.6926
 20
-215.557
 11
28.9997
 21
-215.943
  0
LINE
  8
0
 10
28.9997
 20
-215.943
 11
29.2135
 21
-216.386
  0
LINE
  8
0
 10
29.2135
 20
-216.386
 11
29.3231
 21
-216.867
  0
LINE
  8
0
 10
29.3231
 20
-216.867
 11
29.3231
 21
-217.359
  0
LINE
  8
0
 10
29.3231
 20
-217.359
 11
29.2135
 21
-217.84
  0
LINE
  8
0
 10
29.2135
 20
-217.84
 11
28.9997
 21
-218.284
  0
LINE
  8
0
 10
28.9997
 20
-218.284
 11
28.6926
 21
-218.669
  0
LINE
  8
0
 10
28.6926
 20
-218.669
 11
28.3074
 21
-218.976
  0
LINE
  8
0
 10
28.3074
 20
-218.976
 11
27.8635
 21
-219.19
  0
LINE
  8
0
 10
27.8635
 20
-219.19
 11
27.3832
 21
-219.299
  0
LINE
  8
0
 10
27.3832
 20
-219.299
 11
26.8906
 21
-219.299
  0
LINE
  8
0
 10
15.5004
 20
-238.738
 11
15.0019
 21
-238.702
  0
LINE
  8
0
 10
15.0019
 20
-238.702
 11
14.5057
 21
-238.643
  0
LINE
  8
0
 10
14.5057
 20
-238.643
 11
14.0128
 21
-238.56
  0
LINE
  8
0
 10
14.0128
 20
-238.56
 11
13.5245
 21
-238.454
  0
LINE
  8
0
 10
13.5245
 20
-238.454
 11
13.0418
 21
-238.325
  0
LINE
  8
0
 10
13.0418
 20
-238.325
 11
12.5658
 21
-238.173
  0
LINE
  8
0
 10
12.5658
 20
-238.173
 11
12.0975
 21
-237.998
  0
LINE
  8
0
 10
12.0975
 20
-237.998
 11
11.6381
 21
-237.801
  0
LINE
  8
0
 10
11.6381
 20
-237.801
 11
11.1886
 21
-237.583
  0
LINE
  8
0
 10
11.1886
 20
-237.583
 11
10.75
 21
-237.343
  0
LINE
  8
0
 10
10.75
 20
-237.343
 11
10.3233
 21
-237.083
  0
LINE
  8
0
 10
10.3233
 20
-237.083
 11
9.90939
 21
-236.803
  0
LINE
  8
0
 10
9.90939
 20
-236.803
 11
9.50932
 21
-236.504
  0
LINE
  8
0
 10
9.50932
 20
-236.504
 11
9.12396
 21
-236.185
  0
LINE
  8
0
 10
9.12396
 20
-236.185
 11
8.75417
 21
-235.849
  0
LINE
  8
0
 10
8.75417
 20
-235.849
 11
8.40079
 21
-235.496
  0
LINE
  8
0
 10
8.40079
 20
-235.496
 11
8.06462
 21
-235.126
  0
LINE
  8
0
 10
8.06462
 20
-235.126
 11
7.74643
 21
-234.741
  0
LINE
  8
0
 10
7.74643
 20
-234.741
 11
7.44695
 21
-234.341
  0
LINE
  8
0
 10
7.44695
 20
-234.341
 11
7.16682
 21
-233.927
  0
LINE
  8
0
 10
7.16682
 20
-233.927
 11
6.90672
 21
-233.5
  0
LINE
  8
0
 10
6.90672
 20
-233.5
 11
6.66722
 21
-233.061
  0
LINE
  8
0
 10
6.66722
 20
-233.061
 11
6.44885
 21
-232.612
  0
LINE
  8
0
 10
6.44885
 20
-232.612
 11
6.25214
 21
-232.152
  0
LINE
  8
0
 10
6.25214
 20
-232.152
 11
6.07748
 21
-231.684
  0
LINE
  8
0
 10
6.07748
 20
-231.684
 11
5.92532
 21
-231.208
  0
LINE
  8
0
 10
5.92532
 20
-231.208
 11
5.79597
 21
-230.725
  0
LINE
  8
0
 10
5.79597
 20
-230.725
 11
5.68974
 21
-230.237
  0
LINE
  8
0
 10
5.68974
 20
-230.237
 11
5.60687
 21
-229.744
  0
LINE
  8
0
 10
5.60687
 20
-229.744
 11
5.54753
 21
-229.248
  0
LINE
  8
0
 10
5.54753
 20
-229.248
 11
5.51189
 21
-228.75
  0
LINE
  8
0
 10
5.51189
 20
-228.75
 11
5.5
 21
-228.25
  0
LINE
  8
0
 10
5.5
 20
-228.25
 11
5.51189
 21
-227.75
  0
LINE
  8
0
 10
5.51189
 20
-227.75
 11
5.54753
 21
-227.252
  0
LINE
  8
0
 10
5.54753
 20
-227.252
 11
5.60687
 21
-226.756
  0
LINE
  8
0
 10
5.60687
 20
-226.756
 11
5.68974
 21
-226.263
  0
LINE
  8
0
 10
5.68974
 20
-226.263
 11
5.79597
 21
-225.775
  0
LINE
  8
0
 10
5.79597
 20
-225.775
 11
5.92532
 21
-225.292
  0
LINE
  8
0
 10
5.92532
 20
-225.292
 11
6.07748
 21
-224.816
  0
LINE
  8
0
 10
6.07748
 20
-224.816
 11
6.25214
 21
-224.348
  0
LINE
  8
0
 10
6.25214
 20
-224.348
 11
6.44885
 21
-223.888
  0
LINE
  8
0
 10
6.44885
 20
-223.888
 11
6.66722
 21
-223.439
  0
LINE
  8
0
 10
6.66722
 20
-223.439
 11
6.90672
 21
-223
  0
LINE
  8
0
 10
6.90672
 20
-223
 11
7.16682
 21
-222.573
  0
LINE
  8
0
 10
7.16682
 20
-222.573
 11
7.44695
 21
-222.159
  0
LINE
  8
0
 10
7.44695
 20
-222.159
 11
7.74643
 21
-221.759
  0
LINE
  8
0
 10
7.74643
 20
-221.759
 11
8.06462
 21
-221.374
  0
LINE
  8
0
 10
8.06462
 20
-221.374
 11
8.40079
 21
-221.004
  0
LINE
  8
0
 10
8.40079
 20
-221.004
 11
8.75417
 21
-220.651
  0
LINE
  8
0
 10
8.75417
 20
-220.651
 11
9.12396
 21
-220.315
  0
LINE
  8
0
 10
9.12396
 20
-220.315
 11
9.50932
 21
-219.996
  0
LINE
  8
0
 10
9.50932
 20
-219.996
 11
9.90939
 21
-219.697
  0
LINE
  8
0
 10
9.90939
 20
-219.697
 11
10.3233
 21
-219.417
  0
LINE
  8
0
 10
10.3233
 20
-219.417
 11
10.75
 21
-219.157
  0
LINE
  8
0
 10
10.75
 20
-219.157
 11
11.1886
 21
-218.917
  0
LINE
  8
0
 10
11.1886
 20
-218.917
 11
11.6381
 21
-218.699
  0
LINE
  8
0
 10
11.6381
 20
-218.699
 11
12.0975
 21
-218.502
  0
LINE
  8
0
 10
12.0975
 20
-218.502
 11
12.5658
 21
-218.327
  0
LINE
  8
0
 10
12.5658
 20
-218.327
 11
13.0418
 21
-218.175
  0
LINE
  8
0
 10
13.0418
 20
-218.175
 11
13.5245
 21
-218.046
  0
LINE
  8
0
 10
13.5245
 20
-218.046
 11
14.0128
 21
-217.94
  0
LINE
  8
0
 10
14.0128
 20
-217.94
 11
14.5057
 21
-217.857
  0
LINE
  8
0
 10
14.5057
 20
-217.857
 11
15.0019
 21
-217.798
  0
LINE
  8
0
 10
15.0019
 20
-217.798
 11
15.5004
 21
-217.762
  0
LINE
  8
0
 10
15.5004
 20
-217.762
 11
16
 21
-217.75
  0
LINE
  8
0
 10
16
 20
-217.75
 11
16.4996
 21
-217.762
  0
LINE
  8
0
 10
16.4996
 20
-217.762
 11
16.9981
 21
-217.798
  0
LINE
  8
0
 10
16.9981
 20
-217.798
 11
17.4943
 21
-217.857
  0
LINE
  8
0
 10
17.4943
 20
-217.857
 11
17.9871
 21
-217.94
  0
LINE
  8
0
 10
17.9871
 20
-217.94
 11
18.4755
 21
-218.046
  0
LINE
  8
0
 10
18.4755
 20
-218.046
 11
18.9582
 21
-218.175
  0
LINE
  8
0
 10
18.9582
 20
-218.175
 11
19.4342
 21
-218.327
  0
LINE
  8
0
 10
19.4342
 20
-218.327
 11
19.9025
 21
-218.502
  0
LINE
  8
0
 10
19.9025
 20
-218.502
 11
20.3618
 21
-218.699
  0
LINE
  8
0
 10
20.3618
 20
-218.699
 11
20.8114
 21
-218.917
  0
LINE
  8
0
 10
20.8114
 20
-218.917
 11
21.25
 21
-219.157
  0
LINE
  8
0
 10
21.25
 20
-219.157
 11
21.6767
 21
-219.417
  0
LINE
  8
0
 10
21.6767
 20
-219.417
 11
22.0906
 21
-219.697
  0
LINE
  8
0
 10
22.0906
 20
-219.697
 11
22.4907
 21
-219.996
  0
LINE
  8
0
 10
22.4907
 20
-219.996
 11
22.876
 21
-220.315
  0
LINE
  8
0
 10
22.876
 20
-220.315
 11
23.2458
 21
-220.651
  0
LINE
  8
0
 10
23.2458
 20
-220.651
 11
23.5992
 21
-221.004
  0
LINE
  8
0
 10
23.5992
 20
-221.004
 11
23.9354
 21
-221.374
  0
LINE
  8
0
 10
23.9354
 20
-221.374
 11
24.2536
 21
-221.759
  0
LINE
  8
0
 10
24.2536
 20
-221.759
 11
24.553
 21
-222.159
  0
LINE
  8
0
 10
24.553
 20
-222.159
 11
24.8332
 21
-222.573
  0
LINE
  8
0
 10
24.8332
 20
-222.573
 11
25.0933
 21
-223
  0
LINE
  8
0
 10
25.0933
 20
-223
 11
25.3328
 21
-223.439
  0
LINE
  8
0
 10
25.3328
 20
-223.439
 11
25.5511
 21
-223.888
  0
LINE
  8
0
 10
25.5511
 20
-223.888
 11
25.7479
 21
-224.348
  0
LINE
  8
0
 10
25.7479
 20
-224.348
 11
25.9225
 21
-224.816
  0
LINE
  8
0
 10
25.9225
 20
-224.816
 11
26.0747
 21
-225.292
  0
LINE
  8
0
 10
26.0747
 20
-225.292
 11
26.204
 21
-225.775
  0
LINE
  8
0
 10
26.204
 20
-225.775
 11
26.3102
 21
-226.263
  0
LINE
  8
0
 10
26.3102
 20
-226.263
 11
26.3931
 21
-226.756
  0
LINE
  8
0
 10
26.3931
 20
-226.756
 11
26.4525
 21
-227.252
  0
LINE
  8
0
 10
26.4525
 20
-227.252
 11
26.4881
 21
-227.75
  0
LINE
  8
0
 10
26.4881
 20
-227.75
 11
26.5
 21
-228.25
  0
LINE
  8
0
 10
26.5
 20
-228.25
 11
26.4881
 21
-228.75
  0
LINE
  8
0
 10
26.4881
 20
-228.75
 11
26.4525
 21
-229.248
  0
LINE
  8
0
 10
26.4525
 20
-229.248
 11
26.3931
 21
-229.744
  0
LINE
  8
0
 10
26.3931
 20
-229.744
 11
26.3102
 21
-230.237
  0
LINE
  8
0
 10
26.3102
 20
-230.237
 11
26.204
 21
-230.725
  0
LINE
  8
0
 10
26.204
 20
-230.725
 11
26.0747
 21
-231.208
  0
LINE
  8
0
 10
26.0747
 20
-231.208
 11
25.9225
 21
-231.684
  0
LINE
  8
0
 10
25.9225
 20
-231.684
 11
25.7479
 21
-232.152
  0
LINE
  8
0
 10
25.7479
 20
-232.152
 11
25.5511
 21
-232.612
  0
LINE
  8
0
 10
25.5511
 20
-232.612
 11
25.3328
 21
-233.061
  0
LINE
  8
0
 10
25.3328
 20
-233.061
 11
25.0933
 21
-233.5
  0
LINE
  8
0
 10
25.0933
 20
-233.5
 11
24.8332
 21
-233.927
  0
LINE
  8
0
 10
24.8332
 20
-233.927
 11
24.553
 21
-234.341
  0
LINE
  8
0
 10
24.553
 20
-234.341
 11
24.2536
 21
-234.741
  0
LINE
  8
0
 10
24.2536
 20
-234.741
 11
23.9354
 21
-235.126
  0
LINE
  8
0
 10
23.9354
 20
-235.126
 11
23.5992
 21
-235.496
  0
LINE
  8
0
 10
23.5992
 20
-235.496
 11
23.2458
 21
-235.849
  0
LINE
  8
0
 10
23.2458
 20
-235.849
 11
22.876
 21
-236.185
  0
LINE
  8
0
 10
22.876
 20
-236.185
 11
22.4907
 21
-236.504
  0
LINE
  8
0
 10
22.4907
 20
-236.504
 11
22.0906
 21
-236.803
  0
LINE
  8
0
 10
22.0906
 20
-236.803
 11
21.6767
 21
-237.083
  0
LINE
  8
0
 10
21.6767
 20
-237.083
 11
21.25
 21
-237.343
  0
LINE
  8
0
 10
21.25
 20
-237.343
 11
20.8114
 21
-237.583
  0
LINE
  8
0
 10
20.8114
 20
-237.583
 11
20.3618
 21
-237.801
  0
LINE
  8
0
 10
20.3618
 20
-237.801
 11
19.9025
 21
-237.998
  0
LINE
  8
0
 10
19.9025
 20
-237.998
 11
19.4342
 21
-238.173
  0
LINE
  8
0
 10
19.4342
 20
-238.173
 11
18.9582
 21
-238.325
  0
LINE
  8
0
 10
18.9582
 20
-238.325
 11
18.4755
 21
-238.454
  0
LINE
  8
0
 10
18.4755
 20
-238.454
 11
17.9871
 21
-238.56
  0
LINE
  8
0
 10
17.9871
 20
-238.56
 11
17.4943
 21
-238.643
  0
LINE
  8
0
 10
17.4943
 20
-238.643
 11
16.9981
 21
-238.702
  0
LINE
  8
0
 10
16.9981
 20
-238.702
 11
16.4996
 21
-238.738
  0
LINE
  8
0
 10
16.4996
 20
-238.738
 11
16
 21
-238.75
  0
LINE
  8
0
 10
16
 20
-238.75
 11
15.5004
 21
-238.738
  0
LINE
  8
0
 10
4.61674
 20
-241.573
 11
4.13644
 21
-241.463
  0
LINE
  8
0
 10
4.13644
 20
-241.463
 11
3.6926
 21
-241.25
  0
LINE
  8
0
 10
3.6926
 20
-241.25
 11
3.30743
 21
-240.943
  0
LINE
  8
0
 10
3.30743
 20
-240.943
 11
3.00027
 21
-240.557
  0
LINE
  8
0
 10
3.00027
 20
-240.557
 11
2.78651
 21
-240.114
  0
LINE
  8
0
 10
2.78651
 20
-240.114
 11
2.6769
 21
-239.633
  0
LINE
  8
0
 10
2.6769
 20
-239.633
 11
2.6769
 21
-239.141
  0
LINE
  8
0
 10
2.6769
 20
-239.141
 11
2.78651
 21
-238.66
  0
LINE
  8
0
 10
2.78651
 20
-238.66
 11
3.00027
 21
-238.216
  0
LINE
  8
0
 10
3.00027
 20
-238.216
 11
3.30743
 21
-237.831
  0
LINE
  8
0
 10
3.30743
 20
-237.831
 11
3.6926
 21
-237.524
  0
LINE
  8
0
 10
3.6926
 20
-237.524
 11
4.13644
 21
-237.31
  0
LINE
  8
0
 10
4.13644
 20
-237.31
 11
4.61674
 21
-237.201
  0
LINE
  8
0
 10
4.61674
 20
-237.201
 11
5.10939
 21
-237.201
  0
LINE
  8
0
 10
5.10939
 20
-237.201
 11
5.58968
 21
-237.31
  0
LINE
  8
0
 10
5.58968
 20
-237.31
 11
6.03354
 21
-237.524
  0
LINE
  8
0
 10
6.03354
 20
-237.524
 11
6.4187
 21
-237.831
  0
LINE
  8
0
 10
6.4187
 20
-237.831
 11
6.72586
 21
-238.216
  0
LINE
  8
0
 10
6.72586
 20
-238.216
 11
6.93961
 21
-238.66
  0
LINE
  8
0
 10
6.93961
 20
-238.66
 11
7.04922
 21
-239.141
  0
LINE
  8
0
 10
7.04922
 20
-239.141
 11
7.04922
 21
-239.633
  0
LINE
  8
0
 10
7.04922
 20
-239.633
 11
6.93961
 21
-240.114
  0
LINE
  8
0
 10
6.93961
 20
-240.114
 11
6.72586
 21
-240.557
  0
LINE
  8
0
 10
6.72586
 20
-240.557
 11
6.4187
 21
-240.943
  0
LINE
  8
0
 10
6.4187
 20
-240.943
 11
6.03354
 21
-241.25
  0
LINE
  8
0
 10
6.03354
 20
-241.25
 11
5.58968
 21
-241.463
  0
LINE
  8
0
 10
5.58968
 20
-241.463
 11
5.10939
 21
-241.573
  0
LINE
  8
0
 10
5.10939
 20
-241.573
 11
4.61674
 21
-241.573
  0
LINE
  8
0
 10
26.8906
 20
-241.573
 11
26.4103
 21
-241.463
  0
LINE
  8
0
 10
26.4103
 20
-241.463
 11
25.9665
 21
-241.25
  0
LINE
  8
0
 10
25.9665
 20
-241.25
 11
25.5813
 21
-240.943
  0
LINE
  8
0
 10
25.5813
 20
-240.943
 11
25.2741
 21
-240.557
  0
LINE
  8
0
 10
25.2741
 20
-240.557
 11
25.0604
 21
-240.114
  0
LINE
  8
0
 10
25.0604
 20
-240.114
 11
24.9508
 21
-239.633
  0
LINE
  8
0
 10
24.9508
 20
-239.633
 11
24.9508
 21
-239.141
  0
LINE
  8
0
 10
24.9508
 20
-239.141
 11
25.0604
 21
-238.66
  0
LINE
  8
0
 10
25.0604
 20
-238.66
 11
25.2741
 21
-238.216
  0
LINE
  8
0
 10
25.2741
 20
-238.216
 11
25.5813
 21
-237.831
  0
LINE
  8
0
 10
25.5813
 20
-237.831
 11
25.9665
 21
-237.524
  0
LINE
  8
0
 10
25.9665
 20
-237.524
 11
26.4103
 21
-237.31
  0
LINE
  8
0
 10
26.4103
 20
-237.31
 11
26.8906
 21
-237.201
  0
LINE
  8
0
 10
26.8906
 20
-237.201
 11
27.3832
 21
-237.201
  0
LINE
  8
0
 10
27.3832
 20
-237.201
 11
27.8635
 21
-237.31
  0
LINE
  8
0
 10
27.8635
 20
-237.31
 11
28.3074
 21
-237.524
  0
LINE
  8
0
 10
28.3074
 20
-237.524
 11
28.6926
 21
-237.831
  0
LINE
  8
0
 10
28.6926
 20
-237.831
 11
28.9997
 21
-238.216
  0
LINE
  8
0
 10
28.9997
 20
-238.216
 11
29.2135
 21
-238.66
  0
LINE
  8
0
 10
29.2135
 20
-238.66
 11
29.3231
 21
-239.141
  0
LINE
  8
0
 10
29.3231
 20
-239.141
 11
29.3231
 21
-239.633
  0
LINE
  8
0
 10
29.3231
 20
-239.633
 11
29.2135
 21
-240.114
  0
LINE
  8
0
 10
29.2135
 20
-240.114
 11
28.9997
 21
-240.557
  0
LINE
  8
0
 10
28.9997
 20
-240.557
 11
28.6926
 21
-240.943
  0
LINE
  8
0
 10
28.6926
 20
-240.943
 11
28.3074
 21
-241.25
  0
LINE
  8
0
 10
28.3074
 20
-241.25
 11
27.8635
 21
-241.463
  0
LINE
  8
0
 10
27.8635
 20
-241.463
 11
27.3832
 21
-241.573
  0
LINE
  8
0
 10
27.3832
 20
-241.573
 11
26.8906
 21
-241.573
  0
ENDSEC
  0
SECTION
  2
OBJECTS
  0
DICTIONARY
  0
ENDSEC
  0
EOF
