  0
SECTION
  2
BLOCKS
  0
ENDSEC
  0
SECTION
  2
ENTITIES
  0
LINE
  8
0
 10
98.953
 20
-249.085
 11
99.4528
 21
-249.072
  0
LINE
  8
0
 10
99.4528
 20
-249.072
 11
99.9523
 21
-249.05
  0
LINE
  8
0
 10
99.9523
 20
-249.05
 11
100.451
 21
-249.02
  0
LINE
  8
0
 10
100.451
 20
-249.02
 11
100.95
 21
-248.982
  0
LINE
  8
0
 10
100.95
 20
-248.982
 11
101.448
 21
-248.935
  0
LINE
  8
0
 10
101.448
 20
-248.935
 11
101.945
 21
-248.881
  0
LINE
  8
0
 10
101.945
 20
-248.881
 11
102.441
 21
-248.817
  0
LINE
  8
0
 10
102.441
 20
-248.817
 11
102.935
 21
-248.746
  0
LINE
  8
0
 10
102.935
 20
-248.746
 11
103.429
 21
-248.666
  0
LINE
  8
0
 10
103.429
 20
-248.666
 11
103.921
 21
-248.579
  0
LINE
  8
0
 10
103.921
 20
-248.579
 11
104.412
 21
-248.483
  0
LINE
  8
0
 10
104.412
 20
-248.483
 11
104.901
 21
-248.378
  0
LINE
  8
0
 10
104.901
 20
-248.378
 11
105.388
 21
-248.266
  0
LINE
  8
0
 10
105.388
 20
-248.266
 11
105.873
 21
-248.146
  0
LINE
  8
0
 10
105.873
 20
-248.146
 11
106.357
 21
-248.017
  0
LINE
  8
0
 10
106.357
 20
-248.017
 11
106.838
 21
-247.881
  0
LINE
  8
0
 10
106.838
 20
-247.881
 11
107.316
 21
-247.736
  0
LINE
  8
0
 10
107.316
 20
-247.736
 11
107.792
 21
-247.583
  0
LINE
  8
0
 10
107.792
 20
-247.583
 11
108.266
 21
-247.423
  0
LINE
  8
0
 10
108.266
 20
-247.423
 11
108.737
 21
-247.255
  0
LINE
  8
0
 10
108.737
 20
-247.255
 11
109.205
 21
-247.079
  0
LINE
  8
0
 10
109.205
 20
-247.079
 11
109.372
 21
-247.012
  0
LINE
  8
0
 10
109.372
 20
-247.012
 11
128.394
 21
-219.847
  0
LINE
  8
0
 10
128.394
 20
-219.847
 11
128.399
 21
-219.667
  0
LINE
  8
0
 10
128.399
 20
-219.667
 11
128.404
 21
-219.167
  0
LINE
  8
0
 10
128.404
 20
-219.167
 11
128.401
 21
-218.667
  0
LINE
  8
0
 10
128.401
 20
-218.667
 11
128.39
 21
-218.167
  0
LINE
  8
0
 10
128.39
 20
-218.167
 11
128.371
 21
-217.667
  0
LINE
  8
0
 10
128.371
 20
-217.667
 11
128.343
 21
-217.168
  0
LINE
  8
0
 10
128.343
 20
-217.168
 11
128.307
 21
-216.669
  0
LINE
  8
0
 10
128.307
 20
-216.669
 11
128.262
 21
-216.171
  0
LINE
  8
0
 10
128.262
 20
-216.171
 11
128.209
 21
-215.674
  0
LINE
  8
0
 10
128.209
 20
-215.674
 11
128.148
 21
-215.178
  0
LINE
  8
0
 10
128.148
 20
-215.178
 11
128.079
 21
-214.683
  0
LINE
  8
0
 10
128.079
 20
-214.683
 11
128.001
 21
-214.189
  0
LINE
  8
0
 10
128.001
 20
-214.189
 11
127.915
 21
-213.696
  0
LINE
  8
0
 10
127.915
 20
-213.696
 11
127.821
 21
-213.205
  0
LINE
  8
0
 10
127.821
 20
-213.205
 11
127.719
 21
-212.716
  0
LINE
  8
0
 10
127.719
 20
-212.716
 11
127.609
 21
-212.228
  0
LINE
  8
0
 10
127.609
 20
-212.228
 11
127.491
 21
-211.742
  0
LINE
  8
0
 10
127.491
 20
-211.742
 11
127.364
 21
-211.259
  0
LINE
  8
0
 10
127.364
 20
-211.259
 11
127.23
 21
-210.777
  0
LINE
  8
0
 10
127.23
 20
-210.777
 11
127.087
 21
-210.298
  0
LINE
  8
0
 10
127.087
 20
-210.298
 11
126.937
 21
-209.821
  0
LINE
  8
0
 10
126.937
 20
-209.821
 11
126.778
 21
-209.347
  0
LINE
  8
0
 10
126.778
 20
-209.347
 11
126.612
 21
-208.875
  0
LINE
  8
0
 10
126.612
 20
-208.875
 11
126.438
 21
-208.407
  0
LINE
  8
0
 10
126.438
 20
-208.407
 11
126.328
 21
-208.125
  0
LINE
  8
0
 10
126.328
 20
-208.125
 11
97.4085
 21
-187.876
  0
LINE
  8
0
 10
97.4085
 20
-187.876
 11
123.813
 21
-127.012
  0
LINE
  8
0
 10
123.813
 20
-127.012
 11
120.537
 21
-124.718
  0
LINE
  8
0
 10
120.537
 20
-124.718
 11
103.329
 21
-149.292
  0
LINE
  8
0
 10
103.329
 20
-149.292
 11
93.4997
 21
-142.409
  0
LINE
  8
0
 10
93.4997
 20
-142.409
 11
110.707
 21
-117.835
  0
LINE
  8
0
 10
110.707
 20
-117.835
 11
107.43
 21
-115.541
  0
LINE
  8
0
 10
107.43
 20
-115.541
 11
58.5449
 21
-161.855
  0
LINE
  8
0
 10
58.5449
 20
-161.855
 11
29.3957
 21
-147.039
  0
LINE
  8
0
 10
29.3957
 20
-147.039
 11
28.9497
 21
-146.818
  0
LINE
  8
0
 10
28.9497
 20
-146.818
 11
28.4807
 21
-146.652
  0
LINE
  8
0
 10
28.4807
 20
-146.652
 11
27.9953
 21
-146.542
  0
LINE
  8
0
 10
27.9953
 20
-146.542
 11
27.5004
 21
-146.49
  0
LINE
  8
0
 10
27.5004
 20
-146.49
 11
4.74852
 21
-146.487
  0
LINE
  8
0
 10
4.74852
 20
-146.487
 11
4.25139
 21
-146.509
  0
LINE
  8
0
 10
4.25139
 20
-146.509
 11
3.76036
 21
-146.59
  0
LINE
  8
0
 10
3.76036
 20
-146.59
 11
3.28233
 21
-146.728
  0
LINE
  8
0
 10
3.28233
 20
-146.728
 11
2.82402
 21
-146.922
  0
LINE
  8
0
 10
2.82402
 20
-146.922
 11
2.39185
 21
-147.168
  0
LINE
  8
0
 10
2.39185
 20
-147.168
 11
1.99188
 21
-147.464
  0
LINE
  8
0
 10
1.99188
 20
-147.464
 11
1.62973
 21
-147.806
  0
LINE
  8
0
 10
1.62973
 20
-147.806
 11
1.3105
 21
-148.187
  0
LINE
  8
0
 10
1.3105
 20
-148.187
 11
1.03865
 21
-148.604
  0
LINE
  8
0
 10
1.03865
 20
-148.604
 11
0.818008
 21
-149.05
  0
LINE
  8
0
 10
0.818008
 20
-149.05
 11
0.651672
 21
-149.519
  0
LINE
  8
0
 10
0.651672
 20
-149.519
 11
0.541962
 21
-150.005
  0
LINE
  8
0
 10
0.541962
 20
-150.005
 11
0.490433
 21
-150.5
  0
LINE
  8
0
 10
0.490433
 20
-150.5
 11
0.48674
 21
-173.251
  0
LINE
  8
0
 10
0.48674
 20
-173.251
 11
0.48674
 21
-239.251
  0
LINE
  8
0
 10
0.48674
 20
-239.251
 11
0.508865
 21
-239.749
  0
LINE
  8
0
 10
0.508865
 20
-239.749
 11
0.589615
 21
-240.24
  0
LINE
  8
0
 10
0.589615
 20
-240.24
 11
0.72789
 21
-240.718
  0
LINE
  8
0
 10
0.72789
 20
-240.718
 11
0.921722
 21
-241.176
  0
LINE
  8
0
 10
0.921722
 20
-241.176
 11
1.1684
 21
-241.608
  0
LINE
  8
0
 10
1.1684
 20
-241.608
 11
1.46446
 21
-242.008
  0
LINE
  8
0
 10
1.46446
 20
-242.008
 11
1.80574
 21
-242.37
  0
LINE
  8
0
 10
1.80574
 20
-242.37
 11
2.18747
 21
-242.689
  0
LINE
  8
0
 10
2.18747
 20
-242.689
 11
2.60428
 21
-242.961
  0
LINE
  8
0
 10
2.60428
 20
-242.961
 11
3.05031
 21
-243.182
  0
LINE
  8
0
 10
3.05031
 20
-243.182
 11
3.5193
 21
-243.348
  0
LINE
  8
0
 10
3.5193
 20
-243.348
 11
4.00468
 21
-243.458
  0
LINE
  8
0
 10
4.00468
 20
-243.458
 11
4.49963
 21
-243.51
  0
LINE
  8
0
 10
4.49963
 20
-243.51
 11
97.651
 21
-249.08
  0
LINE
  8
0
 10
97.651
 20
-249.08
 11
97.953
 21
-249.087
  0
LINE
  8
0
 10
97.953
 20
-249.087
 11
98.453
 21
-249.09
  0
LINE
  8
0
 10
98.453
 20
-249.09
 11
98.953
 21
-249.085
  0
LINE
  8
0
 10
26.7196
 20
-152.279
 11
26.2949
 21
-152.047
  0
LINE
  8
0
 10
26.2949
 20
-152.047
 11
25.9528
 21
-151.705
  0
LINE
  8
0
 10
25.9528
 20
-151.705
 11
25.7209
 21
-151.28
  0
LINE
  8
0
 10
25.7209
 20
-151.28
 11
25.618
 21
-150.808
  0
LINE
  8
0
 10
25.618
 20
-150.808
 11
25.6526
 21
-150.325
  0
LINE
  8
0
 10
25.6526
 20
-150.325
 11
25.8216
 21
-149.872
  0
LINE
  8
0
 10
25.8216
 20
-149.872
 11
26.1116
 21
-149.484
  0
LINE
  8
0
 10
26.1116
 20
-149.484
 11
26.499
 21
-149.194
  0
LINE
  8
0
 10
26.499
 20
-149.194
 11
26.9523
 21
-149.025
  0
LINE
  8
0
 10
26.9523
 20
-149.025
 11
27.435
 21
-148.991
  0
LINE
  8
0
 10
27.435
 20
-148.991
 11
27.9078
 21
-149.093
  0
LINE
  8
0
 10
27.9078
 20
-149.093
 11
28.3325
 21
-149.325
  0
LINE
  8
0
 10
28.3325
 20
-149.325
 11
28.6746
 21
-149.668
  0
LINE
  8
0
 10
28.6746
 20
-149.668
 11
28.9065
 21
-150.092
  0
LINE
  8
0
 10
28.9065
 20
-150.092
 11
29.0094
 21
-150.565
  0
LINE
  8
0
 10
29.0094
 20
-150.565
 11
28.9749
 21
-151.048
  0
LINE
  8
0
 10
28.9749
 20
-151.048
 11
28.8058
 21
-151.501
  0
LINE
  8
0
 10
28.8058
 20
-151.501
 11
28.5158
 21
-151.888
  0
LINE
  8
0
 10
28.5158
 20
-151.888
 11
28.1284
 21
-152.178
  0
LINE
  8
0
 10
28.1284
 20
-152.178
 11
27.6751
 21
-152.347
  0
LINE
  8
0
 10
27.6751
 20
-152.347
 11
27.1924
 21
-152.382
  0
LINE
  8
0
 10
27.1924
 20
-152.382
 11
26.7196
 21
-152.279
  0
LINE
  8
0
 10
4.32492
 20
-152.347
 11
3.87157
 21
-152.178
  0
LINE
  8
0
 10
3.87157
 20
-152.178
 11
3.48421
 21
-151.888
  0
LINE
  8
0
 10
3.48421
 20
-151.888
 11
3.19423
 21
-151.501
  0
LINE
  8
0
 10
3.19423
 20
-151.501
 11
3.02513
 21
-151.048
  0
LINE
  8
0
 10
3.02513
 20
-151.048
 11
2.99062
 21
-150.565
  0
LINE
  8
0
 10
2.99062
 20
-150.565
 11
3.09348
 21
-150.092
  0
LINE
  8
0
 10
3.09348
 20
-150.092
 11
3.32536
 21
-149.668
  0
LINE
  8
0
 10
3.32536
 20
-149.668
 11
3.66751
 21
-149.325
  0
LINE
  8
0
 10
3.66751
 20
-149.325
 11
4.09219
 21
-149.093
  0
LINE
  8
0
 10
4.09219
 20
-149.093
 11
4.565
 21
-148.991
  0
LINE
  8
0
 10
4.565
 20
-148.991
 11
5.04765
 21
-149.025
  0
LINE
  8
0
 10
5.04765
 20
-149.025
 11
5.50101
 21
-149.194
  0
LINE
  8
0
 10
5.50101
 20
-149.194
 11
5.88837
 21
-149.484
  0
LINE
  8
0
 10
5.88837
 20
-149.484
 11
6.17834
 21
-149.872
  0
LINE
  8
0
 10
6.17834
 20
-149.872
 11
6.34743
 21
-150.325
  0
LINE
  8
0
 10
6.34743
 20
-150.325
 11
6.38196
 21
-150.808
  0
LINE
  8
0
 10
6.38196
 20
-150.808
 11
6.2791
 21
-151.28
  0
LINE
  8
0
 10
6.2791
 20
-151.28
 11
6.04721
 21
-151.705
  0
LINE
  8
0
 10
6.04721
 20
-151.705
 11
5.70506
 21
-152.047
  0
LINE
  8
0
 10
5.70506
 20
-152.047
 11
5.28038
 21
-152.279
  0
LINE
  8
0
 10
5.28038
 20
-152.279
 11
4.80756
 21
-152.382
  0
LINE
  8
0
 10
4.80756
 20
-152.382
 11
4.32492
 21
-152.347
  0
LINE
  8
0
 10
92.8519
 20
-155.893
 11
92.3681
 21
-155.774
  0
LINE
  8
0
 10
92.3681
 20
-155.774
 11
91.9144
 21
-155.568
  0
LINE
  8
0
 10
91.9144
 20
-155.568
 11
91.5063
 21
-155.283
  0
LINE
  8
0
 10
91.5063
 20
-155.283
 11
91.1576
 21
-154.927
  0
LINE
  8
0
 10
91.1576
 20
-154.927
 11
90.8802
 21
-154.513
  0
LINE
  8
0
 10
90.8802
 20
-154.513
 11
90.6837
 21
-154.055
  0
LINE
  8
0
 10
90.6837
 20
-154.055
 11
90.5746
 21
-153.569
  0
LINE
  8
0
 10
90.5746
 20
-153.569
 11
90.5567
 21
-153.071
  0
LINE
  8
0
 10
90.5567
 20
-153.071
 11
90.6306
 21
-152.578
  0
LINE
  8
0
 10
90.6306
 20
-152.578
 11
90.7938
 21
-152.107
  0
LINE
  8
0
 10
90.7938
 20
-152.107
 11
91.0407
 21
-151.675
  0
LINE
  8
0
 10
91.0407
 20
-151.675
 11
91.3629
 21
-151.295
  0
LINE
  8
0
 10
91.3629
 20
-151.295
 11
91.7495
 21
-150.98
  0
LINE
  8
0
 10
91.7495
 20
-150.98
 11
92.1872
 21
-150.742
  0
LINE
  8
0
 10
92.1872
 20
-150.742
 11
92.6612
 21
-150.589
  0
LINE
  8
0
 10
92.6612
 20
-150.589
 11
93.1554
 21
-150.525
  0
LINE
  8
0
 10
93.1554
 20
-150.525
 11
93.6528
 21
-150.553
  0
LINE
  8
0
 10
93.6528
 20
-150.553
 11
94.1367
 21
-150.672
  0
LINE
  8
0
 10
94.1367
 20
-150.672
 11
94.5904
 21
-150.878
  0
LINE
  8
0
 10
94.5904
 20
-150.878
 11
94.9985
 21
-151.164
  0
LINE
  8
0
 10
94.9985
 20
-151.164
 11
95.3472
 21
-151.52
  0
LINE
  8
0
 10
95.3472
 20
-151.52
 11
95.6245
 21
-151.934
  0
LINE
  8
0
 10
95.6245
 20
-151.934
 11
95.8211
 21
-152.392
  0
LINE
  8
0
 10
95.8211
 20
-152.392
 11
95.9302
 21
-152.878
  0
LINE
  8
0
 10
95.9302
 20
-152.878
 11
95.9481
 21
-153.376
  0
LINE
  8
0
 10
95.9481
 20
-153.376
 11
95.8742
 21
-153.868
  0
LINE
  8
0
 10
95.8742
 20
-153.868
 11
95.711
 21
-154.339
  0
LINE
  8
0
 10
95.711
 20
-154.339
 11
95.4641
 21
-154.772
  0
LINE
  8
0
 10
95.4641
 20
-154.772
 11
95.1419
 21
-155.152
  0
LINE
  8
0
 10
95.1419
 20
-155.152
 11
94.7553
 21
-155.466
  0
LINE
  8
0
 10
94.7553
 20
-155.466
 11
94.3176
 21
-155.704
  0
LINE
  8
0
 10
94.3176
 20
-155.704
 11
93.8436
 21
-155.858
  0
LINE
  8
0
 10
93.8436
 20
-155.858
 11
93.3494
 21
-155.922
  0
LINE
  8
0
 10
93.3494
 20
-155.922
 11
92.8519
 21
-155.893
  0
LINE
  8
0
 10
15.6271
 20
-172.994
 11
15.1308
 21
-172.966
  0
LINE
  8
0
 10
15.1308
 20
-172.966
 11
14.6361
 21
-172.915
  0
LINE
  8
0
 10
14.6361
 20
-172.915
 11
14.1443
 21
-172.842
  0
LINE
  8
0
 10
14.1443
 20
-172.842
 11
13.6562
 21
-172.747
  0
LINE
  8
0
 10
13.6562
 20
-172.747
 11
13.173
 21
-172.631
  0
LINE
  8
0
 10
13.173
 20
-172.631
 11
12.6955
 21
-172.492
  0
LINE
  8
0
 10
12.6955
 20
-172.492
 11
12.2248
 21
-172.332
  0
LINE
  8
0
 10
12.2248
 20
-172.332
 11
11.7618
 21
-172.151
  0
LINE
  8
0
 10
11.7618
 20
-172.151
 11
11.3074
 21
-171.949
  0
LINE
  8
0
 10
11.3074
 20
-171.949
 11
10.8627
 21
-171.727
  0
LINE
  8
0
 10
10.8627
 20
-171.727
 11
10.4284
 21
-171.485
  0
LINE
  8
0
 10
10.4284
 20
-171.485
 11
10.0055
 21
-171.223
  0
LINE
  8
0
 10
10.0055
 20
-171.223
 11
9.59485
 21
-170.943
  0
LINE
  8
0
 10
9.59485
 20
-170.943
 11
9.19728
 21
-170.644
  0
LINE
  8
0
 10
9.19728
 20
-170.644
 11
8.81361
 21
-170.328
  0
LINE
  8
0
 10
8.81361
 20
-170.328
 11
8.44464
 21
-169.995
  0
LINE
  8
0
 10
8.44464
 20
-169.995
 11
8.09109
 21
-169.645
  0
LINE
  8
0
 10
8.09109
 20
-169.645
 11
7.75371
 21
-169.28
  0
LINE
  8
0
 10
7.75371
 20
-169.28
 11
7.43317
 21
-168.9
  0
LINE
  8
0
 10
7.43317
 20
-168.9
 11
7.13013
 21
-168.506
  0
LINE
  8
0
 10
7.13013
 20
-168.506
 11
6.8452
 21
-168.098
  0
LINE
  8
0
 10
6.8452
 20
-168.098
 11
6.57898
 21
-167.678
  0
LINE
  8
0
 10
6.57898
 20
-167.678
 11
6.33202
 21
-167.247
  0
LINE
  8
0
 10
6.33202
 20
-167.247
 11
6.1048
 21
-166.805
  0
LINE
  8
0
 10
6.1048
 20
-166.805
 11
5.8978
 21
-166.353
  0
LINE
  8
0
 10
5.8978
 20
-166.353
 11
5.71143
 21
-165.892
  0
LINE
  8
0
 10
5.71143
 20
-165.892
 11
5.54608
 21
-165.423
  0
LINE
  8
0
 10
5.54608
 20
-165.423
 11
5.40208
 21
-164.947
  0
LINE
  8
0
 10
5.40208
 20
-164.947
 11
5.27975
 21
-164.465
  0
LINE
  8
0
 10
5.27975
 20
-164.465
 11
5.17931
 21
-163.978
  0
LINE
  8
0
 10
5.17931
 20
-163.978
 11
5.10098
 21
-163.487
  0
LINE
  8
0
 10
5.10098
 20
-163.487
 11
5.04492
 21
-162.993
  0
LINE
  8
0
 10
5.04492
 20
-162.993
 11
5.01123
 21
-162.497
  0
LINE
  8
0
 10
5.01123
 20
-162.497
 11
5
 21
-162
  0
LINE
  8
0
 10
5
 20
-162
 11
5.01123
 21
-161.503
  0
LINE
  8
0
 10
5.01123
 20
-161.503
 11
5.04492
 21
-161.007
  0
LINE
  8
0
 10
5.04492
 20
-161.007
 11
5.10098
 21
-160.513
  0
LINE
  8
0
 10
5.10098
 20
-160.513
 11
5.17931
 21
-160.022
  0
LINE
  8
0
 10
5.17931
 20
-160.022
 11
5.27975
 21
-159.535
  0
LINE
  8
0
 10
5.27975
 20
-159.535
 11
5.40208
 21
-159.053
  0
LINE
  8
0
 10
5.40208
 20
-159.053
 11
5.54608
 21
-158.577
  0
LINE
  8
0
 10
5.54608
 20
-158.577
 11
5.71143
 21
-158.108
  0
LINE
  8
0
 10
5.71143
 20
-158.108
 11
5.8978
 21
-157.647
  0
LINE
  8
0
 10
5.8978
 20
-157.647
 11
6.1048
 21
-157.195
  0
LINE
  8
0
 10
6.1048
 20
-157.195
 11
6.33202
 21
-156.753
  0
LINE
  8
0
 10
6.33202
 20
-156.753
 11
6.57898
 21
-156.322
  0
LINE
  8
0
 10
6.57898
 20
-156.322
 11
6.8452
 21
-155.902
  0
LINE
  8
0
 10
6.8452
 20
-155.902
 11
7.13013
 21
-155.494
  0
LINE
  8
0
 10
7.13013
 20
-155.494
 11
7.43317
 21
-155.1
  0
LINE
  8
0
 10
7.43317
 20
-155.1
 11
7.75371
 21
-154.72
  0
LINE
  8
0
 10
7.75371
 20
-154.72
 11
8.09109
 21
-154.355
  0
LINE
  8
0
 10
8.09109
 20
-154.355
 11
8.44464
 21
-154.005
  0
LINE
  8
0
 10
8.44464
 20
-154.005
 11
8.81361
 21
-153.672
  0
LINE
  8
0
 10
8.81361
 20
-153.672
 11
9.19728
 21
-153.356
  0
LINE
  8
0
 10
9.19728
 20
-153.356
 11
9.59485
 21
-153.057
  0
LINE
  8
0
 10
9.59485
 20
-153.057
 11
10.0055
 21
-152.777
  0
LINE
  8
0
 10
10.0055
 20
-152.777
 11
10.4284
 21
-152.515
  0
LINE
  8
0
 10
10.4284
 20
-152.515
 11
10.8627
 21
-152.273
  0
LINE
  8
0
 10
10.8627
 20
-152.273
 11
11.3074
 21
-152.051
  0
LINE
  8
0
 10
11.3074
 20
-152.051
 11
11.7618
 21
-151.849
  0
LINE
  8
0
 10
11.7618
 20
-151.849
 11
12.2248
 21
-151.668
  0
LINE
  8
0
 10
12.2248
 20
-151.668
 11
12.6955
 21
-151.508
  0
LINE
  8
0
 10
12.6955
 20
-151.508
 11
13.173
 21
-151.369
  0
LINE
  8
0
 10
13.173
 20
-151.369
 11
13.6562
 21
-151.253
  0
LINE
  8
0
 10
13.6562
 20
-151.253
 11
14.1443
 21
-151.158
  0
LINE
  8
0
 10
14.1443
 20
-151.158
 11
14.6361
 21
-151.085
  0
LINE
  8
0
 10
14.6361
 20
-151.085
 11
15.1308
 21
-151.034
  0
LINE
  8
0
 10
15.1308
 20
-151.034
 11
15.6271
 21
-151.006
  0
LINE
  8
0
 10
15.6271
 20
-151.006
 11
16.1243
 21
-151.001
  0
LINE
  8
0
 10
16.1243
 20
-151.001
 11
16.6212
 21
-151.018
  0
LINE
  8
0
 10
16.6212
 20
-151.018
 11
17.1168
 21
-151.057
  0
LINE
  8
0
 10
17.1168
 20
-151.057
 11
17.6102
 21
-151.118
  0
LINE
  8
0
 10
17.6102
 20
-151.118
 11
18.1003
 21
-151.202
  0
LINE
  8
0
 10
18.1003
 20
-151.202
 11
18.586
 21
-151.308
  0
LINE
  8
0
 10
18.586
 20
-151.308
 11
19.0665
 21
-151.436
  0
LINE
  8
0
 10
19.0665
 20
-151.436
 11
19.5407
 21
-151.585
  0
LINE
  8
0
 10
19.5407
 20
-151.585
 11
20.0077
 21
-151.756
  0
LINE
  8
0
 10
20.0077
 20
-151.756
 11
20.4665
 21
-151.948
  0
LINE
  8
0
 10
20.4665
 20
-151.948
 11
20.9162
 21
-152.16
  0
LINE
  8
0
 10
20.9162
 20
-152.16
 11
21.3558
 21
-152.392
  0
LINE
  8
0
 10
21.3558
 20
-152.392
 11
21.7845
 21
-152.644
  0
LINE
  8
0
 10
21.7845
 20
-152.644
 11
22.2014
 21
-152.915
  0
LINE
  8
0
 10
22.2014
 20
-152.915
 11
22.6056
 21
-153.204
  0
LINE
  8
0
 10
22.6056
 20
-153.204
 11
22.9963
 21
-153.512
  0
LINE
  8
0
 10
22.9963
 20
-153.512
 11
23.3727
 21
-153.837
  0
LINE
  8
0
 10
23.3727
 20
-153.837
 11
23.7341
 21
-154.178
  0
LINE
  8
0
 10
23.7341
 20
-154.178
 11
24.0797
 21
-154.535
  0
LINE
  8
0
 10
24.0797
 20
-154.535
 11
24.4087
 21
-154.908
  0
LINE
  8
0
 10
24.4087
 20
-154.908
 11
24.7206
 21
-155.295
  0
LINE
  8
0
 10
24.7206
 20
-155.295
 11
25.0146
 21
-155.696
  0
LINE
  8
0
 10
25.0146
 20
-155.696
 11
25.2903
 21
-156.11
  0
LINE
  8
0
 10
25.2903
 20
-156.11
 11
25.5469
 21
-156.536
  0
LINE
  8
0
 10
25.5469
 20
-156.536
 11
25.7841
 21
-156.973
  0
LINE
  8
0
 10
25.7841
 20
-156.973
 11
26.0013
 21
-157.42
  0
LINE
  8
0
 10
26.0013
 20
-157.42
 11
26.198
 21
-157.877
  0
LINE
  8
0
 10
26.198
 20
-157.877
 11
26.3739
 21
-158.342
  0
LINE
  8
0
 10
26.3739
 20
-158.342
 11
26.5286
 21
-158.814
  0
LINE
  8
0
 10
26.5286
 20
-158.814
 11
26.6618
 21
-159.293
  0
LINE
  8
0
 10
26.6618
 20
-159.293
 11
26.7732
 21
-159.778
  0
LINE
  8
0
 10
26.7732
 20
-159.778
 11
26.8626
 21
-160.267
  0
LINE
  8
0
 10
26.8626
 20
-160.267
 11
26.9298
 21
-160.76
  0
LINE
  8
0
 10
26.9298
 20
-160.76
 11
26.9747
 21
-161.255
  0
LINE
  8
0
 10
26.9747
 20
-161.255
 11
26.9972
 21
-161.751
  0
LINE
  8
0
 10
26.9972
 20
-161.751
 11
26.9972
 21
-162.249
  0
LINE
  8
0
 10
26.9972
 20
-162.249
 11
26.9747
 21
-162.745
  0
LINE
  8
0
 10
26.9747
 20
-162.745
 11
26.9298
 21
-163.24
  0
LINE
  8
0
 10
26.9298
 20
-163.24
 11
26.8626
 21
-163.733
  0
LINE
  8
0
 10
26.8626
 20
-163.733
 11
26.7732
 21
-164.222
  0
LINE
  8
0
 10
26.7732
 20
-164.222
 11
26.6618
 21
-164.707
  0
LINE
  8
0
 10
26.6618
 20
-164.707
 11
26.5286
 21
-165.186
  0
LINE
  8
0
 10
26.5286
 20
-165.186
 11
26.3739
 21
-165.658
  0
LINE
  8
0
 10
26.3739
 20
-165.658
 11
26.198
 21
-166.123
  0
LINE
  8
0
 10
26.198
 20
-166.123
 11
26.0013
 21
-166.58
  0
LINE
  8
0
 10
26.0013
 20
-166.58
 11
25.7841
 21
-167.027
  0
LINE
  8
0
 10
25.7841
 20
-167.027
 11
25.5469
 21
-167.464
  0
LINE
  8
0
 10
25.5469
 20
-167.464
 11
25.2903
 21
-167.89
  0
LINE
  8
0
 10
25.2903
 20
-167.89
 11
25.0146
 21
-168.304
  0
LINE
  8
0
 10
25.0146
 20
-168.304
 11
24.7206
 21
-168.705
  0
LINE
  8
0
 10
24.7206
 20
-168.705
 11
24.4087
 21
-169.092
  0
LINE
  8
0
 10
24.4087
 20
-169.092
 11
24.0797
 21
-169.465
  0
LINE
  8
0
 10
24.0797
 20
-169.465
 11
23.7341
 21
-169.822
  0
LINE
  8
0
 10
23.7341
 20
-169.822
 11
23.3727
 21
-170.163
  0
LINE
  8
0
 10
23.3727
 20
-170.163
 11
22.9963
 21
-170.488
  0
LINE
  8
0
 10
22.9963
 20
-170.488
 11
22.6056
 21
-170.796
  0
LINE
  8
0
 10
22.6056
 20
-170.796
 11
22.2014
 21
-171.085
  0
LINE
  8
0
 10
22.2014
 20
-171.085
 11
21.7845
 21
-171.356
  0
LINE
  8
0
 10
21.7845
 20
-171.356
 11
21.3558
 21
-171.608
  0
LINE
  8
0
 10
21.3558
 20
-171.608
 11
20.9162
 21
-171.84
  0
LINE
  8
0
 10
20.9162
 20
-171.84
 11
20.4665
 21
-172.052
  0
LINE
  8
0
 10
20.4665
 20
-172.052
 11
20.0077
 21
-172.244
  0
LINE
  8
0
 10
20.0077
 20
-172.244
 11
19.5407
 21
-172.415
  0
LINE
  8
0
 10
19.5407
 20
-172.415
 11
19.0665
 21
-172.564
  0
LINE
  8
0
 10
19.0665
 20
-172.564
 11
18.586
 21
-172.692
  0
LINE
  8
0
 10
18.586
 20
-172.692
 11
18.1003
 21
-172.798
  0
LINE
  8
0
 10
18.1003
 20
-172.798
 11
17.6102
 21
-172.882
  0
LINE
  8
0
 10
17.6102
 20
-172.882
 11
17.1168
 21
-172.943
  0
LINE
  8
0
 10
17.1168
 20
-172.943
 11
16.6212
 21
-172.982
  0
LINE
  8
0
 10
16.6212
 20
-172.982
 11
16.1243
 21
-172.999
  0
LINE
  8
0
 10
16.1243
 20
-172.999
 11
15.6271
 21
-172.994
  0
LINE
  8
0
 10
81.3804
 20
-172.276
 11
80.8966
 21
-172.157
  0
LINE
  8
0
 10
80.8966
 20
-172.157
 11
80.4429
 21
-171.951
  0
LINE
  8
0
 10
80.4429
 20
-171.951
 11
80.0347
 21
-171.666
  0
LINE
  8
0
 10
80.0347
 20
-171.666
 11
79.6861
 21
-171.31
  0
LINE
  8
0
 10
79.6861
 20
-171.31
 11
79.4087
 21
-170.896
  0
LINE
  8
0
 10
79.4087
 20
-170.896
 11
79.2122
 21
-170.438
  0
LINE
  8
0
 10
79.2122
 20
-170.438
 11
79.1031
 21
-169.952
  0
LINE
  8
0
 10
79.1031
 20
-169.952
 11
79.0852
 21
-169.454
  0
LINE
  8
0
 10
79.0852
 20
-169.454
 11
79.1591
 21
-168.961
  0
LINE
  8
0
 10
79.1591
 20
-168.961
 11
79.3223
 21
-168.49
  0
LINE
  8
0
 10
79.3223
 20
-168.49
 11
79.5692
 21
-168.058
  0
LINE
  8
0
 10
79.5692
 20
-168.058
 11
79.8914
 21
-167.678
  0
LINE
  8
0
 10
79.8914
 20
-167.678
 11
80.278
 21
-167.363
  0
LINE
  8
0
 10
80.278
 20
-167.363
 11
80.7157
 21
-167.125
  0
LINE
  8
0
 10
80.7157
 20
-167.125
 11
81.1897
 21
-166.972
  0
LINE
  8
0
 10
81.1897
 20
-166.972
 11
81.6839
 21
-166.908
  0
LINE
  8
0
 10
81.6839
 20
-166.908
 11
82.1813
 21
-166.936
  0
LINE
  8
0
 10
82.1813
 20
-166.936
 11
82.6651
 21
-167.055
  0
LINE
  8
0
 10
82.6651
 20
-167.055
 11
83.1189
 21
-167.261
  0
LINE
  8
0
 10
83.1189
 20
-167.261
 11
83.527
 21
-167.547
  0
LINE
  8
0
 10
83.527
 20
-167.547
 11
83.8757
 21
-167.903
  0
LINE
  8
0
 10
83.8757
 20
-167.903
 11
84.153
 21
-168.317
  0
LINE
  8
0
 10
84.153
 20
-168.317
 11
84.3496
 21
-168.775
  0
LINE
  8
0
 10
84.3496
 20
-168.775
 11
84.4587
 21
-169.261
  0
LINE
  8
0
 10
84.4587
 20
-169.261
 11
84.4766
 21
-169.759
  0
LINE
  8
0
 10
84.4766
 20
-169.759
 11
84.4027
 21
-170.251
  0
LINE
  8
0
 10
84.4027
 20
-170.251
 11
84.2395
 21
-170.722
  0
LINE
  8
0
 10
84.2395
 20
-170.722
 11
83.9926
 21
-171.155
  0
LINE
  8
0
 10
83.9926
 20
-171.155
 11
83.6703
 21
-171.535
  0
LINE
  8
0
 10
83.6703
 20
-171.535
 11
83.2838
 21
-171.849
  0
LINE
  8
0
 10
83.2838
 20
-171.849
 11
82.846
 21
-172.087
  0
LINE
  8
0
 10
82.846
 20
-172.087
 11
82.372
 21
-172.241
  0
LINE
  8
0
 10
82.372
 20
-172.241
 11
81.8779
 21
-172.305
  0
LINE
  8
0
 10
81.8779
 20
-172.305
 11
81.3804
 21
-172.276
  0
LINE
  8
0
 10
59.9601
 20
-176.541
 11
59.5097
 21
-176.347
  0
LINE
  8
0
 10
59.5097
 20
-176.347
 11
59.1283
 21
-176.039
  0
LINE
  8
0
 10
59.1283
 20
-176.039
 11
58.8441
 21
-175.64
  0
LINE
  8
0
 10
58.8441
 20
-175.64
 11
58.6782
 21
-175.178
  0
LINE
  8
0
 10
58.6782
 20
-175.178
 11
58.187
 21
-172.393
  0
LINE
  8
0
 10
58.187
 20
-172.393
 11
58.1517
 21
-171.904
  0
LINE
  8
0
 10
58.1517
 20
-171.904
 11
58.2496
 21
-171.424
  0
LINE
  8
0
 10
58.2496
 20
-171.424
 11
58.4735
 21
-170.988
  0
LINE
  8
0
 10
58.4735
 20
-170.988
 11
58.8067
 21
-170.628
  0
LINE
  8
0
 10
58.8067
 20
-170.628
 11
59.2246
 21
-170.372
  0
LINE
  8
0
 10
59.2246
 20
-170.372
 11
59.6961
 21
-170.238
  0
LINE
  8
0
 10
59.6961
 20
-170.238
 11
60.1863
 21
-170.236
  0
LINE
  8
0
 10
60.1863
 20
-170.236
 11
60.6588
 21
-170.366
  0
LINE
  8
0
 10
60.6588
 20
-170.366
 11
61.0786
 21
-170.619
  0
LINE
  8
0
 10
61.0786
 20
-170.619
 11
61.4146
 21
-170.976
  0
LINE
  8
0
 10
61.4146
 20
-170.976
 11
61.6418
 21
-171.411
  0
LINE
  8
0
 10
61.6418
 20
-171.411
 11
61.7433
 21
-171.89
  0
LINE
  8
0
 10
61.7433
 20
-171.89
 11
62.2345
 21
-174.676
  0
LINE
  8
0
 10
62.2345
 20
-174.676
 11
62.2029
 21
-175.165
  0
LINE
  8
0
 10
62.2029
 20
-175.165
 11
62.0405
 21
-175.627
  0
LINE
  8
0
 10
62.0405
 20
-175.627
 11
61.7593
 21
-176.029
  0
LINE
  8
0
 10
61.7593
 20
-176.029
 11
61.3802
 21
-176.34
  0
LINE
  8
0
 10
61.3802
 20
-176.34
 11
60.9314
 21
-176.537
  0
LINE
  8
0
 10
60.9314
 20
-176.537
 11
60.446
 21
-176.605
  0
LINE
  8
0
 10
60.446
 20
-176.605
 11
59.9601
 21
-176.541
  0
LINE
  8
0
 10
26.9523
 20
-174.975
 11
26.499
 21
-174.806
  0
LINE
  8
0
 10
26.499
 20
-174.806
 11
26.1116
 21
-174.516
  0
LINE
  8
0
 10
26.1116
 20
-174.516
 11
25.8216
 21
-174.128
  0
LINE
  8
0
 10
25.8216
 20
-174.128
 11
25.6526
 21
-173.675
  0
LINE
  8
0
 10
25.6526
 20
-173.675
 11
25.618
 21
-173.192
  0
LINE
  8
0
 10
25.618
 20
-173.192
 11
25.7209
 21
-172.72
  0
LINE
  8
0
 10
25.7209
 20
-172.72
 11
25.9528
 21
-172.295
  0
LINE
  8
0
 10
25.9528
 20
-172.295
 11
26.2949
 21
-171.953
  0
LINE
  8
0
 10
26.2949
 20
-171.953
 11
26.7196
 21
-171.721
  0
LINE
  8
0
 10
26.7196
 20
-171.721
 11
27.1924
 21
-171.618
  0
LINE
  8
0
 10
27.1924
 20
-171.618
 11
27.6751
 21
-171.653
  0
LINE
  8
0
 10
27.6751
 20
-171.653
 11
28.1284
 21
-171.822
  0
LINE
  8
0
 10
28.1284
 20
-171.822
 11
28.5158
 21
-172.112
  0
LINE
  8
0
 10
28.5158
 20
-172.112
 11
28.8058
 21
-172.499
  0
LINE
  8
0
 10
28.8058
 20
-172.499
 11
28.9749
 21
-172.952
  0
LINE
  8
0
 10
28.9749
 20
-172.952
 11
29.0094
 21
-173.435
  0
LINE
  8
0
 10
29.0094
 20
-173.435
 11
28.9065
 21
-173.908
  0
LINE
  8
0
 10
28.9065
 20
-173.908
 11
28.6746
 21
-174.332
  0
LINE
  8
0
 10
28.6746
 20
-174.332
 11
28.3325
 21
-174.675
  0
LINE
  8
0
 10
28.3325
 20
-174.675
 11
27.9078
 21
-174.907
  0
LINE
  8
0
 10
27.9078
 20
-174.907
 11
27.435
 21
-175.009
  0
LINE
  8
0
 10
27.435
 20
-175.009
 11
26.9523
 21
-174.975
  0
LINE
  8
0
 10
4.09219
 20
-174.907
 11
3.66751
 21
-174.675
  0
LINE
  8
0
 10
3.66751
 20
-174.675
 11
3.32536
 21
-174.332
  0
LINE
  8
0
 10
3.32536
 20
-174.332
 11
3.09348
 21
-173.908
  0
LINE
  8
0
 10
3.09348
 20
-173.908
 11
2.99062
 21
-173.435
  0
LINE
  8
0
 10
2.99062
 20
-173.435
 11
3.02513
 21
-172.952
  0
LINE
  8
0
 10
3.02513
 20
-172.952
 11
3.19423
 21
-172.499
  0
LINE
  8
0
 10
3.19423
 20
-172.499
 11
3.48421
 21
-172.112
  0
LINE
  8
0
 10
3.48421
 20
-172.112
 11
3.87157
 21
-171.822
  0
LINE
  8
0
 10
3.87157
 20
-171.822
 11
4.32492
 21
-171.653
  0
LINE
  8
0
 10
4.32492
 20
-171.653
 11
4.80756
 21
-171.618
  0
LINE
  8
0
 10
4.80756
 20
-171.618
 11
5.28038
 21
-171.721
  0
LINE
  8
0
 10
5.28038
 20
-171.721
 11
5.70506
 21
-171.953
  0
LINE
  8
0
 10
5.70506
 20
-171.953
 11
6.04721
 21
-172.295
  0
LINE
  8
0
 10
6.04721
 20
-172.295
 11
6.2791
 21
-172.72
  0
LINE
  8
0
 10
6.2791
 20
-172.72
 11
6.38196
 21
-173.192
  0
LINE
  8
0
 10
6.38196
 20
-173.192
 11
6.34743
 21
-173.675
  0
LINE
  8
0
 10
6.34743
 20
-173.675
 11
6.17834
 21
-174.128
  0
LINE
  8
0
 10
6.17834
 20
-174.128
 11
5.88837
 21
-174.516
  0
LINE
  8
0
 10
5.88837
 20
-174.516
 11
5.50101
 21
-174.806
  0
LINE
  8
0
 10
5.50101
 20
-174.806
 11
5.04765
 21
-174.975
  0
LINE
  8
0
 10
5.04765
 20
-174.975
 11
4.565
 21
-175.009
  0
LINE
  8
0
 10
4.565
 20
-175.009
 11
4.09219
 21
-174.907
  0
LINE
  8
0
 10
63.2861
 20
-206.979
 11
62.7884
 21
-206.939
  0
LINE
  8
0
 10
62.7884
 20
-206.939
 11
62.2928
 21
-206.878
  0
LINE
  8
0
 10
62.2928
 20
-206.878
 11
61.8002
 21
-206.797
  0
LINE
  8
0
 10
61.8002
 20
-206.797
 11
61.3114
 21
-206.695
  0
LINE
  8
0
 10
61.3114
 20
-206.695
 11
60.8272
 21
-206.573
  0
LINE
  8
0
 10
60.8272
 20
-206.573
 11
60.3486
 21
-206.431
  0
LINE
  8
0
 10
60.3486
 20
-206.431
 11
59.8762
 21
-206.269
  0
LINE
  8
0
 10
59.8762
 20
-206.269
 11
59.411
 21
-206.088
  0
LINE
  8
0
 10
59.411
 20
-206.088
 11
58.9537
 21
-205.887
  0
LINE
  8
0
 10
58.9537
 20
-205.887
 11
58.5052
 21
-205.668
  0
LINE
  8
0
 10
58.5052
 20
-205.668
 11
58.0662
 21
-205.43
  0
LINE
  8
0
 10
58.0662
 20
-205.43
 11
57.6374
 21
-205.174
  0
LINE
  8
0
 10
57.6374
 20
-205.174
 11
57.2197
 21
-204.901
  0
LINE
  8
0
 10
57.2197
 20
-204.901
 11
56.8137
 21
-204.61
  0
LINE
  8
0
 10
56.8137
 20
-204.61
 11
56.4202
 21
-204.303
  0
LINE
  8
0
 10
56.4202
 20
-204.303
 11
56.0397
 21
-203.98
  0
LINE
  8
0
 10
56.0397
 20
-203.98
 11
55.6731
 21
-203.641
  0
LINE
  8
0
 10
55.6731
 20
-203.641
 11
55.3208
 21
-203.287
  0
LINE
  8
0
 10
55.3208
 20
-203.287
 11
54.9836
 21
-202.919
  0
LINE
  8
0
 10
54.9836
 20
-202.919
 11
54.662
 21
-202.537
  0
LINE
  8
0
 10
54.662
 20
-202.537
 11
54.3566
 21
-202.142
  0
LINE
  8
0
 10
54.3566
 20
-202.142
 11
54.0679
 21
-201.734
  0
LINE
  8
0
 10
54.0679
 20
-201.734
 11
53.7963
 21
-201.315
  0
LINE
  8
0
 10
53.7963
 20
-201.315
 11
53.5424
 21
-200.886
  0
LINE
  8
0
 10
53.5424
 20
-200.886
 11
53.3067
 21
-200.445
  0
LINE
  8
0
 10
53.3067
 20
-200.445
 11
53.0894
 21
-199.996
  0
LINE
  8
0
 10
53.0894
 20
-199.996
 11
52.891
 21
-199.538
  0
LINE
  8
0
 10
52.891
 20
-199.538
 11
52.7119
 21
-199.072
  0
LINE
  8
0
 10
52.7119
 20
-199.072
 11
52.5523
 21
-198.599
  0
LINE
  8
0
 10
52.5523
 20
-198.599
 11
52.4125
 21
-198.119
  0
LINE
  8
0
 10
52.4125
 20
-198.119
 11
52.2928
 21
-197.635
  0
LINE
  8
0
 10
52.2928
 20
-197.635
 11
52.1933
 21
-197.145
  0
LINE
  8
0
 10
52.1933
 20
-197.145
 11
52.1143
 21
-196.652
  0
LINE
  8
0
 10
52.1143
 20
-196.652
 11
52.0558
 21
-196.156
  0
LINE
  8
0
 10
52.0558
 20
-196.156
 11
52.0181
 21
-195.659
  0
LINE
  8
0
 10
52.0181
 20
-195.659
 11
52.0011
 21
-195.16
  0
LINE
  8
0
 10
52.0011
 20
-195.16
 11
52.0048
 21
-194.66
  0
LINE
  8
0
 10
52.0048
 20
-194.66
 11
52.0293
 21
-194.162
  0
LINE
  8
0
 10
52.0293
 20
-194.162
 11
52.0746
 21
-193.664
  0
LINE
  8
0
 10
52.0746
 20
-193.664
 11
52.1405
 21
-193.169
  0
LINE
  8
0
 10
52.1405
 20
-193.169
 11
52.2269
 21
-192.678
  0
LINE
  8
0
 10
52.2269
 20
-192.678
 11
52.3337
 21
-192.19
  0
LINE
  8
0
 10
52.3337
 20
-192.19
 11
52.4607
 21
-191.707
  0
LINE
  8
0
 10
52.4607
 20
-191.707
 11
52.6076
 21
-191.23
  0
LINE
  8
0
 10
52.6076
 20
-191.23
 11
52.7743
 21
-190.759
  0
LINE
  8
0
 10
52.7743
 20
-190.759
 11
52.9604
 21
-190.296
  0
LINE
  8
0
 10
52.9604
 20
-190.296
 11
53.1657
 21
-189.841
  0
LINE
  8
0
 10
53.1657
 20
-189.841
 11
53.3897
 21
-189.395
  0
LINE
  8
0
 10
53.3897
 20
-189.395
 11
53.632
 21
-188.958
  0
LINE
  8
0
 10
53.632
 20
-188.958
 11
53.8924
 21
-188.532
  0
LINE
  8
0
 10
53.8924
 20
-188.532
 11
54.1702
 21
-188.117
  0
LINE
  8
0
 10
54.1702
 20
-188.117
 11
54.465
 21
-187.714
  0
LINE
  8
0
 10
54.465
 20
-187.714
 11
54.7763
 21
-187.324
  0
LINE
  8
0
 10
54.7763
 20
-187.324
 11
55.1036
 21
-186.947
  0
LINE
  8
0
 10
55.1036
 20
-186.947
 11
55.4463
 21
-186.584
  0
LINE
  8
0
 10
55.4463
 20
-186.584
 11
55.8038
 21
-186.235
  0
LINE
  8
0
 10
55.8038
 20
-186.235
 11
56.1756
 21
-185.902
  0
LINE
  8
0
 10
56.1756
 20
-185.902
 11
56.5608
 21
-185.584
  0
LINE
  8
0
 10
56.5608
 20
-185.584
 11
56.9589
 21
-185.283
  0
LINE
  8
0
 10
56.9589
 20
-185.283
 11
57.3692
 21
-184.998
  0
LINE
  8
0
 10
57.3692
 20
-184.998
 11
57.791
 21
-184.731
  0
LINE
  8
0
 10
57.791
 20
-184.731
 11
58.2236
 21
-184.482
  0
LINE
  8
0
 10
58.2236
 20
-184.482
 11
58.6661
 21
-184.251
  0
LINE
  8
0
 10
58.6661
 20
-184.251
 11
59.1179
 21
-184.038
  0
LINE
  8
0
 10
59.1179
 20
-184.038
 11
59.5781
 21
-183.844
  0
LINE
  8
0
 10
59.5781
 20
-183.844
 11
60.046
 21
-183.67
  0
LINE
  8
0
 10
60.046
 20
-183.67
 11
60.5207
 21
-183.515
  0
LINE
  8
0
 10
60.5207
 20
-183.515
 11
61.0015
 21
-183.381
  0
LINE
  8
0
 10
61.0015
 20
-183.381
 11
61.4874
 21
-183.266
  0
LINE
  8
0
 10
61.4874
 20
-183.266
 11
61.9777
 21
-183.172
  0
LINE
  8
0
 10
61.9777
 20
-183.172
 11
62.4715
 21
-183.098
  0
LINE
  8
0
 10
62.4715
 20
-183.098
 11
62.9679
 21
-183.044
  0
LINE
  8
0
 10
62.9679
 20
-183.044
 11
63.4662
 21
-183.012
  0
LINE
  8
0
 10
63.4662
 20
-183.012
 11
63.9653
 21
-183
  0
LINE
  8
0
 10
63.9653
 20
-183
 11
64.4645
 21
-183.009
  0
LINE
  8
0
 10
64.4645
 20
-183.009
 11
64.9629
 21
-183.039
  0
LINE
  8
0
 10
64.9629
 20
-183.039
 11
65.4597
 21
-183.089
  0
LINE
  8
0
 10
65.4597
 20
-183.089
 11
65.9539
 21
-183.16
  0
LINE
  8
0
 10
65.9539
 20
-183.16
 11
66.4447
 21
-183.252
  0
LINE
  8
0
 10
66.4447
 20
-183.252
 11
66.9313
 21
-183.364
  0
LINE
  8
0
 10
66.9313
 20
-183.364
 11
67.4128
 21
-183.496
  0
LINE
  8
0
 10
67.4128
 20
-183.496
 11
67.8884
 21
-183.647
  0
LINE
  8
0
 10
67.8884
 20
-183.647
 11
68.3573
 21
-183.819
  0
LINE
  8
0
 10
68.3573
 20
-183.819
 11
68.8187
 21
-184.01
  0
LINE
  8
0
 10
68.8187
 20
-184.01
 11
69.2717
 21
-184.22
  0
LINE
  8
0
 10
69.2717
 20
-184.22
 11
69.7155
 21
-184.449
  0
LINE
  8
0
 10
69.7155
 20
-184.449
 11
70.1495
 21
-184.695
  0
LINE
  8
0
 10
70.1495
 20
-184.695
 11
70.5728
 21
-184.96
  0
LINE
  8
0
 10
70.5728
 20
-184.96
 11
70.9848
 21
-185.242
  0
LINE
  8
0
 10
70.9848
 20
-185.242
 11
71.3847
 21
-185.541
  0
LINE
  8
0
 10
71.3847
 20
-185.541
 11
71.7717
 21
-185.857
  0
LINE
  8
0
 10
71.7717
 20
-185.857
 11
72.1454
 21
-186.188
  0
LINE
  8
0
 10
72.1454
 20
-186.188
 11
72.5049
 21
-186.534
  0
LINE
  8
0
 10
72.5049
 20
-186.534
 11
72.8497
 21
-186.895
  0
LINE
  8
0
 10
72.8497
 20
-186.895
 11
73.1791
 21
-187.271
  0
LINE
  8
0
 10
73.1791
 20
-187.271
 11
73.4927
 21
-187.659
  0
LINE
  8
0
 10
73.4927
 20
-187.659
 11
73.7899
 21
-188.06
  0
LINE
  8
0
 10
73.7899
 20
-188.06
 11
74.0701
 21
-188.474
  0
LINE
  8
0
 10
74.0701
 20
-188.474
 11
74.3329
 21
-188.898
  0
LINE
  8
0
 10
74.3329
 20
-188.898
 11
74.5777
 21
-189.333
  0
LINE
  8
0
 10
74.5777
 20
-189.333
 11
74.8043
 21
-189.778
  0
LINE
  8
0
 10
74.8043
 20
-189.778
 11
75.0122
 21
-190.232
  0
LINE
  8
0
 10
75.0122
 20
-190.232
 11
75.201
 21
-190.694
  0
LINE
  8
0
 10
75.201
 20
-190.694
 11
75.3704
 21
-191.164
  0
LINE
  8
0
 10
75.3704
 20
-191.164
 11
75.5201
 21
-191.64
  0
LINE
  8
0
 10
75.5201
 20
-191.64
 11
75.6499
 21
-192.123
  0
LINE
  8
0
 10
75.6499
 20
-192.123
 11
75.7595
 21
-192.61
  0
LINE
  8
0
 10
75.7595
 20
-192.61
 11
75.8488
 21
-193.101
  0
LINE
  8
0
 10
75.8488
 20
-193.101
 11
75.9175
 21
-193.595
  0
LINE
  8
0
 10
75.9175
 20
-193.595
 11
75.9656
 21
-194.092
  0
LINE
  8
0
 10
75.9656
 20
-194.092
 11
75.993
 21
-194.591
  0
LINE
  8
0
 10
75.993
 20
-194.591
 11
75.9997
 21
-195.09
  0
LINE
  8
0
 10
75.9997
 20
-195.09
 11
75.9855
 21
-195.589
  0
LINE
  8
0
 10
75.9855
 20
-195.589
 11
75.9506
 21
-196.087
  0
LINE
  8
0
 10
75.9506
 20
-196.087
 11
75.8951
 21
-196.583
  0
LINE
  8
0
 10
75.8951
 20
-196.583
 11
75.8189
 21
-197.077
  0
LINE
  8
0
 10
75.8189
 20
-197.077
 11
75.7223
 21
-197.567
  0
LINE
  8
0
 10
75.7223
 20
-197.567
 11
75.6053
 21
-198.052
  0
LINE
  8
0
 10
75.6053
 20
-198.052
 11
75.4683
 21
-198.532
  0
LINE
  8
0
 10
75.4683
 20
-198.532
 11
75.3115
 21
-199.006
  0
LINE
  8
0
 10
75.3115
 20
-199.006
 11
75.135
 21
-199.473
  0
LINE
  8
0
 10
75.135
 20
-199.473
 11
74.9393
 21
-199.933
  0
LINE
  8
0
 10
74.9393
 20
-199.933
 11
74.7246
 21
-200.384
  0
LINE
  8
0
 10
74.7246
 20
-200.384
 11
74.4914
 21
-200.825
  0
LINE
  8
0
 10
74.4914
 20
-200.825
 11
74.24
 21
-201.256
  0
LINE
  8
0
 10
74.24
 20
-201.256
 11
73.9709
 21
-201.677
  0
LINE
  8
0
 10
73.9709
 20
-201.677
 11
73.6845
 21
-202.086
  0
LINE
  8
0
 10
73.6845
 20
-202.086
 11
73.3814
 21
-202.483
  0
LINE
  8
0
 10
73.3814
 20
-202.483
 11
73.062
 21
-202.866
  0
LINE
  8
0
 10
73.062
 20
-202.866
 11
72.7269
 21
-203.237
  0
LINE
  8
0
 10
72.7269
 20
-203.237
 11
72.3767
 21
-203.592
  0
LINE
  8
0
 10
72.3767
 20
-203.592
 11
72.012
 21
-203.934
  0
LINE
  8
0
 10
72.012
 20
-203.934
 11
71.6335
 21
-204.259
  0
LINE
  8
0
 10
71.6335
 20
-204.259
 11
71.2417
 21
-204.569
  0
LINE
  8
0
 10
71.2417
 20
-204.569
 11
70.8374
 21
-204.862
  0
LINE
  8
0
 10
70.8374
 20
-204.862
 11
70.4212
 21
-205.137
  0
LINE
  8
0
 10
70.4212
 20
-205.137
 11
69.994
 21
-205.396
  0
LINE
  8
0
 10
69.994
 20
-205.396
 11
69.5564
 21
-205.636
  0
LINE
  8
0
 10
69.5564
 20
-205.636
 11
69.1091
 21
-205.858
  0
LINE
  8
0
 10
69.1091
 20
-205.858
 11
68.653
 21
-206.061
  0
LINE
  8
0
 10
68.653
 20
-206.061
 11
68.1888
 21
-206.245
  0
LINE
  8
0
 10
68.1888
 20
-206.245
 11
67.7174
 21
-206.41
  0
LINE
  8
0
 10
67.7174
 20
-206.41
 11
67.2396
 21
-206.554
  0
LINE
  8
0
 10
67.2396
 20
-206.554
 11
66.7561
 21
-206.679
  0
LINE
  8
0
 10
66.7561
 20
-206.679
 11
66.2679
 21
-206.784
  0
LINE
  8
0
 10
66.2679
 20
-206.784
 11
65.7758
 21
-206.868
  0
LINE
  8
0
 10
65.7758
 20
-206.868
 11
65.2805
 21
-206.931
  0
LINE
  8
0
 10
65.2805
 20
-206.931
 11
64.7831
 21
-206.974
  0
LINE
  8
0
 10
64.7831
 20
-206.974
 11
64.2843
 21
-206.997
  0
LINE
  8
0
 10
64.2843
 20
-206.997
 11
63.785
 21
-206.998
  0
LINE
  8
0
 10
63.785
 20
-206.998
 11
63.2861
 21
-206.979
  0
LINE
  8
0
 10
24.9818
 20
-191.004
 11
24.5284
 21
-190.835
  0
LINE
  8
0
 10
24.5284
 20
-190.835
 11
24.1411
 21
-190.545
  0
LINE
  8
0
 10
24.1411
 20
-190.545
 11
23.8511
 21
-190.158
  0
LINE
  8
0
 10
23.8511
 20
-190.158
 11
23.682
 21
-189.705
  0
LINE
  8
0
 10
23.682
 20
-189.705
 11
23.6475
 21
-189.222
  0
LINE
  8
0
 10
23.6475
 20
-189.222
 11
23.7503
 21
-188.749
  0
LINE
  8
0
 10
23.7503
 20
-188.749
 11
23.9822
 21
-188.324
  0
LINE
  8
0
 10
23.9822
 20
-188.324
 11
24.3244
 21
-187.982
  0
LINE
  8
0
 10
24.3244
 20
-187.982
 11
24.7491
 21
-187.75
  0
LINE
  8
0
 10
24.7491
 20
-187.75
 11
25.2219
 21
-187.647
  0
LINE
  8
0
 10
25.2219
 20
-187.647
 11
25.7045
 21
-187.682
  0
LINE
  8
0
 10
25.7045
 20
-187.682
 11
26.1579
 21
-187.851
  0
LINE
  8
0
 10
26.1579
 20
-187.851
 11
26.5452
 21
-188.141
  0
LINE
  8
0
 10
26.5452
 20
-188.141
 11
26.8352
 21
-188.528
  0
LINE
  8
0
 10
26.8352
 20
-188.528
 11
27.0043
 21
-188.982
  0
LINE
  8
0
 10
27.0043
 20
-188.982
 11
27.0388
 21
-189.464
  0
LINE
  8
0
 10
27.0388
 20
-189.464
 11
26.936
 21
-189.937
  0
LINE
  8
0
 10
26.936
 20
-189.937
 11
26.7041
 21
-190.362
  0
LINE
  8
0
 10
26.7041
 20
-190.362
 11
26.3619
 21
-190.704
  0
LINE
  8
0
 10
26.3619
 20
-190.704
 11
25.9372
 21
-190.936
  0
LINE
  8
0
 10
25.9372
 20
-190.936
 11
25.4644
 21
-191.039
  0
LINE
  8
0
 10
25.4644
 20
-191.039
 11
24.9818
 21
-191.004
  0
LINE
  8
0
 10
36.0628
 20
-190.936
 11
35.6381
 21
-190.704
  0
LINE
  8
0
 10
35.6381
 20
-190.704
 11
35.2959
 21
-190.362
  0
LINE
  8
0
 10
35.2959
 20
-190.362
 11
35.064
 21
-189.937
  0
LINE
  8
0
 10
35.064
 20
-189.937
 11
34.9612
 21
-189.464
  0
LINE
  8
0
 10
34.9612
 20
-189.464
 11
34.9957
 21
-188.982
  0
LINE
  8
0
 10
34.9957
 20
-188.982
 11
35.1648
 21
-188.528
  0
LINE
  8
0
 10
35.1648
 20
-188.528
 11
35.4548
 21
-188.141
  0
LINE
  8
0
 10
35.4548
 20
-188.141
 11
35.8421
 21
-187.851
  0
LINE
  8
0
 10
35.8421
 20
-187.851
 11
36.2955
 21
-187.682
  0
LINE
  8
0
 10
36.2955
 20
-187.682
 11
36.7781
 21
-187.647
  0
LINE
  8
0
 10
36.7781
 20
-187.647
 11
37.2509
 21
-187.75
  0
LINE
  8
0
 10
37.2509
 20
-187.75
 11
37.6756
 21
-187.982
  0
LINE
  8
0
 10
37.6756
 20
-187.982
 11
38.0178
 21
-188.324
  0
LINE
  8
0
 10
38.0178
 20
-188.324
 11
38.2497
 21
-188.749
  0
LINE
  8
0
 10
38.2497
 20
-188.749
 11
38.3525
 21
-189.222
  0
LINE
  8
0
 10
38.3525
 20
-189.222
 11
38.318
 21
-189.705
  0
LINE
  8
0
 10
38.318
 20
-189.705
 11
38.1489
 21
-190.158
  0
LINE
  8
0
 10
38.1489
 20
-190.158
 11
37.8589
 21
-190.545
  0
LINE
  8
0
 10
37.8589
 20
-190.545
 11
37.4716
 21
-190.835
  0
LINE
  8
0
 10
37.4716
 20
-190.835
 11
37.0182
 21
-191.004
  0
LINE
  8
0
 10
37.0182
 20
-191.004
 11
36.5356
 21
-191.039
  0
LINE
  8
0
 10
36.5356
 20
-191.039
 11
36.0628
 21
-190.936
  0
LINE
  8
0
 10
83.835
 20
-193.203
 11
83.3725
 21
-193.04
  0
LINE
  8
0
 10
83.3725
 20
-193.04
 11
82.971
 21
-192.759
  0
LINE
  8
0
 10
82.971
 20
-192.759
 11
82.6602
 21
-192.38
  0
LINE
  8
0
 10
82.6602
 20
-192.38
 11
82.4632
 21
-191.931
  0
LINE
  8
0
 10
82.4632
 20
-191.931
 11
82.3946
 21
-191.446
  0
LINE
  8
0
 10
82.3946
 20
-191.446
 11
82.4595
 21
-190.96
  0
LINE
  8
0
 10
82.4595
 20
-190.96
 11
82.6531
 21
-190.51
  0
LINE
  8
0
 10
82.6531
 20
-190.51
 11
82.961
 21
-190.128
  0
LINE
  8
0
 10
82.961
 20
-190.128
 11
83.3604
 21
-189.844
  0
LINE
  8
0
 10
83.3604
 20
-189.844
 11
83.8217
 21
-189.678
  0
LINE
  8
0
 10
83.8217
 20
-189.678
 11
86.6071
 21
-189.187
  0
LINE
  8
0
 10
86.6071
 20
-189.187
 11
87.096
 21
-189.152
  0
LINE
  8
0
 10
87.096
 20
-189.152
 11
87.5764
 21
-189.25
  0
LINE
  8
0
 10
87.5764
 20
-189.25
 11
88.0125
 21
-189.474
  0
LINE
  8
0
 10
88.0125
 20
-189.474
 11
88.372
 21
-189.807
  0
LINE
  8
0
 10
88.372
 20
-189.807
 11
88.6283
 21
-190.225
  0
LINE
  8
0
 10
88.6283
 20
-190.225
 11
88.7623
 21
-190.696
  0
LINE
  8
0
 10
88.7623
 20
-190.696
 11
88.7642
 21
-191.186
  0
LINE
  8
0
 10
88.7642
 20
-191.186
 11
88.6337
 21
-191.659
  0
LINE
  8
0
 10
88.6337
 20
-191.659
 11
88.3806
 21
-192.079
  0
LINE
  8
0
 10
88.3806
 20
-192.079
 11
88.0236
 21
-192.415
  0
LINE
  8
0
 10
88.0236
 20
-192.415
 11
87.5892
 21
-192.642
  0
LINE
  8
0
 10
87.5892
 20
-192.642
 11
87.1097
 21
-192.743
  0
LINE
  8
0
 10
87.1097
 20
-192.743
 11
84.3242
 21
-193.234
  0
LINE
  8
0
 10
84.3242
 20
-193.234
 11
83.835
 21
-193.203
  0
LINE
  8
0
 10
30.3792
 20
-200.112
 11
29.8887
 21
-200.029
  0
LINE
  8
0
 10
29.8887
 20
-200.029
 11
29.4086
 21
-199.898
  0
LINE
  8
0
 10
29.4086
 20
-199.898
 11
28.9433
 21
-199.721
  0
LINE
  8
0
 10
28.9433
 20
-199.721
 11
28.4972
 21
-199.501
  0
LINE
  8
0
 10
28.4972
 20
-199.501
 11
28.0745
 21
-199.238
  0
LINE
  8
0
 10
28.0745
 20
-199.238
 11
27.6791
 21
-198.936
  0
LINE
  8
0
 10
27.6791
 20
-198.936
 11
27.3147
 21
-198.597
  0
LINE
  8
0
 10
27.3147
 20
-198.597
 11
26.9847
 21
-198.225
  0
LINE
  8
0
 10
26.9847
 20
-198.225
 11
26.6922
 21
-197.822
  0
LINE
  8
0
 10
26.6922
 20
-197.822
 11
26.4399
 21
-197.393
  0
LINE
  8
0
 10
26.4399
 20
-197.393
 11
26.2302
 21
-196.942
  0
LINE
  8
0
 10
26.2302
 20
-196.942
 11
26.065
 21
-196.473
  0
LINE
  8
0
 10
26.065
 20
-196.473
 11
25.9459
 21
-195.989
  0
LINE
  8
0
 10
25.9459
 20
-195.989
 11
25.874
 21
-195.497
  0
LINE
  8
0
 10
25.874
 20
-195.497
 11
25.85
 21
-195
  0
LINE
  8
0
 10
25.85
 20
-195
 11
25.874
 21
-194.503
  0
LINE
  8
0
 10
25.874
 20
-194.503
 11
25.9459
 21
-194.011
  0
LINE
  8
0
 10
25.9459
 20
-194.011
 11
26.065
 21
-193.527
  0
LINE
  8
0
 10
26.065
 20
-193.527
 11
26.2302
 21
-193.058
  0
LINE
  8
0
 10
26.2302
 20
-193.058
 11
26.4399
 21
-192.607
  0
LINE
  8
0
 10
26.4399
 20
-192.607
 11
26.6922
 21
-192.178
  0
LINE
  8
0
 10
26.6922
 20
-192.178
 11
26.9847
 21
-191.775
  0
LINE
  8
0
 10
26.9847
 20
-191.775
 11
27.3147
 21
-191.403
  0
LINE
  8
0
 10
27.3147
 20
-191.403
 11
27.6791
 21
-191.064
  0
LINE
  8
0
 10
27.6791
 20
-191.064
 11
28.0745
 21
-190.762
  0
LINE
  8
0
 10
28.0745
 20
-190.762
 11
28.4972
 21
-190.499
  0
LINE
  8
0
 10
28.4972
 20
-190.499
 11
28.9433
 21
-190.279
  0
LINE
  8
0
 10
28.9433
 20
-190.279
 11
29.4086
 21
-190.102
  0
LINE
  8
0
 10
29.4086
 20
-190.102
 11
29.8887
 21
-189.971
  0
LINE
  8
0
 10
29.8887
 20
-189.971
 11
30.3792
 21
-189.888
  0
LINE
  8
0
 10
30.3792
 20
-189.888
 11
30.8755
 21
-189.852
  0
LINE
  8
0
 10
30.8755
 20
-189.852
 11
31.373
 21
-189.864
  0
LINE
  8
0
 10
31.373
 20
-189.864
 11
31.867
 21
-189.924
  0
LINE
  8
0
 10
31.867
 20
-189.924
 11
32.3529
 21
-190.031
  0
LINE
  8
0
 10
32.3529
 20
-190.031
 11
32.8262
 21
-190.185
  0
LINE
  8
0
 10
32.8262
 20
-190.185
 11
33.2824
 21
-190.383
  0
LINE
  8
0
 10
33.2824
 20
-190.383
 11
33.7173
 21
-190.625
  0
LINE
  8
0
 10
33.7173
 20
-190.625
 11
34.1269
 21
-190.908
  0
LINE
  8
0
 10
34.1269
 20
-190.908
 11
34.5072
 21
-191.229
  0
LINE
  8
0
 10
34.5072
 20
-191.229
 11
34.8548
 21
-191.585
  0
LINE
  8
0
 10
34.8548
 20
-191.585
 11
35.1664
 21
-191.973
  0
LINE
  8
0
 10
35.1664
 20
-191.973
 11
35.4391
 21
-192.389
  0
LINE
  8
0
 10
35.4391
 20
-192.389
 11
35.6704
 21
-192.83
  0
LINE
  8
0
 10
35.6704
 20
-192.83
 11
35.858
 21
-193.291
  0
LINE
  8
0
 10
35.858
 20
-193.291
 11
36.0004
 21
-193.768
  0
LINE
  8
0
 10
36.0004
 20
-193.768
 11
36.0959
 21
-194.256
  0
LINE
  8
0
 10
36.0959
 20
-194.256
 11
36.144
 21
-194.751
  0
LINE
  8
0
 10
36.144
 20
-194.751
 11
36.144
 21
-195.249
  0
LINE
  8
0
 10
36.144
 20
-195.249
 11
36.0959
 21
-195.744
  0
LINE
  8
0
 10
36.0959
 20
-195.744
 11
36.0004
 21
-196.232
  0
LINE
  8
0
 10
36.0004
 20
-196.232
 11
35.858
 21
-196.709
  0
LINE
  8
0
 10
35.858
 20
-196.709
 11
35.6704
 21
-197.17
  0
LINE
  8
0
 10
35.6704
 20
-197.17
 11
35.4391
 21
-197.611
  0
LINE
  8
0
 10
35.4391
 20
-197.611
 11
35.1664
 21
-198.027
  0
LINE
  8
0
 10
35.1664
 20
-198.027
 11
34.8548
 21
-198.415
  0
LINE
  8
0
 10
34.8548
 20
-198.415
 11
34.5072
 21
-198.771
  0
LINE
  8
0
 10
34.5072
 20
-198.771
 11
34.1269
 21
-199.092
  0
LINE
  8
0
 10
34.1269
 20
-199.092
 11
33.7173
 21
-199.375
  0
LINE
  8
0
 10
33.7173
 20
-199.375
 11
33.2824
 21
-199.617
  0
LINE
  8
0
 10
33.2824
 20
-199.617
 11
32.8262
 21
-199.815
  0
LINE
  8
0
 10
32.8262
 20
-199.815
 11
32.3529
 21
-199.969
  0
LINE
  8
0
 10
32.3529
 20
-199.969
 11
31.867
 21
-200.076
  0
LINE
  8
0
 10
31.867
 20
-200.076
 11
31.373
 21
-200.136
  0
LINE
  8
0
 10
31.373
 20
-200.136
 11
30.8755
 21
-200.148
  0
LINE
  8
0
 10
30.8755
 20
-200.148
 11
30.3792
 21
-200.112
  0
LINE
  8
0
 10
94.3645
 20
-200.631
 11
93.9141
 21
-200.437
  0
LINE
  8
0
 10
93.9141
 20
-200.437
 11
93.5327
 21
-200.129
  0
LINE
  8
0
 10
93.5327
 20
-200.129
 11
93.2485
 21
-199.73
  0
LINE
  8
0
 10
93.2485
 20
-199.73
 11
93.0826
 21
-199.269
  0
LINE
  8
0
 10
93.0826
 20
-199.269
 11
92.5914
 21
-196.483
  0
LINE
  8
0
 10
92.5914
 20
-196.483
 11
92.5561
 21
-195.994
  0
LINE
  8
0
 10
92.5561
 20
-195.994
 11
92.654
 21
-195.514
  0
LINE
  8
0
 10
92.654
 20
-195.514
 11
92.8779
 21
-195.078
  0
LINE
  8
0
 10
92.8779
 20
-195.078
 11
93.2111
 21
-194.718
  0
LINE
  8
0
 10
93.2111
 20
-194.718
 11
93.629
 21
-194.462
  0
LINE
  8
0
 10
93.629
 20
-194.462
 11
94.1005
 21
-194.328
  0
LINE
  8
0
 10
94.1005
 20
-194.328
 11
94.5907
 21
-194.326
  0
LINE
  8
0
 10
94.5907
 20
-194.326
 11
95.0632
 21
-194.456
  0
LINE
  8
0
 10
95.0632
 20
-194.456
 11
95.483
 21
-194.71
  0
LINE
  8
0
 10
95.483
 20
-194.71
 11
95.819
 21
-195.067
  0
LINE
  8
0
 10
95.819
 20
-195.067
 11
96.0462
 21
-195.501
  0
LINE
  8
0
 10
96.0462
 20
-195.501
 11
96.1477
 21
-195.981
  0
LINE
  8
0
 10
96.1477
 20
-195.981
 11
96.6389
 21
-198.766
  0
LINE
  8
0
 10
96.6389
 20
-198.766
 11
96.6073
 21
-199.255
  0
LINE
  8
0
 10
96.6073
 20
-199.255
 11
96.4449
 21
-199.718
  0
LINE
  8
0
 10
96.4449
 20
-199.718
 11
96.1637
 21
-200.119
  0
LINE
  8
0
 10
96.1637
 20
-200.119
 11
95.7846
 21
-200.43
  0
LINE
  8
0
 10
95.7846
 20
-200.43
 11
95.3357
 21
-200.627
  0
LINE
  8
0
 10
95.3357
 20
-200.627
 11
94.8504
 21
-200.696
  0
LINE
  8
0
 10
94.8504
 20
-200.696
 11
94.3645
 21
-200.631
  0
LINE
  8
0
 10
40.4236
 20
-200.75
 11
39.9875
 21
-200.526
  0
LINE
  8
0
 10
39.9875
 20
-200.526
 11
39.628
 21
-200.193
  0
LINE
  8
0
 10
39.628
 20
-200.193
 11
39.3717
 21
-199.775
  0
LINE
  8
0
 10
39.3717
 20
-199.775
 11
39.2377
 21
-199.304
  0
LINE
  8
0
 10
39.2377
 20
-199.304
 11
39.2358
 21
-198.814
  0
LINE
  8
0
 10
39.2358
 20
-198.814
 11
39.3663
 21
-198.341
  0
LINE
  8
0
 10
39.3663
 20
-198.341
 11
39.6194
 21
-197.921
  0
LINE
  8
0
 10
39.6194
 20
-197.921
 11
39.9764
 21
-197.585
  0
LINE
  8
0
 10
39.9764
 20
-197.585
 11
40.4108
 21
-197.358
  0
LINE
  8
0
 10
40.4108
 20
-197.358
 11
40.8903
 21
-197.257
  0
LINE
  8
0
 10
40.8903
 20
-197.257
 11
43.6758
 21
-196.766
  0
LINE
  8
0
 10
43.6758
 20
-196.766
 11
44.165
 21
-196.797
  0
LINE
  8
0
 10
44.165
 20
-196.797
 11
44.6275
 21
-196.96
  0
LINE
  8
0
 10
44.6275
 20
-196.96
 11
45.029
 21
-197.241
  0
LINE
  8
0
 10
45.029
 20
-197.241
 11
45.3398
 21
-197.62
  0
LINE
  8
0
 10
45.3398
 20
-197.62
 11
45.5368
 21
-198.069
  0
LINE
  8
0
 10
45.5368
 20
-198.069
 11
45.6054
 21
-198.554
  0
LINE
  8
0
 10
45.6054
 20
-198.554
 11
45.5405
 21
-199.04
  0
LINE
  8
0
 10
45.5405
 20
-199.04
 11
45.3469
 21
-199.49
  0
LINE
  8
0
 10
45.3469
 20
-199.49
 11
45.039
 21
-199.872
  0
LINE
  8
0
 10
45.039
 20
-199.872
 11
44.6396
 21
-200.156
  0
LINE
  8
0
 10
44.6396
 20
-200.156
 11
44.1783
 21
-200.322
  0
LINE
  8
0
 10
44.1783
 20
-200.322
 11
41.3929
 21
-200.813
  0
LINE
  8
0
 10
41.3929
 20
-200.813
 11
40.9039
 21
-200.848
  0
LINE
  8
0
 10
40.9039
 20
-200.848
 11
40.4236
 21
-200.75
  0
LINE
  8
0
 10
24.7491
 20
-202.25
 11
24.3244
 21
-202.018
  0
LINE
  8
0
 10
24.3244
 20
-202.018
 11
23.9822
 21
-201.676
  0
LINE
  8
0
 10
23.9822
 20
-201.676
 11
23.7503
 21
-201.251
  0
LINE
  8
0
 10
23.7503
 20
-201.251
 11
23.6475
 21
-200.778
  0
LINE
  8
0
 10
23.6475
 20
-200.778
 11
23.682
 21
-200.295
  0
LINE
  8
0
 10
23.682
 20
-200.295
 11
23.8511
 21
-199.842
  0
LINE
  8
0
 10
23.8511
 20
-199.842
 11
24.1411
 21
-199.455
  0
LINE
  8
0
 10
24.1411
 20
-199.455
 11
24.5284
 21
-199.165
  0
LINE
  8
0
 10
24.5284
 20
-199.165
 11
24.9818
 21
-198.996
  0
LINE
  8
0
 10
24.9818
 20
-198.996
 11
25.4644
 21
-198.961
  0
LINE
  8
0
 10
25.4644
 20
-198.961
 11
25.9372
 21
-199.064
  0
LINE
  8
0
 10
25.9372
 20
-199.064
 11
26.3619
 21
-199.296
  0
LINE
  8
0
 10
26.3619
 20
-199.296
 11
26.7041
 21
-199.638
  0
LINE
  8
0
 10
26.7041
 20
-199.638
 11
26.936
 21
-200.063
  0
LINE
  8
0
 10
26.936
 20
-200.063
 11
27.0388
 21
-200.536
  0
LINE
  8
0
 10
27.0388
 20
-200.536
 11
27.0043
 21
-201.018
  0
LINE
  8
0
 10
27.0043
 20
-201.018
 11
26.8352
 21
-201.472
  0
LINE
  8
0
 10
26.8352
 20
-201.472
 11
26.5452
 21
-201.859
  0
LINE
  8
0
 10
26.5452
 20
-201.859
 11
26.1579
 21
-202.149
  0
LINE
  8
0
 10
26.1579
 20
-202.149
 11
25.7045
 21
-202.318
  0
LINE
  8
0
 10
25.7045
 20
-202.318
 11
25.2219
 21
-202.353
  0
LINE
  8
0
 10
25.2219
 20
-202.353
 11
24.7491
 21
-202.25
  0
LINE
  8
0
 10
36.2955
 20
-202.318
 11
35.8421
 21
-202.149
  0
LINE
  8
0
 10
35.8421
 20
-202.149
 11
35.4548
 21
-201.859
  0
LINE
  8
0
 10
35.4548
 20
-201.859
 11
35.1648
 21
-201.472
  0
LINE
  8
0
 10
35.1648
 20
-201.472
 11
34.9957
 21
-201.018
  0
LINE
  8
0
 10
34.9957
 20
-201.018
 11
34.9612
 21
-200.536
  0
LINE
  8
0
 10
34.9612
 20
-200.536
 11
35.064
 21
-200.063
  0
LINE
  8
0
 10
35.064
 20
-200.063
 11
35.2959
 21
-199.638
  0
LINE
  8
0
 10
35.2959
 20
-199.638
 11
35.6381
 21
-199.296
  0
LINE
  8
0
 10
35.6381
 20
-199.296
 11
36.0628
 21
-199.064
  0
LINE
  8
0
 10
36.0628
 20
-199.064
 11
36.5356
 21
-198.961
  0
LINE
  8
0
 10
36.5356
 20
-198.961
 11
37.0182
 21
-198.996
  0
LINE
  8
0
 10
37.0182
 20
-198.996
 11
37.4716
 21
-199.165
  0
LINE
  8
0
 10
37.4716
 20
-199.165
 11
37.8589
 21
-199.455
  0
LINE
  8
0
 10
37.8589
 20
-199.455
 11
38.1489
 21
-199.842
  0
LINE
  8
0
 10
38.1489
 20
-199.842
 11
38.318
 21
-200.295
  0
LINE
  8
0
 10
38.318
 20
-200.295
 11
38.3525
 21
-200.778
  0
LINE
  8
0
 10
38.3525
 20
-200.778
 11
38.2497
 21
-201.251
  0
LINE
  8
0
 10
38.2497
 20
-201.251
 11
38.0178
 21
-201.676
  0
LINE
  8
0
 10
38.0178
 20
-201.676
 11
37.6756
 21
-202.018
  0
LINE
  8
0
 10
37.6756
 20
-202.018
 11
37.2509
 21
-202.25
  0
LINE
  8
0
 10
37.2509
 20
-202.25
 11
36.7781
 21
-202.353
  0
LINE
  8
0
 10
36.7781
 20
-202.353
 11
36.2955
 21
-202.318
  0
LINE
  8
0
 10
97.6905
 20
-231.069
 11
97.1928
 21
-231.029
  0
LINE
  8
0
 10
97.1928
 20
-231.029
 11
96.6972
 21
-230.968
  0
LINE
  8
0
 10
96.6972
 20
-230.968
 11
96.2046
 21
-230.887
  0
LINE
  8
0
 10
96.2046
 20
-230.887
 11
95.7158
 21
-230.785
  0
LINE
  8
0
 10
95.7158
 20
-230.785
 11
95.2316
 21
-230.663
  0
LINE
  8
0
 10
95.2316
 20
-230.663
 11
94.7529
 21
-230.521
  0
LINE
  8
0
 10
94.7529
 20
-230.521
 11
94.2806
 21
-230.359
  0
LINE
  8
0
 10
94.2806
 20
-230.359
 11
93.8154
 21
-230.178
  0
LINE
  8
0
 10
93.8154
 20
-230.178
 11
93.3581
 21
-229.978
  0
LINE
  8
0
 10
93.3581
 20
-229.978
 11
92.9096
 21
-229.758
  0
LINE
  8
0
 10
92.9096
 20
-229.758
 11
92.4706
 21
-229.52
  0
LINE
  8
0
 10
92.4706
 20
-229.52
 11
92.0418
 21
-229.265
  0
LINE
  8
0
 10
92.0418
 20
-229.265
 11
91.6241
 21
-228.991
  0
LINE
  8
0
 10
91.6241
 20
-228.991
 11
91.2181
 21
-228.7
  0
LINE
  8
0
 10
91.2181
 20
-228.7
 11
90.8245
 21
-228.393
  0
LINE
  8
0
 10
90.8245
 20
-228.393
 11
90.4441
 21
-228.07
  0
LINE
  8
0
 10
90.4441
 20
-228.07
 11
90.0775
 21
-227.731
  0
LINE
  8
0
 10
90.0775
 20
-227.731
 11
89.7252
 21
-227.377
  0
LINE
  8
0
 10
89.7252
 20
-227.377
 11
89.388
 21
-227.009
  0
LINE
  8
0
 10
89.388
 20
-227.009
 11
89.0664
 21
-226.627
  0
LINE
  8
0
 10
89.0664
 20
-226.627
 11
88.761
 21
-226.232
  0
LINE
  8
0
 10
88.761
 20
-226.232
 11
88.4722
 21
-225.825
  0
LINE
  8
0
 10
88.4722
 20
-225.825
 11
88.2007
 21
-225.406
  0
LINE
  8
0
 10
88.2007
 20
-225.406
 11
87.9468
 21
-224.976
  0
LINE
  8
0
 10
87.9468
 20
-224.976
 11
87.711
 21
-224.536
  0
LINE
  8
0
 10
87.711
 20
-224.536
 11
87.4938
 21
-224.086
  0
LINE
  8
0
 10
87.4938
 20
-224.086
 11
87.2954
 21
-223.628
  0
LINE
  8
0
 10
87.2954
 20
-223.628
 11
87.1163
 21
-223.162
  0
LINE
  8
0
 10
87.1163
 20
-223.162
 11
86.9566
 21
-222.689
  0
LINE
  8
0
 10
86.9566
 20
-222.689
 11
86.8169
 21
-222.209
  0
LINE
  8
0
 10
86.8169
 20
-222.209
 11
86.6971
 21
-221.725
  0
LINE
  8
0
 10
86.6971
 20
-221.725
 11
86.5977
 21
-221.235
  0
LINE
  8
0
 10
86.5977
 20
-221.235
 11
86.5187
 21
-220.742
  0
LINE
  8
0
 10
86.5187
 20
-220.742
 11
86.4602
 21
-220.247
  0
LINE
  8
0
 10
86.4602
 20
-220.247
 11
86.4225
 21
-219.749
  0
LINE
  8
0
 10
86.4225
 20
-219.749
 11
86.4054
 21
-219.25
  0
LINE
  8
0
 10
86.4054
 20
-219.25
 11
86.4092
 21
-218.75
  0
LINE
  8
0
 10
86.4092
 20
-218.75
 11
86.4337
 21
-218.252
  0
LINE
  8
0
 10
86.4337
 20
-218.252
 11
86.479
 21
-217.755
  0
LINE
  8
0
 10
86.479
 20
-217.755
 11
86.5448
 21
-217.26
  0
LINE
  8
0
 10
86.5448
 20
-217.26
 11
86.6313
 21
-216.768
  0
LINE
  8
0
 10
86.6313
 20
-216.768
 11
86.7381
 21
-216.28
  0
LINE
  8
0
 10
86.7381
 20
-216.28
 11
86.8651
 21
-215.797
  0
LINE
  8
0
 10
86.8651
 20
-215.797
 11
87.012
 21
-215.32
  0
LINE
  8
0
 10
87.012
 20
-215.32
 11
87.1787
 21
-214.849
  0
LINE
  8
0
 10
87.1787
 20
-214.849
 11
87.3648
 21
-214.386
  0
LINE
  8
0
 10
87.3648
 20
-214.386
 11
87.5701
 21
-213.931
  0
LINE
  8
0
 10
87.5701
 20
-213.931
 11
87.7941
 21
-213.485
  0
LINE
  8
0
 10
87.7941
 20
-213.485
 11
88.0364
 21
-213.048
  0
LINE
  8
0
 10
88.0364
 20
-213.048
 11
88.2968
 21
-212.622
  0
LINE
  8
0
 10
88.2968
 20
-212.622
 11
88.5746
 21
-212.207
  0
LINE
  8
0
 10
88.5746
 20
-212.207
 11
88.8694
 21
-211.804
  0
LINE
  8
0
 10
88.8694
 20
-211.804
 11
89.1807
 21
-211.414
  0
LINE
  8
0
 10
89.1807
 20
-211.414
 11
89.508
 21
-211.037
  0
LINE
  8
0
 10
89.508
 20
-211.037
 11
89.8507
 21
-210.674
  0
LINE
  8
0
 10
89.8507
 20
-210.674
 11
90.2082
 21
-210.325
  0
LINE
  8
0
 10
90.2082
 20
-210.325
 11
90.5799
 21
-209.992
  0
LINE
  8
0
 10
90.5799
 20
-209.992
 11
90.9652
 21
-209.674
  0
LINE
  8
0
 10
90.9652
 20
-209.674
 11
91.3633
 21
-209.373
  0
LINE
  8
0
 10
91.3633
 20
-209.373
 11
91.7736
 21
-209.089
  0
LINE
  8
0
 10
91.7736
 20
-209.089
 11
92.1954
 21
-208.821
  0
LINE
  8
0
 10
92.1954
 20
-208.821
 11
92.628
 21
-208.572
  0
LINE
  8
0
 10
92.628
 20
-208.572
 11
93.0705
 21
-208.341
  0
LINE
  8
0
 10
93.0705
 20
-208.341
 11
93.5223
 21
-208.128
  0
LINE
  8
0
 10
93.5223
 20
-208.128
 11
93.9825
 21
-207.935
  0
LINE
  8
0
 10
93.9825
 20
-207.935
 11
94.4504
 21
-207.76
  0
LINE
  8
0
 10
94.4504
 20
-207.76
 11
94.9251
 21
-207.606
  0
LINE
  8
0
 10
94.9251
 20
-207.606
 11
95.4059
 21
-207.471
  0
LINE
  8
0
 10
95.4059
 20
-207.471
 11
95.8918
 21
-207.356
  0
LINE
  8
0
 10
95.8918
 20
-207.356
 11
96.3821
 21
-207.262
  0
LINE
  8
0
 10
96.3821
 20
-207.262
 11
96.8759
 21
-207.188
  0
LINE
  8
0
 10
96.8759
 20
-207.188
 11
97.3723
 21
-207.135
  0
LINE
  8
0
 10
97.3723
 20
-207.135
 11
97.8706
 21
-207.102
  0
LINE
  8
0
 10
97.8706
 20
-207.102
 11
98.3697
 21
-207.09
  0
LINE
  8
0
 10
98.3697
 20
-207.09
 11
98.8689
 21
-207.099
  0
LINE
  8
0
 10
98.8689
 20
-207.099
 11
99.3673
 21
-207.129
  0
LINE
  8
0
 10
99.3673
 20
-207.129
 11
99.8641
 21
-207.179
  0
LINE
  8
0
 10
99.8641
 20
-207.179
 11
100.358
 21
-207.25
  0
LINE
  8
0
 10
100.358
 20
-207.25
 11
100.849
 21
-207.342
  0
LINE
  8
0
 10
100.849
 20
-207.342
 11
101.336
 21
-207.454
  0
LINE
  8
0
 10
101.336
 20
-207.454
 11
101.817
 21
-207.586
  0
LINE
  8
0
 10
101.817
 20
-207.586
 11
102.293
 21
-207.738
  0
LINE
  8
0
 10
102.293
 20
-207.738
 11
102.762
 21
-207.909
  0
LINE
  8
0
 10
102.762
 20
-207.909
 11
103.223
 21
-208.1
  0
LINE
  8
0
 10
103.223
 20
-208.1
 11
103.676
 21
-208.31
  0
LINE
  8
0
 10
103.676
 20
-208.31
 11
104.12
 21
-208.539
  0
LINE
  8
0
 10
104.12
 20
-208.539
 11
104.554
 21
-208.786
  0
LINE
  8
0
 10
104.554
 20
-208.786
 11
104.977
 21
-209.05
  0
LINE
  8
0
 10
104.977
 20
-209.05
 11
105.389
 21
-209.333
  0
LINE
  8
0
 10
105.389
 20
-209.333
 11
105.789
 21
-209.632
  0
LINE
  8
0
 10
105.789
 20
-209.632
 11
106.176
 21
-209.947
  0
LINE
  8
0
 10
106.176
 20
-209.947
 11
106.55
 21
-210.278
  0
LINE
  8
0
 10
106.55
 20
-210.278
 11
106.909
 21
-210.625
  0
LINE
  8
0
 10
106.909
 20
-210.625
 11
107.254
 21
-210.986
  0
LINE
  8
0
 10
107.254
 20
-210.986
 11
107.584
 21
-211.361
  0
LINE
  8
0
 10
107.584
 20
-211.361
 11
107.897
 21
-211.749
  0
LINE
  8
0
 10
107.897
 20
-211.749
 11
108.194
 21
-212.151
  0
LINE
  8
0
 10
108.194
 20
-212.151
 11
108.474
 21
-212.564
  0
LINE
  8
0
 10
108.474
 20
-212.564
 11
108.737
 21
-212.988
  0
LINE
  8
0
 10
108.737
 20
-212.988
 11
108.982
 21
-213.424
  0
LINE
  8
0
 10
108.982
 20
-213.424
 11
109.209
 21
-213.868
  0
LINE
  8
0
 10
109.209
 20
-213.868
 11
109.417
 21
-214.322
  0
LINE
  8
0
 10
109.417
 20
-214.322
 11
109.605
 21
-214.785
  0
LINE
  8
0
 10
109.605
 20
-214.785
 11
109.775
 21
-215.254
  0
LINE
  8
0
 10
109.775
 20
-215.254
 11
109.924
 21
-215.731
  0
LINE
  8
0
 10
109.924
 20
-215.731
 11
110.054
 21
-216.213
  0
LINE
  8
0
 10
110.054
 20
-216.213
 11
110.164
 21
-216.7
  0
LINE
  8
0
 10
110.164
 20
-216.7
 11
110.253
 21
-217.191
  0
LINE
  8
0
 10
110.253
 20
-217.191
 11
110.322
 21
-217.686
  0
LINE
  8
0
 10
110.322
 20
-217.686
 11
110.37
 21
-218.183
  0
LINE
  8
0
 10
110.37
 20
-218.183
 11
110.397
 21
-218.681
  0
LINE
  8
0
 10
110.397
 20
-218.681
 11
110.404
 21
-219.18
  0
LINE
  8
0
 10
110.404
 20
-219.18
 11
110.39
 21
-219.679
  0
LINE
  8
0
 10
110.39
 20
-219.679
 11
110.355
 21
-220.178
  0
LINE
  8
0
 10
110.355
 20
-220.178
 11
110.299
 21
-220.674
  0
LINE
  8
0
 10
110.299
 20
-220.674
 11
110.223
 21
-221.167
  0
LINE
  8
0
 10
110.223
 20
-221.167
 11
110.127
 21
-221.657
  0
LINE
  8
0
 10
110.127
 20
-221.657
 11
110.01
 21
-222.142
  0
LINE
  8
0
 10
110.01
 20
-222.142
 11
109.873
 21
-222.623
  0
LINE
  8
0
 10
109.873
 20
-222.623
 11
109.716
 21
-223.097
  0
LINE
  8
0
 10
109.716
 20
-223.097
 11
109.539
 21
-223.564
  0
LINE
  8
0
 10
109.539
 20
-223.564
 11
109.344
 21
-224.023
  0
LINE
  8
0
 10
109.344
 20
-224.023
 11
109.129
 21
-224.474
  0
LINE
  8
0
 10
109.129
 20
-224.474
 11
108.896
 21
-224.915
  0
LINE
  8
0
 10
108.896
 20
-224.915
 11
108.644
 21
-225.347
  0
LINE
  8
0
 10
108.644
 20
-225.347
 11
108.375
 21
-225.767
  0
LINE
  8
0
 10
108.375
 20
-225.767
 11
108.089
 21
-226.176
  0
LINE
  8
0
 10
108.089
 20
-226.176
 11
107.786
 21
-226.573
  0
LINE
  8
0
 10
107.786
 20
-226.573
 11
107.466
 21
-226.957
  0
LINE
  8
0
 10
107.466
 20
-226.957
 11
107.131
 21
-227.327
  0
LINE
  8
0
 10
107.131
 20
-227.327
 11
106.781
 21
-227.683
  0
LINE
  8
0
 10
106.781
 20
-227.683
 11
106.416
 21
-228.024
  0
LINE
  8
0
 10
106.416
 20
-228.024
 11
106.038
 21
-228.349
  0
LINE
  8
0
 10
106.038
 20
-228.349
 11
105.646
 21
-228.659
  0
LINE
  8
0
 10
105.646
 20
-228.659
 11
105.242
 21
-228.952
  0
LINE
  8
0
 10
105.242
 20
-228.952
 11
104.826
 21
-229.228
  0
LINE
  8
0
 10
104.826
 20
-229.228
 11
104.398
 21
-229.486
  0
LINE
  8
0
 10
104.398
 20
-229.486
 11
103.961
 21
-229.726
  0
LINE
  8
0
 10
103.961
 20
-229.726
 11
103.513
 21
-229.948
  0
LINE
  8
0
 10
103.513
 20
-229.948
 11
103.057
 21
-230.151
  0
LINE
  8
0
 10
103.057
 20
-230.151
 11
102.593
 21
-230.335
  0
LINE
  8
0
 10
102.593
 20
-230.335
 11
102.122
 21
-230.5
  0
LINE
  8
0
 10
102.122
 20
-230.5
 11
101.644
 21
-230.645
  0
LINE
  8
0
 10
101.644
 20
-230.645
 11
101.161
 21
-230.769
  0
LINE
  8
0
 10
101.161
 20
-230.769
 11
100.672
 21
-230.874
  0
LINE
  8
0
 10
100.672
 20
-230.874
 11
100.18
 21
-230.958
  0
LINE
  8
0
 10
100.18
 20
-230.958
 11
99.6849
 21
-231.022
  0
LINE
  8
0
 10
99.6849
 20
-231.022
 11
99.1875
 21
-231.065
  0
LINE
  8
0
 10
99.1875
 20
-231.065
 11
98.6887
 21
-231.087
  0
LINE
  8
0
 10
98.6887
 20
-231.087
 11
98.1894
 21
-231.088
  0
LINE
  8
0
 10
98.1894
 20
-231.088
 11
97.6905
 21
-231.069
  0
LINE
  8
0
 10
118.239
 20
-217.293
 11
117.777
 21
-217.131
  0
LINE
  8
0
 10
117.777
 20
-217.131
 11
117.375
 21
-216.85
  0
LINE
  8
0
 10
117.375
 20
-216.85
 11
117.065
 21
-216.47
  0
LINE
  8
0
 10
117.065
 20
-216.47
 11
116.868
 21
-216.022
  0
LINE
  8
0
 10
116.868
 20
-216.022
 11
116.799
 21
-215.536
  0
LINE
  8
0
 10
116.799
 20
-215.536
 11
116.864
 21
-215.05
  0
LINE
  8
0
 10
116.864
 20
-215.05
 11
117.057
 21
-214.6
  0
LINE
  8
0
 10
117.057
 20
-214.6
 11
117.365
 21
-214.219
  0
LINE
  8
0
 10
117.365
 20
-214.219
 11
117.765
 21
-213.934
  0
LINE
  8
0
 10
117.765
 20
-213.934
 11
118.226
 21
-213.768
  0
LINE
  8
0
 10
118.226
 20
-213.768
 11
121.011
 21
-213.277
  0
LINE
  8
0
 10
121.011
 20
-213.277
 11
121.5
 21
-213.242
  0
LINE
  8
0
 10
121.5
 20
-213.242
 11
121.981
 21
-213.34
  0
LINE
  8
0
 10
121.981
 20
-213.34
 11
122.417
 21
-213.564
  0
LINE
  8
0
 10
122.417
 20
-213.564
 11
122.776
 21
-213.897
  0
LINE
  8
0
 10
122.776
 20
-213.897
 11
123.033
 21
-214.315
  0
LINE
  8
0
 10
123.033
 20
-214.315
 11
123.167
 21
-214.786
  0
LINE
  8
0
 10
123.167
 20
-214.786
 11
123.169
 21
-215.277
  0
LINE
  8
0
 10
123.169
 20
-215.277
 11
123.038
 21
-215.749
  0
LINE
  8
0
 10
123.038
 20
-215.749
 11
122.785
 21
-216.169
  0
LINE
  8
0
 10
122.785
 20
-216.169
 11
122.428
 21
-216.505
  0
LINE
  8
0
 10
122.428
 20
-216.505
 11
121.994
 21
-216.732
  0
LINE
  8
0
 10
121.994
 20
-216.732
 11
121.514
 21
-216.834
  0
LINE
  8
0
 10
121.514
 20
-216.834
 11
118.729
 21
-217.325
  0
LINE
  8
0
 10
118.729
 20
-217.325
 11
118.239
 21
-217.293
  0
LINE
  8
0
 10
67.3411
 20
-219.634
 11
66.9213
 21
-219.381
  0
LINE
  8
0
 10
66.9213
 20
-219.381
 11
66.5854
 21
-219.024
  0
LINE
  8
0
 10
66.5854
 20
-219.024
 11
66.3582
 21
-218.589
  0
LINE
  8
0
 10
66.3582
 20
-218.589
 11
66.2567
 21
-218.11
  0
LINE
  8
0
 10
66.2567
 20
-218.11
 11
65.7655
 21
-215.324
  0
LINE
  8
0
 10
65.7655
 20
-215.324
 11
65.7971
 21
-214.835
  0
LINE
  8
0
 10
65.7971
 20
-214.835
 11
65.9595
 21
-214.373
  0
LINE
  8
0
 10
65.9595
 20
-214.373
 11
66.2407
 21
-213.971
  0
LINE
  8
0
 10
66.2407
 20
-213.971
 11
66.6198
 21
-213.66
  0
LINE
  8
0
 10
66.6198
 20
-213.66
 11
67.0686
 21
-213.463
  0
LINE
  8
0
 10
67.0686
 20
-213.463
 11
67.554
 21
-213.395
  0
LINE
  8
0
 10
67.554
 20
-213.395
 11
68.0399
 21
-213.459
  0
LINE
  8
0
 10
68.0399
 20
-213.459
 11
68.4902
 21
-213.653
  0
LINE
  8
0
 10
68.4902
 20
-213.653
 11
68.8717
 21
-213.961
  0
LINE
  8
0
 10
68.8717
 20
-213.961
 11
69.1559
 21
-214.36
  0
LINE
  8
0
 10
69.1559
 20
-214.36
 11
69.3218
 21
-214.822
  0
LINE
  8
0
 10
69.3218
 20
-214.822
 11
69.8129
 21
-217.607
  0
LINE
  8
0
 10
69.8129
 20
-217.607
 11
69.8483
 21
-218.096
  0
LINE
  8
0
 10
69.8483
 20
-218.096
 11
69.7503
 21
-218.576
  0
LINE
  8
0
 10
69.7503
 20
-218.576
 11
69.5265
 21
-219.012
  0
LINE
  8
0
 10
69.5265
 20
-219.012
 11
69.1932
 21
-219.372
  0
LINE
  8
0
 10
69.1932
 20
-219.372
 11
68.7754
 21
-219.628
  0
LINE
  8
0
 10
68.7754
 20
-219.628
 11
68.3039
 21
-219.762
  0
LINE
  8
0
 10
68.3039
 20
-219.762
 11
67.8137
 21
-219.764
  0
LINE
  8
0
 10
67.8137
 20
-219.764
 11
67.3411
 21
-219.634
  0
LINE
  8
0
 10
4.32492
 20
-218.347
 11
3.87157
 21
-218.178
  0
LINE
  8
0
 10
3.87157
 20
-218.178
 11
3.48421
 21
-217.888
  0
LINE
  8
0
 10
3.48421
 20
-217.888
 11
3.19423
 21
-217.501
  0
LINE
  8
0
 10
3.19423
 20
-217.501
 11
3.02513
 21
-217.048
  0
LINE
  8
0
 10
3.02513
 20
-217.048
 11
2.99062
 21
-216.565
  0
LINE
  8
0
 10
2.99062
 20
-216.565
 11
3.09348
 21
-216.092
  0
LINE
  8
0
 10
3.09348
 20
-216.092
 11
3.32536
 21
-215.668
  0
LINE
  8
0
 10
3.32536
 20
-215.668
 11
3.66751
 21
-215.325
  0
LINE
  8
0
 10
3.66751
 20
-215.325
 11
4.09219
 21
-215.093
  0
LINE
  8
0
 10
4.09219
 20
-215.093
 11
4.565
 21
-214.991
  0
LINE
  8
0
 10
4.565
 20
-214.991
 11
5.04765
 21
-215.025
  0
LINE
  8
0
 10
5.04765
 20
-215.025
 11
5.50101
 21
-215.194
  0
LINE
  8
0
 10
5.50101
 20
-215.194
 11
5.88837
 21
-215.484
  0
LINE
  8
0
 10
5.88837
 20
-215.484
 11
6.17834
 21
-215.872
  0
LINE
  8
0
 10
6.17834
 20
-215.872
 11
6.34743
 21
-216.325
  0
LINE
  8
0
 10
6.34743
 20
-216.325
 11
6.38196
 21
-216.808
  0
LINE
  8
0
 10
6.38196
 20
-216.808
 11
6.2791
 21
-217.28
  0
LINE
  8
0
 10
6.2791
 20
-217.28
 11
6.04721
 21
-217.705
  0
LINE
  8
0
 10
6.04721
 20
-217.705
 11
5.70506
 21
-218.047
  0
LINE
  8
0
 10
5.70506
 20
-218.047
 11
5.28038
 21
-218.279
  0
LINE
  8
0
 10
5.28038
 20
-218.279
 11
4.80756
 21
-218.382
  0
LINE
  8
0
 10
4.80756
 20
-218.382
 11
4.32492
 21
-218.347
  0
LINE
  8
0
 10
26.7196
 20
-218.279
 11
26.2949
 21
-218.047
  0
LINE
  8
0
 10
26.2949
 20
-218.047
 11
25.9528
 21
-217.705
  0
LINE
  8
0
 10
25.9528
 20
-217.705
 11
25.7209
 21
-217.28
  0
LINE
  8
0
 10
25.7209
 20
-217.28
 11
25.618
 21
-216.808
  0
LINE
  8
0
 10
25.618
 20
-216.808
 11
25.6526
 21
-216.325
  0
LINE
  8
0
 10
25.6526
 20
-216.325
 11
25.8216
 21
-215.872
  0
LINE
  8
0
 10
25.8216
 20
-215.872
 11
26.1116
 21
-215.484
  0
LINE
  8
0
 10
26.1116
 20
-215.484
 11
26.499
 21
-215.194
  0
LINE
  8
0
 10
26.499
 20
-215.194
 11
26.9523
 21
-215.025
  0
LINE
  8
0
 10
26.9523
 20
-215.025
 11
27.435
 21
-214.991
  0
LINE
  8
0
 10
27.435
 20
-214.991
 11
27.9078
 21
-215.093
  0
LINE
  8
0
 10
27.9078
 20
-215.093
 11
28.3325
 21
-215.325
  0
LINE
  8
0
 10
28.3325
 20
-215.325
 11
28.6746
 21
-215.668
  0
LINE
  8
0
 10
28.6746
 20
-215.668
 11
28.9065
 21
-216.092
  0
LINE
  8
0
 10
28.9065
 20
-216.092
 11
29.0094
 21
-216.565
  0
LINE
  8
0
 10
29.0094
 20
-216.565
 11
28.9749
 21
-217.048
  0
LINE
  8
0
 10
28.9749
 20
-217.048
 11
28.8058
 21
-217.501
  0
LINE
  8
0
 10
28.8058
 20
-217.501
 11
28.5158
 21
-217.888
  0
LINE
  8
0
 10
28.5158
 20
-217.888
 11
28.1284
 21
-218.178
  0
LINE
  8
0
 10
28.1284
 20
-218.178
 11
27.6751
 21
-218.347
  0
LINE
  8
0
 10
27.6751
 20
-218.347
 11
27.1924
 21
-218.382
  0
LINE
  8
0
 10
27.1924
 20
-218.382
 11
26.7196
 21
-218.279
  0
LINE
  8
0
 10
15.6271
 20
-238.994
 11
15.1308
 21
-238.966
  0
LINE
  8
0
 10
15.1308
 20
-238.966
 11
14.6361
 21
-238.915
  0
LINE
  8
0
 10
14.6361
 20
-238.915
 11
14.1443
 21
-238.842
  0
LINE
  8
0
 10
14.1443
 20
-238.842
 11
13.6562
 21
-238.747
  0
LINE
  8
0
 10
13.6562
 20
-238.747
 11
13.173
 21
-238.631
  0
LINE
  8
0
 10
13.173
 20
-238.631
 11
12.6955
 21
-238.492
  0
LINE
  8
0
 10
12.6955
 20
-238.492
 11
12.2248
 21
-238.332
  0
LINE
  8
0
 10
12.2248
 20
-238.332
 11
11.7618
 21
-238.151
  0
LINE
  8
0
 10
11.7618
 20
-238.151
 11
11.3074
 21
-237.949
  0
LINE
  8
0
 10
11.3074
 20
-237.949
 11
10.8627
 21
-237.727
  0
LINE
  8
0
 10
10.8627
 20
-237.727
 11
10.4284
 21
-237.485
  0
LINE
  8
0
 10
10.4284
 20
-237.485
 11
10.0055
 21
-237.223
  0
LINE
  8
0
 10
10.0055
 20
-237.223
 11
9.59485
 21
-236.943
  0
LINE
  8
0
 10
9.59485
 20
-236.943
 11
9.19728
 21
-236.644
  0
LINE
  8
0
 10
9.19728
 20
-236.644
 11
8.81361
 21
-236.328
  0
LINE
  8
0
 10
8.81361
 20
-236.328
 11
8.44464
 21
-235.995
  0
LINE
  8
0
 10
8.44464
 20
-235.995
 11
8.09109
 21
-235.645
  0
LINE
  8
0
 10
8.09109
 20
-235.645
 11
7.75371
 21
-235.28
  0
LINE
  8
0
 10
7.75371
 20
-235.28
 11
7.43317
 21
-234.9
  0
LINE
  8
0
 10
7.43317
 20
-234.9
 11
7.13013
 21
-234.506
  0
LINE
  8
0
 10
7.13013
 20
-234.506
 11
6.8452
 21
-234.098
  0
LINE
  8
0
 10
6.8452
 20
-234.098
 11
6.57898
 21
-233.678
  0
LINE
  8
0
 10
6.57898
 20
-233.678
 11
6.33202
 21
-233.247
  0
LINE
  8
0
 10
6.33202
 20
-233.247
 11
6.1048
 21
-232.805
  0
LINE
  8
0
 10
6.1048
 20
-232.805
 11
5.8978
 21
-232.353
  0
LINE
  8
0
 10
5.8978
 20
-232.353
 11
5.71143
 21
-231.892
  0
LINE
  8
0
 10
5.71143
 20
-231.892
 11
5.54608
 21
-231.423
  0
LINE
  8
0
 10
5.54608
 20
-231.423
 11
5.40208
 21
-230.947
  0
LINE
  8
0
 10
5.40208
 20
-230.947
 11
5.27975
 21
-230.465
  0
LINE
  8
0
 10
5.27975
 20
-230.465
 11
5.17931
 21
-229.978
  0
LINE
  8
0
 10
5.17931
 20
-229.978
 11
5.10098
 21
-229.487
  0
LINE
  8
0
 10
5.10098
 20
-229.487
 11
5.04492
 21
-228.993
  0
LINE
  8
0
 10
5.04492
 20
-228.993
 11
5.01123
 21
-228.497
  0
LINE
  8
0
 10
5.01123
 20
-228.497
 11
5
 21
-228
  0
LINE
  8
0
 10
5
 20
-228
 11
5.01123
 21
-227.503
  0
LINE
  8
0
 10
5.01123
 20
-227.503
 11
5.04492
 21
-227.007
  0
LINE
  8
0
 10
5.04492
 20
-227.007
 11
5.10098
 21
-226.513
  0
LINE
  8
0
 10
5.10098
 20
-226.513
 11
5.17931
 21
-226.022
  0
LINE
  8
0
 10
5.17931
 20
-226.022
 11
5.27975
 21
-225.535
  0
LINE
  8
0
 10
5.27975
 20
-225.535
 11
5.40208
 21
-225.053
  0
LINE
  8
0
 10
5.40208
 20
-225.053
 11
5.54608
 21
-224.577
  0
LINE
  8
0
 10
5.54608
 20
-224.577
 11
5.71143
 21
-224.108
  0
LINE
  8
0
 10
5.71143
 20
-224.108
 11
5.8978
 21
-223.647
  0
LINE
  8
0
 10
5.8978
 20
-223.647
 11
6.1048
 21
-223.195
  0
LINE
  8
0
 10
6.1048
 20
-223.195
 11
6.33202
 21
-222.753
  0
LINE
  8
0
 10
6.33202
 20
-222.753
 11
6.57898
 21
-222.322
  0
LINE
  8
0
 10
6.57898
 20
-222.322
 11
6.8452
 21
-221.902
  0
LINE
  8
0
 10
6.8452
 20
-221.902
 11
7.13013
 21
-221.494
  0
LINE
  8
0
 10
7.13013
 20
-221.494
 11
7.43317
 21
-221.1
  0
LINE
  8
0
 10
7.43317
 20
-221.1
 11
7.75371
 21
-220.72
  0
LINE
  8
0
 10
7.75371
 20
-220.72
 11
8.09109
 21
-220.355
  0
LINE
  8
0
 10
8.09109
 20
-220.355
 11
8.44464
 21
-220.005
  0
LINE
  8
0
 10
8.44464
 20
-220.005
 11
8.81361
 21
-219.672
  0
LINE
  8
0
 10
8.81361
 20
-219.672
 11
9.19728
 21
-219.356
  0
LINE
  8
0
 10
9.19728
 20
-219.356
 11
9.59485
 21
-219.057
  0
LINE
  8
0
 10
9.59485
 20
-219.057
 11
10.0055
 21
-218.777
  0
LINE
  8
0
 10
10.0055
 20
-218.777
 11
10.4284
 21
-218.515
  0
LINE
  8
0
 10
10.4284
 20
-218.515
 11
10.8627
 21
-218.273
  0
LINE
  8
0
 10
10.8627
 20
-218.273
 11
11.3074
 21
-218.051
  0
LINE
  8
0
 10
11.3074
 20
-218.051
 11
11.7618
 21
-217.849
  0
LINE
  8
0
 10
11.7618
 20
-217.849
 11
12.2248
 21
-217.668
  0
LINE
  8
0
 10
12.2248
 20
-217.668
 11
12.6955
 21
-217.508
  0
LINE
  8
0
 10
12.6955
 20
-217.508
 11
13.173
 21
-217.369
  0
LINE
  8
0
 10
13.173
 20
-217.369
 11
13.6562
 21
-217.253
  0
LINE
  8
0
 10
13.6562
 20
-217.253
 11
14.1443
 21
-217.158
  0
LINE
  8
0
 10
14.1443
 20
-217.158
 11
14.6361
 21
-217.085
  0
LINE
  8
0
 10
14.6361
 20
-217.085
 11
15.1308
 21
-217.034
  0
LINE
  8
0
 10
15.1308
 20
-217.034
 11
15.6271
 21
-217.006
  0
LINE
  8
0
 10
15.6271
 20
-217.006
 11
16.1243
 21
-217.001
  0
LINE
  8
0
 10
16.1243
 20
-217.001
 11
16.6212
 21
-217.018
  0
LINE
  8
0
 10
16.6212
 20
-217.018
 11
17.1168
 21
-217.057
  0
LINE
  8
0
 10
17.1168
 20
-217.057
 11
17.6102
 21
-217.118
  0
LINE
  8
0
 10
17.6102
 20
-217.118
 11
18.1003
 21
-217.202
  0
LINE
  8
0
 10
18.1003
 20
-217.202
 11
18.586
 21
-217.308
  0
LINE
  8
0
 10
18.586
 20
-217.308
 11
19.0665
 21
-217.436
  0
LINE
  8
0
 10
19.0665
 20
-217.436
 11
19.5407
 21
-217.585
  0
LINE
  8
0
 10
19.5407
 20
-217.585
 11
20.0077
 21
-217.756
  0
LINE
  8
0
 10
20.0077
 20
-217.756
 11
20.4665
 21
-217.948
  0
LINE
  8
0
 10
20.4665
 20
-217.948
 11
20.9162
 21
-218.16
  0
LINE
  8
0
 10
20.9162
 20
-218.16
 11
21.3558
 21
-218.392
  0
LINE
  8
0
 10
21.3558
 20
-218.392
 11
21.7845
 21
-218.644
  0
LINE
  8
0
 10
21.7845
 20
-218.644
 11
22.2014
 21
-218.915
  0
LINE
  8
0
 10
22.2014
 20
-218.915
 11
22.6056
 21
-219.204
  0
LINE
  8
0
 10
22.6056
 20
-219.204
 11
22.9963
 21
-219.512
  0
LINE
  8
0
 10
22.9963
 20
-219.512
 11
23.3727
 21
-219.837
  0
LINE
  8
0
 10
23.3727
 20
-219.837
 11
23.7341
 21
-220.178
  0
LINE
  8
0
 10
23.7341
 20
-220.178
 11
24.0797
 21
-220.535
  0
LINE
  8
0
 10
24.0797
 20
-220.535
 11
24.4087
 21
-220.908
  0
LINE
  8
0
 10
24.4087
 20
-220.908
 11
24.7206
 21
-221.295
  0
LINE
  8
0
 10
24.7206
 20
-221.295
 11
25.0146
 21
-221.696
  0
LINE
  8
0
 10
25.0146
 20
-221.696
 11
25.2903
 21
-222.11
  0
LINE
  8
0
 10
25.2903
 20
-222.11
 11
25.5469
 21
-222.536
  0
LINE
  8
0
 10
25.5469
 20
-222.536
 11
25.7841
 21
-222.973
  0
LINE
  8
0
 10
25.7841
 20
-222.973
 11
26.0013
 21
-223.42
  0
LINE
  8
0
 10
26.0013
 20
-223.42
 11
26.198
 21
-223.877
  0
LINE
  8
0
 10
26.198
 20
-223.877
 11
26.3739
 21
-224.342
  0
LINE
  8
0
 10
26.3739
 20
-224.342
 11
26.5286
 21
-224.814
  0
LINE
  8
0
 10
26.5286
 20
-224.814
 11
26.6618
 21
-225.293
  0
LINE
  8
0
 10
26.6618
 20
-225.293
 11
26.7732
 21
-225.778
  0
LINE
  8
0
 10
26.7732
 20
-225.778
 11
26.8626
 21
-226.267
  0
LINE
  8
0
 10
26.8626
 20
-226.267
 11
26.9298
 21
-226.76
  0
LINE
  8
0
 10
26.9298
 20
-226.76
 11
26.9747
 21
-227.255
  0
LINE
  8
0
 10
26.9747
 20
-227.255
 11
26.9972
 21
-227.751
  0
LINE
  8
0
 10
26.9972
 20
-227.751
 11
26.9972
 21
-228.249
  0
LINE
  8
0
 10
26.9972
 20
-228.249
 11
26.9747
 21
-228.745
  0
LINE
  8
0
 10
26.9747
 20
-228.745
 11
26.9298
 21
-229.24
  0
LINE
  8
0
 10
26.9298
 20
-229.24
 11
26.8626
 21
-229.733
  0
LINE
  8
0
 10
26.8626
 20
-229.733
 11
26.7732
 21
-230.222
  0
LINE
  8
0
 10
26.7732
 20
-230.222
 11
26.6618
 21
-230.707
  0
LINE
  8
0
 10
26.6618
 20
-230.707
 11
26.5286
 21
-231.186
  0
LINE
  8
0
 10
26.5286
 20
-231.186
 11
26.3739
 21
-231.658
  0
LINE
  8
0
 10
26.3739
 20
-231.658
 11
26.198
 21
-232.123
  0
LINE
  8
0
 10
26.198
 20
-232.123
 11
26.0013
 21
-232.58
  0
LINE
  8
0
 10
26.0013
 20
-232.58
 11
25.7841
 21
-233.027
  0
LINE
  8
0
 10
25.7841
 20
-233.027
 11
25.5469
 21
-233.464
  0
LINE
  8
0
 10
25.5469
 20
-233.464
 11
25.2903
 21
-233.89
  0
LINE
  8
0
 10
25.2903
 20
-233.89
 11
25.0146
 21
-234.304
  0
LINE
  8
0
 10
25.0146
 20
-234.304
 11
24.7206
 21
-234.705
  0
LINE
  8
0
 10
24.7206
 20
-234.705
 11
24.4087
 21
-235.092
  0
LINE
  8
0
 10
24.4087
 20
-235.092
 11
24.0797
 21
-235.465
  0
LINE
  8
0
 10
24.0797
 20
-235.465
 11
23.7341
 21
-235.822
  0
LINE
  8
0
 10
23.7341
 20
-235.822
 11
23.3727
 21
-236.163
  0
LINE
  8
0
 10
23.3727
 20
-236.163
 11
22.9963
 21
-236.488
  0
LINE
  8
0
 10
22.9963
 20
-236.488
 11
22.6056
 21
-236.796
  0
LINE
  8
0
 10
22.6056
 20
-236.796
 11
22.2014
 21
-237.085
  0
LINE
  8
0
 10
22.2014
 20
-237.085
 11
21.7845
 21
-237.356
  0
LINE
  8
0
 10
21.7845
 20
-237.356
 11
21.3558
 21
-237.608
  0
LINE
  8
0
 10
21.3558
 20
-237.608
 11
20.9162
 21
-237.84
  0
LINE
  8
0
 10
20.9162
 20
-237.84
 11
20.4665
 21
-238.052
  0
LINE
  8
0
 10
20.4665
 20
-238.052
 11
20.0077
 21
-238.244
  0
LINE
  8
0
 10
20.0077
 20
-238.244
 11
19.5407
 21
-238.415
  0
LINE
  8
0
 10
19.5407
 20
-238.415
 11
19.0665
 21
-238.564
  0
LINE
  8
0
 10
19.0665
 20
-238.564
 11
18.586
 21
-238.692
  0
LINE
  8
0
 10
18.586
 20
-238.692
 11
18.1003
 21
-238.798
  0
LINE
  8
0
 10
18.1003
 20
-238.798
 11
17.6102
 21
-238.882
  0
LINE
  8
0
 10
17.6102
 20
-238.882
 11
17.1168
 21
-238.943
  0
LINE
  8
0
 10
17.1168
 20
-238.943
 11
16.6212
 21
-238.982
  0
LINE
  8
0
 10
16.6212
 20
-238.982
 11
16.1243
 21
-238.999
  0
LINE
  8
0
 10
16.1243
 20
-238.999
 11
15.6271
 21
-238.994
  0
LINE
  8
0
 10
74.828
 20
-224.841
 11
74.3919
 21
-224.617
  0
LINE
  8
0
 10
74.3919
 20
-224.617
 11
74.0324
 21
-224.283
  0
LINE
  8
0
 10
74.0324
 20
-224.283
 11
73.7761
 21
-223.866
  0
LINE
  8
0
 10
73.7761
 20
-223.866
 11
73.6421
 21
-223.394
  0
LINE
  8
0
 10
73.6421
 20
-223.394
 11
73.6402
 21
-222.904
  0
LINE
  8
0
 10
73.6402
 20
-222.904
 11
73.7707
 21
-222.431
  0
LINE
  8
0
 10
73.7707
 20
-222.431
 11
74.0238
 21
-222.012
  0
LINE
  8
0
 10
74.0238
 20
-222.012
 11
74.3808
 21
-221.676
  0
LINE
  8
0
 10
74.3808
 20
-221.676
 11
74.8152
 21
-221.448
  0
LINE
  8
0
 10
74.8152
 20
-221.448
 11
75.2947
 21
-221.347
  0
LINE
  8
0
 10
75.2947
 20
-221.347
 11
78.0802
 21
-220.856
  0
LINE
  8
0
 10
78.0802
 20
-220.856
 11
78.5694
 21
-220.887
  0
LINE
  8
0
 10
78.5694
 20
-220.887
 11
79.0319
 21
-221.05
  0
LINE
  8
0
 10
79.0319
 20
-221.05
 11
79.4334
 21
-221.331
  0
LINE
  8
0
 10
79.4334
 20
-221.331
 11
79.7442
 21
-221.71
  0
LINE
  8
0
 10
79.7442
 20
-221.71
 11
79.9412
 21
-222.159
  0
LINE
  8
0
 10
79.9412
 20
-222.159
 11
80.0098
 21
-222.644
  0
LINE
  8
0
 10
80.0098
 20
-222.644
 11
79.9449
 21
-223.13
  0
LINE
  8
0
 10
79.9449
 20
-223.13
 11
79.7513
 21
-223.58
  0
LINE
  8
0
 10
79.7513
 20
-223.58
 11
79.4434
 21
-223.962
  0
LINE
  8
0
 10
79.4434
 20
-223.962
 11
79.044
 21
-224.246
  0
LINE
  8
0
 10
79.044
 20
-224.246
 11
78.5827
 21
-224.412
  0
LINE
  8
0
 10
78.5827
 20
-224.412
 11
75.7973
 21
-224.903
  0
LINE
  8
0
 10
75.7973
 20
-224.903
 11
75.3083
 21
-224.938
  0
LINE
  8
0
 10
75.3083
 20
-224.938
 11
74.828
 21
-224.841
  0
LINE
  8
0
 10
101.746
 20
-243.724
 11
101.326
 21
-243.471
  0
LINE
  8
0
 10
101.326
 20
-243.471
 11
100.99
 21
-243.114
  0
LINE
  8
0
 10
100.99
 20
-243.114
 11
100.763
 21
-242.679
  0
LINE
  8
0
 10
100.763
 20
-242.679
 11
100.661
 21
-242.2
  0
LINE
  8
0
 10
100.661
 20
-242.2
 11
100.17
 21
-239.414
  0
LINE
  8
0
 10
100.17
 20
-239.414
 11
100.202
 21
-238.925
  0
LINE
  8
0
 10
100.202
 20
-238.925
 11
100.364
 21
-238.463
  0
LINE
  8
0
 10
100.364
 20
-238.463
 11
100.645
 21
-238.061
  0
LINE
  8
0
 10
100.645
 20
-238.061
 11
101.024
 21
-237.75
  0
LINE
  8
0
 10
101.024
 20
-237.75
 11
101.473
 21
-237.553
  0
LINE
  8
0
 10
101.473
 20
-237.553
 11
101.958
 21
-237.485
  0
LINE
  8
0
 10
101.958
 20
-237.485
 11
102.444
 21
-237.55
  0
LINE
  8
0
 10
102.444
 20
-237.55
 11
102.895
 21
-237.743
  0
LINE
  8
0
 10
102.895
 20
-237.743
 11
103.276
 21
-238.051
  0
LINE
  8
0
 10
103.276
 20
-238.051
 11
103.56
 21
-238.451
  0
LINE
  8
0
 10
103.56
 20
-238.451
 11
103.726
 21
-238.912
  0
LINE
  8
0
 10
103.726
 20
-238.912
 11
104.217
 21
-241.697
  0
LINE
  8
0
 10
104.217
 20
-241.697
 11
104.253
 21
-242.186
  0
LINE
  8
0
 10
104.253
 20
-242.186
 11
104.155
 21
-242.667
  0
LINE
  8
0
 10
104.155
 20
-242.667
 11
103.931
 21
-243.103
  0
LINE
  8
0
 10
103.931
 20
-243.103
 11
103.598
 21
-243.462
  0
LINE
  8
0
 10
103.598
 20
-243.462
 11
103.18
 21
-243.718
  0
LINE
  8
0
 10
103.18
 20
-243.718
 11
102.708
 21
-243.853
  0
LINE
  8
0
 10
102.708
 20
-243.853
 11
102.218
 21
-243.854
  0
LINE
  8
0
 10
102.218
 20
-243.854
 11
101.746
 21
-243.724
  0
LINE
  8
0
 10
26.9523
 20
-240.975
 11
26.499
 21
-240.806
  0
LINE
  8
0
 10
26.499
 20
-240.806
 11
26.1116
 21
-240.516
  0
LINE
  8
0
 10
26.1116
 20
-240.516
 11
25.8216
 21
-240.128
  0
LINE
  8
0
 10
25.8216
 20
-240.128
 11
25.6526
 21
-239.675
  0
LINE
  8
0
 10
25.6526
 20
-239.675
 11
25.618
 21
-239.192
  0
LINE
  8
0
 10
25.618
 20
-239.192
 11
25.7209
 21
-238.72
  0
LINE
  8
0
 10
25.7209
 20
-238.72
 11
25.9528
 21
-238.295
  0
LINE
  8
0
 10
25.9528
 20
-238.295
 11
26.2949
 21
-237.953
  0
LINE
  8
0
 10
26.2949
 20
-237.953
 11
26.7196
 21
-237.721
  0
LINE
  8
0
 10
26.7196
 20
-237.721
 11
27.1924
 21
-237.618
  0
LINE
  8
0
 10
27.1924
 20
-237.618
 11
27.6751
 21
-237.653
  0
LINE
  8
0
 10
27.6751
 20
-237.653
 11
28.1284
 21
-237.822
  0
LINE
  8
0
 10
28.1284
 20
-237.822
 11
28.5158
 21
-238.112
  0
LINE
  8
0
 10
28.5158
 20
-238.112
 11
28.8058
 21
-238.499
  0
LINE
  8
0
 10
28.8058
 20
-238.499
 11
28.9749
 21
-238.952
  0
LINE
  8
0
 10
28.9749
 20
-238.952
 11
29.0094
 21
-239.435
  0
LINE
  8
0
 10
29.0094
 20
-239.435
 11
28.9065
 21
-239.908
  0
LINE
  8
0
 10
28.9065
 20
-239.908
 11
28.6746
 21
-240.332
  0
LINE
  8
0
 10
28.6746
 20
-240.332
 11
28.3325
 21
-240.675
  0
LINE
  8
0
 10
28.3325
 20
-240.675
 11
27.9078
 21
-240.907
  0
LINE
  8
0
 10
27.9078
 20
-240.907
 11
27.435
 21
-241.009
  0
LINE
  8
0
 10
27.435
 20
-241.009
 11
26.9523
 21
-240.975
  0
LINE
  8
0
 10
4.09219
 20
-240.907
 11
3.66751
 21
-240.675
  0
LINE
  8
0
 10
3.66751
 20
-240.675
 11
3.32536
 21
-240.332
  0
LINE
  8
0
 10
3.32536
 20
-240.332
 11
3.09348
 21
-239.908
  0
LINE
  8
0
 10
3.09348
 20
-239.908
 11
2.99062
 21
-239.435
  0
LINE
  8
0
 10
2.99062
 20
-239.435
 11
3.02513
 21
-238.952
  0
LINE
  8
0
 10
3.02513
 20
-238.952
 11
3.19423
 21
-238.499
  0
LINE
  8
0
 10
3.19423
 20
-238.499
 11
3.48421
 21
-238.112
  0
LINE
  8
0
 10
3.48421
 20
-238.112
 11
3.87157
 21
-237.822
  0
LINE
  8
0
 10
3.87157
 20
-237.822
 11
4.32492
 21
-237.653
  0
LINE
  8
0
 10
4.32492
 20
-237.653
 11
4.80756
 21
-237.618
  0
LINE
  8
0
 10
4.80756
 20
-237.618
 11
5.28038
 21
-237.721
  0
LINE
  8
0
 10
5.28038
 20
-237.721
 11
5.70506
 21
-237.953
  0
LINE
  8
0
 10
5.70506
 20
-237.953
 11
6.04721
 21
-238.295
  0
LINE
  8
0
 10
6.04721
 20
-238.295
 11
6.2791
 21
-238.72
  0
LINE
  8
0
 10
6.2791
 20
-238.72
 11
6.38196
 21
-239.192
  0
LINE
  8
0
 10
6.38196
 20
-239.192
 11
6.34743
 21
-239.675
  0
LINE
  8
0
 10
6.34743
 20
-239.675
 11
6.17834
 21
-240.128
  0
LINE
  8
0
 10
6.17834
 20
-240.128
 11
5.88837
 21
-240.516
  0
LINE
  8
0
 10
5.88837
 20
-240.516
 11
5.50101
 21
-240.806
  0
LINE
  8
0
 10
5.50101
 20
-240.806
 11
5.04765
 21
-240.975
  0
LINE
  8
0
 10
5.04765
 20
-240.975
 11
4.565
 21
-241.009
  0
LINE
  8
0
 10
4.565
 20
-241.009
 11
4.09219
 21
-240.907
  0
LINE
  8
0
 10
-97.953
 20
-249.087
 11
-97.651
 21
-249.08
  0
LINE
  8
0
 10
-97.651
 20
-249.08
 11
-4.49963
 21
-243.51
  0
LINE
  8
0
 10
-4.49963
 20
-243.51
 11
-4.00468
 21
-243.458
  0
LINE
  8
0
 10
-4.00468
 20
-243.458
 11
-3.5193
 21
-243.348
  0
LINE
  8
0
 10
-3.5193
 20
-243.348
 11
-3.05031
 21
-243.182
  0
LINE
  8
0
 10
-3.05031
 20
-243.182
 11
-2.60428
 21
-242.961
  0
LINE
  8
0
 10
-2.60428
 20
-242.961
 11
-2.18747
 21
-242.689
  0
LINE
  8
0
 10
-2.18747
 20
-242.689
 11
-1.80574
 21
-242.37
  0
LINE
  8
0
 10
-1.80574
 20
-242.37
 11
-1.46446
 21
-242.008
  0
LINE
  8
0
 10
-1.46446
 20
-242.008
 11
-1.1684
 21
-241.608
  0
LINE
  8
0
 10
-1.1684
 20
-241.608
 11
-0.921722
 21
-241.176
  0
LINE
  8
0
 10
-0.921722
 20
-241.176
 11
-0.72789
 21
-240.718
  0
LINE
  8
0
 10
-0.72789
 20
-240.718
 11
-0.589615
 21
-240.24
  0
LINE
  8
0
 10
-0.589615
 20
-240.24
 11
-0.508865
 21
-239.749
  0
LINE
  8
0
 10
-0.508865
 20
-239.749
 11
-0.48674
 21
-239.251
  0
LINE
  8
0
 10
-0.48674
 20
-239.251
 11
-0.48674
 21
-173.251
  0
LINE
  8
0
 10
-0.48674
 20
-173.251
 11
-0.490433
 21
-150.5
  0
LINE
  8
0
 10
-0.490433
 20
-150.5
 11
-0.541962
 21
-150.005
  0
LINE
  8
0
 10
-0.541962
 20
-150.005
 11
-0.651672
 21
-149.519
  0
LINE
  8
0
 10
-0.651672
 20
-149.519
 11
-0.818008
 21
-149.05
  0
LINE
  8
0
 10
-0.818008
 20
-149.05
 11
-1.03865
 21
-148.604
  0
LINE
  8
0
 10
-1.03865
 20
-148.604
 11
-1.3105
 21
-148.187
  0
LINE
  8
0
 10
-1.3105
 20
-148.187
 11
-1.62973
 21
-147.806
  0
LINE
  8
0
 10
-1.62973
 20
-147.806
 11
-1.99188
 21
-147.464
  0
LINE
  8
0
 10
-1.99188
 20
-147.464
 11
-2.39185
 21
-147.168
  0
LINE
  8
0
 10
-2.39185
 20
-147.168
 11
-2.82402
 21
-146.922
  0
LINE
  8
0
 10
-2.82402
 20
-146.922
 11
-3.28233
 21
-146.728
  0
LINE
  8
0
 10
-3.28233
 20
-146.728
 11
-3.76036
 21
-146.59
  0
LINE
  8
0
 10
-3.76036
 20
-146.59
 11
-4.25139
 21
-146.509
  0
LINE
  8
0
 10
-4.25139
 20
-146.509
 11
-4.74852
 21
-146.487
  0
LINE
  8
0
 10
-4.74852
 20
-146.487
 11
-27.5004
 21
-146.49
  0
LINE
  8
0
 10
-27.5004
 20
-146.49
 11
-27.9953
 21
-146.542
  0
LINE
  8
0
 10
-27.9953
 20
-146.542
 11
-28.4807
 21
-146.652
  0
LINE
  8
0
 10
-28.4807
 20
-146.652
 11
-28.9497
 21
-146.818
  0
LINE
  8
0
 10
-28.9497
 20
-146.818
 11
-29.3957
 21
-147.039
  0
LINE
  8
0
 10
-29.3957
 20
-147.039
 11
-58.5449
 21
-161.855
  0
LINE
  8
0
 10
-58.5449
 20
-161.855
 11
-107.43
 21
-115.541
  0
LINE
  8
0
 10
-107.43
 20
-115.541
 11
-110.707
 21
-117.835
  0
LINE
  8
0
 10
-110.707
 20
-117.835
 11
-93.4997
 21
-142.409
  0
LINE
  8
0
 10
-93.4997
 20
-142.409
 11
-103.329
 21
-149.292
  0
LINE
  8
0
 10
-103.329
 20
-149.292
 11
-120.537
 21
-124.718
  0
LINE
  8
0
 10
-120.537
 20
-124.718
 11
-123.813
 21
-127.012
  0
LINE
  8
0
 10
-123.813
 20
-127.012
 11
-97.4085
 21
-187.876
  0
LINE
  8
0
 10
-97.4085
 20
-187.876
 11
-126.328
 21
-208.125
  0
LINE
  8
0
 10
-126.328
 20
-208.125
 11
-126.438
 21
-208.407
  0
LINE
  8
0
 10
-126.438
 20
-208.407
 11
-126.612
 21
-208.875
  0
LINE
  8
0
 10
-126.612
 20
-208.875
 11
-126.778
 21
-209.347
  0
LINE
  8
0
 10
-126.778
 20
-209.347
 11
-126.937
 21
-209.821
  0
LINE
  8
0
 10
-126.937
 20
-209.821
 11
-127.087
 21
-210.298
  0
LINE
  8
0
 10
-127.087
 20
-210.298
 11
-127.23
 21
-210.777
  0
LINE
  8
0
 10
-127.23
 20
-210.777
 11
-127.364
 21
-211.259
  0
LINE
  8
0
 10
-127.364
 20
-211.259
 11
-127.491
 21
-211.742
  0
LINE
  8
0
 10
-127.491
 20
-211.742
 11
-127.609
 21
-212.228
  0
LINE
  8
0
 10
-127.609
 20
-212.228
 11
-127.719
 21
-212.716
  0
LINE
  8
0
 10
-127.719
 20
-212.716
 11
-127.821
 21
-213.205
  0
LINE
  8
0
 10
-127.821
 20
-213.205
 11
-127.915
 21
-213.696
  0
LINE
  8
0
 10
-127.915
 20
-213.696
 11
-128.001
 21
-214.189
  0
LINE
  8
0
 10
-128.001
 20
-214.189
 11
-128.079
 21
-214.683
  0
LINE
  8
0
 10
-128.079
 20
-214.683
 11
-128.148
 21
-215.178
  0
LINE
  8
0
 10
-128.148
 20
-215.178
 11
-128.209
 21
-215.674
  0
LINE
  8
0
 10
-128.209
 20
-215.674
 11
-128.262
 21
-216.171
  0
LINE
  8
0
 10
-128.262
 20
-216.171
 11
-128.307
 21
-216.669
  0
LINE
  8
0
 10
-128.307
 20
-216.669
 11
-128.343
 21
-217.168
  0
LINE
  8
0
 10
-128.343
 20
-217.168
 11
-128.371
 21
-217.667
  0
LINE
  8
0
 10
-128.371
 20
-217.667
 11
-128.39
 21
-218.167
  0
LINE
  8
0
 10
-128.39
 20
-218.167
 11
-128.401
 21
-218.667
  0
LINE
  8
0
 10
-128.401
 20
-218.667
 11
-128.404
 21
-219.167
  0
LINE
  8
0
 10
-128.404
 20
-219.167
 11
-128.399
 21
-219.667
  0
LINE
  8
0
 10
-128.399
 20
-219.667
 11
-128.394
 21
-219.847
  0
LINE
  8
0
 10
-128.394
 20
-219.847
 11
-109.372
 21
-247.012
  0
LINE
  8
0
 10
-109.372
 20
-247.012
 11
-109.205
 21
-247.079
  0
LINE
  8
0
 10
-109.205
 20
-247.079
 11
-108.737
 21
-247.255
  0
LINE
  8
0
 10
-108.737
 20
-247.255
 11
-108.266
 21
-247.423
  0
LINE
  8
0
 10
-108.266
 20
-247.423
 11
-107.792
 21
-247.583
  0
LINE
  8
0
 10
-107.792
 20
-247.583
 11
-107.316
 21
-247.736
  0
LINE
  8
0
 10
-107.316
 20
-247.736
 11
-106.838
 21
-247.881
  0
LINE
  8
0
 10
-106.838
 20
-247.881
 11
-106.357
 21
-248.017
  0
LINE
  8
0
 10
-106.357
 20
-248.017
 11
-105.873
 21
-248.146
  0
LINE
  8
0
 10
-105.873
 20
-248.146
 11
-105.388
 21
-248.266
  0
LINE
  8
0
 10
-105.388
 20
-248.266
 11
-104.901
 21
-248.378
  0
LINE
  8
0
 10
-104.901
 20
-248.378
 11
-104.412
 21
-248.483
  0
LINE
  8
0
 10
-104.412
 20
-248.483
 11
-103.921
 21
-248.579
  0
LINE
  8
0
 10
-103.921
 20
-248.579
 11
-103.429
 21
-248.666
  0
LINE
  8
0
 10
-103.429
 20
-248.666
 11
-102.935
 21
-248.746
  0
LINE
  8
0
 10
-102.935
 20
-248.746
 11
-102.441
 21
-248.817
  0
LINE
  8
0
 10
-102.441
 20
-248.817
 11
-101.945
 21
-248.881
  0
LINE
  8
0
 10
-101.945
 20
-248.881
 11
-101.448
 21
-248.935
  0
LINE
  8
0
 10
-101.448
 20
-248.935
 11
-100.95
 21
-248.982
  0
LINE
  8
0
 10
-100.95
 20
-248.982
 11
-100.451
 21
-249.02
  0
LINE
  8
0
 10
-100.451
 20
-249.02
 11
-99.9523
 21
-249.05
  0
LINE
  8
0
 10
-99.9523
 20
-249.05
 11
-99.4528
 21
-249.072
  0
LINE
  8
0
 10
-99.4528
 20
-249.072
 11
-98.953
 21
-249.085
  0
LINE
  8
0
 10
-98.953
 20
-249.085
 11
-98.453
 21
-249.09
  0
LINE
  8
0
 10
-98.453
 20
-249.09
 11
-97.953
 21
-249.087
  0
LINE
  8
0
 10
-27.6751
 20
-152.347
 11
-28.1284
 21
-152.178
  0
LINE
  8
0
 10
-28.1284
 20
-152.178
 11
-28.5158
 21
-151.888
  0
LINE
  8
0
 10
-28.5158
 20
-151.888
 11
-28.8058
 21
-151.501
  0
LINE
  8
0
 10
-28.8058
 20
-151.501
 11
-28.9749
 21
-151.048
  0
LINE
  8
0
 10
-28.9749
 20
-151.048
 11
-29.0094
 21
-150.565
  0
LINE
  8
0
 10
-29.0094
 20
-150.565
 11
-28.9065
 21
-150.092
  0
LINE
  8
0
 10
-28.9065
 20
-150.092
 11
-28.6746
 21
-149.668
  0
LINE
  8
0
 10
-28.6746
 20
-149.668
 11
-28.3325
 21
-149.325
  0
LINE
  8
0
 10
-28.3325
 20
-149.325
 11
-27.9078
 21
-149.093
  0
LINE
  8
0
 10
-27.9078
 20
-149.093
 11
-27.435
 21
-148.991
  0
LINE
  8
0
 10
-27.435
 20
-148.991
 11
-26.9523
 21
-149.025
  0
LINE
  8
0
 10
-26.9523
 20
-149.025
 11
-26.499
 21
-149.194
  0
LINE
  8
0
 10
-26.499
 20
-149.194
 11
-26.1116
 21
-149.484
  0
LINE
  8
0
 10
-26.1116
 20
-149.484
 11
-25.8216
 21
-149.872
  0
LINE
  8
0
 10
-25.8216
 20
-149.872
 11
-25.6526
 21
-150.325
  0
LINE
  8
0
 10
-25.6526
 20
-150.325
 11
-25.618
 21
-150.808
  0
LINE
  8
0
 10
-25.618
 20
-150.808
 11
-25.7209
 21
-151.28
  0
LINE
  8
0
 10
-25.7209
 20
-151.28
 11
-25.9528
 21
-151.705
  0
LINE
  8
0
 10
-25.9528
 20
-151.705
 11
-26.2949
 21
-152.047
  0
LINE
  8
0
 10
-26.2949
 20
-152.047
 11
-26.7196
 21
-152.279
  0
LINE
  8
0
 10
-26.7196
 20
-152.279
 11
-27.1924
 21
-152.382
  0
LINE
  8
0
 10
-27.1924
 20
-152.382
 11
-27.6751
 21
-152.347
  0
LINE
  8
0
 10
-5.28038
 20
-152.279
 11
-5.70506
 21
-152.047
  0
LINE
  8
0
 10
-5.70506
 20
-152.047
 11
-6.04721
 21
-151.705
  0
LINE
  8
0
 10
-6.04721
 20
-151.705
 11
-6.2791
 21
-151.28
  0
LINE
  8
0
 10
-6.2791
 20
-151.28
 11
-6.38196
 21
-150.808
  0
LINE
  8
0
 10
-6.38196
 20
-150.808
 11
-6.34743
 21
-150.325
  0
LINE
  8
0
 10
-6.34743
 20
-150.325
 11
-6.17834
 21
-149.872
  0
LINE
  8
0
 10
-6.17834
 20
-149.872
 11
-5.88837
 21
-149.484
  0
LINE
  8
0
 10
-5.88837
 20
-149.484
 11
-5.50101
 21
-149.194
  0
LINE
  8
0
 10
-5.50101
 20
-149.194
 11
-5.04765
 21
-149.025
  0
LINE
  8
0
 10
-5.04765
 20
-149.025
 11
-4.565
 21
-148.991
  0
LINE
  8
0
 10
-4.565
 20
-148.991
 11
-4.09219
 21
-149.093
  0
LINE
  8
0
 10
-4.09219
 20
-149.093
 11
-3.66751
 21
-149.325
  0
LINE
  8
0
 10
-3.66751
 20
-149.325
 11
-3.32536
 21
-149.668
  0
LINE
  8
0
 10
-3.32536
 20
-149.668
 11
-3.09348
 21
-150.092
  0
LINE
  8
0
 10
-3.09348
 20
-150.092
 11
-2.99062
 21
-150.565
  0
LINE
  8
0
 10
-2.99062
 20
-150.565
 11
-3.02513
 21
-151.048
  0
LINE
  8
0
 10
-3.02513
 20
-151.048
 11
-3.19423
 21
-151.501
  0
LINE
  8
0
 10
-3.19423
 20
-151.501
 11
-3.48421
 21
-151.888
  0
LINE
  8
0
 10
-3.48421
 20
-151.888
 11
-3.87157
 21
-152.178
  0
LINE
  8
0
 10
-3.87157
 20
-152.178
 11
-4.32492
 21
-152.347
  0
LINE
  8
0
 10
-4.32492
 20
-152.347
 11
-4.80756
 21
-152.382
  0
LINE
  8
0
 10
-4.80756
 20
-152.382
 11
-5.28038
 21
-152.279
  0
LINE
  8
0
 10
-93.8436
 20
-155.858
 11
-94.3176
 21
-155.704
  0
LINE
  8
0
 10
-94.3176
 20
-155.704
 11
-94.7553
 21
-155.466
  0
LINE
  8
0
 10
-94.7553
 20
-155.466
 11
-95.1419
 21
-155.152
  0
LINE
  8
0
 10
-95.1419
 20
-155.152
 11
-95.4641
 21
-154.772
  0
LINE
  8
0
 10
-95.4641
 20
-154.772
 11
-95.711
 21
-154.339
  0
LINE
  8
0
 10
-95.711
 20
-154.339
 11
-95.8742
 21
-153.868
  0
LINE
  8
0
 10
-95.8742
 20
-153.868
 11
-95.9481
 21
-153.376
  0
LINE
  8
0
 10
-95.9481
 20
-153.376
 11
-95.9302
 21
-152.878
  0
LINE
  8
0
 10
-95.9302
 20
-152.878
 11
-95.8211
 21
-152.392
  0
LINE
  8
0
 10
-95.8211
 20
-152.392
 11
-95.6245
 21
-151.934
  0
LINE
  8
0
 10
-95.6245
 20
-151.934
 11
-95.3472
 21
-151.52
  0
LINE
  8
0
 10
-95.3472
 20
-151.52
 11
-94.9985
 21
-151.164
  0
LINE
  8
0
 10
-94.9985
 20
-151.164
 11
-94.5904
 21
-150.878
  0
LINE
  8
0
 10
-94.5904
 20
-150.878
 11
-94.1367
 21
-150.672
  0
LINE
  8
0
 10
-94.1367
 20
-150.672
 11
-93.6528
 21
-150.553
  0
LINE
  8
0
 10
-93.6528
 20
-150.553
 11
-93.1554
 21
-150.525
  0
LINE
  8
0
 10
-93.1554
 20
-150.525
 11
-92.6612
 21
-150.589
  0
LINE
  8
0
 10
-92.6612
 20
-150.589
 11
-92.1872
 21
-150.742
  0
LINE
  8
0
 10
-92.1872
 20
-150.742
 11
-91.7495
 21
-150.98
  0
LINE
  8
0
 10
-91.7495
 20
-150.98
 11
-91.3629
 21
-151.295
  0
LINE
  8
0
 10
-91.3629
 20
-151.295
 11
-91.0407
 21
-151.675
  0
LINE
  8
0
 10
-91.0407
 20
-151.675
 11
-90.7938
 21
-152.107
  0
LINE
  8
0
 10
-90.7938
 20
-152.107
 11
-90.6306
 21
-152.578
  0
LINE
  8
0
 10
-90.6306
 20
-152.578
 11
-90.5567
 21
-153.071
  0
LINE
  8
0
 10
-90.5567
 20
-153.071
 11
-90.5746
 21
-153.569
  0
LINE
  8
0
 10
-90.5746
 20
-153.569
 11
-90.6837
 21
-154.055
  0
LINE
  8
0
 10
-90.6837
 20
-154.055
 11
-90.8802
 21
-154.513
  0
LINE
  8
0
 10
-90.8802
 20
-154.513
 11
-91.1576
 21
-154.927
  0
LINE
  8
0
 10
-91.1576
 20
-154.927
 11
-91.5063
 21
-155.283
  0
LINE
  8
0
 10
-91.5063
 20
-155.283
 11
-91.9144
 21
-155.568
  0
LINE
  8
0
 10
-91.9144
 20
-155.568
 11
-92.3681
 21
-155.774
  0
LINE
  8
0
 10
-92.3681
 20
-155.774
 11
-92.8519
 21
-155.893
  0
LINE
  8
0
 10
-92.8519
 20
-155.893
 11
-93.3494
 21
-155.922
  0
LINE
  8
0
 10
-93.3494
 20
-155.922
 11
-93.8436
 21
-155.858
  0
LINE
  8
0
 10
-16.6212
 20
-172.982
 11
-17.1168
 21
-172.943
  0
LINE
  8
0
 10
-17.1168
 20
-172.943
 11
-17.6102
 21
-172.882
  0
LINE
  8
0
 10
-17.6102
 20
-172.882
 11
-18.1003
 21
-172.798
  0
LINE
  8
0
 10
-18.1003
 20
-172.798
 11
-18.586
 21
-172.692
  0
LINE
  8
0
 10
-18.586
 20
-172.692
 11
-19.0665
 21
-172.564
  0
LINE
  8
0
 10
-19.0665
 20
-172.564
 11
-19.5407
 21
-172.415
  0
LINE
  8
0
 10
-19.5407
 20
-172.415
 11
-20.0077
 21
-172.244
  0
LINE
  8
0
 10
-20.0077
 20
-172.244
 11
-20.4665
 21
-172.052
  0
LINE
  8
0
 10
-20.4665
 20
-172.052
 11
-20.9162
 21
-171.84
  0
LINE
  8
0
 10
-20.9162
 20
-171.84
 11
-21.3558
 21
-171.608
  0
LINE
  8
0
 10
-21.3558
 20
-171.608
 11
-21.7845
 21
-171.356
  0
LINE
  8
0
 10
-21.7845
 20
-171.356
 11
-22.2014
 21
-171.085
  0
LINE
  8
0
 10
-22.2014
 20
-171.085
 11
-22.6056
 21
-170.796
  0
LINE
  8
0
 10
-22.6056
 20
-170.796
 11
-22.9963
 21
-170.488
  0
LINE
  8
0
 10
-22.9963
 20
-170.488
 11
-23.3727
 21
-170.163
  0
LINE
  8
0
 10
-23.3727
 20
-170.163
 11
-23.7341
 21
-169.822
  0
LINE
  8
0
 10
-23.7341
 20
-169.822
 11
-24.0797
 21
-169.465
  0
LINE
  8
0
 10
-24.0797
 20
-169.465
 11
-24.4087
 21
-169.092
  0
LINE
  8
0
 10
-24.4087
 20
-169.092
 11
-24.7206
 21
-168.705
  0
LINE
  8
0
 10
-24.7206
 20
-168.705
 11
-25.0146
 21
-168.304
  0
LINE
  8
0
 10
-25.0146
 20
-168.304
 11
-25.2903
 21
-167.89
  0
LINE
  8
0
 10
-25.2903
 20
-167.89
 11
-25.5469
 21
-167.464
  0
LINE
  8
0
 10
-25.5469
 20
-167.464
 11
-25.7841
 21
-167.027
  0
LINE
  8
0
 10
-25.7841
 20
-167.027
 11
-26.0013
 21
-166.58
  0
LINE
  8
0
 10
-26.0013
 20
-166.58
 11
-26.198
 21
-166.123
  0
LINE
  8
0
 10
-26.198
 20
-166.123
 11
-26.3739
 21
-165.658
  0
LINE
  8
0
 10
-26.3739
 20
-165.658
 11
-26.5286
 21
-165.186
  0
LINE
  8
0
 10
-26.5286
 20
-165.186
 11
-26.6618
 21
-164.707
  0
LINE
  8
0
 10
-26.6618
 20
-164.707
 11
-26.7732
 21
-164.222
  0
LINE
  8
0
 10
-26.7732
 20
-164.222
 11
-26.8626
 21
-163.733
  0
LINE
  8
0
 10
-26.8626
 20
-163.733
 11
-26.9298
 21
-163.24
  0
LINE
  8
0
 10
-26.9298
 20
-163.24
 11
-26.9747
 21
-162.745
  0
LINE
  8
0
 10
-26.9747
 20
-162.745
 11
-26.9972
 21
-162.249
  0
LINE
  8
0
 10
-26.9972
 20
-162.249
 11
-26.9972
 21
-161.751
  0
LINE
  8
0
 10
-26.9972
 20
-161.751
 11
-26.9747
 21
-161.255
  0
LINE
  8
0
 10
-26.9747
 20
-161.255
 11
-26.9298
 21
-160.76
  0
LINE
  8
0
 10
-26.9298
 20
-160.76
 11
-26.8626
 21
-160.267
  0
LINE
  8
0
 10
-26.8626
 20
-160.267
 11
-26.7732
 21
-159.778
  0
LINE
  8
0
 10
-26.7732
 20
-159.778
 11
-26.6618
 21
-159.293
  0
LINE
  8
0
 10
-26.6618
 20
-159.293
 11
-26.5286
 21
-158.814
  0
LINE
  8
0
 10
-26.5286
 20
-158.814
 11
-26.3739
 21
-158.342
  0
LINE
  8
0
 10
-26.3739
 20
-158.342
 11
-26.198
 21
-157.877
  0
LINE
  8
0
 10
-26.198
 20
-157.877
 11
-26.0013
 21
-157.42
  0
LINE
  8
0
 10
-26.0013
 20
-157.42
 11
-25.7841
 21
-156.973
  0
LINE
  8
0
 10
-25.7841
 20
-156.973
 11
-25.5469
 21
-156.536
  0
LINE
  8
0
 10
-25.5469
 20
-156.536
 11
-25.2903
 21
-156.11
  0
LINE
  8
0
 10
-25.2903
 20
-156.11
 11
-25.0146
 21
-155.696
  0
LINE
  8
0
 10
-25.0146
 20
-155.696
 11
-24.7206
 21
-155.295
  0
LINE
  8
0
 10
-24.7206
 20
-155.295
 11
-24.4087
 21
-154.908
  0
LINE
  8
0
 10
-24.4087
 20
-154.908
 11
-24.0797
 21
-154.535
  0
LINE
  8
0
 10
-24.0797
 20
-154.535
 11
-23.7341
 21
-154.178
  0
LINE
  8
0
 10
-23.7341
 20
-154.178
 11
-23.3727
 21
-153.837
  0
LINE
  8
0
 10
-23.3727
 20
-153.837
 11
-22.9963
 21
-153.512
  0
LINE
  8
0
 10
-22.9963
 20
-153.512
 11
-22.6056
 21
-153.204
  0
LINE
  8
0
 10
-22.6056
 20
-153.204
 11
-22.2014
 21
-152.915
  0
LINE
  8
0
 10
-22.2014
 20
-152.915
 11
-21.7845
 21
-152.644
  0
LINE
  8
0
 10
-21.7845
 20
-152.644
 11
-21.3558
 21
-152.392
  0
LINE
  8
0
 10
-21.3558
 20
-152.392
 11
-20.9162
 21
-152.16
  0
LINE
  8
0
 10
-20.9162
 20
-152.16
 11
-20.4665
 21
-151.948
  0
LINE
  8
0
 10
-20.4665
 20
-151.948
 11
-20.0077
 21
-151.756
  0
LINE
  8
0
 10
-20.0077
 20
-151.756
 11
-19.5407
 21
-151.585
  0
LINE
  8
0
 10
-19.5407
 20
-151.585
 11
-19.0665
 21
-151.436
  0
LINE
  8
0
 10
-19.0665
 20
-151.436
 11
-18.586
 21
-151.308
  0
LINE
  8
0
 10
-18.586
 20
-151.308
 11
-18.1003
 21
-151.202
  0
LINE
  8
0
 10
-18.1003
 20
-151.202
 11
-17.6102
 21
-151.118
  0
LINE
  8
0
 10
-17.6102
 20
-151.118
 11
-17.1168
 21
-151.057
  0
LINE
  8
0
 10
-17.1168
 20
-151.057
 11
-16.6212
 21
-151.018
  0
LINE
  8
0
 10
-16.6212
 20
-151.018
 11
-16.1243
 21
-151.001
  0
LINE
  8
0
 10
-16.1243
 20
-151.001
 11
-15.6271
 21
-151.006
  0
LINE
  8
0
 10
-15.6271
 20
-151.006
 11
-15.1308
 21
-151.034
  0
LINE
  8
0
 10
-15.1308
 20
-151.034
 11
-14.6361
 21
-151.085
  0
LINE
  8
0
 10
-14.6361
 20
-151.085
 11
-14.1443
 21
-151.158
  0
LINE
  8
0
 10
-14.1443
 20
-151.158
 11
-13.6562
 21
-151.253
  0
LINE
  8
0
 10
-13.6562
 20
-151.253
 11
-13.173
 21
-151.369
  0
LINE
  8
0
 10
-13.173
 20
-151.369
 11
-12.6955
 21
-151.508
  0
LINE
  8
0
 10
-12.6955
 20
-151.508
 11
-12.2248
 21
-151.668
  0
LINE
  8
0
 10
-12.2248
 20
-151.668
 11
-11.7618
 21
-151.849
  0
LINE
  8
0
 10
-11.7618
 20
-151.849
 11
-11.3074
 21
-152.051
  0
LINE
  8
0
 10
-11.3074
 20
-152.051
 11
-10.8627
 21
-152.273
  0
LINE
  8
0
 10
-10.8627
 20
-152.273
 11
-10.4284
 21
-152.515
  0
LINE
  8
0
 10
-10.4284
 20
-152.515
 11
-10.0055
 21
-152.777
  0
LINE
  8
0
 10
-10.0055
 20
-152.777
 11
-9.59485
 21
-153.057
  0
LINE
  8
0
 10
-9.59485
 20
-153.057
 11
-9.19728
 21
-153.356
  0
LINE
  8
0
 10
-9.19728
 20
-153.356
 11
-8.81361
 21
-153.672
  0
LINE
  8
0
 10
-8.81361
 20
-153.672
 11
-8.44464
 21
-154.005
  0
LINE
  8
0
 10
-8.44464
 20
-154.005
 11
-8.09109
 21
-154.355
  0
LINE
  8
0
 10
-8.09109
 20
-154.355
 11
-7.75371
 21
-154.72
  0
LINE
  8
0
 10
-7.75371
 20
-154.72
 11
-7.43317
 21
-155.1
  0
LINE
  8
0
 10
-7.43317
 20
-155.1
 11
-7.13013
 21
-155.494
  0
LINE
  8
0
 10
-7.13013
 20
-155.494
 11
-6.8452
 21
-155.902
  0
LINE
  8
0
 10
-6.8452
 20
-155.902
 11
-6.57898
 21
-156.322
  0
LINE
  8
0
 10
-6.57898
 20
-156.322
 11
-6.33202
 21
-156.753
  0
LINE
  8
0
 10
-6.33202
 20
-156.753
 11
-6.1048
 21
-157.195
  0
LINE
  8
0
 10
-6.1048
 20
-157.195
 11
-5.8978
 21
-157.647
  0
LINE
  8
0
 10
-5.8978
 20
-157.647
 11
-5.71143
 21
-158.108
  0
LINE
  8
0
 10
-5.71143
 20
-158.108
 11
-5.54608
 21
-158.577
  0
LINE
  8
0
 10
-5.54608
 20
-158.577
 11
-5.40208
 21
-159.053
  0
LINE
  8
0
 10
-5.40208
 20
-159.053
 11
-5.27975
 21
-159.535
  0
LINE
  8
0
 10
-5.27975
 20
-159.535
 11
-5.17931
 21
-160.022
  0
LINE
  8
0
 10
-5.17931
 20
-160.022
 11
-5.10098
 21
-160.513
  0
LINE
  8
0
 10
-5.10098
 20
-160.513
 11
-5.04492
 21
-161.007
  0
LINE
  8
0
 10
-5.04492
 20
-161.007
 11
-5.01123
 21
-161.503
  0
LINE
  8
0
 10
-5.01123
 20
-161.503
 11
-5
 21
-162
  0
LINE
  8
0
 10
-5
 20
-162
 11
-5.01123
 21
-162.497
  0
LINE
  8
0
 10
-5.01123
 20
-162.497
 11
-5.04492
 21
-162.993
  0
LINE
  8
0
 10
-5.04492
 20
-162.993
 11
-5.10098
 21
-163.487
  0
LINE
  8
0
 10
-5.10098
 20
-163.487
 11
-5.17931
 21
-163.978
  0
LINE
  8
0
 10
-5.17931
 20
-163.978
 11
-5.27975
 21
-164.465
  0
LINE
  8
0
 10
-5.27975
 20
-164.465
 11
-5.40208
 21
-164.947
  0
LINE
  8
0
 10
-5.40208
 20
-164.947
 11
-5.54608
 21
-165.423
  0
LINE
  8
0
 10
-5.54608
 20
-165.423
 11
-5.71143
 21
-165.892
  0
LINE
  8
0
 10
-5.71143
 20
-165.892
 11
-5.8978
 21
-166.353
  0
LINE
  8
0
 10
-5.8978
 20
-166.353
 11
-6.1048
 21
-166.805
  0
LINE
  8
0
 10
-6.1048
 20
-166.805
 11
-6.33202
 21
-167.247
  0
LINE
  8
0
 10
-6.33202
 20
-167.247
 11
-6.57898
 21
-167.678
  0
LINE
  8
0
 10
-6.57898
 20
-167.678
 11
-6.8452
 21
-168.098
  0
LINE
  8
0
 10
-6.8452
 20
-168.098
 11
-7.13013
 21
-168.506
  0
LINE
  8
0
 10
-7.13013
 20
-168.506
 11
-7.43317
 21
-168.9
  0
LINE
  8
0
 10
-7.43317
 20
-168.9
 11
-7.75371
 21
-169.28
  0
LINE
  8
0
 10
-7.75371
 20
-169.28
 11
-8.09109
 21
-169.645
  0
LINE
  8
0
 10
-8.09109
 20
-169.645
 11
-8.44464
 21
-169.995
  0
LINE
  8
0
 10
-8.44464
 20
-169.995
 11
-8.81361
 21
-170.328
  0
LINE
  8
0
 10
-8.81361
 20
-170.328
 11
-9.19728
 21
-170.644
  0
LINE
  8
0
 10
-9.19728
 20
-170.644
 11
-9.59485
 21
-170.943
  0
LINE
  8
0
 10
-9.59485
 20
-170.943
 11
-10.0055
 21
-171.223
  0
LINE
  8
0
 10
-10.0055
 20
-171.223
 11
-10.4284
 21
-171.485
  0
LINE
  8
0
 10
-10.4284
 20
-171.485
 11
-10.8627
 21
-171.727
  0
LINE
  8
0
 10
-10.8627
 20
-171.727
 11
-11.3074
 21
-171.949
  0
LINE
  8
0
 10
-11.3074
 20
-171.949
 11
-11.7618
 21
-172.151
  0
LINE
  8
0
 10
-11.7618
 20
-172.151
 11
-12.2248
 21
-172.332
  0
LINE
  8
0
 10
-12.2248
 20
-172.332
 11
-12.6955
 21
-172.492
  0
LINE
  8
0
 10
-12.6955
 20
-172.492
 11
-13.173
 21
-172.631
  0
LINE
  8
0
 10
-13.173
 20
-172.631
 11
-13.6562
 21
-172.747
  0
LINE
  8
0
 10
-13.6562
 20
-172.747
 11
-14.1443
 21
-172.842
  0
LINE
  8
0
 10
-14.1443
 20
-172.842
 11
-14.6361
 21
-172.915
  0
LINE
  8
0
 10
-14.6361
 20
-172.915
 11
-15.1308
 21
-172.966
  0
LINE
  8
0
 10
-15.1308
 20
-172.966
 11
-15.6271
 21
-172.994
  0
LINE
  8
0
 10
-15.6271
 20
-172.994
 11
-16.1243
 21
-172.999
  0
LINE
  8
0
 10
-16.1243
 20
-172.999
 11
-16.6212
 21
-172.982
  0
LINE
  8
0
 10
-82.372
 20
-172.241
 11
-82.846
 21
-172.087
  0
LINE
  8
0
 10
-82.846
 20
-172.087
 11
-83.2838
 21
-171.849
  0
LINE
  8
0
 10
-83.2838
 20
-171.849
 11
-83.6703
 21
-171.535
  0
LINE
  8
0
 10
-83.6703
 20
-171.535
 11
-83.9926
 21
-171.155
  0
LINE
  8
0
 10
-83.9926
 20
-171.155
 11
-84.2395
 21
-170.722
  0
LINE
  8
0
 10
-84.2395
 20
-170.722
 11
-84.4027
 21
-170.251
  0
LINE
  8
0
 10
-84.4027
 20
-170.251
 11
-84.4766
 21
-169.759
  0
LINE
  8
0
 10
-84.4766
 20
-169.759
 11
-84.4587
 21
-169.261
  0
LINE
  8
0
 10
-84.4587
 20
-169.261
 11
-84.3496
 21
-168.775
  0
LINE
  8
0
 10
-84.3496
 20
-168.775
 11
-84.153
 21
-168.317
  0
LINE
  8
0
 10
-84.153
 20
-168.317
 11
-83.8757
 21
-167.903
  0
LINE
  8
0
 10
-83.8757
 20
-167.903
 11
-83.527
 21
-167.547
  0
LINE
  8
0
 10
-83.527
 20
-167.547
 11
-83.1189
 21
-167.261
  0
LINE
  8
0
 10
-83.1189
 20
-167.261
 11
-82.6651
 21
-167.055
  0
LINE
  8
0
 10
-82.6651
 20
-167.055
 11
-82.1813
 21
-166.936
  0
LINE
  8
0
 10
-82.1813
 20
-166.936
 11
-81.6839
 21
-166.908
  0
LINE
  8
0
 10
-81.6839
 20
-166.908
 11
-81.1897
 21
-166.972
  0
LINE
  8
0
 10
-81.1897
 20
-166.972
 11
-80.7157
 21
-167.125
  0
LINE
  8
0
 10
-80.7157
 20
-167.125
 11
-80.278
 21
-167.363
  0
LINE
  8
0
 10
-80.278
 20
-167.363
 11
-79.8914
 21
-167.678
  0
LINE
  8
0
 10
-79.8914
 20
-167.678
 11
-79.5692
 21
-168.058
  0
LINE
  8
0
 10
-79.5692
 20
-168.058
 11
-79.3223
 21
-168.49
  0
LINE
  8
0
 10
-79.3223
 20
-168.49
 11
-79.1591
 21
-168.961
  0
LINE
  8
0
 10
-79.1591
 20
-168.961
 11
-79.0852
 21
-169.454
  0
LINE
  8
0
 10
-79.0852
 20
-169.454
 11
-79.1031
 21
-169.952
  0
LINE
  8
0
 10
-79.1031
 20
-169.952
 11
-79.2122
 21
-170.438
  0
LINE
  8
0
 10
-79.2122
 20
-170.438
 11
-79.4087
 21
-170.896
  0
LINE
  8
0
 10
-79.4087
 20
-170.896
 11
-79.6861
 21
-171.31
  0
LINE
  8
0
 10
-79.6861
 20
-171.31
 11
-80.0347
 21
-171.666
  0
LINE
  8
0
 10
-80.0347
 20
-171.666
 11
-80.4429
 21
-171.951
  0
LINE
  8
0
 10
-80.4429
 20
-171.951
 11
-80.8966
 21
-172.157
  0
LINE
  8
0
 10
-80.8966
 20
-172.157
 11
-81.3804
 21
-172.276
  0
LINE
  8
0
 10
-81.3804
 20
-172.276
 11
-81.8779
 21
-172.305
  0
LINE
  8
0
 10
-81.8779
 20
-172.305
 11
-82.372
 21
-172.241
  0
LINE
  8
0
 10
-60.9314
 20
-176.537
 11
-61.3802
 21
-176.34
  0
LINE
  8
0
 10
-61.3802
 20
-176.34
 11
-61.7593
 21
-176.029
  0
LINE
  8
0
 10
-61.7593
 20
-176.029
 11
-62.0405
 21
-175.627
  0
LINE
  8
0
 10
-62.0405
 20
-175.627
 11
-62.2029
 21
-175.165
  0
LINE
  8
0
 10
-62.2029
 20
-175.165
 11
-62.2345
 21
-174.676
  0
LINE
  8
0
 10
-62.2345
 20
-174.676
 11
-61.7433
 21
-171.89
  0
LINE
  8
0
 10
-61.7433
 20
-171.89
 11
-61.6418
 21
-171.411
  0
LINE
  8
0
 10
-61.6418
 20
-171.411
 11
-61.4146
 21
-170.976
  0
LINE
  8
0
 10
-61.4146
 20
-170.976
 11
-61.0786
 21
-170.619
  0
LINE
  8
0
 10
-61.0786
 20
-170.619
 11
-60.6588
 21
-170.366
  0
LINE
  8
0
 10
-60.6588
 20
-170.366
 11
-60.1863
 21
-170.236
  0
LINE
  8
0
 10
-60.1863
 20
-170.236
 11
-59.6961
 21
-170.238
  0
LINE
  8
0
 10
-59.6961
 20
-170.238
 11
-59.2246
 21
-170.372
  0
LINE
  8
0
 10
-59.2246
 20
-170.372
 11
-58.8067
 21
-170.628
  0
LINE
  8
0
 10
-58.8067
 20
-170.628
 11
-58.4735
 21
-170.988
  0
LINE
  8
0
 10
-58.4735
 20
-170.988
 11
-58.2496
 21
-171.424
  0
LINE
  8
0
 10
-58.2496
 20
-171.424
 11
-58.1517
 21
-171.904
  0
LINE
  8
0
 10
-58.1517
 20
-171.904
 11
-58.187
 21
-172.393
  0
LINE
  8
0
 10
-58.187
 20
-172.393
 11
-58.6782
 21
-175.178
  0
LINE
  8
0
 10
-58.6782
 20
-175.178
 11
-58.8441
 21
-175.64
  0
LINE
  8
0
 10
-58.8441
 20
-175.64
 11
-59.1283
 21
-176.039
  0
LINE
  8
0
 10
-59.1283
 20
-176.039
 11
-59.5097
 21
-176.347
  0
LINE
  8
0
 10
-59.5097
 20
-176.347
 11
-59.9601
 21
-176.541
  0
LINE
  8
0
 10
-59.9601
 20
-176.541
 11
-60.446
 21
-176.605
  0
LINE
  8
0
 10
-60.446
 20
-176.605
 11
-60.9314
 21
-176.537
  0
LINE
  8
0
 10
-27.9078
 20
-174.907
 11
-28.3325
 21
-174.675
  0
LINE
  8
0
 10
-28.3325
 20
-174.675
 11
-28.6746
 21
-174.332
  0
LINE
  8
0
 10
-28.6746
 20
-174.332
 11
-28.9065
 21
-173.908
  0
LINE
  8
0
 10
-28.9065
 20
-173.908
 11
-29.0094
 21
-173.435
  0
LINE
  8
0
 10
-29.0094
 20
-173.435
 11
-28.9749
 21
-172.952
  0
LINE
  8
0
 10
-28.9749
 20
-172.952
 11
-28.8058
 21
-172.499
  0
LINE
  8
0
 10
-28.8058
 20
-172.499
 11
-28.5158
 21
-172.112
  0
LINE
  8
0
 10
-28.5158
 20
-172.112
 11
-28.1284
 21
-171.822
  0
LINE
  8
0
 10
-28.1284
 20
-171.822
 11
-27.6751
 21
-171.653
  0
LINE
  8
0
 10
-27.6751
 20
-171.653
 11
-27.1924
 21
-171.618
  0
LINE
  8
0
 10
-27.1924
 20
-171.618
 11
-26.7196
 21
-171.721
  0
LINE
  8
0
 10
-26.7196
 20
-171.721
 11
-26.2949
 21
-171.953
  0
LINE
  8
0
 10
-26.2949
 20
-171.953
 11
-25.9528
 21
-172.295
  0
LINE
  8
0
 10
-25.9528
 20
-172.295
 11
-25.7209
 21
-172.72
  0
LINE
  8
0
 10
-25.7209
 20
-172.72
 11
-25.618
 21
-173.192
  0
LINE
  8
0
 10
-25.618
 20
-173.192
 11
-25.6526
 21
-173.675
  0
LINE
  8
0
 10
-25.6526
 20
-173.675
 11
-25.8216
 21
-174.128
  0
LINE
  8
0
 10
-25.8216
 20
-174.128
 11
-26.1116
 21
-174.516
  0
LINE
  8
0
 10
-26.1116
 20
-174.516
 11
-26.499
 21
-174.806
  0
LINE
  8
0
 10
-26.499
 20
-174.806
 11
-26.9523
 21
-174.975
  0
LINE
  8
0
 10
-26.9523
 20
-174.975
 11
-27.435
 21
-175.009
  0
LINE
  8
0
 10
-27.435
 20
-175.009
 11
-27.9078
 21
-174.907
  0
LINE
  8
0
 10
-5.04765
 20
-174.975
 11
-5.50101
 21
-174.806
  0
LINE
  8
0
 10
-5.50101
 20
-174.806
 11
-5.88837
 21
-174.516
  0
LINE
  8
0
 10
-5.88837
 20
-174.516
 11
-6.17834
 21
-174.128
  0
LINE
  8
0
 10
-6.17834
 20
-174.128
 11
-6.34743
 21
-173.675
  0
LINE
  8
0
 10
-6.34743
 20
-173.675
 11
-6.38196
 21
-173.192
  0
LINE
  8
0
 10
-6.38196
 20
-173.192
 11
-6.2791
 21
-172.72
  0
LINE
  8
0
 10
-6.2791
 20
-172.72
 11
-6.04721
 21
-172.295
  0
LINE
  8
0
 10
-6.04721
 20
-172.295
 11
-5.70506
 21
-171.953
  0
LINE
  8
0
 10
-5.70506
 20
-171.953
 11
-5.28038
 21
-171.721
  0
LINE
  8
0
 10
-5.28038
 20
-171.721
 11
-4.80756
 21
-171.618
  0
LINE
  8
0
 10
-4.80756
 20
-171.618
 11
-4.32492
 21
-171.653
  0
LINE
  8
0
 10
-4.32492
 20
-171.653
 11
-3.87157
 21
-171.822
  0
LINE
  8
0
 10
-3.87157
 20
-171.822
 11
-3.48421
 21
-172.112
  0
LINE
  8
0
 10
-3.48421
 20
-172.112
 11
-3.19423
 21
-172.499
  0
LINE
  8
0
 10
-3.19423
 20
-172.499
 11
-3.02513
 21
-172.952
  0
LINE
  8
0
 10
-3.02513
 20
-172.952
 11
-2.99062
 21
-173.435
  0
LINE
  8
0
 10
-2.99062
 20
-173.435
 11
-3.09348
 21
-173.908
  0
LINE
  8
0
 10
-3.09348
 20
-173.908
 11
-3.32536
 21
-174.332
  0
LINE
  8
0
 10
-3.32536
 20
-174.332
 11
-3.66751
 21
-174.675
  0
LINE
  8
0
 10
-3.66751
 20
-174.675
 11
-4.09219
 21
-174.907
  0
LINE
  8
0
 10
-4.09219
 20
-174.907
 11
-4.565
 21
-175.009
  0
LINE
  8
0
 10
-4.565
 20
-175.009
 11
-5.04765
 21
-174.975
  0
LINE
  8
0
 10
-64.2843
 20
-206.997
 11
-64.7831
 21
-206.974
  0
LINE
  8
0
 10
-64.7831
 20
-206.974
 11
-65.2805
 21
-206.931
  0
LINE
  8
0
 10
-65.2805
 20
-206.931
 11
-65.7758
 21
-206.868
  0
LINE
  8
0
 10
-65.7758
 20
-206.868
 11
-66.2679
 21
-206.784
  0
LINE
  8
0
 10
-66.2679
 20
-206.784
 11
-66.7561
 21
-206.679
  0
LINE
  8
0
 10
-66.7561
 20
-206.679
 11
-67.2396
 21
-206.554
  0
LINE
  8
0
 10
-67.2396
 20
-206.554
 11
-67.7174
 21
-206.41
  0
LINE
  8
0
 10
-67.7174
 20
-206.41
 11
-68.1888
 21
-206.245
  0
LINE
  8
0
 10
-68.1888
 20
-206.245
 11
-68.653
 21
-206.061
  0
LINE
  8
0
 10
-68.653
 20
-206.061
 11
-69.1091
 21
-205.858
  0
LINE
  8
0
 10
-69.1091
 20
-205.858
 11
-69.5564
 21
-205.636
  0
LINE
  8
0
 10
-69.5564
 20
-205.636
 11
-69.994
 21
-205.396
  0
LINE
  8
0
 10
-69.994
 20
-205.396
 11
-70.4212
 21
-205.137
  0
LINE
  8
0
 10
-70.4212
 20
-205.137
 11
-70.8374
 21
-204.862
  0
LINE
  8
0
 10
-70.8374
 20
-204.862
 11
-71.2417
 21
-204.569
  0
LINE
  8
0
 10
-71.2417
 20
-204.569
 11
-71.6335
 21
-204.259
  0
LINE
  8
0
 10
-71.6335
 20
-204.259
 11
-72.012
 21
-203.934
  0
LINE
  8
0
 10
-72.012
 20
-203.934
 11
-72.3767
 21
-203.592
  0
LINE
  8
0
 10
-72.3767
 20
-203.592
 11
-72.7269
 21
-203.237
  0
LINE
  8
0
 10
-72.7269
 20
-203.237
 11
-73.062
 21
-202.866
  0
LINE
  8
0
 10
-73.062
 20
-202.866
 11
-73.3814
 21
-202.483
  0
LINE
  8
0
 10
-73.3814
 20
-202.483
 11
-73.6845
 21
-202.086
  0
LINE
  8
0
 10
-73.6845
 20
-202.086
 11
-73.9709
 21
-201.677
  0
LINE
  8
0
 10
-73.9709
 20
-201.677
 11
-74.24
 21
-201.256
  0
LINE
  8
0
 10
-74.24
 20
-201.256
 11
-74.4914
 21
-200.825
  0
LINE
  8
0
 10
-74.4914
 20
-200.825
 11
-74.7246
 21
-200.384
  0
LINE
  8
0
 10
-74.7246
 20
-200.384
 11
-74.9393
 21
-199.933
  0
LINE
  8
0
 10
-74.9393
 20
-199.933
 11
-75.135
 21
-199.473
  0
LINE
  8
0
 10
-75.135
 20
-199.473
 11
-75.3115
 21
-199.006
  0
LINE
  8
0
 10
-75.3115
 20
-199.006
 11
-75.4683
 21
-198.532
  0
LINE
  8
0
 10
-75.4683
 20
-198.532
 11
-75.6053
 21
-198.052
  0
LINE
  8
0
 10
-75.6053
 20
-198.052
 11
-75.7223
 21
-197.567
  0
LINE
  8
0
 10
-75.7223
 20
-197.567
 11
-75.8189
 21
-197.077
  0
LINE
  8
0
 10
-75.8189
 20
-197.077
 11
-75.8951
 21
-196.583
  0
LINE
  8
0
 10
-75.8951
 20
-196.583
 11
-75.9506
 21
-196.087
  0
LINE
  8
0
 10
-75.9506
 20
-196.087
 11
-75.9855
 21
-195.589
  0
LINE
  8
0
 10
-75.9855
 20
-195.589
 11
-75.9997
 21
-195.09
  0
LINE
  8
0
 10
-75.9997
 20
-195.09
 11
-75.993
 21
-194.591
  0
LINE
  8
0
 10
-75.993
 20
-194.591
 11
-75.9656
 21
-194.092
  0
LINE
  8
0
 10
-75.9656
 20
-194.092
 11
-75.9175
 21
-193.595
  0
LINE
  8
0
 10
-75.9175
 20
-193.595
 11
-75.8488
 21
-193.101
  0
LINE
  8
0
 10
-75.8488
 20
-193.101
 11
-75.7595
 21
-192.61
  0
LINE
  8
0
 10
-75.7595
 20
-192.61
 11
-75.6499
 21
-192.123
  0
LINE
  8
0
 10
-75.6499
 20
-192.123
 11
-75.5201
 21
-191.64
  0
LINE
  8
0
 10
-75.5201
 20
-191.64
 11
-75.3704
 21
-191.164
  0
LINE
  8
0
 10
-75.3704
 20
-191.164
 11
-75.201
 21
-190.694
  0
LINE
  8
0
 10
-75.201
 20
-190.694
 11
-75.0122
 21
-190.232
  0
LINE
  8
0
 10
-75.0122
 20
-190.232
 11
-74.8043
 21
-189.778
  0
LINE
  8
0
 10
-74.8043
 20
-189.778
 11
-74.5777
 21
-189.333
  0
LINE
  8
0
 10
-74.5777
 20
-189.333
 11
-74.3329
 21
-188.898
  0
LINE
  8
0
 10
-74.3329
 20
-188.898
 11
-74.0701
 21
-188.474
  0
LINE
  8
0
 10
-74.0701
 20
-188.474
 11
-73.7899
 21
-188.06
  0
LINE
  8
0
 10
-73.7899
 20
-188.06
 11
-73.4927
 21
-187.659
  0
LINE
  8
0
 10
-73.4927
 20
-187.659
 11
-73.1791
 21
-187.271
  0
LINE
  8
0
 10
-73.1791
 20
-187.271
 11
-72.8497
 21
-186.895
  0
LINE
  8
0
 10
-72.8497
 20
-186.895
 11
-72.5049
 21
-186.534
  0
LINE
  8
0
 10
-72.5049
 20
-186.534
 11
-72.1454
 21
-186.188
  0
LINE
  8
0
 10
-72.1454
 20
-186.188
 11
-71.7717
 21
-185.857
  0
LINE
  8
0
 10
-71.7717
 20
-185.857
 11
-71.3847
 21
-185.541
  0
LINE
  8
0
 10
-71.3847
 20
-185.541
 11
-70.9848
 21
-185.242
  0
LINE
  8
0
 10
-70.9848
 20
-185.242
 11
-70.5728
 21
-184.96
  0
LINE
  8
0
 10
-70.5728
 20
-184.96
 11
-70.1495
 21
-184.695
  0
LINE
  8
0
 10
-70.1495
 20
-184.695
 11
-69.7155
 21
-184.449
  0
LINE
  8
0
 10
-69.7155
 20
-184.449
 11
-69.2717
 21
-184.22
  0
LINE
  8
0
 10
-69.2717
 20
-184.22
 11
-68.8187
 21
-184.01
  0
LINE
  8
0
 10
-68.8187
 20
-184.01
 11
-68.3573
 21
-183.819
  0
LINE
  8
0
 10
-68.3573
 20
-183.819
 11
-67.8884
 21
-183.647
  0
LINE
  8
0
 10
-67.8884
 20
-183.647
 11
-67.4128
 21
-183.496
  0
LINE
  8
0
 10
-67.4128
 20
-183.496
 11
-66.9313
 21
-183.364
  0
LINE
  8
0
 10
-66.9313
 20
-183.364
 11
-66.4447
 21
-183.252
  0
LINE
  8
0
 10
-66.4447
 20
-183.252
 11
-65.9539
 21
-183.16
  0
LINE
  8
0
 10
-65.9539
 20
-183.16
 11
-65.4597
 21
-183.089
  0
LINE
  8
0
 10
-65.4597
 20
-183.089
 11
-64.9629
 21
-183.039
  0
LINE
  8
0
 10
-64.9629
 20
-183.039
 11
-64.4645
 21
-183.009
  0
LINE
  8
0
 10
-64.4645
 20
-183.009
 11
-63.9653
 21
-183
  0
LINE
  8
0
 10
-63.9653
 20
-183
 11
-63.4662
 21
-183.012
  0
LINE
  8
0
 10
-63.4662
 20
-183.012
 11
-62.9679
 21
-183.044
  0
LINE
  8
0
 10
-62.9679
 20
-183.044
 11
-62.4715
 21
-183.098
  0
LINE
  8
0
 10
-62.4715
 20
-183.098
 11
-61.9777
 21
-183.172
  0
LINE
  8
0
 10
-61.9777
 20
-183.172
 11
-61.4874
 21
-183.266
  0
LINE
  8
0
 10
-61.4874
 20
-183.266
 11
-61.0015
 21
-183.381
  0
LINE
  8
0
 10
-61.0015
 20
-183.381
 11
-60.5207
 21
-183.515
  0
LINE
  8
0
 10
-60.5207
 20
-183.515
 11
-60.046
 21
-183.67
  0
LINE
  8
0
 10
-60.046
 20
-183.67
 11
-59.5781
 21
-183.844
  0
LINE
  8
0
 10
-59.5781
 20
-183.844
 11
-59.1179
 21
-184.038
  0
LINE
  8
0
 10
-59.1179
 20
-184.038
 11
-58.6661
 21
-184.251
  0
LINE
  8
0
 10
-58.6661
 20
-184.251
 11
-58.2236
 21
-184.482
  0
LINE
  8
0
 10
-58.2236
 20
-184.482
 11
-57.791
 21
-184.731
  0
LINE
  8
0
 10
-57.791
 20
-184.731
 11
-57.3692
 21
-184.998
  0
LINE
  8
0
 10
-57.3692
 20
-184.998
 11
-56.9589
 21
-185.283
  0
LINE
  8
0
 10
-56.9589
 20
-185.283
 11
-56.5608
 21
-185.584
  0
LINE
  8
0
 10
-56.5608
 20
-185.584
 11
-56.1756
 21
-185.902
  0
LINE
  8
0
 10
-56.1756
 20
-185.902
 11
-55.8038
 21
-186.235
  0
LINE
  8
0
 10
-55.8038
 20
-186.235
 11
-55.4463
 21
-186.584
  0
LINE
  8
0
 10
-55.4463
 20
-186.584
 11
-55.1036
 21
-186.947
  0
LINE
  8
0
 10
-55.1036
 20
-186.947
 11
-54.7763
 21
-187.324
  0
LINE
  8
0
 10
-54.7763
 20
-187.324
 11
-54.465
 21
-187.714
  0
LINE
  8
0
 10
-54.465
 20
-187.714
 11
-54.1702
 21
-188.117
  0
LINE
  8
0
 10
-54.1702
 20
-188.117
 11
-53.8924
 21
-188.532
  0
LINE
  8
0
 10
-53.8924
 20
-188.532
 11
-53.632
 21
-188.958
  0
LINE
  8
0
 10
-53.632
 20
-188.958
 11
-53.3897
 21
-189.395
  0
LINE
  8
0
 10
-53.3897
 20
-189.395
 11
-53.1657
 21
-189.841
  0
LINE
  8
0
 10
-53.1657
 20
-189.841
 11
-52.9604
 21
-190.296
  0
LINE
  8
0
 10
-52.9604
 20
-190.296
 11
-52.7743
 21
-190.759
  0
LINE
  8
0
 10
-52.7743
 20
-190.759
 11
-52.6076
 21
-191.23
  0
LINE
  8
0
 10
-52.6076
 20
-191.23
 11
-52.4607
 21
-191.707
  0
LINE
  8
0
 10
-52.4607
 20
-191.707
 11
-52.3337
 21
-192.19
  0
LINE
  8
0
 10
-52.3337
 20
-192.19
 11
-52.2269
 21
-192.678
  0
LINE
  8
0
 10
-52.2269
 20
-192.678
 11
-52.1405
 21
-193.169
  0
LINE
  8
0
 10
-52.1405
 20
-193.169
 11
-52.0746
 21
-193.664
  0
LINE
  8
0
 10
-52.0746
 20
-193.664
 11
-52.0293
 21
-194.162
  0
LINE
  8
0
 10
-52.0293
 20
-194.162
 11
-52.0048
 21
-194.66
  0
LINE
  8
0
 10
-52.0048
 20
-194.66
 11
-52.0011
 21
-195.16
  0
LINE
  8
0
 10
-52.0011
 20
-195.16
 11
-52.0181
 21
-195.659
  0
LINE
  8
0
 10
-52.0181
 20
-195.659
 11
-52.0558
 21
-196.156
  0
LINE
  8
0
 10
-52.0558
 20
-196.156
 11
-52.1143
 21
-196.652
  0
LINE
  8
0
 10
-52.1143
 20
-196.652
 11
-52.1933
 21
-197.145
  0
LINE
  8
0
 10
-52.1933
 20
-197.145
 11
-52.2928
 21
-197.635
  0
LINE
  8
0
 10
-52.2928
 20
-197.635
 11
-52.4125
 21
-198.119
  0
LINE
  8
0
 10
-52.4125
 20
-198.119
 11
-52.5523
 21
-198.599
  0
LINE
  8
0
 10
-52.5523
 20
-198.599
 11
-52.7119
 21
-199.072
  0
LINE
  8
0
 10
-52.7119
 20
-199.072
 11
-52.891
 21
-199.538
  0
LINE
  8
0
 10
-52.891
 20
-199.538
 11
-53.0894
 21
-199.996
  0
LINE
  8
0
 10
-53.0894
 20
-199.996
 11
-53.3067
 21
-200.445
  0
LINE
  8
0
 10
-53.3067
 20
-200.445
 11
-53.5424
 21
-200.886
  0
LINE
  8
0
 10
-53.5424
 20
-200.886
 11
-53.7963
 21
-201.315
  0
LINE
  8
0
 10
-53.7963
 20
-201.315
 11
-54.0679
 21
-201.734
  0
LINE
  8
0
 10
-54.0679
 20
-201.734
 11
-54.3566
 21
-202.142
  0
LINE
  8
0
 10
-54.3566
 20
-202.142
 11
-54.662
 21
-202.537
  0
LINE
  8
0
 10
-54.662
 20
-202.537
 11
-54.9836
 21
-202.919
  0
LINE
  8
0
 10
-54.9836
 20
-202.919
 11
-55.3208
 21
-203.287
  0
LINE
  8
0
 10
-55.3208
 20
-203.287
 11
-55.6731
 21
-203.641
  0
LINE
  8
0
 10
-55.6731
 20
-203.641
 11
-56.0397
 21
-203.98
  0
LINE
  8
0
 10
-56.0397
 20
-203.98
 11
-56.4202
 21
-204.303
  0
LINE
  8
0
 10
-56.4202
 20
-204.303
 11
-56.8137
 21
-204.61
  0
LINE
  8
0
 10
-56.8137
 20
-204.61
 11
-57.2197
 21
-204.901
  0
LINE
  8
0
 10
-57.2197
 20
-204.901
 11
-57.6374
 21
-205.174
  0
LINE
  8
0
 10
-57.6374
 20
-205.174
 11
-58.0662
 21
-205.43
  0
LINE
  8
0
 10
-58.0662
 20
-205.43
 11
-58.5052
 21
-205.668
  0
LINE
  8
0
 10
-58.5052
 20
-205.668
 11
-58.9537
 21
-205.887
  0
LINE
  8
0
 10
-58.9537
 20
-205.887
 11
-59.411
 21
-206.088
  0
LINE
  8
0
 10
-59.411
 20
-206.088
 11
-59.8762
 21
-206.269
  0
LINE
  8
0
 10
-59.8762
 20
-206.269
 11
-60.3486
 21
-206.431
  0
LINE
  8
0
 10
-60.3486
 20
-206.431
 11
-60.8272
 21
-206.573
  0
LINE
  8
0
 10
-60.8272
 20
-206.573
 11
-61.3114
 21
-206.695
  0
LINE
  8
0
 10
-61.3114
 20
-206.695
 11
-61.8002
 21
-206.797
  0
LINE
  8
0
 10
-61.8002
 20
-206.797
 11
-62.2928
 21
-206.878
  0
LINE
  8
0
 10
-62.2928
 20
-206.878
 11
-62.7884
 21
-206.939
  0
LINE
  8
0
 10
-62.7884
 20
-206.939
 11
-63.2861
 21
-206.979
  0
LINE
  8
0
 10
-63.2861
 20
-206.979
 11
-63.785
 21
-206.998
  0
LINE
  8
0
 10
-63.785
 20
-206.998
 11
-64.2843
 21
-206.997
  0
LINE
  8
0
 10
-25.9372
 20
-190.936
 11
-26.3619
 21
-190.704
  0
LINE
  8
0
 10
-26.3619
 20
-190.704
 11
-26.7041
 21
-190.362
  0
LINE
  8
0
 10
-26.7041
 20
-190.362
 11
-26.936
 21
-189.937
  0
LINE
  8
0
 10
-26.936
 20
-189.937
 11
-27.0388
 21
-189.464
  0
LINE
  8
0
 10
-27.0388
 20
-189.464
 11
-27.0043
 21
-188.982
  0
LINE
  8
0
 10
-27.0043
 20
-188.982
 11
-26.8352
 21
-188.528
  0
LINE
  8
0
 10
-26.8352
 20
-188.528
 11
-26.5452
 21
-188.141
  0
LINE
  8
0
 10
-26.5452
 20
-188.141
 11
-26.1579
 21
-187.851
  0
LINE
  8
0
 10
-26.1579
 20
-187.851
 11
-25.7045
 21
-187.682
  0
LINE
  8
0
 10
-25.7045
 20
-187.682
 11
-25.2219
 21
-187.647
  0
LINE
  8
0
 10
-25.2219
 20
-187.647
 11
-24.7491
 21
-187.75
  0
LINE
  8
0
 10
-24.7491
 20
-187.75
 11
-24.3244
 21
-187.982
  0
LINE
  8
0
 10
-24.3244
 20
-187.982
 11
-23.9822
 21
-188.324
  0
LINE
  8
0
 10
-23.9822
 20
-188.324
 11
-23.7503
 21
-188.749
  0
LINE
  8
0
 10
-23.7503
 20
-188.749
 11
-23.6475
 21
-189.222
  0
LINE
  8
0
 10
-23.6475
 20
-189.222
 11
-23.682
 21
-189.705
  0
LINE
  8
0
 10
-23.682
 20
-189.705
 11
-23.8511
 21
-190.158
  0
LINE
  8
0
 10
-23.8511
 20
-190.158
 11
-24.1411
 21
-190.545
  0
LINE
  8
0
 10
-24.1411
 20
-190.545
 11
-24.5284
 21
-190.835
  0
LINE
  8
0
 10
-24.5284
 20
-190.835
 11
-24.9818
 21
-191.004
  0
LINE
  8
0
 10
-24.9818
 20
-191.004
 11
-25.4644
 21
-191.039
  0
LINE
  8
0
 10
-25.4644
 20
-191.039
 11
-25.9372
 21
-190.936
  0
LINE
  8
0
 10
-37.0182
 20
-191.004
 11
-37.4716
 21
-190.835
  0
LINE
  8
0
 10
-37.4716
 20
-190.835
 11
-37.8589
 21
-190.545
  0
LINE
  8
0
 10
-37.8589
 20
-190.545
 11
-38.1489
 21
-190.158
  0
LINE
  8
0
 10
-38.1489
 20
-190.158
 11
-38.318
 21
-189.705
  0
LINE
  8
0
 10
-38.318
 20
-189.705
 11
-38.3525
 21
-189.222
  0
LINE
  8
0
 10
-38.3525
 20
-189.222
 11
-38.2497
 21
-188.749
  0
LINE
  8
0
 10
-38.2497
 20
-188.749
 11
-38.0178
 21
-188.324
  0
LINE
  8
0
 10
-38.0178
 20
-188.324
 11
-37.6756
 21
-187.982
  0
LINE
  8
0
 10
-37.6756
 20
-187.982
 11
-37.2509
 21
-187.75
  0
LINE
  8
0
 10
-37.2509
 20
-187.75
 11
-36.7781
 21
-187.647
  0
LINE
  8
0
 10
-36.7781
 20
-187.647
 11
-36.2955
 21
-187.682
  0
LINE
  8
0
 10
-36.2955
 20
-187.682
 11
-35.8421
 21
-187.851
  0
LINE
  8
0
 10
-35.8421
 20
-187.851
 11
-35.4548
 21
-188.141
  0
LINE
  8
0
 10
-35.4548
 20
-188.141
 11
-35.1648
 21
-188.528
  0
LINE
  8
0
 10
-35.1648
 20
-188.528
 11
-34.9957
 21
-188.982
  0
LINE
  8
0
 10
-34.9957
 20
-188.982
 11
-34.9612
 21
-189.464
  0
LINE
  8
0
 10
-34.9612
 20
-189.464
 11
-35.064
 21
-189.937
  0
LINE
  8
0
 10
-35.064
 20
-189.937
 11
-35.2959
 21
-190.362
  0
LINE
  8
0
 10
-35.2959
 20
-190.362
 11
-35.6381
 21
-190.704
  0
LINE
  8
0
 10
-35.6381
 20
-190.704
 11
-36.0628
 21
-190.936
  0
LINE
  8
0
 10
-36.0628
 20
-190.936
 11
-36.5356
 21
-191.039
  0
LINE
  8
0
 10
-36.5356
 20
-191.039
 11
-37.0182
 21
-191.004
  0
LINE
  8
0
 10
-87.1097
 20
-192.743
 11
-87.5892
 21
-192.642
  0
LINE
  8
0
 10
-87.5892
 20
-192.642
 11
-88.0236
 21
-192.415
  0
LINE
  8
0
 10
-88.0236
 20
-192.415
 11
-88.3806
 21
-192.079
  0
LINE
  8
0
 10
-88.3806
 20
-192.079
 11
-88.6337
 21
-191.659
  0
LINE
  8
0
 10
-88.6337
 20
-191.659
 11
-88.7642
 21
-191.186
  0
LINE
  8
0
 10
-88.7642
 20
-191.186
 11
-88.7623
 21
-190.696
  0
LINE
  8
0
 10
-88.7623
 20
-190.696
 11
-88.6283
 21
-190.225
  0
LINE
  8
0
 10
-88.6283
 20
-190.225
 11
-88.372
 21
-189.807
  0
LINE
  8
0
 10
-88.372
 20
-189.807
 11
-88.0125
 21
-189.474
  0
LINE
  8
0
 10
-88.0125
 20
-189.474
 11
-87.5764
 21
-189.25
  0
LINE
  8
0
 10
-87.5764
 20
-189.25
 11
-87.096
 21
-189.152
  0
LINE
  8
0
 10
-87.096
 20
-189.152
 11
-86.6071
 21
-189.187
  0
LINE
  8
0
 10
-86.6071
 20
-189.187
 11
-83.8217
 21
-189.678
  0
LINE
  8
0
 10
-83.8217
 20
-189.678
 11
-83.3604
 21
-189.844
  0
LINE
  8
0
 10
-83.3604
 20
-189.844
 11
-82.961
 21
-190.128
  0
LINE
  8
0
 10
-82.961
 20
-190.128
 11
-82.6531
 21
-190.51
  0
LINE
  8
0
 10
-82.6531
 20
-190.51
 11
-82.4595
 21
-190.96
  0
LINE
  8
0
 10
-82.4595
 20
-190.96
 11
-82.3946
 21
-191.446
  0
LINE
  8
0
 10
-82.3946
 20
-191.446
 11
-82.4632
 21
-191.931
  0
LINE
  8
0
 10
-82.4632
 20
-191.931
 11
-82.6602
 21
-192.38
  0
LINE
  8
0
 10
-82.6602
 20
-192.38
 11
-82.971
 21
-192.759
  0
LINE
  8
0
 10
-82.971
 20
-192.759
 11
-83.3725
 21
-193.04
  0
LINE
  8
0
 10
-83.3725
 20
-193.04
 11
-83.835
 21
-193.203
  0
LINE
  8
0
 10
-83.835
 20
-193.203
 11
-84.3242
 21
-193.234
  0
LINE
  8
0
 10
-84.3242
 20
-193.234
 11
-87.1097
 21
-192.743
  0
LINE
  8
0
 10
-31.373
 20
-200.136
 11
-31.867
 21
-200.076
  0
LINE
  8
0
 10
-31.867
 20
-200.076
 11
-32.3529
 21
-199.969
  0
LINE
  8
0
 10
-32.3529
 20
-199.969
 11
-32.8262
 21
-199.815
  0
LINE
  8
0
 10
-32.8262
 20
-199.815
 11
-33.2824
 21
-199.617
  0
LINE
  8
0
 10
-33.2824
 20
-199.617
 11
-33.7173
 21
-199.375
  0
LINE
  8
0
 10
-33.7173
 20
-199.375
 11
-34.1269
 21
-199.092
  0
LINE
  8
0
 10
-34.1269
 20
-199.092
 11
-34.5072
 21
-198.771
  0
LINE
  8
0
 10
-34.5072
 20
-198.771
 11
-34.8548
 21
-198.415
  0
LINE
  8
0
 10
-34.8548
 20
-198.415
 11
-35.1664
 21
-198.027
  0
LINE
  8
0
 10
-35.1664
 20
-198.027
 11
-35.4391
 21
-197.611
  0
LINE
  8
0
 10
-35.4391
 20
-197.611
 11
-35.6704
 21
-197.17
  0
LINE
  8
0
 10
-35.6704
 20
-197.17
 11
-35.858
 21
-196.709
  0
LINE
  8
0
 10
-35.858
 20
-196.709
 11
-36.0004
 21
-196.232
  0
LINE
  8
0
 10
-36.0004
 20
-196.232
 11
-36.0959
 21
-195.744
  0
LINE
  8
0
 10
-36.0959
 20
-195.744
 11
-36.144
 21
-195.249
  0
LINE
  8
0
 10
-36.144
 20
-195.249
 11
-36.144
 21
-194.751
  0
LINE
  8
0
 10
-36.144
 20
-194.751
 11
-36.0959
 21
-194.256
  0
LINE
  8
0
 10
-36.0959
 20
-194.256
 11
-36.0004
 21
-193.768
  0
LINE
  8
0
 10
-36.0004
 20
-193.768
 11
-35.858
 21
-193.291
  0
LINE
  8
0
 10
-35.858
 20
-193.291
 11
-35.6704
 21
-192.83
  0
LINE
  8
0
 10
-35.6704
 20
-192.83
 11
-35.4391
 21
-192.389
  0
LINE
  8
0
 10
-35.4391
 20
-192.389
 11
-35.1664
 21
-191.973
  0
LINE
  8
0
 10
-35.1664
 20
-191.973
 11
-34.8548
 21
-191.585
  0
LINE
  8
0
 10
-34.8548
 20
-191.585
 11
-34.5072
 21
-191.229
  0
LINE
  8
0
 10
-34.5072
 20
-191.229
 11
-34.1269
 21
-190.908
  0
LINE
  8
0
 10
-34.1269
 20
-190.908
 11
-33.7173
 21
-190.625
  0
LINE
  8
0
 10
-33.7173
 20
-190.625
 11
-33.2824
 21
-190.383
  0
LINE
  8
0
 10
-33.2824
 20
-190.383
 11
-32.8262
 21
-190.185
  0
LINE
  8
0
 10
-32.8262
 20
-190.185
 11
-32.3529
 21
-190.031
  0
LINE
  8
0
 10
-32.3529
 20
-190.031
 11
-31.867
 21
-189.924
  0
LINE
  8
0
 10
-31.867
 20
-189.924
 11
-31.373
 21
-189.864
  0
LINE
  8
0
 10
-31.373
 20
-189.864
 11
-30.8755
 21
-189.852
  0
LINE
  8
0
 10
-30.8755
 20
-189.852
 11
-30.3792
 21
-189.888
  0
LINE
  8
0
 10
-30.3792
 20
-189.888
 11
-29.8887
 21
-189.971
  0
LINE
  8
0
 10
-29.8887
 20
-189.971
 11
-29.4086
 21
-190.102
  0
LINE
  8
0
 10
-29.4086
 20
-190.102
 11
-28.9433
 21
-190.279
  0
LINE
  8
0
 10
-28.9433
 20
-190.279
 11
-28.4972
 21
-190.499
  0
LINE
  8
0
 10
-28.4972
 20
-190.499
 11
-28.0745
 21
-190.762
  0
LINE
  8
0
 10
-28.0745
 20
-190.762
 11
-27.6791
 21
-191.064
  0
LINE
  8
0
 10
-27.6791
 20
-191.064
 11
-27.3147
 21
-191.403
  0
LINE
  8
0
 10
-27.3147
 20
-191.403
 11
-26.9847
 21
-191.775
  0
LINE
  8
0
 10
-26.9847
 20
-191.775
 11
-26.6922
 21
-192.178
  0
LINE
  8
0
 10
-26.6922
 20
-192.178
 11
-26.4399
 21
-192.607
  0
LINE
  8
0
 10
-26.4399
 20
-192.607
 11
-26.2302
 21
-193.058
  0
LINE
  8
0
 10
-26.2302
 20
-193.058
 11
-26.065
 21
-193.527
  0
LINE
  8
0
 10
-26.065
 20
-193.527
 11
-25.9459
 21
-194.011
  0
LINE
  8
0
 10
-25.9459
 20
-194.011
 11
-25.874
 21
-194.503
  0
LINE
  8
0
 10
-25.874
 20
-194.503
 11
-25.85
 21
-195
  0
LINE
  8
0
 10
-25.85
 20
-195
 11
-25.874
 21
-195.497
  0
LINE
  8
0
 10
-25.874
 20
-195.497
 11
-25.9459
 21
-195.989
  0
LINE
  8
0
 10
-25.9459
 20
-195.989
 11
-26.065
 21
-196.473
  0
LINE
  8
0
 10
-26.065
 20
-196.473
 11
-26.2302
 21
-196.942
  0
LINE
  8
0
 10
-26.2302
 20
-196.942
 11
-26.4399
 21
-197.393
  0
LINE
  8
0
 10
-26.4399
 20
-197.393
 11
-26.6922
 21
-197.822
  0
LINE
  8
0
 10
-26.6922
 20
-197.822
 11
-26.9847
 21
-198.225
  0
LINE
  8
0
 10
-26.9847
 20
-198.225
 11
-27.3147
 21
-198.597
  0
LINE
  8
0
 10
-27.3147
 20
-198.597
 11
-27.6791
 21
-198.936
  0
LINE
  8
0
 10
-27.6791
 20
-198.936
 11
-28.0745
 21
-199.238
  0
LINE
  8
0
 10
-28.0745
 20
-199.238
 11
-28.4972
 21
-199.501
  0
LINE
  8
0
 10
-28.4972
 20
-199.501
 11
-28.9433
 21
-199.721
  0
LINE
  8
0
 10
-28.9433
 20
-199.721
 11
-29.4086
 21
-199.898
  0
LINE
  8
0
 10
-29.4086
 20
-199.898
 11
-29.8887
 21
-200.029
  0
LINE
  8
0
 10
-29.8887
 20
-200.029
 11
-30.3792
 21
-200.112
  0
LINE
  8
0
 10
-30.3792
 20
-200.112
 11
-30.8755
 21
-200.148
  0
LINE
  8
0
 10
-30.8755
 20
-200.148
 11
-31.373
 21
-200.136
  0
LINE
  8
0
 10
-95.3357
 20
-200.627
 11
-95.7846
 21
-200.43
  0
LINE
  8
0
 10
-95.7846
 20
-200.43
 11
-96.1637
 21
-200.119
  0
LINE
  8
0
 10
-96.1637
 20
-200.119
 11
-96.4449
 21
-199.718
  0
LINE
  8
0
 10
-96.4449
 20
-199.718
 11
-96.6073
 21
-199.255
  0
LINE
  8
0
 10
-96.6073
 20
-199.255
 11
-96.6389
 21
-198.766
  0
LINE
  8
0
 10
-96.6389
 20
-198.766
 11
-96.1477
 21
-195.981
  0
LINE
  8
0
 10
-96.1477
 20
-195.981
 11
-96.0462
 21
-195.501
  0
LINE
  8
0
 10
-96.0462
 20
-195.501
 11
-95.819
 21
-195.067
  0
LINE
  8
0
 10
-95.819
 20
-195.067
 11
-95.483
 21
-194.71
  0
LINE
  8
0
 10
-95.483
 20
-194.71
 11
-95.0632
 21
-194.456
  0
LINE
  8
0
 10
-95.0632
 20
-194.456
 11
-94.5907
 21
-194.326
  0
LINE
  8
0
 10
-94.5907
 20
-194.326
 11
-94.1005
 21
-194.328
  0
LINE
  8
0
 10
-94.1005
 20
-194.328
 11
-93.629
 21
-194.462
  0
LINE
  8
0
 10
-93.629
 20
-194.462
 11
-93.2111
 21
-194.718
  0
LINE
  8
0
 10
-93.2111
 20
-194.718
 11
-92.8779
 21
-195.078
  0
LINE
  8
0
 10
-92.8779
 20
-195.078
 11
-92.654
 21
-195.514
  0
LINE
  8
0
 10
-92.654
 20
-195.514
 11
-92.5561
 21
-195.994
  0
LINE
  8
0
 10
-92.5561
 20
-195.994
 11
-92.5914
 21
-196.483
  0
LINE
  8
0
 10
-92.5914
 20
-196.483
 11
-93.0826
 21
-199.269
  0
LINE
  8
0
 10
-93.0826
 20
-199.269
 11
-93.2485
 21
-199.73
  0
LINE
  8
0
 10
-93.2485
 20
-199.73
 11
-93.5327
 21
-200.129
  0
LINE
  8
0
 10
-93.5327
 20
-200.129
 11
-93.9141
 21
-200.437
  0
LINE
  8
0
 10
-93.9141
 20
-200.437
 11
-94.3645
 21
-200.631
  0
LINE
  8
0
 10
-94.3645
 20
-200.631
 11
-94.8504
 21
-200.696
  0
LINE
  8
0
 10
-94.8504
 20
-200.696
 11
-95.3357
 21
-200.627
  0
LINE
  8
0
 10
-41.3929
 20
-200.813
 11
-44.1783
 21
-200.322
  0
LINE
  8
0
 10
-44.1783
 20
-200.322
 11
-44.6396
 21
-200.156
  0
LINE
  8
0
 10
-44.6396
 20
-200.156
 11
-45.039
 21
-199.872
  0
LINE
  8
0
 10
-45.039
 20
-199.872
 11
-45.3469
 21
-199.49
  0
LINE
  8
0
 10
-45.3469
 20
-199.49
 11
-45.5405
 21
-199.04
  0
LINE
  8
0
 10
-45.5405
 20
-199.04
 11
-45.6054
 21
-198.554
  0
LINE
  8
0
 10
-45.6054
 20
-198.554
 11
-45.5368
 21
-198.069
  0
LINE
  8
0
 10
-45.5368
 20
-198.069
 11
-45.3398
 21
-197.62
  0
LINE
  8
0
 10
-45.3398
 20
-197.62
 11
-45.029
 21
-197.241
  0
LINE
  8
0
 10
-45.029
 20
-197.241
 11
-44.6275
 21
-196.96
  0
LINE
  8
0
 10
-44.6275
 20
-196.96
 11
-44.165
 21
-196.797
  0
LINE
  8
0
 10
-44.165
 20
-196.797
 11
-43.6758
 21
-196.766
  0
LINE
  8
0
 10
-43.6758
 20
-196.766
 11
-40.8903
 21
-197.257
  0
LINE
  8
0
 10
-40.8903
 20
-197.257
 11
-40.4108
 21
-197.358
  0
LINE
  8
0
 10
-40.4108
 20
-197.358
 11
-39.9764
 21
-197.585
  0
LINE
  8
0
 10
-39.9764
 20
-197.585
 11
-39.6194
 21
-197.921
  0
LINE
  8
0
 10
-39.6194
 20
-197.921
 11
-39.3663
 21
-198.341
  0
LINE
  8
0
 10
-39.3663
 20
-198.341
 11
-39.2358
 21
-198.814
  0
LINE
  8
0
 10
-39.2358
 20
-198.814
 11
-39.2377
 21
-199.304
  0
LINE
  8
0
 10
-39.2377
 20
-199.304
 11
-39.3717
 21
-199.775
  0
LINE
  8
0
 10
-39.3717
 20
-199.775
 11
-39.628
 21
-200.193
  0
LINE
  8
0
 10
-39.628
 20
-200.193
 11
-39.9875
 21
-200.526
  0
LINE
  8
0
 10
-39.9875
 20
-200.526
 11
-40.4236
 21
-200.75
  0
LINE
  8
0
 10
-40.4236
 20
-200.75
 11
-40.9039
 21
-200.848
  0
LINE
  8
0
 10
-40.9039
 20
-200.848
 11
-41.3929
 21
-200.813
  0
LINE
  8
0
 10
-25.7045
 20
-202.318
 11
-26.1579
 21
-202.149
  0
LINE
  8
0
 10
-26.1579
 20
-202.149
 11
-26.5452
 21
-201.859
  0
LINE
  8
0
 10
-26.5452
 20
-201.859
 11
-26.8352
 21
-201.472
  0
LINE
  8
0
 10
-26.8352
 20
-201.472
 11
-27.0043
 21
-201.018
  0
LINE
  8
0
 10
-27.0043
 20
-201.018
 11
-27.0388
 21
-200.536
  0
LINE
  8
0
 10
-27.0388
 20
-200.536
 11
-26.936
 21
-200.063
  0
LINE
  8
0
 10
-26.936
 20
-200.063
 11
-26.7041
 21
-199.638
  0
LINE
  8
0
 10
-26.7041
 20
-199.638
 11
-26.3619
 21
-199.296
  0
LINE
  8
0
 10
-26.3619
 20
-199.296
 11
-25.9372
 21
-199.064
  0
LINE
  8
0
 10
-25.9372
 20
-199.064
 11
-25.4644
 21
-198.961
  0
LINE
  8
0
 10
-25.4644
 20
-198.961
 11
-24.9818
 21
-198.996
  0
LINE
  8
0
 10
-24.9818
 20
-198.996
 11
-24.5284
 21
-199.165
  0
LINE
  8
0
 10
-24.5284
 20
-199.165
 11
-24.1411
 21
-199.455
  0
LINE
  8
0
 10
-24.1411
 20
-199.455
 11
-23.8511
 21
-199.842
  0
LINE
  8
0
 10
-23.8511
 20
-199.842
 11
-23.682
 21
-200.295
  0
LINE
  8
0
 10
-23.682
 20
-200.295
 11
-23.6475
 21
-200.778
  0
LINE
  8
0
 10
-23.6475
 20
-200.778
 11
-23.7503
 21
-201.251
  0
LINE
  8
0
 10
-23.7503
 20
-201.251
 11
-23.9822
 21
-201.676
  0
LINE
  8
0
 10
-23.9822
 20
-201.676
 11
-24.3244
 21
-202.018
  0
LINE
  8
0
 10
-24.3244
 20
-202.018
 11
-24.7491
 21
-202.25
  0
LINE
  8
0
 10
-24.7491
 20
-202.25
 11
-25.2219
 21
-202.353
  0
LINE
  8
0
 10
-25.2219
 20
-202.353
 11
-25.7045
 21
-202.318
  0
LINE
  8
0
 10
-37.2509
 20
-202.25
 11
-37.6756
 21
-202.018
  0
LINE
  8
0
 10
-37.6756
 20
-202.018
 11
-38.0178
 21
-201.676
  0
LINE
  8
0
 10
-38.0178
 20
-201.676
 11
-38.2497
 21
-201.251
  0
LINE
  8
0
 10
-38.2497
 20
-201.251
 11
-38.3525
 21
-200.778
  0
LINE
  8
0
 10
-38.3525
 20
-200.778
 11
-38.318
 21
-200.295
  0
LINE
  8
0
 10
-38.318
 20
-200.295
 11
-38.1489
 21
-199.842
  0
LINE
  8
0
 10
-38.1489
 20
-199.842
 11
-37.8589
 21
-199.455
  0
LINE
  8
0
 10
-37.8589
 20
-199.455
 11
-37.4716
 21
-199.165
  0
LINE
  8
0
 10
-37.4716
 20
-199.165
 11
-37.0182
 21
-198.996
  0
LINE
  8
0
 10
-37.0182
 20
-198.996
 11
-36.5356
 21
-198.961
  0
LINE
  8
0
 10
-36.5356
 20
-198.961
 11
-36.0628
 21
-199.064
  0
LINE
  8
0
 10
-36.0628
 20
-199.064
 11
-35.6381
 21
-199.296
  0
LINE
  8
0
 10
-35.6381
 20
-199.296
 11
-35.2959
 21
-199.638
  0
LINE
  8
0
 10
-35.2959
 20
-199.638
 11
-35.064
 21
-200.063
  0
LINE
  8
0
 10
-35.064
 20
-200.063
 11
-34.9612
 21
-200.536
  0
LINE
  8
0
 10
-34.9612
 20
-200.536
 11
-34.9957
 21
-201.018
  0
LINE
  8
0
 10
-34.9957
 20
-201.018
 11
-35.1648
 21
-201.472
  0
LINE
  8
0
 10
-35.1648
 20
-201.472
 11
-35.4548
 21
-201.859
  0
LINE
  8
0
 10
-35.4548
 20
-201.859
 11
-35.8421
 21
-202.149
  0
LINE
  8
0
 10
-35.8421
 20
-202.149
 11
-36.2955
 21
-202.318
  0
LINE
  8
0
 10
-36.2955
 20
-202.318
 11
-36.7781
 21
-202.353
  0
LINE
  8
0
 10
-36.7781
 20
-202.353
 11
-37.2509
 21
-202.25
  0
LINE
  8
0
 10
-98.6887
 20
-231.087
 11
-99.1875
 21
-231.065
  0
LINE
  8
0
 10
-99.1875
 20
-231.065
 11
-99.6849
 21
-231.022
  0
LINE
  8
0
 10
-99.6849
 20
-231.022
 11
-100.18
 21
-230.958
  0
LINE
  8
0
 10
-100.18
 20
-230.958
 11
-100.672
 21
-230.874
  0
LINE
  8
0
 10
-100.672
 20
-230.874
 11
-101.161
 21
-230.769
  0
LINE
  8
0
 10
-101.161
 20
-230.769
 11
-101.644
 21
-230.645
  0
LINE
  8
0
 10
-101.644
 20
-230.645
 11
-102.122
 21
-230.5
  0
LINE
  8
0
 10
-102.122
 20
-230.5
 11
-102.593
 21
-230.335
  0
LINE
  8
0
 10
-102.593
 20
-230.335
 11
-103.057
 21
-230.151
  0
LINE
  8
0
 10
-103.057
 20
-230.151
 11
-103.513
 21
-229.948
  0
LINE
  8
0
 10
-103.513
 20
-229.948
 11
-103.961
 21
-229.726
  0
LINE
  8
0
 10
-103.961
 20
-229.726
 11
-104.398
 21
-229.486
  0
LINE
  8
0
 10
-104.398
 20
-229.486
 11
-104.826
 21
-229.228
  0
LINE
  8
0
 10
-104.826
 20
-229.228
 11
-105.242
 21
-228.952
  0
LINE
  8
0
 10
-105.242
 20
-228.952
 11
-105.646
 21
-228.659
  0
LINE
  8
0
 10
-105.646
 20
-228.659
 11
-106.038
 21
-228.349
  0
LINE
  8
0
 10
-106.038
 20
-228.349
 11
-106.416
 21
-228.024
  0
LINE
  8
0
 10
-106.416
 20
-228.024
 11
-106.781
 21
-227.683
  0
LINE
  8
0
 10
-106.781
 20
-227.683
 11
-107.131
 21
-227.327
  0
LINE
  8
0
 10
-107.131
 20
-227.327
 11
-107.466
 21
-226.957
  0
LINE
  8
0
 10
-107.466
 20
-226.957
 11
-107.786
 21
-226.573
  0
LINE
  8
0
 10
-107.786
 20
-226.573
 11
-108.089
 21
-226.176
  0
LINE
  8
0
 10
-108.089
 20
-226.176
 11
-108.375
 21
-225.767
  0
LINE
  8
0
 10
-108.375
 20
-225.767
 11
-108.644
 21
-225.347
  0
LINE
  8
0
 10
-108.644
 20
-225.347
 11
-108.896
 21
-224.915
  0
LINE
  8
0
 10
-108.896
 20
-224.915
 11
-109.129
 21
-224.474
  0
LINE
  8
0
 10
-109.129
 20
-224.474
 11
-109.344
 21
-224.023
  0
LINE
  8
0
 10
-109.344
 20
-224.023
 11
-109.539
 21
-223.564
  0
LINE
  8
0
 10
-109.539
 20
-223.564
 11
-109.716
 21
-223.097
  0
LINE
  8
0
 10
-109.716
 20
-223.097
 11
-109.873
 21
-222.623
  0
LINE
  8
0
 10
-109.873
 20
-222.623
 11
-110.01
 21
-222.142
  0
LINE
  8
0
 10
-110.01
 20
-222.142
 11
-110.127
 21
-221.657
  0
LINE
  8
0
 10
-110.127
 20
-221.657
 11
-110.223
 21
-221.167
  0
LINE
  8
0
 10
-110.223
 20
-221.167
 11
-110.299
 21
-220.674
  0
LINE
  8
0
 10
-110.299
 20
-220.674
 11
-110.355
 21
-220.178
  0
LINE
  8
0
 10
-110.355
 20
-220.178
 11
-110.39
 21
-219.679
  0
LINE
  8
0
 10
-110.39
 20
-219.679
 11
-110.404
 21
-219.18
  0
LINE
  8
0
 10
-110.404
 20
-219.18
 11
-110.397
 21
-218.681
  0
LINE
  8
0
 10
-110.397
 20
-218.681
 11
-110.37
 21
-218.183
  0
LINE
  8
0
 10
-110.37
 20
-218.183
 11
-110.322
 21
-217.686
  0
LINE
  8
0
 10
-110.322
 20
-217.686
 11
-110.253
 21
-217.191
  0
LINE
  8
0
 10
-110.253
 20
-217.191
 11
-110.164
 21
-216.7
  0
LINE
  8
0
 10
-110.164
 20
-216.7
 11
-110.054
 21
-216.213
  0
LINE
  8
0
 10
-110.054
 20
-216.213
 11
-109.924
 21
-215.731
  0
LINE
  8
0
 10
-109.924
 20
-215.731
 11
-109.775
 21
-215.254
  0
LINE
  8
0
 10
-109.775
 20
-215.254
 11
-109.605
 21
-214.785
  0
LINE
  8
0
 10
-109.605
 20
-214.785
 11
-109.417
 21
-214.322
  0
LINE
  8
0
 10
-109.417
 20
-214.322
 11
-109.209
 21
-213.868
  0
LINE
  8
0
 10
-109.209
 20
-213.868
 11
-108.982
 21
-213.424
  0
LINE
  8
0
 10
-108.982
 20
-213.424
 11
-108.737
 21
-212.988
  0
LINE
  8
0
 10
-108.737
 20
-212.988
 11
-108.474
 21
-212.564
  0
LINE
  8
0
 10
-108.474
 20
-212.564
 11
-108.194
 21
-212.151
  0
LINE
  8
0
 10
-108.194
 20
-212.151
 11
-107.897
 21
-211.749
  0
LINE
  8
0
 10
-107.897
 20
-211.749
 11
-107.584
 21
-211.361
  0
LINE
  8
0
 10
-107.584
 20
-211.361
 11
-107.254
 21
-210.986
  0
LINE
  8
0
 10
-107.254
 20
-210.986
 11
-106.909
 21
-210.625
  0
LINE
  8
0
 10
-106.909
 20
-210.625
 11
-106.55
 21
-210.278
  0
LINE
  8
0
 10
-106.55
 20
-210.278
 11
-106.176
 21
-209.947
  0
LINE
  8
0
 10
-106.176
 20
-209.947
 11
-105.789
 21
-209.632
  0
LINE
  8
0
 10
-105.789
 20
-209.632
 11
-105.389
 21
-209.333
  0
LINE
  8
0
 10
-105.389
 20
-209.333
 11
-104.977
 21
-209.05
  0
LINE
  8
0
 10
-104.977
 20
-209.05
 11
-104.554
 21
-208.786
  0
LINE
  8
0
 10
-104.554
 20
-208.786
 11
-104.12
 21
-208.539
  0
LINE
  8
0
 10
-104.12
 20
-208.539
 11
-103.676
 21
-208.31
  0
LINE
  8
0
 10
-103.676
 20
-208.31
 11
-103.223
 21
-208.1
  0
LINE
  8
0
 10
-103.223
 20
-208.1
 11
-102.762
 21
-207.909
  0
LINE
  8
0
 10
-102.762
 20
-207.909
 11
-102.293
 21
-207.738
  0
LINE
  8
0
 10
-102.293
 20
-207.738
 11
-101.817
 21
-207.586
  0
LINE
  8
0
 10
-101.817
 20
-207.586
 11
-101.336
 21
-207.454
  0
LINE
  8
0
 10
-101.336
 20
-207.454
 11
-100.849
 21
-207.342
  0
LINE
  8
0
 10
-100.849
 20
-207.342
 11
-100.358
 21
-207.25
  0
LINE
  8
0
 10
-100.358
 20
-207.25
 11
-99.8641
 21
-207.179
  0
LINE
  8
0
 10
-99.8641
 20
-207.179
 11
-99.3673
 21
-207.129
  0
LINE
  8
0
 10
-99.3673
 20
-207.129
 11
-98.8689
 21
-207.099
  0
LINE
  8
0
 10
-98.8689
 20
-207.099
 11
-98.3697
 21
-207.09
  0
LINE
  8
0
 10
-98.3697
 20
-207.09
 11
-97.8706
 21
-207.102
  0
LINE
  8
0
 10
-97.8706
 20
-207.102
 11
-97.3723
 21
-207.135
  0
LINE
  8
0
 10
-97.3723
 20
-207.135
 11
-96.8759
 21
-207.188
  0
LINE
  8
0
 10
-96.8759
 20
-207.188
 11
-96.3821
 21
-207.262
  0
LINE
  8
0
 10
-96.3821
 20
-207.262
 11
-95.8918
 21
-207.356
  0
LINE
  8
0
 10
-95.8918
 20
-207.356
 11
-95.4059
 21
-207.471
  0
LINE
  8
0
 10
-95.4059
 20
-207.471
 11
-94.9251
 21
-207.606
  0
LINE
  8
0
 10
-94.9251
 20
-207.606
 11
-94.4504
 21
-207.76
  0
LINE
  8
0
 10
-94.4504
 20
-207.76
 11
-93.9825
 21
-207.935
  0
LINE
  8
0
 10
-93.9825
 20
-207.935
 11
-93.5223
 21
-208.128
  0
LINE
  8
0
 10
-93.5223
 20
-208.128
 11
-93.0705
 21
-208.341
  0
LINE
  8
0
 10
-93.0705
 20
-208.341
 11
-92.628
 21
-208.572
  0
LINE
  8
0
 10
-92.628
 20
-208.572
 11
-92.1954
 21
-208.821
  0
LINE
  8
0
 10
-92.1954
 20
-208.821
 11
-91.7736
 21
-209.089
  0
LINE
  8
0
 10
-91.7736
 20
-209.089
 11
-91.3633
 21
-209.373
  0
LINE
  8
0
 10
-91.3633
 20
-209.373
 11
-90.9652
 21
-209.674
  0
LINE
  8
0
 10
-90.9652
 20
-209.674
 11
-90.5799
 21
-209.992
  0
LINE
  8
0
 10
-90.5799
 20
-209.992
 11
-90.2082
 21
-210.325
  0
LINE
  8
0
 10
-90.2082
 20
-210.325
 11
-89.8507
 21
-210.674
  0
LINE
  8
0
 10
-89.8507
 20
-210.674
 11
-89.508
 21
-211.037
  0
LINE
  8
0
 10
-89.508
 20
-211.037
 11
-89.1807
 21
-211.414
  0
LINE
  8
0
 10
-89.1807
 20
-211.414
 11
-88.8694
 21
-211.804
  0
LINE
  8
0
 10
-88.8694
 20
-211.804
 11
-88.5746
 21
-212.207
  0
LINE
  8
0
 10
-88.5746
 20
-212.207
 11
-88.2968
 21
-212.622
  0
LINE
  8
0
 10
-88.2968
 20
-212.622
 11
-88.0364
 21
-213.048
  0
LINE
  8
0
 10
-88.0364
 20
-213.048
 11
-87.7941
 21
-213.485
  0
LINE
  8
0
 10
-87.7941
 20
-213.485
 11
-87.5701
 21
-213.931
  0
LINE
  8
0
 10
-87.5701
 20
-213.931
 11
-87.3648
 21
-214.386
  0
LINE
  8
0
 10
-87.3648
 20
-214.386
 11
-87.1787
 21
-214.849
  0
LINE
  8
0
 10
-87.1787
 20
-214.849
 11
-87.012
 21
-215.32
  0
LINE
  8
0
 10
-87.012
 20
-215.32
 11
-86.8651
 21
-215.797
  0
LINE
  8
0
 10
-86.8651
 20
-215.797
 11
-86.7381
 21
-216.28
  0
LINE
  8
0
 10
-86.7381
 20
-216.28
 11
-86.6313
 21
-216.768
  0
LINE
  8
0
 10
-86.6313
 20
-216.768
 11
-86.5448
 21
-217.26
  0
LINE
  8
0
 10
-86.5448
 20
-217.26
 11
-86.479
 21
-217.755
  0
LINE
  8
0
 10
-86.479
 20
-217.755
 11
-86.4337
 21
-218.252
  0
LINE
  8
0
 10
-86.4337
 20
-218.252
 11
-86.4092
 21
-218.75
  0
LINE
  8
0
 10
-86.4092
 20
-218.75
 11
-86.4054
 21
-219.25
  0
LINE
  8
0
 10
-86.4054
 20
-219.25
 11
-86.4225
 21
-219.749
  0
LINE
  8
0
 10
-86.4225
 20
-219.749
 11
-86.4602
 21
-220.247
  0
LINE
  8
0
 10
-86.4602
 20
-220.247
 11
-86.5187
 21
-220.742
  0
LINE
  8
0
 10
-86.5187
 20
-220.742
 11
-86.5977
 21
-221.235
  0
LINE
  8
0
 10
-86.5977
 20
-221.235
 11
-86.6971
 21
-221.725
  0
LINE
  8
0
 10
-86.6971
 20
-221.725
 11
-86.8169
 21
-222.209
  0
LINE
  8
0
 10
-86.8169
 20
-222.209
 11
-86.9566
 21
-222.689
  0
LINE
  8
0
 10
-86.9566
 20
-222.689
 11
-87.1163
 21
-223.162
  0
LINE
  8
0
 10
-87.1163
 20
-223.162
 11
-87.2954
 21
-223.628
  0
LINE
  8
0
 10
-87.2954
 20
-223.628
 11
-87.4938
 21
-224.086
  0
LINE
  8
0
 10
-87.4938
 20
-224.086
 11
-87.711
 21
-224.536
  0
LINE
  8
0
 10
-87.711
 20
-224.536
 11
-87.9468
 21
-224.976
  0
LINE
  8
0
 10
-87.9468
 20
-224.976
 11
-88.2007
 21
-225.406
  0
LINE
  8
0
 10
-88.2007
 20
-225.406
 11
-88.4722
 21
-225.825
  0
LINE
  8
0
 10
-88.4722
 20
-225.825
 11
-88.761
 21
-226.232
  0
LINE
  8
0
 10
-88.761
 20
-226.232
 11
-89.0664
 21
-226.627
  0
LINE
  8
0
 10
-89.0664
 20
-226.627
 11
-89.388
 21
-227.009
  0
LINE
  8
0
 10
-89.388
 20
-227.009
 11
-89.7252
 21
-227.377
  0
LINE
  8
0
 10
-89.7252
 20
-227.377
 11
-90.0775
 21
-227.731
  0
LINE
  8
0
 10
-90.0775
 20
-227.731
 11
-90.4441
 21
-228.07
  0
LINE
  8
0
 10
-90.4441
 20
-228.07
 11
-90.8245
 21
-228.393
  0
LINE
  8
0
 10
-90.8245
 20
-228.393
 11
-91.2181
 21
-228.7
  0
LINE
  8
0
 10
-91.2181
 20
-228.7
 11
-91.6241
 21
-228.991
  0
LINE
  8
0
 10
-91.6241
 20
-228.991
 11
-92.0418
 21
-229.265
  0
LINE
  8
0
 10
-92.0418
 20
-229.265
 11
-92.4706
 21
-229.52
  0
LINE
  8
0
 10
-92.4706
 20
-229.52
 11
-92.9096
 21
-229.758
  0
LINE
  8
0
 10
-92.9096
 20
-229.758
 11
-93.3581
 21
-229.978
  0
LINE
  8
0
 10
-93.3581
 20
-229.978
 11
-93.8154
 21
-230.178
  0
LINE
  8
0
 10
-93.8154
 20
-230.178
 11
-94.2806
 21
-230.359
  0
LINE
  8
0
 10
-94.2806
 20
-230.359
 11
-94.7529
 21
-230.521
  0
LINE
  8
0
 10
-94.7529
 20
-230.521
 11
-95.2316
 21
-230.663
  0
LINE
  8
0
 10
-95.2316
 20
-230.663
 11
-95.7158
 21
-230.785
  0
LINE
  8
0
 10
-95.7158
 20
-230.785
 11
-96.2046
 21
-230.887
  0
LINE
  8
0
 10
-96.2046
 20
-230.887
 11
-96.6972
 21
-230.968
  0
LINE
  8
0
 10
-96.6972
 20
-230.968
 11
-97.1928
 21
-231.029
  0
LINE
  8
0
 10
-97.1928
 20
-231.029
 11
-97.6905
 21
-231.069
  0
LINE
  8
0
 10
-97.6905
 20
-231.069
 11
-98.1894
 21
-231.088
  0
LINE
  8
0
 10
-98.1894
 20
-231.088
 11
-98.6887
 21
-231.087
  0
LINE
  8
0
 10
-121.514
 20
-216.834
 11
-121.994
 21
-216.732
  0
LINE
  8
0
 10
-121.994
 20
-216.732
 11
-122.428
 21
-216.505
  0
LINE
  8
0
 10
-122.428
 20
-216.505
 11
-122.785
 21
-216.169
  0
LINE
  8
0
 10
-122.785
 20
-216.169
 11
-123.038
 21
-215.749
  0
LINE
  8
0
 10
-123.038
 20
-215.749
 11
-123.169
 21
-215.277
  0
LINE
  8
0
 10
-123.169
 20
-215.277
 11
-123.167
 21
-214.786
  0
LINE
  8
0
 10
-123.167
 20
-214.786
 11
-123.033
 21
-214.315
  0
LINE
  8
0
 10
-123.033
 20
-214.315
 11
-122.776
 21
-213.897
  0
LINE
  8
0
 10
-122.776
 20
-213.897
 11
-122.417
 21
-213.564
  0
LINE
  8
0
 10
-122.417
 20
-213.564
 11
-121.981
 21
-213.34
  0
LINE
  8
0
 10
-121.981
 20
-213.34
 11
-121.5
 21
-213.242
  0
LINE
  8
0
 10
-121.5
 20
-213.242
 11
-121.011
 21
-213.277
  0
LINE
  8
0
 10
-121.011
 20
-213.277
 11
-118.226
 21
-213.768
  0
LINE
  8
0
 10
-118.226
 20
-213.768
 11
-117.765
 21
-213.934
  0
LINE
  8
0
 10
-117.765
 20
-213.934
 11
-117.365
 21
-214.219
  0
LINE
  8
0
 10
-117.365
 20
-214.219
 11
-117.057
 21
-214.6
  0
LINE
  8
0
 10
-117.057
 20
-214.6
 11
-116.864
 21
-215.05
  0
LINE
  8
0
 10
-116.864
 20
-215.05
 11
-116.799
 21
-215.536
  0
LINE
  8
0
 10
-116.799
 20
-215.536
 11
-116.868
 21
-216.022
  0
LINE
  8
0
 10
-116.868
 20
-216.022
 11
-117.065
 21
-216.47
  0
LINE
  8
0
 10
-117.065
 20
-216.47
 11
-117.375
 21
-216.85
  0
LINE
  8
0
 10
-117.375
 20
-216.85
 11
-117.777
 21
-217.131
  0
LINE
  8
0
 10
-117.777
 20
-217.131
 11
-118.239
 21
-217.293
  0
LINE
  8
0
 10
-118.239
 20
-217.293
 11
-118.729
 21
-217.325
  0
LINE
  8
0
 10
-118.729
 20
-217.325
 11
-121.514
 21
-216.834
  0
LINE
  8
0
 10
-68.3039
 20
-219.762
 11
-68.7754
 21
-219.628
  0
LINE
  8
0
 10
-68.7754
 20
-219.628
 11
-69.1932
 21
-219.372
  0
LINE
  8
0
 10
-69.1932
 20
-219.372
 11
-69.5265
 21
-219.012
  0
LINE
  8
0
 10
-69.5265
 20
-219.012
 11
-69.7503
 21
-218.576
  0
LINE
  8
0
 10
-69.7503
 20
-218.576
 11
-69.8483
 21
-218.096
  0
LINE
  8
0
 10
-69.8483
 20
-218.096
 11
-69.8129
 21
-217.607
  0
LINE
  8
0
 10
-69.8129
 20
-217.607
 11
-69.3218
 21
-214.822
  0
LINE
  8
0
 10
-69.3218
 20
-214.822
 11
-69.1559
 21
-214.36
  0
LINE
  8
0
 10
-69.1559
 20
-214.36
 11
-68.8717
 21
-213.961
  0
LINE
  8
0
 10
-68.8717
 20
-213.961
 11
-68.4902
 21
-213.653
  0
LINE
  8
0
 10
-68.4902
 20
-213.653
 11
-68.0399
 21
-213.459
  0
LINE
  8
0
 10
-68.0399
 20
-213.459
 11
-67.554
 21
-213.395
  0
LINE
  8
0
 10
-67.554
 20
-213.395
 11
-67.0686
 21
-213.463
  0
LINE
  8
0
 10
-67.0686
 20
-213.463
 11
-66.6198
 21
-213.66
  0
LINE
  8
0
 10
-66.6198
 20
-213.66
 11
-66.2407
 21
-213.971
  0
LINE
  8
0
 10
-66.2407
 20
-213.971
 11
-65.9595
 21
-214.373
  0
LINE
  8
0
 10
-65.9595
 20
-214.373
 11
-65.7971
 21
-214.835
  0
LINE
  8
0
 10
-65.7971
 20
-214.835
 11
-65.7655
 21
-215.324
  0
LINE
  8
0
 10
-65.7655
 20
-215.324
 11
-66.2567
 21
-218.11
  0
LINE
  8
0
 10
-66.2567
 20
-218.11
 11
-66.3582
 21
-218.589
  0
LINE
  8
0
 10
-66.3582
 20
-218.589
 11
-66.5854
 21
-219.024
  0
LINE
  8
0
 10
-66.5854
 20
-219.024
 11
-66.9213
 21
-219.381
  0
LINE
  8
0
 10
-66.9213
 20
-219.381
 11
-67.3411
 21
-219.634
  0
LINE
  8
0
 10
-67.3411
 20
-219.634
 11
-67.8137
 21
-219.764
  0
LINE
  8
0
 10
-67.8137
 20
-219.764
 11
-68.3039
 21
-219.762
  0
LINE
  8
0
 10
-27.6751
 20
-218.347
 11
-28.1284
 21
-218.178
  0
LINE
  8
0
 10
-28.1284
 20
-218.178
 11
-28.5158
 21
-217.888
  0
LINE
  8
0
 10
-28.5158
 20
-217.888
 11
-28.8058
 21
-217.501
  0
LINE
  8
0
 10
-28.8058
 20
-217.501
 11
-28.9749
 21
-217.048
  0
LINE
  8
0
 10
-28.9749
 20
-217.048
 11
-29.0094
 21
-216.565
  0
LINE
  8
0
 10
-29.0094
 20
-216.565
 11
-28.9065
 21
-216.092
  0
LINE
  8
0
 10
-28.9065
 20
-216.092
 11
-28.6746
 21
-215.668
  0
LINE
  8
0
 10
-28.6746
 20
-215.668
 11
-28.3325
 21
-215.325
  0
LINE
  8
0
 10
-28.3325
 20
-215.325
 11
-27.9078
 21
-215.093
  0
LINE
  8
0
 10
-27.9078
 20
-215.093
 11
-27.435
 21
-214.991
  0
LINE
  8
0
 10
-27.435
 20
-214.991
 11
-26.9523
 21
-215.025
  0
LINE
  8
0
 10
-26.9523
 20
-215.025
 11
-26.499
 21
-215.194
  0
LINE
  8
0
 10
-26.499
 20
-215.194
 11
-26.1116
 21
-215.484
  0
LINE
  8
0
 10
-26.1116
 20
-215.484
 11
-25.8216
 21
-215.872
  0
LINE
  8
0
 10
-25.8216
 20
-215.872
 11
-25.6526
 21
-216.325
  0
LINE
  8
0
 10
-25.6526
 20
-216.325
 11
-25.618
 21
-216.808
  0
LINE
  8
0
 10
-25.618
 20
-216.808
 11
-25.7209
 21
-217.28
  0
LINE
  8
0
 10
-25.7209
 20
-217.28
 11
-25.9528
 21
-217.705
  0
LINE
  8
0
 10
-25.9528
 20
-217.705
 11
-26.2949
 21
-218.047
  0
LINE
  8
0
 10
-26.2949
 20
-218.047
 11
-26.7196
 21
-218.279
  0
LINE
  8
0
 10
-26.7196
 20
-218.279
 11
-27.1924
 21
-218.382
  0
LINE
  8
0
 10
-27.1924
 20
-218.382
 11
-27.6751
 21
-218.347
  0
LINE
  8
0
 10
-5.28038
 20
-218.279
 11
-5.70506
 21
-218.047
  0
LINE
  8
0
 10
-5.70506
 20
-218.047
 11
-6.04721
 21
-217.705
  0
LINE
  8
0
 10
-6.04721
 20
-217.705
 11
-6.2791
 21
-217.28
  0
LINE
  8
0
 10
-6.2791
 20
-217.28
 11
-6.38196
 21
-216.808
  0
LINE
  8
0
 10
-6.38196
 20
-216.808
 11
-6.34743
 21
-216.325
  0
LINE
  8
0
 10
-6.34743
 20
-216.325
 11
-6.17834
 21
-215.872
  0
LINE
  8
0
 10
-6.17834
 20
-215.872
 11
-5.88837
 21
-215.484
  0
LINE
  8
0
 10
-5.88837
 20
-215.484
 11
-5.50101
 21
-215.194
  0
LINE
  8
0
 10
-5.50101
 20
-215.194
 11
-5.04765
 21
-215.025
  0
LINE
  8
0
 10
-5.04765
 20
-215.025
 11
-4.565
 21
-214.991
  0
LINE
  8
0
 10
-4.565
 20
-214.991
 11
-4.09219
 21
-215.093
  0
LINE
  8
0
 10
-4.09219
 20
-215.093
 11
-3.66751
 21
-215.325
  0
LINE
  8
0
 10
-3.66751
 20
-215.325
 11
-3.32536
 21
-215.668
  0
LINE
  8
0
 10
-3.32536
 20
-215.668
 11
-3.09348
 21
-216.092
  0
LINE
  8
0
 10
-3.09348
 20
-216.092
 11
-2.99062
 21
-216.565
  0
LINE
  8
0
 10
-2.99062
 20
-216.565
 11
-3.02513
 21
-217.048
  0
LINE
  8
0
 10
-3.02513
 20
-217.048
 11
-3.19423
 21
-217.501
  0
LINE
  8
0
 10
-3.19423
 20
-217.501
 11
-3.48421
 21
-217.888
  0
LINE
  8
0
 10
-3.48421
 20
-217.888
 11
-3.87157
 21
-218.178
  0
LINE
  8
0
 10
-3.87157
 20
-218.178
 11
-4.32492
 21
-218.347
  0
LINE
  8
0
 10
-4.32492
 20
-218.347
 11
-4.80756
 21
-218.382
  0
LINE
  8
0
 10
-4.80756
 20
-218.382
 11
-5.28038
 21
-218.279
  0
LINE
  8
0
 10
-16.6212
 20
-238.982
 11
-17.1168
 21
-238.943
  0
LINE
  8
0
 10
-17.1168
 20
-238.943
 11
-17.6102
 21
-238.882
  0
LINE
  8
0
 10
-17.6102
 20
-238.882
 11
-18.1003
 21
-238.798
  0
LINE
  8
0
 10
-18.1003
 20
-238.798
 11
-18.586
 21
-238.692
  0
LINE
  8
0
 10
-18.586
 20
-238.692
 11
-19.0665
 21
-238.564
  0
LINE
  8
0
 10
-19.0665
 20
-238.564
 11
-19.5407
 21
-238.415
  0
LINE
  8
0
 10
-19.5407
 20
-238.415
 11
-20.0077
 21
-238.244
  0
LINE
  8
0
 10
-20.0077
 20
-238.244
 11
-20.4665
 21
-238.052
  0
LINE
  8
0
 10
-20.4665
 20
-238.052
 11
-20.9162
 21
-237.84
  0
LINE
  8
0
 10
-20.9162
 20
-237.84
 11
-21.3558
 21
-237.608
  0
LINE
  8
0
 10
-21.3558
 20
-237.608
 11
-21.7845
 21
-237.356
  0
LINE
  8
0
 10
-21.7845
 20
-237.356
 11
-22.2014
 21
-237.085
  0
LINE
  8
0
 10
-22.2014
 20
-237.085
 11
-22.6056
 21
-236.796
  0
LINE
  8
0
 10
-22.6056
 20
-236.796
 11
-22.9963
 21
-236.488
  0
LINE
  8
0
 10
-22.9963
 20
-236.488
 11
-23.3727
 21
-236.163
  0
LINE
  8
0
 10
-23.3727
 20
-236.163
 11
-23.7341
 21
-235.822
  0
LINE
  8
0
 10
-23.7341
 20
-235.822
 11
-24.0797
 21
-235.465
  0
LINE
  8
0
 10
-24.0797
 20
-235.465
 11
-24.4087
 21
-235.092
  0
LINE
  8
0
 10
-24.4087
 20
-235.092
 11
-24.7206
 21
-234.705
  0
LINE
  8
0
 10
-24.7206
 20
-234.705
 11
-25.0146
 21
-234.304
  0
LINE
  8
0
 10
-25.0146
 20
-234.304
 11
-25.2903
 21
-233.89
  0
LINE
  8
0
 10
-25.2903
 20
-233.89
 11
-25.5469
 21
-233.464
  0
LINE
  8
0
 10
-25.5469
 20
-233.464
 11
-25.7841
 21
-233.027
  0
LINE
  8
0
 10
-25.7841
 20
-233.027
 11
-26.0013
 21
-232.58
  0
LINE
  8
0
 10
-26.0013
 20
-232.58
 11
-26.198
 21
-232.123
  0
LINE
  8
0
 10
-26.198
 20
-232.123
 11
-26.3739
 21
-231.658
  0
LINE
  8
0
 10
-26.3739
 20
-231.658
 11
-26.5286
 21
-231.186
  0
LINE
  8
0
 10
-26.5286
 20
-231.186
 11
-26.6618
 21
-230.707
  0
LINE
  8
0
 10
-26.6618
 20
-230.707
 11
-26.7732
 21
-230.222
  0
LINE
  8
0
 10
-26.7732
 20
-230.222
 11
-26.8626
 21
-229.733
  0
LINE
  8
0
 10
-26.8626
 20
-229.733
 11
-26.9298
 21
-229.24
  0
LINE
  8
0
 10
-26.9298
 20
-229.24
 11
-26.9747
 21
-228.745
  0
LINE
  8
0
 10
-26.9747
 20
-228.745
 11
-26.9972
 21
-228.249
  0
LINE
  8
0
 10
-26.9972
 20
-228.249
 11
-26.9972
 21
-227.751
  0
LINE
  8
0
 10
-26.9972
 20
-227.751
 11
-26.9747
 21
-227.255
  0
LINE
  8
0
 10
-26.9747
 20
-227.255
 11
-26.9298
 21
-226.76
  0
LINE
  8
0
 10
-26.9298
 20
-226.76
 11
-26.8626
 21
-226.267
  0
LINE
  8
0
 10
-26.8626
 20
-226.267
 11
-26.7732
 21
-225.778
  0
LINE
  8
0
 10
-26.7732
 20
-225.778
 11
-26.6618
 21
-225.293
  0
LINE
  8
0
 10
-26.6618
 20
-225.293
 11
-26.5286
 21
-224.814
  0
LINE
  8
0
 10
-26.5286
 20
-224.814
 11
-26.3739
 21
-224.342
  0
LINE
  8
0
 10
-26.3739
 20
-224.342
 11
-26.198
 21
-223.877
  0
LINE
  8
0
 10
-26.198
 20
-223.877
 11
-26.0013
 21
-223.42
  0
LINE
  8
0
 10
-26.0013
 20
-223.42
 11
-25.7841
 21
-222.973
  0
LINE
  8
0
 10
-25.7841
 20
-222.973
 11
-25.5469
 21
-222.536
  0
LINE
  8
0
 10
-25.5469
 20
-222.536
 11
-25.2903
 21
-222.11
  0
LINE
  8
0
 10
-25.2903
 20
-222.11
 11
-25.0146
 21
-221.696
  0
LINE
  8
0
 10
-25.0146
 20
-221.696
 11
-24.7206
 21
-221.295
  0
LINE
  8
0
 10
-24.7206
 20
-221.295
 11
-24.4087
 21
-220.908
  0
LINE
  8
0
 10
-24.4087
 20
-220.908
 11
-24.0797
 21
-220.535
  0
LINE
  8
0
 10
-24.0797
 20
-220.535
 11
-23.7341
 21
-220.178
  0
LINE
  8
0
 10
-23.7341
 20
-220.178
 11
-23.3727
 21
-219.837
  0
LINE
  8
0
 10
-23.3727
 20
-219.837
 11
-22.9963
 21
-219.512
  0
LINE
  8
0
 10
-22.9963
 20
-219.512
 11
-22.6056
 21
-219.204
  0
LINE
  8
0
 10
-22.6056
 20
-219.204
 11
-22.2014
 21
-218.915
  0
LINE
  8
0
 10
-22.2014
 20
-218.915
 11
-21.7845
 21
-218.644
  0
LINE
  8
0
 10
-21.7845
 20
-218.644
 11
-21.3558
 21
-218.392
  0
LINE
  8
0
 10
-21.3558
 20
-218.392
 11
-20.9162
 21
-218.16
  0
LINE
  8
0
 10
-20.9162
 20
-218.16
 11
-20.4665
 21
-217.948
  0
LINE
  8
0
 10
-20.4665
 20
-217.948
 11
-20.0077
 21
-217.756
  0
LINE
  8
0
 10
-20.0077
 20
-217.756
 11
-19.5407
 21
-217.585
  0
LINE
  8
0
 10
-19.5407
 20
-217.585
 11
-19.0665
 21
-217.436
  0
LINE
  8
0
 10
-19.0665
 20
-217.436
 11
-18.586
 21
-217.308
  0
LINE
  8
0
 10
-18.586
 20
-217.308
 11
-18.1003
 21
-217.202
  0
LINE
  8
0
 10
-18.1003
 20
-217.202
 11
-17.6102
 21
-217.118
  0
LINE
  8
0
 10
-17.6102
 20
-217.118
 11
-17.1168
 21
-217.057
  0
LINE
  8
0
 10
-17.1168
 20
-217.057
 11
-16.6212
 21
-217.018
  0
LINE
  8
0
 10
-16.6212
 20
-217.018
 11
-16.1243
 21
-217.001
  0
LINE
  8
0
 10
-16.1243
 20
-217.001
 11
-15.6271
 21
-217.006
  0
LINE
  8
0
 10
-15.6271
 20
-217.006
 11
-15.1308
 21
-217.034
  0
LINE
  8
0
 10
-15.1308
 20
-217.034
 11
-14.6361
 21
-217.085
  0
LINE
  8
0
 10
-14.6361
 20
-217.085
 11
-14.1443
 21
-217.158
  0
LINE
  8
0
 10
-14.1443
 20
-217.158
 11
-13.6562
 21
-217.253
  0
LINE
  8
0
 10
-13.6562
 20
-217.253
 11
-13.173
 21
-217.369
  0
LINE
  8
0
 10
-13.173
 20
-217.369
 11
-12.6955
 21
-217.508
  0
LINE
  8
0
 10
-12.6955
 20
-217.508
 11
-12.2248
 21
-217.668
  0
LINE
  8
0
 10
-12.2248
 20
-217.668
 11
-11.7618
 21
-217.849
  0
LINE
  8
0
 10
-11.7618
 20
-217.849
 11
-11.3074
 21
-218.051
  0
LINE
  8
0
 10
-11.3074
 20
-218.051
 11
-10.8627
 21
-218.273
  0
LINE
  8
0
 10
-10.8627
 20
-218.273
 11
-10.4284
 21
-218.515
  0
LINE
  8
0
 10
-10.4284
 20
-218.515
 11
-10.0055
 21
-218.777
  0
LINE
  8
0
 10
-10.0055
 20
-218.777
 11
-9.59485
 21
-219.057
  0
LINE
  8
0
 10
-9.59485
 20
-219.057
 11
-9.19728
 21
-219.356
  0
LINE
  8
0
 10
-9.19728
 20
-219.356
 11
-8.81361
 21
-219.672
  0
LINE
  8
0
 10
-8.81361
 20
-219.672
 11
-8.44464
 21
-220.005
  0
LINE
  8
0
 10
-8.44464
 20
-220.005
 11
-8.09109
 21
-220.355
  0
LINE
  8
0
 10
-8.09109
 20
-220.355
 11
-7.75371
 21
-220.72
  0
LINE
  8
0
 10
-7.75371
 20
-220.72
 11
-7.43317
 21
-221.1
  0
LINE
  8
0
 10
-7.43317
 20
-221.1
 11
-7.13013
 21
-221.494
  0
LINE
  8
0
 10
-7.13013
 20
-221.494
 11
-6.8452
 21
-221.902
  0
LINE
  8
0
 10
-6.8452
 20
-221.902
 11
-6.57898
 21
-222.322
  0
LINE
  8
0
 10
-6.57898
 20
-222.322
 11
-6.33202
 21
-222.753
  0
LINE
  8
0
 10
-6.33202
 20
-222.753
 11
-6.1048
 21
-223.195
  0
LINE
  8
0
 10
-6.1048
 20
-223.195
 11
-5.8978
 21
-223.647
  0
LINE
  8
0
 10
-5.8978
 20
-223.647
 11
-5.71143
 21
-224.108
  0
LINE
  8
0
 10
-5.71143
 20
-224.108
 11
-5.54608
 21
-224.577
  0
LINE
  8
0
 10
-5.54608
 20
-224.577
 11
-5.40208
 21
-225.053
  0
LINE
  8
0
 10
-5.40208
 20
-225.053
 11
-5.27975
 21
-225.535
  0
LINE
  8
0
 10
-5.27975
 20
-225.535
 11
-5.17931
 21
-226.022
  0
LINE
  8
0
 10
-5.17931
 20
-226.022
 11
-5.10098
 21
-226.513
  0
LINE
  8
0
 10
-5.10098
 20
-226.513
 11
-5.04492
 21
-227.007
  0
LINE
  8
0
 10
-5.04492
 20
-227.007
 11
-5.01123
 21
-227.503
  0
LINE
  8
0
 10
-5.01123
 20
-227.503
 11
-5
 21
-228
  0
LINE
  8
0
 10
-5
 20
-228
 11
-5.01123
 21
-228.497
  0
LINE
  8
0
 10
-5.01123
 20
-228.497
 11
-5.04492
 21
-228.993
  0
LINE
  8
0
 10
-5.04492
 20
-228.993
 11
-5.10098
 21
-229.487
  0
LINE
  8
0
 10
-5.10098
 20
-229.487
 11
-5.17931
 21
-229.978
  0
LINE
  8
0
 10
-5.17931
 20
-229.978
 11
-5.27975
 21
-230.465
  0
LINE
  8
0
 10
-5.27975
 20
-230.465
 11
-5.40208
 21
-230.947
  0
LINE
  8
0
 10
-5.40208
 20
-230.947
 11
-5.54608
 21
-231.423
  0
LINE
  8
0
 10
-5.54608
 20
-231.423
 11
-5.71143
 21
-231.892
  0
LINE
  8
0
 10
-5.71143
 20
-231.892
 11
-5.8978
 21
-232.353
  0
LINE
  8
0
 10
-5.8978
 20
-232.353
 11
-6.1048
 21
-232.805
  0
LINE
  8
0
 10
-6.1048
 20
-232.805
 11
-6.33202
 21
-233.247
  0
LINE
  8
0
 10
-6.33202
 20
-233.247
 11
-6.57898
 21
-233.678
  0
LINE
  8
0
 10
-6.57898
 20
-233.678
 11
-6.8452
 21
-234.098
  0
LINE
  8
0
 10
-6.8452
 20
-234.098
 11
-7.13013
 21
-234.506
  0
LINE
  8
0
 10
-7.13013
 20
-234.506
 11
-7.43317
 21
-234.9
  0
LINE
  8
0
 10
-7.43317
 20
-234.9
 11
-7.75371
 21
-235.28
  0
LINE
  8
0
 10
-7.75371
 20
-235.28
 11
-8.09109
 21
-235.645
  0
LINE
  8
0
 10
-8.09109
 20
-235.645
 11
-8.44464
 21
-235.995
  0
LINE
  8
0
 10
-8.44464
 20
-235.995
 11
-8.81361
 21
-236.328
  0
LINE
  8
0
 10
-8.81361
 20
-236.328
 11
-9.19728
 21
-236.644
  0
LINE
  8
0
 10
-9.19728
 20
-236.644
 11
-9.59485
 21
-236.943
  0
LINE
  8
0
 10
-9.59485
 20
-236.943
 11
-10.0055
 21
-237.223
  0
LINE
  8
0
 10
-10.0055
 20
-237.223
 11
-10.4284
 21
-237.485
  0
LINE
  8
0
 10
-10.4284
 20
-237.485
 11
-10.8627
 21
-237.727
  0
LINE
  8
0
 10
-10.8627
 20
-237.727
 11
-11.3074
 21
-237.949
  0
LINE
  8
0
 10
-11.3074
 20
-237.949
 11
-11.7618
 21
-238.151
  0
LINE
  8
0
 10
-11.7618
 20
-238.151
 11
-12.2248
 21
-238.332
  0
LINE
  8
0
 10
-12.2248
 20
-238.332
 11
-12.6955
 21
-238.492
  0
LINE
  8
0
 10
-12.6955
 20
-238.492
 11
-13.173
 21
-238.631
  0
LINE
  8
0
 10
-13.173
 20
-238.631
 11
-13.6562
 21
-238.747
  0
LINE
  8
0
 10
-13.6562
 20
-238.747
 11
-14.1443
 21
-238.842
  0
LINE
  8
0
 10
-14.1443
 20
-238.842
 11
-14.6361
 21
-238.915
  0
LINE
  8
0
 10
-14.6361
 20
-238.915
 11
-15.1308
 21
-238.966
  0
LINE
  8
0
 10
-15.1308
 20
-238.966
 11
-15.6271
 21
-238.994
  0
LINE
  8
0
 10
-15.6271
 20
-238.994
 11
-16.1243
 21
-238.999
  0
LINE
  8
0
 10
-16.1243
 20
-238.999
 11
-16.6212
 21
-238.982
  0
LINE
  8
0
 10
-75.7973
 20
-224.903
 11
-78.5827
 21
-224.412
  0
LINE
  8
0
 10
-78.5827
 20
-224.412
 11
-79.044
 21
-224.246
  0
LINE
  8
0
 10
-79.044
 20
-224.246
 11
-79.4434
 21
-223.962
  0
LINE
  8
0
 10
-79.4434
 20
-223.962
 11
-79.7513
 21
-223.58
  0
LINE
  8
0
 10
-79.7513
 20
-223.58
 11
-79.9449
 21
-223.13
  0
LINE
  8
0
 10
-79.9449
 20
-223.13
 11
-80.0098
 21
-222.644
  0
LINE
  8
0
 10
-80.0098
 20
-222.644
 11
-79.9412
 21
-222.159
  0
LINE
  8
0
 10
-79.9412
 20
-222.159
 11
-79.7442
 21
-221.71
  0
LINE
  8
0
 10
-79.7442
 20
-221.71
 11
-79.4334
 21
-221.331
  0
LINE
  8
0
 10
-79.4334
 20
-221.331
 11
-79.0319
 21
-221.05
  0
LINE
  8
0
 10
-79.0319
 20
-221.05
 11
-78.5694
 21
-220.887
  0
LINE
  8
0
 10
-78.5694
 20
-220.887
 11
-78.0802
 21
-220.856
  0
LINE
  8
0
 10
-78.0802
 20
-220.856
 11
-75.2947
 21
-221.347
  0
LINE
  8
0
 10
-75.2947
 20
-221.347
 11
-74.8152
 21
-221.448
  0
LINE
  8
0
 10
-74.8152
 20
-221.448
 11
-74.3808
 21
-221.676
  0
LINE
  8
0
 10
-74.3808
 20
-221.676
 11
-74.0238
 21
-222.012
  0
LINE
  8
0
 10
-74.0238
 20
-222.012
 11
-73.7707
 21
-222.431
  0
LINE
  8
0
 10
-73.7707
 20
-222.431
 11
-73.6402
 21
-222.904
  0
LINE
  8
0
 10
-73.6402
 20
-222.904
 11
-73.6421
 21
-223.394
  0
LINE
  8
0
 10
-73.6421
 20
-223.394
 11
-73.7761
 21
-223.866
  0
LINE
  8
0
 10
-73.7761
 20
-223.866
 11
-74.0324
 21
-224.283
  0
LINE
  8
0
 10
-74.0324
 20
-224.283
 11
-74.3919
 21
-224.617
  0
LINE
  8
0
 10
-74.3919
 20
-224.617
 11
-74.828
 21
-224.841
  0
LINE
  8
0
 10
-74.828
 20
-224.841
 11
-75.3083
 21
-224.938
  0
LINE
  8
0
 10
-75.3083
 20
-224.938
 11
-75.7973
 21
-224.903
  0
LINE
  8
0
 10
-102.708
 20
-243.853
 11
-103.18
 21
-243.718
  0
LINE
  8
0
 10
-103.18
 20
-243.718
 11
-103.598
 21
-243.462
  0
LINE
  8
0
 10
-103.598
 20
-243.462
 11
-103.931
 21
-243.103
  0
LINE
  8
0
 10
-103.931
 20
-243.103
 11
-104.155
 21
-242.667
  0
LINE
  8
0
 10
-104.155
 20
-242.667
 11
-104.253
 21
-242.186
  0
LINE
  8
0
 10
-104.253
 20
-242.186
 11
-104.217
 21
-241.697
  0
LINE
  8
0
 10
-104.217
 20
-241.697
 11
-103.726
 21
-238.912
  0
LINE
  8
0
 10
-103.726
 20
-238.912
 11
-103.56
 21
-238.451
  0
LINE
  8
0
 10
-103.56
 20
-238.451
 11
-103.276
 21
-238.051
  0
LINE
  8
0
 10
-103.276
 20
-238.051
 11
-102.895
 21
-237.743
  0
LINE
  8
0
 10
-102.895
 20
-237.743
 11
-102.444
 21
-237.55
  0
LINE
  8
0
 10
-102.444
 20
-237.55
 11
-101.958
 21
-237.485
  0
LINE
  8
0
 10
-101.958
 20
-237.485
 11
-101.473
 21
-237.553
  0
LINE
  8
0
 10
-101.473
 20
-237.553
 11
-101.024
 21
-237.75
  0
LINE
  8
0
 10
-101.024
 20
-237.75
 11
-100.645
 21
-238.061
  0
LINE
  8
0
 10
-100.645
 20
-238.061
 11
-100.364
 21
-238.463
  0
LINE
  8
0
 10
-100.364
 20
-238.463
 11
-100.202
 21
-238.925
  0
LINE
  8
0
 10
-100.202
 20
-238.925
 11
-100.17
 21
-239.414
  0
LINE
  8
0
 10
-100.17
 20
-239.414
 11
-100.661
 21
-242.2
  0
LINE
  8
0
 10
-100.661
 20
-242.2
 11
-100.763
 21
-242.679
  0
LINE
  8
0
 10
-100.763
 20
-242.679
 11
-100.99
 21
-243.114
  0
LINE
  8
0
 10
-100.99
 20
-243.114
 11
-101.326
 21
-243.471
  0
LINE
  8
0
 10
-101.326
 20
-243.471
 11
-101.746
 21
-243.724
  0
LINE
  8
0
 10
-101.746
 20
-243.724
 11
-102.218
 21
-243.854
  0
LINE
  8
0
 10
-102.218
 20
-243.854
 11
-102.708
 21
-243.853
  0
LINE
  8
0
 10
-27.9078
 20
-240.907
 11
-28.3325
 21
-240.675
  0
LINE
  8
0
 10
-28.3325
 20
-240.675
 11
-28.6746
 21
-240.332
  0
LINE
  8
0
 10
-28.6746
 20
-240.332
 11
-28.9065
 21
-239.908
  0
LINE
  8
0
 10
-28.9065
 20
-239.908
 11
-29.0094
 21
-239.435
  0
LINE
  8
0
 10
-29.0094
 20
-239.435
 11
-28.9749
 21
-238.952
  0
LINE
  8
0
 10
-28.9749
 20
-238.952
 11
-28.8058
 21
-238.499
  0
LINE
  8
0
 10
-28.8058
 20
-238.499
 11
-28.5158
 21
-238.112
  0
LINE
  8
0
 10
-28.5158
 20
-238.112
 11
-28.1284
 21
-237.822
  0
LINE
  8
0
 10
-28.1284
 20
-237.822
 11
-27.6751
 21
-237.653
  0
LINE
  8
0
 10
-27.6751
 20
-237.653
 11
-27.1924
 21
-237.618
  0
LINE
  8
0
 10
-27.1924
 20
-237.618
 11
-26.7196
 21
-237.721
  0
LINE
  8
0
 10
-26.7196
 20
-237.721
 11
-26.2949
 21
-237.953
  0
LINE
  8
0
 10
-26.2949
 20
-237.953
 11
-25.9528
 21
-238.295
  0
LINE
  8
0
 10
-25.9528
 20
-238.295
 11
-25.7209
 21
-238.72
  0
LINE
  8
0
 10
-25.7209
 20
-238.72
 11
-25.618
 21
-239.192
  0
LINE
  8
0
 10
-25.618
 20
-239.192
 11
-25.6526
 21
-239.675
  0
LINE
  8
0
 10
-25.6526
 20
-239.675
 11
-25.8216
 21
-240.128
  0
LINE
  8
0
 10
-25.8216
 20
-240.128
 11
-26.1116
 21
-240.516
  0
LINE
  8
0
 10
-26.1116
 20
-240.516
 11
-26.499
 21
-240.806
  0
LINE
  8
0
 10
-26.499
 20
-240.806
 11
-26.9523
 21
-240.975
  0
LINE
  8
0
 10
-26.9523
 20
-240.975
 11
-27.435
 21
-241.009
  0
LINE
  8
0
 10
-27.435
 20
-241.009
 11
-27.9078
 21
-240.907
  0
LINE
  8
0
 10
-5.04765
 20
-240.975
 11
-5.50101
 21
-240.806
  0
LINE
  8
0
 10
-5.50101
 20
-240.806
 11
-5.88837
 21
-240.516
  0
LINE
  8
0
 10
-5.88837
 20
-240.516
 11
-6.17834
 21
-240.128
  0
LINE
  8
0
 10
-6.17834
 20
-240.128
 11
-6.34743
 21
-239.675
  0
LINE
  8
0
 10
-6.34743
 20
-239.675
 11
-6.38196
 21
-239.192
  0
LINE
  8
0
 10
-6.38196
 20
-239.192
 11
-6.2791
 21
-238.72
  0
LINE
  8
0
 10
-6.2791
 20
-238.72
 11
-6.04721
 21
-238.295
  0
LINE
  8
0
 10
-6.04721
 20
-238.295
 11
-5.70506
 21
-237.953
  0
LINE
  8
0
 10
-5.70506
 20
-237.953
 11
-5.28038
 21
-237.721
  0
LINE
  8
0
 10
-5.28038
 20
-237.721
 11
-4.80756
 21
-237.618
  0
LINE
  8
0
 10
-4.80756
 20
-237.618
 11
-4.32492
 21
-237.653
  0
LINE
  8
0
 10
-4.32492
 20
-237.653
 11
-3.87157
 21
-237.822
  0
LINE
  8
0
 10
-3.87157
 20
-237.822
 11
-3.48421
 21
-238.112
  0
LINE
  8
0
 10
-3.48421
 20
-238.112
 11
-3.19423
 21
-238.499
  0
LINE
  8
0
 10
-3.19423
 20
-238.499
 11
-3.02513
 21
-238.952
  0
LINE
  8
0
 10
-3.02513
 20
-238.952
 11
-2.99062
 21
-239.435
  0
LINE
  8
0
 10
-2.99062
 20
-239.435
 11
-3.09348
 21
-239.908
  0
LINE
  8
0
 10
-3.09348
 20
-239.908
 11
-3.32536
 21
-240.332
  0
LINE
  8
0
 10
-3.32536
 20
-240.332
 11
-3.66751
 21
-240.675
  0
LINE
  8
0
 10
-3.66751
 20
-240.675
 11
-4.09219
 21
-240.907
  0
LINE
  8
0
 10
-4.09219
 20
-240.907
 11
-4.565
 21
-241.009
  0
LINE
  8
0
 10
-4.565
 20
-241.009
 11
-5.04765
 21
-240.975
  0
ENDSEC
  0
SECTION
  2
OBJECTS
  0
DICTIONARY
  0
ENDSEC
  0
EOF
