  0
SECTION
  2
BLOCKS
  0
ENDSEC
  0
SECTION
  2
ENTITIES
  0
LINE
  8
0
 10
7.65366
 20
-7.65366
 11
10.8239
 21
0
  0
LINE
  8
0
 10
10.8239
 20
0
 11
7.65366
 21
7.65366
  0
LINE
  8
0
 10
7.65366
 20
7.65366
 11
0
 21
10.8239
  0
LINE
  8
0
 10
0
 20
10.8239
 11
-7.65366
 21
7.65366
  0
LINE
  8
0
 10
-7.65366
 20
7.65366
 11
-10.8239
 21
0
  0
LINE
  8
0
 10
-10.8239
 20
0
 11
-7.65366
 21
-7.65366
  0
LINE
  8
0
 10
-7.65366
 20
-7.65366
 11
0
 21
-10.8239
  0
LINE
  8
0
 10
0
 20
-10.8239
 11
7.65366
 21
-7.65366
  0
LINE
  8
0
 10
-0.303879
 20
-1.7234
 11
-0.598526
 21
-1.64445
  0
LINE
  8
0
 10
-0.598526
 20
-1.64445
 11
-0.875
 21
-1.51553
  0
LINE
  8
0
 10
-0.875
 20
-1.51553
 11
-1.12488
 21
-1.34058
  0
LINE
  8
0
 10
-1.12488
 20
-1.34058
 11
-1.34058
 21
-1.12488
  0
LINE
  8
0
 10
-1.34058
 20
-1.12488
 11
-1.51553
 21
-0.875
  0
LINE
  8
0
 10
-1.51553
 20
-0.875
 11
-1.64445
 21
-0.598526
  0
LINE
  8
0
 10
-1.64445
 20
-0.598526
 11
-1.7234
 21
-0.303879
  0
LINE
  8
0
 10
-1.7234
 20
-0.303879
 11
-1.75
 21
0
  0
LINE
  8
0
 10
-1.75
 20
0
 11
-1.7234
 21
0.303879
  0
LINE
  8
0
 10
-1.7234
 20
0.303879
 11
-1.64445
 21
0.598526
  0
LINE
  8
0
 10
-1.64445
 20
0.598526
 11
-1.51553
 21
0.875
  0
LINE
  8
0
 10
-1.51553
 20
0.875
 11
-1.34058
 21
1.12488
  0
LINE
  8
0
 10
-1.34058
 20
1.12488
 11
-1.12488
 21
1.34058
  0
LINE
  8
0
 10
-1.12488
 20
1.34058
 11
-0.874985
 21
1.51553
  0
LINE
  8
0
 10
-0.874985
 20
1.51553
 11
-0.598526
 21
1.64445
  0
LINE
  8
0
 10
-0.598526
 20
1.64445
 11
-0.303879
 21
1.7234
  0
LINE
  8
0
 10
-0.303879
 20
1.7234
 11
0
 21
1.75
  0
LINE
  8
0
 10
0
 20
1.75
 11
0.303879
 21
1.7234
  0
LINE
  8
0
 10
0.303879
 20
1.7234
 11
0.598526
 21
1.64445
  0
LINE
  8
0
 10
0.598526
 20
1.64445
 11
0.875
 21
1.51553
  0
LINE
  8
0
 10
0.875
 20
1.51553
 11
1.12488
 21
1.34058
  0
LINE
  8
0
 10
1.12488
 20
1.34058
 11
1.34058
 21
1.12488
  0
LINE
  8
0
 10
1.34058
 20
1.12488
 11
1.51553
 21
0.874985
  0
LINE
  8
0
 10
1.51553
 20
0.874985
 11
1.64445
 21
0.598526
  0
LINE
  8
0
 10
1.64445
 20
0.598526
 11
1.7234
 21
0.303879
  0
LINE
  8
0
 10
1.7234
 20
0.303879
 11
1.75
 21
0
  0
LINE
  8
0
 10
1.75
 20
0
 11
1.7234
 21
-0.303879
  0
LINE
  8
0
 10
1.7234
 20
-0.303879
 11
1.64445
 21
-0.598526
  0
LINE
  8
0
 10
1.64445
 20
-0.598526
 11
1.51553
 21
-0.874985
  0
LINE
  8
0
 10
1.51553
 20
-0.874985
 11
1.34058
 21
-1.12488
  0
LINE
  8
0
 10
1.34058
 20
-1.12488
 11
1.12488
 21
-1.34058
  0
LINE
  8
0
 10
1.12488
 20
-1.34058
 11
0.874985
 21
-1.51553
  0
LINE
  8
0
 10
0.874985
 20
-1.51553
 11
0.598526
 21
-1.64445
  0
LINE
  8
0
 10
0.598526
 20
-1.64445
 11
0.303879
 21
-1.7234
  0
LINE
  8
0
 10
0.303879
 20
-1.7234
 11
0
 21
-1.75
  0
LINE
  8
0
 10
0
 20
-1.75
 11
-0.303879
 21
-1.7234
  0
ENDSEC
  0
SECTION
  2
OBJECTS
  0
DICTIONARY
  0
ENDSEC
  0
EOF
