  0
SECTION
  2
BLOCKS
  0
ENDSEC
  0
SECTION
  2
ENTITIES
  0
LINE
  8
0
 10
7.65366
 20
-7.65366
 11
10.8239
 21
0
  0
LINE
  8
0
 10
10.8239
 20
0
 11
7.65366
 21
7.65366
  0
LINE
  8
0
 10
7.65366
 20
7.65366
 11
0
 21
10.8239
  0
LINE
  8
0
 10
0
 20
10.8239
 11
-7.65366
 21
7.65366
  0
LINE
  8
0
 10
-7.65366
 20
7.65366
 11
-10.8239
 21
0
  0
LINE
  8
0
 10
-10.8239
 20
0
 11
-7.65366
 21
-7.65366
  0
LINE
  8
0
 10
-7.65366
 20
-7.65366
 11
0
 21
-10.8239
  0
LINE
  8
0
 10
0
 20
-10.8239
 11
7.65366
 21
-7.65366
  0
LINE
  8
0
 10
-0.295197
 20
-1.67416
 11
-0.581421
 21
-1.59747
  0
LINE
  8
0
 10
-0.581421
 20
-1.59747
 11
-0.849991
 21
-1.47223
  0
LINE
  8
0
 10
-0.849991
 20
-1.47223
 11
-1.09273
 21
-1.30226
  0
LINE
  8
0
 10
-1.09273
 20
-1.30226
 11
-1.30226
 21
-1.09273
  0
LINE
  8
0
 10
-1.30226
 20
-1.09273
 11
-1.47223
 21
-0.849991
  0
LINE
  8
0
 10
-1.47223
 20
-0.849991
 11
-1.59747
 21
-0.581421
  0
LINE
  8
0
 10
-1.59747
 20
-0.581421
 11
-1.67416
 21
-0.295197
  0
LINE
  8
0
 10
-1.67416
 20
-0.295197
 11
-1.7
 21
0
  0
LINE
  8
0
 10
-1.7
 20
0
 11
-1.67416
 21
0.295197
  0
LINE
  8
0
 10
-1.67416
 20
0.295197
 11
-1.59747
 21
0.581421
  0
LINE
  8
0
 10
-1.59747
 20
0.581421
 11
-1.47223
 21
0.849991
  0
LINE
  8
0
 10
-1.47223
 20
0.849991
 11
-1.30226
 21
1.09273
  0
LINE
  8
0
 10
-1.30226
 20
1.09273
 11
-1.09273
 21
1.30226
  0
LINE
  8
0
 10
-1.09273
 20
1.30226
 11
-0.849991
 21
1.47223
  0
LINE
  8
0
 10
-0.849991
 20
1.47223
 11
-0.581421
 21
1.59747
  0
LINE
  8
0
 10
-0.581421
 20
1.59747
 11
-0.295197
 21
1.67416
  0
LINE
  8
0
 10
-0.295197
 20
1.67416
 11
0
 21
1.7
  0
LINE
  8
0
 10
0
 20
1.7
 11
0.295197
 21
1.67416
  0
LINE
  8
0
 10
0.295197
 20
1.67416
 11
0.581421
 21
1.59747
  0
LINE
  8
0
 10
0.581421
 20
1.59747
 11
0.849991
 21
1.47223
  0
LINE
  8
0
 10
0.849991
 20
1.47223
 11
1.09273
 21
1.30226
  0
LINE
  8
0
 10
1.09273
 20
1.30226
 11
1.30226
 21
1.09273
  0
LINE
  8
0
 10
1.30226
 20
1.09273
 11
1.47223
 21
0.849991
  0
LINE
  8
0
 10
1.47223
 20
0.849991
 11
1.59747
 21
0.581421
  0
LINE
  8
0
 10
1.59747
 20
0.581421
 11
1.67416
 21
0.295197
  0
LINE
  8
0
 10
1.67416
 20
0.295197
 11
1.7
 21
0
  0
LINE
  8
0
 10
1.7
 20
0
 11
1.67416
 21
-0.295197
  0
LINE
  8
0
 10
1.67416
 20
-0.295197
 11
1.59747
 21
-0.581421
  0
LINE
  8
0
 10
1.59747
 20
-0.581421
 11
1.47223
 21
-0.849991
  0
LINE
  8
0
 10
1.47223
 20
-0.849991
 11
1.30226
 21
-1.09273
  0
LINE
  8
0
 10
1.30226
 20
-1.09273
 11
1.09273
 21
-1.30226
  0
LINE
  8
0
 10
1.09273
 20
-1.30226
 11
0.849991
 21
-1.47223
  0
LINE
  8
0
 10
0.849991
 20
-1.47223
 11
0.581421
 21
-1.59747
  0
LINE
  8
0
 10
0.581421
 20
-1.59747
 11
0.295197
 21
-1.67416
  0
LINE
  8
0
 10
0.295197
 20
-1.67416
 11
0
 21
-1.7
  0
LINE
  8
0
 10
0
 20
-1.7
 11
-0.295197
 21
-1.67416
  0
ENDSEC
  0
SECTION
  2
OBJECTS
  0
DICTIONARY
  0
ENDSEC
  0
EOF
